<svg class="toyplot-canvas-Canvas" xmlns:toyplot="http://www.sandia.gov/toyplot" xmlns:xlink="http://www.w3.org/1999/xlink" xmlns="http://www.w3.org/2000/svg" width="250.0px" height="250.0px" viewBox="0 0 250.0 250.0" preserveAspectRatio="xMidYMid meet" style="background-color:transparent;border-color:#292724;border-style:none;border-width:1.0;fill:rgb(16.1%,15.3%,14.1%);fill-opacity:1.0;font-family:Helvetica;font-size:12px;opacity:1.0;stroke:rgb(16.1%,15.3%,14.1%);stroke-opacity:1.0;stroke-width:1.0" id="t6c358f09b6374caf94acc4f08ab7c36f"><g class="toyplot-coordinates-Cartesian" id="t22625ec7e59f47cf8b10316b2ddfc9b2"><clipPath id="t7d0a7dfa79ec4b138199294d28c5bf55"><rect x="35.0" y="35.0" width="180.0" height="180.0" /></clipPath><g clip-path="url(#t7d0a7dfa79ec4b138199294d28c5bf55)"><g class="toytree-mark-Toytree" id="t092048b7222748118a7cc443a6d37270"><g class="toytree-Edges" style="stroke:rgb(14.5%,14.5%,14.5%);stroke-opacity:1.0;stroke-linecap:round;stroke-width:2.0;fill:none"><path d="M 52.9 81.6 L 162.5 56.6" id="14,0" style="" /><path d="M 74.8 106.7 L 162.5 76.1" id="13,1" style="" /><path d="M 118.7 159.2 L 162.5 134.8" id="9,2" style="" /><path d="M 140.6 183.7 L 162.5 193.4" id="8,3" style="" /><path d="M 140.6 183.7 L 162.5 173.9" id="8,4" style="" /><path d="M 140.6 134.8 L 162.5 154.3" id="10,5" style="" /><path d="M 140.6 134.8 L 162.5 115.2" id="10,6" style="" /><path d="M 118.7 115.2 L 162.5 95.7" id="11,7" style="" /><path d="M 118.7 159.2 L 140.6 183.7" id="9,8" style="" /><path d="M 96.8 137.2 L 118.7 159.2" id="12,9" style="" /><path d="M 118.7 115.2 L 140.6 134.8" id="11,10" style="" /><path d="M 96.8 137.2 L 118.7 115.2" id="12,11" style="" /><path d="M 74.8 106.7 L 96.8 137.2" id="13,12" style="" /><path d="M 52.9 81.6 L 74.8 106.7" id="14,13" style="" /></g><g class="toytree-AlignEdges" style="stroke:rgb(66.0%,66.0%,66.0%);stroke-opacity:0.75;stroke-dasharray:2,4;stroke-linecap:round;stroke-width:2"><path d="M 162.5 56.6 L 162.5 56.6" /><path d="M 162.5 76.1 L 162.5 76.1" /><path d="M 162.5 134.8 L 162.5 134.8" /><path d="M 162.5 193.4 L 162.5 193.4" /><path d="M 162.5 173.9 L 162.5 173.9" /><path d="M 162.5 154.3 L 162.5 154.3" /><path d="M 162.5 115.2 L 162.5 115.2" /><path d="M 162.5 95.7 L 162.5 95.7" /></g><g class="toytree-AdmixEdges" style="fill:rgb(0.0%,0.0%,0.0%);fill-opacity:0.0;stroke:rgb(90.6%,54.1%,76.5%);stroke-opacity:0.6;font-size:14px;stroke-linecap:round;stroke-width:5" /><g class="toytree-Nodes" style="fill:rgb(40.0%,76.1%,64.7%);fill-opacity:1.0;stroke:rgb(14.5%,14.5%,14.5%);stroke-opacity:1.0;stroke-width:1.0"><g id="Node-0" transform="translate(162.499,56.5693)"><circle r="3.0" /></g><g id="Node-1" transform="translate(162.499,76.121)"><circle r="3.0" /></g><g id="Node-2" transform="translate(162.499,134.776)"><circle r="3.0" /></g><g id="Node-3" transform="translate(162.499,193.431)"><circle r="3.0" /></g><g id="Node-4" transform="translate(162.499,173.879)"><circle r="3.0" /></g><g id="Node-5" transform="translate(162.499,154.327)"><circle r="3.0" /></g><g id="Node-6" transform="translate(162.499,115.224)"><circle r="3.0" /></g><g id="Node-7" transform="translate(162.499,95.6726)"><circle r="3.0" /></g><g id="Node-8" transform="translate(140.583,183.655)"><circle r="3.0" /></g><g id="Node-9" transform="translate(118.668,159.215)"><circle r="3.0" /></g><g id="Node-10" transform="translate(140.583,134.776)"><circle r="3.0" /></g><g id="Node-11" transform="translate(118.668,115.224)"><circle r="3.0" /></g><g id="Node-12" transform="translate(96.7526,137.22)"><circle r="3.0" /></g><g id="Node-13" transform="translate(74.8373,106.67)"><circle r="3.0" /></g><g id="Node-14" transform="translate(52.922,81.6199)"><circle r="3.0" /></g></g><g class="toytree-TipLabels" style="fill:rgb(14.5%,14.5%,14.5%);fill-opacity:1.0;font-family:Helvetica;font-size:12px;font-weight:300;vertical-align:baseline;white-space:pre;stroke:none"><g class="toytree-TipLabel" transform="translate(162.499,56.5693)"><text x="15.0" y="3.066" style="fill:rgb(14.5%,14.5%,14.5%);fill-opacity:1.0">r7</text></g><g class="toytree-TipLabel" transform="translate(162.499,76.121)"><text x="15.0" y="3.066" style="fill:rgb(14.5%,14.5%,14.5%);fill-opacity:1.0">r6</text></g><g class="toytree-TipLabel" transform="translate(162.499,134.776)"><text x="15.0" y="3.066" style="fill:rgb(14.5%,14.5%,14.5%);fill-opacity:1.0">r3</text></g><g class="toytree-TipLabel" transform="translate(162.499,193.431)"><text x="15.0" y="3.066" style="fill:rgb(14.5%,14.5%,14.5%);fill-opacity:1.0">r0</text></g><g class="toytree-TipLabel" transform="translate(162.499,173.879)"><text x="15.0" y="3.066" style="fill:rgb(14.5%,14.5%,14.5%);fill-opacity:1.0">r1</text></g><g class="toytree-TipLabel" transform="translate(162.499,154.327)"><text x="15.0" y="3.066" style="fill:rgb(14.5%,14.5%,14.5%);fill-opacity:1.0">r2</text></g><g class="toytree-TipLabel" transform="translate(162.499,115.224)"><text x="15.0" y="3.066" style="fill:rgb(14.5%,14.5%,14.5%);fill-opacity:1.0">r4</text></g><g class="toytree-TipLabel" transform="translate(162.499,95.6726)"><text x="15.0" y="3.066" style="fill:rgb(14.5%,14.5%,14.5%);fill-opacity:1.0">r5</text></g></g></g></g></g></svg>