<svg class="toyplot-canvas-Canvas" xmlns:toyplot="http://www.sandia.gov/toyplot" xmlns:xlink="http://www.w3.org/1999/xlink" xmlns="http://www.w3.org/2000/svg" width="290.0px" height="250.0px" viewBox="0 0 290.0 250.0" preserveAspectRatio="xMidYMid meet" style="background-color:transparent;border-color:#292724;border-style:none;border-width:1.0;fill:rgb(16.1%,15.3%,14.1%);fill-opacity:1.0;font-family:Helvetica;font-size:12px;opacity:1.0;stroke:rgb(16.1%,15.3%,14.1%);stroke-opacity:1.0;stroke-width:1.0" id="t9c0d8acbd46240de8e808bd59f45f250"><g class="toyplot-coordinates-Cartesian" id="tf1f5daa2674343cfade82630f339756d"><clipPath id="t844861a5f8ba4c3fa2bc57e470a7869f"><rect x="35.0" y="35.0" width="220.0" height="180.0" /></clipPath><g clip-path="url(#t844861a5f8ba4c3fa2bc57e470a7869f)"><g class="toytree-mark-Toytree" id="t6fbca49c9795412c8cc56293b63083df"><g class="toytree-Edges" style="stroke:rgb(14.5%,14.5%,14.5%);stroke-opacity:1.0;stroke-linecap:round;stroke-width:2.0;fill:none"><path d="M 178.5 66.3 L 178.5 56.6 L 199.8 56.6" id="8,0" style="" /><path d="M 178.5 66.3 L 178.5 76.1 L 199.8 76.1" id="8,1" style="" /><path d="M 157.2 81.0 L 157.2 95.7 L 199.8 95.7" id="9,2" style="" /><path d="M 135.9 98.1 L 135.9 115.2 L 199.8 115.2" id="10,3" style="" /><path d="M 114.6 116.4 L 114.6 134.8 L 199.8 134.8" id="11,4" style="" /><path d="M 93.3 135.4 L 93.3 154.3 L 199.8 154.3" id="12,5" style="" /><path d="M 72.1 154.6 L 72.1 173.9 L 199.8 173.9" id="13,6" style="" /><path d="M 50.8 174.0 L 50.8 193.4 L 199.8 193.4" id="14,7" style="" /><path d="M 157.2 81.0 L 157.2 66.3 L 178.5 66.3" id="9,8" style="" /><path d="M 135.9 98.1 L 135.9 81.0 L 157.2 81.0" id="10,9" style="" /><path d="M 114.6 116.4 L 114.6 98.1 L 135.9 98.1" id="11,10" style="" /><path d="M 93.3 135.4 L 93.3 116.4 L 114.6 116.4" id="12,11" style="" /><path d="M 72.1 154.6 L 72.1 135.4 L 93.3 135.4" id="13,12" style="" /><path d="M 50.8 174.0 L 50.8 154.6 L 72.1 154.6" id="14,13" style="" /></g><g class="toytree-AdmixEdges" style="fill:rgb(0.0%,0.0%,0.0%);fill-opacity:0.0;stroke:rgb(90.6%,54.1%,76.5%);stroke-opacity:0.6;font-size:14px;stroke-linecap:round;stroke-width:5"><path d="M 199.75 95.67 L 185.65 95.67 L 185.65 115.22 L 135.91 115.22" style="stroke:rgb(76.3%,90.4%,62.4%);stroke-opacity:0.34;stroke-width:2" /><text x="185.65" y="117.45" style="fill:rgb(14.9%,14.9%,14.9%);fill-opacity:1.0;stroke:rgb(0.0%,0.0%,0.0%);stroke-opacity:0.34;stroke-width:2;text-anchor:middle" /><path d="M 199.75 95.67 L 163.99 95.67 L 163.99 115.22 L 135.91 115.22" style="stroke:rgb(42.7%,77.1%,64.7%);stroke-opacity:0.21;stroke-width:2" /><text x="163.99" y="117.45" style="fill:rgb(14.9%,14.9%,14.9%);fill-opacity:1.0;stroke:rgb(0.0%,0.0%,0.0%);stroke-opacity:0.21;stroke-width:2;text-anchor:middle" /><path d="M 199.75 95.67 L 165.59 95.67 L 165.59 115.22 L 135.91 115.22" style="stroke:rgb(76.8%,90.6%,62.3%);stroke-opacity:0.342;stroke-width:2" /><text x="165.59" y="117.45" style="fill:rgb(14.9%,14.9%,14.9%);fill-opacity:1.0;stroke:rgb(0.0%,0.0%,0.0%);stroke-opacity:0.342;stroke-width:2;text-anchor:middle" /><path d="M 199.75 95.67 L 197.67 95.67 L 197.67 76.12 L 178.47 76.12" style="stroke:rgb(49.7%,79.9%,64.6%);stroke-opacity:0.236;stroke-width:2" /><text x="197.67" y="97.90" style="fill:rgb(14.9%,14.9%,14.9%);fill-opacity:1.0;stroke:rgb(0.0%,0.0%,0.0%);stroke-opacity:0.236;stroke-width:2;text-anchor:middle" /><path d="M 199.75 95.67 L 173.43 95.67 L 173.43 115.22 L 135.91 115.22" style="stroke:rgb(69.4%,87.6%,63.8%);stroke-opacity:0.31;stroke-width:2" /><text x="173.43" y="117.45" style="fill:rgb(14.9%,14.9%,14.9%);fill-opacity:1.0;stroke:rgb(0.0%,0.0%,0.0%);stroke-opacity:0.31;stroke-width:2;text-anchor:middle" /><path d="M 199.75 95.67 L 182.95 95.67 L 182.95 76.12 L 178.47 76.12" style="stroke:rgb(51.4%,80.5%,64.5%);stroke-opacity:0.242;stroke-width:2" /><text x="182.95" y="97.90" style="fill:rgb(14.9%,14.9%,14.9%);fill-opacity:1.0;stroke:rgb(0.0%,0.0%,0.0%);stroke-opacity:0.242;stroke-width:2;text-anchor:middle" /><path d="M 50.78 174.03 L 50.78 174.03 L 50.78 174.03 L 50.78 174.03" style="stroke:rgb(99.5%,84.7%,51.9%);stroke-opacity:0.616;stroke-width:2" /><text x="50.78" y="186.03" style="fill:rgb(14.9%,14.9%,14.9%);fill-opacity:1.0;stroke:rgb(0.0%,0.0%,0.0%);stroke-opacity:0.616;stroke-width:2;text-anchor:middle" /><path d="M 199.75 115.22 L 175.01 115.22 L 50.78 174.03 L 50.78 174.03" style="stroke:rgb(20.2%,52.6%,73.8%);stroke-opacity:0.0966;stroke-width:2" /><text x="112.90" y="156.63" style="fill:rgb(14.9%,14.9%,14.9%);fill-opacity:1.0;stroke:rgb(0.0%,0.0%,0.0%);stroke-opacity:0.0966;stroke-width:2;text-anchor:middle" /><path d="M 199.75 95.67 L 193.05 95.67 L 193.05 115.22 L 135.91 115.22" style="stroke:rgb(83.3%,93.3%,61.0%);stroke-opacity:0.37;stroke-width:2" /><text x="193.05" y="117.45" style="fill:rgb(14.9%,14.9%,14.9%);fill-opacity:1.0;stroke:rgb(0.0%,0.0%,0.0%);stroke-opacity:0.37;stroke-width:2;text-anchor:middle" /><path d="M 199.75 95.67 L 179.10 95.67 L 179.10 115.22 L 135.91 115.22" style="stroke:rgb(68.0%,87.0%,64.1%);stroke-opacity:0.304;stroke-width:2" /><text x="179.10" y="117.45" style="fill:rgb(14.9%,14.9%,14.9%);fill-opacity:1.0;stroke:rgb(0.0%,0.0%,0.0%);stroke-opacity:0.304;stroke-width:2;text-anchor:middle" /><path d="M 199.75 95.67 L 180.92 95.67 L 180.92 76.12 L 178.47 76.12" style="stroke:rgb(63.3%,85.2%,64.4%);stroke-opacity:0.286;stroke-width:2" /><text x="180.92" y="97.90" style="fill:rgb(14.9%,14.9%,14.9%);fill-opacity:1.0;stroke:rgb(0.0%,0.0%,0.0%);stroke-opacity:0.286;stroke-width:2;text-anchor:middle" /><path d="M 199.75 115.22 L 189.76 115.22 L 189.76 95.67 L 157.19 95.67" style="stroke:rgb(19.8%,53.1%,74.0%);stroke-opacity:0.099;stroke-width:2" /><text x="189.76" y="117.45" style="fill:rgb(14.9%,14.9%,14.9%);fill-opacity:1.0;stroke:rgb(0.0%,0.0%,0.0%);stroke-opacity:0.099;stroke-width:2;text-anchor:middle" /><path d="M 199.75 95.67 L 189.54 95.67 L 189.54 76.12 L 178.47 76.12" style="stroke:rgb(56.8%,82.6%,64.5%);stroke-opacity:0.262;stroke-width:2" /><text x="189.54" y="97.90" style="fill:rgb(14.9%,14.9%,14.9%);fill-opacity:1.0;stroke:rgb(0.0%,0.0%,0.0%);stroke-opacity:0.262;stroke-width:2;text-anchor:middle" /><path d="M 199.75 95.67 L 184.86 95.67 L 184.86 115.22 L 135.91 115.22" style="stroke:rgb(60.0%,83.9%,64.4%);stroke-opacity:0.274;stroke-width:2" /><text x="184.86" y="117.45" style="fill:rgb(14.9%,14.9%,14.9%);fill-opacity:1.0;stroke:rgb(0.0%,0.0%,0.0%);stroke-opacity:0.274;stroke-width:2;text-anchor:middle" /><path d="M 199.75 95.67 L 190.94 95.67 L 190.94 134.78 L 114.63 134.78" style="stroke:rgb(72.1%,88.7%,63.3%);stroke-opacity:0.322;stroke-width:2" /><text x="190.94" y="127.22" style="fill:rgb(14.9%,14.9%,14.9%);fill-opacity:1.0;stroke:rgb(0.0%,0.0%,0.0%);stroke-opacity:0.322;stroke-width:2;text-anchor:middle" /><path d="M 50.78 174.03 L 50.78 174.03 L 50.78 174.03 L 50.78 174.03" style="stroke:rgb(26.4%,60.9%,71.0%);stroke-opacity:0.1334;stroke-width:2" /><text x="50.78" y="186.03" style="fill:rgb(14.9%,14.9%,14.9%);fill-opacity:1.0;stroke:rgb(0.0%,0.0%,0.0%);stroke-opacity:0.1334;stroke-width:2;text-anchor:middle" /><path d="M 199.75 95.67 L 176.17 95.67 L 176.17 134.78 L 114.63 134.78" style="stroke:rgb(64.4%,85.6%,64.4%);stroke-opacity:0.29;stroke-width:2" /><text x="176.17" y="127.22" style="fill:rgb(14.9%,14.9%,14.9%);fill-opacity:1.0;stroke:rgb(0.0%,0.0%,0.0%);stroke-opacity:0.29;stroke-width:2;text-anchor:middle" /><path d="M 157.19 81.01 L 149.59 81.01 L 85.75 135.39 L 72.06 135.39" style="stroke:rgb(96.5%,48.4%,28.9%);stroke-opacity:0.778;stroke-width:2" /><text x="117.67" y="120.20" style="fill:rgb(14.9%,14.9%,14.9%);fill-opacity:1.0;stroke:rgb(0.0%,0.0%,0.0%);stroke-opacity:0.778;stroke-width:2;text-anchor:middle" /><path d="M 199.75 95.67 L 197.87 95.67 L 197.87 56.57 L 178.47 56.57" style="stroke:rgb(67.1%,86.7%,64.3%);stroke-opacity:0.3;stroke-width:2" /><text x="197.87" y="88.12" style="fill:rgb(14.9%,14.9%,14.9%);fill-opacity:1.0;stroke:rgb(0.0%,0.0%,0.0%);stroke-opacity:0.3;stroke-width:2;text-anchor:middle" /><path d="M 199.75 95.67 L 170.04 95.67 L 170.04 134.78 L 114.63 134.78" style="stroke:rgb(86.0%,94.4%,60.5%);stroke-opacity:0.382;stroke-width:2" /><text x="170.04" y="127.22" style="fill:rgb(14.9%,14.9%,14.9%);fill-opacity:1.0;stroke:rgb(0.0%,0.0%,0.0%);stroke-opacity:0.382;stroke-width:2;text-anchor:middle" /><path d="M 199.75 134.78 L 199.48 134.78 L 199.48 95.67 L 157.19 95.67" style="stroke:rgb(32.9%,36.2%,66.0%);stroke-opacity:0.0232;stroke-width:2" /><text x="199.48" y="127.22" style="fill:rgb(14.9%,14.9%,14.9%);fill-opacity:1.0;stroke:rgb(0.0%,0.0%,0.0%);stroke-opacity:0.0232;stroke-width:2;text-anchor:middle" /><path d="M 199.75 134.78 L 187.54 134.78 L 187.54 95.67 L 157.19 95.67" style="stroke:rgb(32.5%,36.6%,66.2%);stroke-opacity:0.0252;stroke-width:2" /><text x="187.54" y="127.22" style="fill:rgb(14.9%,14.9%,14.9%);fill-opacity:1.0;stroke:rgb(0.0%,0.0%,0.0%);stroke-opacity:0.0252;stroke-width:2;text-anchor:middle" /><path d="M 199.75 95.67 L 188.04 95.67 L 50.78 174.03 L 50.78 174.03" style="stroke:rgb(80.9%,92.3%,61.5%);stroke-opacity:0.36;stroke-width:2" /><text x="119.41" y="146.85" style="fill:rgb(14.9%,14.9%,14.9%);fill-opacity:1.0;stroke:rgb(0.0%,0.0%,0.0%);stroke-opacity:0.36;stroke-width:2;text-anchor:middle" /><path d="M 199.75 115.22 L 177.18 115.22 L 177.18 95.67 L 157.19 95.67" style="stroke:rgb(19.9%,53.6%,74.0%);stroke-opacity:0.1012;stroke-width:2" /><text x="177.18" y="117.45" style="fill:rgb(14.9%,14.9%,14.9%);fill-opacity:1.0;stroke:rgb(0.0%,0.0%,0.0%);stroke-opacity:0.1012;stroke-width:2;text-anchor:middle" /><path d="M 199.75 115.22 L 158.26 115.22 L 158.26 95.67 L 157.19 95.67" style="stroke:rgb(22.6%,49.4%,72.3%);stroke-opacity:0.0826;stroke-width:2" /><text x="158.26" y="117.45" style="fill:rgb(14.9%,14.9%,14.9%);fill-opacity:1.0;stroke:rgb(0.0%,0.0%,0.0%);stroke-opacity:0.0826;stroke-width:2;text-anchor:middle" /><path d="M 199.75 95.67 L 179.00 95.67 L 179.00 115.22 L 135.91 115.22" style="stroke:rgb(74.9%,89.9%,62.7%);stroke-opacity:0.334;stroke-width:2" /><text x="179.00" y="117.45" style="fill:rgb(14.9%,14.9%,14.9%);fill-opacity:1.0;stroke:rgb(0.0%,0.0%,0.0%);stroke-opacity:0.334;stroke-width:2;text-anchor:middle" /><path d="M 199.75 95.67 L 188.20 95.67 L 188.20 115.22 L 135.91 115.22" style="stroke:rgb(92.5%,97.0%,63.3%);stroke-opacity:0.424;stroke-width:2" /><text x="188.20" y="117.45" style="fill:rgb(14.9%,14.9%,14.9%);fill-opacity:1.0;stroke:rgb(0.0%,0.0%,0.0%);stroke-opacity:0.424;stroke-width:2;text-anchor:middle" /><path d="M 199.75 95.67 L 157.42 95.67 L 157.42 115.22 L 135.91 115.22" style="stroke:rgb(94.9%,98.0%,66.9%);stroke-opacity:0.448;stroke-width:2" /><text x="157.42" y="117.45" style="fill:rgb(14.9%,14.9%,14.9%);fill-opacity:1.0;stroke:rgb(0.0%,0.0%,0.0%);stroke-opacity:0.448;stroke-width:2;text-anchor:middle" /><path d="M 199.75 95.67 L 189.68 95.67 L 189.68 115.22 L 135.91 115.22" style="stroke:rgb(74.9%,89.9%,62.7%);stroke-opacity:0.334;stroke-width:2" /><text x="189.68" y="117.45" style="fill:rgb(14.9%,14.9%,14.9%);fill-opacity:1.0;stroke:rgb(0.0%,0.0%,0.0%);stroke-opacity:0.334;stroke-width:2;text-anchor:middle" /><path d="M 199.75 115.22 L 186.48 115.22 L 186.48 95.67 L 157.19 95.67" style="stroke:rgb(21.1%,51.4%,73.2%);stroke-opacity:0.0912;stroke-width:2" /><text x="186.48" y="117.45" style="fill:rgb(14.9%,14.9%,14.9%);fill-opacity:1.0;stroke:rgb(0.0%,0.0%,0.0%);stroke-opacity:0.0912;stroke-width:2;text-anchor:middle" /><path d="M 199.75 115.22 L 183.57 115.22 L 183.57 95.67 L 157.19 95.67" style="stroke:rgb(23.3%,48.5%,71.9%);stroke-opacity:0.0786;stroke-width:2" /><text x="183.57" y="117.45" style="fill:rgb(14.9%,14.9%,14.9%);fill-opacity:1.0;stroke:rgb(0.0%,0.0%,0.0%);stroke-opacity:0.0786;stroke-width:2;text-anchor:middle" /><path d="M 199.75 95.67 L 183.22 95.67 L 183.22 134.78 L 114.63 134.78" style="stroke:rgb(61.6%,84.5%,64.4%);stroke-opacity:0.28;stroke-width:2" /><text x="183.22" y="127.22" style="fill:rgb(14.9%,14.9%,14.9%);fill-opacity:1.0;stroke:rgb(0.0%,0.0%,0.0%);stroke-opacity:0.28;stroke-width:2;text-anchor:middle" /><path d="M 199.75 115.22 L 177.89 115.22 L 177.89 95.67 L 157.19 95.67" style="stroke:rgb(20.0%,52.8%,73.9%);stroke-opacity:0.0978;stroke-width:2" /><text x="177.89" y="117.45" style="fill:rgb(14.9%,14.9%,14.9%);fill-opacity:1.0;stroke:rgb(0.0%,0.0%,0.0%);stroke-opacity:0.0978;stroke-width:2;text-anchor:middle" /><path d="M 199.75 95.67 L 186.00 95.67 L 186.00 115.22 L 135.91 115.22" style="stroke:rgb(85.6%,94.2%,60.5%);stroke-opacity:0.38;stroke-width:2" /><text x="186.00" y="117.45" style="fill:rgb(14.9%,14.9%,14.9%);fill-opacity:1.0;stroke:rgb(0.0%,0.0%,0.0%);stroke-opacity:0.38;stroke-width:2;text-anchor:middle" /><path d="M 199.75 95.67 L 186.82 95.67 L 186.82 76.12 L 178.47 76.12" style="stroke:rgb(66.5%,86.5%,64.3%);stroke-opacity:0.298;stroke-width:2" /><text x="186.82" y="97.90" style="fill:rgb(14.9%,14.9%,14.9%);fill-opacity:1.0;stroke:rgb(0.0%,0.0%,0.0%);stroke-opacity:0.298;stroke-width:2;text-anchor:middle" /><path d="M 199.75 95.67 L 188.03 95.67 L 188.03 76.12 L 178.47 76.12" style="stroke:rgb(68.9%,87.4%,63.9%);stroke-opacity:0.308;stroke-width:2" /><text x="188.03" y="97.90" style="fill:rgb(14.9%,14.9%,14.9%);fill-opacity:1.0;stroke:rgb(0.0%,0.0%,0.0%);stroke-opacity:0.308;stroke-width:2;text-anchor:middle" /><path d="M 199.75 115.22 L 191.35 115.22 L 191.35 95.67 L 157.19 95.67" style="stroke:rgb(20.4%,54.2%,73.8%);stroke-opacity:0.1038;stroke-width:2" /><text x="191.35" y="117.45" style="fill:rgb(14.9%,14.9%,14.9%);fill-opacity:1.0;stroke:rgb(0.0%,0.0%,0.0%);stroke-opacity:0.1038;stroke-width:2;text-anchor:middle" /><path d="M 199.75 95.67 L 191.93 95.67 L 191.93 56.57 L 178.47 56.57" style="stroke:rgb(68.9%,87.4%,63.9%);stroke-opacity:0.308;stroke-width:2" /><text x="191.93" y="88.12" style="fill:rgb(14.9%,14.9%,14.9%);fill-opacity:1.0;stroke:rgb(0.0%,0.0%,0.0%);stroke-opacity:0.308;stroke-width:2;text-anchor:middle" /><path d="M 199.75 95.67 L 187.59 95.67 L 187.59 115.22 L 135.91 115.22" style="stroke:rgb(77.2%,90.8%,62.2%);stroke-opacity:0.344;stroke-width:2" /><text x="187.59" y="117.45" style="fill:rgb(14.9%,14.9%,14.9%);fill-opacity:1.0;stroke:rgb(0.0%,0.0%,0.0%);stroke-opacity:0.344;stroke-width:2;text-anchor:middle" /><path d="M 199.75 115.22 L 169.32 115.22 L 169.32 95.67 L 157.19 95.67" style="stroke:rgb(20.6%,52.0%,73.5%);stroke-opacity:0.0942;stroke-width:2" /><text x="169.32" y="117.45" style="fill:rgb(14.9%,14.9%,14.9%);fill-opacity:1.0;stroke:rgb(0.0%,0.0%,0.0%);stroke-opacity:0.0942;stroke-width:2;text-anchor:middle" /><path d="M 199.75 95.67 L 172.18 95.67 L 172.18 115.22 L 135.91 115.22" style="stroke:rgb(75.9%,90.2%,62.5%);stroke-opacity:0.338;stroke-width:2" /><text x="172.18" y="117.45" style="fill:rgb(14.9%,14.9%,14.9%);fill-opacity:1.0;stroke:rgb(0.0%,0.0%,0.0%);stroke-opacity:0.338;stroke-width:2;text-anchor:middle" /><path d="M 199.75 95.67 L 182.25 95.67 L 182.25 76.12 L 178.47 76.12" style="stroke:rgb(51.9%,80.7%,64.5%);stroke-opacity:0.244;stroke-width:2" /><text x="182.25" y="97.90" style="fill:rgb(14.9%,14.9%,14.9%);fill-opacity:1.0;stroke:rgb(0.0%,0.0%,0.0%);stroke-opacity:0.244;stroke-width:2;text-anchor:middle" /><path d="M 199.75 95.67 L 179.77 95.67 L 179.77 115.22 L 135.91 115.22" style="stroke:rgb(80.5%,92.1%,61.6%);stroke-opacity:0.358;stroke-width:2" /><text x="179.77" y="117.45" style="fill:rgb(14.9%,14.9%,14.9%);fill-opacity:1.0;stroke:rgb(0.0%,0.0%,0.0%);stroke-opacity:0.358;stroke-width:2;text-anchor:middle" /><path d="M 199.75 115.22 L 192.23 115.22 L 192.23 95.67 L 157.19 95.67" style="stroke:rgb(24.1%,47.5%,71.3%);stroke-opacity:0.0738;stroke-width:2" /><text x="192.23" y="117.45" style="fill:rgb(14.9%,14.9%,14.9%);fill-opacity:1.0;stroke:rgb(0.0%,0.0%,0.0%);stroke-opacity:0.0738;stroke-width:2;text-anchor:middle" /><path d="M 199.75 115.22 L 157.44 115.22 L 157.44 95.67 L 157.19 95.67" style="stroke:rgb(27.6%,43.0%,69.2%);stroke-opacity:0.0538;stroke-width:2" /><text x="157.44" y="117.45" style="fill:rgb(14.9%,14.9%,14.9%);fill-opacity:1.0;stroke:rgb(0.0%,0.0%,0.0%);stroke-opacity:0.0538;stroke-width:2;text-anchor:middle" /><path d="M 199.75 95.67 L 163.70 95.67 L 163.70 115.22 L 135.91 115.22" style="stroke:rgb(78.6%,91.4%,62.0%);stroke-opacity:0.35;stroke-width:2" /><text x="163.70" y="117.45" style="fill:rgb(14.9%,14.9%,14.9%);fill-opacity:1.0;stroke:rgb(0.0%,0.0%,0.0%);stroke-opacity:0.35;stroke-width:2;text-anchor:middle" /><path d="M 199.75 95.67 L 159.39 95.67 L 159.39 134.78 L 114.63 134.78" style="stroke:rgb(70.3%,88.0%,63.7%);stroke-opacity:0.314;stroke-width:2" /><text x="159.39" y="127.22" style="fill:rgb(14.9%,14.9%,14.9%);fill-opacity:1.0;stroke:rgb(0.0%,0.0%,0.0%);stroke-opacity:0.314;stroke-width:2;text-anchor:middle" /><path d="M 199.75 95.67 L 190.68 95.67 L 190.68 76.12 L 178.47 76.12" style="stroke:rgb(62.2%,84.8%,64.4%);stroke-opacity:0.282;stroke-width:2" /><text x="190.68" y="97.90" style="fill:rgb(14.9%,14.9%,14.9%);fill-opacity:1.0;stroke:rgb(0.0%,0.0%,0.0%);stroke-opacity:0.282;stroke-width:2;text-anchor:middle" /><path d="M 199.75 115.22 L 195.12 115.22 L 195.12 95.67 L 157.19 95.67" style="stroke:rgb(19.8%,53.6%,74.0%);stroke-opacity:0.101;stroke-width:2" /><text x="195.12" y="117.45" style="fill:rgb(14.9%,14.9%,14.9%);fill-opacity:1.0;stroke:rgb(0.0%,0.0%,0.0%);stroke-opacity:0.101;stroke-width:2;text-anchor:middle" /><path d="M 199.75 95.67 L 199.65 95.67 L 199.65 115.22 L 135.91 115.22" style="stroke:rgb(73.5%,89.3%,63.0%);stroke-opacity:0.328;stroke-width:2" /><text x="199.65" y="117.45" style="fill:rgb(14.9%,14.9%,14.9%);fill-opacity:1.0;stroke:rgb(0.0%,0.0%,0.0%);stroke-opacity:0.328;stroke-width:2;text-anchor:middle" /><path d="M 199.75 115.22 L 158.88 115.22 L 158.88 95.67 L 157.19 95.67" style="stroke:rgb(24.3%,47.2%,71.2%);stroke-opacity:0.0726;stroke-width:2" /><text x="158.88" y="117.45" style="fill:rgb(14.9%,14.9%,14.9%);fill-opacity:1.0;stroke:rgb(0.0%,0.0%,0.0%);stroke-opacity:0.0726;stroke-width:2;text-anchor:middle" /><path d="M 199.75 95.67 L 159.97 95.67 L 159.97 115.22 L 135.91 115.22" style="stroke:rgb(82.3%,92.9%,61.2%);stroke-opacity:0.366;stroke-width:2" /><text x="159.97" y="117.45" style="fill:rgb(14.9%,14.9%,14.9%);fill-opacity:1.0;stroke:rgb(0.0%,0.0%,0.0%);stroke-opacity:0.366;stroke-width:2;text-anchor:middle" /><path d="M 50.78 174.03 L 50.78 174.03 L 50.78 174.03 L 50.78 174.03" style="stroke:rgb(78.2%,91.2%,62.1%);stroke-opacity:0.348;stroke-width:2" /><text x="50.78" y="186.03" style="fill:rgb(14.9%,14.9%,14.9%);fill-opacity:1.0;stroke:rgb(0.0%,0.0%,0.0%);stroke-opacity:0.348;stroke-width:2;text-anchor:middle" /><path d="M 199.75 95.67 L 186.02 95.67 L 186.02 115.22 L 135.91 115.22" style="stroke:rgb(78.6%,91.4%,62.0%);stroke-opacity:0.35;stroke-width:2" /><text x="186.02" y="117.45" style="fill:rgb(14.9%,14.9%,14.9%);fill-opacity:1.0;stroke:rgb(0.0%,0.0%,0.0%);stroke-opacity:0.35;stroke-width:2;text-anchor:middle" /><path d="M 199.75 134.78 L 170.76 134.78 L 170.76 95.67 L 157.19 95.67" style="stroke:rgb(32.6%,36.5%,66.1%);stroke-opacity:0.0246;stroke-width:2" /><text x="170.76" y="127.22" style="fill:rgb(14.9%,14.9%,14.9%);fill-opacity:1.0;stroke:rgb(0.0%,0.0%,0.0%);stroke-opacity:0.0246;stroke-width:2;text-anchor:middle" /><path d="M 199.75 95.67 L 197.91 95.67 L 197.91 76.12 L 178.47 76.12" style="stroke:rgb(55.7%,82.2%,64.5%);stroke-opacity:0.258;stroke-width:2" /><text x="197.91" y="97.90" style="fill:rgb(14.9%,14.9%,14.9%);fill-opacity:1.0;stroke:rgb(0.0%,0.0%,0.0%);stroke-opacity:0.258;stroke-width:2;text-anchor:middle" /><path d="M 199.75 115.22 L 196.36 115.22 L 196.36 95.67 L 157.19 95.67" style="stroke:rgb(24.3%,47.2%,71.2%);stroke-opacity:0.0726;stroke-width:2" /><text x="196.36" y="117.45" style="fill:rgb(14.9%,14.9%,14.9%);fill-opacity:1.0;stroke:rgb(0.0%,0.0%,0.0%);stroke-opacity:0.0726;stroke-width:2;text-anchor:middle" /><path d="M 199.75 115.22 L 165.21 115.22 L 165.21 95.67 L 157.19 95.67" style="stroke:rgb(20.2%,52.6%,73.8%);stroke-opacity:0.0966;stroke-width:2" /><text x="165.21" y="117.45" style="fill:rgb(14.9%,14.9%,14.9%);fill-opacity:1.0;stroke:rgb(0.0%,0.0%,0.0%);stroke-opacity:0.0966;stroke-width:2;text-anchor:middle" /><path d="M 199.75 115.22 L 175.96 115.22 L 175.96 95.67 L 157.19 95.67" style="stroke:rgb(23.6%,48.1%,71.7%);stroke-opacity:0.0768;stroke-width:2" /><text x="175.96" y="117.45" style="fill:rgb(14.9%,14.9%,14.9%);fill-opacity:1.0;stroke:rgb(0.0%,0.0%,0.0%);stroke-opacity:0.0768;stroke-width:2;text-anchor:middle" /><path d="M 199.75 95.67 L 167.61 95.67 L 167.61 134.78 L 114.63 134.78" style="stroke:rgb(78.2%,91.2%,62.1%);stroke-opacity:0.348;stroke-width:2" /><text x="167.61" y="127.22" style="fill:rgb(14.9%,14.9%,14.9%);fill-opacity:1.0;stroke:rgb(0.0%,0.0%,0.0%);stroke-opacity:0.348;stroke-width:2;text-anchor:middle" /><path d="M 199.75 115.22 L 158.26 115.22 L 158.26 95.67 L 157.19 95.67" style="stroke:rgb(25.5%,45.7%,70.5%);stroke-opacity:0.066;stroke-width:2" /><text x="158.26" y="117.45" style="fill:rgb(14.9%,14.9%,14.9%);fill-opacity:1.0;stroke:rgb(0.0%,0.0%,0.0%);stroke-opacity:0.066;stroke-width:2;text-anchor:middle" /><path d="M 199.75 95.67 L 182.89 95.67 L 182.89 76.12 L 178.47 76.12" style="stroke:rgb(44.9%,78.0%,64.6%);stroke-opacity:0.218;stroke-width:2" /><text x="182.89" y="97.90" style="fill:rgb(14.9%,14.9%,14.9%);fill-opacity:1.0;stroke:rgb(0.0%,0.0%,0.0%);stroke-opacity:0.218;stroke-width:2;text-anchor:middle" /><path d="M 199.75 95.67 L 190.99 95.67 L 190.99 134.78 L 114.63 134.78" style="stroke:rgb(39.3%,75.4%,65.0%);stroke-opacity:0.1968;stroke-width:2" /><text x="190.99" y="127.22" style="fill:rgb(14.9%,14.9%,14.9%);fill-opacity:1.0;stroke:rgb(0.0%,0.0%,0.0%);stroke-opacity:0.1968;stroke-width:2;text-anchor:middle" /><path d="M 199.75 95.67 L 187.60 95.67 L 187.60 76.12 L 178.47 76.12" style="stroke:rgb(54.1%,81.6%,64.5%);stroke-opacity:0.252;stroke-width:2" /><text x="187.60" y="97.90" style="fill:rgb(14.9%,14.9%,14.9%);fill-opacity:1.0;stroke:rgb(0.0%,0.0%,0.0%);stroke-opacity:0.252;stroke-width:2;text-anchor:middle" /><path d="M 199.75 95.67 L 187.40 95.67 L 187.40 115.22 L 135.91 115.22" style="stroke:rgb(74.0%,89.5%,62.9%);stroke-opacity:0.33;stroke-width:2" /><text x="187.40" y="117.45" style="fill:rgb(14.9%,14.9%,14.9%);fill-opacity:1.0;stroke:rgb(0.0%,0.0%,0.0%);stroke-opacity:0.33;stroke-width:2;text-anchor:middle" /><path d="M 199.75 95.67 L 178.99 95.67 L 178.99 56.57 L 178.47 56.57" style="stroke:rgb(67.1%,86.7%,64.3%);stroke-opacity:0.3;stroke-width:2" /><text x="178.99" y="88.12" style="fill:rgb(14.9%,14.9%,14.9%);fill-opacity:1.0;stroke:rgb(0.0%,0.0%,0.0%);stroke-opacity:0.3;stroke-width:2;text-anchor:middle" /><path d="M 199.75 95.67 L 194.63 95.67 L 194.63 56.57 L 178.47 56.57" style="stroke:rgb(64.4%,85.6%,64.4%);stroke-opacity:0.29;stroke-width:2" /><text x="194.63" y="88.12" style="fill:rgb(14.9%,14.9%,14.9%);fill-opacity:1.0;stroke:rgb(0.0%,0.0%,0.0%);stroke-opacity:0.29;stroke-width:2;text-anchor:middle" /><path d="M 157.19 81.01 L 154.96 81.01 L 50.78 174.03 L 50.78 174.03" style="stroke:rgb(98.2%,60.6%,34.5%);stroke-opacity:0.73;stroke-width:2" /><text x="102.87" y="139.52" style="fill:rgb(14.9%,14.9%,14.9%);fill-opacity:1.0;stroke:rgb(0.0%,0.0%,0.0%);stroke-opacity:0.73;stroke-width:2;text-anchor:middle" /><path d="M 199.75 115.22 L 174.86 115.22 L 174.86 95.67 L 157.19 95.67" style="stroke:rgb(26.2%,44.7%,70.1%);stroke-opacity:0.0616;stroke-width:2" /><text x="174.86" y="117.45" style="fill:rgb(14.9%,14.9%,14.9%);fill-opacity:1.0;stroke:rgb(0.0%,0.0%,0.0%);stroke-opacity:0.0616;stroke-width:2;text-anchor:middle" /><path d="M 199.75 95.67 L 179.54 95.67 L 179.54 115.22 L 135.91 115.22" style="stroke:rgb(80.5%,92.1%,61.6%);stroke-opacity:0.358;stroke-width:2" /><text x="179.54" y="117.45" style="fill:rgb(14.9%,14.9%,14.9%);fill-opacity:1.0;stroke:rgb(0.0%,0.0%,0.0%);stroke-opacity:0.358;stroke-width:2;text-anchor:middle" /><path d="M 199.75 95.67 L 176.49 95.67 L 176.49 115.22 L 135.91 115.22" style="stroke:rgb(90.6%,96.2%,60.2%);stroke-opacity:0.404;stroke-width:2" /><text x="176.49" y="117.45" style="fill:rgb(14.9%,14.9%,14.9%);fill-opacity:1.0;stroke:rgb(0.0%,0.0%,0.0%);stroke-opacity:0.404;stroke-width:2;text-anchor:middle" /><path d="M 199.75 115.22 L 174.34 115.22 L 174.34 95.67 L 157.19 95.67" style="stroke:rgb(22.7%,56.8%,72.7%);stroke-opacity:0.1154;stroke-width:2" /><text x="174.34" y="117.45" style="fill:rgb(14.9%,14.9%,14.9%);fill-opacity:1.0;stroke:rgb(0.0%,0.0%,0.0%);stroke-opacity:0.1154;stroke-width:2;text-anchor:middle" /><path d="M 199.75 95.67 L 198.49 95.67 L 198.49 115.22 L 135.91 115.22" style="stroke:rgb(66.5%,86.5%,64.3%);stroke-opacity:0.298;stroke-width:2" /><text x="198.49" y="117.45" style="fill:rgb(14.9%,14.9%,14.9%);fill-opacity:1.0;stroke:rgb(0.0%,0.0%,0.0%);stroke-opacity:0.298;stroke-width:2;text-anchor:middle" /><path d="M 199.75 115.22 L 162.86 115.22 L 162.86 95.67 L 157.19 95.67" style="stroke:rgb(26.1%,44.9%,70.1%);stroke-opacity:0.0624;stroke-width:2" /><text x="162.86" y="117.45" style="fill:rgb(14.9%,14.9%,14.9%);fill-opacity:1.0;stroke:rgb(0.0%,0.0%,0.0%);stroke-opacity:0.0624;stroke-width:2;text-anchor:middle" /><path d="M 199.75 95.67 L 172.54 95.67 L 172.54 134.78 L 114.63 134.78" style="stroke:rgb(53.5%,81.4%,64.5%);stroke-opacity:0.25;stroke-width:2" /><text x="172.54" y="127.22" style="fill:rgb(14.9%,14.9%,14.9%);fill-opacity:1.0;stroke:rgb(0.0%,0.0%,0.0%);stroke-opacity:0.25;stroke-width:2;text-anchor:middle" /><path d="M 199.75 115.22 L 175.18 115.22 L 175.18 95.67 L 157.19 95.67" style="stroke:rgb(20.7%,51.9%,73.4%);stroke-opacity:0.0936;stroke-width:2" /><text x="175.18" y="117.45" style="fill:rgb(14.9%,14.9%,14.9%);fill-opacity:1.0;stroke:rgb(0.0%,0.0%,0.0%);stroke-opacity:0.0936;stroke-width:2;text-anchor:middle" /><path d="M 199.75 95.67 L 175.42 95.67 L 175.42 115.22 L 135.91 115.22" style="stroke:rgb(73.5%,89.3%,63.0%);stroke-opacity:0.328;stroke-width:2" /><text x="175.42" y="117.45" style="fill:rgb(14.9%,14.9%,14.9%);fill-opacity:1.0;stroke:rgb(0.0%,0.0%,0.0%);stroke-opacity:0.328;stroke-width:2;text-anchor:middle" /><path d="M 199.75 95.67 L 198.17 95.67 L 50.78 174.03 L 50.78 174.03" style="stroke:rgb(38.0%,73.8%,65.6%);stroke-opacity:0.1902;stroke-width:2" /><text x="124.48" y="146.85" style="fill:rgb(14.9%,14.9%,14.9%);fill-opacity:1.0;stroke:rgb(0.0%,0.0%,0.0%);stroke-opacity:0.1902;stroke-width:2;text-anchor:middle" /><path d="M 199.75 95.67 L 161.15 95.67 L 161.15 134.78 L 114.63 134.78" style="stroke:rgb(57.9%,83.1%,64.4%);stroke-opacity:0.266;stroke-width:2" /><text x="161.15" y="127.22" style="fill:rgb(14.9%,14.9%,14.9%);fill-opacity:1.0;stroke:rgb(0.0%,0.0%,0.0%);stroke-opacity:0.266;stroke-width:2;text-anchor:middle" /><path d="M 199.75 115.22 L 169.62 115.22 L 169.62 95.67 L 157.19 95.67" style="stroke:rgb(19.9%,53.7%,74.0%);stroke-opacity:0.1014;stroke-width:2" /><text x="169.62" y="117.45" style="fill:rgb(14.9%,14.9%,14.9%);fill-opacity:1.0;stroke:rgb(0.0%,0.0%,0.0%);stroke-opacity:0.1014;stroke-width:2;text-anchor:middle" /><path d="M 199.75 95.67 L 160.78 95.67 L 160.78 115.22 L 135.91 115.22" style="stroke:rgb(92.7%,97.1%,63.6%);stroke-opacity:0.426;stroke-width:2" /><text x="160.78" y="117.45" style="fill:rgb(14.9%,14.9%,14.9%);fill-opacity:1.0;stroke:rgb(0.0%,0.0%,0.0%);stroke-opacity:0.426;stroke-width:2;text-anchor:middle" /><path d="M 199.75 95.67 L 182.65 95.67 L 182.65 56.57 L 178.47 56.57" style="stroke:rgb(42.2%,76.9%,64.7%);stroke-opacity:0.208;stroke-width:2" /><text x="182.65" y="88.12" style="fill:rgb(14.9%,14.9%,14.9%);fill-opacity:1.0;stroke:rgb(0.0%,0.0%,0.0%);stroke-opacity:0.208;stroke-width:2;text-anchor:middle" /><path d="M 199.75 95.67 L 189.54 95.67 L 189.54 115.22 L 135.91 115.22" style="stroke:rgb(88.3%,95.3%,60.0%);stroke-opacity:0.392;stroke-width:2" /><text x="189.54" y="117.45" style="fill:rgb(14.9%,14.9%,14.9%);fill-opacity:1.0;stroke:rgb(0.0%,0.0%,0.0%);stroke-opacity:0.392;stroke-width:2;text-anchor:middle" /><path d="M 199.75 95.67 L 188.75 95.67 L 188.75 56.57 L 178.47 56.57" style="stroke:rgb(64.4%,85.6%,64.4%);stroke-opacity:0.29;stroke-width:2" /><text x="188.75" y="88.12" style="fill:rgb(14.9%,14.9%,14.9%);fill-opacity:1.0;stroke:rgb(0.0%,0.0%,0.0%);stroke-opacity:0.29;stroke-width:2;text-anchor:middle" /><path d="M 199.75 95.67 L 161.16 95.67 L 161.16 134.78 L 114.63 134.78" style="stroke:rgb(63.8%,85.4%,64.4%);stroke-opacity:0.288;stroke-width:2" /><text x="161.16" y="127.22" style="fill:rgb(14.9%,14.9%,14.9%);fill-opacity:1.0;stroke:rgb(0.0%,0.0%,0.0%);stroke-opacity:0.288;stroke-width:2;text-anchor:middle" /><path d="M 199.75 115.22 L 182.27 115.22 L 182.27 95.67 L 157.19 95.67" style="stroke:rgb(24.1%,58.3%,72.0%);stroke-opacity:0.122;stroke-width:2" /><text x="182.27" y="117.45" style="fill:rgb(14.9%,14.9%,14.9%);fill-opacity:1.0;stroke:rgb(0.0%,0.0%,0.0%);stroke-opacity:0.122;stroke-width:2;text-anchor:middle" /><path d="M 199.75 95.67 L 196.49 95.67 L 196.49 76.12 L 178.47 76.12" style="stroke:rgb(57.9%,83.1%,64.4%);stroke-opacity:0.266;stroke-width:2" /><text x="196.49" y="97.90" style="fill:rgb(14.9%,14.9%,14.9%);fill-opacity:1.0;stroke:rgb(0.0%,0.0%,0.0%);stroke-opacity:0.266;stroke-width:2;text-anchor:middle" /><path d="M 199.75 115.22 L 165.09 115.22 L 165.09 95.67 L 157.19 95.67" style="stroke:rgb(21.2%,55.1%,73.4%);stroke-opacity:0.1078;stroke-width:2" /><text x="165.09" y="117.45" style="fill:rgb(14.9%,14.9%,14.9%);fill-opacity:1.0;stroke:rgb(0.0%,0.0%,0.0%);stroke-opacity:0.1078;stroke-width:2;text-anchor:middle" /><path d="M 199.75 95.67 L 160.92 95.67 L 160.92 115.22 L 135.91 115.22" style="stroke:rgb(79.1%,91.6%,61.9%);stroke-opacity:0.352;stroke-width:2" /><text x="160.92" y="117.45" style="fill:rgb(14.9%,14.9%,14.9%);fill-opacity:1.0;stroke:rgb(0.0%,0.0%,0.0%);stroke-opacity:0.352;stroke-width:2;text-anchor:middle" /><path d="M 199.75 95.67 L 176.79 95.67 L 176.79 115.22 L 135.91 115.22" style="stroke:rgb(74.0%,89.5%,62.9%);stroke-opacity:0.33;stroke-width:2" /><text x="176.79" y="117.45" style="fill:rgb(14.9%,14.9%,14.9%);fill-opacity:1.0;stroke:rgb(0.0%,0.0%,0.0%);stroke-opacity:0.33;stroke-width:2;text-anchor:middle" /><path d="M 199.75 95.67 L 173.24 95.67 L 173.24 115.22 L 135.91 115.22" style="stroke:rgb(87.9%,95.1%,60.1%);stroke-opacity:0.39;stroke-width:2" /><text x="173.24" y="117.45" style="fill:rgb(14.9%,14.9%,14.9%);fill-opacity:1.0;stroke:rgb(0.0%,0.0%,0.0%);stroke-opacity:0.39;stroke-width:2;text-anchor:middle" /><path d="M 199.75 115.22 L 198.98 115.22 L 198.98 95.67 L 157.19 95.67" style="stroke:rgb(23.4%,57.5%,72.4%);stroke-opacity:0.1184;stroke-width:2" /><text x="198.98" y="117.45" style="fill:rgb(14.9%,14.9%,14.9%);fill-opacity:1.0;stroke:rgb(0.0%,0.0%,0.0%);stroke-opacity:0.1184;stroke-width:2;text-anchor:middle" /><path d="M 199.75 115.22 L 198.88 115.22 L 198.88 95.67 L 157.19 95.67" style="stroke:rgb(19.8%,53.6%,74.0%);stroke-opacity:0.101;stroke-width:2" /><text x="198.88" y="117.45" style="fill:rgb(14.9%,14.9%,14.9%);fill-opacity:1.0;stroke:rgb(0.0%,0.0%,0.0%);stroke-opacity:0.101;stroke-width:2;text-anchor:middle" /><path d="M 157.19 81.01 L 151.76 81.01 L 87.92 135.39 L 72.06 135.39" style="stroke:rgb(99.5%,83.5%,50.9%);stroke-opacity:0.622;stroke-width:2" /><text x="119.84" y="120.20" style="fill:rgb(14.9%,14.9%,14.9%);fill-opacity:1.0;stroke:rgb(0.0%,0.0%,0.0%);stroke-opacity:0.622;stroke-width:2;text-anchor:middle" /><path d="M 199.75 95.67 L 173.01 95.67 L 173.01 115.22 L 135.91 115.22" style="stroke:rgb(88.3%,95.3%,60.0%);stroke-opacity:0.392;stroke-width:2" /><text x="173.01" y="117.45" style="fill:rgb(14.9%,14.9%,14.9%);fill-opacity:1.0;stroke:rgb(0.0%,0.0%,0.0%);stroke-opacity:0.392;stroke-width:2;text-anchor:middle" /><path d="M 199.75 95.67 L 181.90 95.67 L 181.90 115.22 L 135.91 115.22" style="stroke:rgb(79.6%,91.7%,61.8%);stroke-opacity:0.354;stroke-width:2" /><text x="181.90" y="117.45" style="fill:rgb(14.9%,14.9%,14.9%);fill-opacity:1.0;stroke:rgb(0.0%,0.0%,0.0%);stroke-opacity:0.354;stroke-width:2;text-anchor:middle" /><path d="M 199.75 115.22 L 162.79 115.22 L 50.78 174.03 L 50.78 174.03" style="stroke:rgb(26.3%,44.6%,70.0%);stroke-opacity:0.061;stroke-width:2" /><text x="106.79" y="156.63" style="fill:rgb(14.9%,14.9%,14.9%);fill-opacity:1.0;stroke:rgb(0.0%,0.0%,0.0%);stroke-opacity:0.061;stroke-width:2;text-anchor:middle" /><path d="M 157.19 81.01 L 147.21 81.01 L 50.78 174.03 L 50.78 174.03" style="stroke:rgb(99.6%,88.8%,56.1%);stroke-opacity:0.592;stroke-width:2" /><text x="99.00" y="139.52" style="fill:rgb(14.9%,14.9%,14.9%);fill-opacity:1.0;stroke:rgb(0.0%,0.0%,0.0%);stroke-opacity:0.592;stroke-width:2;text-anchor:middle" /><path d="M 199.75 95.67 L 191.37 95.67 L 50.78 174.03 L 50.78 174.03" style="stroke:rgb(64.4%,85.6%,64.4%);stroke-opacity:0.29;stroke-width:2" /><text x="121.08" y="146.85" style="fill:rgb(14.9%,14.9%,14.9%);fill-opacity:1.0;stroke:rgb(0.0%,0.0%,0.0%);stroke-opacity:0.29;stroke-width:2;text-anchor:middle" /></g><g class="toytree-Nodes" style="fill:rgb(40.0%,76.1%,64.7%);fill-opacity:1.0;stroke:rgb(14.9%,14.9%,14.9%);stroke-opacity:1.0;stroke-width:1.5" /><g class="toytree-TipLabels" style="fill:rgb(14.5%,14.5%,14.5%);fill-opacity:1.0;font-family:Helvetica;font-size:12px;font-weight:300;vertical-align:baseline;white-space:pre;stroke:none"><g class="toytree-TipLabel" transform="translate(199.751,56.5693)"><text x="15.0" y="3.066" style="fill:rgb(14.5%,14.5%,14.5%);fill-opacity:1.0">r0</text></g><g class="toytree-TipLabel" transform="translate(199.751,76.121)"><text x="15.0" y="3.066" style="fill:rgb(14.5%,14.5%,14.5%);fill-opacity:1.0">r1</text></g><g class="toytree-TipLabel" transform="translate(199.751,95.6726)"><text x="15.0" y="3.066" style="fill:rgb(14.5%,14.5%,14.5%);fill-opacity:1.0">r2</text></g><g class="toytree-TipLabel" transform="translate(199.751,115.224)"><text x="15.0" y="3.066" style="fill:rgb(14.5%,14.5%,14.5%);fill-opacity:1.0">r3</text></g><g class="toytree-TipLabel" transform="translate(199.751,134.776)"><text x="15.0" y="3.066" style="fill:rgb(14.5%,14.5%,14.5%);fill-opacity:1.0">r4</text></g><g class="toytree-TipLabel" transform="translate(199.751,154.327)"><text x="15.0" y="3.066" style="fill:rgb(14.5%,14.5%,14.5%);fill-opacity:1.0">r5</text></g><g class="toytree-TipLabel" transform="translate(199.751,173.879)"><text x="15.0" y="3.066" style="fill:rgb(14.5%,14.5%,14.5%);fill-opacity:1.0">r6</text></g><g class="toytree-TipLabel" transform="translate(199.751,193.431)"><text x="15.0" y="3.066" style="fill:rgb(14.5%,14.5%,14.5%);fill-opacity:1.0">r7</text></g></g></g></g></g><g class="toyplot-coordinates-Numberline" id="tb31840ba3e9340cf9ebf9ad6184ea003"><clipPath id="ta74570423a734582b85def7add875477"><rect x="0" y="-20.0" width="140.0" height="40.0" /></clipPath><g clip-path="url(#ta74570423a734582b85def7add875477)" transform="translate(250.0,195.0)rotate(-90.0)"><g class="toyplot-color-Map" id="t91fb507fd34a4822a7ad75242f2f1ded"><defs><linearGradient id="tbe1740ccfe7740fc8ac653071b8df46c" x1="0.0" x2="140.0" y1="0" y2="0" gradientUnits="userSpaceOnUse"><stop stop-color="rgb(36.9%,31%,63.5%)" stop-opacity="1.0" offset="0.0" /><stop stop-color="rgb(34.1%,34.5%,65.2%)" stop-opacity="1.0" offset="0.015873015873015872" /><stop stop-color="rgb(31.4%,38.1%,66.9%)" stop-opacity="1.0" offset="0.031746031746031744" /><stop stop-color="rgb(28.6%,41.6%,68.6%)" stop-opacity="1.0" offset="0.047619047619047616" /><stop stop-color="rgb(25.9%,45.2%,70.3%)" stop-opacity="1.0" offset="0.06349206349206349" /><stop stop-color="rgb(23.2%,48.7%,71.9%)" stop-opacity="1.0" offset="0.07936507936507936" /><stop stop-color="rgb(20.4%,52.3%,73.6%)" stop-opacity="1.0" offset="0.09523809523809523" /><stop stop-color="rgb(21.9%,55.9%,73.1%)" stop-opacity="1.0" offset="0.1111111111111111" /><stop stop-color="rgb(25.1%,59.5%,71.6%)" stop-opacity="1.0" offset="0.12698412698412698" /><stop stop-color="rgb(28.3%,63.1%,70.1%)" stop-opacity="1.0" offset="0.14285714285714285" /><stop stop-color="rgb(31.6%,66.7%,68.6%)" stop-opacity="1.0" offset="0.15873015873015872" /><stop stop-color="rgb(34.8%,70.3%,67.1%)" stop-opacity="1.0" offset="0.1746031746031746" /><stop stop-color="rgb(38.1%,73.9%,65.6%)" stop-opacity="1.0" offset="0.19047619047619047" /><stop stop-color="rgb(41.7%,76.8%,64.7%)" stop-opacity="1.0" offset="0.20634920634920634" /><stop stop-color="rgb(46%,78.4%,64.6%)" stop-opacity="1.0" offset="0.2222222222222222" /><stop stop-color="rgb(50.3%,80.1%,64.6%)" stop-opacity="1.0" offset="0.23809523809523805" /><stop stop-color="rgb(54.6%,81.8%,64.5%)" stop-opacity="1.0" offset="0.25396825396825395" /><stop stop-color="rgb(58.9%,83.5%,64.4%)" stop-opacity="1.0" offset="0.2698412698412698" /><stop stop-color="rgb(63.2%,85.2%,64.4%)" stop-opacity="1.0" offset="0.2857142857142857" /><stop stop-color="rgb(67.4%,86.8%,64.2%)" stop-opacity="1.0" offset="0.30158730158730157" /><stop stop-color="rgb(71.1%,88.3%,63.5%)" stop-opacity="1.0" offset="0.31746031746031744" /><stop stop-color="rgb(74.8%,89.8%,62.7%)" stop-opacity="1.0" offset="0.3333333333333333" /><stop stop-color="rgb(78.4%,91.3%,62%)" stop-opacity="1.0" offset="0.3492063492063492" /><stop stop-color="rgb(82.1%,92.8%,61.3%)" stop-opacity="1.0" offset="0.36507936507936506" /><stop stop-color="rgb(85.8%,94.3%,60.5%)" stop-opacity="1.0" offset="0.38095238095238093" /><stop stop-color="rgb(89.5%,95.8%,59.8%)" stop-opacity="1.0" offset="0.3968253968253968" /><stop stop-color="rgb(91.4%,96.6%,61.5%)" stop-opacity="1.0" offset="0.4126984126984127" /><stop stop-color="rgb(93%,97.2%,64%)" stop-opacity="1.0" offset="0.42857142857142855" /><stop stop-color="rgb(94.6%,97.8%,66.4%)" stop-opacity="1.0" offset="0.4444444444444444" /><stop stop-color="rgb(96.1%,98.4%,68.8%)" stop-opacity="1.0" offset="0.4603174603174603" /><stop stop-color="rgb(97.7%,99.1%,71.3%)" stop-opacity="1.0" offset="0.4761904761904761" /><stop stop-color="rgb(99.2%,99.7%,73.7%)" stop-opacity="1.0" offset="0.49206349206349204" /><stop stop-color="rgb(100%,99%,73.3%)" stop-opacity="1.0" offset="0.5079365079365079" /><stop stop-color="rgb(99.9%,97.1%,70%)" stop-opacity="1.0" offset="0.5238095238095237" /><stop stop-color="rgb(99.8%,95.2%,66.8%)" stop-opacity="1.0" offset="0.5396825396825397" /><stop stop-color="rgb(99.8%,93.2%,63.6%)" stop-opacity="1.0" offset="0.5555555555555556" /><stop stop-color="rgb(99.7%,91.3%,60.3%)" stop-opacity="1.0" offset="0.5714285714285714" /><stop stop-color="rgb(99.7%,89.4%,57.1%)" stop-opacity="1.0" offset="0.5873015873015872" /><stop stop-color="rgb(99.6%,87.2%,54%)" stop-opacity="1.0" offset="0.6031746031746031" /><stop stop-color="rgb(99.5%,84.1%,51.4%)" stop-opacity="1.0" offset="0.6190476190476191" /><stop stop-color="rgb(99.5%,81%,48.8%)" stop-opacity="1.0" offset="0.6349206349206349" /><stop stop-color="rgb(99.4%,77.9%,46.1%)" stop-opacity="1.0" offset="0.6507936507936507" /><stop stop-color="rgb(99.3%,74.8%,43.5%)" stop-opacity="1.0" offset="0.6666666666666666" /><stop stop-color="rgb(99.3%,71.7%,40.9%)" stop-opacity="1.0" offset="0.6825396825396826" /><stop stop-color="rgb(99.2%,68.5%,38.3%)" stop-opacity="1.0" offset="0.6984126984126984" /><stop stop-color="rgb(98.7%,64.6%,36.4%)" stop-opacity="1.0" offset="0.7142857142857142" /><stop stop-color="rgb(98.2%,60.5%,34.5%)" stop-opacity="1.0" offset="0.7301587301587301" /><stop stop-color="rgb(97.6%,56.5%,32.6%)" stop-opacity="1.0" offset="0.746031746031746" /><stop stop-color="rgb(97%,52.5%,30.8%)" stop-opacity="1.0" offset="0.7619047619047619" /><stop stop-color="rgb(96.5%,48.4%,28.9%)" stop-opacity="1.0" offset="0.7777777777777777" /><stop stop-color="rgb(95.9%,44.4%,27%)" stop-opacity="1.0" offset="0.7936507936507936" /><stop stop-color="rgb(94.5%,41%,26.7%)" stop-opacity="1.0" offset="0.8095238095238095" /><stop stop-color="rgb(92.6%,38.1%,27.5%)" stop-opacity="1.0" offset="0.8253968253968254" /><stop stop-color="rgb(90.7%,35.1%,28.2%)" stop-opacity="1.0" offset="0.8412698412698412" /><stop stop-color="rgb(88.7%,32.2%,29%)" stop-opacity="1.0" offset="0.8571428571428571" /><stop stop-color="rgb(86.8%,29.3%,29.7%)" stop-opacity="1.0" offset="0.873015873015873" /><stop stop-color="rgb(84.9%,26.4%,30.5%)" stop-opacity="1.0" offset="0.8888888888888888" /><stop stop-color="rgb(82.5%,23.2%,30.7%)" stop-opacity="1.0" offset="0.9047619047619047" /><stop stop-color="rgb(79.1%,19.4%,29.9%)" stop-opacity="1.0" offset="0.9206349206349206" /><stop stop-color="rgb(75.7%,15.6%,29.1%)" stop-opacity="1.0" offset="0.9365079365079365" /><stop stop-color="rgb(72.2%,11.8%,28.3%)" stop-opacity="1.0" offset="0.9523809523809522" /><stop stop-color="rgb(68.8%,7.99%,27.5%)" stop-opacity="1.0" offset="0.9682539682539681" /><stop stop-color="rgb(65.4%,4.19%,26.7%)" stop-opacity="1.0" offset="0.9841269841269841" /><stop stop-color="rgb(62%,0.392%,25.9%)" stop-opacity="1.0" offset="1.0" /></linearGradient></defs><rect x="0.0" y="-7.5" width="140.0" height="15" style="fill:url(#tbe1740ccfe7740fc8ac653071b8df46c);stroke:rgb(0%,0%,0%);stroke-opacity:1.0;stroke-width:2" /></g></g><g class="toyplot-coordinates-Axis" id="t510fa831e42549e9a1a49cef17bc3aab" transform="translate(250.0,195.0)rotate(-90.0)translate(0,20.0)"><line x1="0" y1="0" x2="140.0" y2="0" style="stroke-width:2" /><g><line x1="0.0" y1="0" x2="0.0" y2="-3" style="stroke-width:2" /><line x1="70.0" y1="0" x2="70.0" y2="-3" style="stroke-width:2" /><line x1="140.0" y1="0" x2="140.0" y2="-3" style="stroke-width:2" /></g><g><g transform="translate(0.0,6)"><text x="-7.6450000000000005" y="9.410499999999999" style="fill:rgb(16.1%,15.3%,14.1%);fill-opacity:1.0;font-family:helvetica;font-size:11.0px;font-weight:normal;stroke:none;vertical-align:baseline;white-space:pre">0.0</text></g><g transform="translate(70.0,6)"><text x="-10.703000000000001" y="9.410499999999999" style="fill:rgb(16.1%,15.3%,14.1%);fill-opacity:1.0;font-family:helvetica;font-size:11.0px;font-weight:normal;stroke:none;vertical-align:baseline;white-space:pre">0.25</text></g><g transform="translate(140.0,6)"><text x="-7.6450000000000005" y="9.410499999999999" style="fill:rgb(16.1%,15.3%,14.1%);fill-opacity:1.0;font-family:helvetica;font-size:11.0px;font-weight:normal;stroke:none;vertical-align:baseline;white-space:pre">0.5</text></g></g><g class="toyplot-coordinates-Axis-coordinates" style="visibility:hidden" transform=""><line x1="0" x2="0" y1="-3.0" y2="4.5" style="stroke:rgb(43.9%,50.2%,56.5%);stroke-opacity:1.0;stroke-width:1.0" /><text x="0" y="-6" style="alignment-baseline:alphabetic;fill:rgb(43.9%,50.2%,56.5%);fill-opacity:1.0;font-size:10px;font-weight:normal;stroke:none;text-anchor:middle" /></g></g></g><g class="toyplot-mark-Text" id="td4198a18ce154e9ea83176d43d2b6656"><g class="toyplot-Series"><g class="toyplot-Datum" transform="translate(90.0,65.0)"><text x="-28.5835" y="-3.7895000000000003" style="fill:rgb(16.1%,15.3%,14.1%);fill-opacity:1.0;font-family:helvetica;font-size:11.0px;font-weight:bold;opacity:1;stroke:none;vertical-align:baseline;white-space:pre">Major=0.51</text><text x="-42.339000000000006" y="9.410499999999999" style="fill:rgb(16.1%,15.3%,14.1%);fill-opacity:1.0;font-family:helvetica;font-size:11.0px;font-weight:bold;opacity:1;stroke:none;vertical-align:baseline;white-space:pre">Alternative=0.49</text></g></g></g></svg>