<svg class="toyplot-canvas-Canvas" xmlns:toyplot="http://www.sandia.gov/toyplot" xmlns:xlink="http://www.w3.org/1999/xlink" xmlns="http://www.w3.org/2000/svg" width="290.0px" height="250.0px" viewBox="0 0 290.0 250.0" preserveAspectRatio="xMidYMid meet" style="background-color:transparent;border-color:#292724;border-style:none;border-width:1.0;fill:rgb(16.1%,15.3%,14.1%);fill-opacity:1.0;font-family:Helvetica;font-size:12px;opacity:1.0;stroke:rgb(16.1%,15.3%,14.1%);stroke-opacity:1.0;stroke-width:1.0" id="t404514a6b59c441da82124822ec3d32c"><g class="toyplot-coordinates-Cartesian" id="t4cb9af2f2a3f42439fd26867f33c7ad9"><clipPath id="t5c9ac49977734cfdb13a78f71b36439a"><rect x="35.0" y="35.0" width="220.0" height="180.0" /></clipPath><g clip-path="url(#t5c9ac49977734cfdb13a78f71b36439a)"><g class="toytree-mark-Toytree" id="t8e06f9f3f39e406aa012673ddde6115c"><g class="toytree-Edges" style="stroke:rgb(14.5%,14.5%,14.5%);stroke-opacity:1.0;stroke-linecap:round;stroke-width:2.0;fill:none"><path d="M 178.5 66.3 L 178.5 56.6 L 199.8 56.6" id="8,0" style="" /><path d="M 178.5 66.3 L 178.5 76.1 L 199.8 76.1" id="8,1" style="" /><path d="M 157.2 81.0 L 157.2 95.7 L 199.8 95.7" id="9,2" style="" /><path d="M 135.9 98.1 L 135.9 115.2 L 199.8 115.2" id="10,3" style="" /><path d="M 114.6 116.4 L 114.6 134.8 L 199.8 134.8" id="11,4" style="" /><path d="M 93.3 135.4 L 93.3 154.3 L 199.8 154.3" id="12,5" style="" /><path d="M 72.1 154.6 L 72.1 173.9 L 199.8 173.9" id="13,6" style="" /><path d="M 50.8 174.0 L 50.8 193.4 L 199.8 193.4" id="14,7" style="" /><path d="M 157.2 81.0 L 157.2 66.3 L 178.5 66.3" id="9,8" style="" /><path d="M 135.9 98.1 L 135.9 81.0 L 157.2 81.0" id="10,9" style="" /><path d="M 114.6 116.4 L 114.6 98.1 L 135.9 98.1" id="11,10" style="" /><path d="M 93.3 135.4 L 93.3 116.4 L 114.6 116.4" id="12,11" style="" /><path d="M 72.1 154.6 L 72.1 135.4 L 93.3 135.4" id="13,12" style="" /><path d="M 50.8 174.0 L 50.8 154.6 L 72.1 154.6" id="14,13" style="" /></g><g class="toytree-AdmixEdges" style="fill:rgb(0.0%,0.0%,0.0%);fill-opacity:0.0;stroke:rgb(90.6%,54.1%,76.5%);stroke-opacity:0.6;font-size:14px;stroke-linecap:round;stroke-width:5"><path d="M 199.75 154.33 L 186.08 154.33 L 186.08 76.12 L 178.47 76.12" style="stroke:rgb(23.1%,48.8%,72.0%);stroke-opacity:0.0798;stroke-width:2" /><text x="186.08" y="127.22" style="fill:rgb(14.9%,14.9%,14.9%);fill-opacity:1.0;stroke:rgb(0.0%,0.0%,0.0%);stroke-opacity:0.0798;stroke-width:2;text-anchor:middle" /><path d="M 50.78 174.03 L 50.78 174.03 L 174.34 95.67 L 157.19 95.67" style="stroke:rgb(22.9%,49.1%,72.1%);stroke-opacity:0.081;stroke-width:2" /><text x="112.56" y="146.85" style="fill:rgb(14.9%,14.9%,14.9%);fill-opacity:1.0;stroke:rgb(0.0%,0.0%,0.0%);stroke-opacity:0.081;stroke-width:2;text-anchor:middle" /><path d="M 199.75 115.22 L 166.59 115.22 L 166.59 173.88 L 72.06 173.88" style="stroke:rgb(25.7%,60.2%,71.3%);stroke-opacity:0.13;stroke-width:2" /><text x="166.59" y="156.55" style="fill:rgb(14.9%,14.9%,14.9%);fill-opacity:1.0;stroke:rgb(0.0%,0.0%,0.0%);stroke-opacity:0.13;stroke-width:2;text-anchor:middle" /><path d="M 50.78 174.03 L 50.78 174.03 L 149.99 115.22 L 135.91 115.22" style="stroke:rgb(27.7%,42.8%,69.1%);stroke-opacity:0.053;stroke-width:2" /><text x="100.39" y="156.63" style="fill:rgb(14.9%,14.9%,14.9%);fill-opacity:1.0;stroke:rgb(0.0%,0.0%,0.0%);stroke-opacity:0.053;stroke-width:2;text-anchor:middle" /><path d="M 199.75 173.88 L 185.52 173.88 L 185.52 56.57 L 178.47 56.57" style="stroke:rgb(27.8%,42.8%,69.1%);stroke-opacity:0.0528;stroke-width:2" /><text x="185.52" y="127.22" style="fill:rgb(14.9%,14.9%,14.9%);fill-opacity:1.0;stroke:rgb(0.0%,0.0%,0.0%);stroke-opacity:0.0528;stroke-width:2;text-anchor:middle" /><path d="M 199.75 193.43 L 155.24 193.43 L 155.24 115.22 L 135.91 115.22" style="stroke:rgb(59.5%,83.7%,64.4%);stroke-opacity:0.272;stroke-width:2" /><text x="155.24" y="166.33" style="fill:rgb(14.9%,14.9%,14.9%);fill-opacity:1.0;stroke:rgb(0.0%,0.0%,0.0%);stroke-opacity:0.272;stroke-width:2;text-anchor:middle" /><path d="M 199.75 134.78 L 159.95 134.78 L 159.95 95.67 L 157.19 95.67" style="stroke:rgb(25.2%,46.1%,70.7%);stroke-opacity:0.0678;stroke-width:2" /><text x="159.95" y="127.22" style="fill:rgb(14.9%,14.9%,14.9%);fill-opacity:1.0;stroke:rgb(0.0%,0.0%,0.0%);stroke-opacity:0.0678;stroke-width:2;text-anchor:middle" /><path d="M 50.78 174.03 L 50.78 174.03 L 195.86 56.57 L 178.47 56.57" style="stroke:rgb(23.1%,57.2%,72.5%);stroke-opacity:0.117;stroke-width:2" /><text x="123.32" y="127.30" style="fill:rgb(14.9%,14.9%,14.9%);fill-opacity:1.0;stroke:rgb(0.0%,0.0%,0.0%);stroke-opacity:0.117;stroke-width:2;text-anchor:middle" /><path d="M 199.75 95.67 L 172.85 95.67 L 50.78 174.03 L 50.78 174.03" style="stroke:rgb(95.5%,98.2%,67.9%);stroke-opacity:0.454;stroke-width:2" /><text x="111.82" y="146.85" style="fill:rgb(14.9%,14.9%,14.9%);fill-opacity:1.0;stroke:rgb(0.0%,0.0%,0.0%);stroke-opacity:0.454;stroke-width:2;text-anchor:middle" /><path d="M 50.78 174.03 L 50.78 174.03 L 187.10 56.57 L 178.47 56.57" style="stroke:rgb(33.5%,35.4%,65.6%);stroke-opacity:0.01958;stroke-width:2" /><text x="118.94" y="127.30" style="fill:rgb(14.9%,14.9%,14.9%);fill-opacity:1.0;stroke:rgb(0.0%,0.0%,0.0%);stroke-opacity:0.01958;stroke-width:2;text-anchor:middle" /><path d="M 199.75 173.88 L 195.90 173.88 L 195.90 115.22 L 135.91 115.22" style="stroke:rgb(21.0%,51.5%,73.3%);stroke-opacity:0.092;stroke-width:2" /><text x="195.90" y="156.55" style="fill:rgb(14.9%,14.9%,14.9%);fill-opacity:1.0;stroke:rgb(0.0%,0.0%,0.0%);stroke-opacity:0.092;stroke-width:2;text-anchor:middle" /><path d="M 199.75 154.33 L 181.61 154.33 L 181.61 76.12 L 178.47 76.12" style="stroke:rgb(31.2%,38.4%,67.0%);stroke-opacity:0.033;stroke-width:2" /><text x="181.61" y="127.22" style="fill:rgb(14.9%,14.9%,14.9%);fill-opacity:1.0;stroke:rgb(0.0%,0.0%,0.0%);stroke-opacity:0.033;stroke-width:2;text-anchor:middle" /><path d="M 199.75 95.67 L 192.38 95.67 L 192.38 154.33 L 93.35 154.33" style="stroke:rgb(99.8%,92.5%,62.3%);stroke-opacity:0.562;stroke-width:2" /><text x="192.38" y="137.00" style="fill:rgb(14.9%,14.9%,14.9%);fill-opacity:1.0;stroke:rgb(0.0%,0.0%,0.0%);stroke-opacity:0.562;stroke-width:2;text-anchor:middle" /><path d="M 50.78 174.03 L 50.78 174.03 L 151.81 115.22 L 135.91 115.22" style="stroke:rgb(29.0%,63.8%,69.8%);stroke-opacity:0.1462;stroke-width:2" /><text x="101.30" y="156.63" style="fill:rgb(14.9%,14.9%,14.9%);fill-opacity:1.0;stroke:rgb(0.0%,0.0%,0.0%);stroke-opacity:0.1462;stroke-width:2;text-anchor:middle" /><path d="M 199.75 173.88 L 191.55 173.88 L 191.55 56.57 L 178.47 56.57" style="stroke:rgb(33.1%,35.8%,65.8%);stroke-opacity:0.0216;stroke-width:2" /><text x="191.55" y="127.22" style="fill:rgb(14.9%,14.9%,14.9%);fill-opacity:1.0;stroke:rgb(0.0%,0.0%,0.0%);stroke-opacity:0.0216;stroke-width:2;text-anchor:middle" /><path d="M 50.78 174.03 L 50.78 174.03 L 169.37 95.67 L 157.19 95.67" style="stroke:rgb(29.4%,40.6%,68.1%);stroke-opacity:0.043;stroke-width:2" /><text x="110.08" y="146.85" style="fill:rgb(14.9%,14.9%,14.9%);fill-opacity:1.0;stroke:rgb(0.0%,0.0%,0.0%);stroke-opacity:0.043;stroke-width:2;text-anchor:middle" /><path d="M 199.75 95.67 L 185.74 95.67 L 185.74 134.78 L 114.63 134.78" style="stroke:rgb(99.6%,88.1%,54.9%);stroke-opacity:0.598;stroke-width:2" /><text x="185.74" y="127.22" style="fill:rgb(14.9%,14.9%,14.9%);fill-opacity:1.0;stroke:rgb(0.0%,0.0%,0.0%);stroke-opacity:0.598;stroke-width:2;text-anchor:middle" /><path d="M 199.75 95.67 L 177.51 95.67 L 177.51 154.33 L 93.35 154.33" style="stroke:rgb(31.0%,66.1%,68.8%);stroke-opacity:0.156;stroke-width:2" /><text x="177.51" y="137.00" style="fill:rgb(14.9%,14.9%,14.9%);fill-opacity:1.0;stroke:rgb(0.0%,0.0%,0.0%);stroke-opacity:0.156;stroke-width:2;text-anchor:middle" /><path d="M 199.75 154.33 L 163.15 154.33 L 163.15 134.78 L 114.63 134.78" style="stroke:rgb(20.8%,54.7%,73.6%);stroke-opacity:0.1058;stroke-width:2" /><text x="163.15" y="156.55" style="fill:rgb(14.9%,14.9%,14.9%);fill-opacity:1.0;stroke:rgb(0.0%,0.0%,0.0%);stroke-opacity:0.1058;stroke-width:2;text-anchor:middle" /><path d="M 50.78 174.03 L 50.78 174.03 L 197.80 115.22 L 135.91 115.22" style="stroke:rgb(57.3%,82.9%,64.5%);stroke-opacity:0.264;stroke-width:2" /><text x="124.29" y="156.63" style="fill:rgb(14.9%,14.9%,14.9%);fill-opacity:1.0;stroke:rgb(0.0%,0.0%,0.0%);stroke-opacity:0.264;stroke-width:2;text-anchor:middle" /><path d="M 199.75 56.57 L 179.59 56.57 L 179.59 154.33 L 93.35 154.33" style="stroke:rgb(29.7%,64.6%,69.4%);stroke-opacity:0.1496;stroke-width:2" /><text x="179.59" y="117.45" style="fill:rgb(14.9%,14.9%,14.9%);fill-opacity:1.0;stroke:rgb(0.0%,0.0%,0.0%);stroke-opacity:0.1496;stroke-width:2;text-anchor:middle" /><path d="M 157.19 81.01 L 138.31 81.01 L 138.31 173.88 L 72.06 173.88" style="stroke:rgb(29.2%,40.9%,68.2%);stroke-opacity:0.0442;stroke-width:2" /><text x="138.31" y="139.44" style="fill:rgb(14.9%,14.9%,14.9%);fill-opacity:1.0;stroke:rgb(0.0%,0.0%,0.0%);stroke-opacity:0.0442;stroke-width:2;text-anchor:middle" /><path d="M 199.75 76.12 L 192.39 76.12 L 192.39 115.22 L 135.91 115.22" style="stroke:rgb(33.8%,35.0%,65.4%);stroke-opacity:0.0179;stroke-width:2" /><text x="192.39" y="107.67" style="fill:rgb(14.9%,14.9%,14.9%);fill-opacity:1.0;stroke:rgb(0.0%,0.0%,0.0%);stroke-opacity:0.0179;stroke-width:2;text-anchor:middle" /><path d="M 199.75 134.78 L 160.27 134.78 L 160.27 95.67 L 157.19 95.67" style="stroke:rgb(32.4%,36.8%,66.3%);stroke-opacity:0.026;stroke-width:2" /><text x="160.27" y="127.22" style="fill:rgb(14.9%,14.9%,14.9%);fill-opacity:1.0;stroke:rgb(0.0%,0.0%,0.0%);stroke-opacity:0.026;stroke-width:2;text-anchor:middle" /><path d="M 157.19 81.01 L 137.95 81.01 L 137.95 193.43 L 50.78 193.43" style="stroke:rgb(33.2%,35.8%,65.8%);stroke-opacity:0.0214;stroke-width:2" /><text x="137.95" y="149.22" style="fill:rgb(14.9%,14.9%,14.9%);fill-opacity:1.0;stroke:rgb(0.0%,0.0%,0.0%);stroke-opacity:0.0214;stroke-width:2;text-anchor:middle" /><path d="M 199.75 115.22 L 196.20 115.22 L 196.20 173.88 L 72.06 173.88" style="stroke:rgb(21.2%,51.2%,73.1%);stroke-opacity:0.0906;stroke-width:2" /><text x="196.20" y="156.55" style="fill:rgb(14.9%,14.9%,14.9%);fill-opacity:1.0;stroke:rgb(0.0%,0.0%,0.0%);stroke-opacity:0.0906;stroke-width:2;text-anchor:middle" /><path d="M 199.75 76.12 L 192.23 76.12 L 192.23 134.78 L 114.63 134.78" style="stroke:rgb(24.1%,47.5%,71.3%);stroke-opacity:0.0738;stroke-width:2" /><text x="192.23" y="117.45" style="fill:rgb(14.9%,14.9%,14.9%);fill-opacity:1.0;stroke:rgb(0.0%,0.0%,0.0%);stroke-opacity:0.0738;stroke-width:2;text-anchor:middle" /><path d="M 114.63 116.45 L 112.62 116.45 L 112.62 193.43 L 50.78 193.43" style="stroke:rgb(32.5%,36.7%,66.2%);stroke-opacity:0.0254;stroke-width:2" /><text x="112.62" y="166.94" style="fill:rgb(14.9%,14.9%,14.9%);fill-opacity:1.0;stroke:rgb(0.0%,0.0%,0.0%);stroke-opacity:0.0254;stroke-width:2;text-anchor:middle" /><path d="M 199.75 134.78 L 132.93 134.78 L 132.93 193.43 L 50.78 193.43" style="stroke:rgb(22.5%,56.5%,72.8%);stroke-opacity:0.114;stroke-width:2" /><text x="132.93" y="176.10" style="fill:rgb(14.9%,14.9%,14.9%);fill-opacity:1.0;stroke:rgb(0.0%,0.0%,0.0%);stroke-opacity:0.114;stroke-width:2;text-anchor:middle" /><path d="M 50.78 174.03 L 50.78 174.03 L 191.98 76.12 L 178.47 76.12" style="stroke:rgb(32.2%,37.1%,66.4%);stroke-opacity:0.0272;stroke-width:2" /><text x="121.38" y="137.08" style="fill:rgb(14.9%,14.9%,14.9%);fill-opacity:1.0;stroke:rgb(0.0%,0.0%,0.0%);stroke-opacity:0.0272;stroke-width:2;text-anchor:middle" /><path d="M 199.75 154.33 L 190.33 154.33 L 190.33 115.22 L 135.91 115.22" style="stroke:rgb(89.7%,95.9%,59.7%);stroke-opacity:0.398;stroke-width:2" /><text x="190.33" y="146.78" style="fill:rgb(14.9%,14.9%,14.9%);fill-opacity:1.0;stroke:rgb(0.0%,0.0%,0.0%);stroke-opacity:0.398;stroke-width:2;text-anchor:middle" /><path d="M 199.75 134.78 L 190.73 134.78 L 190.73 56.57 L 178.47 56.57" style="stroke:rgb(23.7%,48.0%,71.6%);stroke-opacity:0.076;stroke-width:2" /><text x="190.73" y="107.67" style="fill:rgb(14.9%,14.9%,14.9%);fill-opacity:1.0;stroke:rgb(0.0%,0.0%,0.0%);stroke-opacity:0.076;stroke-width:2;text-anchor:middle" /><path d="M 135.91 98.12 L 118.61 98.12 L 118.61 193.43 L 50.78 193.43" style="stroke:rgb(25.4%,45.9%,70.6%);stroke-opacity:0.0666;stroke-width:2" /><text x="118.61" y="157.77" style="fill:rgb(14.9%,14.9%,14.9%);fill-opacity:1.0;stroke:rgb(0.0%,0.0%,0.0%);stroke-opacity:0.0666;stroke-width:2;text-anchor:middle" /><path d="M 199.75 95.67 L 179.87 95.67 L 179.87 134.78 L 114.63 134.78" style="stroke:rgb(95.5%,98.2%,67.9%);stroke-opacity:0.454;stroke-width:2" /><text x="179.87" y="127.22" style="fill:rgb(14.9%,14.9%,14.9%);fill-opacity:1.0;stroke:rgb(0.0%,0.0%,0.0%);stroke-opacity:0.454;stroke-width:2;text-anchor:middle" /><path d="M 157.19 81.01 L 155.33 81.01 L 155.33 154.33 L 93.35 154.33" style="stroke:rgb(42.2%,76.9%,64.7%);stroke-opacity:0.208;stroke-width:2" /><text x="155.33" y="129.67" style="fill:rgb(14.9%,14.9%,14.9%);fill-opacity:1.0;stroke:rgb(0.0%,0.0%,0.0%);stroke-opacity:0.208;stroke-width:2;text-anchor:middle" /><path d="M 199.75 76.12 L 178.82 76.12 L 178.82 115.22 L 135.91 115.22" style="stroke:rgb(25.3%,46.0%,70.6%);stroke-opacity:0.0672;stroke-width:2" /><text x="178.82" y="107.67" style="fill:rgb(14.9%,14.9%,14.9%);fill-opacity:1.0;stroke:rgb(0.0%,0.0%,0.0%);stroke-opacity:0.0672;stroke-width:2;text-anchor:middle" /><path d="M 199.75 154.33 L 171.39 154.33 L 171.39 95.67 L 157.19 95.67" style="stroke:rgb(21.4%,55.3%,73.3%);stroke-opacity:0.1088;stroke-width:2" /><text x="171.39" y="137.00" style="fill:rgb(14.9%,14.9%,14.9%);fill-opacity:1.0;stroke:rgb(0.0%,0.0%,0.0%);stroke-opacity:0.1088;stroke-width:2;text-anchor:middle" /><path d="M 199.75 76.12 L 179.73 76.12 L 179.73 115.22 L 135.91 115.22" style="stroke:rgb(21.5%,55.5%,73.2%);stroke-opacity:0.1094;stroke-width:2" /><text x="179.73" y="107.67" style="fill:rgb(14.9%,14.9%,14.9%);fill-opacity:1.0;stroke:rgb(0.0%,0.0%,0.0%);stroke-opacity:0.1094;stroke-width:2;text-anchor:middle" /><path d="M 50.78 174.03 L 50.78 174.03 L 191.83 76.12 L 178.47 76.12" style="stroke:rgb(34.2%,34.5%,65.2%);stroke-opacity:0.01562;stroke-width:2" /><text x="121.31" y="137.08" style="fill:rgb(14.9%,14.9%,14.9%);fill-opacity:1.0;stroke:rgb(0.0%,0.0%,0.0%);stroke-opacity:0.01562;stroke-width:2;text-anchor:middle" /><path d="M 50.78 174.03 L 50.78 174.03 L 189.74 76.12 L 178.47 76.12" style="stroke:rgb(32.4%,36.8%,66.3%);stroke-opacity:0.026;stroke-width:2" /><text x="120.26" y="137.08" style="fill:rgb(14.9%,14.9%,14.9%);fill-opacity:1.0;stroke:rgb(0.0%,0.0%,0.0%);stroke-opacity:0.026;stroke-width:2;text-anchor:middle" /><path d="M 50.78 174.03 L 50.78 174.03 L 50.78 174.03 L 50.78 174.03" style="stroke:rgb(22.0%,56.0%,73.0%);stroke-opacity:0.1116;stroke-width:2" /><text x="50.78" y="186.03" style="fill:rgb(14.9%,14.9%,14.9%);fill-opacity:1.0;stroke:rgb(0.0%,0.0%,0.0%);stroke-opacity:0.1116;stroke-width:2;text-anchor:middle" /><path d="M 199.75 154.33 L 188.18 154.33 L 188.18 95.67 L 157.19 95.67" style="stroke:rgb(19.7%,53.2%,74.0%);stroke-opacity:0.0992;stroke-width:2" /><text x="188.18" y="137.00" style="fill:rgb(14.9%,14.9%,14.9%);fill-opacity:1.0;stroke:rgb(0.0%,0.0%,0.0%);stroke-opacity:0.0992;stroke-width:2;text-anchor:middle" /><path d="M 199.75 76.12 L 189.23 76.12 L 189.23 134.78 L 114.63 134.78" style="stroke:rgb(21.9%,50.4%,72.7%);stroke-opacity:0.087;stroke-width:2" /><text x="189.23" y="117.45" style="fill:rgb(14.9%,14.9%,14.9%);fill-opacity:1.0;stroke:rgb(0.0%,0.0%,0.0%);stroke-opacity:0.087;stroke-width:2;text-anchor:middle" /><path d="M 199.75 134.78 L 167.77 134.78 L 167.77 95.67 L 157.19 95.67" style="stroke:rgb(22.4%,56.5%,72.8%);stroke-opacity:0.1138;stroke-width:2" /><text x="167.77" y="127.22" style="fill:rgb(14.9%,14.9%,14.9%);fill-opacity:1.0;stroke:rgb(0.0%,0.0%,0.0%);stroke-opacity:0.1138;stroke-width:2;text-anchor:middle" /><path d="M 199.75 95.67 L 191.56 95.67 L 191.56 193.43 L 50.78 193.43" style="stroke:rgb(31.9%,37.5%,66.6%);stroke-opacity:0.029;stroke-width:2" /><text x="191.56" y="156.55" style="fill:rgb(14.9%,14.9%,14.9%);fill-opacity:1.0;stroke:rgb(0.0%,0.0%,0.0%);stroke-opacity:0.029;stroke-width:2;text-anchor:middle" /><path d="M 199.75 95.67 L 165.57 95.67 L 165.57 154.33 L 93.35 154.33" style="stroke:rgb(94.3%,97.7%,66.0%);stroke-opacity:0.442;stroke-width:2" /><text x="165.57" y="137.00" style="fill:rgb(14.9%,14.9%,14.9%);fill-opacity:1.0;stroke:rgb(0.0%,0.0%,0.0%);stroke-opacity:0.442;stroke-width:2;text-anchor:middle" /><path d="M 199.75 76.12 L 193.41 76.12 L 193.41 115.22 L 135.91 115.22" style="stroke:rgb(23.1%,57.2%,72.5%);stroke-opacity:0.117;stroke-width:2" /><text x="193.41" y="107.67" style="fill:rgb(14.9%,14.9%,14.9%);fill-opacity:1.0;stroke:rgb(0.0%,0.0%,0.0%);stroke-opacity:0.117;stroke-width:2;text-anchor:middle" /><path d="M 50.78 174.03 L 50.78 174.03 L 194.62 56.57 L 178.47 56.57" style="stroke:rgb(28.0%,42.4%,69.0%);stroke-opacity:0.0512;stroke-width:2" /><text x="122.70" y="127.30" style="fill:rgb(14.9%,14.9%,14.9%);fill-opacity:1.0;stroke:rgb(0.0%,0.0%,0.0%);stroke-opacity:0.0512;stroke-width:2;text-anchor:middle" /><path d="M 199.75 154.33 L 183.27 154.33 L 183.27 56.57 L 178.47 56.57" style="stroke:rgb(24.0%,47.7%,71.4%);stroke-opacity:0.0746;stroke-width:2" /><text x="183.27" y="117.45" style="fill:rgb(14.9%,14.9%,14.9%);fill-opacity:1.0;stroke:rgb(0.0%,0.0%,0.0%);stroke-opacity:0.0746;stroke-width:2;text-anchor:middle" /><path d="M 199.75 76.12 L 190.64 76.12 L 190.64 115.22 L 135.91 115.22" style="stroke:rgb(24.8%,59.2%,71.7%);stroke-opacity:0.1256;stroke-width:2" /><text x="190.64" y="107.67" style="fill:rgb(14.9%,14.9%,14.9%);fill-opacity:1.0;stroke:rgb(0.0%,0.0%,0.0%);stroke-opacity:0.1256;stroke-width:2;text-anchor:middle" /><path d="M 199.75 154.33 L 181.45 154.33 L 181.45 76.12 L 178.47 76.12" style="stroke:rgb(27.0%,43.8%,69.6%);stroke-opacity:0.0572;stroke-width:2" /><text x="181.45" y="127.22" style="fill:rgb(14.9%,14.9%,14.9%);fill-opacity:1.0;stroke:rgb(0.0%,0.0%,0.0%);stroke-opacity:0.0572;stroke-width:2;text-anchor:middle" /><path d="M 199.75 173.88 L 124.33 173.88 L 124.33 134.78 L 114.63 134.78" style="stroke:rgb(26.0%,45.1%,70.2%);stroke-opacity:0.063;stroke-width:2" /><text x="124.33" y="166.33" style="fill:rgb(14.9%,14.9%,14.9%);fill-opacity:1.0;stroke:rgb(0.0%,0.0%,0.0%);stroke-opacity:0.063;stroke-width:2;text-anchor:middle" /><path d="M 199.75 154.33 L 193.75 154.33 L 193.75 76.12 L 178.47 76.12" style="stroke:rgb(29.7%,40.2%,67.9%);stroke-opacity:0.0414;stroke-width:2" /><text x="193.75" y="127.22" style="fill:rgb(14.9%,14.9%,14.9%);fill-opacity:1.0;stroke:rgb(0.0%,0.0%,0.0%);stroke-opacity:0.0414;stroke-width:2;text-anchor:middle" /><path d="M 50.78 174.03 L 50.78 174.03 L 154.86 115.22 L 135.91 115.22" style="stroke:rgb(29.5%,64.4%,69.5%);stroke-opacity:0.1486;stroke-width:2" /><text x="102.82" y="156.63" style="fill:rgb(14.9%,14.9%,14.9%);fill-opacity:1.0;stroke:rgb(0.0%,0.0%,0.0%);stroke-opacity:0.1486;stroke-width:2;text-anchor:middle" /><path d="M 50.78 174.03 L 50.78 174.03 L 141.03 115.22 L 135.91 115.22" style="stroke:rgb(32.5%,36.7%,66.2%);stroke-opacity:0.0254;stroke-width:2" /><text x="95.91" y="156.63" style="fill:rgb(14.9%,14.9%,14.9%);fill-opacity:1.0;stroke:rgb(0.0%,0.0%,0.0%);stroke-opacity:0.0254;stroke-width:2;text-anchor:middle" /><path d="M 199.75 134.78 L 190.55 134.78 L 190.55 173.88 L 72.06 173.88" style="stroke:rgb(28.4%,42.0%,68.7%);stroke-opacity:0.0492;stroke-width:2" /><text x="190.55" y="166.33" style="fill:rgb(14.9%,14.9%,14.9%);fill-opacity:1.0;stroke:rgb(0.0%,0.0%,0.0%);stroke-opacity:0.0492;stroke-width:2;text-anchor:middle" /><path d="M 199.75 56.57 L 186.17 56.57 L 186.17 193.43 L 50.78 193.43" style="stroke:rgb(33.9%,34.9%,65.4%);stroke-opacity:0.01736;stroke-width:2" /><text x="186.17" y="137.00" style="fill:rgb(14.9%,14.9%,14.9%);fill-opacity:1.0;stroke:rgb(0.0%,0.0%,0.0%);stroke-opacity:0.01736;stroke-width:2;text-anchor:middle" /><path d="M 199.75 95.67 L 170.86 95.67 L 170.86 193.43 L 50.78 193.43" style="stroke:rgb(24.1%,58.3%,72.1%);stroke-opacity:0.1218;stroke-width:2" /><text x="170.86" y="156.55" style="fill:rgb(14.9%,14.9%,14.9%);fill-opacity:1.0;stroke:rgb(0.0%,0.0%,0.0%);stroke-opacity:0.1218;stroke-width:2;text-anchor:middle" /><path d="M 50.78 174.03 L 50.78 174.03 L 158.08 95.67 L 157.19 95.67" style="stroke:rgb(32.6%,36.5%,66.1%);stroke-opacity:0.0246;stroke-width:2" /><text x="104.43" y="146.85" style="fill:rgb(14.9%,14.9%,14.9%);fill-opacity:1.0;stroke:rgb(0.0%,0.0%,0.0%);stroke-opacity:0.0246;stroke-width:2;text-anchor:middle" /><path d="M 199.75 56.57 L 191.82 56.57 L 191.82 154.33 L 93.35 154.33" style="stroke:rgb(28.2%,62.9%,70.2%);stroke-opacity:0.142;stroke-width:2" /><text x="191.82" y="117.45" style="fill:rgb(14.9%,14.9%,14.9%);fill-opacity:1.0;stroke:rgb(0.0%,0.0%,0.0%);stroke-opacity:0.142;stroke-width:2;text-anchor:middle" /><path d="M 50.78 174.03 L 50.78 174.03 L 181.18 56.57 L 178.47 56.57" style="stroke:rgb(30.3%,39.5%,67.6%);stroke-opacity:0.0382;stroke-width:2" /><text x="115.98" y="127.30" style="fill:rgb(14.9%,14.9%,14.9%);fill-opacity:1.0;stroke:rgb(0.0%,0.0%,0.0%);stroke-opacity:0.0382;stroke-width:2;text-anchor:middle" /><path d="M 199.75 154.33 L 182.87 154.33 L 182.87 95.67 L 157.19 95.67" style="stroke:rgb(24.4%,47.1%,71.2%);stroke-opacity:0.0722;stroke-width:2" /><text x="182.87" y="137.00" style="fill:rgb(14.9%,14.9%,14.9%);fill-opacity:1.0;stroke:rgb(0.0%,0.0%,0.0%);stroke-opacity:0.0722;stroke-width:2;text-anchor:middle" /><path d="M 199.75 76.12 L 184.45 76.12 L 184.45 154.33 L 93.35 154.33" style="stroke:rgb(31.1%,38.5%,67.1%);stroke-opacity:0.0336;stroke-width:2" /><text x="184.45" y="127.22" style="fill:rgb(14.9%,14.9%,14.9%);fill-opacity:1.0;stroke:rgb(0.0%,0.0%,0.0%);stroke-opacity:0.0336;stroke-width:2;text-anchor:middle" /><path d="M 199.75 76.12 L 199.23 76.12 L 199.23 173.88 L 72.06 173.88" style="stroke:rgb(22.3%,49.8%,72.4%);stroke-opacity:0.0842;stroke-width:2" /><text x="199.23" y="137.00" style="fill:rgb(14.9%,14.9%,14.9%);fill-opacity:1.0;stroke:rgb(0.0%,0.0%,0.0%);stroke-opacity:0.0842;stroke-width:2;text-anchor:middle" /><path d="M 199.75 115.22 L 143.76 115.22 L 143.76 154.33 L 93.35 154.33" style="stroke:rgb(31.8%,37.6%,66.7%);stroke-opacity:0.0296;stroke-width:2" /><text x="143.76" y="146.78" style="fill:rgb(14.9%,14.9%,14.9%);fill-opacity:1.0;stroke:rgb(0.0%,0.0%,0.0%);stroke-opacity:0.0296;stroke-width:2;text-anchor:middle" /><path d="M 199.75 134.78 L 168.06 134.78 L 168.06 193.43 L 50.78 193.43" style="stroke:rgb(33.6%,35.3%,65.6%);stroke-opacity:0.01914;stroke-width:2" /><text x="168.06" y="176.10" style="fill:rgb(14.9%,14.9%,14.9%);fill-opacity:1.0;stroke:rgb(0.0%,0.0%,0.0%);stroke-opacity:0.01914;stroke-width:2;text-anchor:middle" /><path d="M 199.75 115.22 L 171.71 115.22 L 171.71 154.33 L 93.35 154.33" style="stroke:rgb(32.5%,36.6%,66.2%);stroke-opacity:0.0252;stroke-width:2" /><text x="171.71" y="146.78" style="fill:rgb(14.9%,14.9%,14.9%);fill-opacity:1.0;stroke:rgb(0.0%,0.0%,0.0%);stroke-opacity:0.0252;stroke-width:2;text-anchor:middle" /><path d="M 178.47 66.35 L 173.43 66.35 L 173.43 173.88 L 72.06 173.88" style="stroke:rgb(21.1%,55.0%,73.4%);stroke-opacity:0.1074;stroke-width:2" /><text x="173.43" y="132.11" style="fill:rgb(14.9%,14.9%,14.9%);fill-opacity:1.0;stroke:rgb(0.0%,0.0%,0.0%);stroke-opacity:0.1074;stroke-width:2;text-anchor:middle" /><path d="M 199.75 134.78 L 196.82 134.78 L 196.82 95.67 L 157.19 95.67" style="stroke:rgb(22.9%,49.1%,72.1%);stroke-opacity:0.0812;stroke-width:2" /><text x="196.82" y="127.22" style="fill:rgb(14.9%,14.9%,14.9%);fill-opacity:1.0;stroke:rgb(0.0%,0.0%,0.0%);stroke-opacity:0.0812;stroke-width:2;text-anchor:middle" /><path d="M 178.47 66.35 L 173.73 66.35 L 173.73 134.78 L 114.63 134.78" style="stroke:rgb(97.2%,54.0%,31.5%);stroke-opacity:0.756;stroke-width:2" /><text x="173.73" y="112.56" style="fill:rgb(14.9%,14.9%,14.9%);fill-opacity:1.0;stroke:rgb(0.0%,0.0%,0.0%);stroke-opacity:0.756;stroke-width:2;text-anchor:middle" /><path d="M 199.75 134.78 L 193.80 134.78 L 193.80 95.67 L 157.19 95.67" style="stroke:rgb(30.5%,39.2%,67.4%);stroke-opacity:0.0366;stroke-width:2" /><text x="193.80" y="127.22" style="fill:rgb(14.9%,14.9%,14.9%);fill-opacity:1.0;stroke:rgb(0.0%,0.0%,0.0%);stroke-opacity:0.0366;stroke-width:2;text-anchor:middle" /><path d="M 199.75 134.78 L 168.19 134.78 L 168.19 173.88 L 72.06 173.88" style="stroke:rgb(33.0%,36.0%,65.9%);stroke-opacity:0.0226;stroke-width:2" /><text x="168.19" y="166.33" style="fill:rgb(14.9%,14.9%,14.9%);fill-opacity:1.0;stroke:rgb(0.0%,0.0%,0.0%);stroke-opacity:0.0226;stroke-width:2;text-anchor:middle" /><path d="M 157.19 81.01 L 148.81 81.01 L 148.81 154.33 L 93.35 154.33" style="stroke:rgb(32.0%,37.3%,66.5%);stroke-opacity:0.0284;stroke-width:2" /><text x="148.81" y="129.67" style="fill:rgb(14.9%,14.9%,14.9%);fill-opacity:1.0;stroke:rgb(0.0%,0.0%,0.0%);stroke-opacity:0.0284;stroke-width:2;text-anchor:middle" /><path d="M 199.75 76.12 L 184.59 76.12 L 184.59 173.88 L 72.06 173.88" style="stroke:rgb(34.0%,34.7%,65.3%);stroke-opacity:0.01664;stroke-width:2" /><text x="184.59" y="137.00" style="fill:rgb(14.9%,14.9%,14.9%);fill-opacity:1.0;stroke:rgb(0.0%,0.0%,0.0%);stroke-opacity:0.01664;stroke-width:2;text-anchor:middle" /><path d="M 178.47 66.35 L 167.48 66.35 L 167.48 134.78 L 114.63 134.78" style="stroke:rgb(33.3%,35.6%,65.7%);stroke-opacity:0.0208;stroke-width:2" /><text x="167.48" y="112.56" style="fill:rgb(14.9%,14.9%,14.9%);fill-opacity:1.0;stroke:rgb(0.0%,0.0%,0.0%);stroke-opacity:0.0208;stroke-width:2;text-anchor:middle" /><path d="M 199.75 173.88 L 184.75 173.88 L 184.75 76.12 L 178.47 76.12" style="stroke:rgb(28.6%,41.7%,68.6%);stroke-opacity:0.048;stroke-width:2" /><text x="184.75" y="137.00" style="fill:rgb(14.9%,14.9%,14.9%);fill-opacity:1.0;stroke:rgb(0.0%,0.0%,0.0%);stroke-opacity:0.048;stroke-width:2;text-anchor:middle" /><path d="M 178.47 66.35 L 173.67 66.35 L 173.67 154.33 L 93.35 154.33" style="stroke:rgb(99.5%,80.4%,48.3%);stroke-opacity:0.638;stroke-width:2" /><text x="173.67" y="122.34" style="fill:rgb(14.9%,14.9%,14.9%);fill-opacity:1.0;stroke:rgb(0.0%,0.0%,0.0%);stroke-opacity:0.638;stroke-width:2;text-anchor:middle" /><path d="M 50.78 174.03 L 50.78 174.03 L 195.04 76.12 L 178.47 76.12" style="stroke:rgb(31.8%,37.6%,66.6%);stroke-opacity:0.0294;stroke-width:2" /><text x="122.91" y="137.08" style="fill:rgb(14.9%,14.9%,14.9%);fill-opacity:1.0;stroke:rgb(0.0%,0.0%,0.0%);stroke-opacity:0.0294;stroke-width:2;text-anchor:middle" /><path d="M 50.78 174.03 L 50.78 174.03 L 191.99 56.57 L 178.47 56.57" style="stroke:rgb(33.1%,35.9%,65.8%);stroke-opacity:0.0218;stroke-width:2" /><text x="121.39" y="127.30" style="fill:rgb(14.9%,14.9%,14.9%);fill-opacity:1.0;stroke:rgb(0.0%,0.0%,0.0%);stroke-opacity:0.0218;stroke-width:2;text-anchor:middle" /><path d="M 199.75 134.78 L 170.23 134.78 L 170.23 95.67 L 157.19 95.67" style="stroke:rgb(23.9%,47.8%,71.5%);stroke-opacity:0.0752;stroke-width:2" /><text x="170.23" y="127.22" style="fill:rgb(14.9%,14.9%,14.9%);fill-opacity:1.0;stroke:rgb(0.0%,0.0%,0.0%);stroke-opacity:0.0752;stroke-width:2;text-anchor:middle" /><path d="M 199.75 56.57 L 185.94 56.57 L 185.94 115.22 L 135.91 115.22" style="stroke:rgb(29.1%,63.9%,69.8%);stroke-opacity:0.1464;stroke-width:2" /><text x="185.94" y="97.90" style="fill:rgb(14.9%,14.9%,14.9%);fill-opacity:1.0;stroke:rgb(0.0%,0.0%,0.0%);stroke-opacity:0.1464;stroke-width:2;text-anchor:middle" /><path d="M 199.75 115.22 L 169.60 115.22 L 169.60 173.88 L 72.06 173.88" style="stroke:rgb(21.8%,55.7%,73.1%);stroke-opacity:0.1106;stroke-width:2" /><text x="169.60" y="156.55" style="fill:rgb(14.9%,14.9%,14.9%);fill-opacity:1.0;stroke:rgb(0.0%,0.0%,0.0%);stroke-opacity:0.1106;stroke-width:2;text-anchor:middle" /><path d="M 50.78 174.03 L 50.78 174.03 L 169.02 95.67 L 157.19 95.67" style="stroke:rgb(32.5%,36.6%,66.2%);stroke-opacity:0.0252;stroke-width:2" /><text x="109.90" y="146.85" style="fill:rgb(14.9%,14.9%,14.9%);fill-opacity:1.0;stroke:rgb(0.0%,0.0%,0.0%);stroke-opacity:0.0252;stroke-width:2;text-anchor:middle" /><path d="M 199.75 134.78 L 163.26 134.78 L 163.26 95.67 L 157.19 95.67" style="stroke:rgb(19.9%,53.7%,74.0%);stroke-opacity:0.1014;stroke-width:2" /><text x="163.26" y="127.22" style="fill:rgb(14.9%,14.9%,14.9%);fill-opacity:1.0;stroke:rgb(0.0%,0.0%,0.0%);stroke-opacity:0.1014;stroke-width:2;text-anchor:middle" /><path d="M 50.78 174.03 L 50.78 174.03 L 180.32 76.12 L 178.47 76.12" style="stroke:rgb(31.4%,38.0%,66.9%);stroke-opacity:0.0314;stroke-width:2" /><text x="115.55" y="137.08" style="fill:rgb(14.9%,14.9%,14.9%);fill-opacity:1.0;stroke:rgb(0.0%,0.0%,0.0%);stroke-opacity:0.0314;stroke-width:2;text-anchor:middle" /><path d="M 199.75 76.12 L 199.33 76.12 L 199.33 115.22 L 135.91 115.22" style="stroke:rgb(35.7%,71.3%,66.7%);stroke-opacity:0.179;stroke-width:2" /><text x="199.33" y="107.67" style="fill:rgb(14.9%,14.9%,14.9%);fill-opacity:1.0;stroke:rgb(0.0%,0.0%,0.0%);stroke-opacity:0.179;stroke-width:2;text-anchor:middle" /><path d="M 135.91 98.12 L 129.31 98.12 L 129.31 154.33 L 93.35 154.33" style="stroke:rgb(29.0%,41.2%,68.4%);stroke-opacity:0.0456;stroke-width:2" /><text x="129.31" y="138.22" style="fill:rgb(14.9%,14.9%,14.9%);fill-opacity:1.0;stroke:rgb(0.0%,0.0%,0.0%);stroke-opacity:0.0456;stroke-width:2;text-anchor:middle" /><path d="M 50.78 174.03 L 50.78 174.03 L 194.60 76.12 L 178.47 76.12" style="stroke:rgb(34.3%,34.3%,65.1%);stroke-opacity:0.0147;stroke-width:2" /><text x="122.69" y="137.08" style="fill:rgb(14.9%,14.9%,14.9%);fill-opacity:1.0;stroke:rgb(0.0%,0.0%,0.0%);stroke-opacity:0.0147;stroke-width:2;text-anchor:middle" /><path d="M 199.75 154.33 L 147.12 154.33 L 147.12 115.22 L 135.91 115.22" style="stroke:rgb(99.2%,69.0%,38.7%);stroke-opacity:0.696;stroke-width:2" /><text x="147.12" y="146.78" style="fill:rgb(14.9%,14.9%,14.9%);fill-opacity:1.0;stroke:rgb(0.0%,0.0%,0.0%);stroke-opacity:0.696;stroke-width:2;text-anchor:middle" /><path d="M 135.91 98.12 L 127.20 98.12 L 127.20 173.88 L 72.06 173.88" style="stroke:rgb(21.8%,55.7%,73.1%);stroke-opacity:0.1106;stroke-width:2" /><text x="127.20" y="148.00" style="fill:rgb(14.9%,14.9%,14.9%);fill-opacity:1.0;stroke:rgb(0.0%,0.0%,0.0%);stroke-opacity:0.1106;stroke-width:2;text-anchor:middle" /><path d="M 199.75 154.33 L 192.03 154.33 L 192.03 56.57 L 178.47 56.57" style="stroke:rgb(29.2%,40.9%,68.2%);stroke-opacity:0.0442;stroke-width:2" /><text x="192.03" y="117.45" style="fill:rgb(14.9%,14.9%,14.9%);fill-opacity:1.0;stroke:rgb(0.0%,0.0%,0.0%);stroke-opacity:0.0442;stroke-width:2;text-anchor:middle" /><path d="M 199.75 134.78 L 190.59 134.78 L 190.59 76.12 L 178.47 76.12" style="stroke:rgb(23.9%,47.7%,71.5%);stroke-opacity:0.075;stroke-width:2" /><text x="190.59" y="117.45" style="fill:rgb(14.9%,14.9%,14.9%);fill-opacity:1.0;stroke:rgb(0.0%,0.0%,0.0%);stroke-opacity:0.075;stroke-width:2;text-anchor:middle" /><path d="M 178.47 66.35 L 175.83 66.35 L 175.83 173.88 L 72.06 173.88" style="stroke:rgb(22.7%,49.3%,72.2%);stroke-opacity:0.0818;stroke-width:2" /><text x="175.83" y="132.11" style="fill:rgb(14.9%,14.9%,14.9%);fill-opacity:1.0;stroke:rgb(0.0%,0.0%,0.0%);stroke-opacity:0.0818;stroke-width:2;text-anchor:middle" /><path d="M 157.19 81.01 L 157.06 81.01 L 157.06 154.33 L 93.35 154.33" style="stroke:rgb(90.2%,96.1%,59.6%);stroke-opacity:0.4;stroke-width:2" /><text x="157.06" y="129.67" style="fill:rgb(14.9%,14.9%,14.9%);fill-opacity:1.0;stroke:rgb(0.0%,0.0%,0.0%);stroke-opacity:0.4;stroke-width:2;text-anchor:middle" /><path d="M 50.78 174.03 L 50.78 174.03 L 182.43 115.22 L 135.91 115.22" style="stroke:rgb(33.9%,34.8%,65.3%);stroke-opacity:0.01694;stroke-width:2" /><text x="116.61" y="156.63" style="fill:rgb(14.9%,14.9%,14.9%);fill-opacity:1.0;stroke:rgb(0.0%,0.0%,0.0%);stroke-opacity:0.01694;stroke-width:2;text-anchor:middle" /><path d="M 199.75 56.57 L 186.09 56.57 L 186.09 134.78 L 114.63 134.78" style="stroke:rgb(26.7%,61.3%,70.8%);stroke-opacity:0.135;stroke-width:2" /><text x="186.09" y="107.67" style="fill:rgb(14.9%,14.9%,14.9%);fill-opacity:1.0;stroke:rgb(0.0%,0.0%,0.0%);stroke-opacity:0.135;stroke-width:2;text-anchor:middle" /><path d="M 50.78 174.03 L 50.78 174.03 L 158.59 95.67 L 157.19 95.67" style="stroke:rgb(32.5%,36.6%,66.2%);stroke-opacity:0.0252;stroke-width:2" /><text x="104.69" y="146.85" style="fill:rgb(14.9%,14.9%,14.9%);fill-opacity:1.0;stroke:rgb(0.0%,0.0%,0.0%);stroke-opacity:0.0252;stroke-width:2;text-anchor:middle" /><path d="M 199.75 56.57 L 197.08 56.57 L 50.78 174.03 L 50.78 174.03" style="stroke:rgb(34.8%,70.3%,67.1%);stroke-opacity:0.1744;stroke-width:2" /><text x="123.93" y="127.30" style="fill:rgb(14.9%,14.9%,14.9%);fill-opacity:1.0;stroke:rgb(0.0%,0.0%,0.0%);stroke-opacity:0.1744;stroke-width:2;text-anchor:middle" /><path d="M 199.75 76.12 L 199.21 76.12 L 50.78 174.03 L 50.78 174.03" style="stroke:rgb(42.2%,76.9%,64.7%);stroke-opacity:0.208;stroke-width:2" /><text x="125.00" y="137.08" style="fill:rgb(14.9%,14.9%,14.9%);fill-opacity:1.0;stroke:rgb(0.0%,0.0%,0.0%);stroke-opacity:0.208;stroke-width:2;text-anchor:middle" /><path d="M 199.75 134.78 L 164.30 134.78 L 164.30 95.67 L 157.19 95.67" style="stroke:rgb(28.3%,42.1%,68.8%);stroke-opacity:0.0496;stroke-width:2" /><text x="164.30" y="127.22" style="fill:rgb(14.9%,14.9%,14.9%);fill-opacity:1.0;stroke:rgb(0.0%,0.0%,0.0%);stroke-opacity:0.0496;stroke-width:2;text-anchor:middle" /><path d="M 199.75 115.22 L 169.10 115.22 L 169.10 193.43 L 50.78 193.43" style="stroke:rgb(20.5%,54.4%,73.7%);stroke-opacity:0.1046;stroke-width:2" /><text x="169.10" y="166.33" style="fill:rgb(14.9%,14.9%,14.9%);fill-opacity:1.0;stroke:rgb(0.0%,0.0%,0.0%);stroke-opacity:0.1046;stroke-width:2;text-anchor:middle" /><path d="M 199.75 56.57 L 197.33 56.57 L 50.78 174.03 L 50.78 174.03" style="stroke:rgb(35.8%,71.4%,66.6%);stroke-opacity:0.1796;stroke-width:2" /><text x="124.06" y="127.30" style="fill:rgb(14.9%,14.9%,14.9%);fill-opacity:1.0;stroke:rgb(0.0%,0.0%,0.0%);stroke-opacity:0.1796;stroke-width:2;text-anchor:middle" /><path d="M 135.91 98.12 L 131.23 98.12 L 50.78 174.03 L 50.78 174.03" style="stroke:rgb(25.0%,46.4%,70.8%);stroke-opacity:0.069;stroke-width:2" /><text x="91.01" y="148.07" style="fill:rgb(14.9%,14.9%,14.9%);fill-opacity:1.0;stroke:rgb(0.0%,0.0%,0.0%);stroke-opacity:0.069;stroke-width:2;text-anchor:middle" /><path d="M 199.75 95.67 L 183.28 95.67 L 183.28 76.12 L 178.47 76.12" style="stroke:rgb(89.7%,95.9%,59.7%);stroke-opacity:0.398;stroke-width:2" /><text x="183.28" y="97.90" style="fill:rgb(14.9%,14.9%,14.9%);fill-opacity:1.0;stroke:rgb(0.0%,0.0%,0.0%);stroke-opacity:0.398;stroke-width:2;text-anchor:middle" /><path d="M 199.75 173.88 L 189.27 173.88 L 189.27 95.67 L 157.19 95.67" style="stroke:rgb(25.3%,46.0%,70.6%);stroke-opacity:0.067;stroke-width:2" /><text x="189.27" y="146.78" style="fill:rgb(14.9%,14.9%,14.9%);fill-opacity:1.0;stroke:rgb(0.0%,0.0%,0.0%);stroke-opacity:0.067;stroke-width:2;text-anchor:middle" /><path d="M 199.75 95.67 L 171.78 95.67 L 171.78 193.43 L 50.78 193.43" style="stroke:rgb(34.4%,34.2%,65.1%);stroke-opacity:0.01438;stroke-width:2" /><text x="171.78" y="156.55" style="fill:rgb(14.9%,14.9%,14.9%);fill-opacity:1.0;stroke:rgb(0.0%,0.0%,0.0%);stroke-opacity:0.01438;stroke-width:2;text-anchor:middle" /><path d="M 199.75 56.57 L 191.33 56.57 L 191.33 173.88 L 72.06 173.88" style="stroke:rgb(23.5%,48.3%,71.7%);stroke-opacity:0.0774;stroke-width:2" /><text x="191.33" y="127.22" style="fill:rgb(14.9%,14.9%,14.9%);fill-opacity:1.0;stroke:rgb(0.0%,0.0%,0.0%);stroke-opacity:0.0774;stroke-width:2;text-anchor:middle" /><path d="M 199.75 76.12 L 195.64 76.12 L 195.64 115.22 L 135.91 115.22" style="stroke:rgb(36.0%,71.7%,66.5%);stroke-opacity:0.1806;stroke-width:2" /><text x="195.64" y="107.67" style="fill:rgb(14.9%,14.9%,14.9%);fill-opacity:1.0;stroke:rgb(0.0%,0.0%,0.0%);stroke-opacity:0.1806;stroke-width:2;text-anchor:middle" /><path d="M 199.75 173.88 L 116.96 173.88 L 116.96 154.33 L 93.35 154.33" style="stroke:rgb(42.7%,77.1%,64.7%);stroke-opacity:0.21;stroke-width:2" /><text x="116.96" y="176.10" style="fill:rgb(14.9%,14.9%,14.9%);fill-opacity:1.0;stroke:rgb(0.0%,0.0%,0.0%);stroke-opacity:0.21;stroke-width:2;text-anchor:middle" /><path d="M 199.75 56.57 L 182.43 56.57 L 182.43 115.22 L 135.91 115.22" style="stroke:rgb(34.9%,33.5%,64.7%);stroke-opacity:0.01148;stroke-width:2" /><text x="182.43" y="97.90" style="fill:rgb(14.9%,14.9%,14.9%);fill-opacity:1.0;stroke:rgb(0.0%,0.0%,0.0%);stroke-opacity:0.01148;stroke-width:2;text-anchor:middle" /><path d="M 50.78 174.03 L 50.78 174.03 L 190.97 76.12 L 178.47 76.12" style="stroke:rgb(34.5%,34.0%,65.0%);stroke-opacity:0.01372;stroke-width:2" /><text x="120.88" y="137.08" style="fill:rgb(14.9%,14.9%,14.9%);fill-opacity:1.0;stroke:rgb(0.0%,0.0%,0.0%);stroke-opacity:0.01372;stroke-width:2;text-anchor:middle" /><path d="M 178.47 66.35 L 177.44 66.35 L 177.44 154.33 L 93.35 154.33" style="stroke:rgb(31.1%,38.5%,67.1%);stroke-opacity:0.0336;stroke-width:2" /><text x="177.44" y="122.34" style="fill:rgb(14.9%,14.9%,14.9%);fill-opacity:1.0;stroke:rgb(0.0%,0.0%,0.0%);stroke-opacity:0.0336;stroke-width:2;text-anchor:middle" /><path d="M 199.75 95.67 L 183.34 95.67 L 50.78 174.03 L 50.78 174.03" style="stroke:rgb(97.9%,59.1%,33.8%);stroke-opacity:0.736;stroke-width:2" /><text x="117.06" y="146.85" style="fill:rgb(14.9%,14.9%,14.9%);fill-opacity:1.0;stroke:rgb(0.0%,0.0%,0.0%);stroke-opacity:0.736;stroke-width:2;text-anchor:middle" /><path d="M 199.75 173.88 L 188.51 173.88 L 188.51 76.12 L 178.47 76.12" style="stroke:rgb(32.8%,36.2%,66.0%);stroke-opacity:0.0234;stroke-width:2" /><text x="188.51" y="137.00" style="fill:rgb(14.9%,14.9%,14.9%);fill-opacity:1.0;stroke:rgb(0.0%,0.0%,0.0%);stroke-opacity:0.0234;stroke-width:2;text-anchor:middle" /><path d="M 135.91 98.12 L 135.76 98.12 L 135.76 173.88 L 72.06 173.88" style="stroke:rgb(24.0%,47.7%,71.4%);stroke-opacity:0.0746;stroke-width:2" /><text x="135.76" y="148.00" style="fill:rgb(14.9%,14.9%,14.9%);fill-opacity:1.0;stroke:rgb(0.0%,0.0%,0.0%);stroke-opacity:0.0746;stroke-width:2;text-anchor:middle" /><path d="M 178.47 66.35 L 175.56 66.35 L 175.56 134.78 L 114.63 134.78" style="stroke:rgb(96.4%,47.8%,28.6%);stroke-opacity:0.78;stroke-width:2" /><text x="175.56" y="112.56" style="fill:rgb(14.9%,14.9%,14.9%);fill-opacity:1.0;stroke:rgb(0.0%,0.0%,0.0%);stroke-opacity:0.78;stroke-width:2;text-anchor:middle" /></g><g class="toytree-Nodes" style="fill:rgb(40.0%,76.1%,64.7%);fill-opacity:1.0;stroke:rgb(14.9%,14.9%,14.9%);stroke-opacity:1.0;stroke-width:1.5" /><g class="toytree-TipLabels" style="fill:rgb(14.5%,14.5%,14.5%);fill-opacity:1.0;font-family:Helvetica;font-size:12px;font-weight:300;vertical-align:baseline;white-space:pre;stroke:none"><g class="toytree-TipLabel" transform="translate(199.751,56.5693)"><text x="15.0" y="3.066" style="fill:rgb(14.5%,14.5%,14.5%);fill-opacity:1.0">r0</text></g><g class="toytree-TipLabel" transform="translate(199.751,76.121)"><text x="15.0" y="3.066" style="fill:rgb(14.5%,14.5%,14.5%);fill-opacity:1.0">r1</text></g><g class="toytree-TipLabel" transform="translate(199.751,95.6726)"><text x="15.0" y="3.066" style="fill:rgb(14.5%,14.5%,14.5%);fill-opacity:1.0">r2</text></g><g class="toytree-TipLabel" transform="translate(199.751,115.224)"><text x="15.0" y="3.066" style="fill:rgb(14.5%,14.5%,14.5%);fill-opacity:1.0">r3</text></g><g class="toytree-TipLabel" transform="translate(199.751,134.776)"><text x="15.0" y="3.066" style="fill:rgb(14.5%,14.5%,14.5%);fill-opacity:1.0">r4</text></g><g class="toytree-TipLabel" transform="translate(199.751,154.327)"><text x="15.0" y="3.066" style="fill:rgb(14.5%,14.5%,14.5%);fill-opacity:1.0">r5</text></g><g class="toytree-TipLabel" transform="translate(199.751,173.879)"><text x="15.0" y="3.066" style="fill:rgb(14.5%,14.5%,14.5%);fill-opacity:1.0">r6</text></g><g class="toytree-TipLabel" transform="translate(199.751,193.431)"><text x="15.0" y="3.066" style="fill:rgb(14.5%,14.5%,14.5%);fill-opacity:1.0">r7</text></g></g></g></g></g><g class="toyplot-coordinates-Numberline" id="t184379d2a6d04cd98300a069da8f18af"><clipPath id="t6513e8c6628e468e9731c8f236e00507"><rect x="0" y="-20.0" width="140.0" height="40.0" /></clipPath><g clip-path="url(#t6513e8c6628e468e9731c8f236e00507)" transform="translate(250.0,195.0)rotate(-90.0)"><g class="toyplot-color-Map" id="t0ff2c8a16df843479c41af869e71dde3"><defs><linearGradient id="t2684f4bf5ac945a79ce20f619ba55285" x1="0.0" x2="140.0" y1="0" y2="0" gradientUnits="userSpaceOnUse"><stop stop-color="rgb(36.9%,31%,63.5%)" stop-opacity="1.0" offset="0.0" /><stop stop-color="rgb(34.1%,34.5%,65.2%)" stop-opacity="1.0" offset="0.015873015873015872" /><stop stop-color="rgb(31.4%,38.1%,66.9%)" stop-opacity="1.0" offset="0.031746031746031744" /><stop stop-color="rgb(28.6%,41.6%,68.6%)" stop-opacity="1.0" offset="0.047619047619047616" /><stop stop-color="rgb(25.9%,45.2%,70.3%)" stop-opacity="1.0" offset="0.06349206349206349" /><stop stop-color="rgb(23.2%,48.7%,71.9%)" stop-opacity="1.0" offset="0.07936507936507936" /><stop stop-color="rgb(20.4%,52.3%,73.6%)" stop-opacity="1.0" offset="0.09523809523809523" /><stop stop-color="rgb(21.9%,55.9%,73.1%)" stop-opacity="1.0" offset="0.1111111111111111" /><stop stop-color="rgb(25.1%,59.5%,71.6%)" stop-opacity="1.0" offset="0.12698412698412698" /><stop stop-color="rgb(28.3%,63.1%,70.1%)" stop-opacity="1.0" offset="0.14285714285714285" /><stop stop-color="rgb(31.6%,66.7%,68.6%)" stop-opacity="1.0" offset="0.15873015873015872" /><stop stop-color="rgb(34.8%,70.3%,67.1%)" stop-opacity="1.0" offset="0.1746031746031746" /><stop stop-color="rgb(38.1%,73.9%,65.6%)" stop-opacity="1.0" offset="0.19047619047619047" /><stop stop-color="rgb(41.7%,76.8%,64.7%)" stop-opacity="1.0" offset="0.20634920634920634" /><stop stop-color="rgb(46%,78.4%,64.6%)" stop-opacity="1.0" offset="0.2222222222222222" /><stop stop-color="rgb(50.3%,80.1%,64.6%)" stop-opacity="1.0" offset="0.23809523809523805" /><stop stop-color="rgb(54.6%,81.8%,64.5%)" stop-opacity="1.0" offset="0.25396825396825395" /><stop stop-color="rgb(58.9%,83.5%,64.4%)" stop-opacity="1.0" offset="0.2698412698412698" /><stop stop-color="rgb(63.2%,85.2%,64.4%)" stop-opacity="1.0" offset="0.2857142857142857" /><stop stop-color="rgb(67.4%,86.8%,64.2%)" stop-opacity="1.0" offset="0.30158730158730157" /><stop stop-color="rgb(71.1%,88.3%,63.5%)" stop-opacity="1.0" offset="0.31746031746031744" /><stop stop-color="rgb(74.8%,89.8%,62.7%)" stop-opacity="1.0" offset="0.3333333333333333" /><stop stop-color="rgb(78.4%,91.3%,62%)" stop-opacity="1.0" offset="0.3492063492063492" /><stop stop-color="rgb(82.1%,92.8%,61.3%)" stop-opacity="1.0" offset="0.36507936507936506" /><stop stop-color="rgb(85.8%,94.3%,60.5%)" stop-opacity="1.0" offset="0.38095238095238093" /><stop stop-color="rgb(89.5%,95.8%,59.8%)" stop-opacity="1.0" offset="0.3968253968253968" /><stop stop-color="rgb(91.4%,96.6%,61.5%)" stop-opacity="1.0" offset="0.4126984126984127" /><stop stop-color="rgb(93%,97.2%,64%)" stop-opacity="1.0" offset="0.42857142857142855" /><stop stop-color="rgb(94.6%,97.8%,66.4%)" stop-opacity="1.0" offset="0.4444444444444444" /><stop stop-color="rgb(96.1%,98.4%,68.8%)" stop-opacity="1.0" offset="0.4603174603174603" /><stop stop-color="rgb(97.7%,99.1%,71.3%)" stop-opacity="1.0" offset="0.4761904761904761" /><stop stop-color="rgb(99.2%,99.7%,73.7%)" stop-opacity="1.0" offset="0.49206349206349204" /><stop stop-color="rgb(100%,99%,73.3%)" stop-opacity="1.0" offset="0.5079365079365079" /><stop stop-color="rgb(99.9%,97.1%,70%)" stop-opacity="1.0" offset="0.5238095238095237" /><stop stop-color="rgb(99.8%,95.2%,66.8%)" stop-opacity="1.0" offset="0.5396825396825397" /><stop stop-color="rgb(99.8%,93.2%,63.6%)" stop-opacity="1.0" offset="0.5555555555555556" /><stop stop-color="rgb(99.7%,91.3%,60.3%)" stop-opacity="1.0" offset="0.5714285714285714" /><stop stop-color="rgb(99.7%,89.4%,57.1%)" stop-opacity="1.0" offset="0.5873015873015872" /><stop stop-color="rgb(99.6%,87.2%,54%)" stop-opacity="1.0" offset="0.6031746031746031" /><stop stop-color="rgb(99.5%,84.1%,51.4%)" stop-opacity="1.0" offset="0.6190476190476191" /><stop stop-color="rgb(99.5%,81%,48.8%)" stop-opacity="1.0" offset="0.6349206349206349" /><stop stop-color="rgb(99.4%,77.9%,46.1%)" stop-opacity="1.0" offset="0.6507936507936507" /><stop stop-color="rgb(99.3%,74.8%,43.5%)" stop-opacity="1.0" offset="0.6666666666666666" /><stop stop-color="rgb(99.3%,71.7%,40.9%)" stop-opacity="1.0" offset="0.6825396825396826" /><stop stop-color="rgb(99.2%,68.5%,38.3%)" stop-opacity="1.0" offset="0.6984126984126984" /><stop stop-color="rgb(98.7%,64.6%,36.4%)" stop-opacity="1.0" offset="0.7142857142857142" /><stop stop-color="rgb(98.2%,60.5%,34.5%)" stop-opacity="1.0" offset="0.7301587301587301" /><stop stop-color="rgb(97.6%,56.5%,32.6%)" stop-opacity="1.0" offset="0.746031746031746" /><stop stop-color="rgb(97%,52.5%,30.8%)" stop-opacity="1.0" offset="0.7619047619047619" /><stop stop-color="rgb(96.5%,48.4%,28.9%)" stop-opacity="1.0" offset="0.7777777777777777" /><stop stop-color="rgb(95.9%,44.4%,27%)" stop-opacity="1.0" offset="0.7936507936507936" /><stop stop-color="rgb(94.5%,41%,26.7%)" stop-opacity="1.0" offset="0.8095238095238095" /><stop stop-color="rgb(92.6%,38.1%,27.5%)" stop-opacity="1.0" offset="0.8253968253968254" /><stop stop-color="rgb(90.7%,35.1%,28.2%)" stop-opacity="1.0" offset="0.8412698412698412" /><stop stop-color="rgb(88.7%,32.2%,29%)" stop-opacity="1.0" offset="0.8571428571428571" /><stop stop-color="rgb(86.8%,29.3%,29.7%)" stop-opacity="1.0" offset="0.873015873015873" /><stop stop-color="rgb(84.9%,26.4%,30.5%)" stop-opacity="1.0" offset="0.8888888888888888" /><stop stop-color="rgb(82.5%,23.2%,30.7%)" stop-opacity="1.0" offset="0.9047619047619047" /><stop stop-color="rgb(79.1%,19.4%,29.9%)" stop-opacity="1.0" offset="0.9206349206349206" /><stop stop-color="rgb(75.7%,15.6%,29.1%)" stop-opacity="1.0" offset="0.9365079365079365" /><stop stop-color="rgb(72.2%,11.8%,28.3%)" stop-opacity="1.0" offset="0.9523809523809522" /><stop stop-color="rgb(68.8%,7.99%,27.5%)" stop-opacity="1.0" offset="0.9682539682539681" /><stop stop-color="rgb(65.4%,4.19%,26.7%)" stop-opacity="1.0" offset="0.9841269841269841" /><stop stop-color="rgb(62%,0.392%,25.9%)" stop-opacity="1.0" offset="1.0" /></linearGradient></defs><rect x="0.0" y="-7.5" width="140.0" height="15" style="fill:url(#t2684f4bf5ac945a79ce20f619ba55285);stroke:rgb(0%,0%,0%);stroke-opacity:1.0;stroke-width:2" /></g></g><g class="toyplot-coordinates-Axis" id="t8b5b72cc91014ffcac6a20063a2bea4d" transform="translate(250.0,195.0)rotate(-90.0)translate(0,20.0)"><line x1="0" y1="0" x2="140.0" y2="0" style="stroke-width:2" /><g><line x1="0.0" y1="0" x2="0.0" y2="-3" style="stroke-width:2" /><line x1="70.0" y1="0" x2="70.0" y2="-3" style="stroke-width:2" /><line x1="140.0" y1="0" x2="140.0" y2="-3" style="stroke-width:2" /></g><g><g transform="translate(0.0,6)"><text x="-7.6450000000000005" y="9.410499999999999" style="fill:rgb(16.1%,15.3%,14.1%);fill-opacity:1.0;font-family:helvetica;font-size:11.0px;font-weight:normal;stroke:none;vertical-align:baseline;white-space:pre">0.0</text></g><g transform="translate(70.0,6)"><text x="-10.703000000000001" y="9.410499999999999" style="fill:rgb(16.1%,15.3%,14.1%);fill-opacity:1.0;font-family:helvetica;font-size:11.0px;font-weight:normal;stroke:none;vertical-align:baseline;white-space:pre">0.25</text></g><g transform="translate(140.0,6)"><text x="-7.6450000000000005" y="9.410499999999999" style="fill:rgb(16.1%,15.3%,14.1%);fill-opacity:1.0;font-family:helvetica;font-size:11.0px;font-weight:normal;stroke:none;vertical-align:baseline;white-space:pre">0.5</text></g></g><g class="toyplot-coordinates-Axis-coordinates" style="visibility:hidden" transform=""><line x1="0" x2="0" y1="-3.0" y2="4.5" style="stroke:rgb(43.9%,50.2%,56.5%);stroke-opacity:1.0;stroke-width:1.0" /><text x="0" y="-6" style="alignment-baseline:alphabetic;fill:rgb(43.9%,50.2%,56.5%);fill-opacity:1.0;font-size:10px;font-weight:normal;stroke:none;text-anchor:middle" /></g></g></g><g class="toyplot-mark-Text" id="t34ec61a43f764c51b312552d870848a9"><g class="toyplot-Series"><g class="toyplot-Datum" transform="translate(90.0,65.0)"><text x="-28.5835" y="-3.7895000000000003" style="fill:rgb(16.1%,15.3%,14.1%);fill-opacity:1.0;font-family:helvetica;font-size:11.0px;font-weight:bold;opacity:1;stroke:none;vertical-align:baseline;white-space:pre">Major=0.60</text><text x="-42.339000000000006" y="9.410499999999999" style="fill:rgb(16.1%,15.3%,14.1%);fill-opacity:1.0;font-family:helvetica;font-size:11.0px;font-weight:bold;opacity:1;stroke:none;vertical-align:baseline;white-space:pre">Alternative=0.40</text></g></g></g></svg>