<svg class="toyplot-canvas-Canvas" xmlns:toyplot="http://www.sandia.gov/toyplot" xmlns:xlink="http://www.w3.org/1999/xlink" xmlns="http://www.w3.org/2000/svg" width="290.0px" height="250.0px" viewBox="0 0 290.0 250.0" preserveAspectRatio="xMidYMid meet" style="background-color:transparent;border-color:#292724;border-style:none;border-width:1.0;fill:rgb(16.1%,15.3%,14.1%);fill-opacity:1.0;font-family:Helvetica;font-size:12px;opacity:1.0;stroke:rgb(16.1%,15.3%,14.1%);stroke-opacity:1.0;stroke-width:1.0" id="t838b021d9c044cc3b55ea7e2a523d0f4"><g class="toyplot-coordinates-Cartesian" id="t4d355d6cda4747f7b029ef815d123cf1"><clipPath id="tb144e2b233f04c5b8bf212a3d9ee170b"><rect x="35.0" y="35.0" width="220.0" height="180.0" /></clipPath><g clip-path="url(#tb144e2b233f04c5b8bf212a3d9ee170b)"><g class="toytree-mark-Toytree" id="t33ed8ca472684968b2794fc50b5b3f5a"><g class="toytree-Edges" style="stroke:rgb(14.5%,14.5%,14.5%);stroke-opacity:1.0;stroke-linecap:round;stroke-width:2.0;fill:none"><path d="M 178.5 66.3 L 178.5 56.6 L 199.8 56.6" id="8,0" style="" /><path d="M 178.5 66.3 L 178.5 76.1 L 199.8 76.1" id="8,1" style="" /><path d="M 157.2 81.0 L 157.2 95.7 L 199.8 95.7" id="9,2" style="" /><path d="M 135.9 98.1 L 135.9 115.2 L 199.8 115.2" id="10,3" style="" /><path d="M 114.6 116.4 L 114.6 134.8 L 199.8 134.8" id="11,4" style="" /><path d="M 93.3 135.4 L 93.3 154.3 L 199.8 154.3" id="12,5" style="" /><path d="M 72.1 154.6 L 72.1 173.9 L 199.8 173.9" id="13,6" style="" /><path d="M 50.8 174.0 L 50.8 193.4 L 199.8 193.4" id="14,7" style="" /><path d="M 157.2 81.0 L 157.2 66.3 L 178.5 66.3" id="9,8" style="" /><path d="M 135.9 98.1 L 135.9 81.0 L 157.2 81.0" id="10,9" style="" /><path d="M 114.6 116.4 L 114.6 98.1 L 135.9 98.1" id="11,10" style="" /><path d="M 93.3 135.4 L 93.3 116.4 L 114.6 116.4" id="12,11" style="" /><path d="M 72.1 154.6 L 72.1 135.4 L 93.3 135.4" id="13,12" style="" /><path d="M 50.8 174.0 L 50.8 154.6 L 72.1 154.6" id="14,13" style="" /></g><g class="toytree-AdmixEdges" style="fill:rgb(0.0%,0.0%,0.0%);fill-opacity:0.0;stroke:rgb(90.6%,54.1%,76.5%);stroke-opacity:0.6;font-size:14px;stroke-linecap:round;stroke-width:5"><path d="M 50.78 174.03 L 50.78 174.03 L 195.77 56.57 L 178.47 56.57" style="stroke:rgb(35.2%,33.1%,64.5%);stroke-opacity:0.00954;stroke-width:2" /><text x="123.28" y="127.30" style="fill:rgb(14.9%,14.9%,14.9%);fill-opacity:1.0;stroke:rgb(0.0%,0.0%,0.0%);stroke-opacity:0.00954;stroke-width:2;text-anchor:middle" /><path d="M 199.75 173.88 L 191.36 173.88 L 191.36 76.12 L 178.47 76.12" style="stroke:rgb(31.5%,38.0%,66.8%);stroke-opacity:0.0312;stroke-width:2" /><text x="191.36" y="137.00" style="fill:rgb(14.9%,14.9%,14.9%);fill-opacity:1.0;stroke:rgb(0.0%,0.0%,0.0%);stroke-opacity:0.0312;stroke-width:2;text-anchor:middle" /><path d="M 178.47 66.35 L 160.55 66.35 L 160.55 173.88 L 72.06 173.88" style="stroke:rgb(29.8%,40.2%,67.9%);stroke-opacity:0.0412;stroke-width:2" /><text x="160.55" y="132.11" style="fill:rgb(14.9%,14.9%,14.9%);fill-opacity:1.0;stroke:rgb(0.0%,0.0%,0.0%);stroke-opacity:0.0412;stroke-width:2;text-anchor:middle" /><path d="M 199.75 95.67 L 187.87 95.67 L 187.87 134.78 L 114.63 134.78" style="stroke:rgb(26.2%,44.8%,70.1%);stroke-opacity:0.0618;stroke-width:2" /><text x="187.87" y="127.22" style="fill:rgb(14.9%,14.9%,14.9%);fill-opacity:1.0;stroke:rgb(0.0%,0.0%,0.0%);stroke-opacity:0.0618;stroke-width:2;text-anchor:middle" /><path d="M 199.75 76.12 L 192.97 76.12 L 192.97 134.78 L 114.63 134.78" style="stroke:rgb(47.0%,78.8%,64.6%);stroke-opacity:0.226;stroke-width:2" /><text x="192.97" y="117.45" style="fill:rgb(14.9%,14.9%,14.9%);fill-opacity:1.0;stroke:rgb(0.0%,0.0%,0.0%);stroke-opacity:0.226;stroke-width:2;text-anchor:middle" /><path d="M 199.75 95.67 L 168.28 95.67 L 168.28 154.33 L 93.35 154.33" style="stroke:rgb(33.9%,34.8%,65.3%);stroke-opacity:0.01714;stroke-width:2" /><text x="168.28" y="137.00" style="fill:rgb(14.9%,14.9%,14.9%);fill-opacity:1.0;stroke:rgb(0.0%,0.0%,0.0%);stroke-opacity:0.01714;stroke-width:2;text-anchor:middle" /><path d="M 199.75 173.88 L 170.82 173.88 L 170.82 95.67 L 157.19 95.67" style="stroke:rgb(24.8%,46.6%,70.9%);stroke-opacity:0.0698;stroke-width:2" /><text x="170.82" y="146.78" style="fill:rgb(14.9%,14.9%,14.9%);fill-opacity:1.0;stroke:rgb(0.0%,0.0%,0.0%);stroke-opacity:0.0698;stroke-width:2;text-anchor:middle" /><path d="M 199.75 56.57 L 190.40 56.57 L 190.40 193.43 L 50.78 193.43" style="stroke:rgb(30.3%,39.5%,67.6%);stroke-opacity:0.038;stroke-width:2" /><text x="190.40" y="137.00" style="fill:rgb(14.9%,14.9%,14.9%);fill-opacity:1.0;stroke:rgb(0.0%,0.0%,0.0%);stroke-opacity:0.038;stroke-width:2;text-anchor:middle" /><path d="M 199.75 115.22 L 180.92 115.22 L 180.92 173.88 L 72.06 173.88" style="stroke:rgb(24.7%,46.8%,71.0%);stroke-opacity:0.0706;stroke-width:2" /><text x="180.92" y="156.55" style="fill:rgb(14.9%,14.9%,14.9%);fill-opacity:1.0;stroke:rgb(0.0%,0.0%,0.0%);stroke-opacity:0.0706;stroke-width:2;text-anchor:middle" /><path d="M 199.75 154.33 L 195.18 154.33 L 195.18 95.67 L 157.19 95.67" style="stroke:rgb(32.7%,36.4%,66.1%);stroke-opacity:0.0242;stroke-width:2" /><text x="195.18" y="137.00" style="fill:rgb(14.9%,14.9%,14.9%);fill-opacity:1.0;stroke:rgb(0.0%,0.0%,0.0%);stroke-opacity:0.0242;stroke-width:2;text-anchor:middle" /><path d="M 199.75 76.12 L 186.73 76.12 L 186.73 115.22 L 135.91 115.22" style="stroke:rgb(27.6%,62.2%,70.4%);stroke-opacity:0.1392;stroke-width:2" /><text x="186.73" y="107.67" style="fill:rgb(14.9%,14.9%,14.9%);fill-opacity:1.0;stroke:rgb(0.0%,0.0%,0.0%);stroke-opacity:0.1392;stroke-width:2;text-anchor:middle" /><path d="M 199.75 56.57 L 198.27 56.57 L 198.27 134.78 L 114.63 134.78" style="stroke:rgb(34.6%,33.9%,64.9%);stroke-opacity:0.01324;stroke-width:2" /><text x="198.27" y="107.67" style="fill:rgb(14.9%,14.9%,14.9%);fill-opacity:1.0;stroke:rgb(0.0%,0.0%,0.0%);stroke-opacity:0.01324;stroke-width:2;text-anchor:middle" /><path d="M 178.47 66.35 L 176.76 66.35 L 176.76 115.22 L 135.91 115.22" style="stroke:rgb(33.0%,36.0%,65.9%);stroke-opacity:0.0226;stroke-width:2" /><text x="176.76" y="102.78" style="fill:rgb(14.9%,14.9%,14.9%);fill-opacity:1.0;stroke:rgb(0.0%,0.0%,0.0%);stroke-opacity:0.0226;stroke-width:2;text-anchor:middle" /><path d="M 157.19 81.01 L 154.02 81.01 L 154.02 154.33 L 93.35 154.33" style="stroke:rgb(98.2%,61.1%,34.7%);stroke-opacity:0.728;stroke-width:2" /><text x="154.02" y="129.67" style="fill:rgb(14.9%,14.9%,14.9%);fill-opacity:1.0;stroke:rgb(0.0%,0.0%,0.0%);stroke-opacity:0.728;stroke-width:2;text-anchor:middle" /><path d="M 199.75 76.12 L 183.43 76.12 L 183.43 154.33 L 93.35 154.33" style="stroke:rgb(23.0%,57.2%,72.5%);stroke-opacity:0.1168;stroke-width:2" /><text x="183.43" y="127.22" style="fill:rgb(14.9%,14.9%,14.9%);fill-opacity:1.0;stroke:rgb(0.0%,0.0%,0.0%);stroke-opacity:0.1168;stroke-width:2;text-anchor:middle" /><path d="M 199.75 134.78 L 190.45 134.78 L 190.45 76.12 L 178.47 76.12" style="stroke:rgb(28.1%,42.4%,68.9%);stroke-opacity:0.051;stroke-width:2" /><text x="190.45" y="117.45" style="fill:rgb(14.9%,14.9%,14.9%);fill-opacity:1.0;stroke:rgb(0.0%,0.0%,0.0%);stroke-opacity:0.051;stroke-width:2;text-anchor:middle" /><path d="M 199.75 76.12 L 188.13 76.12 L 188.13 115.22 L 135.91 115.22" style="stroke:rgb(33.9%,34.9%,65.4%);stroke-opacity:0.01734;stroke-width:2" /><text x="188.13" y="107.67" style="fill:rgb(14.9%,14.9%,14.9%);fill-opacity:1.0;stroke:rgb(0.0%,0.0%,0.0%);stroke-opacity:0.01734;stroke-width:2;text-anchor:middle" /><path d="M 199.75 115.22 L 174.86 115.22 L 174.86 154.33 L 93.35 154.33" style="stroke:rgb(32.0%,37.2%,66.5%);stroke-opacity:0.028;stroke-width:2" /><text x="174.86" y="146.78" style="fill:rgb(14.9%,14.9%,14.9%);fill-opacity:1.0;stroke:rgb(0.0%,0.0%,0.0%);stroke-opacity:0.028;stroke-width:2;text-anchor:middle" /><path d="M 199.75 134.78 L 181.45 134.78 L 181.45 193.43 L 50.78 193.43" style="stroke:rgb(38.2%,74.1%,65.5%);stroke-opacity:0.1914;stroke-width:2" /><text x="181.45" y="176.10" style="fill:rgb(14.9%,14.9%,14.9%);fill-opacity:1.0;stroke:rgb(0.0%,0.0%,0.0%);stroke-opacity:0.1914;stroke-width:2;text-anchor:middle" /><path d="M 199.75 76.12 L 192.68 76.12 L 192.68 95.67 L 157.19 95.67" style="stroke:rgb(46.5%,78.6%,64.6%);stroke-opacity:0.224;stroke-width:2" /><text x="192.68" y="97.90" style="fill:rgb(14.9%,14.9%,14.9%);fill-opacity:1.0;stroke:rgb(0.0%,0.0%,0.0%);stroke-opacity:0.224;stroke-width:2;text-anchor:middle" /><path d="M 199.75 56.57 L 180.36 56.57 L 180.36 154.33 L 93.35 154.33" style="stroke:rgb(21.2%,55.1%,73.4%);stroke-opacity:0.1078;stroke-width:2" /><text x="180.36" y="117.45" style="fill:rgb(14.9%,14.9%,14.9%);fill-opacity:1.0;stroke:rgb(0.0%,0.0%,0.0%);stroke-opacity:0.1078;stroke-width:2;text-anchor:middle" /><path d="M 199.75 173.88 L 162.62 173.88 L 50.78 174.03 L 50.78 174.03" style="stroke:rgb(23.6%,48.2%,71.7%);stroke-opacity:0.077;stroke-width:2" /><text x="106.70" y="185.96" style="fill:rgb(14.9%,14.9%,14.9%);fill-opacity:1.0;stroke:rgb(0.0%,0.0%,0.0%);stroke-opacity:0.077;stroke-width:2;text-anchor:middle" /><path d="M 199.75 56.57 L 198.98 56.57 L 198.98 134.78 L 114.63 134.78" style="stroke:rgb(30.1%,65.1%,69.3%);stroke-opacity:0.1516;stroke-width:2" /><text x="198.98" y="107.67" style="fill:rgb(14.9%,14.9%,14.9%);fill-opacity:1.0;stroke:rgb(0.0%,0.0%,0.0%);stroke-opacity:0.1516;stroke-width:2;text-anchor:middle" /><path d="M 50.78 174.03 L 50.78 174.03 L 180.99 76.12 L 178.47 76.12" style="stroke:rgb(32.5%,36.6%,66.2%);stroke-opacity:0.025;stroke-width:2" /><text x="115.88" y="137.08" style="fill:rgb(14.9%,14.9%,14.9%);fill-opacity:1.0;stroke:rgb(0.0%,0.0%,0.0%);stroke-opacity:0.025;stroke-width:2;text-anchor:middle" /><path d="M 199.75 134.78 L 183.33 134.78 L 183.33 95.67 L 157.19 95.67" style="stroke:rgb(26.9%,43.9%,69.6%);stroke-opacity:0.0576;stroke-width:2" /><text x="183.33" y="127.22" style="fill:rgb(14.9%,14.9%,14.9%);fill-opacity:1.0;stroke:rgb(0.0%,0.0%,0.0%);stroke-opacity:0.0576;stroke-width:2;text-anchor:middle" /><path d="M 199.75 115.22 L 188.55 115.22 L 188.55 154.33 L 93.35 154.33" style="stroke:rgb(33.3%,35.6%,65.7%);stroke-opacity:0.0208;stroke-width:2" /><text x="188.55" y="146.78" style="fill:rgb(14.9%,14.9%,14.9%);fill-opacity:1.0;stroke:rgb(0.0%,0.0%,0.0%);stroke-opacity:0.0208;stroke-width:2;text-anchor:middle" /><path d="M 178.47 66.35 L 159.34 66.35 L 159.34 154.33 L 93.35 154.33" style="stroke:rgb(32.8%,36.3%,66.0%);stroke-opacity:0.0238;stroke-width:2" /><text x="159.34" y="122.34" style="fill:rgb(14.9%,14.9%,14.9%);fill-opacity:1.0;stroke:rgb(0.0%,0.0%,0.0%);stroke-opacity:0.0238;stroke-width:2;text-anchor:middle" /><path d="M 199.75 193.43 L 185.10 193.43 L 185.10 115.22 L 135.91 115.22" style="stroke:rgb(99.6%,88.6%,55.7%);stroke-opacity:0.594;stroke-width:2" /><text x="185.10" y="166.33" style="fill:rgb(14.9%,14.9%,14.9%);fill-opacity:1.0;stroke:rgb(0.0%,0.0%,0.0%);stroke-opacity:0.594;stroke-width:2;text-anchor:middle" /><path d="M 199.75 76.12 L 179.12 76.12 L 179.12 154.33 L 93.35 154.33" style="stroke:rgb(23.9%,47.8%,71.5%);stroke-opacity:0.0752;stroke-width:2" /><text x="179.12" y="127.22" style="fill:rgb(14.9%,14.9%,14.9%);fill-opacity:1.0;stroke:rgb(0.0%,0.0%,0.0%);stroke-opacity:0.0752;stroke-width:2;text-anchor:middle" /><path d="M 199.75 115.22 L 195.82 115.22 L 195.82 95.67 L 157.19 95.67" style="stroke:rgb(32.3%,36.9%,66.3%);stroke-opacity:0.0264;stroke-width:2" /><text x="195.82" y="117.45" style="fill:rgb(14.9%,14.9%,14.9%);fill-opacity:1.0;stroke:rgb(0.0%,0.0%,0.0%);stroke-opacity:0.0264;stroke-width:2;text-anchor:middle" /><path d="M 50.78 174.03 L 50.78 174.03 L 197.25 76.12 L 178.47 76.12" style="stroke:rgb(32.8%,36.2%,66.0%);stroke-opacity:0.0234;stroke-width:2" /><text x="124.02" y="137.08" style="fill:rgb(14.9%,14.9%,14.9%);fill-opacity:1.0;stroke:rgb(0.0%,0.0%,0.0%);stroke-opacity:0.0234;stroke-width:2;text-anchor:middle" /><path d="M 199.75 193.43 L 199.64 193.43 L 199.64 95.67 L 157.19 95.67" style="stroke:rgb(27.2%,43.5%,69.5%);stroke-opacity:0.056;stroke-width:2" /><text x="199.64" y="156.55" style="fill:rgb(14.9%,14.9%,14.9%);fill-opacity:1.0;stroke:rgb(0.0%,0.0%,0.0%);stroke-opacity:0.056;stroke-width:2;text-anchor:middle" /><path d="M 199.75 56.57 L 187.50 56.57 L 187.50 154.33 L 93.35 154.33" style="stroke:rgb(36.1%,71.8%,66.5%);stroke-opacity:0.181;stroke-width:2" /><text x="187.50" y="117.45" style="fill:rgb(14.9%,14.9%,14.9%);fill-opacity:1.0;stroke:rgb(0.0%,0.0%,0.0%);stroke-opacity:0.181;stroke-width:2;text-anchor:middle" /><path d="M 114.63 116.45 L 113.02 116.45 L 113.02 193.43 L 50.78 193.43" style="stroke:rgb(30.8%,38.8%,67.3%);stroke-opacity:0.0352;stroke-width:2" /><text x="113.02" y="166.94" style="fill:rgb(14.9%,14.9%,14.9%);fill-opacity:1.0;stroke:rgb(0.0%,0.0%,0.0%);stroke-opacity:0.0352;stroke-width:2;text-anchor:middle" /><path d="M 199.75 56.57 L 199.05 56.57 L 199.05 115.22 L 135.91 115.22" style="stroke:rgb(48.1%,79.3%,64.6%);stroke-opacity:0.23;stroke-width:2" /><text x="199.05" y="97.90" style="fill:rgb(14.9%,14.9%,14.9%);fill-opacity:1.0;stroke:rgb(0.0%,0.0%,0.0%);stroke-opacity:0.23;stroke-width:2;text-anchor:middle" /><path d="M 199.75 56.57 L 185.97 56.57 L 185.97 134.78 L 114.63 134.78" style="stroke:rgb(31.9%,67.1%,68.4%);stroke-opacity:0.1604;stroke-width:2" /><text x="185.97" y="107.67" style="fill:rgb(14.9%,14.9%,14.9%);fill-opacity:1.0;stroke:rgb(0.0%,0.0%,0.0%);stroke-opacity:0.1604;stroke-width:2;text-anchor:middle" /><path d="M 199.75 56.57 L 193.84 56.57 L 193.84 115.22 L 135.91 115.22" style="stroke:rgb(60.0%,83.9%,64.4%);stroke-opacity:0.274;stroke-width:2" /><text x="193.84" y="97.90" style="fill:rgb(14.9%,14.9%,14.9%);fill-opacity:1.0;stroke:rgb(0.0%,0.0%,0.0%);stroke-opacity:0.274;stroke-width:2;text-anchor:middle" /><path d="M 178.47 66.35 L 161.78 66.35 L 161.78 154.33 L 93.35 154.33" style="stroke:rgb(54.1%,81.6%,64.5%);stroke-opacity:0.252;stroke-width:2" /><text x="161.78" y="122.34" style="fill:rgb(14.9%,14.9%,14.9%);fill-opacity:1.0;stroke:rgb(0.0%,0.0%,0.0%);stroke-opacity:0.252;stroke-width:2;text-anchor:middle" /><path d="M 199.75 95.67 L 191.92 95.67 L 191.92 173.88 L 72.06 173.88" style="stroke:rgb(22.0%,50.2%,72.7%);stroke-opacity:0.0862;stroke-width:2" /><text x="191.92" y="146.78" style="fill:rgb(14.9%,14.9%,14.9%);fill-opacity:1.0;stroke:rgb(0.0%,0.0%,0.0%);stroke-opacity:0.0862;stroke-width:2;text-anchor:middle" /><path d="M 199.75 193.43 L 188.43 193.43 L 50.78 174.03 L 50.78 174.03" style="stroke:rgb(27.8%,42.8%,69.1%);stroke-opacity:0.0528;stroke-width:2" /><text x="119.61" y="195.73" style="fill:rgb(14.9%,14.9%,14.9%);fill-opacity:1.0;stroke:rgb(0.0%,0.0%,0.0%);stroke-opacity:0.0528;stroke-width:2;text-anchor:middle" /><path d="M 199.75 154.33 L 162.24 154.33 L 162.24 95.67 L 157.19 95.67" style="stroke:rgb(40.5%,76.3%,64.7%);stroke-opacity:0.202;stroke-width:2" /><text x="162.24" y="137.00" style="fill:rgb(14.9%,14.9%,14.9%);fill-opacity:1.0;stroke:rgb(0.0%,0.0%,0.0%);stroke-opacity:0.202;stroke-width:2;text-anchor:middle" /><path d="M 199.75 115.22 L 185.56 115.22 L 185.56 76.12 L 178.47 76.12" style="stroke:rgb(33.4%,35.4%,65.6%);stroke-opacity:0.01982;stroke-width:2" /><text x="185.56" y="107.67" style="fill:rgb(14.9%,14.9%,14.9%);fill-opacity:1.0;stroke:rgb(0.0%,0.0%,0.0%);stroke-opacity:0.01982;stroke-width:2;text-anchor:middle" /><path d="M 178.47 66.35 L 173.45 66.35 L 173.45 193.43 L 50.78 193.43" style="stroke:rgb(24.1%,58.3%,72.1%);stroke-opacity:0.1218;stroke-width:2" /><text x="173.45" y="141.89" style="fill:rgb(14.9%,14.9%,14.9%);fill-opacity:1.0;stroke:rgb(0.0%,0.0%,0.0%);stroke-opacity:0.1218;stroke-width:2;text-anchor:middle" /><path d="M 199.75 173.88 L 168.24 173.88 L 168.24 134.78 L 114.63 134.78" style="stroke:rgb(99.2%,69.0%,38.7%);stroke-opacity:0.696;stroke-width:2" /><text x="168.24" y="166.33" style="fill:rgb(14.9%,14.9%,14.9%);fill-opacity:1.0;stroke:rgb(0.0%,0.0%,0.0%);stroke-opacity:0.696;stroke-width:2;text-anchor:middle" /><path d="M 199.75 56.57 L 183.28 56.57 L 183.28 134.78 L 114.63 134.78" style="stroke:rgb(22.3%,49.8%,72.4%);stroke-opacity:0.0842;stroke-width:2" /><text x="183.28" y="107.67" style="fill:rgb(14.9%,14.9%,14.9%);fill-opacity:1.0;stroke:rgb(0.0%,0.0%,0.0%);stroke-opacity:0.0842;stroke-width:2;text-anchor:middle" /><path d="M 199.75 76.12 L 198.07 76.12 L 198.07 154.33 L 93.35 154.33" style="stroke:rgb(24.1%,58.3%,72.1%);stroke-opacity:0.1218;stroke-width:2" /><text x="198.07" y="127.22" style="fill:rgb(14.9%,14.9%,14.9%);fill-opacity:1.0;stroke:rgb(0.0%,0.0%,0.0%);stroke-opacity:0.1218;stroke-width:2;text-anchor:middle" /><path d="M 199.75 76.12 L 192.60 76.12 L 192.60 134.78 L 114.63 134.78" style="stroke:rgb(33.9%,69.3%,67.5%);stroke-opacity:0.1702;stroke-width:2" /><text x="192.60" y="117.45" style="fill:rgb(14.9%,14.9%,14.9%);fill-opacity:1.0;stroke:rgb(0.0%,0.0%,0.0%);stroke-opacity:0.1702;stroke-width:2;text-anchor:middle" /><path d="M 199.75 56.57 L 197.40 56.57 L 197.40 115.22 L 135.91 115.22" style="stroke:rgb(29.2%,40.9%,68.2%);stroke-opacity:0.0444;stroke-width:2" /><text x="197.40" y="97.90" style="fill:rgb(14.9%,14.9%,14.9%);fill-opacity:1.0;stroke:rgb(0.0%,0.0%,0.0%);stroke-opacity:0.0444;stroke-width:2;text-anchor:middle" /><path d="M 199.75 56.57 L 188.21 56.57 L 188.21 154.33 L 93.35 154.33" style="stroke:rgb(20.6%,54.4%,73.7%);stroke-opacity:0.1048;stroke-width:2" /><text x="188.21" y="117.45" style="fill:rgb(14.9%,14.9%,14.9%);fill-opacity:1.0;stroke:rgb(0.0%,0.0%,0.0%);stroke-opacity:0.1048;stroke-width:2;text-anchor:middle" /><path d="M 199.75 173.88 L 133.87 173.88 L 133.87 134.78 L 114.63 134.78" style="stroke:rgb(99.1%,67.7%,37.8%);stroke-opacity:0.702;stroke-width:2" /><text x="133.87" y="166.33" style="fill:rgb(14.9%,14.9%,14.9%);fill-opacity:1.0;stroke:rgb(0.0%,0.0%,0.0%);stroke-opacity:0.702;stroke-width:2;text-anchor:middle" /><path d="M 199.75 115.22 L 177.14 115.22 L 177.14 193.43 L 50.78 193.43" style="stroke:rgb(24.1%,47.5%,71.4%);stroke-opacity:0.074;stroke-width:2" /><text x="177.14" y="166.33" style="fill:rgb(14.9%,14.9%,14.9%);fill-opacity:1.0;stroke:rgb(0.0%,0.0%,0.0%);stroke-opacity:0.074;stroke-width:2;text-anchor:middle" /><path d="M 50.78 174.03 L 50.78 174.03 L 195.53 115.22 L 135.91 115.22" style="stroke:rgb(33.9%,34.9%,65.4%);stroke-opacity:0.01742;stroke-width:2" /><text x="123.16" y="156.63" style="fill:rgb(14.9%,14.9%,14.9%);fill-opacity:1.0;stroke:rgb(0.0%,0.0%,0.0%);stroke-opacity:0.01742;stroke-width:2;text-anchor:middle" /><path d="M 178.47 66.35 L 173.85 66.35 L 173.85 154.33 L 93.35 154.33" style="stroke:rgb(27.9%,62.6%,70.3%);stroke-opacity:0.1406;stroke-width:2" /><text x="173.85" y="122.34" style="fill:rgb(14.9%,14.9%,14.9%);fill-opacity:1.0;stroke:rgb(0.0%,0.0%,0.0%);stroke-opacity:0.1406;stroke-width:2;text-anchor:middle" /><path d="M 199.75 56.57 L 182.40 56.57 L 182.40 115.22 L 135.91 115.22" style="stroke:rgb(21.9%,50.4%,72.7%);stroke-opacity:0.087;stroke-width:2" /><text x="182.40" y="97.90" style="fill:rgb(14.9%,14.9%,14.9%);fill-opacity:1.0;stroke:rgb(0.0%,0.0%,0.0%);stroke-opacity:0.087;stroke-width:2;text-anchor:middle" /><path d="M 50.78 174.03 L 50.78 174.03 L 197.14 56.57 L 178.47 56.57" style="stroke:rgb(32.0%,37.3%,66.5%);stroke-opacity:0.0284;stroke-width:2" /><text x="123.96" y="127.30" style="fill:rgb(14.9%,14.9%,14.9%);fill-opacity:1.0;stroke:rgb(0.0%,0.0%,0.0%);stroke-opacity:0.0284;stroke-width:2;text-anchor:middle" /><path d="M 199.75 76.12 L 181.38 76.12 L 181.38 134.78 L 114.63 134.78" style="stroke:rgb(38.8%,74.8%,65.3%);stroke-opacity:0.1942;stroke-width:2" /><text x="181.38" y="117.45" style="fill:rgb(14.9%,14.9%,14.9%);fill-opacity:1.0;stroke:rgb(0.0%,0.0%,0.0%);stroke-opacity:0.1942;stroke-width:2;text-anchor:middle" /><path d="M 199.75 115.22 L 182.17 115.22 L 50.78 174.03 L 50.78 174.03" style="stroke:rgb(97.1%,52.9%,31.0%);stroke-opacity:0.76;stroke-width:2" /><text x="116.48" y="156.63" style="fill:rgb(14.9%,14.9%,14.9%);fill-opacity:1.0;stroke:rgb(0.0%,0.0%,0.0%);stroke-opacity:0.76;stroke-width:2;text-anchor:middle" /><path d="M 199.75 56.57 L 180.86 56.57 L 180.86 115.22 L 135.91 115.22" style="stroke:rgb(33.6%,68.9%,67.7%);stroke-opacity:0.1684;stroke-width:2" /><text x="180.86" y="97.90" style="fill:rgb(14.9%,14.9%,14.9%);fill-opacity:1.0;stroke:rgb(0.0%,0.0%,0.0%);stroke-opacity:0.1684;stroke-width:2;text-anchor:middle" /><path d="M 199.75 115.22 L 189.07 115.22 L 189.07 173.88 L 72.06 173.88" style="stroke:rgb(27.8%,42.8%,69.1%);stroke-opacity:0.0528;stroke-width:2" /><text x="189.07" y="156.55" style="fill:rgb(14.9%,14.9%,14.9%);fill-opacity:1.0;stroke:rgb(0.0%,0.0%,0.0%);stroke-opacity:0.0528;stroke-width:2;text-anchor:middle" /><path d="M 157.19 81.01 L 155.28 81.01 L 155.28 193.43 L 50.78 193.43" style="stroke:rgb(22.2%,56.2%,72.9%);stroke-opacity:0.1126;stroke-width:2" /><text x="155.28" y="149.22" style="fill:rgb(14.9%,14.9%,14.9%);fill-opacity:1.0;stroke:rgb(0.0%,0.0%,0.0%);stroke-opacity:0.1126;stroke-width:2;text-anchor:middle" /><path d="M 199.75 56.57 L 187.21 56.57 L 187.21 115.22 L 135.91 115.22" style="stroke:rgb(19.6%,53.4%,74.1%);stroke-opacity:0.1002;stroke-width:2" /><text x="187.21" y="97.90" style="fill:rgb(14.9%,14.9%,14.9%);fill-opacity:1.0;stroke:rgb(0.0%,0.0%,0.0%);stroke-opacity:0.1002;stroke-width:2;text-anchor:middle" /><path d="M 199.75 173.88 L 182.62 173.88 L 182.62 76.12 L 178.47 76.12" style="stroke:rgb(30.9%,38.8%,67.2%);stroke-opacity:0.0348;stroke-width:2" /><text x="182.62" y="137.00" style="fill:rgb(14.9%,14.9%,14.9%);fill-opacity:1.0;stroke:rgb(0.0%,0.0%,0.0%);stroke-opacity:0.0348;stroke-width:2;text-anchor:middle" /><path d="M 199.75 134.78 L 159.12 134.78 L 159.12 95.67 L 157.19 95.67" style="stroke:rgb(21.9%,50.4%,72.7%);stroke-opacity:0.087;stroke-width:2" /><text x="159.12" y="127.22" style="fill:rgb(14.9%,14.9%,14.9%);fill-opacity:1.0;stroke:rgb(0.0%,0.0%,0.0%);stroke-opacity:0.087;stroke-width:2;text-anchor:middle" /><path d="M 199.75 56.57 L 193.89 56.57 L 193.89 154.33 L 93.35 154.33" style="stroke:rgb(25.0%,59.3%,71.7%);stroke-opacity:0.1262;stroke-width:2" /><text x="193.89" y="117.45" style="fill:rgb(14.9%,14.9%,14.9%);fill-opacity:1.0;stroke:rgb(0.0%,0.0%,0.0%);stroke-opacity:0.1262;stroke-width:2;text-anchor:middle" /><path d="M 199.75 56.57 L 183.11 56.57 L 183.11 95.67 L 157.19 95.67" style="stroke:rgb(48.1%,79.3%,64.6%);stroke-opacity:0.23;stroke-width:2" /><text x="183.11" y="88.12" style="fill:rgb(14.9%,14.9%,14.9%);fill-opacity:1.0;stroke:rgb(0.0%,0.0%,0.0%);stroke-opacity:0.23;stroke-width:2;text-anchor:middle" /><path d="M 50.78 174.03 L 50.78 174.03 L 198.83 56.57 L 178.47 56.57" style="stroke:rgb(27.2%,43.5%,69.5%);stroke-opacity:0.0562;stroke-width:2" /><text x="124.81" y="127.30" style="fill:rgb(14.9%,14.9%,14.9%);fill-opacity:1.0;stroke:rgb(0.0%,0.0%,0.0%);stroke-opacity:0.0562;stroke-width:2;text-anchor:middle" /><path d="M 199.75 134.78 L 136.52 134.78 L 136.52 193.43 L 50.78 193.43" style="stroke:rgb(25.2%,46.1%,70.7%);stroke-opacity:0.0676;stroke-width:2" /><text x="136.52" y="176.10" style="fill:rgb(14.9%,14.9%,14.9%);fill-opacity:1.0;stroke:rgb(0.0%,0.0%,0.0%);stroke-opacity:0.0676;stroke-width:2;text-anchor:middle" /><path d="M 199.75 173.88 L 186.94 173.88 L 186.94 56.57 L 178.47 56.57" style="stroke:rgb(30.7%,39.0%,67.3%);stroke-opacity:0.0358;stroke-width:2" /><text x="186.94" y="127.22" style="fill:rgb(14.9%,14.9%,14.9%);fill-opacity:1.0;stroke:rgb(0.0%,0.0%,0.0%);stroke-opacity:0.0358;stroke-width:2;text-anchor:middle" /><path d="M 199.75 193.43 L 166.40 193.43 L 166.40 115.22 L 135.91 115.22" style="stroke:rgb(74.9%,89.9%,62.7%);stroke-opacity:0.334;stroke-width:2" /><text x="166.40" y="166.33" style="fill:rgb(14.9%,14.9%,14.9%);fill-opacity:1.0;stroke:rgb(0.0%,0.0%,0.0%);stroke-opacity:0.334;stroke-width:2;text-anchor:middle" /><path d="M 199.75 154.33 L 148.07 154.33 L 148.07 173.88 L 72.06 173.88" style="stroke:rgb(27.4%,43.3%,69.4%);stroke-opacity:0.055;stroke-width:2" /><text x="148.07" y="176.10" style="fill:rgb(14.9%,14.9%,14.9%);fill-opacity:1.0;stroke:rgb(0.0%,0.0%,0.0%);stroke-opacity:0.055;stroke-width:2;text-anchor:middle" /><path d="M 199.75 95.67 L 167.41 95.67 L 167.41 154.33 L 93.35 154.33" style="stroke:rgb(94.1%,97.6%,65.7%);stroke-opacity:0.44;stroke-width:2" /><text x="167.41" y="137.00" style="fill:rgb(14.9%,14.9%,14.9%);fill-opacity:1.0;stroke:rgb(0.0%,0.0%,0.0%);stroke-opacity:0.44;stroke-width:2;text-anchor:middle" /><path d="M 50.78 174.03 L 50.78 174.03 L 185.60 76.12 L 178.47 76.12" style="stroke:rgb(27.4%,43.2%,69.3%);stroke-opacity:0.0548;stroke-width:2" /><text x="118.19" y="137.08" style="fill:rgb(14.9%,14.9%,14.9%);fill-opacity:1.0;stroke:rgb(0.0%,0.0%,0.0%);stroke-opacity:0.0548;stroke-width:2;text-anchor:middle" /><path d="M 199.75 76.12 L 199.31 76.12 L 199.31 95.67 L 157.19 95.67" style="stroke:rgb(29.3%,64.1%,69.7%);stroke-opacity:0.1474;stroke-width:2" /><text x="199.31" y="97.90" style="fill:rgb(14.9%,14.9%,14.9%);fill-opacity:1.0;stroke:rgb(0.0%,0.0%,0.0%);stroke-opacity:0.1474;stroke-width:2;text-anchor:middle" /><path d="M 199.75 134.78 L 180.52 134.78 L 180.52 95.67 L 157.19 95.67" style="stroke:rgb(25.3%,46.0%,70.6%);stroke-opacity:0.067;stroke-width:2" /><text x="180.52" y="127.22" style="fill:rgb(14.9%,14.9%,14.9%);fill-opacity:1.0;stroke:rgb(0.0%,0.0%,0.0%);stroke-opacity:0.067;stroke-width:2;text-anchor:middle" /><path d="M 199.75 56.57 L 185.76 56.57 L 50.78 174.03 L 50.78 174.03" style="stroke:rgb(59.5%,83.7%,64.4%);stroke-opacity:0.272;stroke-width:2" /><text x="118.27" y="127.30" style="fill:rgb(14.9%,14.9%,14.9%);fill-opacity:1.0;stroke:rgb(0.0%,0.0%,0.0%);stroke-opacity:0.272;stroke-width:2;text-anchor:middle" /><path d="M 199.75 76.12 L 179.62 76.12 L 179.62 134.78 L 114.63 134.78" style="stroke:rgb(24.5%,58.8%,71.8%);stroke-opacity:0.1242;stroke-width:2" /><text x="179.62" y="117.45" style="fill:rgb(14.9%,14.9%,14.9%);fill-opacity:1.0;stroke:rgb(0.0%,0.0%,0.0%);stroke-opacity:0.1242;stroke-width:2;text-anchor:middle" /><path d="M 178.47 66.35 L 164.62 66.35 L 164.62 154.33 L 93.35 154.33" style="stroke:rgb(48.1%,79.3%,64.6%);stroke-opacity:0.23;stroke-width:2" /><text x="164.62" y="122.34" style="fill:rgb(14.9%,14.9%,14.9%);fill-opacity:1.0;stroke:rgb(0.0%,0.0%,0.0%);stroke-opacity:0.23;stroke-width:2;text-anchor:middle" /><path d="M 199.75 115.22 L 182.58 115.22 L 182.58 76.12 L 178.47 76.12" style="stroke:rgb(31.9%,37.5%,66.6%);stroke-opacity:0.029;stroke-width:2" /><text x="182.58" y="107.67" style="fill:rgb(14.9%,14.9%,14.9%);fill-opacity:1.0;stroke:rgb(0.0%,0.0%,0.0%);stroke-opacity:0.029;stroke-width:2;text-anchor:middle" /><path d="M 199.75 56.57 L 197.19 56.57 L 197.19 154.33 L 93.35 154.33" style="stroke:rgb(21.1%,51.4%,73.2%);stroke-opacity:0.0912;stroke-width:2" /><text x="197.19" y="117.45" style="fill:rgb(14.9%,14.9%,14.9%);fill-opacity:1.0;stroke:rgb(0.0%,0.0%,0.0%);stroke-opacity:0.0912;stroke-width:2;text-anchor:middle" /><path d="M 50.78 174.03 L 50.78 174.03 L 188.71 76.12 L 178.47 76.12" style="stroke:rgb(32.7%,36.4%,66.1%);stroke-opacity:0.0242;stroke-width:2" /><text x="119.75" y="137.08" style="fill:rgb(14.9%,14.9%,14.9%);fill-opacity:1.0;stroke:rgb(0.0%,0.0%,0.0%);stroke-opacity:0.0242;stroke-width:2;text-anchor:middle" /><path d="M 199.75 193.43 L 187.93 193.43 L 187.93 56.57 L 178.47 56.57" style="stroke:rgb(34.8%,33.7%,64.8%);stroke-opacity:0.01204;stroke-width:2" /><text x="187.93" y="137.00" style="fill:rgb(14.9%,14.9%,14.9%);fill-opacity:1.0;stroke:rgb(0.0%,0.0%,0.0%);stroke-opacity:0.01204;stroke-width:2;text-anchor:middle" /><path d="M 199.75 95.67 L 172.87 95.67 L 172.87 173.88 L 72.06 173.88" style="stroke:rgb(20.7%,54.6%,73.6%);stroke-opacity:0.1056;stroke-width:2" /><text x="172.87" y="146.78" style="fill:rgb(14.9%,14.9%,14.9%);fill-opacity:1.0;stroke:rgb(0.0%,0.0%,0.0%);stroke-opacity:0.1056;stroke-width:2;text-anchor:middle" /><path d="M 199.75 76.12 L 193.41 76.12 L 193.41 154.33 L 93.35 154.33" style="stroke:rgb(32.9%,36.2%,66.0%);stroke-opacity:0.0232;stroke-width:2" /><text x="193.41" y="127.22" style="fill:rgb(14.9%,14.9%,14.9%);fill-opacity:1.0;stroke:rgb(0.0%,0.0%,0.0%);stroke-opacity:0.0232;stroke-width:2;text-anchor:middle" /><path d="M 50.78 174.03 L 50.78 174.03 L 188.34 95.67 L 157.19 95.67" style="stroke:rgb(26.9%,43.9%,69.6%);stroke-opacity:0.0578;stroke-width:2" /><text x="119.56" y="146.85" style="fill:rgb(14.9%,14.9%,14.9%);fill-opacity:1.0;stroke:rgb(0.0%,0.0%,0.0%);stroke-opacity:0.0578;stroke-width:2;text-anchor:middle" /><path d="M 199.75 95.67 L 193.81 95.67 L 193.81 56.57 L 178.47 56.57" style="stroke:rgb(21.6%,55.6%,73.2%);stroke-opacity:0.11;stroke-width:2" /><text x="193.81" y="88.12" style="fill:rgb(14.9%,14.9%,14.9%);fill-opacity:1.0;stroke:rgb(0.0%,0.0%,0.0%);stroke-opacity:0.11;stroke-width:2;text-anchor:middle" /><path d="M 178.47 66.35 L 159.94 66.35 L 159.94 173.88 L 72.06 173.88" style="stroke:rgb(24.3%,47.3%,71.2%);stroke-opacity:0.0728;stroke-width:2" /><text x="159.94" y="132.11" style="fill:rgb(14.9%,14.9%,14.9%);fill-opacity:1.0;stroke:rgb(0.0%,0.0%,0.0%);stroke-opacity:0.0728;stroke-width:2;text-anchor:middle" /><path d="M 199.75 76.12 L 190.56 76.12 L 190.56 154.33 L 93.35 154.33" style="stroke:rgb(23.0%,49.0%,72.0%);stroke-opacity:0.0804;stroke-width:2" /><text x="190.56" y="127.22" style="fill:rgb(14.9%,14.9%,14.9%);fill-opacity:1.0;stroke:rgb(0.0%,0.0%,0.0%);stroke-opacity:0.0804;stroke-width:2;text-anchor:middle" /><path d="M 199.75 154.33 L 198.80 154.33 L 198.80 76.12 L 178.47 76.12" style="stroke:rgb(29.4%,40.6%,68.1%);stroke-opacity:0.0432;stroke-width:2" /><text x="198.80" y="127.22" style="fill:rgb(14.9%,14.9%,14.9%);fill-opacity:1.0;stroke:rgb(0.0%,0.0%,0.0%);stroke-opacity:0.0432;stroke-width:2;text-anchor:middle" /><path d="M 50.78 174.03 L 50.78 174.03 L 161.13 115.22 L 135.91 115.22" style="stroke:rgb(29.9%,40.1%,67.8%);stroke-opacity:0.0406;stroke-width:2" /><text x="105.96" y="156.63" style="fill:rgb(14.9%,14.9%,14.9%);fill-opacity:1.0;stroke:rgb(0.0%,0.0%,0.0%);stroke-opacity:0.0406;stroke-width:2;text-anchor:middle" /><path d="M 199.75 76.12 L 194.55 76.12 L 194.55 193.43 L 50.78 193.43" style="stroke:rgb(24.7%,46.7%,71.0%);stroke-opacity:0.0702;stroke-width:2" /><text x="194.55" y="146.78" style="fill:rgb(14.9%,14.9%,14.9%);fill-opacity:1.0;stroke:rgb(0.0%,0.0%,0.0%);stroke-opacity:0.0702;stroke-width:2;text-anchor:middle" /><path d="M 199.75 134.78 L 153.19 134.78 L 153.19 173.88 L 72.06 173.88" style="stroke:rgb(26.0%,60.4%,71.2%);stroke-opacity:0.1312;stroke-width:2" /><text x="153.19" y="166.33" style="fill:rgb(14.9%,14.9%,14.9%);fill-opacity:1.0;stroke:rgb(0.0%,0.0%,0.0%);stroke-opacity:0.1312;stroke-width:2;text-anchor:middle" /><path d="M 178.47 66.35 L 169.84 66.35 L 50.78 174.03 L 50.78 174.03" style="stroke:rgb(73.1%,89.1%,63.1%);stroke-opacity:0.326;stroke-width:2" /><text x="110.31" y="132.19" style="fill:rgb(14.9%,14.9%,14.9%);fill-opacity:1.0;stroke:rgb(0.0%,0.0%,0.0%);stroke-opacity:0.326;stroke-width:2;text-anchor:middle" /><path d="M 157.19 81.01 L 142.01 81.01 L 142.01 154.33 L 93.35 154.33" style="stroke:rgb(32.8%,36.3%,66.0%);stroke-opacity:0.0236;stroke-width:2" /><text x="142.01" y="129.67" style="fill:rgb(14.9%,14.9%,14.9%);fill-opacity:1.0;stroke:rgb(0.0%,0.0%,0.0%);stroke-opacity:0.0236;stroke-width:2;text-anchor:middle" /><path d="M 199.75 173.88 L 199.68 173.88 L 199.68 76.12 L 178.47 76.12" style="stroke:rgb(33.9%,34.8%,65.3%);stroke-opacity:0.01718;stroke-width:2" /><text x="199.68" y="137.00" style="fill:rgb(14.9%,14.9%,14.9%);fill-opacity:1.0;stroke:rgb(0.0%,0.0%,0.0%);stroke-opacity:0.01718;stroke-width:2;text-anchor:middle" /><path d="M 199.75 115.22 L 168.99 115.22 L 168.99 134.78 L 114.63 134.78" style="stroke:rgb(34.9%,33.6%,64.7%);stroke-opacity:0.01152;stroke-width:2" /><text x="168.99" y="137.00" style="fill:rgb(14.9%,14.9%,14.9%);fill-opacity:1.0;stroke:rgb(0.0%,0.0%,0.0%);stroke-opacity:0.01152;stroke-width:2;text-anchor:middle" /><path d="M 199.75 56.57 L 188.02 56.57 L 188.02 115.22 L 135.91 115.22" style="stroke:rgb(22.8%,56.9%,72.6%);stroke-opacity:0.1156;stroke-width:2" /><text x="188.02" y="97.90" style="fill:rgb(14.9%,14.9%,14.9%);fill-opacity:1.0;stroke:rgb(0.0%,0.0%,0.0%);stroke-opacity:0.1156;stroke-width:2;text-anchor:middle" /><path d="M 199.75 134.78 L 182.12 134.78 L 182.12 154.33 L 93.35 154.33" style="stroke:rgb(31.8%,37.6%,66.6%);stroke-opacity:0.0294;stroke-width:2" /><text x="182.12" y="156.55" style="fill:rgb(14.9%,14.9%,14.9%);fill-opacity:1.0;stroke:rgb(0.0%,0.0%,0.0%);stroke-opacity:0.0294;stroke-width:2;text-anchor:middle" /><path d="M 50.78 174.03 L 50.78 174.03 L 181.70 56.57 L 178.47 56.57" style="stroke:rgb(24.4%,47.1%,71.2%);stroke-opacity:0.072;stroke-width:2" /><text x="116.24" y="127.30" style="fill:rgb(14.9%,14.9%,14.9%);fill-opacity:1.0;stroke:rgb(0.0%,0.0%,0.0%);stroke-opacity:0.072;stroke-width:2;text-anchor:middle" /><path d="M 199.75 95.67 L 175.75 95.67 L 175.75 154.33 L 93.35 154.33" style="stroke:rgb(34.2%,34.4%,65.2%);stroke-opacity:0.01532;stroke-width:2" /><text x="175.75" y="137.00" style="fill:rgb(14.9%,14.9%,14.9%);fill-opacity:1.0;stroke:rgb(0.0%,0.0%,0.0%);stroke-opacity:0.01532;stroke-width:2;text-anchor:middle" /><path d="M 50.78 174.03 L 50.78 174.03 L 199.57 56.57 L 178.47 56.57" style="stroke:rgb(32.2%,37.0%,66.4%);stroke-opacity:0.0268;stroke-width:2" /><text x="125.18" y="127.30" style="fill:rgb(14.9%,14.9%,14.9%);fill-opacity:1.0;stroke:rgb(0.0%,0.0%,0.0%);stroke-opacity:0.0268;stroke-width:2;text-anchor:middle" /><path d="M 199.75 115.22 L 178.10 115.22 L 178.10 193.43 L 50.78 193.43" style="stroke:rgb(30.6%,65.6%,69.1%);stroke-opacity:0.1538;stroke-width:2" /><text x="178.10" y="166.33" style="fill:rgb(14.9%,14.9%,14.9%);fill-opacity:1.0;stroke:rgb(0.0%,0.0%,0.0%);stroke-opacity:0.1538;stroke-width:2;text-anchor:middle" /><path d="M 199.75 76.12 L 183.94 76.12 L 183.94 115.22 L 135.91 115.22" style="stroke:rgb(20.9%,54.8%,73.5%);stroke-opacity:0.1064;stroke-width:2" /><text x="183.94" y="107.67" style="fill:rgb(14.9%,14.9%,14.9%);fill-opacity:1.0;stroke:rgb(0.0%,0.0%,0.0%);stroke-opacity:0.1064;stroke-width:2;text-anchor:middle" /><path d="M 50.78 174.03 L 50.78 174.03 L 194.49 76.12 L 178.47 76.12" style="stroke:rgb(24.2%,47.4%,71.3%);stroke-opacity:0.0736;stroke-width:2" /><text x="122.64" y="137.08" style="fill:rgb(14.9%,14.9%,14.9%);fill-opacity:1.0;stroke:rgb(0.0%,0.0%,0.0%);stroke-opacity:0.0736;stroke-width:2;text-anchor:middle" /><path d="M 199.75 173.88 L 177.03 173.88 L 50.78 174.03 L 50.78 174.03" style="stroke:rgb(25.4%,45.9%,70.6%);stroke-opacity:0.0666;stroke-width:2" /><text x="113.91" y="185.96" style="fill:rgb(14.9%,14.9%,14.9%);fill-opacity:1.0;stroke:rgb(0.0%,0.0%,0.0%);stroke-opacity:0.0666;stroke-width:2;text-anchor:middle" /><path d="M 199.75 154.33 L 174.70 154.33 L 50.78 174.03 L 50.78 174.03" style="stroke:rgb(26.8%,61.3%,70.8%);stroke-opacity:0.1352;stroke-width:2" /><text x="112.74" y="176.18" style="fill:rgb(14.9%,14.9%,14.9%);fill-opacity:1.0;stroke:rgb(0.0%,0.0%,0.0%);stroke-opacity:0.1352;stroke-width:2;text-anchor:middle" /></g><g class="toytree-Nodes" style="fill:rgb(40.0%,76.1%,64.7%);fill-opacity:1.0;stroke:rgb(14.9%,14.9%,14.9%);stroke-opacity:1.0;stroke-width:1.5" /><g class="toytree-TipLabels" style="fill:rgb(14.5%,14.5%,14.5%);fill-opacity:1.0;font-family:Helvetica;font-size:12px;font-weight:300;vertical-align:baseline;white-space:pre;stroke:none"><g class="toytree-TipLabel" transform="translate(199.751,56.5693)"><text x="15.0" y="3.066" style="fill:rgb(14.5%,14.5%,14.5%);fill-opacity:1.0">r0</text></g><g class="toytree-TipLabel" transform="translate(199.751,76.121)"><text x="15.0" y="3.066" style="fill:rgb(14.5%,14.5%,14.5%);fill-opacity:1.0">r1</text></g><g class="toytree-TipLabel" transform="translate(199.751,95.6726)"><text x="15.0" y="3.066" style="fill:rgb(14.5%,14.5%,14.5%);fill-opacity:1.0">r2</text></g><g class="toytree-TipLabel" transform="translate(199.751,115.224)"><text x="15.0" y="3.066" style="fill:rgb(14.5%,14.5%,14.5%);fill-opacity:1.0">r3</text></g><g class="toytree-TipLabel" transform="translate(199.751,134.776)"><text x="15.0" y="3.066" style="fill:rgb(14.5%,14.5%,14.5%);fill-opacity:1.0">r4</text></g><g class="toytree-TipLabel" transform="translate(199.751,154.327)"><text x="15.0" y="3.066" style="fill:rgb(14.5%,14.5%,14.5%);fill-opacity:1.0">r5</text></g><g class="toytree-TipLabel" transform="translate(199.751,173.879)"><text x="15.0" y="3.066" style="fill:rgb(14.5%,14.5%,14.5%);fill-opacity:1.0">r6</text></g><g class="toytree-TipLabel" transform="translate(199.751,193.431)"><text x="15.0" y="3.066" style="fill:rgb(14.5%,14.5%,14.5%);fill-opacity:1.0">r7</text></g></g></g></g></g><g class="toyplot-coordinates-Numberline" id="t2d2089b2cd4741c38d18b98f544df782"><clipPath id="t0ab97bc202a54fddafe19cb5245fb866"><rect x="0" y="-20.0" width="140.0" height="40.0" /></clipPath><g clip-path="url(#t0ab97bc202a54fddafe19cb5245fb866)" transform="translate(250.0,195.0)rotate(-90.0)"><g class="toyplot-color-Map" id="t8cc652290f304852a499d94af23df42a"><defs><linearGradient id="t9a7e99e0da4047379194673a144c80b5" x1="0.0" x2="140.0" y1="0" y2="0" gradientUnits="userSpaceOnUse"><stop stop-color="rgb(36.9%,31%,63.5%)" stop-opacity="1.0" offset="0.0" /><stop stop-color="rgb(34.1%,34.5%,65.2%)" stop-opacity="1.0" offset="0.015873015873015872" /><stop stop-color="rgb(31.4%,38.1%,66.9%)" stop-opacity="1.0" offset="0.031746031746031744" /><stop stop-color="rgb(28.6%,41.6%,68.6%)" stop-opacity="1.0" offset="0.047619047619047616" /><stop stop-color="rgb(25.9%,45.2%,70.3%)" stop-opacity="1.0" offset="0.06349206349206349" /><stop stop-color="rgb(23.2%,48.7%,71.9%)" stop-opacity="1.0" offset="0.07936507936507936" /><stop stop-color="rgb(20.4%,52.3%,73.6%)" stop-opacity="1.0" offset="0.09523809523809523" /><stop stop-color="rgb(21.9%,55.9%,73.1%)" stop-opacity="1.0" offset="0.1111111111111111" /><stop stop-color="rgb(25.1%,59.5%,71.6%)" stop-opacity="1.0" offset="0.12698412698412698" /><stop stop-color="rgb(28.3%,63.1%,70.1%)" stop-opacity="1.0" offset="0.14285714285714285" /><stop stop-color="rgb(31.6%,66.7%,68.6%)" stop-opacity="1.0" offset="0.15873015873015872" /><stop stop-color="rgb(34.8%,70.3%,67.1%)" stop-opacity="1.0" offset="0.1746031746031746" /><stop stop-color="rgb(38.1%,73.9%,65.6%)" stop-opacity="1.0" offset="0.19047619047619047" /><stop stop-color="rgb(41.7%,76.8%,64.7%)" stop-opacity="1.0" offset="0.20634920634920634" /><stop stop-color="rgb(46%,78.4%,64.6%)" stop-opacity="1.0" offset="0.2222222222222222" /><stop stop-color="rgb(50.3%,80.1%,64.6%)" stop-opacity="1.0" offset="0.23809523809523805" /><stop stop-color="rgb(54.6%,81.8%,64.5%)" stop-opacity="1.0" offset="0.25396825396825395" /><stop stop-color="rgb(58.9%,83.5%,64.4%)" stop-opacity="1.0" offset="0.2698412698412698" /><stop stop-color="rgb(63.2%,85.2%,64.4%)" stop-opacity="1.0" offset="0.2857142857142857" /><stop stop-color="rgb(67.4%,86.8%,64.2%)" stop-opacity="1.0" offset="0.30158730158730157" /><stop stop-color="rgb(71.1%,88.3%,63.5%)" stop-opacity="1.0" offset="0.31746031746031744" /><stop stop-color="rgb(74.8%,89.8%,62.7%)" stop-opacity="1.0" offset="0.3333333333333333" /><stop stop-color="rgb(78.4%,91.3%,62%)" stop-opacity="1.0" offset="0.3492063492063492" /><stop stop-color="rgb(82.1%,92.8%,61.3%)" stop-opacity="1.0" offset="0.36507936507936506" /><stop stop-color="rgb(85.8%,94.3%,60.5%)" stop-opacity="1.0" offset="0.38095238095238093" /><stop stop-color="rgb(89.5%,95.8%,59.8%)" stop-opacity="1.0" offset="0.3968253968253968" /><stop stop-color="rgb(91.4%,96.6%,61.5%)" stop-opacity="1.0" offset="0.4126984126984127" /><stop stop-color="rgb(93%,97.2%,64%)" stop-opacity="1.0" offset="0.42857142857142855" /><stop stop-color="rgb(94.6%,97.8%,66.4%)" stop-opacity="1.0" offset="0.4444444444444444" /><stop stop-color="rgb(96.1%,98.4%,68.8%)" stop-opacity="1.0" offset="0.4603174603174603" /><stop stop-color="rgb(97.7%,99.1%,71.3%)" stop-opacity="1.0" offset="0.4761904761904761" /><stop stop-color="rgb(99.2%,99.7%,73.7%)" stop-opacity="1.0" offset="0.49206349206349204" /><stop stop-color="rgb(100%,99%,73.3%)" stop-opacity="1.0" offset="0.5079365079365079" /><stop stop-color="rgb(99.9%,97.1%,70%)" stop-opacity="1.0" offset="0.5238095238095237" /><stop stop-color="rgb(99.8%,95.2%,66.8%)" stop-opacity="1.0" offset="0.5396825396825397" /><stop stop-color="rgb(99.8%,93.2%,63.6%)" stop-opacity="1.0" offset="0.5555555555555556" /><stop stop-color="rgb(99.7%,91.3%,60.3%)" stop-opacity="1.0" offset="0.5714285714285714" /><stop stop-color="rgb(99.7%,89.4%,57.1%)" stop-opacity="1.0" offset="0.5873015873015872" /><stop stop-color="rgb(99.6%,87.2%,54%)" stop-opacity="1.0" offset="0.6031746031746031" /><stop stop-color="rgb(99.5%,84.1%,51.4%)" stop-opacity="1.0" offset="0.6190476190476191" /><stop stop-color="rgb(99.5%,81%,48.8%)" stop-opacity="1.0" offset="0.6349206349206349" /><stop stop-color="rgb(99.4%,77.9%,46.1%)" stop-opacity="1.0" offset="0.6507936507936507" /><stop stop-color="rgb(99.3%,74.8%,43.5%)" stop-opacity="1.0" offset="0.6666666666666666" /><stop stop-color="rgb(99.3%,71.7%,40.9%)" stop-opacity="1.0" offset="0.6825396825396826" /><stop stop-color="rgb(99.2%,68.5%,38.3%)" stop-opacity="1.0" offset="0.6984126984126984" /><stop stop-color="rgb(98.7%,64.6%,36.4%)" stop-opacity="1.0" offset="0.7142857142857142" /><stop stop-color="rgb(98.2%,60.5%,34.5%)" stop-opacity="1.0" offset="0.7301587301587301" /><stop stop-color="rgb(97.6%,56.5%,32.6%)" stop-opacity="1.0" offset="0.746031746031746" /><stop stop-color="rgb(97%,52.5%,30.8%)" stop-opacity="1.0" offset="0.7619047619047619" /><stop stop-color="rgb(96.5%,48.4%,28.9%)" stop-opacity="1.0" offset="0.7777777777777777" /><stop stop-color="rgb(95.9%,44.4%,27%)" stop-opacity="1.0" offset="0.7936507936507936" /><stop stop-color="rgb(94.5%,41%,26.7%)" stop-opacity="1.0" offset="0.8095238095238095" /><stop stop-color="rgb(92.6%,38.1%,27.5%)" stop-opacity="1.0" offset="0.8253968253968254" /><stop stop-color="rgb(90.7%,35.1%,28.2%)" stop-opacity="1.0" offset="0.8412698412698412" /><stop stop-color="rgb(88.7%,32.2%,29%)" stop-opacity="1.0" offset="0.8571428571428571" /><stop stop-color="rgb(86.8%,29.3%,29.7%)" stop-opacity="1.0" offset="0.873015873015873" /><stop stop-color="rgb(84.9%,26.4%,30.5%)" stop-opacity="1.0" offset="0.8888888888888888" /><stop stop-color="rgb(82.5%,23.2%,30.7%)" stop-opacity="1.0" offset="0.9047619047619047" /><stop stop-color="rgb(79.1%,19.4%,29.9%)" stop-opacity="1.0" offset="0.9206349206349206" /><stop stop-color="rgb(75.7%,15.6%,29.1%)" stop-opacity="1.0" offset="0.9365079365079365" /><stop stop-color="rgb(72.2%,11.8%,28.3%)" stop-opacity="1.0" offset="0.9523809523809522" /><stop stop-color="rgb(68.8%,7.99%,27.5%)" stop-opacity="1.0" offset="0.9682539682539681" /><stop stop-color="rgb(65.4%,4.19%,26.7%)" stop-opacity="1.0" offset="0.9841269841269841" /><stop stop-color="rgb(62%,0.392%,25.9%)" stop-opacity="1.0" offset="1.0" /></linearGradient></defs><rect x="0.0" y="-7.5" width="140.0" height="15" style="fill:url(#t9a7e99e0da4047379194673a144c80b5);stroke:rgb(0%,0%,0%);stroke-opacity:1.0;stroke-width:2" /></g></g><g class="toyplot-coordinates-Axis" id="t08fd13d89d7e4f5fab4272e9d9b919e3" transform="translate(250.0,195.0)rotate(-90.0)translate(0,20.0)"><line x1="0" y1="0" x2="140.0" y2="0" style="stroke-width:2" /><g><line x1="0.0" y1="0" x2="0.0" y2="-3" style="stroke-width:2" /><line x1="70.0" y1="0" x2="70.0" y2="-3" style="stroke-width:2" /><line x1="140.0" y1="0" x2="140.0" y2="-3" style="stroke-width:2" /></g><g><g transform="translate(0.0,6)"><text x="-7.6450000000000005" y="9.410499999999999" style="fill:rgb(16.1%,15.3%,14.1%);fill-opacity:1.0;font-family:helvetica;font-size:11.0px;font-weight:normal;stroke:none;vertical-align:baseline;white-space:pre">0.0</text></g><g transform="translate(70.0,6)"><text x="-10.703000000000001" y="9.410499999999999" style="fill:rgb(16.1%,15.3%,14.1%);fill-opacity:1.0;font-family:helvetica;font-size:11.0px;font-weight:normal;stroke:none;vertical-align:baseline;white-space:pre">0.25</text></g><g transform="translate(140.0,6)"><text x="-7.6450000000000005" y="9.410499999999999" style="fill:rgb(16.1%,15.3%,14.1%);fill-opacity:1.0;font-family:helvetica;font-size:11.0px;font-weight:normal;stroke:none;vertical-align:baseline;white-space:pre">0.5</text></g></g><g class="toyplot-coordinates-Axis-coordinates" style="visibility:hidden" transform=""><line x1="0" x2="0" y1="-3.0" y2="4.5" style="stroke:rgb(43.9%,50.2%,56.5%);stroke-opacity:1.0;stroke-width:1.0" /><text x="0" y="-6" style="alignment-baseline:alphabetic;fill:rgb(43.9%,50.2%,56.5%);fill-opacity:1.0;font-size:10px;font-weight:normal;stroke:none;text-anchor:middle" /></g></g></g><g class="toyplot-mark-Text" id="t4c5510e3fcf44d9ab100231d1f0a6670"><g class="toyplot-Series"><g class="toyplot-Datum" transform="translate(90.0,65.0)"><text x="-28.5835" y="-3.7895000000000003" style="fill:rgb(16.1%,15.3%,14.1%);fill-opacity:1.0;font-family:helvetica;font-size:11.0px;font-weight:bold;opacity:1;stroke:none;vertical-align:baseline;white-space:pre">Major=0.58</text><text x="-42.339000000000006" y="9.410499999999999" style="fill:rgb(16.1%,15.3%,14.1%);fill-opacity:1.0;font-family:helvetica;font-size:11.0px;font-weight:bold;opacity:1;stroke:none;vertical-align:baseline;white-space:pre">Alternative=0.42</text></g></g></g></svg>