<svg class="toyplot-canvas-Canvas" xmlns:toyplot="http://www.sandia.gov/toyplot" xmlns:xlink="http://www.w3.org/1999/xlink" xmlns="http://www.w3.org/2000/svg" width="290.0px" height="250.0px" viewBox="0 0 290.0 250.0" preserveAspectRatio="xMidYMid meet" style="background-color:transparent;border-color:#292724;border-style:none;border-width:1.0;fill:rgb(16.1%,15.3%,14.1%);fill-opacity:1.0;font-family:Helvetica;font-size:12px;opacity:1.0;stroke:rgb(16.1%,15.3%,14.1%);stroke-opacity:1.0;stroke-width:1.0" id="ta3506b2592b84024bcc805794ac65929"><g class="toyplot-coordinates-Cartesian" id="t11bba696618e48e7ba53d0d92f5abbf8"><clipPath id="t1d7e3fbd5444447bb607df6f624d0dc6"><rect x="35.0" y="35.0" width="220.0" height="180.0" /></clipPath><g clip-path="url(#t1d7e3fbd5444447bb607df6f624d0dc6)"><g class="toytree-mark-Toytree" id="t8b8fa741da34403f9e83bd9915fadc96"><g class="toytree-Edges" style="stroke:rgb(14.5%,14.5%,14.5%);stroke-opacity:1.0;stroke-linecap:round;stroke-width:2.0;fill:none"><path d="M 178.5 66.3 L 178.5 56.6 L 199.8 56.6" id="8,0" style="" /><path d="M 178.5 66.3 L 178.5 76.1 L 199.8 76.1" id="8,1" style="" /><path d="M 157.2 81.0 L 157.2 95.7 L 199.8 95.7" id="9,2" style="" /><path d="M 135.9 98.1 L 135.9 115.2 L 199.8 115.2" id="10,3" style="" /><path d="M 114.6 116.4 L 114.6 134.8 L 199.8 134.8" id="11,4" style="" /><path d="M 93.3 135.4 L 93.3 154.3 L 199.8 154.3" id="12,5" style="" /><path d="M 72.1 154.6 L 72.1 173.9 L 199.8 173.9" id="13,6" style="" /><path d="M 50.8 174.0 L 50.8 193.4 L 199.8 193.4" id="14,7" style="" /><path d="M 157.2 81.0 L 157.2 66.3 L 178.5 66.3" id="9,8" style="" /><path d="M 135.9 98.1 L 135.9 81.0 L 157.2 81.0" id="10,9" style="" /><path d="M 114.6 116.4 L 114.6 98.1 L 135.9 98.1" id="11,10" style="" /><path d="M 93.3 135.4 L 93.3 116.4 L 114.6 116.4" id="12,11" style="" /><path d="M 72.1 154.6 L 72.1 135.4 L 93.3 135.4" id="13,12" style="" /><path d="M 50.8 174.0 L 50.8 154.6 L 72.1 154.6" id="14,13" style="" /></g><g class="toytree-AdmixEdges" style="fill:rgb(0.0%,0.0%,0.0%);fill-opacity:0.0;stroke:rgb(90.6%,54.1%,76.5%);stroke-opacity:0.6;font-size:14px;stroke-linecap:round;stroke-width:5"><path d="M 199.75 173.88 L 174.51 173.88 L 50.78 174.03 L 50.78 174.03" style="stroke:rgb(92.3%,37.6%,27.6%);stroke-opacity:0.828;stroke-width:2" /><text x="112.65" y="185.96" style="fill:rgb(14.9%,14.9%,14.9%);fill-opacity:1.0;stroke:rgb(0.0%,0.0%,0.0%);stroke-opacity:0.828;stroke-width:2;text-anchor:middle" /><path d="M 50.78 174.03 L 50.78 174.03 L 190.57 76.12 L 178.47 76.12" style="stroke:rgb(32.0%,37.2%,66.5%);stroke-opacity:0.028;stroke-width:2" /><text x="120.68" y="137.08" style="fill:rgb(14.9%,14.9%,14.9%);fill-opacity:1.0;stroke:rgb(0.0%,0.0%,0.0%);stroke-opacity:0.028;stroke-width:2;text-anchor:middle" /><path d="M 199.75 134.78 L 119.53 134.78 L 119.53 154.33 L 93.35 154.33" style="stroke:rgb(25.6%,45.6%,70.4%);stroke-opacity:0.0652;stroke-width:2" /><text x="119.53" y="156.55" style="fill:rgb(14.9%,14.9%,14.9%);fill-opacity:1.0;stroke:rgb(0.0%,0.0%,0.0%);stroke-opacity:0.0652;stroke-width:2;text-anchor:middle" /><path d="M 199.75 95.67 L 185.99 95.67 L 185.99 154.33 L 93.35 154.33" style="stroke:rgb(80.5%,92.1%,61.6%);stroke-opacity:0.358;stroke-width:2" /><text x="185.99" y="137.00" style="fill:rgb(14.9%,14.9%,14.9%);fill-opacity:1.0;stroke:rgb(0.0%,0.0%,0.0%);stroke-opacity:0.358;stroke-width:2;text-anchor:middle" /><path d="M 199.75 95.67 L 193.55 95.67 L 193.55 173.88 L 72.06 173.88" style="stroke:rgb(33.4%,35.4%,65.6%);stroke-opacity:0.01994;stroke-width:2" /><text x="193.55" y="146.78" style="fill:rgb(14.9%,14.9%,14.9%);fill-opacity:1.0;stroke:rgb(0.0%,0.0%,0.0%);stroke-opacity:0.01994;stroke-width:2;text-anchor:middle" /><path d="M 157.19 81.01 L 153.32 81.01 L 50.78 174.03 L 50.78 174.03" style="stroke:rgb(36.4%,72.1%,66.4%);stroke-opacity:0.1824;stroke-width:2" /><text x="102.05" y="139.52" style="fill:rgb(14.9%,14.9%,14.9%);fill-opacity:1.0;stroke:rgb(0.0%,0.0%,0.0%);stroke-opacity:0.1824;stroke-width:2;text-anchor:middle" /><path d="M 157.19 81.01 L 151.96 81.01 L 151.96 173.88 L 72.06 173.88" style="stroke:rgb(22.5%,56.6%,72.8%);stroke-opacity:0.1144;stroke-width:2" /><text x="151.96" y="139.44" style="fill:rgb(14.9%,14.9%,14.9%);fill-opacity:1.0;stroke:rgb(0.0%,0.0%,0.0%);stroke-opacity:0.1144;stroke-width:2;text-anchor:middle" /><path d="M 199.75 134.78 L 196.71 134.78 L 196.71 95.67 L 157.19 95.67" style="stroke:rgb(25.6%,60.0%,71.4%);stroke-opacity:0.1292;stroke-width:2" /><text x="196.71" y="127.22" style="fill:rgb(14.9%,14.9%,14.9%);fill-opacity:1.0;stroke:rgb(0.0%,0.0%,0.0%);stroke-opacity:0.1292;stroke-width:2;text-anchor:middle" /><path d="M 199.75 76.12 L 179.44 76.12 L 179.44 193.43 L 50.78 193.43" style="stroke:rgb(24.0%,58.2%,72.1%);stroke-opacity:0.1216;stroke-width:2" /><text x="179.44" y="146.78" style="fill:rgb(14.9%,14.9%,14.9%);fill-opacity:1.0;stroke:rgb(0.0%,0.0%,0.0%);stroke-opacity:0.1216;stroke-width:2;text-anchor:middle" /><path d="M 199.75 95.67 L 179.61 95.67 L 179.61 173.88 L 72.06 173.88" style="stroke:rgb(24.9%,46.4%,70.9%);stroke-opacity:0.0692;stroke-width:2" /><text x="179.61" y="146.78" style="fill:rgb(14.9%,14.9%,14.9%);fill-opacity:1.0;stroke:rgb(0.0%,0.0%,0.0%);stroke-opacity:0.0692;stroke-width:2;text-anchor:middle" /><path d="M 157.19 81.01 L 146.38 81.01 L 146.38 193.43 L 50.78 193.43" style="stroke:rgb(31.1%,38.4%,67.1%);stroke-opacity:0.0334;stroke-width:2" /><text x="146.38" y="149.22" style="fill:rgb(14.9%,14.9%,14.9%);fill-opacity:1.0;stroke:rgb(0.0%,0.0%,0.0%);stroke-opacity:0.0334;stroke-width:2;text-anchor:middle" /><path d="M 199.75 173.88 L 166.76 173.88 L 166.76 95.67 L 157.19 95.67" style="stroke:rgb(23.2%,48.7%,71.9%);stroke-opacity:0.0792;stroke-width:2" /><text x="166.76" y="146.78" style="fill:rgb(14.9%,14.9%,14.9%);fill-opacity:1.0;stroke:rgb(0.0%,0.0%,0.0%);stroke-opacity:0.0792;stroke-width:2;text-anchor:middle" /><path d="M 199.75 76.12 L 198.02 76.12 L 198.02 115.22 L 135.91 115.22" style="stroke:rgb(35.0%,70.5%,67.0%);stroke-opacity:0.1754;stroke-width:2" /><text x="198.02" y="107.67" style="fill:rgb(14.9%,14.9%,14.9%);fill-opacity:1.0;stroke:rgb(0.0%,0.0%,0.0%);stroke-opacity:0.1754;stroke-width:2;text-anchor:middle" /><path d="M 199.75 95.67 L 165.24 95.67 L 165.24 154.33 L 93.35 154.33" style="stroke:rgb(72.1%,88.7%,63.3%);stroke-opacity:0.322;stroke-width:2" /><text x="165.24" y="137.00" style="fill:rgb(14.9%,14.9%,14.9%);fill-opacity:1.0;stroke:rgb(0.0%,0.0%,0.0%);stroke-opacity:0.322;stroke-width:2;text-anchor:middle" /><path d="M 199.75 56.57 L 182.13 56.57 L 182.13 193.43 L 50.78 193.43" style="stroke:rgb(33.6%,35.2%,65.5%);stroke-opacity:0.01906;stroke-width:2" /><text x="182.13" y="137.00" style="fill:rgb(14.9%,14.9%,14.9%);fill-opacity:1.0;stroke:rgb(0.0%,0.0%,0.0%);stroke-opacity:0.01906;stroke-width:2;text-anchor:middle" /><path d="M 157.19 81.01 L 140.80 81.01 L 140.80 193.43 L 50.78 193.43" style="stroke:rgb(23.5%,48.2%,71.7%);stroke-opacity:0.0772;stroke-width:2" /><text x="140.80" y="149.22" style="fill:rgb(14.9%,14.9%,14.9%);fill-opacity:1.0;stroke:rgb(0.0%,0.0%,0.0%);stroke-opacity:0.0772;stroke-width:2;text-anchor:middle" /><path d="M 50.78 174.03 L 50.78 174.03 L 194.18 76.12 L 178.47 76.12" style="stroke:rgb(30.0%,39.9%,67.8%);stroke-opacity:0.04;stroke-width:2" /><text x="122.48" y="137.08" style="fill:rgb(14.9%,14.9%,14.9%);fill-opacity:1.0;stroke:rgb(0.0%,0.0%,0.0%);stroke-opacity:0.04;stroke-width:2;text-anchor:middle" /><path d="M 178.47 66.35 L 178.03 66.35 L 178.03 134.78 L 114.63 134.78" style="stroke:rgb(33.0%,36.0%,65.9%);stroke-opacity:0.0226;stroke-width:2" /><text x="178.03" y="112.56" style="fill:rgb(14.9%,14.9%,14.9%);fill-opacity:1.0;stroke:rgb(0.0%,0.0%,0.0%);stroke-opacity:0.0226;stroke-width:2;text-anchor:middle" /><path d="M 199.75 193.43 L 99.15 193.43 L 50.78 174.03 L 50.78 174.03" style="stroke:rgb(99.9%,96.8%,69.6%);stroke-opacity:0.526;stroke-width:2" /><text x="74.97" y="195.73" style="fill:rgb(14.9%,14.9%,14.9%);fill-opacity:1.0;stroke:rgb(0.0%,0.0%,0.0%);stroke-opacity:0.526;stroke-width:2;text-anchor:middle" /><path d="M 178.47 66.35 L 164.13 66.35 L 164.13 134.78 L 114.63 134.78" style="stroke:rgb(22.4%,49.7%,72.4%);stroke-opacity:0.0838;stroke-width:2" /><text x="164.13" y="112.56" style="fill:rgb(14.9%,14.9%,14.9%);fill-opacity:1.0;stroke:rgb(0.0%,0.0%,0.0%);stroke-opacity:0.0838;stroke-width:2;text-anchor:middle" /><path d="M 199.75 115.22 L 143.71 115.22 L 143.71 134.78 L 114.63 134.78" style="stroke:rgb(22.4%,49.7%,72.4%);stroke-opacity:0.0836;stroke-width:2" /><text x="143.71" y="137.00" style="fill:rgb(14.9%,14.9%,14.9%);fill-opacity:1.0;stroke:rgb(0.0%,0.0%,0.0%);stroke-opacity:0.0836;stroke-width:2;text-anchor:middle" /><path d="M 199.75 154.33 L 149.05 154.33 L 149.05 115.22 L 135.91 115.22" style="stroke:rgb(31.8%,37.5%,66.6%);stroke-opacity:0.0292;stroke-width:2" /><text x="149.05" y="146.78" style="fill:rgb(14.9%,14.9%,14.9%);fill-opacity:1.0;stroke:rgb(0.0%,0.0%,0.0%);stroke-opacity:0.0292;stroke-width:2;text-anchor:middle" /><path d="M 199.75 95.67 L 190.77 95.67 L 190.77 76.12 L 178.47 76.12" style="stroke:rgb(93.7%,39.8%,27.0%);stroke-opacity:0.816;stroke-width:2" /><text x="190.77" y="97.90" style="fill:rgb(14.9%,14.9%,14.9%);fill-opacity:1.0;stroke:rgb(0.0%,0.0%,0.0%);stroke-opacity:0.816;stroke-width:2;text-anchor:middle" /><path d="M 199.75 76.12 L 186.76 76.12 L 186.76 173.88 L 72.06 173.88" style="stroke:rgb(34.8%,33.6%,64.8%);stroke-opacity:0.01194;stroke-width:2" /><text x="186.76" y="137.00" style="fill:rgb(14.9%,14.9%,14.9%);fill-opacity:1.0;stroke:rgb(0.0%,0.0%,0.0%);stroke-opacity:0.01194;stroke-width:2;text-anchor:middle" /><path d="M 199.75 173.88 L 167.56 173.88 L 167.56 115.22 L 135.91 115.22" style="stroke:rgb(99.2%,69.8%,39.4%);stroke-opacity:0.692;stroke-width:2" /><text x="167.56" y="156.55" style="fill:rgb(14.9%,14.9%,14.9%);fill-opacity:1.0;stroke:rgb(0.0%,0.0%,0.0%);stroke-opacity:0.692;stroke-width:2;text-anchor:middle" /><path d="M 199.75 56.57 L 182.74 56.57 L 182.74 134.78 L 114.63 134.78" style="stroke:rgb(29.6%,64.4%,69.5%);stroke-opacity:0.1488;stroke-width:2" /><text x="182.74" y="107.67" style="fill:rgb(14.9%,14.9%,14.9%);fill-opacity:1.0;stroke:rgb(0.0%,0.0%,0.0%);stroke-opacity:0.1488;stroke-width:2;text-anchor:middle" /><path d="M 199.75 95.67 L 178.90 95.67 L 178.90 193.43 L 50.78 193.43" style="stroke:rgb(33.4%,35.5%,65.7%);stroke-opacity:0.0202;stroke-width:2" /><text x="178.90" y="156.55" style="fill:rgb(14.9%,14.9%,14.9%);fill-opacity:1.0;stroke:rgb(0.0%,0.0%,0.0%);stroke-opacity:0.0202;stroke-width:2;text-anchor:middle" /><path d="M 199.75 56.57 L 181.87 56.57 L 181.87 134.78 L 114.63 134.78" style="stroke:rgb(38.5%,74.4%,65.4%);stroke-opacity:0.1928;stroke-width:2" /><text x="181.87" y="107.67" style="fill:rgb(14.9%,14.9%,14.9%);fill-opacity:1.0;stroke:rgb(0.0%,0.0%,0.0%);stroke-opacity:0.1928;stroke-width:2;text-anchor:middle" /><path d="M 199.75 115.22 L 167.38 115.22 L 167.38 173.88 L 72.06 173.88" style="stroke:rgb(24.7%,46.7%,71.0%);stroke-opacity:0.0704;stroke-width:2" /><text x="167.38" y="156.55" style="fill:rgb(14.9%,14.9%,14.9%);fill-opacity:1.0;stroke:rgb(0.0%,0.0%,0.0%);stroke-opacity:0.0704;stroke-width:2;text-anchor:middle" /><path d="M 199.75 95.67 L 189.55 95.67 L 189.55 134.78 L 114.63 134.78" style="stroke:rgb(31.1%,38.4%,67.0%);stroke-opacity:0.0332;stroke-width:2" /><text x="189.55" y="127.22" style="fill:rgb(14.9%,14.9%,14.9%);fill-opacity:1.0;stroke:rgb(0.0%,0.0%,0.0%);stroke-opacity:0.0332;stroke-width:2;text-anchor:middle" /><path d="M 50.78 174.03 L 50.78 174.03 L 188.23 76.12 L 178.47 76.12" style="stroke:rgb(20.7%,51.9%,73.5%);stroke-opacity:0.0938;stroke-width:2" /><text x="119.51" y="137.08" style="fill:rgb(14.9%,14.9%,14.9%);fill-opacity:1.0;stroke:rgb(0.0%,0.0%,0.0%);stroke-opacity:0.0938;stroke-width:2;text-anchor:middle" /><path d="M 199.75 134.78 L 186.47 134.78 L 186.47 76.12 L 178.47 76.12" style="stroke:rgb(31.3%,38.2%,66.9%);stroke-opacity:0.0322;stroke-width:2" /><text x="186.47" y="117.45" style="fill:rgb(14.9%,14.9%,14.9%);fill-opacity:1.0;stroke:rgb(0.0%,0.0%,0.0%);stroke-opacity:0.0322;stroke-width:2;text-anchor:middle" /><path d="M 199.75 173.88 L 184.93 173.88 L 184.93 115.22 L 135.91 115.22" style="stroke:rgb(34.4%,34.2%,65.0%);stroke-opacity:0.01432;stroke-width:2" /><text x="184.93" y="156.55" style="fill:rgb(14.9%,14.9%,14.9%);fill-opacity:1.0;stroke:rgb(0.0%,0.0%,0.0%);stroke-opacity:0.01432;stroke-width:2;text-anchor:middle" /><path d="M 50.78 174.03 L 50.78 174.03 L 50.78 174.03 L 50.78 174.03" style="stroke:rgb(97.1%,52.9%,31.0%);stroke-opacity:0.76;stroke-width:2" /><text x="50.78" y="186.03" style="fill:rgb(14.9%,14.9%,14.9%);fill-opacity:1.0;stroke:rgb(0.0%,0.0%,0.0%);stroke-opacity:0.76;stroke-width:2;text-anchor:middle" /><path d="M 50.78 174.03 L 50.78 174.03 L 176.77 95.67 L 157.19 95.67" style="stroke:rgb(24.7%,59.1%,71.7%);stroke-opacity:0.1252;stroke-width:2" /><text x="113.77" y="146.85" style="fill:rgb(14.9%,14.9%,14.9%);fill-opacity:1.0;stroke:rgb(0.0%,0.0%,0.0%);stroke-opacity:0.1252;stroke-width:2;text-anchor:middle" /><path d="M 199.75 193.43 L 192.76 193.43 L 192.76 56.57 L 178.47 56.57" style="stroke:rgb(27.7%,42.9%,69.2%);stroke-opacity:0.0532;stroke-width:2" /><text x="192.76" y="137.00" style="fill:rgb(14.9%,14.9%,14.9%);fill-opacity:1.0;stroke:rgb(0.0%,0.0%,0.0%);stroke-opacity:0.0532;stroke-width:2;text-anchor:middle" /><path d="M 178.47 66.35 L 177.86 66.35 L 177.86 154.33 L 93.35 154.33" style="stroke:rgb(99.0%,99.6%,73.4%);stroke-opacity:0.49;stroke-width:2" /><text x="177.86" y="122.34" style="fill:rgb(14.9%,14.9%,14.9%);fill-opacity:1.0;stroke:rgb(0.0%,0.0%,0.0%);stroke-opacity:0.49;stroke-width:2;text-anchor:middle" /><path d="M 199.75 56.57 L 185.93 56.57 L 185.93 115.22 L 135.91 115.22" style="stroke:rgb(28.1%,62.8%,70.2%);stroke-opacity:0.1418;stroke-width:2" /><text x="185.93" y="97.90" style="fill:rgb(14.9%,14.9%,14.9%);fill-opacity:1.0;stroke:rgb(0.0%,0.0%,0.0%);stroke-opacity:0.1418;stroke-width:2;text-anchor:middle" /><path d="M 50.78 174.03 L 50.78 174.03 L 50.78 174.03 L 50.78 174.03" style="stroke:rgb(99.4%,78.4%,46.6%);stroke-opacity:0.648;stroke-width:2" /><text x="50.78" y="186.03" style="fill:rgb(14.9%,14.9%,14.9%);fill-opacity:1.0;stroke:rgb(0.0%,0.0%,0.0%);stroke-opacity:0.648;stroke-width:2;text-anchor:middle" /><path d="M 199.75 76.12 L 194.25 76.12 L 194.25 154.33 L 93.35 154.33" style="stroke:rgb(33.2%,35.7%,65.8%);stroke-opacity:0.0212;stroke-width:2" /><text x="194.25" y="127.22" style="fill:rgb(14.9%,14.9%,14.9%);fill-opacity:1.0;stroke:rgb(0.0%,0.0%,0.0%);stroke-opacity:0.0212;stroke-width:2;text-anchor:middle" /><path d="M 199.75 173.88 L 143.09 173.88 L 143.09 115.22 L 135.91 115.22" style="stroke:rgb(29.8%,64.8%,69.4%);stroke-opacity:0.1502;stroke-width:2" /><text x="143.09" y="156.55" style="fill:rgb(14.9%,14.9%,14.9%);fill-opacity:1.0;stroke:rgb(0.0%,0.0%,0.0%);stroke-opacity:0.1502;stroke-width:2;text-anchor:middle" /><path d="M 199.75 56.57 L 187.65 56.57 L 187.65 115.22 L 135.91 115.22" style="stroke:rgb(27.9%,62.6%,70.3%);stroke-opacity:0.1406;stroke-width:2" /><text x="187.65" y="97.90" style="fill:rgb(14.9%,14.9%,14.9%);fill-opacity:1.0;stroke:rgb(0.0%,0.0%,0.0%);stroke-opacity:0.1406;stroke-width:2;text-anchor:middle" /><path d="M 199.75 56.57 L 189.13 56.57 L 189.13 115.22 L 135.91 115.22" style="stroke:rgb(49.7%,79.9%,64.6%);stroke-opacity:0.236;stroke-width:2" /><text x="189.13" y="97.90" style="fill:rgb(14.9%,14.9%,14.9%);fill-opacity:1.0;stroke:rgb(0.0%,0.0%,0.0%);stroke-opacity:0.236;stroke-width:2;text-anchor:middle" /><path d="M 199.75 56.57 L 184.68 56.57 L 184.68 193.43 L 50.78 193.43" style="stroke:rgb(22.2%,56.2%,72.9%);stroke-opacity:0.1126;stroke-width:2" /><text x="184.68" y="137.00" style="fill:rgb(14.9%,14.9%,14.9%);fill-opacity:1.0;stroke:rgb(0.0%,0.0%,0.0%);stroke-opacity:0.1126;stroke-width:2;text-anchor:middle" /><path d="M 199.75 56.57 L 182.28 56.57 L 182.28 115.22 L 135.91 115.22" style="stroke:rgb(27.4%,62.0%,70.5%);stroke-opacity:0.138;stroke-width:2" /><text x="182.28" y="97.90" style="fill:rgb(14.9%,14.9%,14.9%);fill-opacity:1.0;stroke:rgb(0.0%,0.0%,0.0%);stroke-opacity:0.138;stroke-width:2;text-anchor:middle" /><path d="M 50.78 174.03 L 50.78 174.03 L 189.78 56.57 L 178.47 56.57" style="stroke:rgb(23.7%,48.0%,71.6%);stroke-opacity:0.0762;stroke-width:2" /><text x="120.28" y="127.30" style="fill:rgb(14.9%,14.9%,14.9%);fill-opacity:1.0;stroke:rgb(0.0%,0.0%,0.0%);stroke-opacity:0.0762;stroke-width:2;text-anchor:middle" /><path d="M 199.75 173.88 L 184.77 173.88 L 184.77 115.22 L 135.91 115.22" style="stroke:rgb(86.0%,28.0%,30.0%);stroke-opacity:0.88;stroke-width:2" /><text x="184.77" y="156.55" style="fill:rgb(14.9%,14.9%,14.9%);fill-opacity:1.0;stroke:rgb(0.0%,0.0%,0.0%);stroke-opacity:0.88;stroke-width:2;text-anchor:middle" /><path d="M 199.75 134.78 L 190.93 134.78 L 190.93 95.67 L 157.19 95.67" style="stroke:rgb(20.5%,54.3%,73.7%);stroke-opacity:0.1044;stroke-width:2" /><text x="190.93" y="127.22" style="fill:rgb(14.9%,14.9%,14.9%);fill-opacity:1.0;stroke:rgb(0.0%,0.0%,0.0%);stroke-opacity:0.1044;stroke-width:2;text-anchor:middle" /><path d="M 199.75 154.33 L 150.27 154.33 L 150.27 134.78 L 114.63 134.78" style="stroke:rgb(80.0%,91.9%,61.7%);stroke-opacity:0.356;stroke-width:2" /><text x="150.27" y="156.55" style="fill:rgb(14.9%,14.9%,14.9%);fill-opacity:1.0;stroke:rgb(0.0%,0.0%,0.0%);stroke-opacity:0.356;stroke-width:2;text-anchor:middle" /><path d="M 50.78 174.03 L 50.78 174.03 L 157.71 95.67 L 157.19 95.67" style="stroke:rgb(27.1%,43.7%,69.5%);stroke-opacity:0.0568;stroke-width:2" /><text x="104.25" y="146.85" style="fill:rgb(14.9%,14.9%,14.9%);fill-opacity:1.0;stroke:rgb(0.0%,0.0%,0.0%);stroke-opacity:0.0568;stroke-width:2;text-anchor:middle" /><path d="M 50.78 174.03 L 50.78 174.03 L 168.83 95.67 L 157.19 95.67" style="stroke:rgb(32.7%,36.4%,66.1%);stroke-opacity:0.0244;stroke-width:2" /><text x="109.81" y="146.85" style="fill:rgb(14.9%,14.9%,14.9%);fill-opacity:1.0;stroke:rgb(0.0%,0.0%,0.0%);stroke-opacity:0.0244;stroke-width:2;text-anchor:middle" /><path d="M 199.75 193.43 L 180.44 193.43 L 180.44 76.12 L 178.47 76.12" style="stroke:rgb(24.8%,46.6%,70.9%);stroke-opacity:0.07;stroke-width:2" /><text x="180.44" y="146.78" style="fill:rgb(14.9%,14.9%,14.9%);fill-opacity:1.0;stroke:rgb(0.0%,0.0%,0.0%);stroke-opacity:0.07;stroke-width:2;text-anchor:middle" /><path d="M 199.75 173.88 L 173.79 173.88 L 173.79 134.78 L 114.63 134.78" style="stroke:rgb(93.9%,97.6%,65.4%);stroke-opacity:0.438;stroke-width:2" /><text x="173.79" y="166.33" style="fill:rgb(14.9%,14.9%,14.9%);fill-opacity:1.0;stroke:rgb(0.0%,0.0%,0.0%);stroke-opacity:0.438;stroke-width:2;text-anchor:middle" /><path d="M 50.78 174.03 L 50.78 174.03 L 187.88 56.57 L 178.47 56.57" style="stroke:rgb(32.9%,36.1%,65.9%);stroke-opacity:0.0228;stroke-width:2" /><text x="119.33" y="127.30" style="fill:rgb(14.9%,14.9%,14.9%);fill-opacity:1.0;stroke:rgb(0.0%,0.0%,0.0%);stroke-opacity:0.0228;stroke-width:2;text-anchor:middle" /><path d="M 199.75 173.88 L 186.03 173.88 L 186.03 76.12 L 178.47 76.12" style="stroke:rgb(26.8%,44.0%,69.7%);stroke-opacity:0.0584;stroke-width:2" /><text x="186.03" y="137.00" style="fill:rgb(14.9%,14.9%,14.9%);fill-opacity:1.0;stroke:rgb(0.0%,0.0%,0.0%);stroke-opacity:0.0584;stroke-width:2;text-anchor:middle" /><path d="M 157.19 81.01 L 151.81 81.01 L 151.81 193.43 L 50.78 193.43" style="stroke:rgb(20.0%,52.8%,73.9%);stroke-opacity:0.0976;stroke-width:2" /><text x="151.81" y="149.22" style="fill:rgb(14.9%,14.9%,14.9%);fill-opacity:1.0;stroke:rgb(0.0%,0.0%,0.0%);stroke-opacity:0.0976;stroke-width:2;text-anchor:middle" /><path d="M 199.75 115.22 L 143.04 115.22 L 143.04 154.33 L 93.35 154.33" style="stroke:rgb(25.1%,46.2%,70.8%);stroke-opacity:0.0682;stroke-width:2" /><text x="143.04" y="146.78" style="fill:rgb(14.9%,14.9%,14.9%);fill-opacity:1.0;stroke:rgb(0.0%,0.0%,0.0%);stroke-opacity:0.0682;stroke-width:2;text-anchor:middle" /><path d="M 199.75 56.57 L 185.35 56.57 L 185.35 154.33 L 93.35 154.33" style="stroke:rgb(26.6%,44.2%,69.8%);stroke-opacity:0.0592;stroke-width:2" /><text x="185.35" y="117.45" style="fill:rgb(14.9%,14.9%,14.9%);fill-opacity:1.0;stroke:rgb(0.0%,0.0%,0.0%);stroke-opacity:0.0592;stroke-width:2;text-anchor:middle" /><path d="M 199.75 193.43 L 122.48 193.43 L 50.78 174.03 L 50.78 174.03" style="stroke:rgb(20.0%,52.8%,73.9%);stroke-opacity:0.0976;stroke-width:2" /><text x="86.63" y="195.73" style="fill:rgb(14.9%,14.9%,14.9%);fill-opacity:1.0;stroke:rgb(0.0%,0.0%,0.0%);stroke-opacity:0.0976;stroke-width:2;text-anchor:middle" /><path d="M 178.47 66.35 L 170.89 66.35 L 170.89 173.88 L 72.06 173.88" style="stroke:rgb(33.8%,34.9%,65.4%);stroke-opacity:0.0176;stroke-width:2" /><text x="170.89" y="132.11" style="fill:rgb(14.9%,14.9%,14.9%);fill-opacity:1.0;stroke:rgb(0.0%,0.0%,0.0%);stroke-opacity:0.0176;stroke-width:2;text-anchor:middle" /><path d="M 178.47 66.35 L 165.55 66.35 L 165.55 193.43 L 50.78 193.43" style="stroke:rgb(30.3%,39.5%,67.6%);stroke-opacity:0.0382;stroke-width:2" /><text x="165.55" y="141.89" style="fill:rgb(14.9%,14.9%,14.9%);fill-opacity:1.0;stroke:rgb(0.0%,0.0%,0.0%);stroke-opacity:0.0382;stroke-width:2;text-anchor:middle" /><path d="M 157.19 81.01 L 145.80 81.01 L 145.80 173.88 L 72.06 173.88" style="stroke:rgb(22.4%,56.4%,72.8%);stroke-opacity:0.1136;stroke-width:2" /><text x="145.80" y="139.44" style="fill:rgb(14.9%,14.9%,14.9%);fill-opacity:1.0;stroke:rgb(0.0%,0.0%,0.0%);stroke-opacity:0.1136;stroke-width:2;text-anchor:middle" /><path d="M 199.75 76.12 L 190.93 76.12 L 190.93 154.33 L 93.35 154.33" style="stroke:rgb(34.0%,34.7%,65.3%);stroke-opacity:0.01668;stroke-width:2" /><text x="190.93" y="127.22" style="fill:rgb(14.9%,14.9%,14.9%);fill-opacity:1.0;stroke:rgb(0.0%,0.0%,0.0%);stroke-opacity:0.01668;stroke-width:2;text-anchor:middle" /><path d="M 178.47 66.35 L 174.99 66.35 L 174.99 115.22 L 135.91 115.22" style="stroke:rgb(33.9%,34.8%,65.3%);stroke-opacity:0.01718;stroke-width:2" /><text x="174.99" y="102.78" style="fill:rgb(14.9%,14.9%,14.9%);fill-opacity:1.0;stroke:rgb(0.0%,0.0%,0.0%);stroke-opacity:0.01718;stroke-width:2;text-anchor:middle" /><path d="M 199.75 193.43 L 196.98 193.43 L 196.98 76.12 L 178.47 76.12" style="stroke:rgb(23.4%,48.5%,71.8%);stroke-opacity:0.0782;stroke-width:2" /><text x="196.98" y="146.78" style="fill:rgb(14.9%,14.9%,14.9%);fill-opacity:1.0;stroke:rgb(0.0%,0.0%,0.0%);stroke-opacity:0.0782;stroke-width:2;text-anchor:middle" /><path d="M 199.75 95.67 L 166.79 95.67 L 166.79 193.43 L 50.78 193.43" style="stroke:rgb(24.9%,46.5%,70.9%);stroke-opacity:0.0696;stroke-width:2" /><text x="166.79" y="156.55" style="fill:rgb(14.9%,14.9%,14.9%);fill-opacity:1.0;stroke:rgb(0.0%,0.0%,0.0%);stroke-opacity:0.0696;stroke-width:2;text-anchor:middle" /><path d="M 199.75 193.43 L 179.39 193.43 L 179.39 95.67 L 157.19 95.67" style="stroke:rgb(19.7%,53.5%,74.1%);stroke-opacity:0.1006;stroke-width:2" /><text x="179.39" y="156.55" style="fill:rgb(14.9%,14.9%,14.9%);fill-opacity:1.0;stroke:rgb(0.0%,0.0%,0.0%);stroke-opacity:0.1006;stroke-width:2;text-anchor:middle" /><path d="M 199.75 95.67 L 169.74 95.67 L 169.74 134.78 L 114.63 134.78" style="stroke:rgb(33.1%,35.9%,65.8%);stroke-opacity:0.0218;stroke-width:2" /><text x="169.74" y="127.22" style="fill:rgb(14.9%,14.9%,14.9%);fill-opacity:1.0;stroke:rgb(0.0%,0.0%,0.0%);stroke-opacity:0.0218;stroke-width:2;text-anchor:middle" /><path d="M 199.75 173.88 L 156.22 173.88 L 156.22 115.22 L 135.91 115.22" style="stroke:rgb(90.8%,96.3%,60.5%);stroke-opacity:0.406;stroke-width:2" /><text x="156.22" y="156.55" style="fill:rgb(14.9%,14.9%,14.9%);fill-opacity:1.0;stroke:rgb(0.0%,0.0%,0.0%);stroke-opacity:0.406;stroke-width:2;text-anchor:middle" /><path d="M 157.19 81.01 L 148.72 81.01 L 50.78 174.03 L 50.78 174.03" style="stroke:rgb(34.9%,70.4%,67.1%);stroke-opacity:0.175;stroke-width:2" /><text x="99.75" y="139.52" style="fill:rgb(14.9%,14.9%,14.9%);fill-opacity:1.0;stroke:rgb(0.0%,0.0%,0.0%);stroke-opacity:0.175;stroke-width:2;text-anchor:middle" /><path d="M 199.75 115.22 L 193.65 115.22 L 193.65 95.67 L 157.19 95.67" style="stroke:rgb(33.7%,35.1%,65.5%);stroke-opacity:0.01824;stroke-width:2" /><text x="193.65" y="117.45" style="fill:rgb(14.9%,14.9%,14.9%);fill-opacity:1.0;stroke:rgb(0.0%,0.0%,0.0%);stroke-opacity:0.01824;stroke-width:2;text-anchor:middle" /><path d="M 199.75 134.78 L 160.65 134.78 L 160.65 154.33 L 93.35 154.33" style="stroke:rgb(23.3%,57.4%,72.4%);stroke-opacity:0.118;stroke-width:2" /><text x="160.65" y="156.55" style="fill:rgb(14.9%,14.9%,14.9%);fill-opacity:1.0;stroke:rgb(0.0%,0.0%,0.0%);stroke-opacity:0.118;stroke-width:2;text-anchor:middle" /><path d="M 199.75 173.88 L 114.81 173.88 L 50.78 174.03 L 50.78 174.03" style="stroke:rgb(98.2%,60.6%,34.5%);stroke-opacity:0.73;stroke-width:2" /><text x="82.80" y="185.96" style="fill:rgb(14.9%,14.9%,14.9%);fill-opacity:1.0;stroke:rgb(0.0%,0.0%,0.0%);stroke-opacity:0.73;stroke-width:2;text-anchor:middle" /><path d="M 199.75 76.12 L 187.54 76.12 L 187.54 193.43 L 50.78 193.43" style="stroke:rgb(34.7%,33.8%,64.9%);stroke-opacity:0.01278;stroke-width:2" /><text x="187.54" y="146.78" style="fill:rgb(14.9%,14.9%,14.9%);fill-opacity:1.0;stroke:rgb(0.0%,0.0%,0.0%);stroke-opacity:0.01278;stroke-width:2;text-anchor:middle" /><path d="M 199.75 76.12 L 189.46 76.12 L 189.46 173.88 L 72.06 173.88" style="stroke:rgb(27.1%,43.7%,69.5%);stroke-opacity:0.0568;stroke-width:2" /><text x="189.46" y="137.00" style="fill:rgb(14.9%,14.9%,14.9%);fill-opacity:1.0;stroke:rgb(0.0%,0.0%,0.0%);stroke-opacity:0.0568;stroke-width:2;text-anchor:middle" /><path d="M 199.75 95.67 L 176.60 95.67 L 50.78 174.03 L 50.78 174.03" style="stroke:rgb(20.7%,51.9%,73.4%);stroke-opacity:0.0934;stroke-width:2" /><text x="113.69" y="146.85" style="fill:rgb(14.9%,14.9%,14.9%);fill-opacity:1.0;stroke:rgb(0.0%,0.0%,0.0%);stroke-opacity:0.0934;stroke-width:2;text-anchor:middle" /><path d="M 199.75 56.57 L 189.08 56.57 L 189.08 154.33 L 93.35 154.33" style="stroke:rgb(23.7%,57.9%,72.2%);stroke-opacity:0.1202;stroke-width:2" /><text x="189.08" y="117.45" style="fill:rgb(14.9%,14.9%,14.9%);fill-opacity:1.0;stroke:rgb(0.0%,0.0%,0.0%);stroke-opacity:0.1202;stroke-width:2;text-anchor:middle" /><path d="M 199.75 76.12 L 183.49 76.12 L 183.49 115.22 L 135.91 115.22" style="stroke:rgb(40.0%,76.0%,64.7%);stroke-opacity:0.1998;stroke-width:2" /><text x="183.49" y="107.67" style="fill:rgb(14.9%,14.9%,14.9%);fill-opacity:1.0;stroke:rgb(0.0%,0.0%,0.0%);stroke-opacity:0.1998;stroke-width:2;text-anchor:middle" /><path d="M 199.75 95.67 L 167.09 95.67 L 167.09 154.33 L 93.35 154.33" style="stroke:rgb(98.6%,99.5%,72.8%);stroke-opacity:0.486;stroke-width:2" /><text x="167.09" y="137.00" style="fill:rgb(14.9%,14.9%,14.9%);fill-opacity:1.0;stroke:rgb(0.0%,0.0%,0.0%);stroke-opacity:0.486;stroke-width:2;text-anchor:middle" /><path d="M 199.75 154.33 L 153.73 154.33 L 153.73 115.22 L 135.91 115.22" style="stroke:rgb(50.8%,80.3%,64.5%);stroke-opacity:0.24;stroke-width:2" /><text x="153.73" y="146.78" style="fill:rgb(14.9%,14.9%,14.9%);fill-opacity:1.0;stroke:rgb(0.0%,0.0%,0.0%);stroke-opacity:0.24;stroke-width:2;text-anchor:middle" /><path d="M 199.75 76.12 L 199.20 76.12 L 50.78 174.03 L 50.78 174.03" style="stroke:rgb(92.9%,97.2%,63.9%);stroke-opacity:0.428;stroke-width:2" /><text x="124.99" y="137.08" style="fill:rgb(14.9%,14.9%,14.9%);fill-opacity:1.0;stroke:rgb(0.0%,0.0%,0.0%);stroke-opacity:0.428;stroke-width:2;text-anchor:middle" /><path d="M 178.47 66.35 L 165.50 66.35 L 165.50 134.78 L 114.63 134.78" style="stroke:rgb(31.4%,38.0%,66.9%);stroke-opacity:0.0314;stroke-width:2" /><text x="165.50" y="112.56" style="fill:rgb(14.9%,14.9%,14.9%);fill-opacity:1.0;stroke:rgb(0.0%,0.0%,0.0%);stroke-opacity:0.0314;stroke-width:2;text-anchor:middle" /><path d="M 199.75 115.22 L 196.93 115.22 L 196.93 134.78 L 114.63 134.78" style="stroke:rgb(99.8%,95.1%,66.7%);stroke-opacity:0.54;stroke-width:2" /><text x="196.93" y="137.00" style="fill:rgb(14.9%,14.9%,14.9%);fill-opacity:1.0;stroke:rgb(0.0%,0.0%,0.0%);stroke-opacity:0.54;stroke-width:2;text-anchor:middle" /><path d="M 199.75 56.57 L 187.69 56.57 L 187.69 154.33 L 93.35 154.33" style="stroke:rgb(32.1%,67.3%,68.3%);stroke-opacity:0.1614;stroke-width:2" /><text x="187.69" y="117.45" style="fill:rgb(14.9%,14.9%,14.9%);fill-opacity:1.0;stroke:rgb(0.0%,0.0%,0.0%);stroke-opacity:0.1614;stroke-width:2;text-anchor:middle" /><path d="M 157.19 81.01 L 138.66 81.01 L 138.66 173.88 L 72.06 173.88" style="stroke:rgb(30.0%,64.9%,69.3%);stroke-opacity:0.1508;stroke-width:2" /><text x="138.66" y="139.44" style="fill:rgb(14.9%,14.9%,14.9%);fill-opacity:1.0;stroke:rgb(0.0%,0.0%,0.0%);stroke-opacity:0.1508;stroke-width:2;text-anchor:middle" /><path d="M 199.75 56.57 L 189.89 56.57 L 189.89 173.88 L 72.06 173.88" style="stroke:rgb(23.8%,47.9%,71.6%);stroke-opacity:0.0758;stroke-width:2" /><text x="189.89" y="127.22" style="fill:rgb(14.9%,14.9%,14.9%);fill-opacity:1.0;stroke:rgb(0.0%,0.0%,0.0%);stroke-opacity:0.0758;stroke-width:2;text-anchor:middle" /><path d="M 199.75 134.78 L 197.76 134.78 L 197.76 95.67 L 157.19 95.67" style="stroke:rgb(21.8%,50.5%,72.8%);stroke-opacity:0.0872;stroke-width:2" /><text x="197.76" y="127.22" style="fill:rgb(14.9%,14.9%,14.9%);fill-opacity:1.0;stroke:rgb(0.0%,0.0%,0.0%);stroke-opacity:0.0872;stroke-width:2;text-anchor:middle" /><path d="M 199.75 56.57 L 197.09 56.57 L 50.78 174.03 L 50.78 174.03" style="stroke:rgb(36.8%,72.5%,66.2%);stroke-opacity:0.1842;stroke-width:2" /><text x="123.94" y="127.30" style="fill:rgb(14.9%,14.9%,14.9%);fill-opacity:1.0;stroke:rgb(0.0%,0.0%,0.0%);stroke-opacity:0.1842;stroke-width:2;text-anchor:middle" /><path d="M 199.75 76.12 L 184.00 76.12 L 184.00 134.78 L 114.63 134.78" style="stroke:rgb(19.9%,53.6%,74.0%);stroke-opacity:0.1012;stroke-width:2" /><text x="184.00" y="117.45" style="fill:rgb(14.9%,14.9%,14.9%);fill-opacity:1.0;stroke:rgb(0.0%,0.0%,0.0%);stroke-opacity:0.1012;stroke-width:2;text-anchor:middle" /><path d="M 50.78 174.03 L 50.78 174.03 L 190.07 76.12 L 178.47 76.12" style="stroke:rgb(28.1%,42.4%,68.9%);stroke-opacity:0.051;stroke-width:2" /><text x="120.42" y="137.08" style="fill:rgb(14.9%,14.9%,14.9%);fill-opacity:1.0;stroke:rgb(0.0%,0.0%,0.0%);stroke-opacity:0.051;stroke-width:2;text-anchor:middle" /><path d="M 50.78 174.03 L 50.78 174.03 L 187.87 56.57 L 178.47 56.57" style="stroke:rgb(24.1%,47.6%,71.4%);stroke-opacity:0.0742;stroke-width:2" /><text x="119.32" y="127.30" style="fill:rgb(14.9%,14.9%,14.9%);fill-opacity:1.0;stroke:rgb(0.0%,0.0%,0.0%);stroke-opacity:0.0742;stroke-width:2;text-anchor:middle" /><path d="M 199.75 56.57 L 194.89 56.57 L 194.89 95.67 L 157.19 95.67" style="stroke:rgb(36.6%,72.3%,66.3%);stroke-opacity:0.1834;stroke-width:2" /><text x="194.89" y="88.12" style="fill:rgb(14.9%,14.9%,14.9%);fill-opacity:1.0;stroke:rgb(0.0%,0.0%,0.0%);stroke-opacity:0.1834;stroke-width:2;text-anchor:middle" /><path d="M 50.78 174.03 L 50.78 174.03 L 191.74 56.57 L 178.47 56.57" style="stroke:rgb(31.0%,38.6%,67.2%);stroke-opacity:0.0342;stroke-width:2" /><text x="121.26" y="127.30" style="fill:rgb(14.9%,14.9%,14.9%);fill-opacity:1.0;stroke:rgb(0.0%,0.0%,0.0%);stroke-opacity:0.0342;stroke-width:2;text-anchor:middle" /><path d="M 199.75 193.43 L 185.41 193.43 L 185.41 95.67 L 157.19 95.67" style="stroke:rgb(26.4%,44.5%,69.9%);stroke-opacity:0.0604;stroke-width:2" /><text x="185.41" y="156.55" style="fill:rgb(14.9%,14.9%,14.9%);fill-opacity:1.0;stroke:rgb(0.0%,0.0%,0.0%);stroke-opacity:0.0604;stroke-width:2;text-anchor:middle" /><path d="M 199.75 115.22 L 172.05 115.22 L 172.05 134.78 L 114.63 134.78" style="stroke:rgb(21.5%,50.9%,73.0%);stroke-opacity:0.089;stroke-width:2" /><text x="172.05" y="137.00" style="fill:rgb(14.9%,14.9%,14.9%);fill-opacity:1.0;stroke:rgb(0.0%,0.0%,0.0%);stroke-opacity:0.089;stroke-width:2;text-anchor:middle" /><path d="M 178.47 66.35 L 164.97 66.35 L 164.97 115.22 L 135.91 115.22" style="stroke:rgb(98.7%,64.7%,36.4%);stroke-opacity:0.714;stroke-width:2" /><text x="164.97" y="102.78" style="fill:rgb(14.9%,14.9%,14.9%);fill-opacity:1.0;stroke:rgb(0.0%,0.0%,0.0%);stroke-opacity:0.714;stroke-width:2;text-anchor:middle" /><path d="M 199.75 134.78 L 186.04 134.78 L 186.04 193.43 L 50.78 193.43" style="stroke:rgb(34.0%,34.7%,65.3%);stroke-opacity:0.0165;stroke-width:2" /><text x="186.04" y="176.10" style="fill:rgb(14.9%,14.9%,14.9%);fill-opacity:1.0;stroke:rgb(0.0%,0.0%,0.0%);stroke-opacity:0.0165;stroke-width:2;text-anchor:middle" /><path d="M 199.75 95.67 L 178.42 95.67 L 178.42 173.88 L 72.06 173.88" style="stroke:rgb(24.7%,46.7%,71.0%);stroke-opacity:0.0704;stroke-width:2" /><text x="178.42" y="146.78" style="fill:rgb(14.9%,14.9%,14.9%);fill-opacity:1.0;stroke:rgb(0.0%,0.0%,0.0%);stroke-opacity:0.0704;stroke-width:2;text-anchor:middle" /><path d="M 199.75 95.67 L 165.71 95.67 L 165.71 134.78 L 114.63 134.78" style="stroke:rgb(99.7%,91.7%,61.0%);stroke-opacity:0.568;stroke-width:2" /><text x="165.71" y="127.22" style="fill:rgb(14.9%,14.9%,14.9%);fill-opacity:1.0;stroke:rgb(0.0%,0.0%,0.0%);stroke-opacity:0.568;stroke-width:2;text-anchor:middle" /><path d="M 50.78 174.03 L 50.78 174.03 L 186.51 95.67 L 157.19 95.67" style="stroke:rgb(20.1%,52.7%,73.8%);stroke-opacity:0.097;stroke-width:2" /><text x="118.65" y="146.85" style="fill:rgb(14.9%,14.9%,14.9%);fill-opacity:1.0;stroke:rgb(0.0%,0.0%,0.0%);stroke-opacity:0.097;stroke-width:2;text-anchor:middle" /><path d="M 199.75 76.12 L 185.39 76.12 L 185.39 173.88 L 72.06 173.88" style="stroke:rgb(25.4%,45.8%,70.5%);stroke-opacity:0.0662;stroke-width:2" /><text x="185.39" y="137.00" style="fill:rgb(14.9%,14.9%,14.9%);fill-opacity:1.0;stroke:rgb(0.0%,0.0%,0.0%);stroke-opacity:0.0662;stroke-width:2;text-anchor:middle" /><path d="M 199.75 154.33 L 145.22 154.33 L 145.22 115.22 L 135.91 115.22" style="stroke:rgb(97.0%,51.9%,30.5%);stroke-opacity:0.764;stroke-width:2" /><text x="145.22" y="146.78" style="fill:rgb(14.9%,14.9%,14.9%);fill-opacity:1.0;stroke:rgb(0.0%,0.0%,0.0%);stroke-opacity:0.764;stroke-width:2;text-anchor:middle" /><path d="M 199.75 56.57 L 180.32 56.57 L 180.32 115.22 L 135.91 115.22" style="stroke:rgb(30.6%,39.1%,67.4%);stroke-opacity:0.0362;stroke-width:2" /><text x="180.32" y="97.90" style="fill:rgb(14.9%,14.9%,14.9%);fill-opacity:1.0;stroke:rgb(0.0%,0.0%,0.0%);stroke-opacity:0.0362;stroke-width:2;text-anchor:middle" /><path d="M 199.75 115.22 L 193.05 115.22 L 193.05 56.57 L 178.47 56.57" style="stroke:rgb(32.2%,37.0%,66.4%);stroke-opacity:0.027;stroke-width:2" /><text x="193.05" y="97.90" style="fill:rgb(14.9%,14.9%,14.9%);fill-opacity:1.0;stroke:rgb(0.0%,0.0%,0.0%);stroke-opacity:0.027;stroke-width:2;text-anchor:middle" /><path d="M 157.19 81.01 L 137.15 81.01 L 137.15 193.43 L 50.78 193.43" style="stroke:rgb(34.0%,34.7%,65.3%);stroke-opacity:0.01664;stroke-width:2" /><text x="137.15" y="149.22" style="fill:rgb(14.9%,14.9%,14.9%);fill-opacity:1.0;stroke:rgb(0.0%,0.0%,0.0%);stroke-opacity:0.01664;stroke-width:2;text-anchor:middle" /><path d="M 157.19 81.01 L 146.51 81.01 L 146.51 154.33 L 93.35 154.33" style="stroke:rgb(26.4%,60.9%,71.0%);stroke-opacity:0.1334;stroke-width:2" /><text x="146.51" y="129.67" style="fill:rgb(14.9%,14.9%,14.9%);fill-opacity:1.0;stroke:rgb(0.0%,0.0%,0.0%);stroke-opacity:0.1334;stroke-width:2;text-anchor:middle" /><path d="M 135.91 98.12 L 128.69 98.12 L 128.69 173.88 L 72.06 173.88" style="stroke:rgb(30.9%,65.9%,68.9%);stroke-opacity:0.1554;stroke-width:2" /><text x="128.69" y="148.00" style="fill:rgb(14.9%,14.9%,14.9%);fill-opacity:1.0;stroke:rgb(0.0%,0.0%,0.0%);stroke-opacity:0.1554;stroke-width:2;text-anchor:middle" /><path d="M 50.78 174.03 L 50.78 174.03 L 197.23 76.12 L 178.47 76.12" style="stroke:rgb(25.9%,45.2%,70.3%);stroke-opacity:0.0638;stroke-width:2" /><text x="124.01" y="137.08" style="fill:rgb(14.9%,14.9%,14.9%);fill-opacity:1.0;stroke:rgb(0.0%,0.0%,0.0%);stroke-opacity:0.0638;stroke-width:2;text-anchor:middle" /><path d="M 199.75 95.67 L 193.99 95.67 L 193.99 154.33 L 93.35 154.33" style="stroke:rgb(60.0%,83.9%,64.4%);stroke-opacity:0.274;stroke-width:2" /><text x="193.99" y="137.00" style="fill:rgb(14.9%,14.9%,14.9%);fill-opacity:1.0;stroke:rgb(0.0%,0.0%,0.0%);stroke-opacity:0.274;stroke-width:2;text-anchor:middle" /><path d="M 50.78 174.03 L 50.78 174.03 L 183.88 76.12 L 178.47 76.12" style="stroke:rgb(32.3%,36.9%,66.3%);stroke-opacity:0.0264;stroke-width:2" /><text x="117.33" y="137.08" style="fill:rgb(14.9%,14.9%,14.9%);fill-opacity:1.0;stroke:rgb(0.0%,0.0%,0.0%);stroke-opacity:0.0264;stroke-width:2;text-anchor:middle" /><path d="M 178.47 66.35 L 176.15 66.35 L 176.15 173.88 L 72.06 173.88" style="stroke:rgb(25.2%,46.1%,70.7%);stroke-opacity:0.0676;stroke-width:2" /><text x="176.15" y="132.11" style="fill:rgb(14.9%,14.9%,14.9%);fill-opacity:1.0;stroke:rgb(0.0%,0.0%,0.0%);stroke-opacity:0.0676;stroke-width:2;text-anchor:middle" /><path d="M 199.75 115.22 L 172.56 115.22 L 172.56 154.33 L 93.35 154.33" style="stroke:rgb(99.9%,97.3%,70.4%);stroke-opacity:0.522;stroke-width:2" /><text x="172.56" y="146.78" style="fill:rgb(14.9%,14.9%,14.9%);fill-opacity:1.0;stroke:rgb(0.0%,0.0%,0.0%);stroke-opacity:0.522;stroke-width:2;text-anchor:middle" /><path d="M 199.75 193.43 L 161.37 193.43 L 161.37 95.67 L 157.19 95.67" style="stroke:rgb(26.5%,44.4%,69.9%);stroke-opacity:0.06;stroke-width:2" /><text x="161.37" y="156.55" style="fill:rgb(14.9%,14.9%,14.9%);fill-opacity:1.0;stroke:rgb(0.0%,0.0%,0.0%);stroke-opacity:0.06;stroke-width:2;text-anchor:middle" /><path d="M 50.78 174.03 L 50.78 174.03 L 187.73 76.12 L 178.47 76.12" style="stroke:rgb(29.2%,40.9%,68.3%);stroke-opacity:0.0446;stroke-width:2" /><text x="119.26" y="137.08" style="fill:rgb(14.9%,14.9%,14.9%);fill-opacity:1.0;stroke:rgb(0.0%,0.0%,0.0%);stroke-opacity:0.0446;stroke-width:2;text-anchor:middle" /></g><g class="toytree-Nodes" style="fill:rgb(40.0%,76.1%,64.7%);fill-opacity:1.0;stroke:rgb(14.9%,14.9%,14.9%);stroke-opacity:1.0;stroke-width:1.5" /><g class="toytree-TipLabels" style="fill:rgb(14.5%,14.5%,14.5%);fill-opacity:1.0;font-family:Helvetica;font-size:12px;font-weight:300;vertical-align:baseline;white-space:pre;stroke:none"><g class="toytree-TipLabel" transform="translate(199.751,56.5693)"><text x="15.0" y="3.066" style="fill:rgb(14.5%,14.5%,14.5%);fill-opacity:1.0">r0</text></g><g class="toytree-TipLabel" transform="translate(199.751,76.121)"><text x="15.0" y="3.066" style="fill:rgb(14.5%,14.5%,14.5%);fill-opacity:1.0">r1</text></g><g class="toytree-TipLabel" transform="translate(199.751,95.6726)"><text x="15.0" y="3.066" style="fill:rgb(14.5%,14.5%,14.5%);fill-opacity:1.0">r2</text></g><g class="toytree-TipLabel" transform="translate(199.751,115.224)"><text x="15.0" y="3.066" style="fill:rgb(14.5%,14.5%,14.5%);fill-opacity:1.0">r3</text></g><g class="toytree-TipLabel" transform="translate(199.751,134.776)"><text x="15.0" y="3.066" style="fill:rgb(14.5%,14.5%,14.5%);fill-opacity:1.0">r4</text></g><g class="toytree-TipLabel" transform="translate(199.751,154.327)"><text x="15.0" y="3.066" style="fill:rgb(14.5%,14.5%,14.5%);fill-opacity:1.0">r5</text></g><g class="toytree-TipLabel" transform="translate(199.751,173.879)"><text x="15.0" y="3.066" style="fill:rgb(14.5%,14.5%,14.5%);fill-opacity:1.0">r6</text></g><g class="toytree-TipLabel" transform="translate(199.751,193.431)"><text x="15.0" y="3.066" style="fill:rgb(14.5%,14.5%,14.5%);fill-opacity:1.0">r7</text></g></g></g></g></g><g class="toyplot-coordinates-Numberline" id="tace907a592dd43dda0f55f89aff28d7c"><clipPath id="t7d2cf656aed84db7950e26332fed3a31"><rect x="0" y="-20.0" width="140.0" height="40.0" /></clipPath><g clip-path="url(#t7d2cf656aed84db7950e26332fed3a31)" transform="translate(250.0,195.0)rotate(-90.0)"><g class="toyplot-color-Map" id="t1190ca5f7de642d2880ebe334e6baa25"><defs><linearGradient id="t65c1feecd6da4c85b1a75c6eecdaabe9" x1="0.0" x2="140.0" y1="0" y2="0" gradientUnits="userSpaceOnUse"><stop stop-color="rgb(36.9%,31%,63.5%)" stop-opacity="1.0" offset="0.0" /><stop stop-color="rgb(34.1%,34.5%,65.2%)" stop-opacity="1.0" offset="0.015873015873015872" /><stop stop-color="rgb(31.4%,38.1%,66.9%)" stop-opacity="1.0" offset="0.031746031746031744" /><stop stop-color="rgb(28.6%,41.6%,68.6%)" stop-opacity="1.0" offset="0.047619047619047616" /><stop stop-color="rgb(25.9%,45.2%,70.3%)" stop-opacity="1.0" offset="0.06349206349206349" /><stop stop-color="rgb(23.2%,48.7%,71.9%)" stop-opacity="1.0" offset="0.07936507936507936" /><stop stop-color="rgb(20.4%,52.3%,73.6%)" stop-opacity="1.0" offset="0.09523809523809523" /><stop stop-color="rgb(21.9%,55.9%,73.1%)" stop-opacity="1.0" offset="0.1111111111111111" /><stop stop-color="rgb(25.1%,59.5%,71.6%)" stop-opacity="1.0" offset="0.12698412698412698" /><stop stop-color="rgb(28.3%,63.1%,70.1%)" stop-opacity="1.0" offset="0.14285714285714285" /><stop stop-color="rgb(31.6%,66.7%,68.6%)" stop-opacity="1.0" offset="0.15873015873015872" /><stop stop-color="rgb(34.8%,70.3%,67.1%)" stop-opacity="1.0" offset="0.1746031746031746" /><stop stop-color="rgb(38.1%,73.9%,65.6%)" stop-opacity="1.0" offset="0.19047619047619047" /><stop stop-color="rgb(41.7%,76.8%,64.7%)" stop-opacity="1.0" offset="0.20634920634920634" /><stop stop-color="rgb(46%,78.4%,64.6%)" stop-opacity="1.0" offset="0.2222222222222222" /><stop stop-color="rgb(50.3%,80.1%,64.6%)" stop-opacity="1.0" offset="0.23809523809523805" /><stop stop-color="rgb(54.6%,81.8%,64.5%)" stop-opacity="1.0" offset="0.25396825396825395" /><stop stop-color="rgb(58.9%,83.5%,64.4%)" stop-opacity="1.0" offset="0.2698412698412698" /><stop stop-color="rgb(63.2%,85.2%,64.4%)" stop-opacity="1.0" offset="0.2857142857142857" /><stop stop-color="rgb(67.4%,86.8%,64.2%)" stop-opacity="1.0" offset="0.30158730158730157" /><stop stop-color="rgb(71.1%,88.3%,63.5%)" stop-opacity="1.0" offset="0.31746031746031744" /><stop stop-color="rgb(74.8%,89.8%,62.7%)" stop-opacity="1.0" offset="0.3333333333333333" /><stop stop-color="rgb(78.4%,91.3%,62%)" stop-opacity="1.0" offset="0.3492063492063492" /><stop stop-color="rgb(82.1%,92.8%,61.3%)" stop-opacity="1.0" offset="0.36507936507936506" /><stop stop-color="rgb(85.8%,94.3%,60.5%)" stop-opacity="1.0" offset="0.38095238095238093" /><stop stop-color="rgb(89.5%,95.8%,59.8%)" stop-opacity="1.0" offset="0.3968253968253968" /><stop stop-color="rgb(91.4%,96.6%,61.5%)" stop-opacity="1.0" offset="0.4126984126984127" /><stop stop-color="rgb(93%,97.2%,64%)" stop-opacity="1.0" offset="0.42857142857142855" /><stop stop-color="rgb(94.6%,97.8%,66.4%)" stop-opacity="1.0" offset="0.4444444444444444" /><stop stop-color="rgb(96.1%,98.4%,68.8%)" stop-opacity="1.0" offset="0.4603174603174603" /><stop stop-color="rgb(97.7%,99.1%,71.3%)" stop-opacity="1.0" offset="0.4761904761904761" /><stop stop-color="rgb(99.2%,99.7%,73.7%)" stop-opacity="1.0" offset="0.49206349206349204" /><stop stop-color="rgb(100%,99%,73.3%)" stop-opacity="1.0" offset="0.5079365079365079" /><stop stop-color="rgb(99.9%,97.1%,70%)" stop-opacity="1.0" offset="0.5238095238095237" /><stop stop-color="rgb(99.8%,95.2%,66.8%)" stop-opacity="1.0" offset="0.5396825396825397" /><stop stop-color="rgb(99.8%,93.2%,63.6%)" stop-opacity="1.0" offset="0.5555555555555556" /><stop stop-color="rgb(99.7%,91.3%,60.3%)" stop-opacity="1.0" offset="0.5714285714285714" /><stop stop-color="rgb(99.7%,89.4%,57.1%)" stop-opacity="1.0" offset="0.5873015873015872" /><stop stop-color="rgb(99.6%,87.2%,54%)" stop-opacity="1.0" offset="0.6031746031746031" /><stop stop-color="rgb(99.5%,84.1%,51.4%)" stop-opacity="1.0" offset="0.6190476190476191" /><stop stop-color="rgb(99.5%,81%,48.8%)" stop-opacity="1.0" offset="0.6349206349206349" /><stop stop-color="rgb(99.4%,77.9%,46.1%)" stop-opacity="1.0" offset="0.6507936507936507" /><stop stop-color="rgb(99.3%,74.8%,43.5%)" stop-opacity="1.0" offset="0.6666666666666666" /><stop stop-color="rgb(99.3%,71.7%,40.9%)" stop-opacity="1.0" offset="0.6825396825396826" /><stop stop-color="rgb(99.2%,68.5%,38.3%)" stop-opacity="1.0" offset="0.6984126984126984" /><stop stop-color="rgb(98.7%,64.6%,36.4%)" stop-opacity="1.0" offset="0.7142857142857142" /><stop stop-color="rgb(98.2%,60.5%,34.5%)" stop-opacity="1.0" offset="0.7301587301587301" /><stop stop-color="rgb(97.6%,56.5%,32.6%)" stop-opacity="1.0" offset="0.746031746031746" /><stop stop-color="rgb(97%,52.5%,30.8%)" stop-opacity="1.0" offset="0.7619047619047619" /><stop stop-color="rgb(96.5%,48.4%,28.9%)" stop-opacity="1.0" offset="0.7777777777777777" /><stop stop-color="rgb(95.9%,44.4%,27%)" stop-opacity="1.0" offset="0.7936507936507936" /><stop stop-color="rgb(94.5%,41%,26.7%)" stop-opacity="1.0" offset="0.8095238095238095" /><stop stop-color="rgb(92.6%,38.1%,27.5%)" stop-opacity="1.0" offset="0.8253968253968254" /><stop stop-color="rgb(90.7%,35.1%,28.2%)" stop-opacity="1.0" offset="0.8412698412698412" /><stop stop-color="rgb(88.7%,32.2%,29%)" stop-opacity="1.0" offset="0.8571428571428571" /><stop stop-color="rgb(86.8%,29.3%,29.7%)" stop-opacity="1.0" offset="0.873015873015873" /><stop stop-color="rgb(84.9%,26.4%,30.5%)" stop-opacity="1.0" offset="0.8888888888888888" /><stop stop-color="rgb(82.5%,23.2%,30.7%)" stop-opacity="1.0" offset="0.9047619047619047" /><stop stop-color="rgb(79.1%,19.4%,29.9%)" stop-opacity="1.0" offset="0.9206349206349206" /><stop stop-color="rgb(75.7%,15.6%,29.1%)" stop-opacity="1.0" offset="0.9365079365079365" /><stop stop-color="rgb(72.2%,11.8%,28.3%)" stop-opacity="1.0" offset="0.9523809523809522" /><stop stop-color="rgb(68.8%,7.99%,27.5%)" stop-opacity="1.0" offset="0.9682539682539681" /><stop stop-color="rgb(65.4%,4.19%,26.7%)" stop-opacity="1.0" offset="0.9841269841269841" /><stop stop-color="rgb(62%,0.392%,25.9%)" stop-opacity="1.0" offset="1.0" /></linearGradient></defs><rect x="0.0" y="-7.5" width="140.0" height="15" style="fill:url(#t65c1feecd6da4c85b1a75c6eecdaabe9);stroke:rgb(0%,0%,0%);stroke-opacity:1.0;stroke-width:2" /></g></g><g class="toyplot-coordinates-Axis" id="t12da62da45cc4f9bb7a370263dbedd21" transform="translate(250.0,195.0)rotate(-90.0)translate(0,20.0)"><line x1="0" y1="0" x2="140.0" y2="0" style="stroke-width:2" /><g><line x1="0.0" y1="0" x2="0.0" y2="-3" style="stroke-width:2" /><line x1="70.0" y1="0" x2="70.0" y2="-3" style="stroke-width:2" /><line x1="140.0" y1="0" x2="140.0" y2="-3" style="stroke-width:2" /></g><g><g transform="translate(0.0,6)"><text x="-7.6450000000000005" y="9.410499999999999" style="fill:rgb(16.1%,15.3%,14.1%);fill-opacity:1.0;font-family:helvetica;font-size:11.0px;font-weight:normal;stroke:none;vertical-align:baseline;white-space:pre">0.0</text></g><g transform="translate(70.0,6)"><text x="-10.703000000000001" y="9.410499999999999" style="fill:rgb(16.1%,15.3%,14.1%);fill-opacity:1.0;font-family:helvetica;font-size:11.0px;font-weight:normal;stroke:none;vertical-align:baseline;white-space:pre">0.25</text></g><g transform="translate(140.0,6)"><text x="-7.6450000000000005" y="9.410499999999999" style="fill:rgb(16.1%,15.3%,14.1%);fill-opacity:1.0;font-family:helvetica;font-size:11.0px;font-weight:normal;stroke:none;vertical-align:baseline;white-space:pre">0.5</text></g></g><g class="toyplot-coordinates-Axis-coordinates" style="visibility:hidden" transform=""><line x1="0" x2="0" y1="-3.0" y2="4.5" style="stroke:rgb(43.9%,50.2%,56.5%);stroke-opacity:1.0;stroke-width:1.0" /><text x="0" y="-6" style="alignment-baseline:alphabetic;fill:rgb(43.9%,50.2%,56.5%);fill-opacity:1.0;font-size:10px;font-weight:normal;stroke:none;text-anchor:middle" /></g></g></g><g class="toyplot-mark-Text" id="tcbf5ab7492844aa1a89ef7c7886d3624"><g class="toyplot-Series"><g class="toyplot-Datum" transform="translate(90.0,65.0)"><text x="-28.5835" y="-3.7895000000000003" style="fill:rgb(16.1%,15.3%,14.1%);fill-opacity:1.0;font-family:helvetica;font-size:11.0px;font-weight:bold;opacity:1;stroke:none;vertical-align:baseline;white-space:pre">Major=0.63</text><text x="-42.339000000000006" y="9.410499999999999" style="fill:rgb(16.1%,15.3%,14.1%);fill-opacity:1.0;font-family:helvetica;font-size:11.0px;font-weight:bold;opacity:1;stroke:none;vertical-align:baseline;white-space:pre">Alternative=0.37</text></g></g></g></svg>