<svg class="toyplot-canvas-Canvas" xmlns:toyplot="http://www.sandia.gov/toyplot" xmlns:xlink="http://www.w3.org/1999/xlink" xmlns="http://www.w3.org/2000/svg" width="300.0px" height="250.0px" viewBox="0 0 300.0 250.0" preserveAspectRatio="xMidYMid meet" style="background-color:transparent;border-color:#292724;border-style:none;border-width:1.0;fill:rgb(16.1%,15.3%,14.1%);fill-opacity:1.0;font-family:Helvetica;font-size:12px;opacity:1.0;stroke:rgb(16.1%,15.3%,14.1%);stroke-opacity:1.0;stroke-width:1.0" id="tff3ece47034e4e1ea9c61abaad451053"><g class="toyplot-coordinates-Cartesian" id="td04936f3bc5049dda9cc0006c994b9c1"><clipPath id="tb38ee8594b724bf890ff987a66860807"><rect x="35.0" y="35.0" width="230.0" height="180.0" /></clipPath><g clip-path="url(#tb38ee8594b724bf890ff987a66860807)"><g class="toytree-mark-Toytree" id="ta437359244bc45e2a75a898387ec8b13"><g class="toytree-Edges" style="stroke:rgb(14.5%,14.5%,14.5%);stroke-opacity:1.0;stroke-linecap:round;stroke-width:2.0;fill:none"><path d="M 95.0 52.9 L 56.7 162.5" id="14,0" style="" /><path d="M 96.7 140.6 L 83.4 162.5" id="8,1" style="" /><path d="M 96.7 140.6 L 110.0 162.5" id="8,2" style="" /><path d="M 170.0 96.8 L 136.7 162.5" id="12,3" style="" /><path d="M 176.7 140.6 L 163.3 162.5" id="9,4" style="" /><path d="M 176.7 140.6 L 190.0 162.5" id="9,5" style="" /><path d="M 230.0 140.6 L 216.6 162.5" id="10,6" style="" /><path d="M 230.0 140.6 L 243.3 162.5" id="10,7" style="" /><path d="M 133.3 74.8 L 96.7 140.6" id="13,8" style="" /><path d="M 203.3 118.7 L 176.7 140.6" id="11,9" style="" /><path d="M 203.3 118.7 L 230.0 140.6" id="11,10" style="" /><path d="M 170.0 96.8 L 203.3 118.7" id="12,11" style="" /><path d="M 133.3 74.8 L 170.0 96.8" id="13,12" style="" /><path d="M 95.0 52.9 L 133.3 74.8" id="14,13" style="" /></g><g class="toytree-AlignEdges" style="stroke:rgb(66.0%,66.0%,66.0%);stroke-opacity:0.75;stroke-dasharray:2,4;stroke-linecap:round;stroke-width:2"><path d="M 56.7 162.5 L 56.7 162.5" /><path d="M 83.4 162.5 L 83.4 162.5" /><path d="M 110.0 162.5 L 110.0 162.5" /><path d="M 136.7 162.5 L 136.7 162.5" /><path d="M 163.3 162.5 L 163.3 162.5" /><path d="M 190.0 162.5 L 190.0 162.5" /><path d="M 216.6 162.5 L 216.6 162.5" /><path d="M 243.3 162.5 L 243.3 162.5" /></g><g class="toytree-AdmixEdges" style="fill:rgb(0.0%,0.0%,0.0%);fill-opacity:0.0;stroke:rgb(90.6%,54.1%,76.5%);stroke-opacity:0.6;font-size:14px;stroke-linecap:round;stroke-width:5"><path d="M 163.33 162.50 L 169.99 151.54 L 103.36 151.54 L 96.70 140.58" style="stroke:rgb(98.8%,55.3%,38.4%);stroke-opacity:1.0" /><text x="136.67" y="151.54" style="fill:rgb(14.9%,14.9%,14.9%);fill-opacity:1.0;stroke:rgb(0.0%,0.0%,0.0%);stroke-opacity:0.0;text-anchor:middle" /></g><g class="toytree-Nodes" style="fill:rgb(40.0%,76.1%,64.7%);fill-opacity:1.0;stroke:rgb(14.5%,14.5%,14.5%);stroke-opacity:1.0;stroke-width:1.0"><g id="Node-0" transform="translate(56.7164,162.499)"><circle r="3.0" /></g><g id="Node-1" transform="translate(83.3689,162.499)"><circle r="3.0" /></g><g id="Node-2" transform="translate(110.021,162.499)"><circle r="3.0" /></g><g id="Node-3" transform="translate(136.674,162.499)"><circle r="3.0" /></g><g id="Node-4" transform="translate(163.326,162.499)"><circle r="3.0" /></g><g id="Node-5" transform="translate(189.979,162.499)"><circle r="3.0" /></g><g id="Node-6" transform="translate(216.631,162.499)"><circle r="3.0" /></g><g id="Node-7" transform="translate(243.284,162.499)"><circle r="3.0" /></g><g id="Node-8" transform="translate(96.6951,140.583)"><circle r="3.0" /></g><g id="Node-9" transform="translate(176.652,140.583)"><circle r="3.0" /></g><g id="Node-10" transform="translate(229.957,140.583)"><circle r="3.0" /></g><g id="Node-11" transform="translate(203.305,118.668)"><circle r="3.0" /></g><g id="Node-12" transform="translate(169.989,96.7526)"><circle r="3.0" /></g><g id="Node-13" transform="translate(133.342,74.8373)"><circle r="3.0" /></g><g id="Node-14" transform="translate(95.0293,52.922)"><circle r="3.0" /></g></g><g class="toytree-TipLabels" style="fill:rgb(14.5%,14.5%,14.5%);fill-opacity:1.0;font-family:Helvetica;font-size:12px;font-weight:300;vertical-align:baseline;white-space:pre;stroke:none"><g class="toytree-TipLabel" transform="translate(56.7164,162.499)rotate(90)"><text x="15.0" y="3.066" style="fill:rgb(14.5%,14.5%,14.5%);fill-opacity:1.0">r7</text></g><g class="toytree-TipLabel" transform="translate(83.3689,162.499)rotate(90)"><text x="15.0" y="3.066" style="fill:rgb(14.5%,14.5%,14.5%);fill-opacity:1.0">r5</text></g><g class="toytree-TipLabel" transform="translate(110.021,162.499)rotate(90)"><text x="15.0" y="3.066" style="fill:rgb(14.5%,14.5%,14.5%);fill-opacity:1.0">r4</text></g><g class="toytree-TipLabel" transform="translate(136.674,162.499)rotate(90)"><text x="15.0" y="3.066" style="fill:rgb(14.5%,14.5%,14.5%);fill-opacity:1.0">r6</text></g><g class="toytree-TipLabel" transform="translate(163.326,162.499)rotate(90)"><text x="15.0" y="3.066" style="fill:rgb(14.5%,14.5%,14.5%);fill-opacity:1.0">r2</text></g><g class="toytree-TipLabel" transform="translate(189.979,162.499)rotate(90)"><text x="15.0" y="3.066" style="fill:rgb(14.5%,14.5%,14.5%);fill-opacity:1.0">r3</text></g><g class="toytree-TipLabel" transform="translate(216.631,162.499)rotate(90)"><text x="15.0" y="3.066" style="fill:rgb(14.5%,14.5%,14.5%);fill-opacity:1.0">r1</text></g><g class="toytree-TipLabel" transform="translate(243.284,162.499)rotate(90)"><text x="15.0" y="3.066" style="fill:rgb(14.5%,14.5%,14.5%);fill-opacity:1.0">r0</text></g></g></g></g><g class="toyplot-coordinates-Axis" id="t8836957f69c74a33b3d4785af3661d8c" transform="translate(50.0,200.0)rotate(-90.0)translate(0,-15.0)"><line x1="37.501461019986756" y1="0" x2="147.07796002649317" y2="0" style="" /><g><line x1="37.501461019986756" y1="0" x2="37.501461019986756" y2="5" style="" /><line x1="59.416760821288044" y1="0" x2="59.416760821288044" y2="5" style="" /><line x1="81.33206062258932" y1="0" x2="81.33206062258932" y2="5" style="" /><line x1="103.24736042389061" y1="0" x2="103.24736042389061" y2="5" style="" /><line x1="125.16266022519189" y1="0" x2="125.16266022519189" y2="5" style="" /><line x1="147.07796002649317" y1="0" x2="147.07796002649317" y2="5" style="" /></g><g><g transform="translate(37.501461019986756,-6)"><text x="-2.78" y="-4.440892098500626e-16" style="fill:rgb(16.1%,15.3%,14.1%);fill-opacity:1.0;font-family:helvetica;font-size:10.0px;font-weight:normal;stroke:none;vertical-align:baseline;white-space:pre">0</text></g><g transform="translate(59.416760821288044,-6)"><text x="-2.78" y="-4.440892098500626e-16" style="fill:rgb(16.1%,15.3%,14.1%);fill-opacity:1.0;font-family:helvetica;font-size:10.0px;font-weight:normal;stroke:none;vertical-align:baseline;white-space:pre">1</text></g><g transform="translate(81.33206062258932,-6)"><text x="-2.78" y="-4.440892098500626e-16" style="fill:rgb(16.1%,15.3%,14.1%);fill-opacity:1.0;font-family:helvetica;font-size:10.0px;font-weight:normal;stroke:none;vertical-align:baseline;white-space:pre">2</text></g><g transform="translate(103.24736042389061,-6)"><text x="-2.78" y="-4.440892098500626e-16" style="fill:rgb(16.1%,15.3%,14.1%);fill-opacity:1.0;font-family:helvetica;font-size:10.0px;font-weight:normal;stroke:none;vertical-align:baseline;white-space:pre">3</text></g><g transform="translate(125.16266022519189,-6)"><text x="-2.78" y="-4.440892098500626e-16" style="fill:rgb(16.1%,15.3%,14.1%);fill-opacity:1.0;font-family:helvetica;font-size:10.0px;font-weight:normal;stroke:none;vertical-align:baseline;white-space:pre">4</text></g><g transform="translate(147.07796002649317,-6)"><text x="-2.78" y="-4.440892098500626e-16" style="fill:rgb(16.1%,15.3%,14.1%);fill-opacity:1.0;font-family:helvetica;font-size:10.0px;font-weight:normal;stroke:none;vertical-align:baseline;white-space:pre">5</text></g></g><g class="toyplot-coordinates-Axis-coordinates" style="visibility:hidden" transform=""><line x1="0" x2="0" y1="3.0" y2="-4.5" style="stroke:rgb(43.9%,50.2%,56.5%);stroke-opacity:1.0;stroke-width:1.0" /><text x="0" y="6" style="alignment-baseline:hanging;fill:rgb(43.9%,50.2%,56.5%);fill-opacity:1.0;font-size:10px;font-weight:normal;stroke:none;text-anchor:middle" /></g></g></g></svg>