<svg class="toyplot-canvas-Canvas" xmlns:toyplot="http://www.sandia.gov/toyplot" xmlns:xlink="http://www.w3.org/1999/xlink" xmlns="http://www.w3.org/2000/svg" width="300.0px" height="250.0px" viewBox="0 0 300.0 250.0" preserveAspectRatio="xMidYMid meet" style="background-color:transparent;border-color:#292724;border-style:none;border-width:1.0;fill:rgb(16.1%,15.3%,14.1%);fill-opacity:1.0;font-family:Helvetica;font-size:12px;opacity:1.0;stroke:rgb(16.1%,15.3%,14.1%);stroke-opacity:1.0;stroke-width:1.0" id="tae857856a3d74b7c8e84b7176e4f8c36"><g class="toyplot-coordinates-Cartesian" id="t5eea498e5f7a40baa3abee9c46824a71"><clipPath id="taa52a46af117461391fee88909d4e91c"><rect x="35.0" y="35.0" width="230.0" height="180.0" /></clipPath><g clip-path="url(#taa52a46af117461391fee88909d4e91c)"><g class="toytree-mark-Toytree" id="t50ac2ba11ef14a508a18a011b1f25c65"><g class="toytree-Edges" style="stroke:rgb(14.5%,14.5%,14.5%);stroke-opacity:1.0;stroke-linecap:round;stroke-width:2.0;fill:none"><path d="M 207.7 52.9 L 243.3 162.5" id="14,0" style="" /><path d="M 172.1 68.6 L 190.0 162.5" id="13,1" style="" /><path d="M 154.2 84.2 L 136.7 162.5" id="12,2" style="" /><path d="M 171.7 99.9 L 216.6 162.5" id="11,3" style="" /><path d="M 126.7 115.5 L 163.3 162.5" id="10,4" style="" /><path d="M 90.0 131.2 L 110.0 162.5" id="9,5" style="" /><path d="M 70.0 146.8 L 56.7 162.5" id="8,6" style="" /><path d="M 70.0 146.8 L 83.4 162.5" id="8,7" style="" /><path d="M 90.0 131.2 L 70.0 146.8" id="9,8" style="" /><path d="M 126.7 115.5 L 90.0 131.2" id="10,9" style="" /><path d="M 171.7 99.9 L 126.7 115.5" id="11,10" style="" /><path d="M 154.2 84.2 L 171.7 99.9" id="12,11" style="" /><path d="M 172.1 68.6 L 154.2 84.2" id="13,12" style="" /><path d="M 207.7 52.9 L 172.1 68.6" id="14,13" style="" /></g><g class="toytree-AlignEdges" style="stroke:rgb(66.0%,66.0%,66.0%);stroke-opacity:0.75;stroke-dasharray:2,4;stroke-linecap:round;stroke-width:2"><path d="M 243.3 162.5 L 243.3 162.5" /><path d="M 190.0 162.5 L 190.0 162.5" /><path d="M 136.7 162.5 L 136.7 162.5" /><path d="M 216.6 162.5 L 216.6 162.5" /><path d="M 163.3 162.5 L 163.3 162.5" /><path d="M 110.0 162.5 L 110.0 162.5" /><path d="M 56.7 162.5 L 56.7 162.5" /><path d="M 83.4 162.5 L 83.4 162.5" /></g><g class="toytree-AdmixEdges" style="fill:rgb(0.0%,0.0%,0.0%);fill-opacity:0.0;stroke:rgb(90.6%,54.1%,76.5%);stroke-opacity:0.6;font-size:14px;stroke-linecap:round;stroke-width:5"><path d="M 189.98 162.50 L 188.49 154.67 L 76.71 154.67 L 70.04 146.84" style="stroke:rgb(98.8%,55.3%,38.4%);stroke-opacity:1.0" /><text x="132.60" y="154.67" style="fill:rgb(14.9%,14.9%,14.9%);fill-opacity:1.0;stroke:rgb(0.0%,0.0%,0.0%);stroke-opacity:0.0;text-anchor:middle" /></g><g class="toytree-Nodes" style="fill:rgb(40.0%,76.1%,64.7%);fill-opacity:1.0;stroke:rgb(14.5%,14.5%,14.5%);stroke-opacity:1.0;stroke-width:1.0"><g id="Node-0" transform="translate(243.284,162.499)"><circle r="3.0" /></g><g id="Node-1" transform="translate(189.979,162.499)"><circle r="3.0" /></g><g id="Node-2" transform="translate(136.674,162.499)"><circle r="3.0" /></g><g id="Node-3" transform="translate(216.631,162.499)"><circle r="3.0" /></g><g id="Node-4" transform="translate(163.326,162.499)"><circle r="3.0" /></g><g id="Node-5" transform="translate(110.021,162.499)"><circle r="3.0" /></g><g id="Node-6" transform="translate(56.7164,162.499)"><circle r="3.0" /></g><g id="Node-7" transform="translate(83.3689,162.499)"><circle r="3.0" /></g><g id="Node-8" transform="translate(70.0426,146.845)"><circle r="3.0" /></g><g id="Node-9" transform="translate(90.032,131.191)"><circle r="3.0" /></g><g id="Node-10" transform="translate(126.679,115.537)"><circle r="3.0" /></g><g id="Node-11" transform="translate(171.655,99.8834)"><circle r="3.0" /></g><g id="Node-12" transform="translate(154.164,84.2296)"><circle r="3.0" /></g><g id="Node-13" transform="translate(172.072,68.5758)"><circle r="3.0" /></g><g id="Node-14" transform="translate(207.678,52.922)"><circle r="3.0" /></g></g><g class="toytree-TipLabels" style="fill:rgb(14.5%,14.5%,14.5%);fill-opacity:1.0;font-family:Helvetica;font-size:12px;font-weight:300;vertical-align:baseline;white-space:pre;stroke:none"><g class="toytree-TipLabel" transform="translate(243.284,162.499)rotate(90)"><text x="15.0" y="3.066" style="fill:rgb(14.5%,14.5%,14.5%);fill-opacity:1.0">r7</text></g><g class="toytree-TipLabel" transform="translate(189.979,162.499)rotate(90)"><text x="15.0" y="3.066" style="fill:rgb(14.5%,14.5%,14.5%);fill-opacity:1.0">r5</text></g><g class="toytree-TipLabel" transform="translate(136.674,162.499)rotate(90)"><text x="15.0" y="3.066" style="fill:rgb(14.5%,14.5%,14.5%);fill-opacity:1.0">r3</text></g><g class="toytree-TipLabel" transform="translate(216.631,162.499)rotate(90)"><text x="15.0" y="3.066" style="fill:rgb(14.5%,14.5%,14.5%);fill-opacity:1.0">r6</text></g><g class="toytree-TipLabel" transform="translate(163.326,162.499)rotate(90)"><text x="15.0" y="3.066" style="fill:rgb(14.5%,14.5%,14.5%);fill-opacity:1.0">r4</text></g><g class="toytree-TipLabel" transform="translate(110.021,162.499)rotate(90)"><text x="15.0" y="3.066" style="fill:rgb(14.5%,14.5%,14.5%);fill-opacity:1.0">r2</text></g><g class="toytree-TipLabel" transform="translate(56.7164,162.499)rotate(90)"><text x="15.0" y="3.066" style="fill:rgb(14.5%,14.5%,14.5%);fill-opacity:1.0">r0</text></g><g class="toytree-TipLabel" transform="translate(83.3689,162.499)rotate(90)"><text x="15.0" y="3.066" style="fill:rgb(14.5%,14.5%,14.5%);fill-opacity:1.0">r1</text></g></g></g></g></g></svg>