<svg class="toyplot-canvas-Canvas" xmlns:toyplot="http://www.sandia.gov/toyplot" xmlns:xlink="http://www.w3.org/1999/xlink" xmlns="http://www.w3.org/2000/svg" width="300.0px" height="250.0px" viewBox="0 0 300.0 250.0" preserveAspectRatio="xMidYMid meet" style="background-color:transparent;border-color:#292724;border-style:none;border-width:1.0;fill:rgb(16.1%,15.3%,14.1%);fill-opacity:1.0;font-family:Helvetica;font-size:12px;opacity:1.0;stroke:rgb(16.1%,15.3%,14.1%);stroke-opacity:1.0;stroke-width:1.0" id="t69af78a440da45fc859e66dd03b5b027"><g class="toyplot-coordinates-Cartesian" id="te9024053405c48f68331a87b2b2080d5"><clipPath id="t9dca8817804a41cda1cd5be027b25793"><rect x="35.0" y="35.0" width="230.0" height="180.0" /></clipPath><g clip-path="url(#t9dca8817804a41cda1cd5be027b25793)"><g class="toytree-mark-Toytree" id="tb79a877d2f6e4ad1a1632ba8917ce792"><g class="toytree-Edges" style="stroke:rgb(14.5%,14.5%,14.5%);stroke-opacity:1.0;stroke-linecap:round;stroke-width:2.0;fill:none"><path d="M 96.5 52.9 L 56.7 162.5" id="14,0" style="" /><path d="M 136.3 68.6 L 83.4 162.5" id="13,1" style="" /><path d="M 135.0 99.9 L 110.0 162.5" id="11,2" style="" /><path d="M 160.0 115.5 L 136.7 162.5" id="10,3" style="" /><path d="M 183.3 131.2 L 163.3 162.5" id="9,4" style="" /><path d="M 203.3 146.8 L 190.0 162.5" id="8,5" style="" /><path d="M 203.3 146.8 L 216.6 162.5" id="8,6" style="" /><path d="M 189.1 84.2 L 243.3 162.5" id="12,7" style="" /><path d="M 183.3 131.2 L 203.3 146.8" id="9,8" style="" /><path d="M 160.0 115.5 L 183.3 131.2" id="10,9" style="" /><path d="M 135.0 99.9 L 160.0 115.5" id="11,10" style="" /><path d="M 189.1 84.2 L 135.0 99.9" id="12,11" style="" /><path d="M 136.3 68.6 L 189.1 84.2" id="13,12" style="" /><path d="M 96.5 52.9 L 136.3 68.6" id="14,13" style="" /></g><g class="toytree-AlignEdges" style="stroke:rgb(66.0%,66.0%,66.0%);stroke-opacity:0.75;stroke-dasharray:2,4;stroke-linecap:round;stroke-width:2"><path d="M 56.7 162.5 L 56.7 162.5" /><path d="M 83.4 162.5 L 83.4 162.5" /><path d="M 110.0 162.5 L 110.0 162.5" /><path d="M 136.7 162.5 L 136.7 162.5" /><path d="M 163.3 162.5 L 163.3 162.5" /><path d="M 190.0 162.5 L 190.0 162.5" /><path d="M 216.6 162.5 L 216.6 162.5" /><path d="M 243.3 162.5 L 243.3 162.5" /></g><g class="toytree-AdmixEdges" style="fill:rgb(0.0%,0.0%,0.0%);fill-opacity:0.0;stroke:rgb(90.6%,54.1%,76.5%);stroke-opacity:0.6;font-size:14px;stroke-linecap:round;stroke-width:5"><path d="M 136.67 162.50 L 148.33 139.02 L 65.24 139.02 L 96.49 52.92" style="stroke:rgb(98.8%,55.3%,38.4%);stroke-opacity:1.0" /><text x="106.79" y="139.02" style="fill:rgb(14.9%,14.9%,14.9%);fill-opacity:1.0;stroke:rgb(0.0%,0.0%,0.0%);stroke-opacity:0.0;text-anchor:middle" /></g><g class="toytree-Nodes" style="fill:rgb(40.0%,76.1%,64.7%);fill-opacity:1.0;stroke:rgb(14.5%,14.5%,14.5%);stroke-opacity:1.0;stroke-width:1.0"><g id="Node-0" transform="translate(56.7164,162.499)"><circle r="3.0" /></g><g id="Node-1" transform="translate(83.3689,162.499)"><circle r="3.0" /></g><g id="Node-2" transform="translate(110.021,162.499)"><circle r="3.0" /></g><g id="Node-3" transform="translate(136.674,162.499)"><circle r="3.0" /></g><g id="Node-4" transform="translate(163.326,162.499)"><circle r="3.0" /></g><g id="Node-5" transform="translate(189.979,162.499)"><circle r="3.0" /></g><g id="Node-6" transform="translate(216.631,162.499)"><circle r="3.0" /></g><g id="Node-7" transform="translate(243.284,162.499)"><circle r="3.0" /></g><g id="Node-8" transform="translate(203.305,146.845)"><circle r="3.0" /></g><g id="Node-9" transform="translate(183.316,131.191)"><circle r="3.0" /></g><g id="Node-10" transform="translate(159.995,115.537)"><circle r="3.0" /></g><g id="Node-11" transform="translate(135.008,99.8834)"><circle r="3.0" /></g><g id="Node-12" transform="translate(189.146,84.2296)"><circle r="3.0" /></g><g id="Node-13" transform="translate(136.257,68.5758)"><circle r="3.0" /></g><g id="Node-14" transform="translate(96.4869,52.922)"><circle r="3.0" /></g></g><g class="toytree-TipLabels" style="fill:rgb(14.5%,14.5%,14.5%);fill-opacity:1.0;font-family:Helvetica;font-size:12px;font-weight:300;vertical-align:baseline;white-space:pre;stroke:none"><g class="toytree-TipLabel" transform="translate(56.7164,162.499)rotate(90)"><text x="15.0" y="3.066" style="fill:rgb(14.5%,14.5%,14.5%);fill-opacity:1.0">r7</text></g><g class="toytree-TipLabel" transform="translate(83.3689,162.499)rotate(90)"><text x="15.0" y="3.066" style="fill:rgb(14.5%,14.5%,14.5%);fill-opacity:1.0">r6</text></g><g class="toytree-TipLabel" transform="translate(110.021,162.499)rotate(90)"><text x="15.0" y="3.066" style="fill:rgb(14.5%,14.5%,14.5%);fill-opacity:1.0">r3</text></g><g class="toytree-TipLabel" transform="translate(136.674,162.499)rotate(90)"><text x="15.0" y="3.066" style="fill:rgb(14.5%,14.5%,14.5%);fill-opacity:1.0">r4</text></g><g class="toytree-TipLabel" transform="translate(163.326,162.499)rotate(90)"><text x="15.0" y="3.066" style="fill:rgb(14.5%,14.5%,14.5%);fill-opacity:1.0">r2</text></g><g class="toytree-TipLabel" transform="translate(189.979,162.499)rotate(90)"><text x="15.0" y="3.066" style="fill:rgb(14.5%,14.5%,14.5%);fill-opacity:1.0">r0</text></g><g class="toytree-TipLabel" transform="translate(216.631,162.499)rotate(90)"><text x="15.0" y="3.066" style="fill:rgb(14.5%,14.5%,14.5%);fill-opacity:1.0">r1</text></g><g class="toytree-TipLabel" transform="translate(243.284,162.499)rotate(90)"><text x="15.0" y="3.066" style="fill:rgb(14.5%,14.5%,14.5%);fill-opacity:1.0">r5</text></g></g></g></g><g class="toyplot-coordinates-Axis" id="t52b47270d6474d86ac610663cc94fdaa" transform="translate(50.0,200.0)rotate(-90.0)translate(0,-15.0)"><line x1="37.501461019986756" y1="0" x2="147.07796002649317" y2="0" style="" /><g><line x1="37.501461019986756" y1="0" x2="37.501461019986756" y2="5" style="" /><line x1="76.6359249508819" y1="0" x2="76.6359249508819" y2="5" style="" /><line x1="115.77038888177705" y1="0" x2="115.77038888177705" y2="5" style="" /></g><g><g transform="translate(37.501461019986756,-6)"><text x="-2.78" y="-4.440892098500626e-16" style="fill:rgb(16.1%,15.3%,14.1%);fill-opacity:1.0;font-family:helvetica;font-size:10.0px;font-weight:normal;stroke:none;vertical-align:baseline;white-space:pre">0</text></g><g transform="translate(76.6359249508819,-6)"><text x="-6.95" y="-4.440892098500626e-16" style="fill:rgb(16.1%,15.3%,14.1%);fill-opacity:1.0;font-family:helvetica;font-size:10.0px;font-weight:normal;stroke:none;vertical-align:baseline;white-space:pre">2.5</text></g><g transform="translate(115.77038888177705,-6)"><text x="-2.78" y="-4.440892098500626e-16" style="fill:rgb(16.1%,15.3%,14.1%);fill-opacity:1.0;font-family:helvetica;font-size:10.0px;font-weight:normal;stroke:none;vertical-align:baseline;white-space:pre">5</text></g></g><g class="toyplot-coordinates-Axis-coordinates" style="visibility:hidden" transform=""><line x1="0" x2="0" y1="3.0" y2="-4.5" style="stroke:rgb(43.9%,50.2%,56.5%);stroke-opacity:1.0;stroke-width:1.0" /><text x="0" y="6" style="alignment-baseline:hanging;fill:rgb(43.9%,50.2%,56.5%);fill-opacity:1.0;font-size:10px;font-weight:normal;stroke:none;text-anchor:middle" /></g></g></g></svg>