<svg class="toyplot-canvas-Canvas" xmlns:toyplot="http://www.sandia.gov/toyplot" xmlns:xlink="http://www.w3.org/1999/xlink" xmlns="http://www.w3.org/2000/svg" width="300.0px" height="275.0px" viewBox="0 0 300.0 275.0" preserveAspectRatio="xMidYMid meet" style="background-color:transparent;border-color:#292724;border-style:none;border-width:1.0;fill:rgb(16.1%,15.3%,14.1%);fill-opacity:1.0;font-family:Helvetica;font-size:12px;opacity:1.0;stroke:rgb(16.1%,15.3%,14.1%);stroke-opacity:1.0;stroke-width:1.0" id="t0a771a3a8ea24f26b986f0c2b309a4f7"><g class="toyplot-coordinates-Cartesian" id="t6b19dbc5580245a88d15780a40deea33"><clipPath id="tb9eaf0f21be44b45b88ac9e0dd637985"><rect x="35.0" y="35.0" width="230.0" height="205.0" /></clipPath><g clip-path="url(#tb9eaf0f21be44b45b88ac9e0dd637985)"><g class="toytree-mark-Toytree" id="tf53fe7145ff2436fbdd9211b0887498f"><g class="toytree-Edges" style="stroke:rgb(14.5%,14.5%,14.5%);stroke-opacity:1.0;stroke-linecap:round;stroke-width:2;fill:none"><path d="M 54.3 180.1 L 210.0 218.3" id="14,0" style="" /><path d="M 145.4 163.5 L 210.0 195.2" id="10,1" style="" /><path d="M 150.7 131.7 L 210.0 149.0" id="9,2" style="" /><path d="M 157.2 114.4 L 210.0 102.9" id="8,3" style="" /><path d="M 157.2 114.4 L 210.0 126.0" id="8,4" style="" /><path d="M 140.8 120.2 L 210.0 172.1" id="12,5" style="" /><path d="M 189.3 68.2 L 210.0 56.7" id="11,6" style="" /><path d="M 189.3 68.2 L 210.0 79.8" id="11,7" style="" /><path d="M 150.7 131.7 L 157.2 114.4" id="9,8" style="" /><path d="M 145.4 163.5 L 150.7 131.7" id="10,9" style="" /><path d="M 111.1 141.8 L 145.4 163.5" id="13,10" style="" /><path d="M 140.8 120.2 L 189.3 68.2" id="12,11" style="" /><path d="M 111.1 141.8 L 140.8 120.2" id="13,12" style="" /><path d="M 54.3 180.1 L 111.1 141.8" id="14,13" style="" /></g><g class="toytree-AlignEdges" style="stroke:rgb(66.0%,66.0%,66.0%);stroke-opacity:0.75;stroke-dasharray:2,4;stroke-linecap:round;stroke-width:2"><path d="M 210.0 218.3 L 210.0 218.3" /><path d="M 210.0 195.2 L 210.0 195.2" /><path d="M 210.0 149.0 L 210.0 149.0" /><path d="M 210.0 102.9 L 210.0 102.9" /><path d="M 210.0 126.0 L 210.0 126.0" /><path d="M 210.0 172.1 L 210.0 172.1" /><path d="M 210.0 56.7 L 210.0 56.7" /><path d="M 210.0 79.8 L 210.0 79.8" /></g><g class="toytree-AdmixEdges" style="fill:rgb(0.0%,0.0%,0.0%);fill-opacity:0.0;stroke:rgb(90.6%,54.1%,76.5%);stroke-opacity:0.6;font-size:14px;stroke-linecap:round;stroke-width:5" /><g class="toytree-Nodes" style="fill:rgb(10.6%,62.0%,46.7%);fill-opacity:1.0;stroke:rgb(100.0%,100.0%,100.0%);stroke-opacity:1.0;stroke-width:1.5"><g id="Node-8" transform="translate(157.164,114.401)"><circle r="4.0" /></g><g id="Node-9" transform="translate(150.672,131.725)"><circle r="4.0" /></g><g id="Node-10" transform="translate(145.374,163.487)"><circle r="4.0" /></g><g id="Node-11" transform="translate(189.252,68.2022)"><circle r="4.0" /></g><g id="Node-12" transform="translate(140.831,120.176)"><circle r="4.0" /></g><g id="Node-13" transform="translate(111.089,141.831)"><circle r="4.0" /></g><g id="Node-14" transform="translate(54.2829,180.089)"><circle r="4.0" /></g></g><g class="toytree-TipLabels" style="fill:rgb(14.5%,14.5%,14.5%);fill-opacity:1.0;font-family:Helvetica;font-size:12px;font-weight:300;vertical-align:baseline;white-space:pre;stroke:none"><g class="toytree-TipLabel" transform="translate(210.024,218.347)"><text x="15.0" y="3.066" style="fill:rgb(14.5%,14.5%,14.5%);fill-opacity:1.0">r7</text></g><g class="toytree-TipLabel" transform="translate(210.024,195.248)"><text x="15.0" y="3.066" style="fill:rgb(14.5%,14.5%,14.5%);fill-opacity:1.0">r6</text></g><g class="toytree-TipLabel" transform="translate(210.024,149.05)"><text x="15.0" y="3.066" style="fill:rgb(14.5%,14.5%,14.5%);fill-opacity:1.0">r4</text></g><g class="toytree-TipLabel" transform="translate(210.024,102.851)"><text x="15.0" y="3.066" style="fill:rgb(14.5%,14.5%,14.5%);fill-opacity:1.0">r2</text></g><g class="toytree-TipLabel" transform="translate(210.024,125.95)"><text x="15.0" y="3.066" style="fill:rgb(14.5%,14.5%,14.5%);fill-opacity:1.0">r3</text></g><g class="toytree-TipLabel" transform="translate(210.024,172.149)"><text x="15.0" y="3.066" style="fill:rgb(14.5%,14.5%,14.5%);fill-opacity:1.0">r5</text></g><g class="toytree-TipLabel" transform="translate(210.024,56.6526)"><text x="15.0" y="3.066" style="fill:rgb(14.5%,14.5%,14.5%);fill-opacity:1.0">r0</text></g><g class="toytree-TipLabel" transform="translate(210.024,79.7518)"><text x="15.0" y="3.066" style="fill:rgb(14.5%,14.5%,14.5%);fill-opacity:1.0">r1</text></g></g></g></g></g></svg>