<svg class="toyplot-canvas-Canvas" xmlns:toyplot="http://www.sandia.gov/toyplot" xmlns:xlink="http://www.w3.org/1999/xlink" xmlns="http://www.w3.org/2000/svg" width="300.0px" height="300.0px" viewBox="0 0 300.0 300.0" preserveAspectRatio="xMidYMid meet" style="background-color:transparent;border-color:#292724;border-style:none;border-width:1.0;fill:rgb(16.1%,15.3%,14.1%);fill-opacity:1.0;font-family:Helvetica;font-size:12px;opacity:1.0;stroke:rgb(16.1%,15.3%,14.1%);stroke-opacity:1.0;stroke-width:1.0" id="t9e9340932f0f4b0b98b811c590e02639"><g class="toyplot-coordinates-Table" id="tcf82cf306a664cf08a37cc26e4c71ac6"><rect x="50.0" y="50.0" width="25.0" height="25.0" style="fill:rgb(2%,18.8%,38%);fill-opacity:1.0;stroke:none" /><rect x="75.0" y="50.0" width="25.0" height="25.0" style="fill:rgb(86.2%,91.8%,94.9%);fill-opacity:1.0;stroke:none" /><rect x="100.0" y="50.0" width="25.0" height="25.0" style="fill:rgb(94%,60.8%,48%);fill-opacity:1.0;stroke:none" /><rect x="125.0" y="50.0" width="25.0" height="25.0" style="fill:rgb(94%,60.8%,48%);fill-opacity:1.0;stroke:none" /><rect x="150.0" y="50.0" width="25.0" height="25.0" style="fill:rgb(94%,60.8%,48%);fill-opacity:1.0;stroke:none" /><rect x="175.0" y="50.0" width="25.0" height="25.0" style="fill:rgb(75.9%,21.5%,22.6%);fill-opacity:1.0;stroke:none" /><rect x="200.0" y="50.0" width="25.0" height="25.0" style="fill:rgb(40.4%,0%,12.2%);fill-opacity:1.0;stroke:none" /><rect x="225.0" y="50.0" width="25.0" height="25.0" style="fill:rgb(40.4%,0%,12.2%);fill-opacity:1.0;stroke:none" /><rect x="50.0" y="75.0" width="25.0" height="25.0" style="fill:rgb(86.2%,91.8%,94.9%);fill-opacity:1.0;stroke:none" /><rect x="75.0" y="75.0" width="25.0" height="25.0" style="fill:rgb(2%,18.8%,38%);fill-opacity:1.0;stroke:none" /><rect x="100.0" y="75.0" width="25.0" height="25.0" style="fill:rgb(98.5%,89%,83.4%);fill-opacity:1.0;stroke:none" /><rect x="125.0" y="75.0" width="25.0" height="25.0" style="fill:rgb(98.5%,89%,83.4%);fill-opacity:1.0;stroke:none" /><rect x="150.0" y="75.0" width="25.0" height="25.0" style="fill:rgb(98.5%,89%,83.4%);fill-opacity:1.0;stroke:none" /><rect x="175.0" y="75.0" width="25.0" height="25.0" style="fill:rgb(94%,60.8%,48%);fill-opacity:1.0;stroke:none" /><rect x="200.0" y="75.0" width="25.0" height="25.0" style="fill:rgb(75.9%,21.5%,22.6%);fill-opacity:1.0;stroke:none" /><rect x="225.0" y="75.0" width="25.0" height="25.0" style="fill:rgb(75.9%,21.5%,22.6%);fill-opacity:1.0;stroke:none" /><rect x="50.0" y="100.0" width="25.0" height="25.0" style="fill:rgb(94%,60.8%,48%);fill-opacity:1.0;stroke:none" /><rect x="75.0" y="100.0" width="25.0" height="25.0" style="fill:rgb(98.5%,89%,83.4%);fill-opacity:1.0;stroke:none" /><rect x="100.0" y="100.0" width="25.0" height="25.0" style="fill:rgb(2%,18.8%,38%);fill-opacity:1.0;stroke:none" /><rect x="125.0" y="100.0" width="25.0" height="25.0" style="fill:rgb(52.8%,74.5%,85.5%);fill-opacity:1.0;stroke:none" /><rect x="150.0" y="100.0" width="25.0" height="25.0" style="fill:rgb(98.5%,89%,83.4%);fill-opacity:1.0;stroke:none" /><rect x="175.0" y="100.0" width="25.0" height="25.0" style="fill:rgb(94%,60.8%,48%);fill-opacity:1.0;stroke:none" /><rect x="200.0" y="100.0" width="25.0" height="25.0" style="fill:rgb(75.9%,21.5%,22.6%);fill-opacity:1.0;stroke:none" /><rect x="225.0" y="100.0" width="25.0" height="25.0" style="fill:rgb(75.9%,21.5%,22.6%);fill-opacity:1.0;stroke:none" /><rect x="50.0" y="125.0" width="25.0" height="25.0" style="fill:rgb(94%,60.8%,48%);fill-opacity:1.0;stroke:none" /><rect x="75.0" y="125.0" width="25.0" height="25.0" style="fill:rgb(98.5%,89%,83.4%);fill-opacity:1.0;stroke:none" /><rect x="100.0" y="125.0" width="25.0" height="25.0" style="fill:rgb(52.8%,74.5%,85.5%);fill-opacity:1.0;stroke:none" /><rect x="125.0" y="125.0" width="25.0" height="25.0" style="fill:rgb(2%,18.8%,38%);fill-opacity:1.0;stroke:none" /><rect x="150.0" y="125.0" width="25.0" height="25.0" style="fill:rgb(98.5%,89%,83.4%);fill-opacity:1.0;stroke:none" /><rect x="175.0" y="125.0" width="25.0" height="25.0" style="fill:rgb(94%,60.8%,48%);fill-opacity:1.0;stroke:none" /><rect x="200.0" y="125.0" width="25.0" height="25.0" style="fill:rgb(75.9%,21.5%,22.6%);fill-opacity:1.0;stroke:none" /><rect x="225.0" y="125.0" width="25.0" height="25.0" style="fill:rgb(75.9%,21.5%,22.6%);fill-opacity:1.0;stroke:none" /><rect x="50.0" y="150.0" width="25.0" height="25.0" style="fill:rgb(94%,60.8%,48%);fill-opacity:1.0;stroke:none" /><rect x="75.0" y="150.0" width="25.0" height="25.0" style="fill:rgb(98.5%,89%,83.4%);fill-opacity:1.0;stroke:none" /><rect x="100.0" y="150.0" width="25.0" height="25.0" style="fill:rgb(98.5%,89%,83.4%);fill-opacity:1.0;stroke:none" /><rect x="125.0" y="150.0" width="25.0" height="25.0" style="fill:rgb(98.5%,89%,83.4%);fill-opacity:1.0;stroke:none" /><rect x="150.0" y="150.0" width="25.0" height="25.0" style="fill:rgb(2%,18.8%,38%);fill-opacity:1.0;stroke:none" /><rect x="175.0" y="150.0" width="25.0" height="25.0" style="fill:rgb(86.2%,91.8%,94.9%);fill-opacity:1.0;stroke:none" /><rect x="200.0" y="150.0" width="25.0" height="25.0" style="fill:rgb(98.5%,89%,83.4%);fill-opacity:1.0;stroke:none" /><rect x="225.0" y="150.0" width="25.0" height="25.0" style="fill:rgb(98.5%,89%,83.4%);fill-opacity:1.0;stroke:none" /><rect x="50.0" y="175.0" width="25.0" height="25.0" style="fill:rgb(75.9%,21.5%,22.6%);fill-opacity:1.0;stroke:none" /><rect x="75.0" y="175.0" width="25.0" height="25.0" style="fill:rgb(94%,60.8%,48%);fill-opacity:1.0;stroke:none" /><rect x="100.0" y="175.0" width="25.0" height="25.0" style="fill:rgb(94%,60.8%,48%);fill-opacity:1.0;stroke:none" /><rect x="125.0" y="175.0" width="25.0" height="25.0" style="fill:rgb(94%,60.8%,48%);fill-opacity:1.0;stroke:none" /><rect x="150.0" y="175.0" width="25.0" height="25.0" style="fill:rgb(86.2%,91.8%,94.9%);fill-opacity:1.0;stroke:none" /><rect x="175.0" y="175.0" width="25.0" height="25.0" style="fill:rgb(2%,18.8%,38%);fill-opacity:1.0;stroke:none" /><rect x="200.0" y="175.0" width="25.0" height="25.0" style="fill:rgb(86.2%,91.8%,94.9%);fill-opacity:1.0;stroke:none" /><rect x="225.0" y="175.0" width="25.0" height="25.0" style="fill:rgb(86.2%,91.8%,94.9%);fill-opacity:1.0;stroke:none" /><rect x="50.0" y="200.0" width="25.0" height="25.0" style="fill:rgb(40.4%,0%,12.2%);fill-opacity:1.0;stroke:none" /><rect x="75.0" y="200.0" width="25.0" height="25.0" style="fill:rgb(75.9%,21.5%,22.6%);fill-opacity:1.0;stroke:none" /><rect x="100.0" y="200.0" width="25.0" height="25.0" style="fill:rgb(75.9%,21.5%,22.6%);fill-opacity:1.0;stroke:none" /><rect x="125.0" y="200.0" width="25.0" height="25.0" style="fill:rgb(75.9%,21.5%,22.6%);fill-opacity:1.0;stroke:none" /><rect x="150.0" y="200.0" width="25.0" height="25.0" style="fill:rgb(98.5%,89%,83.4%);fill-opacity:1.0;stroke:none" /><rect x="175.0" y="200.0" width="25.0" height="25.0" style="fill:rgb(86.2%,91.8%,94.9%);fill-opacity:1.0;stroke:none" /><rect x="200.0" y="200.0" width="25.0" height="25.0" style="fill:rgb(2%,18.8%,38%);fill-opacity:1.0;stroke:none" /><rect x="225.0" y="200.0" width="25.0" height="25.0" style="fill:rgb(52.8%,74.5%,85.5%);fill-opacity:1.0;stroke:none" /><rect x="50.0" y="225.0" width="25.0" height="25.0" style="fill:rgb(40.4%,0%,12.2%);fill-opacity:1.0;stroke:none" /><rect x="75.0" y="225.0" width="25.0" height="25.0" style="fill:rgb(75.9%,21.5%,22.6%);fill-opacity:1.0;stroke:none" /><rect x="100.0" y="225.0" width="25.0" height="25.0" style="fill:rgb(75.9%,21.5%,22.6%);fill-opacity:1.0;stroke:none" /><rect x="125.0" y="225.0" width="25.0" height="25.0" style="fill:rgb(75.9%,21.5%,22.6%);fill-opacity:1.0;stroke:none" /><rect x="150.0" y="225.0" width="25.0" height="25.0" style="fill:rgb(98.5%,89%,83.4%);fill-opacity:1.0;stroke:none" /><rect x="175.0" y="225.0" width="25.0" height="25.0" style="fill:rgb(86.2%,91.8%,94.9%);fill-opacity:1.0;stroke:none" /><rect x="200.0" y="225.0" width="25.0" height="25.0" style="fill:rgb(52.8%,74.5%,85.5%);fill-opacity:1.0;stroke:none" /><rect x="225.0" y="225.0" width="25.0" height="25.0" style="fill:rgb(2%,18.8%,38%);fill-opacity:1.0;stroke:none" /></g><g class="toyplot-coordinates-Cartesian" id="t7190c50400dc45bab47a5acd3b62e780"><clipPath id="tb92c1bf0bc8d44e487af557dc0b402a1"><rect x="50.0" y="50.0" width="200.0" height="200.0" /></clipPath><g clip-path="url(#tb92c1bf0bc8d44e487af557dc0b402a1)" /><g class="toyplot-coordinates-Axis" id="t3aae9e4ae7cb4a158362a4529df00b38" transform="translate(50.0,250.0)"><line x1="0" y1="0" x2="200.0" y2="0" style="stroke:rgb(0%,0%,0%);stroke-opacity:1.0;stroke-width:2" /><g class="toyplot-coordinates-Axis-coordinates" style="visibility:hidden" transform=""><line x1="0" x2="0" y1="-3.0" y2="4.5" style="stroke:rgb(43.9%,50.2%,56.5%);stroke-opacity:1.0;stroke-width:1.0" /><text x="0" y="-6" style="alignment-baseline:alphabetic;fill:rgb(43.9%,50.2%,56.5%);fill-opacity:1.0;font-size:10px;font-weight:normal;stroke:none;text-anchor:middle" /></g></g><g class="toyplot-coordinates-Axis" id="t69ed9b7052d34959bf5759abd5b66b91" transform="translate(50.0,250.0)rotate(-90.0)"><line x1="0" y1="0" x2="200.0" y2="0" style="stroke:rgb(0%,0%,0%);stroke-opacity:1.0;stroke-width:2" /><g class="toyplot-coordinates-Axis-coordinates" style="visibility:hidden" transform=""><line x1="0" x2="0" y1="3.0" y2="-4.5" style="stroke:rgb(43.9%,50.2%,56.5%);stroke-opacity:1.0;stroke-width:1.0" /><text x="0" y="6" style="alignment-baseline:hanging;fill:rgb(43.9%,50.2%,56.5%);fill-opacity:1.0;font-size:10px;font-weight:normal;stroke:none;text-anchor:middle" /></g></g></g><g class="toyplot-coordinates-Cartesian" id="tf1fa27dc0c5549d6ae808cb8f09a722d"><clipPath id="tded1cc4245134c9697ac96bf1c3f1219"><rect x="50.0" y="50.0" width="200.0" height="200.0" /></clipPath><g clip-path="url(#tded1cc4245134c9697ac96bf1c3f1219)" /><g class="toyplot-coordinates-Axis" id="tff9f573977874812b254ddbf62249455" transform="translate(250.0,250.0)rotate(-90.0)"><line x1="0" y1="0" x2="200.0" y2="0" style="stroke:rgb(0%,0%,0%);stroke-opacity:1.0;stroke-width:2" /><g class="toyplot-coordinates-Axis-coordinates" style="visibility:hidden" transform=""><line x1="0" x2="0" y1="-3.0" y2="4.5" style="stroke:rgb(43.9%,50.2%,56.5%);stroke-opacity:1.0;stroke-width:1.0" /><text x="0" y="-6" style="alignment-baseline:alphabetic;fill:rgb(43.9%,50.2%,56.5%);fill-opacity:1.0;font-size:10px;font-weight:normal;stroke:none;text-anchor:middle" /></g></g></g><g class="toyplot-coordinates-Cartesian" id="tfdd9e85fe38740c7a3a564bb4ec06fc3"><clipPath id="tb28aff0525934efcb26ffbdc5597863b"><rect x="50.0" y="50.0" width="200.0" height="200.0" /></clipPath><g clip-path="url(#tb28aff0525934efcb26ffbdc5597863b)" /><g class="toyplot-coordinates-Axis" id="t8293b17146d948a5913f270e8368816a" transform="translate(50.0,50.0)"><line x1="0" y1="0" x2="200.0" y2="0" style="stroke:rgb(0%,0%,0%);stroke-opacity:1.0;stroke-width:2" /><g class="toyplot-coordinates-Axis-coordinates" style="visibility:hidden" transform=""><line x1="0" x2="0" y1="3.0" y2="-4.5" style="stroke:rgb(43.9%,50.2%,56.5%);stroke-opacity:1.0;stroke-width:1.0" /><text x="0" y="6" style="alignment-baseline:hanging;fill:rgb(43.9%,50.2%,56.5%);fill-opacity:1.0;font-size:10px;font-weight:normal;stroke:none;text-anchor:middle" /></g></g></g></svg>