<svg class="toyplot-canvas-Canvas" xmlns:toyplot="http://www.sandia.gov/toyplot" xmlns:xlink="http://www.w3.org/1999/xlink" xmlns="http://www.w3.org/2000/svg" width="300.0px" height="275.0px" viewBox="0 0 300.0 275.0" preserveAspectRatio="xMidYMid meet" style="background-color:transparent;border-color:#292724;border-style:none;border-width:1.0;fill:rgb(16.1%,15.3%,14.1%);fill-opacity:1.0;font-family:Helvetica;font-size:12px;opacity:1.0;stroke:rgb(16.1%,15.3%,14.1%);stroke-opacity:1.0;stroke-width:1.0" id="tfa43399988c1423d9e6455b353c45570"><g class="toyplot-coordinates-Cartesian" id="t0c1e90d667904aeb88b25b0438ab80dd"><clipPath id="t0d12027348fc4ed7961c0c372578ac9a"><rect x="35.0" y="35.0" width="230.0" height="205.0" /></clipPath><g clip-path="url(#t0d12027348fc4ed7961c0c372578ac9a)"><g class="toytree-mark-Toytree" id="ta8d1eea6a5cd4d2f97218aebf171aa12"><g class="toytree-Edges" style="stroke:rgb(14.5%,14.5%,14.5%);stroke-opacity:1.0;stroke-linecap:round;stroke-width:2;fill:none"><path d="M 54.3 176.5 L 210.0 218.3" id="14,0" style="" /><path d="M 145.4 160.6 L 210.0 195.2" id="9,1" style="" /><path d="M 150.7 126.0 L 210.0 149.0" id="8,2" style="" /><path d="M 150.7 126.0 L 210.0 102.9" id="8,3" style="" /><path d="M 189.3 68.2 L 210.0 56.7" id="10,4" style="" /><path d="M 189.3 68.2 L 210.0 79.8" id="10,5" style="" /><path d="M 155.4 149.0 L 210.0 126.0" id="11,6" style="" /><path d="M 155.4 149.0 L 210.0 172.1" id="11,7" style="" /><path d="M 145.4 160.6 L 150.7 126.0" id="9,8" style="" /><path d="M 111.1 134.6 L 145.4 160.6" id="13,9" style="" /><path d="M 140.8 108.6 L 189.3 68.2" id="12,10" style="" /><path d="M 140.8 108.6 L 155.4 149.0" id="12,11" style="" /><path d="M 111.1 134.6 L 140.8 108.6" id="13,12" style="" /><path d="M 54.3 176.5 L 111.1 134.6" id="14,13" style="" /></g><g class="toytree-AlignEdges" style="stroke:rgb(66.0%,66.0%,66.0%);stroke-opacity:0.75;stroke-dasharray:2,4;stroke-linecap:round;stroke-width:2"><path d="M 210.0 218.3 L 210.0 218.3" /><path d="M 210.0 195.2 L 210.0 195.2" /><path d="M 210.0 149.0 L 210.0 149.0" /><path d="M 210.0 102.9 L 210.0 102.9" /><path d="M 210.0 56.7 L 210.0 56.7" /><path d="M 210.0 79.8 L 210.0 79.8" /><path d="M 210.0 126.0 L 210.0 126.0" /><path d="M 210.0 172.1 L 210.0 172.1" /></g><g class="toytree-AdmixEdges" style="fill:rgb(0.0%,0.0%,0.0%);fill-opacity:0.0;stroke:rgb(90.6%,54.1%,76.5%);stroke-opacity:0.6;font-size:14px;stroke-linecap:round;stroke-width:5" /><g class="toytree-Nodes" style="fill:rgb(10.6%,62.0%,46.7%);fill-opacity:1.0;stroke:rgb(100.0%,100.0%,100.0%);stroke-opacity:1.0;stroke-width:1.5"><g id="Node-8" transform="translate(150.672,125.95)"><circle r="4.0" /></g><g id="Node-9" transform="translate(145.374,160.599)"><circle r="4.0" /></g><g id="Node-10" transform="translate(189.252,68.2022)"><circle r="4.0" /></g><g id="Node-11" transform="translate(155.379,149.05)"><circle r="4.0" /></g><g id="Node-12" transform="translate(140.831,108.626)"><circle r="4.0" /></g><g id="Node-13" transform="translate(111.089,134.613)"><circle r="4.0" /></g><g id="Node-14" transform="translate(54.2829,176.48)"><circle r="4.0" /></g></g><g class="toytree-TipLabels" style="fill:rgb(14.5%,14.5%,14.5%);fill-opacity:1.0;font-family:Helvetica;font-size:12px;font-weight:300;vertical-align:baseline;white-space:pre;stroke:none"><g class="toytree-TipLabel" transform="translate(210.024,218.347)"><text x="15.0" y="3.066" style="fill:rgb(14.5%,14.5%,14.5%);fill-opacity:1.0">r7</text></g><g class="toytree-TipLabel" transform="translate(210.024,195.248)"><text x="15.0" y="3.066" style="fill:rgb(14.5%,14.5%,14.5%);fill-opacity:1.0">r6</text></g><g class="toytree-TipLabel" transform="translate(210.024,149.05)"><text x="15.0" y="3.066" style="fill:rgb(14.5%,14.5%,14.5%);fill-opacity:1.0">r4</text></g><g class="toytree-TipLabel" transform="translate(210.024,102.851)"><text x="15.0" y="3.066" style="fill:rgb(14.5%,14.5%,14.5%);fill-opacity:1.0">r2</text></g><g class="toytree-TipLabel" transform="translate(210.024,56.6526)"><text x="15.0" y="3.066" style="fill:rgb(14.5%,14.5%,14.5%);fill-opacity:1.0">r0</text></g><g class="toytree-TipLabel" transform="translate(210.024,79.7518)"><text x="15.0" y="3.066" style="fill:rgb(14.5%,14.5%,14.5%);fill-opacity:1.0">r1</text></g><g class="toytree-TipLabel" transform="translate(210.024,125.95)"><text x="15.0" y="3.066" style="fill:rgb(14.5%,14.5%,14.5%);fill-opacity:1.0">r3</text></g><g class="toytree-TipLabel" transform="translate(210.024,172.149)"><text x="15.0" y="3.066" style="fill:rgb(14.5%,14.5%,14.5%);fill-opacity:1.0">r5</text></g></g></g></g></g></svg>