<svg class="toyplot-canvas-Canvas" xmlns:toyplot="http://www.sandia.gov/toyplot" xmlns:xlink="http://www.w3.org/1999/xlink" xmlns="http://www.w3.org/2000/svg" width="300.0px" height="300.0px" viewBox="0 0 300.0 300.0" preserveAspectRatio="xMidYMid meet" style="background-color:transparent;border-color:#292724;border-style:none;border-width:1.0;fill:rgb(16.1%,15.3%,14.1%);fill-opacity:1.0;font-family:Helvetica;font-size:12px;opacity:1.0;stroke:rgb(16.1%,15.3%,14.1%);stroke-opacity:1.0;stroke-width:1.0" id="t60ab4a2a0115403f9576f04685e1c344"><g class="toyplot-coordinates-Table" id="t2ab67e7e18104c96a166ed1e7740729e"><rect x="50.0" y="50.0" width="25.0" height="25.0" style="fill:rgb(2%,18.8%,38%);fill-opacity:1.0;stroke:none" /><rect x="75.0" y="50.0" width="25.0" height="25.0" style="fill:rgb(98.5%,89%,83.4%);fill-opacity:1.0;stroke:none" /><rect x="100.0" y="50.0" width="25.0" height="25.0" style="fill:rgb(94%,60.8%,48%);fill-opacity:1.0;stroke:none" /><rect x="125.0" y="50.0" width="25.0" height="25.0" style="fill:rgb(75.9%,21.5%,22.6%);fill-opacity:1.0;stroke:none" /><rect x="150.0" y="50.0" width="25.0" height="25.0" style="fill:rgb(75.9%,21.5%,22.6%);fill-opacity:1.0;stroke:none" /><rect x="175.0" y="50.0" width="25.0" height="25.0" style="fill:rgb(98.5%,89%,83.4%);fill-opacity:1.0;stroke:none" /><rect x="200.0" y="50.0" width="25.0" height="25.0" style="fill:rgb(94%,60.8%,48%);fill-opacity:1.0;stroke:none" /><rect x="225.0" y="50.0" width="25.0" height="25.0" style="fill:rgb(94%,60.8%,48%);fill-opacity:1.0;stroke:none" /><rect x="50.0" y="75.0" width="25.0" height="25.0" style="fill:rgb(98.5%,89%,83.4%);fill-opacity:1.0;stroke:none" /><rect x="75.0" y="75.0" width="25.0" height="25.0" style="fill:rgb(2%,18.8%,38%);fill-opacity:1.0;stroke:none" /><rect x="100.0" y="75.0" width="25.0" height="25.0" style="fill:rgb(86.2%,91.8%,94.9%);fill-opacity:1.0;stroke:none" /><rect x="125.0" y="75.0" width="25.0" height="25.0" style="fill:rgb(98.5%,89%,83.4%);fill-opacity:1.0;stroke:none" /><rect x="150.0" y="75.0" width="25.0" height="25.0" style="fill:rgb(98.5%,89%,83.4%);fill-opacity:1.0;stroke:none" /><rect x="175.0" y="75.0" width="25.0" height="25.0" style="fill:rgb(98.5%,89%,83.4%);fill-opacity:1.0;stroke:none" /><rect x="200.0" y="75.0" width="25.0" height="25.0" style="fill:rgb(94%,60.8%,48%);fill-opacity:1.0;stroke:none" /><rect x="225.0" y="75.0" width="25.0" height="25.0" style="fill:rgb(94%,60.8%,48%);fill-opacity:1.0;stroke:none" /><rect x="50.0" y="100.0" width="25.0" height="25.0" style="fill:rgb(94%,60.8%,48%);fill-opacity:1.0;stroke:none" /><rect x="75.0" y="100.0" width="25.0" height="25.0" style="fill:rgb(86.2%,91.8%,94.9%);fill-opacity:1.0;stroke:none" /><rect x="100.0" y="100.0" width="25.0" height="25.0" style="fill:rgb(2%,18.8%,38%);fill-opacity:1.0;stroke:none" /><rect x="125.0" y="100.0" width="25.0" height="25.0" style="fill:rgb(86.2%,91.8%,94.9%);fill-opacity:1.0;stroke:none" /><rect x="150.0" y="100.0" width="25.0" height="25.0" style="fill:rgb(86.2%,91.8%,94.9%);fill-opacity:1.0;stroke:none" /><rect x="175.0" y="100.0" width="25.0" height="25.0" style="fill:rgb(94%,60.8%,48%);fill-opacity:1.0;stroke:none" /><rect x="200.0" y="100.0" width="25.0" height="25.0" style="fill:rgb(75.9%,21.5%,22.6%);fill-opacity:1.0;stroke:none" /><rect x="225.0" y="100.0" width="25.0" height="25.0" style="fill:rgb(75.9%,21.5%,22.6%);fill-opacity:1.0;stroke:none" /><rect x="50.0" y="125.0" width="25.0" height="25.0" style="fill:rgb(75.9%,21.5%,22.6%);fill-opacity:1.0;stroke:none" /><rect x="75.0" y="125.0" width="25.0" height="25.0" style="fill:rgb(98.5%,89%,83.4%);fill-opacity:1.0;stroke:none" /><rect x="100.0" y="125.0" width="25.0" height="25.0" style="fill:rgb(86.2%,91.8%,94.9%);fill-opacity:1.0;stroke:none" /><rect x="125.0" y="125.0" width="25.0" height="25.0" style="fill:rgb(2%,18.8%,38%);fill-opacity:1.0;stroke:none" /><rect x="150.0" y="125.0" width="25.0" height="25.0" style="fill:rgb(52.8%,74.5%,85.5%);fill-opacity:1.0;stroke:none" /><rect x="175.0" y="125.0" width="25.0" height="25.0" style="fill:rgb(75.9%,21.5%,22.6%);fill-opacity:1.0;stroke:none" /><rect x="200.0" y="125.0" width="25.0" height="25.0" style="fill:rgb(40.4%,0%,12.2%);fill-opacity:1.0;stroke:none" /><rect x="225.0" y="125.0" width="25.0" height="25.0" style="fill:rgb(40.4%,0%,12.2%);fill-opacity:1.0;stroke:none" /><rect x="50.0" y="150.0" width="25.0" height="25.0" style="fill:rgb(75.9%,21.5%,22.6%);fill-opacity:1.0;stroke:none" /><rect x="75.0" y="150.0" width="25.0" height="25.0" style="fill:rgb(98.5%,89%,83.4%);fill-opacity:1.0;stroke:none" /><rect x="100.0" y="150.0" width="25.0" height="25.0" style="fill:rgb(86.2%,91.8%,94.9%);fill-opacity:1.0;stroke:none" /><rect x="125.0" y="150.0" width="25.0" height="25.0" style="fill:rgb(52.8%,74.5%,85.5%);fill-opacity:1.0;stroke:none" /><rect x="150.0" y="150.0" width="25.0" height="25.0" style="fill:rgb(2%,18.8%,38%);fill-opacity:1.0;stroke:none" /><rect x="175.0" y="150.0" width="25.0" height="25.0" style="fill:rgb(75.9%,21.5%,22.6%);fill-opacity:1.0;stroke:none" /><rect x="200.0" y="150.0" width="25.0" height="25.0" style="fill:rgb(40.4%,0%,12.2%);fill-opacity:1.0;stroke:none" /><rect x="225.0" y="150.0" width="25.0" height="25.0" style="fill:rgb(40.4%,0%,12.2%);fill-opacity:1.0;stroke:none" /><rect x="50.0" y="175.0" width="25.0" height="25.0" style="fill:rgb(98.5%,89%,83.4%);fill-opacity:1.0;stroke:none" /><rect x="75.0" y="175.0" width="25.0" height="25.0" style="fill:rgb(98.5%,89%,83.4%);fill-opacity:1.0;stroke:none" /><rect x="100.0" y="175.0" width="25.0" height="25.0" style="fill:rgb(94%,60.8%,48%);fill-opacity:1.0;stroke:none" /><rect x="125.0" y="175.0" width="25.0" height="25.0" style="fill:rgb(75.9%,21.5%,22.6%);fill-opacity:1.0;stroke:none" /><rect x="150.0" y="175.0" width="25.0" height="25.0" style="fill:rgb(75.9%,21.5%,22.6%);fill-opacity:1.0;stroke:none" /><rect x="175.0" y="175.0" width="25.0" height="25.0" style="fill:rgb(2%,18.8%,38%);fill-opacity:1.0;stroke:none" /><rect x="200.0" y="175.0" width="25.0" height="25.0" style="fill:rgb(86.2%,91.8%,94.9%);fill-opacity:1.0;stroke:none" /><rect x="225.0" y="175.0" width="25.0" height="25.0" style="fill:rgb(86.2%,91.8%,94.9%);fill-opacity:1.0;stroke:none" /><rect x="50.0" y="200.0" width="25.0" height="25.0" style="fill:rgb(94%,60.8%,48%);fill-opacity:1.0;stroke:none" /><rect x="75.0" y="200.0" width="25.0" height="25.0" style="fill:rgb(94%,60.8%,48%);fill-opacity:1.0;stroke:none" /><rect x="100.0" y="200.0" width="25.0" height="25.0" style="fill:rgb(75.9%,21.5%,22.6%);fill-opacity:1.0;stroke:none" /><rect x="125.0" y="200.0" width="25.0" height="25.0" style="fill:rgb(40.4%,0%,12.2%);fill-opacity:1.0;stroke:none" /><rect x="150.0" y="200.0" width="25.0" height="25.0" style="fill:rgb(40.4%,0%,12.2%);fill-opacity:1.0;stroke:none" /><rect x="175.0" y="200.0" width="25.0" height="25.0" style="fill:rgb(86.2%,91.8%,94.9%);fill-opacity:1.0;stroke:none" /><rect x="200.0" y="200.0" width="25.0" height="25.0" style="fill:rgb(2%,18.8%,38%);fill-opacity:1.0;stroke:none" /><rect x="225.0" y="200.0" width="25.0" height="25.0" style="fill:rgb(52.8%,74.5%,85.5%);fill-opacity:1.0;stroke:none" /><rect x="50.0" y="225.0" width="25.0" height="25.0" style="fill:rgb(94%,60.8%,48%);fill-opacity:1.0;stroke:none" /><rect x="75.0" y="225.0" width="25.0" height="25.0" style="fill:rgb(94%,60.8%,48%);fill-opacity:1.0;stroke:none" /><rect x="100.0" y="225.0" width="25.0" height="25.0" style="fill:rgb(75.9%,21.5%,22.6%);fill-opacity:1.0;stroke:none" /><rect x="125.0" y="225.0" width="25.0" height="25.0" style="fill:rgb(40.4%,0%,12.2%);fill-opacity:1.0;stroke:none" /><rect x="150.0" y="225.0" width="25.0" height="25.0" style="fill:rgb(40.4%,0%,12.2%);fill-opacity:1.0;stroke:none" /><rect x="175.0" y="225.0" width="25.0" height="25.0" style="fill:rgb(86.2%,91.8%,94.9%);fill-opacity:1.0;stroke:none" /><rect x="200.0" y="225.0" width="25.0" height="25.0" style="fill:rgb(52.8%,74.5%,85.5%);fill-opacity:1.0;stroke:none" /><rect x="225.0" y="225.0" width="25.0" height="25.0" style="fill:rgb(2%,18.8%,38%);fill-opacity:1.0;stroke:none" /></g><g class="toyplot-coordinates-Cartesian" id="tc0f15a528da54337b016e155c05d36f4"><clipPath id="td86c4f2d404349269ddc769bc293d2c7"><rect x="50.0" y="50.0" width="200.0" height="200.0" /></clipPath><g clip-path="url(#td86c4f2d404349269ddc769bc293d2c7)" /><g class="toyplot-coordinates-Axis" id="t828b79423ee14c1192559e3e259ec86c" transform="translate(50.0,250.0)"><line x1="0" y1="0" x2="200.0" y2="0" style="stroke:rgb(0%,0%,0%);stroke-opacity:1.0;stroke-width:2" /><g class="toyplot-coordinates-Axis-coordinates" style="visibility:hidden" transform=""><line x1="0" x2="0" y1="-3.0" y2="4.5" style="stroke:rgb(43.9%,50.2%,56.5%);stroke-opacity:1.0;stroke-width:1.0" /><text x="0" y="-6" style="alignment-baseline:alphabetic;fill:rgb(43.9%,50.2%,56.5%);fill-opacity:1.0;font-size:10px;font-weight:normal;stroke:none;text-anchor:middle" /></g></g><g class="toyplot-coordinates-Axis" id="t8327f5d9b1434a25929611f61b25ab95" transform="translate(50.0,250.0)rotate(-90.0)"><line x1="0" y1="0" x2="200.0" y2="0" style="stroke:rgb(0%,0%,0%);stroke-opacity:1.0;stroke-width:2" /><g class="toyplot-coordinates-Axis-coordinates" style="visibility:hidden" transform=""><line x1="0" x2="0" y1="3.0" y2="-4.5" style="stroke:rgb(43.9%,50.2%,56.5%);stroke-opacity:1.0;stroke-width:1.0" /><text x="0" y="6" style="alignment-baseline:hanging;fill:rgb(43.9%,50.2%,56.5%);fill-opacity:1.0;font-size:10px;font-weight:normal;stroke:none;text-anchor:middle" /></g></g></g><g class="toyplot-coordinates-Cartesian" id="t15b0354cb82c4ee691f20e4b756d300f"><clipPath id="t730e5831f6da4c4d824be10ac1ee66dc"><rect x="50.0" y="50.0" width="200.0" height="200.0" /></clipPath><g clip-path="url(#t730e5831f6da4c4d824be10ac1ee66dc)" /><g class="toyplot-coordinates-Axis" id="t1c07358afdf24c87a88840f709bdd894" transform="translate(250.0,250.0)rotate(-90.0)"><line x1="0" y1="0" x2="200.0" y2="0" style="stroke:rgb(0%,0%,0%);stroke-opacity:1.0;stroke-width:2" /><g class="toyplot-coordinates-Axis-coordinates" style="visibility:hidden" transform=""><line x1="0" x2="0" y1="-3.0" y2="4.5" style="stroke:rgb(43.9%,50.2%,56.5%);stroke-opacity:1.0;stroke-width:1.0" /><text x="0" y="-6" style="alignment-baseline:alphabetic;fill:rgb(43.9%,50.2%,56.5%);fill-opacity:1.0;font-size:10px;font-weight:normal;stroke:none;text-anchor:middle" /></g></g></g><g class="toyplot-coordinates-Cartesian" id="tfec8dbd250824f82aacfda42f9ce52ef"><clipPath id="t21797bede5494afca484f4584680b54b"><rect x="50.0" y="50.0" width="200.0" height="200.0" /></clipPath><g clip-path="url(#t21797bede5494afca484f4584680b54b)" /><g class="toyplot-coordinates-Axis" id="t957950f642a24b7ab3eccdc32affe359" transform="translate(50.0,50.0)"><line x1="0" y1="0" x2="200.0" y2="0" style="stroke:rgb(0%,0%,0%);stroke-opacity:1.0;stroke-width:2" /><g class="toyplot-coordinates-Axis-coordinates" style="visibility:hidden" transform=""><line x1="0" x2="0" y1="3.0" y2="-4.5" style="stroke:rgb(43.9%,50.2%,56.5%);stroke-opacity:1.0;stroke-width:1.0" /><text x="0" y="6" style="alignment-baseline:hanging;fill:rgb(43.9%,50.2%,56.5%);fill-opacity:1.0;font-size:10px;font-weight:normal;stroke:none;text-anchor:middle" /></g></g></g></svg>