<svg class="toyplot-canvas-Canvas" xmlns:toyplot="http://www.sandia.gov/toyplot" xmlns:xlink="http://www.w3.org/1999/xlink" xmlns="http://www.w3.org/2000/svg" width="300.0px" height="275.0px" viewBox="0 0 300.0 275.0" preserveAspectRatio="xMidYMid meet" style="background-color:transparent;border-color:#292724;border-style:none;border-width:1.0;fill:rgb(16.1%,15.3%,14.1%);fill-opacity:1.0;font-family:Helvetica;font-size:12px;opacity:1.0;stroke:rgb(16.1%,15.3%,14.1%);stroke-opacity:1.0;stroke-width:1.0" id="t2d1bfaef86574771917505578b353711"><g class="toyplot-coordinates-Cartesian" id="t8a18701233a34e759455563eb0642b9a"><clipPath id="t7e147f0f20584181be6bf6d9a8449c5c"><rect x="35.0" y="35.0" width="230.0" height="205.0" /></clipPath><g clip-path="url(#t7e147f0f20584181be6bf6d9a8449c5c)"><g class="toytree-mark-Toytree" id="t8ae0cbf58baa4ffe8c073a51971e7562"><g class="toytree-Edges" style="stroke:rgb(14.5%,14.5%,14.5%);stroke-opacity:1.0;stroke-linecap:round;stroke-width:2;fill:none"><path d="M 156.6 166.4 L 210.0 218.3" id="9,0" style="" /><path d="M 166.4 114.4 L 210.0 102.9" id="8,1" style="" /><path d="M 166.4 114.4 L 210.0 126.0" id="8,2" style="" /><path d="M 150.8 157.7 L 210.0 149.0" id="10,3" style="" /><path d="M 139.6 151.9 L 210.0 172.1" id="13,4" style="" /><path d="M 165.2 131.7 L 210.0 195.2" id="12,5" style="" /><path d="M 197.6 68.2 L 210.0 56.7" id="11,6" style="" /><path d="M 197.6 68.2 L 210.0 79.8" id="11,7" style="" /><path d="M 156.6 166.4 L 166.4 114.4" id="9,8" style="" /><path d="M 150.8 157.7 L 156.6 166.4" id="10,9" style="" /><path d="M 54.3 154.8 L 150.8 157.7" id="14,10" style="" /><path d="M 165.2 131.7 L 197.6 68.2" id="12,11" style="" /><path d="M 139.6 151.9 L 165.2 131.7" id="13,12" style="" /><path d="M 54.3 154.8 L 139.6 151.9" id="14,13" style="" /></g><g class="toytree-AlignEdges" style="stroke:rgb(66.0%,66.0%,66.0%);stroke-opacity:0.75;stroke-dasharray:2,4;stroke-linecap:round;stroke-width:2"><path d="M 210.0 218.3 L 210.0 218.3" /><path d="M 210.0 102.9 L 210.0 102.9" /><path d="M 210.0 126.0 L 210.0 126.0" /><path d="M 210.0 149.0 L 210.0 149.0" /><path d="M 210.0 172.1 L 210.0 172.1" /><path d="M 210.0 195.2 L 210.0 195.2" /><path d="M 210.0 56.7 L 210.0 56.7" /><path d="M 210.0 79.8 L 210.0 79.8" /></g><g class="toytree-AdmixEdges" style="fill:rgb(0.0%,0.0%,0.0%);fill-opacity:0.0;stroke:rgb(90.6%,54.1%,76.5%);stroke-opacity:0.6;font-size:14px;stroke-linecap:round;stroke-width:5" /><g class="toytree-Nodes" style="fill:rgb(10.6%,62.0%,46.7%);fill-opacity:1.0;stroke:rgb(100.0%,100.0%,100.0%);stroke-opacity:1.0;stroke-width:1.5"><g id="Node-8" transform="translate(166.439,114.401)"><circle r="4.0" /></g><g id="Node-9" transform="translate(156.646,166.374)"><circle r="4.0" /></g><g id="Node-10" transform="translate(150.779,157.712)"><circle r="4.0" /></g><g id="Node-11" transform="translate(197.554,68.2022)"><circle r="4.0" /></g><g id="Node-12" transform="translate(165.211,131.725)"><circle r="4.0" /></g><g id="Node-13" transform="translate(139.639,151.937)"><circle r="4.0" /></g><g id="Node-14" transform="translate(54.2829,154.824)"><circle r="4.0" /></g></g><g class="toytree-TipLabels" style="fill:rgb(14.5%,14.5%,14.5%);fill-opacity:1.0;font-family:Helvetica;font-size:12px;font-weight:300;vertical-align:baseline;white-space:pre;stroke:none"><g class="toytree-TipLabel" transform="translate(210.024,218.347)"><text x="15.0" y="3.066" style="fill:rgb(14.5%,14.5%,14.5%);fill-opacity:1.0">r7</text></g><g class="toytree-TipLabel" transform="translate(210.024,102.851)"><text x="15.0" y="3.066" style="fill:rgb(14.5%,14.5%,14.5%);fill-opacity:1.0">r2</text></g><g class="toytree-TipLabel" transform="translate(210.024,125.95)"><text x="15.0" y="3.066" style="fill:rgb(14.5%,14.5%,14.5%);fill-opacity:1.0">r3</text></g><g class="toytree-TipLabel" transform="translate(210.024,149.05)"><text x="15.0" y="3.066" style="fill:rgb(14.5%,14.5%,14.5%);fill-opacity:1.0">r4</text></g><g class="toytree-TipLabel" transform="translate(210.024,172.149)"><text x="15.0" y="3.066" style="fill:rgb(14.5%,14.5%,14.5%);fill-opacity:1.0">r5</text></g><g class="toytree-TipLabel" transform="translate(210.024,195.248)"><text x="15.0" y="3.066" style="fill:rgb(14.5%,14.5%,14.5%);fill-opacity:1.0">r6</text></g><g class="toytree-TipLabel" transform="translate(210.024,56.6526)"><text x="15.0" y="3.066" style="fill:rgb(14.5%,14.5%,14.5%);fill-opacity:1.0">r0</text></g><g class="toytree-TipLabel" transform="translate(210.024,79.7518)"><text x="15.0" y="3.066" style="fill:rgb(14.5%,14.5%,14.5%);fill-opacity:1.0">r1</text></g></g></g></g></g></svg>