<svg class="toyplot-canvas-Canvas" xmlns:toyplot="http://www.sandia.gov/toyplot" xmlns:xlink="http://www.w3.org/1999/xlink" xmlns="http://www.w3.org/2000/svg" width="300.0px" height="300.0px" viewBox="0 0 300.0 300.0" preserveAspectRatio="xMidYMid meet" style="background-color:transparent;border-color:#292724;border-style:none;border-width:1.0;fill:rgb(16.1%,15.3%,14.1%);fill-opacity:1.0;font-family:Helvetica;font-size:12px;opacity:1.0;stroke:rgb(16.1%,15.3%,14.1%);stroke-opacity:1.0;stroke-width:1.0" id="t23b641d5a03a47cf9a514064e9200ebc"><g class="toyplot-coordinates-Table" id="t16e16e8d28b449f48a0453258a1cabce"><rect x="50.0" y="50.0" width="25.0" height="25.0" style="fill:rgb(2%,18.8%,38%);fill-opacity:1.0;stroke:none" /><rect x="75.0" y="50.0" width="25.0" height="25.0" style="fill:rgb(75.8%,86.7%,92.4%);fill-opacity:1.0;stroke:none" /><rect x="100.0" y="50.0" width="25.0" height="25.0" style="fill:rgb(96.9%,96.9%,96.9%);fill-opacity:1.0;stroke:none" /><rect x="125.0" y="50.0" width="25.0" height="25.0" style="fill:rgb(96.9%,96.9%,96.9%);fill-opacity:1.0;stroke:none" /><rect x="150.0" y="50.0" width="25.0" height="25.0" style="fill:rgb(96.9%,96.9%,96.9%);fill-opacity:1.0;stroke:none" /><rect x="175.0" y="50.0" width="25.0" height="25.0" style="fill:rgb(98.3%,80.6%,71.3%);fill-opacity:1.0;stroke:none" /><rect x="200.0" y="50.0" width="25.0" height="25.0" style="fill:rgb(89.8%,51.2%,40.6%);fill-opacity:1.0;stroke:none" /><rect x="225.0" y="50.0" width="25.0" height="25.0" style="fill:rgb(89.8%,51.2%,40.6%);fill-opacity:1.0;stroke:none" /><rect x="50.0" y="75.0" width="25.0" height="25.0" style="fill:rgb(75.8%,86.7%,92.4%);fill-opacity:1.0;stroke:none" /><rect x="75.0" y="75.0" width="25.0" height="25.0" style="fill:rgb(2%,18.8%,38%);fill-opacity:1.0;stroke:none" /><rect x="100.0" y="75.0" width="25.0" height="25.0" style="fill:rgb(75.8%,86.7%,92.4%);fill-opacity:1.0;stroke:none" /><rect x="125.0" y="75.0" width="25.0" height="25.0" style="fill:rgb(75.8%,86.7%,92.4%);fill-opacity:1.0;stroke:none" /><rect x="150.0" y="75.0" width="25.0" height="25.0" style="fill:rgb(98.3%,80.6%,71.3%);fill-opacity:1.0;stroke:none" /><rect x="175.0" y="75.0" width="25.0" height="25.0" style="fill:rgb(89.8%,51.2%,40.6%);fill-opacity:1.0;stroke:none" /><rect x="200.0" y="75.0" width="25.0" height="25.0" style="fill:rgb(73.3%,16.5%,20.2%);fill-opacity:1.0;stroke:none" /><rect x="225.0" y="75.0" width="25.0" height="25.0" style="fill:rgb(73.3%,16.5%,20.2%);fill-opacity:1.0;stroke:none" /><rect x="50.0" y="100.0" width="25.0" height="25.0" style="fill:rgb(96.9%,96.9%,96.9%);fill-opacity:1.0;stroke:none" /><rect x="75.0" y="100.0" width="25.0" height="25.0" style="fill:rgb(75.8%,86.7%,92.4%);fill-opacity:1.0;stroke:none" /><rect x="100.0" y="100.0" width="25.0" height="25.0" style="fill:rgb(2%,18.8%,38%);fill-opacity:1.0;stroke:none" /><rect x="125.0" y="100.0" width="25.0" height="25.0" style="fill:rgb(41.8%,67.5%,81.8%);fill-opacity:1.0;stroke:none" /><rect x="150.0" y="100.0" width="25.0" height="25.0" style="fill:rgb(89.8%,51.2%,40.6%);fill-opacity:1.0;stroke:none" /><rect x="175.0" y="100.0" width="25.0" height="25.0" style="fill:rgb(73.3%,16.5%,20.2%);fill-opacity:1.0;stroke:none" /><rect x="200.0" y="100.0" width="25.0" height="25.0" style="fill:rgb(40.4%,0%,12.2%);fill-opacity:1.0;stroke:none" /><rect x="225.0" y="100.0" width="25.0" height="25.0" style="fill:rgb(40.4%,0%,12.2%);fill-opacity:1.0;stroke:none" /><rect x="50.0" y="125.0" width="25.0" height="25.0" style="fill:rgb(96.9%,96.9%,96.9%);fill-opacity:1.0;stroke:none" /><rect x="75.0" y="125.0" width="25.0" height="25.0" style="fill:rgb(75.8%,86.7%,92.4%);fill-opacity:1.0;stroke:none" /><rect x="100.0" y="125.0" width="25.0" height="25.0" style="fill:rgb(41.8%,67.5%,81.8%);fill-opacity:1.0;stroke:none" /><rect x="125.0" y="125.0" width="25.0" height="25.0" style="fill:rgb(2%,18.8%,38%);fill-opacity:1.0;stroke:none" /><rect x="150.0" y="125.0" width="25.0" height="25.0" style="fill:rgb(89.8%,51.2%,40.6%);fill-opacity:1.0;stroke:none" /><rect x="175.0" y="125.0" width="25.0" height="25.0" style="fill:rgb(73.3%,16.5%,20.2%);fill-opacity:1.0;stroke:none" /><rect x="200.0" y="125.0" width="25.0" height="25.0" style="fill:rgb(40.4%,0%,12.2%);fill-opacity:1.0;stroke:none" /><rect x="225.0" y="125.0" width="25.0" height="25.0" style="fill:rgb(40.4%,0%,12.2%);fill-opacity:1.0;stroke:none" /><rect x="50.0" y="150.0" width="25.0" height="25.0" style="fill:rgb(96.9%,96.9%,96.9%);fill-opacity:1.0;stroke:none" /><rect x="75.0" y="150.0" width="25.0" height="25.0" style="fill:rgb(98.3%,80.6%,71.3%);fill-opacity:1.0;stroke:none" /><rect x="100.0" y="150.0" width="25.0" height="25.0" style="fill:rgb(89.8%,51.2%,40.6%);fill-opacity:1.0;stroke:none" /><rect x="125.0" y="150.0" width="25.0" height="25.0" style="fill:rgb(89.8%,51.2%,40.6%);fill-opacity:1.0;stroke:none" /><rect x="150.0" y="150.0" width="25.0" height="25.0" style="fill:rgb(2%,18.8%,38%);fill-opacity:1.0;stroke:none" /><rect x="175.0" y="150.0" width="25.0" height="25.0" style="fill:rgb(75.8%,86.7%,92.4%);fill-opacity:1.0;stroke:none" /><rect x="200.0" y="150.0" width="25.0" height="25.0" style="fill:rgb(96.9%,96.9%,96.9%);fill-opacity:1.0;stroke:none" /><rect x="225.0" y="150.0" width="25.0" height="25.0" style="fill:rgb(96.9%,96.9%,96.9%);fill-opacity:1.0;stroke:none" /><rect x="50.0" y="175.0" width="25.0" height="25.0" style="fill:rgb(98.3%,80.6%,71.3%);fill-opacity:1.0;stroke:none" /><rect x="75.0" y="175.0" width="25.0" height="25.0" style="fill:rgb(89.8%,51.2%,40.6%);fill-opacity:1.0;stroke:none" /><rect x="100.0" y="175.0" width="25.0" height="25.0" style="fill:rgb(73.3%,16.5%,20.2%);fill-opacity:1.0;stroke:none" /><rect x="125.0" y="175.0" width="25.0" height="25.0" style="fill:rgb(73.3%,16.5%,20.2%);fill-opacity:1.0;stroke:none" /><rect x="150.0" y="175.0" width="25.0" height="25.0" style="fill:rgb(75.8%,86.7%,92.4%);fill-opacity:1.0;stroke:none" /><rect x="175.0" y="175.0" width="25.0" height="25.0" style="fill:rgb(2%,18.8%,38%);fill-opacity:1.0;stroke:none" /><rect x="200.0" y="175.0" width="25.0" height="25.0" style="fill:rgb(75.8%,86.7%,92.4%);fill-opacity:1.0;stroke:none" /><rect x="225.0" y="175.0" width="25.0" height="25.0" style="fill:rgb(75.8%,86.7%,92.4%);fill-opacity:1.0;stroke:none" /><rect x="50.0" y="200.0" width="25.0" height="25.0" style="fill:rgb(89.8%,51.2%,40.6%);fill-opacity:1.0;stroke:none" /><rect x="75.0" y="200.0" width="25.0" height="25.0" style="fill:rgb(73.3%,16.5%,20.2%);fill-opacity:1.0;stroke:none" /><rect x="100.0" y="200.0" width="25.0" height="25.0" style="fill:rgb(40.4%,0%,12.2%);fill-opacity:1.0;stroke:none" /><rect x="125.0" y="200.0" width="25.0" height="25.0" style="fill:rgb(40.4%,0%,12.2%);fill-opacity:1.0;stroke:none" /><rect x="150.0" y="200.0" width="25.0" height="25.0" style="fill:rgb(96.9%,96.9%,96.9%);fill-opacity:1.0;stroke:none" /><rect x="175.0" y="200.0" width="25.0" height="25.0" style="fill:rgb(75.8%,86.7%,92.4%);fill-opacity:1.0;stroke:none" /><rect x="200.0" y="200.0" width="25.0" height="25.0" style="fill:rgb(2%,18.8%,38%);fill-opacity:1.0;stroke:none" /><rect x="225.0" y="200.0" width="25.0" height="25.0" style="fill:rgb(41.8%,67.5%,81.8%);fill-opacity:1.0;stroke:none" /><rect x="50.0" y="225.0" width="25.0" height="25.0" style="fill:rgb(89.8%,51.2%,40.6%);fill-opacity:1.0;stroke:none" /><rect x="75.0" y="225.0" width="25.0" height="25.0" style="fill:rgb(73.3%,16.5%,20.2%);fill-opacity:1.0;stroke:none" /><rect x="100.0" y="225.0" width="25.0" height="25.0" style="fill:rgb(40.4%,0%,12.2%);fill-opacity:1.0;stroke:none" /><rect x="125.0" y="225.0" width="25.0" height="25.0" style="fill:rgb(40.4%,0%,12.2%);fill-opacity:1.0;stroke:none" /><rect x="150.0" y="225.0" width="25.0" height="25.0" style="fill:rgb(96.9%,96.9%,96.9%);fill-opacity:1.0;stroke:none" /><rect x="175.0" y="225.0" width="25.0" height="25.0" style="fill:rgb(75.8%,86.7%,92.4%);fill-opacity:1.0;stroke:none" /><rect x="200.0" y="225.0" width="25.0" height="25.0" style="fill:rgb(41.8%,67.5%,81.8%);fill-opacity:1.0;stroke:none" /><rect x="225.0" y="225.0" width="25.0" height="25.0" style="fill:rgb(2%,18.8%,38%);fill-opacity:1.0;stroke:none" /></g><g class="toyplot-coordinates-Cartesian" id="t9869d4b9bff94581a583e892f3b45c57"><clipPath id="tec392fbb00ef436c958d389dd9cae321"><rect x="50.0" y="50.0" width="200.0" height="200.0" /></clipPath><g clip-path="url(#tec392fbb00ef436c958d389dd9cae321)" /><g class="toyplot-coordinates-Axis" id="ta5f76b80a9f14923824f73ff673c7051" transform="translate(50.0,250.0)"><line x1="0" y1="0" x2="200.0" y2="0" style="stroke:rgb(0%,0%,0%);stroke-opacity:1.0;stroke-width:2" /><g class="toyplot-coordinates-Axis-coordinates" style="visibility:hidden" transform=""><line x1="0" x2="0" y1="-3.0" y2="4.5" style="stroke:rgb(43.9%,50.2%,56.5%);stroke-opacity:1.0;stroke-width:1.0" /><text x="0" y="-6" style="alignment-baseline:alphabetic;fill:rgb(43.9%,50.2%,56.5%);fill-opacity:1.0;font-size:10px;font-weight:normal;stroke:none;text-anchor:middle" /></g></g><g class="toyplot-coordinates-Axis" id="tc7f2fb830cf54c1caade4999608b9353" transform="translate(50.0,250.0)rotate(-90.0)"><line x1="0" y1="0" x2="200.0" y2="0" style="stroke:rgb(0%,0%,0%);stroke-opacity:1.0;stroke-width:2" /><g class="toyplot-coordinates-Axis-coordinates" style="visibility:hidden" transform=""><line x1="0" x2="0" y1="3.0" y2="-4.5" style="stroke:rgb(43.9%,50.2%,56.5%);stroke-opacity:1.0;stroke-width:1.0" /><text x="0" y="6" style="alignment-baseline:hanging;fill:rgb(43.9%,50.2%,56.5%);fill-opacity:1.0;font-size:10px;font-weight:normal;stroke:none;text-anchor:middle" /></g></g></g><g class="toyplot-coordinates-Cartesian" id="t77f8a0274e00453fba068ce2799a17f8"><clipPath id="tea9b2ca05f5642878f402053516aa99e"><rect x="50.0" y="50.0" width="200.0" height="200.0" /></clipPath><g clip-path="url(#tea9b2ca05f5642878f402053516aa99e)" /><g class="toyplot-coordinates-Axis" id="t1ec54a86cf1b4230a990879fdebdedcb" transform="translate(250.0,250.0)rotate(-90.0)"><line x1="0" y1="0" x2="200.0" y2="0" style="stroke:rgb(0%,0%,0%);stroke-opacity:1.0;stroke-width:2" /><g class="toyplot-coordinates-Axis-coordinates" style="visibility:hidden" transform=""><line x1="0" x2="0" y1="-3.0" y2="4.5" style="stroke:rgb(43.9%,50.2%,56.5%);stroke-opacity:1.0;stroke-width:1.0" /><text x="0" y="-6" style="alignment-baseline:alphabetic;fill:rgb(43.9%,50.2%,56.5%);fill-opacity:1.0;font-size:10px;font-weight:normal;stroke:none;text-anchor:middle" /></g></g></g><g class="toyplot-coordinates-Cartesian" id="tc8b93c12726144af8b8bef69fc5eee39"><clipPath id="t0704a9b5689f45109f8adbf46db56871"><rect x="50.0" y="50.0" width="200.0" height="200.0" /></clipPath><g clip-path="url(#t0704a9b5689f45109f8adbf46db56871)" /><g class="toyplot-coordinates-Axis" id="t5a666b4f720f40cb85aaace25fa27c3b" transform="translate(50.0,50.0)"><line x1="0" y1="0" x2="200.0" y2="0" style="stroke:rgb(0%,0%,0%);stroke-opacity:1.0;stroke-width:2" /><g class="toyplot-coordinates-Axis-coordinates" style="visibility:hidden" transform=""><line x1="0" x2="0" y1="3.0" y2="-4.5" style="stroke:rgb(43.9%,50.2%,56.5%);stroke-opacity:1.0;stroke-width:1.0" /><text x="0" y="6" style="alignment-baseline:hanging;fill:rgb(43.9%,50.2%,56.5%);fill-opacity:1.0;font-size:10px;font-weight:normal;stroke:none;text-anchor:middle" /></g></g></g></svg>