<svg class="toyplot-canvas-Canvas" xmlns:toyplot="http://www.sandia.gov/toyplot" xmlns:xlink="http://www.w3.org/1999/xlink" xmlns="http://www.w3.org/2000/svg" width="300.0px" height="300.0px" viewBox="0 0 300.0 300.0" preserveAspectRatio="xMidYMid meet" style="background-color:transparent;border-color:#292724;border-style:none;border-width:1.0;fill:rgb(16.1%,15.3%,14.1%);fill-opacity:1.0;font-family:Helvetica;font-size:12px;opacity:1.0;stroke:rgb(16.1%,15.3%,14.1%);stroke-opacity:1.0;stroke-width:1.0" id="ta9099f480b9e4c4ba144f0749edd8e8b"><g class="toyplot-coordinates-Table" id="tf425fc7345bd4637959f06f8d9a4f69c"><rect x="50.0" y="50.0" width="25.0" height="25.0" style="fill:rgb(2%,18.8%,38%);fill-opacity:1.0;stroke:none" /><rect x="75.0" y="50.0" width="25.0" height="25.0" style="fill:rgb(98.5%,89%,83.4%);fill-opacity:1.0;stroke:none" /><rect x="100.0" y="50.0" width="25.0" height="25.0" style="fill:rgb(94%,60.8%,48%);fill-opacity:1.0;stroke:none" /><rect x="125.0" y="50.0" width="25.0" height="25.0" style="fill:rgb(75.9%,21.5%,22.6%);fill-opacity:1.0;stroke:none" /><rect x="150.0" y="50.0" width="25.0" height="25.0" style="fill:rgb(75.9%,21.5%,22.6%);fill-opacity:1.0;stroke:none" /><rect x="175.0" y="50.0" width="25.0" height="25.0" style="fill:rgb(98.5%,89%,83.4%);fill-opacity:1.0;stroke:none" /><rect x="200.0" y="50.0" width="25.0" height="25.0" style="fill:rgb(94%,60.8%,48%);fill-opacity:1.0;stroke:none" /><rect x="225.0" y="50.0" width="25.0" height="25.0" style="fill:rgb(94%,60.8%,48%);fill-opacity:1.0;stroke:none" /><rect x="50.0" y="75.0" width="25.0" height="25.0" style="fill:rgb(98.5%,89%,83.4%);fill-opacity:1.0;stroke:none" /><rect x="75.0" y="75.0" width="25.0" height="25.0" style="fill:rgb(2%,18.8%,38%);fill-opacity:1.0;stroke:none" /><rect x="100.0" y="75.0" width="25.0" height="25.0" style="fill:rgb(86.2%,91.8%,94.9%);fill-opacity:1.0;stroke:none" /><rect x="125.0" y="75.0" width="25.0" height="25.0" style="fill:rgb(98.5%,89%,83.4%);fill-opacity:1.0;stroke:none" /><rect x="150.0" y="75.0" width="25.0" height="25.0" style="fill:rgb(98.5%,89%,83.4%);fill-opacity:1.0;stroke:none" /><rect x="175.0" y="75.0" width="25.0" height="25.0" style="fill:rgb(98.5%,89%,83.4%);fill-opacity:1.0;stroke:none" /><rect x="200.0" y="75.0" width="25.0" height="25.0" style="fill:rgb(94%,60.8%,48%);fill-opacity:1.0;stroke:none" /><rect x="225.0" y="75.0" width="25.0" height="25.0" style="fill:rgb(94%,60.8%,48%);fill-opacity:1.0;stroke:none" /><rect x="50.0" y="100.0" width="25.0" height="25.0" style="fill:rgb(94%,60.8%,48%);fill-opacity:1.0;stroke:none" /><rect x="75.0" y="100.0" width="25.0" height="25.0" style="fill:rgb(86.2%,91.8%,94.9%);fill-opacity:1.0;stroke:none" /><rect x="100.0" y="100.0" width="25.0" height="25.0" style="fill:rgb(2%,18.8%,38%);fill-opacity:1.0;stroke:none" /><rect x="125.0" y="100.0" width="25.0" height="25.0" style="fill:rgb(86.2%,91.8%,94.9%);fill-opacity:1.0;stroke:none" /><rect x="150.0" y="100.0" width="25.0" height="25.0" style="fill:rgb(86.2%,91.8%,94.9%);fill-opacity:1.0;stroke:none" /><rect x="175.0" y="100.0" width="25.0" height="25.0" style="fill:rgb(94%,60.8%,48%);fill-opacity:1.0;stroke:none" /><rect x="200.0" y="100.0" width="25.0" height="25.0" style="fill:rgb(75.9%,21.5%,22.6%);fill-opacity:1.0;stroke:none" /><rect x="225.0" y="100.0" width="25.0" height="25.0" style="fill:rgb(75.9%,21.5%,22.6%);fill-opacity:1.0;stroke:none" /><rect x="50.0" y="125.0" width="25.0" height="25.0" style="fill:rgb(75.9%,21.5%,22.6%);fill-opacity:1.0;stroke:none" /><rect x="75.0" y="125.0" width="25.0" height="25.0" style="fill:rgb(98.5%,89%,83.4%);fill-opacity:1.0;stroke:none" /><rect x="100.0" y="125.0" width="25.0" height="25.0" style="fill:rgb(86.2%,91.8%,94.9%);fill-opacity:1.0;stroke:none" /><rect x="125.0" y="125.0" width="25.0" height="25.0" style="fill:rgb(2%,18.8%,38%);fill-opacity:1.0;stroke:none" /><rect x="150.0" y="125.0" width="25.0" height="25.0" style="fill:rgb(52.8%,74.5%,85.5%);fill-opacity:1.0;stroke:none" /><rect x="175.0" y="125.0" width="25.0" height="25.0" style="fill:rgb(75.9%,21.5%,22.6%);fill-opacity:1.0;stroke:none" /><rect x="200.0" y="125.0" width="25.0" height="25.0" style="fill:rgb(40.4%,0%,12.2%);fill-opacity:1.0;stroke:none" /><rect x="225.0" y="125.0" width="25.0" height="25.0" style="fill:rgb(40.4%,0%,12.2%);fill-opacity:1.0;stroke:none" /><rect x="50.0" y="150.0" width="25.0" height="25.0" style="fill:rgb(75.9%,21.5%,22.6%);fill-opacity:1.0;stroke:none" /><rect x="75.0" y="150.0" width="25.0" height="25.0" style="fill:rgb(98.5%,89%,83.4%);fill-opacity:1.0;stroke:none" /><rect x="100.0" y="150.0" width="25.0" height="25.0" style="fill:rgb(86.2%,91.8%,94.9%);fill-opacity:1.0;stroke:none" /><rect x="125.0" y="150.0" width="25.0" height="25.0" style="fill:rgb(52.8%,74.5%,85.5%);fill-opacity:1.0;stroke:none" /><rect x="150.0" y="150.0" width="25.0" height="25.0" style="fill:rgb(2%,18.8%,38%);fill-opacity:1.0;stroke:none" /><rect x="175.0" y="150.0" width="25.0" height="25.0" style="fill:rgb(75.9%,21.5%,22.6%);fill-opacity:1.0;stroke:none" /><rect x="200.0" y="150.0" width="25.0" height="25.0" style="fill:rgb(40.4%,0%,12.2%);fill-opacity:1.0;stroke:none" /><rect x="225.0" y="150.0" width="25.0" height="25.0" style="fill:rgb(40.4%,0%,12.2%);fill-opacity:1.0;stroke:none" /><rect x="50.0" y="175.0" width="25.0" height="25.0" style="fill:rgb(98.5%,89%,83.4%);fill-opacity:1.0;stroke:none" /><rect x="75.0" y="175.0" width="25.0" height="25.0" style="fill:rgb(98.5%,89%,83.4%);fill-opacity:1.0;stroke:none" /><rect x="100.0" y="175.0" width="25.0" height="25.0" style="fill:rgb(94%,60.8%,48%);fill-opacity:1.0;stroke:none" /><rect x="125.0" y="175.0" width="25.0" height="25.0" style="fill:rgb(75.9%,21.5%,22.6%);fill-opacity:1.0;stroke:none" /><rect x="150.0" y="175.0" width="25.0" height="25.0" style="fill:rgb(75.9%,21.5%,22.6%);fill-opacity:1.0;stroke:none" /><rect x="175.0" y="175.0" width="25.0" height="25.0" style="fill:rgb(2%,18.8%,38%);fill-opacity:1.0;stroke:none" /><rect x="200.0" y="175.0" width="25.0" height="25.0" style="fill:rgb(86.2%,91.8%,94.9%);fill-opacity:1.0;stroke:none" /><rect x="225.0" y="175.0" width="25.0" height="25.0" style="fill:rgb(86.2%,91.8%,94.9%);fill-opacity:1.0;stroke:none" /><rect x="50.0" y="200.0" width="25.0" height="25.0" style="fill:rgb(94%,60.8%,48%);fill-opacity:1.0;stroke:none" /><rect x="75.0" y="200.0" width="25.0" height="25.0" style="fill:rgb(94%,60.8%,48%);fill-opacity:1.0;stroke:none" /><rect x="100.0" y="200.0" width="25.0" height="25.0" style="fill:rgb(75.9%,21.5%,22.6%);fill-opacity:1.0;stroke:none" /><rect x="125.0" y="200.0" width="25.0" height="25.0" style="fill:rgb(40.4%,0%,12.2%);fill-opacity:1.0;stroke:none" /><rect x="150.0" y="200.0" width="25.0" height="25.0" style="fill:rgb(40.4%,0%,12.2%);fill-opacity:1.0;stroke:none" /><rect x="175.0" y="200.0" width="25.0" height="25.0" style="fill:rgb(86.2%,91.8%,94.9%);fill-opacity:1.0;stroke:none" /><rect x="200.0" y="200.0" width="25.0" height="25.0" style="fill:rgb(2%,18.8%,38%);fill-opacity:1.0;stroke:none" /><rect x="225.0" y="200.0" width="25.0" height="25.0" style="fill:rgb(52.8%,74.5%,85.5%);fill-opacity:1.0;stroke:none" /><rect x="50.0" y="225.0" width="25.0" height="25.0" style="fill:rgb(94%,60.8%,48%);fill-opacity:1.0;stroke:none" /><rect x="75.0" y="225.0" width="25.0" height="25.0" style="fill:rgb(94%,60.8%,48%);fill-opacity:1.0;stroke:none" /><rect x="100.0" y="225.0" width="25.0" height="25.0" style="fill:rgb(75.9%,21.5%,22.6%);fill-opacity:1.0;stroke:none" /><rect x="125.0" y="225.0" width="25.0" height="25.0" style="fill:rgb(40.4%,0%,12.2%);fill-opacity:1.0;stroke:none" /><rect x="150.0" y="225.0" width="25.0" height="25.0" style="fill:rgb(40.4%,0%,12.2%);fill-opacity:1.0;stroke:none" /><rect x="175.0" y="225.0" width="25.0" height="25.0" style="fill:rgb(86.2%,91.8%,94.9%);fill-opacity:1.0;stroke:none" /><rect x="200.0" y="225.0" width="25.0" height="25.0" style="fill:rgb(52.8%,74.5%,85.5%);fill-opacity:1.0;stroke:none" /><rect x="225.0" y="225.0" width="25.0" height="25.0" style="fill:rgb(2%,18.8%,38%);fill-opacity:1.0;stroke:none" /></g><g class="toyplot-coordinates-Cartesian" id="t0ed09ba1bbe14ed891975b88118756e7"><clipPath id="tf0a6f71d94cc4b4698737434859ae964"><rect x="50.0" y="50.0" width="200.0" height="200.0" /></clipPath><g clip-path="url(#tf0a6f71d94cc4b4698737434859ae964)" /><g class="toyplot-coordinates-Axis" id="t26ea083c2691447d907a6e968f30bd32" transform="translate(50.0,250.0)"><line x1="0" y1="0" x2="200.0" y2="0" style="stroke:rgb(0%,0%,0%);stroke-opacity:1.0;stroke-width:2" /><g class="toyplot-coordinates-Axis-coordinates" style="visibility:hidden" transform=""><line x1="0" x2="0" y1="-3.0" y2="4.5" style="stroke:rgb(43.9%,50.2%,56.5%);stroke-opacity:1.0;stroke-width:1.0" /><text x="0" y="-6" style="alignment-baseline:alphabetic;fill:rgb(43.9%,50.2%,56.5%);fill-opacity:1.0;font-size:10px;font-weight:normal;stroke:none;text-anchor:middle" /></g></g><g class="toyplot-coordinates-Axis" id="t0178a9215dd94ee0a100884f4fb7bb5b" transform="translate(50.0,250.0)rotate(-90.0)"><line x1="0" y1="0" x2="200.0" y2="0" style="stroke:rgb(0%,0%,0%);stroke-opacity:1.0;stroke-width:2" /><g class="toyplot-coordinates-Axis-coordinates" style="visibility:hidden" transform=""><line x1="0" x2="0" y1="3.0" y2="-4.5" style="stroke:rgb(43.9%,50.2%,56.5%);stroke-opacity:1.0;stroke-width:1.0" /><text x="0" y="6" style="alignment-baseline:hanging;fill:rgb(43.9%,50.2%,56.5%);fill-opacity:1.0;font-size:10px;font-weight:normal;stroke:none;text-anchor:middle" /></g></g></g><g class="toyplot-coordinates-Cartesian" id="ta57b3c4f7039462b98f79fa13946881e"><clipPath id="ta972d0aca7f24caf8d3f2c6f3a480f7a"><rect x="50.0" y="50.0" width="200.0" height="200.0" /></clipPath><g clip-path="url(#ta972d0aca7f24caf8d3f2c6f3a480f7a)" /><g class="toyplot-coordinates-Axis" id="ta7daf3ed28614d3fa4e204233e5fa7a4" transform="translate(250.0,250.0)rotate(-90.0)"><line x1="0" y1="0" x2="200.0" y2="0" style="stroke:rgb(0%,0%,0%);stroke-opacity:1.0;stroke-width:2" /><g class="toyplot-coordinates-Axis-coordinates" style="visibility:hidden" transform=""><line x1="0" x2="0" y1="-3.0" y2="4.5" style="stroke:rgb(43.9%,50.2%,56.5%);stroke-opacity:1.0;stroke-width:1.0" /><text x="0" y="-6" style="alignment-baseline:alphabetic;fill:rgb(43.9%,50.2%,56.5%);fill-opacity:1.0;font-size:10px;font-weight:normal;stroke:none;text-anchor:middle" /></g></g></g><g class="toyplot-coordinates-Cartesian" id="t839d9eff359f4e439f21046a839e7e6b"><clipPath id="td9f9c3996f764c06ad5835c74fd76972"><rect x="50.0" y="50.0" width="200.0" height="200.0" /></clipPath><g clip-path="url(#td9f9c3996f764c06ad5835c74fd76972)" /><g class="toyplot-coordinates-Axis" id="t5ceca8cdea9e46c2bd77da93793f3d2b" transform="translate(50.0,50.0)"><line x1="0" y1="0" x2="200.0" y2="0" style="stroke:rgb(0%,0%,0%);stroke-opacity:1.0;stroke-width:2" /><g class="toyplot-coordinates-Axis-coordinates" style="visibility:hidden" transform=""><line x1="0" x2="0" y1="3.0" y2="-4.5" style="stroke:rgb(43.9%,50.2%,56.5%);stroke-opacity:1.0;stroke-width:1.0" /><text x="0" y="6" style="alignment-baseline:hanging;fill:rgb(43.9%,50.2%,56.5%);fill-opacity:1.0;font-size:10px;font-weight:normal;stroke:none;text-anchor:middle" /></g></g></g></svg>