<svg class="toyplot-canvas-Canvas" xmlns:toyplot="http://www.sandia.gov/toyplot" xmlns:xlink="http://www.w3.org/1999/xlink" xmlns="http://www.w3.org/2000/svg" width="300.0px" height="300.0px" viewBox="0 0 300.0 300.0" preserveAspectRatio="xMidYMid meet" style="background-color:transparent;border-color:#292724;border-style:none;border-width:1.0;fill:rgb(16.1%,15.3%,14.1%);fill-opacity:1.0;font-family:Helvetica;font-size:12px;opacity:1.0;stroke:rgb(16.1%,15.3%,14.1%);stroke-opacity:1.0;stroke-width:1.0" id="t1b96f54343d34a07be95702307b8632c"><g class="toyplot-coordinates-Table" id="te9a570a9db9c4f599454c42cc0028532"><rect x="50.0" y="50.0" width="25.0" height="25.0" style="fill:rgb(2%,18.8%,38%);fill-opacity:1.0;stroke:none" /><rect x="75.0" y="50.0" width="25.0" height="25.0" style="fill:rgb(75.8%,86.7%,92.4%);fill-opacity:1.0;stroke:none" /><rect x="100.0" y="50.0" width="25.0" height="25.0" style="fill:rgb(75.8%,86.7%,92.4%);fill-opacity:1.0;stroke:none" /><rect x="125.0" y="50.0" width="25.0" height="25.0" style="fill:rgb(96.9%,96.9%,96.9%);fill-opacity:1.0;stroke:none" /><rect x="150.0" y="50.0" width="25.0" height="25.0" style="fill:rgb(98.3%,80.6%,71.3%);fill-opacity:1.0;stroke:none" /><rect x="175.0" y="50.0" width="25.0" height="25.0" style="fill:rgb(89.8%,51.2%,40.6%);fill-opacity:1.0;stroke:none" /><rect x="200.0" y="50.0" width="25.0" height="25.0" style="fill:rgb(73.3%,16.5%,20.2%);fill-opacity:1.0;stroke:none" /><rect x="225.0" y="50.0" width="25.0" height="25.0" style="fill:rgb(73.3%,16.5%,20.2%);fill-opacity:1.0;stroke:none" /><rect x="50.0" y="75.0" width="25.0" height="25.0" style="fill:rgb(75.8%,86.7%,92.4%);fill-opacity:1.0;stroke:none" /><rect x="75.0" y="75.0" width="25.0" height="25.0" style="fill:rgb(2%,18.8%,38%);fill-opacity:1.0;stroke:none" /><rect x="100.0" y="75.0" width="25.0" height="25.0" style="fill:rgb(41.8%,67.5%,81.8%);fill-opacity:1.0;stroke:none" /><rect x="125.0" y="75.0" width="25.0" height="25.0" style="fill:rgb(98.3%,80.6%,71.3%);fill-opacity:1.0;stroke:none" /><rect x="150.0" y="75.0" width="25.0" height="25.0" style="fill:rgb(89.8%,51.2%,40.6%);fill-opacity:1.0;stroke:none" /><rect x="175.0" y="75.0" width="25.0" height="25.0" style="fill:rgb(73.3%,16.5%,20.2%);fill-opacity:1.0;stroke:none" /><rect x="200.0" y="75.0" width="25.0" height="25.0" style="fill:rgb(40.4%,0%,12.2%);fill-opacity:1.0;stroke:none" /><rect x="225.0" y="75.0" width="25.0" height="25.0" style="fill:rgb(40.4%,0%,12.2%);fill-opacity:1.0;stroke:none" /><rect x="50.0" y="100.0" width="25.0" height="25.0" style="fill:rgb(75.8%,86.7%,92.4%);fill-opacity:1.0;stroke:none" /><rect x="75.0" y="100.0" width="25.0" height="25.0" style="fill:rgb(41.8%,67.5%,81.8%);fill-opacity:1.0;stroke:none" /><rect x="100.0" y="100.0" width="25.0" height="25.0" style="fill:rgb(2%,18.8%,38%);fill-opacity:1.0;stroke:none" /><rect x="125.0" y="100.0" width="25.0" height="25.0" style="fill:rgb(98.3%,80.6%,71.3%);fill-opacity:1.0;stroke:none" /><rect x="150.0" y="100.0" width="25.0" height="25.0" style="fill:rgb(89.8%,51.2%,40.6%);fill-opacity:1.0;stroke:none" /><rect x="175.0" y="100.0" width="25.0" height="25.0" style="fill:rgb(73.3%,16.5%,20.2%);fill-opacity:1.0;stroke:none" /><rect x="200.0" y="100.0" width="25.0" height="25.0" style="fill:rgb(40.4%,0%,12.2%);fill-opacity:1.0;stroke:none" /><rect x="225.0" y="100.0" width="25.0" height="25.0" style="fill:rgb(40.4%,0%,12.2%);fill-opacity:1.0;stroke:none" /><rect x="50.0" y="125.0" width="25.0" height="25.0" style="fill:rgb(96.9%,96.9%,96.9%);fill-opacity:1.0;stroke:none" /><rect x="75.0" y="125.0" width="25.0" height="25.0" style="fill:rgb(98.3%,80.6%,71.3%);fill-opacity:1.0;stroke:none" /><rect x="100.0" y="125.0" width="25.0" height="25.0" style="fill:rgb(98.3%,80.6%,71.3%);fill-opacity:1.0;stroke:none" /><rect x="125.0" y="125.0" width="25.0" height="25.0" style="fill:rgb(2%,18.8%,38%);fill-opacity:1.0;stroke:none" /><rect x="150.0" y="125.0" width="25.0" height="25.0" style="fill:rgb(75.8%,86.7%,92.4%);fill-opacity:1.0;stroke:none" /><rect x="175.0" y="125.0" width="25.0" height="25.0" style="fill:rgb(96.9%,96.9%,96.9%);fill-opacity:1.0;stroke:none" /><rect x="200.0" y="125.0" width="25.0" height="25.0" style="fill:rgb(98.3%,80.6%,71.3%);fill-opacity:1.0;stroke:none" /><rect x="225.0" y="125.0" width="25.0" height="25.0" style="fill:rgb(98.3%,80.6%,71.3%);fill-opacity:1.0;stroke:none" /><rect x="50.0" y="150.0" width="25.0" height="25.0" style="fill:rgb(98.3%,80.6%,71.3%);fill-opacity:1.0;stroke:none" /><rect x="75.0" y="150.0" width="25.0" height="25.0" style="fill:rgb(89.8%,51.2%,40.6%);fill-opacity:1.0;stroke:none" /><rect x="100.0" y="150.0" width="25.0" height="25.0" style="fill:rgb(89.8%,51.2%,40.6%);fill-opacity:1.0;stroke:none" /><rect x="125.0" y="150.0" width="25.0" height="25.0" style="fill:rgb(75.8%,86.7%,92.4%);fill-opacity:1.0;stroke:none" /><rect x="150.0" y="150.0" width="25.0" height="25.0" style="fill:rgb(2%,18.8%,38%);fill-opacity:1.0;stroke:none" /><rect x="175.0" y="150.0" width="25.0" height="25.0" style="fill:rgb(75.8%,86.7%,92.4%);fill-opacity:1.0;stroke:none" /><rect x="200.0" y="150.0" width="25.0" height="25.0" style="fill:rgb(96.9%,96.9%,96.9%);fill-opacity:1.0;stroke:none" /><rect x="225.0" y="150.0" width="25.0" height="25.0" style="fill:rgb(96.9%,96.9%,96.9%);fill-opacity:1.0;stroke:none" /><rect x="50.0" y="175.0" width="25.0" height="25.0" style="fill:rgb(89.8%,51.2%,40.6%);fill-opacity:1.0;stroke:none" /><rect x="75.0" y="175.0" width="25.0" height="25.0" style="fill:rgb(73.3%,16.5%,20.2%);fill-opacity:1.0;stroke:none" /><rect x="100.0" y="175.0" width="25.0" height="25.0" style="fill:rgb(73.3%,16.5%,20.2%);fill-opacity:1.0;stroke:none" /><rect x="125.0" y="175.0" width="25.0" height="25.0" style="fill:rgb(96.9%,96.9%,96.9%);fill-opacity:1.0;stroke:none" /><rect x="150.0" y="175.0" width="25.0" height="25.0" style="fill:rgb(75.8%,86.7%,92.4%);fill-opacity:1.0;stroke:none" /><rect x="175.0" y="175.0" width="25.0" height="25.0" style="fill:rgb(2%,18.8%,38%);fill-opacity:1.0;stroke:none" /><rect x="200.0" y="175.0" width="25.0" height="25.0" style="fill:rgb(75.8%,86.7%,92.4%);fill-opacity:1.0;stroke:none" /><rect x="225.0" y="175.0" width="25.0" height="25.0" style="fill:rgb(75.8%,86.7%,92.4%);fill-opacity:1.0;stroke:none" /><rect x="50.0" y="200.0" width="25.0" height="25.0" style="fill:rgb(73.3%,16.5%,20.2%);fill-opacity:1.0;stroke:none" /><rect x="75.0" y="200.0" width="25.0" height="25.0" style="fill:rgb(40.4%,0%,12.2%);fill-opacity:1.0;stroke:none" /><rect x="100.0" y="200.0" width="25.0" height="25.0" style="fill:rgb(40.4%,0%,12.2%);fill-opacity:1.0;stroke:none" /><rect x="125.0" y="200.0" width="25.0" height="25.0" style="fill:rgb(98.3%,80.6%,71.3%);fill-opacity:1.0;stroke:none" /><rect x="150.0" y="200.0" width="25.0" height="25.0" style="fill:rgb(96.9%,96.9%,96.9%);fill-opacity:1.0;stroke:none" /><rect x="175.0" y="200.0" width="25.0" height="25.0" style="fill:rgb(75.8%,86.7%,92.4%);fill-opacity:1.0;stroke:none" /><rect x="200.0" y="200.0" width="25.0" height="25.0" style="fill:rgb(2%,18.8%,38%);fill-opacity:1.0;stroke:none" /><rect x="225.0" y="200.0" width="25.0" height="25.0" style="fill:rgb(41.8%,67.5%,81.8%);fill-opacity:1.0;stroke:none" /><rect x="50.0" y="225.0" width="25.0" height="25.0" style="fill:rgb(73.3%,16.5%,20.2%);fill-opacity:1.0;stroke:none" /><rect x="75.0" y="225.0" width="25.0" height="25.0" style="fill:rgb(40.4%,0%,12.2%);fill-opacity:1.0;stroke:none" /><rect x="100.0" y="225.0" width="25.0" height="25.0" style="fill:rgb(40.4%,0%,12.2%);fill-opacity:1.0;stroke:none" /><rect x="125.0" y="225.0" width="25.0" height="25.0" style="fill:rgb(98.3%,80.6%,71.3%);fill-opacity:1.0;stroke:none" /><rect x="150.0" y="225.0" width="25.0" height="25.0" style="fill:rgb(96.9%,96.9%,96.9%);fill-opacity:1.0;stroke:none" /><rect x="175.0" y="225.0" width="25.0" height="25.0" style="fill:rgb(75.8%,86.7%,92.4%);fill-opacity:1.0;stroke:none" /><rect x="200.0" y="225.0" width="25.0" height="25.0" style="fill:rgb(41.8%,67.5%,81.8%);fill-opacity:1.0;stroke:none" /><rect x="225.0" y="225.0" width="25.0" height="25.0" style="fill:rgb(2%,18.8%,38%);fill-opacity:1.0;stroke:none" /></g><g class="toyplot-coordinates-Cartesian" id="t08bb7950024f4fbca74ec47e3154168b"><clipPath id="tf05209a34b5b461d8178facbbb45a0bf"><rect x="50.0" y="50.0" width="200.0" height="200.0" /></clipPath><g clip-path="url(#tf05209a34b5b461d8178facbbb45a0bf)" /><g class="toyplot-coordinates-Axis" id="t2d69f3fa47a441ee99f44d4e6b060e33" transform="translate(50.0,250.0)"><line x1="0" y1="0" x2="200.0" y2="0" style="stroke:rgb(0%,0%,0%);stroke-opacity:1.0;stroke-width:2" /><g class="toyplot-coordinates-Axis-coordinates" style="visibility:hidden" transform=""><line x1="0" x2="0" y1="-3.0" y2="4.5" style="stroke:rgb(43.9%,50.2%,56.5%);stroke-opacity:1.0;stroke-width:1.0" /><text x="0" y="-6" style="alignment-baseline:alphabetic;fill:rgb(43.9%,50.2%,56.5%);fill-opacity:1.0;font-size:10px;font-weight:normal;stroke:none;text-anchor:middle" /></g></g><g class="toyplot-coordinates-Axis" id="t35ad34c2f36447f3a7bf282716212a8b" transform="translate(50.0,250.0)rotate(-90.0)"><line x1="0" y1="0" x2="200.0" y2="0" style="stroke:rgb(0%,0%,0%);stroke-opacity:1.0;stroke-width:2" /><g class="toyplot-coordinates-Axis-coordinates" style="visibility:hidden" transform=""><line x1="0" x2="0" y1="3.0" y2="-4.5" style="stroke:rgb(43.9%,50.2%,56.5%);stroke-opacity:1.0;stroke-width:1.0" /><text x="0" y="6" style="alignment-baseline:hanging;fill:rgb(43.9%,50.2%,56.5%);fill-opacity:1.0;font-size:10px;font-weight:normal;stroke:none;text-anchor:middle" /></g></g></g><g class="toyplot-coordinates-Cartesian" id="te9ca50b1454245f0830443c78a4d36d7"><clipPath id="tf7d69416116046b186d89dcba1c8b22a"><rect x="50.0" y="50.0" width="200.0" height="200.0" /></clipPath><g clip-path="url(#tf7d69416116046b186d89dcba1c8b22a)" /><g class="toyplot-coordinates-Axis" id="t903fbb7d01244b738b339b53b4f1c2dd" transform="translate(250.0,250.0)rotate(-90.0)"><line x1="0" y1="0" x2="200.0" y2="0" style="stroke:rgb(0%,0%,0%);stroke-opacity:1.0;stroke-width:2" /><g class="toyplot-coordinates-Axis-coordinates" style="visibility:hidden" transform=""><line x1="0" x2="0" y1="-3.0" y2="4.5" style="stroke:rgb(43.9%,50.2%,56.5%);stroke-opacity:1.0;stroke-width:1.0" /><text x="0" y="-6" style="alignment-baseline:alphabetic;fill:rgb(43.9%,50.2%,56.5%);fill-opacity:1.0;font-size:10px;font-weight:normal;stroke:none;text-anchor:middle" /></g></g></g><g class="toyplot-coordinates-Cartesian" id="t88d0cd406aa74be5b5076680435e0473"><clipPath id="t582bef189179437d8919a0a1cfd89275"><rect x="50.0" y="50.0" width="200.0" height="200.0" /></clipPath><g clip-path="url(#t582bef189179437d8919a0a1cfd89275)" /><g class="toyplot-coordinates-Axis" id="t58e4a672a45a47308b1c3a50d9d43267" transform="translate(50.0,50.0)"><line x1="0" y1="0" x2="200.0" y2="0" style="stroke:rgb(0%,0%,0%);stroke-opacity:1.0;stroke-width:2" /><g class="toyplot-coordinates-Axis-coordinates" style="visibility:hidden" transform=""><line x1="0" x2="0" y1="3.0" y2="-4.5" style="stroke:rgb(43.9%,50.2%,56.5%);stroke-opacity:1.0;stroke-width:1.0" /><text x="0" y="6" style="alignment-baseline:hanging;fill:rgb(43.9%,50.2%,56.5%);fill-opacity:1.0;font-size:10px;font-weight:normal;stroke:none;text-anchor:middle" /></g></g></g></svg>