<svg class="toyplot-canvas-Canvas" height="300.0px" id="tf5bebb07e7004cb3a73371ef1682f45f" preserveAspectRatio="xMidYMid meet" style="background-color:transparent;border-color:#292724;border-style:none;border-width:1.0;fill:rgb(16.1%,15.3%,14.1%);fill-opacity:1.0;font-family:Helvetica;font-size:12px;opacity:1.0;stroke:rgb(16.1%,15.3%,14.1%);stroke-opacity:1.0;stroke-width:1.0" viewBox="0 0 260.0 300.0" width="260.0px" xmlns="http://www.w3.org/2000/svg" xmlns:toyplot="http://www.sandia.gov/toyplot" xmlns:xlink="http://www.w3.org/1999/xlink"><g class="toyplot-coordinates-Cartesian" id="tad6e1c30457a46c3a4ad852f3b48c4b0"><clipPath id="tc0afa1aa03e645f3919cb9c73683b410"><rect height="240.0" width="200.0" x="30.0" y="30.0" /></clipPath><g clip-path="url(#tc0afa1aa03e645f3919cb9c73683b410)"><g class="toytree-mark-Toytree" id="t2359015f0fbb4a338802ea116bb0200c"><g class="toytree-Edges" style="fill:none;stroke:rgb(14.9%,14.9%,14.9%);stroke-linecap:round;stroke-opacity:1;stroke-width:2"><path d="M 56.0 211.5 L 79.0 184.1" id="14,13" /><path d="M 79.0 184.1 L 102.0 154.8" id="13,12" /><path d="M 102.0 154.8 L 125.0 121.5" id="12,11" /><path d="M 125.0 121.5 L 148.0 92.9" id="11,10" /><path d="M 125.0 121.5 L 170.9 150.0" id="11,9" /><path d="M 148.0 92.9 L 170.9 73.9" id="10,8" /><path d="M 170.9 73.9 L 193.9 61.2" id="8,7" /><path d="M 170.9 73.9 L 193.9 86.6" id="8,6" /><path d="M 148.0 92.9 L 193.9 111.9" id="10,5" /><path d="M 170.9 150.0 L 193.9 137.3" id="9,4" /><path d="M 170.9 150.0 L 193.9 162.7" id="9,3" /><path d="M 102.0 154.8 L 193.9 188.1" id="12,2" /><path d="M 79.0 184.1 L 193.9 213.4" id="13,1" /><path d="M 56.0 211.5 L 193.9 238.8" id="14,0" /></g><g class="toytree-AlignEdges" style="stroke:rgb(66.3%,66.3%,66.3%);stroke-dasharray:2, 4;stroke-linecap:round;stroke-opacity:1.0;stroke-width:2"><path d="M 193.9 238.8 L 193.9 238.8" /><path d="M 193.9 213.4 L 193.9 213.4" /><path d="M 193.9 188.1 L 193.9 188.1" /><path d="M 193.9 162.7 L 193.9 162.7" /><path d="M 193.9 137.3 L 193.9 137.3" /><path d="M 193.9 111.9 L 193.9 111.9" /><path d="M 193.9 86.6 L 193.9 86.6" /><path d="M 193.9 61.2 L 193.9 61.2" /></g><g class="toytree-AdmixEdges" style="fill:none;font-size:14px;stroke:rgba(90.6%,54.1%,76.5%,1.000);stroke-linecap:round;stroke-opacity:0.6;stroke-width:5"><path d="M 193.9 137.3 L 182.4 143.7 L 182.4 107.2 L 148.0 92.9" style="stroke:rgb(98.8%,55.3%,38.4%);stroke-opacity:0.7" /><text style="fill:#262626;fill-opacity:1.0;stroke:none;stroke-opacity:0.7;text-anchor:middle" x="182.42" y="137.42">0.47</text></g><g class="toytree-Nodes" style="fill:rgb(40%,76.1%,64.7%);fill-opacity:1.0;stroke:rgb(0%,0%,0%);stroke-opacity:1.0;stroke-width:2"><g id="node-0" transform="translate(193.912,238.810)"><circle r="3.5" /></g><g id="node-1" transform="translate(193.912,213.436)"><circle r="3.5" /></g><g id="node-2" transform="translate(193.912,188.061)"><circle r="3.5" /></g><g id="node-3" transform="translate(193.912,162.687)"><circle r="3.5" /></g><g id="node-4" transform="translate(193.912,137.313)"><circle r="3.5" /></g><g id="node-5" transform="translate(193.912,111.939)"><circle r="3.5" /></g><g id="node-6" transform="translate(193.912,86.564)"><circle r="3.5" /></g><g id="node-7" transform="translate(193.912,61.190)"><circle r="3.5" /></g><g id="node-8" transform="translate(170.932,73.877)"><circle r="3.5" /></g><g id="node-9" transform="translate(170.932,150.000)"><circle r="3.5" /></g><g id="node-10" transform="translate(147.952,92.908)"><circle r="3.5" /></g><g id="node-11" transform="translate(124.972,121.454)"><circle r="3.5" /></g><g id="node-12" transform="translate(101.992,154.758)"><circle r="3.5" /></g><g id="node-13" transform="translate(79.012,184.097)"><circle r="3.5" /></g><g id="node-14" transform="translate(56.032,211.453)"><circle r="3.5" /></g></g><g class="toytree-TipLabels" style="fill:rgb(14.9%,14.9%,14.9%);fill-opacity:1.0;font-family:helvetica;font-size:11px;font-weight:normal;stroke:none;white-space:pre"><g transform="translate(193.91,238.81)rotate(0)"><text style="" x="15.00" y="2.81">r7</text></g><g transform="translate(193.91,213.44)rotate(0)"><text style="" x="15.00" y="2.81">r6</text></g><g transform="translate(193.91,188.06)rotate(0)"><text style="" x="15.00" y="2.81">r5</text></g><g transform="translate(193.91,162.69)rotate(0)"><text style="" x="15.00" y="2.81">r4</text></g><g transform="translate(193.91,137.31)rotate(0)"><text style="" x="15.00" y="2.81">r3</text></g><g transform="translate(193.91,111.94)rotate(0)"><text style="" x="15.00" y="2.81">r2</text></g><g transform="translate(193.91,86.56)rotate(0)"><text style="" x="15.00" y="2.81">r0</text></g><g transform="translate(193.91,61.19)rotate(0)"><text style="" x="15.00" y="2.81">r1</text></g></g></g></g><g class="toyplot-coordinates-Axis" id="td289fc3c2b1c4186aeb91a8dcdf35373" transform="translate(50.0,250.0)translate(0,20.0)"><line style="" x1="6.0322401693335825" x2="143.91201546838727" y1="0" y2="0" /><g><line style="" x1="143.91201546838727" x2="143.91201546838727" y1="0" y2="-5" /><line style="" x1="74.97212781886043" x2="74.97212781886043" y1="0" y2="-5" /><line style="" x1="6.0322401693335825" x2="6.0322401693335825" y1="0" y2="-5" /></g><g><g transform="translate(143.91201546838727,6)"><text style="fill:rgb(16.1%,15.3%,14.1%);fill-opacity:1.0;font-family:helvetica;font-size:10.0px;font-weight:normal;stroke:none;vertical-align:baseline;white-space:pre" x="-2.78" y="8.555">0</text></g><g transform="translate(74.97212781886043,6)"><text style="fill:rgb(16.1%,15.3%,14.1%);fill-opacity:1.0;font-family:helvetica;font-size:10.0px;font-weight:normal;stroke:none;vertical-align:baseline;white-space:pre" x="-2.78" y="8.555">3</text></g><g transform="translate(6.0322401693335825,6)"><text style="fill:rgb(16.1%,15.3%,14.1%);fill-opacity:1.0;font-family:helvetica;font-size:10.0px;font-weight:normal;stroke:none;vertical-align:baseline;white-space:pre" x="-2.78" y="8.555">6</text></g></g><g class="toyplot-coordinates-Axis-coordinates" style="visibility:hidden" transform=""><line style="stroke:rgb(43.9%,50.2%,56.5%);stroke-opacity:1.0;stroke-width:1.0" x1="0" x2="0" y1="-3.0" y2="4.5" /><text style="alignment-baseline:alphabetic;fill:rgb(43.9%,50.2%,56.5%);fill-opacity:1.0;font-size:10px;font-weight:normal;stroke:none;text-anchor:middle" x="0" y="-6" /></g></g></g></svg>