<svg class="toyplot-canvas-Canvas" height="300.0px" id="te7ac91b2874a42fb99d4c2353043cb4a" preserveAspectRatio="xMidYMid meet" style="background-color:transparent;border-color:#292724;border-style:none;border-width:1.0;fill:rgb(16.1%,15.3%,14.1%);fill-opacity:1.0;font-family:Helvetica;font-size:12px;opacity:1.0;stroke:rgb(16.1%,15.3%,14.1%);stroke-opacity:1.0;stroke-width:1.0" viewBox="0 0 260.0 300.0" width="260.0px" xmlns="http://www.w3.org/2000/svg" xmlns:toyplot="http://www.sandia.gov/toyplot" xmlns:xlink="http://www.w3.org/1999/xlink"><g class="toyplot-coordinates-Cartesian" id="t3fdf7bb0ac7a4d84bd44a5ae08fa0562"><clipPath id="td78b1c529f844897a340c0d8739086ad"><rect height="240.0" width="200.0" x="30.0" y="30.0" /></clipPath><g clip-path="url(#td78b1c529f844897a340c0d8739086ad)"><g class="toytree-mark-Toytree" id="t04fb1b7be20145a08dba5e1685db76f2"><g class="toytree-Edges" style="fill:none;stroke:rgb(14.9%,14.9%,14.9%);stroke-linecap:round;stroke-opacity:1;stroke-width:2"><path d="M 56.0 213.6 L 75.7 188.5" id="14,13" /><path d="M 75.7 188.5 L 95.4 163.5" id="13,12" /><path d="M 95.4 163.5 L 115.1 138.9" id="12,11" /><path d="M 115.1 138.9 L 134.8 115.1" id="11,10" /><path d="M 134.8 115.1 L 154.5 92.9" id="10,9" /><path d="M 154.5 92.9 L 174.2 73.9" id="9,8" /><path d="M 174.2 73.9 L 193.9 61.2" id="8,7" /><path d="M 174.2 73.9 L 193.9 86.6" id="8,6" /><path d="M 154.5 92.9 L 193.9 111.9" id="9,5" /><path d="M 134.8 115.1 L 193.9 137.3" id="10,4" /><path d="M 115.1 138.9 L 193.9 162.7" id="11,3" /><path d="M 95.4 163.5 L 193.9 188.1" id="12,2" /><path d="M 75.7 188.5 L 193.9 213.4" id="13,1" /><path d="M 56.0 213.6 L 193.9 238.8" id="14,0" /></g><g class="toytree-AlignEdges" style="stroke:rgb(66.3%,66.3%,66.3%);stroke-dasharray:2, 4;stroke-linecap:round;stroke-opacity:1.0;stroke-width:2"><path d="M 193.9 238.8 L 193.9 238.8" /><path d="M 193.9 213.4 L 193.9 213.4" /><path d="M 193.9 188.1 L 193.9 188.1" /><path d="M 193.9 162.7 L 193.9 162.7" /><path d="M 193.9 137.3 L 193.9 137.3" /><path d="M 193.9 111.9 L 193.9 111.9" /><path d="M 193.9 86.6 L 193.9 86.6" /><path d="M 193.9 61.2 L 193.9 61.2" /></g><g class="toytree-AdmixEdges" style="fill:none;font-size:14px;stroke:rgba(90.6%,54.1%,76.5%,1.000);stroke-linecap:round;stroke-opacity:0.6;stroke-width:5"><path d="M 193.9 111.9 L 184.1 107.2 L 184.1 67.5 L 174.2 73.9" style="stroke:rgb(98.8%,55.3%,38.4%);stroke-opacity:0.7" /><text style="fill:#262626;fill-opacity:1.0;stroke:none;stroke-opacity:0.7;text-anchor:middle" x="184.06" y="99.36">0.28</text></g><g class="toytree-Nodes" style="fill:rgb(40%,76.1%,64.7%);fill-opacity:1.0;stroke:rgb(0%,0%,0%);stroke-opacity:1.0;stroke-width:2"><g id="node-0" transform="translate(193.912,238.810)"><circle r="3.5" /></g><g id="node-1" transform="translate(193.912,213.436)"><circle r="3.5" /></g><g id="node-2" transform="translate(193.912,188.061)"><circle r="3.5" /></g><g id="node-3" transform="translate(193.912,162.687)"><circle r="3.5" /></g><g id="node-4" transform="translate(193.912,137.313)"><circle r="3.5" /></g><g id="node-5" transform="translate(193.912,111.939)"><circle r="3.5" /></g><g id="node-6" transform="translate(193.912,86.564)"><circle r="3.5" /></g><g id="node-7" transform="translate(193.912,61.190)"><circle r="3.5" /></g><g id="node-8" transform="translate(174.215,73.877)"><circle r="3.5" /></g><g id="node-9" transform="translate(154.518,92.908)"><circle r="3.5" /></g><g id="node-10" transform="translate(134.821,115.110)"><circle r="3.5" /></g><g id="node-11" transform="translate(115.124,138.899)"><circle r="3.5" /></g><g id="node-12" transform="translate(95.426,163.480)"><circle r="3.5" /></g><g id="node-13" transform="translate(75.729,188.458)"><circle r="3.5" /></g><g id="node-14" transform="translate(56.032,213.634)"><circle r="3.5" /></g></g><g class="toytree-TipLabels" style="fill:rgb(14.9%,14.9%,14.9%);fill-opacity:1.0;font-family:helvetica;font-size:11px;font-weight:normal;stroke:none;white-space:pre"><g transform="translate(193.91,238.81)rotate(0)"><text style="" x="15.00" y="2.81">r7</text></g><g transform="translate(193.91,213.44)rotate(0)"><text style="" x="15.00" y="2.81">r6</text></g><g transform="translate(193.91,188.06)rotate(0)"><text style="" x="15.00" y="2.81">r5</text></g><g transform="translate(193.91,162.69)rotate(0)"><text style="" x="15.00" y="2.81">r4</text></g><g transform="translate(193.91,137.31)rotate(0)"><text style="" x="15.00" y="2.81">r3</text></g><g transform="translate(193.91,111.94)rotate(0)"><text style="" x="15.00" y="2.81">r2</text></g><g transform="translate(193.91,86.56)rotate(0)"><text style="" x="15.00" y="2.81">r0</text></g><g transform="translate(193.91,61.19)rotate(0)"><text style="" x="15.00" y="2.81">r1</text></g></g></g></g><g class="toyplot-coordinates-Axis" id="tf177957ddc084c8bbe3e57d887c185aa" transform="translate(50.0,250.0)translate(0,20.0)"><line style="" x1="6.032240169333588" x2="143.91201546838727" y1="0" y2="0" /><g><line style="" x1="143.91201546838727" x2="143.91201546838727" y1="0" y2="-5" /><line style="" x1="74.97212781886043" x2="74.97212781886043" y1="0" y2="-5" /><line style="" x1="6.032240169333588" x2="6.032240169333588" y1="0" y2="-5" /></g><g><g transform="translate(143.91201546838727,6)"><text style="fill:rgb(16.1%,15.3%,14.1%);fill-opacity:1.0;font-family:helvetica;font-size:10.0px;font-weight:normal;stroke:none;vertical-align:baseline;white-space:pre" x="-2.78" y="8.555">0</text></g><g transform="translate(74.97212781886043,6)"><text style="fill:rgb(16.1%,15.3%,14.1%);fill-opacity:1.0;font-family:helvetica;font-size:10.0px;font-weight:normal;stroke:none;vertical-align:baseline;white-space:pre" x="-2.78" y="8.555">4</text></g><g transform="translate(6.032240169333588,6)"><text style="fill:rgb(16.1%,15.3%,14.1%);fill-opacity:1.0;font-family:helvetica;font-size:10.0px;font-weight:normal;stroke:none;vertical-align:baseline;white-space:pre" x="-2.78" y="8.555">7</text></g></g><g class="toyplot-coordinates-Axis-coordinates" style="visibility:hidden" transform=""><line style="stroke:rgb(43.9%,50.2%,56.5%);stroke-opacity:1.0;stroke-width:1.0" x1="0" x2="0" y1="-3.0" y2="4.5" /><text style="alignment-baseline:alphabetic;fill:rgb(43.9%,50.2%,56.5%);fill-opacity:1.0;font-size:10px;font-weight:normal;stroke:none;text-anchor:middle" x="0" y="-6" /></g></g></g></svg>