<svg class="toyplot-canvas-Canvas" xmlns:toyplot="http://www.sandia.gov/toyplot" xmlns:xlink="http://www.w3.org/1999/xlink" xmlns="http://www.w3.org/2000/svg" width="300.0px" height="275.0px" viewBox="0 0 300.0 275.0" preserveAspectRatio="xMidYMid meet" style="background-color:transparent;border-color:#292724;border-style:none;border-width:1.0;fill:rgb(16.1%,15.3%,14.1%);fill-opacity:1.0;font-family:Helvetica;font-size:12px;opacity:1.0;stroke:rgb(16.1%,15.3%,14.1%);stroke-opacity:1.0;stroke-width:1.0" id="t2ee4e8ce97564c0581f375b27ac69f99"><g class="toyplot-coordinates-Cartesian" id="tc34e90b55dc5472bb34246ef72f8b279"><clipPath id="t6c42b362844e43a19f089ee67e956a37"><rect x="35.0" y="35.0" width="230.0" height="205.0" /></clipPath><g clip-path="url(#t6c42b362844e43a19f089ee67e956a37)"><g class="toytree-mark-Toytree" id="t870ad9bdecf94aaf833f1cff401b6e44"><g class="toytree-Edges" style="stroke:rgb(14.5%,14.5%,14.5%);stroke-opacity:1.0;stroke-linecap:round;stroke-width:2.0;fill:none"><path d="M 50.8 195.4 L 50.8 218.3 L 209.3 218.3" id="14,0" style="" /><path d="M 73.4 172.5 L 73.4 195.2 L 209.3 195.2" id="13,1" style="" /><path d="M 96.1 149.8 L 96.1 172.1 L 209.3 172.1" id="12,2" style="" /><path d="M 118.7 127.4 L 118.7 149.0 L 209.3 149.0" id="11,3" style="" /><path d="M 141.4 105.7 L 141.4 126.0 L 209.3 126.0" id="10,4" style="" /><path d="M 164.0 85.5 L 164.0 102.9 L 209.3 102.9" id="9,5" style="" /><path d="M 186.7 68.2 L 186.7 79.8 L 209.3 79.8" id="8,6" style="" /><path d="M 186.7 68.2 L 186.7 56.7 L 209.3 56.7" id="8,7" style="" /><path d="M 164.0 85.5 L 164.0 68.2 L 186.7 68.2" id="9,8" style="" /><path d="M 141.4 105.7 L 141.4 85.5 L 164.0 85.5" id="10,9" style="" /><path d="M 118.7 127.4 L 118.7 105.7 L 141.4 105.7" id="11,10" style="" /><path d="M 96.1 149.8 L 96.1 127.4 L 118.7 127.4" id="12,11" style="" /><path d="M 73.4 172.5 L 73.4 149.8 L 96.1 149.8" id="13,12" style="" /><path d="M 50.8 195.4 L 50.8 172.5 L 73.4 172.5" id="14,13" style="" /></g><g class="toytree-AdmixEdges" style="fill:rgb(0.0%,0.0%,0.0%);fill-opacity:0.0;stroke:rgb(90.6%,54.1%,76.5%);stroke-opacity:0.6;font-size:14px;stroke-linecap:round;stroke-width:5"><path d="M 209.31 102.85 L 186.67 102.85 L 186.67 125.95 L 141.37 125.95" style="opacity:0.25" /><text x="186.67" y="126.40" style="fill:rgb(14.9%,14.9%,14.9%);fill-opacity:1.0;stroke:rgb(0.0%,0.0%,0.0%);stroke-opacity:0.0;opacity:0.25;text-anchor:middle" /><path d="M 209.31 102.85 L 197.99 102.85 L 197.99 56.65 L 186.67 56.65" style="opacity:0.25" /><text x="197.99" y="91.75" style="fill:rgb(14.9%,14.9%,14.9%);fill-opacity:1.0;stroke:rgb(0.0%,0.0%,0.0%);stroke-opacity:0.0;opacity:0.25;text-anchor:middle" /><path d="M 209.31 102.85 L 186.67 102.85 L 186.67 125.95 L 141.37 125.95" style="opacity:0.25" /><text x="186.67" y="126.40" style="fill:rgb(14.9%,14.9%,14.9%);fill-opacity:1.0;stroke:rgb(0.0%,0.0%,0.0%);stroke-opacity:0.0;opacity:0.25;text-anchor:middle" /><path d="M 209.31 102.85 L 197.99 102.85 L 197.99 56.65 L 186.67 56.65" style="opacity:0.25" /><text x="197.99" y="91.75" style="fill:rgb(14.9%,14.9%,14.9%);fill-opacity:1.0;stroke:rgb(0.0%,0.0%,0.0%);stroke-opacity:0.0;opacity:0.25;text-anchor:middle" /><path d="M 209.31 125.95 L 152.70 125.95 L 152.70 85.53 L 141.37 85.53" style="opacity:0.25" /><text x="152.70" y="117.74" style="fill:rgb(14.9%,14.9%,14.9%);fill-opacity:1.0;stroke:rgb(0.0%,0.0%,0.0%);stroke-opacity:0.0;opacity:0.25;text-anchor:middle" /><path d="M 209.31 149.05 L 175.34 149.05 L 175.34 125.95 L 141.37 125.95" style="opacity:0.25" /><text x="175.34" y="149.50" style="fill:rgb(14.9%,14.9%,14.9%);fill-opacity:1.0;stroke:rgb(0.0%,0.0%,0.0%);stroke-opacity:0.0;opacity:0.25;text-anchor:middle" /><path d="M 209.31 102.85 L 197.99 102.85 L 197.99 56.65 L 186.67 56.65" style="opacity:0.25" /><text x="197.99" y="91.75" style="fill:rgb(14.9%,14.9%,14.9%);fill-opacity:1.0;stroke:rgb(0.0%,0.0%,0.0%);stroke-opacity:0.0;opacity:0.25;text-anchor:middle" /><path d="M 209.31 102.85 L 197.99 102.85 L 197.99 56.65 L 186.67 56.65" style="opacity:0.25" /><text x="197.99" y="91.75" style="fill:rgb(14.9%,14.9%,14.9%);fill-opacity:1.0;stroke:rgb(0.0%,0.0%,0.0%);stroke-opacity:0.0;opacity:0.25;text-anchor:middle" /><path d="M 209.31 125.95 L 186.67 125.95 L 186.67 102.85 L 164.02 102.85" style="opacity:0.25" /><text x="186.67" y="126.40" style="fill:rgb(14.9%,14.9%,14.9%);fill-opacity:1.0;stroke:rgb(0.0%,0.0%,0.0%);stroke-opacity:0.0;opacity:0.25;text-anchor:middle" /><path d="M 209.31 125.95 L 186.67 125.95 L 186.67 102.85 L 164.02 102.85" style="opacity:0.25" /><text x="186.67" y="126.40" style="fill:rgb(14.9%,14.9%,14.9%);fill-opacity:1.0;stroke:rgb(0.0%,0.0%,0.0%);stroke-opacity:0.0;opacity:0.25;text-anchor:middle" /><path d="M 209.31 125.95 L 197.99 125.95 L 197.99 56.65 L 186.67 56.65" style="opacity:0.25" /><text x="197.99" y="103.30" style="fill:rgb(14.9%,14.9%,14.9%);fill-opacity:1.0;stroke:rgb(0.0%,0.0%,0.0%);stroke-opacity:0.0;opacity:0.25;text-anchor:middle" /><path d="M 209.31 102.85 L 197.99 102.85 L 197.99 56.65 L 186.67 56.65" style="opacity:0.25" /><text x="197.99" y="91.75" style="fill:rgb(14.9%,14.9%,14.9%);fill-opacity:1.0;stroke:rgb(0.0%,0.0%,0.0%);stroke-opacity:0.0;opacity:0.25;text-anchor:middle" /><path d="M 209.31 102.85 L 197.99 102.85 L 197.99 56.65 L 186.67 56.65" style="opacity:0.25" /><text x="197.99" y="91.75" style="fill:rgb(14.9%,14.9%,14.9%);fill-opacity:1.0;stroke:rgb(0.0%,0.0%,0.0%);stroke-opacity:0.0;opacity:0.25;text-anchor:middle" /><path d="M 209.31 125.95 L 186.67 125.95 L 186.67 102.85 L 164.02 102.85" style="opacity:0.25" /><text x="186.67" y="126.40" style="fill:rgb(14.9%,14.9%,14.9%);fill-opacity:1.0;stroke:rgb(0.0%,0.0%,0.0%);stroke-opacity:0.0;opacity:0.25;text-anchor:middle" /><path d="M 209.31 125.95 L 186.67 125.95 L 186.67 102.85 L 164.02 102.85" style="opacity:0.25" /><text x="186.67" y="126.40" style="fill:rgb(14.9%,14.9%,14.9%);fill-opacity:1.0;stroke:rgb(0.0%,0.0%,0.0%);stroke-opacity:0.0;opacity:0.25;text-anchor:middle" /><path d="M 209.31 125.95 L 197.99 125.95 L 197.99 56.65 L 186.67 56.65" style="opacity:0.25" /><text x="197.99" y="103.30" style="fill:rgb(14.9%,14.9%,14.9%);fill-opacity:1.0;stroke:rgb(0.0%,0.0%,0.0%);stroke-opacity:0.0;opacity:0.25;text-anchor:middle" /><path d="M 209.31 125.95 L 186.67 125.95 L 186.67 102.85 L 164.02 102.85" style="opacity:0.25" /><text x="186.67" y="126.40" style="fill:rgb(14.9%,14.9%,14.9%);fill-opacity:1.0;stroke:rgb(0.0%,0.0%,0.0%);stroke-opacity:0.0;opacity:0.25;text-anchor:middle" /><path d="M 209.31 102.85 L 186.67 102.85 L 186.67 149.05 L 118.73 149.05" style="opacity:0.25" /><text x="186.67" y="137.95" style="fill:rgb(14.9%,14.9%,14.9%);fill-opacity:1.0;stroke:rgb(0.0%,0.0%,0.0%);stroke-opacity:0.0;opacity:0.25;text-anchor:middle" /><path d="M 209.31 102.85 L 197.99 102.85 L 197.99 56.65 L 186.67 56.65" style="opacity:0.25" /><text x="197.99" y="91.75" style="fill:rgb(14.9%,14.9%,14.9%);fill-opacity:1.0;stroke:rgb(0.0%,0.0%,0.0%);stroke-opacity:0.0;opacity:0.25;text-anchor:middle" /><path d="M 209.31 102.85 L 186.67 102.85 L 186.67 149.05 L 118.73 149.05" style="opacity:0.25" /><text x="186.67" y="137.95" style="fill:rgb(14.9%,14.9%,14.9%);fill-opacity:1.0;stroke:rgb(0.0%,0.0%,0.0%);stroke-opacity:0.0;opacity:0.25;text-anchor:middle" /><path d="M 164.02 85.53 L 152.70 85.53 L 62.12 172.51 L 50.79 172.51" style="opacity:0.25" /><text x="107.41" y="141.02" style="fill:rgb(14.9%,14.9%,14.9%);fill-opacity:1.0;stroke:rgb(0.0%,0.0%,0.0%);stroke-opacity:0.0;opacity:0.25;text-anchor:middle" /><path d="M 209.31 102.85 L 186.67 102.85 L 186.67 125.95 L 141.37 125.95" style="opacity:0.25" /><text x="186.67" y="126.40" style="fill:rgb(14.9%,14.9%,14.9%);fill-opacity:1.0;stroke:rgb(0.0%,0.0%,0.0%);stroke-opacity:0.0;opacity:0.25;text-anchor:middle" /><path d="M 209.31 102.85 L 186.67 102.85 L 186.67 149.05 L 118.73 149.05" style="opacity:0.25" /><text x="186.67" y="137.95" style="fill:rgb(14.9%,14.9%,14.9%);fill-opacity:1.0;stroke:rgb(0.0%,0.0%,0.0%);stroke-opacity:0.0;opacity:0.25;text-anchor:middle" /><path d="M 209.31 149.05 L 186.67 149.05 L 186.67 102.85 L 164.02 102.85" style="opacity:0.25" /><text x="186.67" y="137.95" style="fill:rgb(14.9%,14.9%,14.9%);fill-opacity:1.0;stroke:rgb(0.0%,0.0%,0.0%);stroke-opacity:0.0;opacity:0.25;text-anchor:middle" /><path d="M 73.44 172.51 L 62.12 172.51 L 130.05 105.74 L 118.73 105.74" style="opacity:0.25" /><text x="96.08" y="151.12" style="fill:rgb(14.9%,14.9%,14.9%);fill-opacity:1.0;stroke:rgb(0.0%,0.0%,0.0%);stroke-opacity:0.0;opacity:0.25;text-anchor:middle" /></g><g class="toytree-Nodes" style="fill:rgb(40.0%,76.1%,64.7%);fill-opacity:1.0;stroke:rgb(14.9%,14.9%,14.9%);stroke-opacity:1.0;stroke-width:1.5" /><g class="toytree-TipLabels" style="fill:rgb(14.5%,14.5%,14.5%);fill-opacity:1.0;font-family:Helvetica;font-size:12px;font-weight:300;vertical-align:baseline;white-space:pre;stroke:none"><g class="toytree-TipLabel" transform="translate(209.311,218.347)"><text x="15.0" y="3.066" style="fill:rgb(14.5%,14.5%,14.5%);fill-opacity:1.0">r7</text></g><g class="toytree-TipLabel" transform="translate(209.311,195.248)"><text x="15.0" y="3.066" style="fill:rgb(14.5%,14.5%,14.5%);fill-opacity:1.0">r6</text></g><g class="toytree-TipLabel" transform="translate(209.311,172.149)"><text x="15.0" y="3.066" style="fill:rgb(14.5%,14.5%,14.5%);fill-opacity:1.0">r5</text></g><g class="toytree-TipLabel" transform="translate(209.311,149.05)"><text x="15.0" y="3.066" style="fill:rgb(14.5%,14.5%,14.5%);fill-opacity:1.0">r4</text></g><g class="toytree-TipLabel" transform="translate(209.311,125.95)"><text x="15.0" y="3.066" style="fill:rgb(14.5%,14.5%,14.5%);fill-opacity:1.0">r3</text></g><g class="toytree-TipLabel" transform="translate(209.311,102.851)"><text x="15.0" y="3.066" style="fill:rgb(14.5%,14.5%,14.5%);fill-opacity:1.0">r2</text></g><g class="toytree-TipLabel" transform="translate(209.311,79.7518)"><text x="15.0" y="3.066" style="fill:rgb(14.5%,14.5%,14.5%);fill-opacity:1.0">r1</text></g><g class="toytree-TipLabel" transform="translate(209.311,56.6526)"><text x="15.0" y="3.066" style="fill:rgb(14.5%,14.5%,14.5%);fill-opacity:1.0">r0</text></g></g></g></g></g></svg>