<svg class="toyplot-canvas-Canvas" xmlns:toyplot="http://www.sandia.gov/toyplot" xmlns:xlink="http://www.w3.org/1999/xlink" xmlns="http://www.w3.org/2000/svg" width="350.0px" height="250.0px" viewBox="0 0 350.0 250.0" preserveAspectRatio="xMidYMid meet" style="background-color:transparent;border-color:#292724;border-style:none;border-width:1.0;fill:rgb(16.1%,15.3%,14.1%);fill-opacity:1.0;font-family:Helvetica;font-size:12px;opacity:1.0;stroke:rgb(16.1%,15.3%,14.1%);stroke-opacity:1.0;stroke-width:1.0" id="t1cf12a94e38c43098fb66dc9f5d18a3b"><g class="toyplot-coordinates-Cartesian" id="tf9ae51690be744caa9233a54173875c5"><clipPath id="tfef3fe99cc9145b58c1dae82d8de1e3a"><rect x="50.0" y="50.0" width="250.0" height="150.0" /></clipPath><g clip-path="url(#tfef3fe99cc9145b58c1dae82d8de1e3a)"><g class="toyplot-mark-FillBoundaries" style="stroke:none" id="tdc7f45869dda4b86b92bb10b06f328ff"><polygon points="60.0,190.0 62.3,190.0 64.6,190.0 66.89999999999999,190.0 69.19999999999999,190.0 71.5,190.0 73.8,190.0 76.1,190.0 78.4,190.0 80.7,190.0 83.0,190.0 85.3,190.0 87.6,190.0 89.9,190.0 92.2,190.0 94.5,190.0 96.8,190.0 99.1,190.0 101.4,190.0 103.7,190.0 106.0,190.0 108.30000000000001,190.0 110.6,190.0 112.9,190.0 115.19999999999999,190.0 117.5,190.0 119.80000000000001,190.0 122.10000000000001,190.0 124.4,190.0 126.69999999999999,190.0 129.0,190.0 131.3,190.0 133.6,190.0 135.9,190.0 138.2,190.0 140.5,190.0 142.79999999999998,190.0 145.1,190.0 147.4,190.0 149.70000000000002,190.0 152.0,190.0 154.3,190.0 156.6,190.0 158.9,190.0 161.2,190.0 163.5,190.0 165.8,190.0 168.1,190.0 170.39999999999998,190.0 172.7,190.0 175.0,190.0 177.3,190.0 179.60000000000002,190.0 181.9,190.0 184.20000000000002,190.0 186.5,190.0 188.8,190.0 191.1,190.0 193.39999999999998,190.0 195.7,190.0 198.0,190.0 200.3,190.0 202.60000000000002,190.0 204.89999999999998,190.0 207.2,190.0 209.5,190.0 211.8,190.0 214.10000000000002,190.0 216.4,190.0 218.7,190.0 221.0,190.0 223.29999999999998,190.0 225.6,190.0 227.89999999999998,190.0 230.2,190.0 232.5,190.0 234.8,190.0 237.10000000000002,190.0 239.4,190.0 241.70000000000002,190.0 244.0,190.0 246.3,190.0 248.6,190.0 250.89999999999998,190.0 253.2,190.0 255.5,190.0 257.8,190.0 260.1,190.0 262.4,190.0 264.70000000000005,190.0 267.0,190.0 269.3,190.0 271.6,190.0 273.9,190.0 276.2,190.0 278.5,190.0 280.79999999999995,190.0 283.1,190.0 285.4,190.0 287.70000000000005,190.0 287.70000000000005,185.70999999999998 285.4,185.70999999999998 283.1,185.70999999999998 280.79999999999995,185.70999999999998 278.5,185.70999999999998 276.2,185.57999999999998 273.9,185.57999999999998 271.6,185.57999999999998 269.3,185.57999999999998 267.0,185.57999999999998 264.70000000000005,185.57999999999998 262.4,185.57999999999998 260.1,185.57999999999998 257.8,185.45 255.5,185.45 253.2,185.45 250.89999999999998,185.45 248.6,185.45 246.3,185.32 244.0,185.32 241.70000000000002,185.32 239.4,185.32 237.10000000000002,185.32 234.8,185.32 232.5,185.32 230.2,185.19 227.89999999999998,185.19 225.6,185.19 223.29999999999998,185.19 221.0,185.19 218.7,185.19 216.4,185.19 214.10000000000002,185.19 211.8,185.19 209.5,185.19 207.2,185.06 204.89999999999998,185.06 202.60000000000002,185.06 200.3,185.06 198.0,185.06 195.7,185.06 193.39999999999998,185.06 191.1,185.06 188.8,185.06 186.5,185.06 184.20000000000002,185.06 181.9,185.06 179.60000000000002,184.93 177.3,184.93 175.0,184.93 172.7,184.93 170.39999999999998,184.93 168.1,184.93 165.8,184.93 163.5,184.93 161.2,184.93 158.9,184.8 156.6,184.8 154.3,184.8 152.0,184.8 149.70000000000002,184.8 147.4,184.67 145.1,184.67 142.79999999999998,184.54 140.5,184.54 138.2,184.54 135.9,184.54 133.6,184.54 131.3,184.27999999999997 129.0,184.27999999999997 126.69999999999999,184.14999999999998 124.4,184.01999999999998 122.10000000000001,184.01999999999998 119.80000000000001,184.01999999999998 117.5,184.01999999999998 115.19999999999999,184.01999999999998 112.9,183.89 110.6,183.89 108.30000000000001,183.89 106.0,183.76 103.7,183.5 101.4,183.5 99.1,183.37 96.8,183.24 94.5,183.24 92.2,183.24 89.9,183.10999999999999 87.6,183.10999999999999 85.3,183.10999999999999 83.0,182.98 80.7,182.98 78.4,182.85 76.1,182.85 73.8,182.71999999999997 71.5,182.20000000000002 69.19999999999999,182.20000000000002 66.89999999999999,181.81 64.6,180.77 62.3,180.51 60.0,179.47000000000003" style="fill:rgb(40%,76.1%,64.7%);fill-opacity:1.0;opacity:1.0;stroke:none" /></g></g><g class="toyplot-coordinates-Axis" id="ta1937e43baa84741ae054327bc5a8642" transform="translate(60.0,190.0)translate(0,10.0)"><line x1="0" y1="0" x2="230.0" y2="0" style="" /><g><line x1="0.0" y1="5.0" x2="0.0" y2="0" style="" /><line x1="115.0" y1="5.0" x2="115.0" y2="0" style="" /><line x1="230.0" y1="5.0" x2="230.0" y2="0" style="" /></g><g><g transform="translate(0.0,10.0)"><text x="-2.78" y="8.555" style="fill:rgb(16.1%,15.3%,14.1%);fill-opacity:1.0;font-family:helvetica;font-size:10.0px;font-weight:normal;stroke:none;vertical-align:baseline;white-space:pre">0</text></g><g transform="translate(115.0,10.0)"><text x="-5.56" y="8.555" style="fill:rgb(16.1%,15.3%,14.1%);fill-opacity:1.0;font-family:helvetica;font-size:10.0px;font-weight:normal;stroke:none;vertical-align:baseline;white-space:pre">50</text></g><g transform="translate(230.0,10.0)"><text x="-8.34" y="8.555" style="fill:rgb(16.1%,15.3%,14.1%);fill-opacity:1.0;font-family:helvetica;font-size:10.0px;font-weight:normal;stroke:none;vertical-align:baseline;white-space:pre">100</text></g></g><g transform="translate(115.0,30.0)"><text x="-39.672000000000004" y="10.265999999999998" style="fill:rgb(16.1%,15.3%,14.1%);fill-opacity:1.0;font-family:helvetica;font-size:12.0px;font-weight:bold;stroke:none;vertical-align:baseline;white-space:pre">topology rank</text></g><g class="toyplot-coordinates-Axis-coordinates" style="visibility:hidden" transform=""><line x1="0" x2="0" y1="-5.0" y2="7.5" style="stroke:rgb(43.9%,50.2%,56.5%);stroke-opacity:1.0;stroke-width:1.0" /><text x="0" y="-10.0" style="alignment-baseline:alphabetic;fill:rgb(43.9%,50.2%,56.5%);fill-opacity:1.0;font-size:10px;font-weight:normal;stroke:none;text-anchor:middle" /></g></g><g class="toyplot-coordinates-Axis" id="t1654c2ce0295479bbd95b17cfb0601c6" transform="translate(60.0,190.0)rotate(-90.0)translate(0,-10.0)"><line x1="0" y1="0" x2="130.0" y2="0" style="" /><g><line x1="0.0" y1="-5.0" x2="0.0" y2="0" style="" /><line x1="32.5" y1="-5.0" x2="32.5" y2="0" style="" /><line x1="65.0" y1="-5.0" x2="65.0" y2="0" style="" /><line x1="97.5" y1="-5.0" x2="97.5" y2="0" style="" /><line x1="130.0" y1="-5.0" x2="130.0" y2="0" style="" /></g><g><g transform="translate(0.0,-10.0)"><text x="-12.51" y="-4.440892098500626e-16" style="fill:rgb(16.1%,15.3%,14.1%);fill-opacity:1.0;font-family:helvetica;font-size:10.0px;font-weight:normal;stroke:none;vertical-align:baseline;white-space:pre">0.000</text></g><g transform="translate(32.5,-10.0)"><text x="-12.51" y="-4.440892098500626e-16" style="fill:rgb(16.1%,15.3%,14.1%);fill-opacity:1.0;font-family:helvetica;font-size:10.0px;font-weight:normal;stroke:none;vertical-align:baseline;white-space:pre">0.005</text></g><g transform="translate(65.0,-10.0)"><text x="-12.51" y="-4.440892098500626e-16" style="fill:rgb(16.1%,15.3%,14.1%);fill-opacity:1.0;font-family:helvetica;font-size:10.0px;font-weight:normal;stroke:none;vertical-align:baseline;white-space:pre">0.010</text></g><g transform="translate(97.5,-10.0)"><text x="-12.51" y="-4.440892098500626e-16" style="fill:rgb(16.1%,15.3%,14.1%);fill-opacity:1.0;font-family:helvetica;font-size:10.0px;font-weight:normal;stroke:none;vertical-align:baseline;white-space:pre">0.015</text></g><g transform="translate(130.0,-10.0)"><text x="-12.51" y="-4.440892098500626e-16" style="fill:rgb(16.1%,15.3%,14.1%);fill-opacity:1.0;font-family:helvetica;font-size:10.0px;font-weight:normal;stroke:none;vertical-align:baseline;white-space:pre">0.020</text></g></g><g transform="translate(65.0,-30.0)"><text x="-28.673999999999996" y="0.0" style="fill:rgb(16.1%,15.3%,14.1%);fill-opacity:1.0;font-family:helvetica;font-size:12.0px;font-weight:bold;stroke:none;vertical-align:baseline;white-space:pre">frequency</text></g><g class="toyplot-coordinates-Axis-coordinates" style="visibility:hidden" transform=""><line x1="0" x2="0" y1="5.0" y2="-7.5" style="stroke:rgb(43.9%,50.2%,56.5%);stroke-opacity:1.0;stroke-width:1.0" /><text x="0" y="10.0" style="alignment-baseline:hanging;fill:rgb(43.9%,50.2%,56.5%);fill-opacity:1.0;font-size:10px;font-weight:normal;stroke:none;text-anchor:middle" /></g></g><g transform="translate(175.0,40.0)"><text x="-135.359" y="-4.823" style="fill:rgb(16.1%,15.3%,14.1%);fill-opacity:1.0;font-family:helvetica;font-size:14.0px;font-weight:bold;stroke:none;vertical-align:baseline;white-space:pre">true distribution of unlinked genealogies</text></g></g></svg>