<svg class="toyplot-canvas-Canvas" xmlns:toyplot="http://www.sandia.gov/toyplot" xmlns:xlink="http://www.w3.org/1999/xlink" xmlns="http://www.w3.org/2000/svg" width="350.0px" height="250.0px" viewBox="0 0 350.0 250.0" preserveAspectRatio="xMidYMid meet" style="background-color:transparent;border-color:#292724;border-style:none;border-width:1.0;fill:rgb(16.1%,15.3%,14.1%);fill-opacity:1.0;font-family:Helvetica;font-size:12px;opacity:1.0;stroke:rgb(16.1%,15.3%,14.1%);stroke-opacity:1.0;stroke-width:1.0" id="t45f4aadc073e4add84f12bdbf5368bff"><g class="toyplot-coordinates-Cartesian" id="t5d420b10ee8a4733bc7b11cf305529a1"><clipPath id="ted317802b6bd4d4e87e90c17194bbf8a"><rect x="50.0" y="50.0" width="250.0" height="150.0" /></clipPath><g clip-path="url(#ted317802b6bd4d4e87e90c17194bbf8a)"><g class="toyplot-mark-FillBoundaries" style="stroke:none" id="t280880d82c1f4c8c8772e6d09dfc9327"><polygon points="60.0,190.0 62.3,190.0 64.6,190.0 66.89999999999999,190.0 69.19999999999999,190.0 71.5,190.0 73.8,190.0 76.1,190.0 78.4,190.0 80.7,190.0 83.0,190.0 85.3,190.0 87.6,190.0 89.9,190.0 92.2,190.0 94.5,190.0 96.8,190.0 99.1,190.0 101.4,190.0 103.7,190.0 106.0,190.0 108.30000000000001,190.0 110.6,190.0 112.9,190.0 115.19999999999999,190.0 117.5,190.0 119.80000000000001,190.0 122.10000000000001,190.0 124.4,190.0 126.69999999999999,190.0 129.0,190.0 131.3,190.0 133.6,190.0 135.9,190.0 138.2,190.0 140.5,190.0 142.79999999999998,190.0 145.1,190.0 147.4,190.0 149.70000000000002,190.0 152.0,190.0 154.3,190.0 156.6,190.0 158.9,190.0 161.2,190.0 163.5,190.0 165.8,190.0 168.1,190.0 170.39999999999998,190.0 172.7,190.0 175.0,190.0 177.3,190.0 179.60000000000002,190.0 181.9,190.0 184.20000000000002,190.0 186.5,190.0 188.8,190.0 191.1,190.0 193.39999999999998,190.0 195.7,190.0 198.0,190.0 200.3,190.0 202.60000000000002,190.0 204.89999999999998,190.0 207.2,190.0 209.5,190.0 211.8,190.0 214.10000000000002,190.0 216.4,190.0 218.7,190.0 221.0,190.0 223.29999999999998,190.0 225.6,190.0 227.89999999999998,190.0 230.2,190.0 232.5,190.0 234.8,190.0 237.10000000000002,190.0 239.4,190.0 241.70000000000002,190.0 244.0,190.0 246.3,190.0 248.6,190.0 250.89999999999998,190.0 253.2,190.0 255.5,190.0 257.8,190.0 260.1,190.0 262.4,190.0 264.70000000000005,190.0 267.0,190.0 269.3,190.0 271.6,190.0 273.9,190.0 276.2,190.0 278.5,190.0 280.79999999999995,190.0 283.1,190.0 285.4,190.0 287.70000000000005,190.0 287.70000000000005,178.95 285.4,178.82 283.1,178.82 280.79999999999995,178.69 278.5,178.69 276.2,178.56 273.9,178.56 271.6,178.56 269.3,178.56 267.0,178.43 264.70000000000005,178.3 262.4,178.04000000000002 260.1,178.04000000000002 257.8,177.91000000000003 255.5,177.91000000000003 253.2,177.78 250.89999999999998,177.78 248.6,177.65 246.3,177.13 244.0,177.13 241.70000000000002,176.87 239.4,176.74 237.10000000000002,176.74 234.8,176.74 232.5,176.61 230.2,176.35000000000002 227.89999999999998,176.09 225.6,175.82999999999998 223.29999999999998,175.57 221.0,175.44 218.7,174.92000000000002 216.4,174.53000000000003 214.10000000000002,174.53000000000003 211.8,174.39999999999998 209.5,174.14 207.2,174.14 204.89999999999998,174.14 202.60000000000002,174.14 200.3,174.01 198.0,173.75 195.7,173.62 193.39999999999998,173.49 191.1,173.49 188.8,173.36 186.5,173.36 184.20000000000002,172.97 181.9,172.97 179.60000000000002,172.97 177.3,172.97 175.0,172.97 172.7,172.45 170.39999999999998,172.32 168.1,172.32 165.8,172.06 163.5,172.06 161.2,172.06 158.9,171.93 156.6,171.8 154.3,171.67000000000002 152.0,171.41 149.70000000000002,171.14999999999998 147.4,170.76 145.1,170.5 142.79999999999998,169.45999999999998 140.5,169.32999999999998 138.2,169.07 135.9,168.94000000000003 133.6,168.94000000000003 131.3,168.81 129.0,168.81 126.69999999999999,168.55 124.4,168.42 122.10000000000001,168.42 119.80000000000001,167.38000000000002 117.5,167.12 115.19999999999999,166.46999999999997 112.9,165.95 110.6,165.56 108.30000000000001,164.91 106.0,164.39000000000001 103.7,164.26 101.4,164.26 99.1,163.86999999999998 96.8,163.35 94.5,162.44 92.2,162.31 89.9,161.79000000000002 87.6,159.45 85.3,157.63 83.0,156.98000000000002 80.7,152.43 78.4,150.74 76.1,147.62 73.8,146.06 71.5,144.63 69.19999999999999,132.02 66.89999999999999,128.64000000000001 64.6,106.66999999999999 62.3,105.76000000000002 60.0,94.97" style="fill:rgb(40%,76.1%,64.7%);fill-opacity:1.0;opacity:1.0;stroke:none" /></g></g><g class="toyplot-coordinates-Axis" id="te9a95ea2e05d49a98bacf28f0ec466f6" transform="translate(60.0,190.0)translate(0,10.0)"><line x1="0" y1="0" x2="230.0" y2="0" style="" /><g><line x1="0.0" y1="5.0" x2="0.0" y2="0" style="" /><line x1="115.0" y1="5.0" x2="115.0" y2="0" style="" /><line x1="230.0" y1="5.0" x2="230.0" y2="0" style="" /></g><g><g transform="translate(0.0,10.0)"><text x="-2.78" y="8.555" style="fill:rgb(16.1%,15.3%,14.1%);fill-opacity:1.0;font-family:helvetica;font-size:10.0px;font-weight:normal;stroke:none;vertical-align:baseline;white-space:pre">0</text></g><g transform="translate(115.0,10.0)"><text x="-5.56" y="8.555" style="fill:rgb(16.1%,15.3%,14.1%);fill-opacity:1.0;font-family:helvetica;font-size:10.0px;font-weight:normal;stroke:none;vertical-align:baseline;white-space:pre">50</text></g><g transform="translate(230.0,10.0)"><text x="-8.34" y="8.555" style="fill:rgb(16.1%,15.3%,14.1%);fill-opacity:1.0;font-family:helvetica;font-size:10.0px;font-weight:normal;stroke:none;vertical-align:baseline;white-space:pre">100</text></g></g><g transform="translate(115.0,30.0)"><text x="-39.672000000000004" y="10.265999999999998" style="fill:rgb(16.1%,15.3%,14.1%);fill-opacity:1.0;font-family:helvetica;font-size:12.0px;font-weight:bold;stroke:none;vertical-align:baseline;white-space:pre">topology rank</text></g><g class="toyplot-coordinates-Axis-coordinates" style="visibility:hidden" transform=""><line x1="0" x2="0" y1="-5.0" y2="7.5" style="stroke:rgb(43.9%,50.2%,56.5%);stroke-opacity:1.0;stroke-width:1.0" /><text x="0" y="-10.0" style="alignment-baseline:alphabetic;fill:rgb(43.9%,50.2%,56.5%);fill-opacity:1.0;font-size:10px;font-weight:normal;stroke:none;text-anchor:middle" /></g></g><g class="toyplot-coordinates-Axis" id="te6a53bc28a4c4c7b8ce5dd8315cd9dbe" transform="translate(60.0,190.0)rotate(-90.0)translate(0,-10.0)"><line x1="0" y1="0" x2="130.0" y2="0" style="" /><g><line x1="0.0" y1="-5.0" x2="0.0" y2="0" style="" /><line x1="32.5" y1="-5.0" x2="32.5" y2="0" style="" /><line x1="65.0" y1="-5.0" x2="65.0" y2="0" style="" /><line x1="97.5" y1="-5.0" x2="97.5" y2="0" style="" /><line x1="130.0" y1="-5.0" x2="130.0" y2="0" style="" /></g><g><g transform="translate(0.0,-10.0)"><text x="-12.51" y="-4.440892098500626e-16" style="fill:rgb(16.1%,15.3%,14.1%);fill-opacity:1.0;font-family:helvetica;font-size:10.0px;font-weight:normal;stroke:none;vertical-align:baseline;white-space:pre">0.000</text></g><g transform="translate(32.5,-10.0)"><text x="-12.51" y="-4.440892098500626e-16" style="fill:rgb(16.1%,15.3%,14.1%);fill-opacity:1.0;font-family:helvetica;font-size:10.0px;font-weight:normal;stroke:none;vertical-align:baseline;white-space:pre">0.005</text></g><g transform="translate(65.0,-10.0)"><text x="-12.51" y="-4.440892098500626e-16" style="fill:rgb(16.1%,15.3%,14.1%);fill-opacity:1.0;font-family:helvetica;font-size:10.0px;font-weight:normal;stroke:none;vertical-align:baseline;white-space:pre">0.010</text></g><g transform="translate(97.5,-10.0)"><text x="-12.51" y="-4.440892098500626e-16" style="fill:rgb(16.1%,15.3%,14.1%);fill-opacity:1.0;font-family:helvetica;font-size:10.0px;font-weight:normal;stroke:none;vertical-align:baseline;white-space:pre">0.015</text></g><g transform="translate(130.0,-10.0)"><text x="-12.51" y="-4.440892098500626e-16" style="fill:rgb(16.1%,15.3%,14.1%);fill-opacity:1.0;font-family:helvetica;font-size:10.0px;font-weight:normal;stroke:none;vertical-align:baseline;white-space:pre">0.020</text></g></g><g transform="translate(65.0,-30.0)"><text x="-28.673999999999996" y="0.0" style="fill:rgb(16.1%,15.3%,14.1%);fill-opacity:1.0;font-family:helvetica;font-size:12.0px;font-weight:bold;stroke:none;vertical-align:baseline;white-space:pre">frequency</text></g><g class="toyplot-coordinates-Axis-coordinates" style="visibility:hidden" transform=""><line x1="0" x2="0" y1="5.0" y2="-7.5" style="stroke:rgb(43.9%,50.2%,56.5%);stroke-opacity:1.0;stroke-width:1.0" /><text x="0" y="10.0" style="alignment-baseline:hanging;fill:rgb(43.9%,50.2%,56.5%);fill-opacity:1.0;font-size:10px;font-weight:normal;stroke:none;text-anchor:middle" /></g></g><g transform="translate(175.0,40.0)"><text x="-130.718" y="-4.823" style="fill:rgb(16.1%,15.3%,14.1%);fill-opacity:1.0;font-family:helvetica;font-size:14.0px;font-weight:bold;stroke:none;vertical-align:baseline;white-space:pre">inferred gene trees (var=tg, loclen=1e5)</text></g></g></svg>