<svg class="toyplot-canvas-Canvas" xmlns:toyplot="http://www.sandia.gov/toyplot" xmlns:xlink="http://www.w3.org/1999/xlink" xmlns="http://www.w3.org/2000/svg" width="350.0px" height="250.0px" viewBox="0 0 350.0 250.0" preserveAspectRatio="xMidYMid meet" style="background-color:transparent;border-color:#292724;border-style:none;border-width:1.0;fill:rgb(16.1%,15.3%,14.1%);fill-opacity:1.0;font-family:Helvetica;font-size:12px;opacity:1.0;stroke:rgb(16.1%,15.3%,14.1%);stroke-opacity:1.0;stroke-width:1.0" id="t21e6e9f9fa5240bca42eeb6f76bdc69d"><g class="toyplot-coordinates-Cartesian" id="t9f1aacbb53c94f77bea3e742f46b2523"><clipPath id="te6f199878dfa466e85be0b4ef97a5858"><rect x="50.0" y="50.0" width="250.0" height="150.0" /></clipPath><g clip-path="url(#te6f199878dfa466e85be0b4ef97a5858)"><g class="toyplot-mark-FillBoundaries" style="stroke:none" id="t928a63dacfc841ed8eaa9eabb3fa264d"><polygon points="60.0,190.0 62.3,190.0 64.6,190.0 66.89999999999999,190.0 69.19999999999999,190.0 71.5,190.0 73.8,190.0 76.1,190.0 78.4,190.0 80.7,190.0 83.0,190.0 85.3,190.0 87.6,190.0 89.9,190.0 92.2,190.0 94.5,190.0 96.8,190.0 99.1,190.0 101.4,190.0 103.7,190.0 106.0,190.0 108.30000000000001,190.0 110.6,190.0 112.9,190.0 115.19999999999999,190.0 117.5,190.0 119.80000000000001,190.0 122.10000000000001,190.0 124.4,190.0 126.69999999999999,190.0 129.0,190.0 131.3,190.0 133.6,190.0 135.9,190.0 138.2,190.0 140.5,190.0 142.79999999999998,190.0 145.1,190.0 147.4,190.0 149.70000000000002,190.0 152.0,190.0 154.3,190.0 156.6,190.0 158.9,190.0 161.2,190.0 163.5,190.0 165.8,190.0 168.1,190.0 170.39999999999998,190.0 172.7,190.0 175.0,190.0 177.3,190.0 179.60000000000002,190.0 181.9,190.0 184.20000000000002,190.0 186.5,190.0 188.8,190.0 191.1,190.0 193.39999999999998,190.0 195.7,190.0 198.0,190.0 200.3,190.0 202.60000000000002,190.0 204.89999999999998,190.0 207.2,190.0 209.5,190.0 211.8,190.0 214.10000000000002,190.0 216.4,190.0 218.7,190.0 221.0,190.0 223.29999999999998,190.0 225.6,190.0 227.89999999999998,190.0 230.2,190.0 232.5,190.0 234.8,190.0 237.10000000000002,190.0 239.4,190.0 241.70000000000002,190.0 244.0,190.0 246.3,190.0 248.6,190.0 250.89999999999998,190.0 253.2,190.0 255.5,190.0 257.8,190.0 260.1,190.0 262.4,190.0 264.70000000000005,190.0 267.0,190.0 269.3,190.0 271.6,190.0 273.9,190.0 276.2,190.0 278.5,190.0 280.79999999999995,190.0 283.1,190.0 285.4,190.0 287.70000000000005,190.0 287.70000000000005,176.35000000000002 285.4,176.22000000000003 283.1,176.09 280.79999999999995,175.95999999999998 278.5,175.95999999999998 276.2,175.95999999999998 273.9,175.82999999999998 271.6,175.7 269.3,175.7 267.0,175.57 264.70000000000005,175.57 262.4,175.44 260.1,175.44 257.8,175.31 255.5,175.05 253.2,175.05 250.89999999999998,175.05 248.6,174.92000000000002 246.3,174.92000000000002 244.0,174.92000000000002 241.70000000000002,174.92000000000002 239.4,174.92000000000002 237.10000000000002,174.79000000000002 234.8,174.66000000000003 232.5,174.39999999999998 230.2,174.26999999999998 227.89999999999998,174.14 225.6,174.14 223.29999999999998,174.01 221.0,174.01 218.7,173.88 216.4,173.88 214.10000000000002,173.75 211.8,173.49 209.5,173.36 207.2,173.36 204.89999999999998,173.10000000000002 202.60000000000002,172.83999999999997 200.3,172.45 198.0,172.19 195.7,172.19 193.39999999999998,172.19 191.1,172.06 188.8,172.06 186.5,171.8 184.20000000000002,171.8 181.9,171.67000000000002 179.60000000000002,171.41 177.3,171.27999999999997 175.0,171.27999999999997 172.7,171.27999999999997 170.39999999999998,171.27999999999997 168.1,171.14999999999998 165.8,171.14999999999998 163.5,171.01999999999998 161.2,170.89 158.9,170.89 156.6,170.76 154.3,170.37 152.0,170.24 149.70000000000002,170.24 147.4,170.24 145.1,169.71999999999997 142.79999999999998,169.58999999999997 140.5,169.32999999999998 138.2,169.2 135.9,168.68 133.6,168.02999999999997 131.3,167.76999999999998 129.0,167.25 126.69999999999999,166.60000000000002 124.4,166.46999999999997 122.10000000000001,165.17 119.80000000000001,164.91 117.5,164.78000000000003 115.19999999999999,164.78000000000003 112.9,164.78000000000003 110.6,164.0 108.30000000000001,164.0 106.0,163.86999999999998 103.7,163.74 101.4,162.18 99.1,160.88 96.8,158.93 94.5,149.95999999999998 92.2,129.42000000000002 89.9,126.03999999999999 87.6,120.83999999999999 85.3,113.69000000000001 83.0,112.13 80.7,106.02000000000001 78.4,89.38 76.1,85.08999999999999 73.8,84.18 71.5,80.15000000000002 69.19999999999999,74.82 66.89999999999999,73.52000000000001 64.6,63.120000000000005 62.3,62.990000000000016 60.0,61.430000000000014" style="fill:rgb(40%,76.1%,64.7%);fill-opacity:1.0;opacity:1.0;stroke:none" /></g></g><g class="toyplot-coordinates-Axis" id="td93e0b4dc4b94b48b8406ac01bb66de0" transform="translate(60.0,190.0)translate(0,10.0)"><line x1="0" y1="0" x2="230.0" y2="0" style="" /><g><line x1="0.0" y1="5.0" x2="0.0" y2="0" style="" /><line x1="115.0" y1="5.0" x2="115.0" y2="0" style="" /><line x1="230.0" y1="5.0" x2="230.0" y2="0" style="" /></g><g><g transform="translate(0.0,10.0)"><text x="-2.78" y="8.555" style="fill:rgb(16.1%,15.3%,14.1%);fill-opacity:1.0;font-family:helvetica;font-size:10.0px;font-weight:normal;stroke:none;vertical-align:baseline;white-space:pre">0</text></g><g transform="translate(115.0,10.0)"><text x="-5.56" y="8.555" style="fill:rgb(16.1%,15.3%,14.1%);fill-opacity:1.0;font-family:helvetica;font-size:10.0px;font-weight:normal;stroke:none;vertical-align:baseline;white-space:pre">50</text></g><g transform="translate(230.0,10.0)"><text x="-8.34" y="8.555" style="fill:rgb(16.1%,15.3%,14.1%);fill-opacity:1.0;font-family:helvetica;font-size:10.0px;font-weight:normal;stroke:none;vertical-align:baseline;white-space:pre">100</text></g></g><g transform="translate(115.0,30.0)"><text x="-39.672000000000004" y="10.265999999999998" style="fill:rgb(16.1%,15.3%,14.1%);fill-opacity:1.0;font-family:helvetica;font-size:12.0px;font-weight:bold;stroke:none;vertical-align:baseline;white-space:pre">topology rank</text></g><g class="toyplot-coordinates-Axis-coordinates" style="visibility:hidden" transform=""><line x1="0" x2="0" y1="-5.0" y2="7.5" style="stroke:rgb(43.9%,50.2%,56.5%);stroke-opacity:1.0;stroke-width:1.0" /><text x="0" y="-10.0" style="alignment-baseline:alphabetic;fill:rgb(43.9%,50.2%,56.5%);fill-opacity:1.0;font-size:10px;font-weight:normal;stroke:none;text-anchor:middle" /></g></g><g class="toyplot-coordinates-Axis" id="t7f2d9abffdf5433c8aa25b261e052b46" transform="translate(60.0,190.0)rotate(-90.0)translate(0,-10.0)"><line x1="0" y1="0" x2="130.0" y2="0" style="" /><g><line x1="0.0" y1="-5.0" x2="0.0" y2="0" style="" /><line x1="32.5" y1="-5.0" x2="32.5" y2="0" style="" /><line x1="65.0" y1="-5.0" x2="65.0" y2="0" style="" /><line x1="97.5" y1="-5.0" x2="97.5" y2="0" style="" /><line x1="130.0" y1="-5.0" x2="130.0" y2="0" style="" /></g><g><g transform="translate(0.0,-10.0)"><text x="-12.51" y="-4.440892098500626e-16" style="fill:rgb(16.1%,15.3%,14.1%);fill-opacity:1.0;font-family:helvetica;font-size:10.0px;font-weight:normal;stroke:none;vertical-align:baseline;white-space:pre">0.000</text></g><g transform="translate(32.5,-10.0)"><text x="-12.51" y="-4.440892098500626e-16" style="fill:rgb(16.1%,15.3%,14.1%);fill-opacity:1.0;font-family:helvetica;font-size:10.0px;font-weight:normal;stroke:none;vertical-align:baseline;white-space:pre">0.005</text></g><g transform="translate(65.0,-10.0)"><text x="-12.51" y="-4.440892098500626e-16" style="fill:rgb(16.1%,15.3%,14.1%);fill-opacity:1.0;font-family:helvetica;font-size:10.0px;font-weight:normal;stroke:none;vertical-align:baseline;white-space:pre">0.010</text></g><g transform="translate(97.5,-10.0)"><text x="-12.51" y="-4.440892098500626e-16" style="fill:rgb(16.1%,15.3%,14.1%);fill-opacity:1.0;font-family:helvetica;font-size:10.0px;font-weight:normal;stroke:none;vertical-align:baseline;white-space:pre">0.015</text></g><g transform="translate(130.0,-10.0)"><text x="-12.51" y="-4.440892098500626e-16" style="fill:rgb(16.1%,15.3%,14.1%);fill-opacity:1.0;font-family:helvetica;font-size:10.0px;font-weight:normal;stroke:none;vertical-align:baseline;white-space:pre">0.020</text></g></g><g transform="translate(65.0,-30.0)"><text x="-28.673999999999996" y="0.0" style="fill:rgb(16.1%,15.3%,14.1%);fill-opacity:1.0;font-family:helvetica;font-size:12.0px;font-weight:bold;stroke:none;vertical-align:baseline;white-space:pre">frequency</text></g><g class="toyplot-coordinates-Axis-coordinates" style="visibility:hidden" transform=""><line x1="0" x2="0" y1="5.0" y2="-7.5" style="stroke:rgb(43.9%,50.2%,56.5%);stroke-opacity:1.0;stroke-width:1.0" /><text x="0" y="10.0" style="alignment-baseline:hanging;fill:rgb(43.9%,50.2%,56.5%);fill-opacity:1.0;font-size:10px;font-weight:normal;stroke:none;text-anchor:middle" /></g></g><g transform="translate(175.0,40.0)"><text x="-133.056" y="-4.823" style="fill:rgb(16.1%,15.3%,14.1%);fill-opacity:1.0;font-family:helvetica;font-size:14.0px;font-weight:bold;stroke:none;vertical-align:baseline;white-space:pre">inferred gene trees (var=Ne, loclen=1e5)</text></g></g></svg>