<svg class="toyplot-canvas-Canvas" xmlns:toyplot="http://www.sandia.gov/toyplot" xmlns:xlink="http://www.w3.org/1999/xlink" xmlns="http://www.w3.org/2000/svg" width="350.0px" height="250.0px" viewBox="0 0 350.0 250.0" preserveAspectRatio="xMidYMid meet" style="background-color:transparent;border-color:#292724;border-style:none;border-width:1.0;fill:rgb(16.1%,15.3%,14.1%);fill-opacity:1.0;font-family:Helvetica;font-size:12px;opacity:1.0;stroke:rgb(16.1%,15.3%,14.1%);stroke-opacity:1.0;stroke-width:1.0" id="tc174f7f4f7964a81a44b3485dceccc41"><g class="toyplot-coordinates-Cartesian" id="t9bfd343e9ad14e6ab0a5e677687adfe6"><clipPath id="t57dca01eb04140108a70dd2b999f1450"><rect x="50.0" y="50.0" width="250.0" height="150.0" /></clipPath><g clip-path="url(#t57dca01eb04140108a70dd2b999f1450)"><g class="toyplot-mark-FillBoundaries" style="stroke:none" id="t76d6ae1c4a5043298f95fd0d27216139"><polygon points="60.0,190.0 62.3,190.0 64.6,190.0 66.89999999999999,190.0 69.19999999999999,190.0 71.5,190.0 73.8,190.0 76.1,190.0 78.4,190.0 80.7,190.0 83.0,190.0 85.3,190.0 87.6,190.0 89.9,190.0 92.2,190.0 94.5,190.0 96.8,190.0 99.1,190.0 101.4,190.0 103.7,190.0 106.0,190.0 108.30000000000001,190.0 110.6,190.0 112.9,190.0 115.19999999999999,190.0 117.5,190.0 119.80000000000001,190.0 122.10000000000001,190.0 124.4,190.0 126.69999999999999,190.0 129.0,190.0 131.3,190.0 133.6,190.0 135.9,190.0 138.2,190.0 140.5,190.0 142.79999999999998,190.0 145.1,190.0 147.4,190.0 149.70000000000002,190.0 152.0,190.0 154.3,190.0 156.6,190.0 158.9,190.0 161.2,190.0 163.5,190.0 165.8,190.0 168.1,190.0 170.39999999999998,190.0 172.7,190.0 175.0,190.0 177.3,190.0 179.60000000000002,190.0 181.9,190.0 184.20000000000002,190.0 186.5,190.0 188.8,190.0 191.1,190.0 193.39999999999998,190.0 195.7,190.0 198.0,190.0 200.3,190.0 202.60000000000002,190.0 204.89999999999998,190.0 207.2,190.0 209.5,190.0 211.8,190.0 214.10000000000002,190.0 216.4,190.0 218.7,190.0 221.0,190.0 223.29999999999998,190.0 225.6,190.0 227.89999999999998,190.0 230.2,190.0 232.5,190.0 234.8,190.0 237.10000000000002,190.0 239.4,190.0 241.70000000000002,190.0 244.0,190.0 246.3,190.0 248.6,190.0 250.89999999999998,190.0 253.2,190.0 255.5,190.0 257.8,190.0 260.1,190.0 262.4,190.0 264.70000000000005,190.0 267.0,190.0 269.3,190.0 271.6,190.0 273.9,190.0 276.2,190.0 278.5,190.0 280.79999999999995,190.0 283.1,190.0 285.4,190.0 287.70000000000005,190.0 287.70000000000005,187.79000000000002 285.4,187.79000000000002 283.1,187.79000000000002 280.79999999999995,187.79000000000002 278.5,187.79000000000002 276.2,187.79000000000002 273.9,187.79000000000002 271.6,187.79000000000002 269.3,187.66 267.0,187.66 264.70000000000005,187.66 262.4,187.66 260.1,187.66 257.8,187.66 255.5,187.66 253.2,187.66 250.89999999999998,187.66 248.6,187.66 246.3,187.66 244.0,187.66 241.70000000000002,187.66 239.4,187.66 237.10000000000002,187.66 234.8,187.66 232.5,187.66 230.2,187.52999999999997 227.89999999999998,187.52999999999997 225.6,187.52999999999997 223.29999999999998,187.52999999999997 221.0,187.52999999999997 218.7,187.52999999999997 216.4,187.52999999999997 214.10000000000002,187.52999999999997 211.8,187.52999999999997 209.5,187.52999999999997 207.2,187.52999999999997 204.89999999999998,187.52999999999997 202.60000000000002,187.52999999999997 200.3,187.52999999999997 198.0,187.52999999999997 195.7,187.52999999999997 193.39999999999998,187.52999999999997 191.1,187.39999999999998 188.8,187.39999999999998 186.5,187.39999999999998 184.20000000000002,187.39999999999998 181.9,187.39999999999998 179.60000000000002,187.39999999999998 177.3,187.39999999999998 175.0,187.39999999999998 172.7,187.39999999999998 170.39999999999998,187.39999999999998 168.1,187.39999999999998 165.8,187.39999999999998 163.5,187.39999999999998 161.2,187.39999999999998 158.9,187.39999999999998 156.6,187.39999999999998 154.3,187.39999999999998 152.0,187.26999999999998 149.70000000000002,187.26999999999998 147.4,187.26999999999998 145.1,187.26999999999998 142.79999999999998,187.26999999999998 140.5,187.14 138.2,187.14 135.9,187.14 133.6,187.14 131.3,187.01 129.0,187.01 126.69999999999999,187.01 124.4,187.01 122.10000000000001,187.01 119.80000000000001,187.01 117.5,187.01 115.19999999999999,187.01 112.9,187.01 110.6,186.88 108.30000000000001,186.88 106.0,186.88 103.7,186.88 101.4,186.88 99.1,186.88 96.8,186.88 94.5,186.88 92.2,186.88 89.9,186.75 87.6,186.75 85.3,186.62 83.0,186.62 80.7,186.62 78.4,186.49 76.1,186.49 73.8,186.36 71.5,186.36 69.19999999999999,186.23000000000002 66.89999999999999,186.1 64.6,185.97 62.3,185.32 60.0,185.19" style="fill:rgb(40%,76.1%,64.7%);fill-opacity:1.0;opacity:1.0;stroke:none" /></g></g><g class="toyplot-coordinates-Axis" id="tc1102242e81a4460b7c88c1966ab3481" transform="translate(60.0,190.0)translate(0,10.0)"><line x1="0" y1="0" x2="230.0" y2="0" style="" /><g><line x1="0.0" y1="5.0" x2="0.0" y2="0" style="" /><line x1="115.0" y1="5.0" x2="115.0" y2="0" style="" /><line x1="230.0" y1="5.0" x2="230.0" y2="0" style="" /></g><g><g transform="translate(0.0,10.0)"><text x="-2.78" y="8.555" style="fill:rgb(16.1%,15.3%,14.1%);fill-opacity:1.0;font-family:helvetica;font-size:10.0px;font-weight:normal;stroke:none;vertical-align:baseline;white-space:pre">0</text></g><g transform="translate(115.0,10.0)"><text x="-5.56" y="8.555" style="fill:rgb(16.1%,15.3%,14.1%);fill-opacity:1.0;font-family:helvetica;font-size:10.0px;font-weight:normal;stroke:none;vertical-align:baseline;white-space:pre">50</text></g><g transform="translate(230.0,10.0)"><text x="-8.34" y="8.555" style="fill:rgb(16.1%,15.3%,14.1%);fill-opacity:1.0;font-family:helvetica;font-size:10.0px;font-weight:normal;stroke:none;vertical-align:baseline;white-space:pre">100</text></g></g><g transform="translate(115.0,30.0)"><text x="-39.672000000000004" y="10.265999999999998" style="fill:rgb(16.1%,15.3%,14.1%);fill-opacity:1.0;font-family:helvetica;font-size:12.0px;font-weight:bold;stroke:none;vertical-align:baseline;white-space:pre">topology rank</text></g><g class="toyplot-coordinates-Axis-coordinates" style="visibility:hidden" transform=""><line x1="0" x2="0" y1="-5.0" y2="7.5" style="stroke:rgb(43.9%,50.2%,56.5%);stroke-opacity:1.0;stroke-width:1.0" /><text x="0" y="-10.0" style="alignment-baseline:alphabetic;fill:rgb(43.9%,50.2%,56.5%);fill-opacity:1.0;font-size:10px;font-weight:normal;stroke:none;text-anchor:middle" /></g></g><g class="toyplot-coordinates-Axis" id="t9a07036fc78c45e59bfb5fd2ec8e6d99" transform="translate(60.0,190.0)rotate(-90.0)translate(0,-10.0)"><line x1="0" y1="0" x2="130.0" y2="0" style="" /><g><line x1="0.0" y1="-5.0" x2="0.0" y2="0" style="" /><line x1="32.5" y1="-5.0" x2="32.5" y2="0" style="" /><line x1="65.0" y1="-5.0" x2="65.0" y2="0" style="" /><line x1="97.5" y1="-5.0" x2="97.5" y2="0" style="" /><line x1="130.0" y1="-5.0" x2="130.0" y2="0" style="" /></g><g><g transform="translate(0.0,-10.0)"><text x="-12.51" y="-4.440892098500626e-16" style="fill:rgb(16.1%,15.3%,14.1%);fill-opacity:1.0;font-family:helvetica;font-size:10.0px;font-weight:normal;stroke:none;vertical-align:baseline;white-space:pre">0.000</text></g><g transform="translate(32.5,-10.0)"><text x="-12.51" y="-4.440892098500626e-16" style="fill:rgb(16.1%,15.3%,14.1%);fill-opacity:1.0;font-family:helvetica;font-size:10.0px;font-weight:normal;stroke:none;vertical-align:baseline;white-space:pre">0.005</text></g><g transform="translate(65.0,-10.0)"><text x="-12.51" y="-4.440892098500626e-16" style="fill:rgb(16.1%,15.3%,14.1%);fill-opacity:1.0;font-family:helvetica;font-size:10.0px;font-weight:normal;stroke:none;vertical-align:baseline;white-space:pre">0.010</text></g><g transform="translate(97.5,-10.0)"><text x="-12.51" y="-4.440892098500626e-16" style="fill:rgb(16.1%,15.3%,14.1%);fill-opacity:1.0;font-family:helvetica;font-size:10.0px;font-weight:normal;stroke:none;vertical-align:baseline;white-space:pre">0.015</text></g><g transform="translate(130.0,-10.0)"><text x="-12.51" y="-4.440892098500626e-16" style="fill:rgb(16.1%,15.3%,14.1%);fill-opacity:1.0;font-family:helvetica;font-size:10.0px;font-weight:normal;stroke:none;vertical-align:baseline;white-space:pre">0.020</text></g></g><g transform="translate(65.0,-30.0)"><text x="-28.673999999999996" y="0.0" style="fill:rgb(16.1%,15.3%,14.1%);fill-opacity:1.0;font-family:helvetica;font-size:12.0px;font-weight:bold;stroke:none;vertical-align:baseline;white-space:pre">frequency</text></g><g class="toyplot-coordinates-Axis-coordinates" style="visibility:hidden" transform=""><line x1="0" x2="0" y1="5.0" y2="-7.5" style="stroke:rgb(43.9%,50.2%,56.5%);stroke-opacity:1.0;stroke-width:1.0" /><text x="0" y="10.0" style="alignment-baseline:hanging;fill:rgb(43.9%,50.2%,56.5%);fill-opacity:1.0;font-size:10px;font-weight:normal;stroke:none;text-anchor:middle" /></g></g><g transform="translate(175.0,40.0)"><text x="-133.056" y="-4.823" style="fill:rgb(16.1%,15.3%,14.1%);fill-opacity:1.0;font-family:helvetica;font-size:14.0px;font-weight:bold;stroke:none;vertical-align:baseline;white-space:pre">inferred gene trees (var=Ne, loclen=1e3)</text></g></g></svg>