<svg class="toyplot-canvas-Canvas" xmlns:toyplot="http://www.sandia.gov/toyplot" xmlns:xlink="http://www.w3.org/1999/xlink" xmlns="http://www.w3.org/2000/svg" width="250.0px" height="250.0px" viewBox="0 0 250.0 250.0" preserveAspectRatio="xMidYMid meet" style="background-color:transparent;border-color:#292724;border-style:none;border-width:1.0;fill:rgb(16.1%,15.3%,14.1%);fill-opacity:1.0;font-family:Helvetica;font-size:12px;opacity:1.0;stroke:rgb(16.1%,15.3%,14.1%);stroke-opacity:1.0;stroke-width:1.0" id="t99bbb1f959d54c2285c1f9cc64791afd"><g class="toyplot-coordinates-Cartesian" id="t72751943812d459382bb2bbf28daa579"><clipPath id="tc2f01255a8c44ead92c3ea0c0530213e"><rect x="50.0" y="50.0" width="150.0" height="150.0" /></clipPath><g clip-path="url(#tc2f01255a8c44ead92c3ea0c0530213e)"><g class="toyplot-mark-FillBoundaries" style="stroke:none" id="tdff766ffb13048639abdb759d9ca8d7b"><polygon points="60.0,190.0 61.3,190.0 62.599999999999994,190.0 63.9,190.0 65.19999999999999,190.0 66.5,190.0 67.8,190.0 69.1,190.0 70.4,190.0 71.7,190.0 73.0,190.0 74.3,190.0 75.6,190.0 76.9,190.0 78.2,190.0 79.5,190.0 80.8,190.0 82.1,190.0 83.4,190.0 84.7,190.0 86.0,190.0 87.30000000000001,190.0 88.6,190.0 89.9,190.0 91.2,190.0 92.5,190.0 93.8,190.0 95.1,190.0 96.4,190.0 97.69999999999999,190.0 99.0,190.0 100.3,190.0 101.6,190.0 102.9,190.0 104.2,190.0 105.5,190.0 106.79999999999998,190.0 108.1,190.0 109.4,190.0 110.70000000000002,190.0 112.0,190.0 113.3,190.0 114.6,190.0 115.9,190.0 117.19999999999999,190.0 118.5,190.0 119.80000000000001,190.0 121.1,190.0 122.4,190.0 123.69999999999999,190.0 125.0,190.0 126.30000000000001,190.0 127.6,190.0 128.9,190.0 130.20000000000002,190.0 131.5,190.0 132.8,190.0 134.1,190.0 135.39999999999998,190.0 136.7,190.0 138.0,190.0 139.29999999999998,190.0 140.6,190.0 141.9,190.0 143.20000000000002,190.0 144.5,190.0 145.8,190.0 147.10000000000002,190.0 148.4,190.0 149.7,190.0 151.0,190.0 152.3,190.0 153.6,190.0 154.89999999999998,190.0 156.2,190.0 157.5,190.0 158.8,190.0 160.10000000000002,190.0 161.4,190.0 162.7,190.0 164.0,190.0 165.3,190.0 166.6,190.0 167.89999999999998,190.0 169.2,190.0 170.5,190.0 171.8,190.0 173.10000000000002,190.0 174.39999999999998,190.0 175.7,190.0 177.0,190.0 178.3,190.0 179.60000000000002,190.0 180.9,190.0 182.2,190.0 183.5,190.0 184.8,190.0 186.1,190.0 187.39999999999998,190.0 188.7,190.0 188.7,178.95 187.39999999999998,178.82 186.1,178.82 184.8,178.69 183.5,178.69 182.2,178.56 180.9,178.56 179.60000000000002,178.56 178.3,178.56 177.0,178.43 175.7,178.3 174.39999999999998,178.04000000000002 173.10000000000002,178.04000000000002 171.8,177.91000000000003 170.5,177.91000000000003 169.2,177.78 167.89999999999998,177.78 166.6,177.65 165.3,177.13 164.0,177.13 162.7,176.87 161.4,176.74 160.10000000000002,176.74 158.8,176.74 157.5,176.61 156.2,176.35000000000002 154.89999999999998,176.09 153.6,175.82999999999998 152.3,175.57 151.0,175.44 149.7,174.92000000000002 148.4,174.53000000000003 147.10000000000002,174.53000000000003 145.8,174.39999999999998 144.5,174.14 143.20000000000002,174.14 141.9,174.14 140.6,174.14 139.29999999999998,174.01 138.0,173.75 136.7,173.62 135.39999999999998,173.49 134.1,173.49 132.8,173.36 131.5,173.36 130.20000000000002,172.97 128.9,172.97 127.6,172.97 126.30000000000001,172.97 125.0,172.97 123.69999999999999,172.45 122.4,172.32 121.1,172.32 119.80000000000001,172.06 118.5,172.06 117.19999999999999,172.06 115.9,171.93 114.6,171.8 113.3,171.67000000000002 112.0,171.41 110.70000000000002,171.14999999999998 109.4,170.76 108.1,170.5 106.79999999999998,169.45999999999998 105.5,169.32999999999998 104.2,169.07 102.9,168.94000000000003 101.6,168.94000000000003 100.3,168.81 99.0,168.81 97.69999999999999,168.55 96.4,168.42 95.1,168.42 93.8,167.38000000000002 92.5,167.12 91.2,166.46999999999997 89.9,165.95 88.6,165.56 87.30000000000001,164.91 86.0,164.39000000000001 84.7,164.26 83.4,164.26 82.1,163.86999999999998 80.8,163.35 79.5,162.44 78.2,162.31 76.9,161.79000000000002 75.6,159.45 74.3,157.63 73.0,156.98000000000002 71.7,152.43 70.4,150.74 69.1,147.62 67.8,146.06 66.5,144.63 65.19999999999999,132.02 63.9,128.64000000000001 62.599999999999994,106.66999999999999 61.3,105.76000000000002 60.0,94.97" style="fill:rgb(40%,76.1%,64.7%);fill-opacity:1.0;opacity:1.0;stroke:none" /></g></g><g class="toyplot-coordinates-Axis" id="t68142f60044446c4818411c4153f8e42" transform="translate(60.0,190.0)translate(0,10.0)"><line x1="0" y1="0" x2="130.0" y2="0" style="" /><g><line x1="0.0" y1="5.0" x2="0.0" y2="0" style="" /><line x1="65.0" y1="5.0" x2="65.0" y2="0" style="" /><line x1="130.0" y1="5.0" x2="130.0" y2="0" style="" /></g><g><g transform="translate(0.0,10.0)"><text x="-3.892000000000001" y="11.977" style="fill:rgb(16.1%,15.3%,14.1%);fill-opacity:1.0;font-family:helvetica;font-size:14.0px;font-weight:normal;stroke:none;vertical-align:baseline;white-space:pre">0</text></g><g transform="translate(65.0,10.0)"><text x="-7.784000000000002" y="11.977" style="fill:rgb(16.1%,15.3%,14.1%);fill-opacity:1.0;font-family:helvetica;font-size:14.0px;font-weight:normal;stroke:none;vertical-align:baseline;white-space:pre">50</text></g><g transform="translate(130.0,10.0)"><text x="-11.676" y="11.977" style="fill:rgb(16.1%,15.3%,14.1%);fill-opacity:1.0;font-family:helvetica;font-size:14.0px;font-weight:normal;stroke:none;vertical-align:baseline;white-space:pre">100</text></g></g><g transform="translate(65.0,30.0)"><text x="-41.34" y="10.265999999999998" style="fill:rgb(16.1%,15.3%,14.1%);fill-opacity:1.0;font-family:helvetica;font-size:12.0px;font-weight:bold;stroke:none;vertical-align:baseline;white-space:pre">Topology rank</text></g><g class="toyplot-coordinates-Axis-coordinates" style="visibility:hidden" transform=""><line x1="0" x2="0" y1="-5.0" y2="7.5" style="stroke:rgb(43.9%,50.2%,56.5%);stroke-opacity:1.0;stroke-width:1.0" /><text x="0" y="-10.0" style="alignment-baseline:alphabetic;fill:rgb(43.9%,50.2%,56.5%);fill-opacity:1.0;font-size:10px;font-weight:normal;stroke:none;text-anchor:middle" /></g></g><g class="toyplot-coordinates-Axis" id="tb4ffb1bd93ce49a5ad87d87284f91a2a" transform="translate(60.0,190.0)rotate(-90.0)translate(0,-10.0)"><line x1="0" y1="0" x2="130.0" y2="0" style="" /><g><line x1="0.0" y1="-5.0" x2="0.0" y2="0" style="" /><line x1="65.0" y1="-5.0" x2="65.0" y2="0" style="" /><line x1="130.0" y1="-5.0" x2="130.0" y2="0" style="" /></g><g><g transform="translate(0.0,-10.0)"><text x="-3.892000000000001" y="0.0" style="fill:rgb(16.1%,15.3%,14.1%);fill-opacity:1.0;font-family:helvetica;font-size:14.0px;font-weight:normal;stroke:none;vertical-align:baseline;white-space:pre">0</text></g><g transform="translate(65.0,-10.0)"><text x="-13.622" y="0.0" style="fill:rgb(16.1%,15.3%,14.1%);fill-opacity:1.0;font-family:helvetica;font-size:14.0px;font-weight:normal;stroke:none;vertical-align:baseline;white-space:pre">0.01</text></g><g transform="translate(130.0,-10.0)"><text x="-13.622" y="0.0" style="fill:rgb(16.1%,15.3%,14.1%);fill-opacity:1.0;font-family:helvetica;font-size:14.0px;font-weight:normal;stroke:none;vertical-align:baseline;white-space:pre">0.02</text></g></g><g transform="translate(65.0,-30.0)"><text x="-30.342000000000002" y="0.0" style="fill:rgb(16.1%,15.3%,14.1%);fill-opacity:1.0;font-family:helvetica;font-size:12.0px;font-weight:bold;stroke:none;vertical-align:baseline;white-space:pre">Frequency</text></g><g class="toyplot-coordinates-Axis-coordinates" style="visibility:hidden" transform=""><line x1="0" x2="0" y1="5.0" y2="-7.5" style="stroke:rgb(43.9%,50.2%,56.5%);stroke-opacity:1.0;stroke-width:1.0" /><text x="0" y="10.0" style="alignment-baseline:hanging;fill:rgb(43.9%,50.2%,56.5%);fill-opacity:1.0;font-size:10px;font-weight:normal;stroke:none;text-anchor:middle" /></g></g></g><g class="toyplot-coordinates-Cartesian" id="tddc5e3fd771c4f21ab643ac951afe0db"><clipPath id="t8e0be368a8fb4f48be9d6e63003ba127"><rect x="50.0" y="40.0" width="150.0" height="170.0" /></clipPath><g clip-path="url(#t8e0be368a8fb4f48be9d6e63003ba127)" /><g class="toyplot-coordinates-Axis" id="t885d7bb9c410459c9906482c78ea006f" transform="translate(190.0,200.0)rotate(-90.0)translate(0,10.0)"><line x1="0" y1="0" x2="150.0" y2="0" style="" /><g class="toyplot-coordinates-Axis-coordinates" style="visibility:hidden" transform=""><line x1="0" x2="0" y1="-3.0" y2="4.5" style="stroke:rgb(43.9%,50.2%,56.5%);stroke-opacity:1.0;stroke-width:1.0" /><text x="0" y="-6" style="alignment-baseline:alphabetic;fill:rgb(43.9%,50.2%,56.5%);fill-opacity:1.0;font-size:10px;font-weight:normal;stroke:none;text-anchor:middle" /></g></g></g><g class="toyplot-coordinates-Cartesian" id="t3d1be5f2e2e941b6bb5a4e78ad836af8"><clipPath id="t01cab502b6fb4feab854cee6c3618bb7"><rect x="50.0" y="40.0" width="150.0" height="170.0" /></clipPath><g clip-path="url(#t01cab502b6fb4feab854cee6c3618bb7)" /><g class="toyplot-coordinates-Axis" id="tfd23260b8cea4406b0b3a672ae76d6f2" transform="translate(60.0,200.0)rotate(-90.0)translate(0,-10.0)"><line x1="0" y1="0" x2="150.0" y2="0" style="" /><g class="toyplot-coordinates-Axis-coordinates" style="visibility:hidden" transform=""><line x1="0" x2="0" y1="3.0" y2="-4.5" style="stroke:rgb(43.9%,50.2%,56.5%);stroke-opacity:1.0;stroke-width:1.0" /><text x="0" y="6" style="alignment-baseline:hanging;fill:rgb(43.9%,50.2%,56.5%);fill-opacity:1.0;font-size:10px;font-weight:normal;stroke:none;text-anchor:middle" /></g></g></g><g class="toyplot-coordinates-Cartesian" id="ta6ab5da048554cbba8f324b67164cb49"><clipPath id="tbaa352c59a074c1db2aa2d35305120e4"><rect x="40.0" y="50.0" width="170.0" height="150.0" /></clipPath><g clip-path="url(#tbaa352c59a074c1db2aa2d35305120e4)" /><g class="toyplot-coordinates-Axis" id="t8d6bb692331743b38f6658d1f29868cd" transform="translate(50.0,60.0)translate(0,-10.0)"><line x1="0" y1="0" x2="150.0" y2="0" style="" /><g class="toyplot-coordinates-Axis-coordinates" style="visibility:hidden" transform=""><line x1="0" x2="0" y1="3.0" y2="-4.5" style="stroke:rgb(43.9%,50.2%,56.5%);stroke-opacity:1.0;stroke-width:1.0" /><text x="0" y="6" style="alignment-baseline:hanging;fill:rgb(43.9%,50.2%,56.5%);fill-opacity:1.0;font-size:10px;font-weight:normal;stroke:none;text-anchor:middle" /></g></g></g><g class="toyplot-coordinates-Cartesian" id="t9b1b3c85b8c64dacbc725ebcdf50fb28"><clipPath id="t9d11ed8e88544b9e85d9b489442482e8"><rect x="40.0" y="50.0" width="170.0" height="150.0" /></clipPath><g clip-path="url(#t9d11ed8e88544b9e85d9b489442482e8)" /><g class="toyplot-coordinates-Axis" id="t4ed188217497494586aac85f495176df" transform="translate(50.0,190.0)translate(0,10.0)"><line x1="0" y1="0" x2="150.0" y2="0" style="" /><g class="toyplot-coordinates-Axis-coordinates" style="visibility:hidden" transform=""><line x1="0" x2="0" y1="-3.0" y2="4.5" style="stroke:rgb(43.9%,50.2%,56.5%);stroke-opacity:1.0;stroke-width:1.0" /><text x="0" y="-6" style="alignment-baseline:alphabetic;fill:rgb(43.9%,50.2%,56.5%);fill-opacity:1.0;font-size:10px;font-weight:normal;stroke:none;text-anchor:middle" /></g></g></g></svg>