<svg class="toyplot-canvas-Canvas" xmlns:toyplot="http://www.sandia.gov/toyplot" xmlns:xlink="http://www.w3.org/1999/xlink" xmlns="http://www.w3.org/2000/svg" width="250.0px" height="250.0px" viewBox="0 0 250.0 250.0" preserveAspectRatio="xMidYMid meet" style="background-color:transparent;border-color:#292724;border-style:none;border-width:1.0;fill:rgb(16.1%,15.3%,14.1%);fill-opacity:1.0;font-family:Helvetica;font-size:12px;opacity:1.0;stroke:rgb(16.1%,15.3%,14.1%);stroke-opacity:1.0;stroke-width:1.0" id="tbae87701c7ec45fba300d7f57e69ce06"><g class="toyplot-coordinates-Cartesian" id="t5026618f52c743f59478a12dfaa5177c"><clipPath id="t695044fa25714593948a6c343bb29beb"><rect x="50.0" y="50.0" width="150.0" height="150.0" /></clipPath><g clip-path="url(#t695044fa25714593948a6c343bb29beb)"><g class="toyplot-mark-FillBoundaries" style="stroke:none" id="tc478472b803f443199a03479d5f77a8c"><polygon points="60.0,190.0 61.3,190.0 62.599999999999994,190.0 63.9,190.0 65.19999999999999,190.0 66.5,190.0 67.8,190.0 69.1,190.0 70.4,190.0 71.7,190.0 73.0,190.0 74.3,190.0 75.6,190.0 76.9,190.0 78.2,190.0 79.5,190.0 80.8,190.0 82.1,190.0 83.4,190.0 84.7,190.0 86.0,190.0 87.30000000000001,190.0 88.6,190.0 89.9,190.0 91.2,190.0 92.5,190.0 93.8,190.0 95.1,190.0 96.4,190.0 97.69999999999999,190.0 99.0,190.0 100.3,190.0 101.6,190.0 102.9,190.0 104.2,190.0 105.5,190.0 106.79999999999998,190.0 108.1,190.0 109.4,190.0 110.70000000000002,190.0 112.0,190.0 113.3,190.0 114.6,190.0 115.9,190.0 117.19999999999999,190.0 118.5,190.0 119.80000000000001,190.0 121.1,190.0 122.4,190.0 123.69999999999999,190.0 125.0,190.0 126.30000000000001,190.0 127.6,190.0 128.9,190.0 130.20000000000002,190.0 131.5,190.0 132.8,190.0 134.1,190.0 135.39999999999998,190.0 136.7,190.0 138.0,190.0 139.29999999999998,190.0 140.6,190.0 141.9,190.0 143.20000000000002,190.0 144.5,190.0 145.8,190.0 147.10000000000002,190.0 148.4,190.0 149.7,190.0 151.0,190.0 152.3,190.0 153.6,190.0 154.89999999999998,190.0 156.2,190.0 157.5,190.0 158.8,190.0 160.10000000000002,190.0 161.4,190.0 162.7,190.0 164.0,190.0 165.3,190.0 166.6,190.0 167.89999999999998,190.0 169.2,190.0 170.5,190.0 171.8,190.0 173.10000000000002,190.0 174.39999999999998,190.0 175.7,190.0 177.0,190.0 178.3,190.0 179.60000000000002,190.0 180.9,190.0 182.2,190.0 183.5,190.0 184.8,190.0 186.1,190.0 187.39999999999998,190.0 188.7,190.0 188.7,176.35000000000002 187.39999999999998,176.22000000000003 186.1,176.09 184.8,175.95999999999998 183.5,175.95999999999998 182.2,175.95999999999998 180.9,175.82999999999998 179.60000000000002,175.7 178.3,175.7 177.0,175.57 175.7,175.57 174.39999999999998,175.44 173.10000000000002,175.44 171.8,175.31 170.5,175.05 169.2,175.05 167.89999999999998,175.05 166.6,174.92000000000002 165.3,174.92000000000002 164.0,174.92000000000002 162.7,174.92000000000002 161.4,174.92000000000002 160.10000000000002,174.79000000000002 158.8,174.66000000000003 157.5,174.39999999999998 156.2,174.26999999999998 154.89999999999998,174.14 153.6,174.14 152.3,174.01 151.0,174.01 149.7,173.88 148.4,173.88 147.10000000000002,173.75 145.8,173.49 144.5,173.36 143.20000000000002,173.36 141.9,173.10000000000002 140.6,172.83999999999997 139.29999999999998,172.45 138.0,172.19 136.7,172.19 135.39999999999998,172.19 134.1,172.06 132.8,172.06 131.5,171.8 130.20000000000002,171.8 128.9,171.67000000000002 127.6,171.41 126.30000000000001,171.27999999999997 125.0,171.27999999999997 123.69999999999999,171.27999999999997 122.4,171.27999999999997 121.1,171.14999999999998 119.80000000000001,171.14999999999998 118.5,171.01999999999998 117.19999999999999,170.89 115.9,170.89 114.6,170.76 113.3,170.37 112.0,170.24 110.70000000000002,170.24 109.4,170.24 108.1,169.71999999999997 106.79999999999998,169.58999999999997 105.5,169.32999999999998 104.2,169.2 102.9,168.68 101.6,168.02999999999997 100.3,167.76999999999998 99.0,167.25 97.69999999999999,166.60000000000002 96.4,166.46999999999997 95.1,165.17 93.8,164.91 92.5,164.78000000000003 91.2,164.78000000000003 89.9,164.78000000000003 88.6,164.0 87.30000000000001,164.0 86.0,163.86999999999998 84.7,163.74 83.4,162.18 82.1,160.88 80.8,158.93 79.5,149.95999999999998 78.2,129.42000000000002 76.9,126.03999999999999 75.6,120.83999999999999 74.3,113.69000000000001 73.0,112.13 71.7,106.02000000000001 70.4,89.38 69.1,85.08999999999999 67.8,84.18 66.5,80.15000000000002 65.19999999999999,74.82 63.9,73.52000000000001 62.599999999999994,63.120000000000005 61.3,62.990000000000016 60.0,61.430000000000014" style="fill:rgb(40%,76.1%,64.7%);fill-opacity:1.0;opacity:1.0;stroke:none" /></g></g><g class="toyplot-coordinates-Axis" id="tef07cb3a573f4aa9a44c7b2dd2cff365" transform="translate(60.0,190.0)translate(0,10.0)"><line x1="0" y1="0" x2="130.0" y2="0" style="" /><g><line x1="0.0" y1="5.0" x2="0.0" y2="0" style="" /><line x1="65.0" y1="5.0" x2="65.0" y2="0" style="" /><line x1="130.0" y1="5.0" x2="130.0" y2="0" style="" /></g><g><g transform="translate(0.0,10.0)"><text x="-3.892000000000001" y="11.977" style="fill:rgb(16.1%,15.3%,14.1%);fill-opacity:1.0;font-family:helvetica;font-size:14.0px;font-weight:normal;stroke:none;vertical-align:baseline;white-space:pre">0</text></g><g transform="translate(65.0,10.0)"><text x="-7.784000000000002" y="11.977" style="fill:rgb(16.1%,15.3%,14.1%);fill-opacity:1.0;font-family:helvetica;font-size:14.0px;font-weight:normal;stroke:none;vertical-align:baseline;white-space:pre">50</text></g><g transform="translate(130.0,10.0)"><text x="-11.676" y="11.977" style="fill:rgb(16.1%,15.3%,14.1%);fill-opacity:1.0;font-family:helvetica;font-size:14.0px;font-weight:normal;stroke:none;vertical-align:baseline;white-space:pre">100</text></g></g><g transform="translate(65.0,30.0)"><text x="-41.34" y="10.265999999999998" style="fill:rgb(16.1%,15.3%,14.1%);fill-opacity:1.0;font-family:helvetica;font-size:12.0px;font-weight:bold;stroke:none;vertical-align:baseline;white-space:pre">Topology rank</text></g><g class="toyplot-coordinates-Axis-coordinates" style="visibility:hidden" transform=""><line x1="0" x2="0" y1="-5.0" y2="7.5" style="stroke:rgb(43.9%,50.2%,56.5%);stroke-opacity:1.0;stroke-width:1.0" /><text x="0" y="-10.0" style="alignment-baseline:alphabetic;fill:rgb(43.9%,50.2%,56.5%);fill-opacity:1.0;font-size:10px;font-weight:normal;stroke:none;text-anchor:middle" /></g></g><g class="toyplot-coordinates-Axis" id="ta3fc40abb05f4d40b283225f34eed6a5" transform="translate(60.0,190.0)rotate(-90.0)translate(0,-10.0)"><line x1="0" y1="0" x2="130.0" y2="0" style="" /><g><line x1="0.0" y1="-5.0" x2="0.0" y2="0" style="" /><line x1="65.0" y1="-5.0" x2="65.0" y2="0" style="" /><line x1="130.0" y1="-5.0" x2="130.0" y2="0" style="" /></g><g><g transform="translate(0.0,-10.0)"><text x="-3.892000000000001" y="0.0" style="fill:rgb(16.1%,15.3%,14.1%);fill-opacity:1.0;font-family:helvetica;font-size:14.0px;font-weight:normal;stroke:none;vertical-align:baseline;white-space:pre">0</text></g><g transform="translate(65.0,-10.0)"><text x="-13.622" y="0.0" style="fill:rgb(16.1%,15.3%,14.1%);fill-opacity:1.0;font-family:helvetica;font-size:14.0px;font-weight:normal;stroke:none;vertical-align:baseline;white-space:pre">0.01</text></g><g transform="translate(130.0,-10.0)"><text x="-13.622" y="0.0" style="fill:rgb(16.1%,15.3%,14.1%);fill-opacity:1.0;font-family:helvetica;font-size:14.0px;font-weight:normal;stroke:none;vertical-align:baseline;white-space:pre">0.02</text></g></g><g transform="translate(65.0,-30.0)"><text x="-30.342000000000002" y="0.0" style="fill:rgb(16.1%,15.3%,14.1%);fill-opacity:1.0;font-family:helvetica;font-size:12.0px;font-weight:bold;stroke:none;vertical-align:baseline;white-space:pre">Frequency</text></g><g class="toyplot-coordinates-Axis-coordinates" style="visibility:hidden" transform=""><line x1="0" x2="0" y1="5.0" y2="-7.5" style="stroke:rgb(43.9%,50.2%,56.5%);stroke-opacity:1.0;stroke-width:1.0" /><text x="0" y="10.0" style="alignment-baseline:hanging;fill:rgb(43.9%,50.2%,56.5%);fill-opacity:1.0;font-size:10px;font-weight:normal;stroke:none;text-anchor:middle" /></g></g></g><g class="toyplot-coordinates-Cartesian" id="t3cdd045690e0459c95623a3457a737d2"><clipPath id="t65de75362d52465ea658d5bb6a97fff4"><rect x="50.0" y="40.0" width="150.0" height="170.0" /></clipPath><g clip-path="url(#t65de75362d52465ea658d5bb6a97fff4)" /><g class="toyplot-coordinates-Axis" id="t3f06f119f0ec4f3f8378238b7dfe80fd" transform="translate(190.0,200.0)rotate(-90.0)translate(0,10.0)"><line x1="0" y1="0" x2="150.0" y2="0" style="" /><g class="toyplot-coordinates-Axis-coordinates" style="visibility:hidden" transform=""><line x1="0" x2="0" y1="-3.0" y2="4.5" style="stroke:rgb(43.9%,50.2%,56.5%);stroke-opacity:1.0;stroke-width:1.0" /><text x="0" y="-6" style="alignment-baseline:alphabetic;fill:rgb(43.9%,50.2%,56.5%);fill-opacity:1.0;font-size:10px;font-weight:normal;stroke:none;text-anchor:middle" /></g></g></g><g class="toyplot-coordinates-Cartesian" id="t5810e4732dfb4432916f7709ba090d08"><clipPath id="t314a08639f694b8ca115a4c359973dc1"><rect x="50.0" y="40.0" width="150.0" height="170.0" /></clipPath><g clip-path="url(#t314a08639f694b8ca115a4c359973dc1)" /><g class="toyplot-coordinates-Axis" id="tfc0ef797eb45488c822454443b8b891a" transform="translate(60.0,200.0)rotate(-90.0)translate(0,-10.0)"><line x1="0" y1="0" x2="150.0" y2="0" style="" /><g class="toyplot-coordinates-Axis-coordinates" style="visibility:hidden" transform=""><line x1="0" x2="0" y1="3.0" y2="-4.5" style="stroke:rgb(43.9%,50.2%,56.5%);stroke-opacity:1.0;stroke-width:1.0" /><text x="0" y="6" style="alignment-baseline:hanging;fill:rgb(43.9%,50.2%,56.5%);fill-opacity:1.0;font-size:10px;font-weight:normal;stroke:none;text-anchor:middle" /></g></g></g><g class="toyplot-coordinates-Cartesian" id="teed5b3e154804e109b2d69b743344322"><clipPath id="t55ec13a14a6b4ab3b2319d0ae5988430"><rect x="40.0" y="50.0" width="170.0" height="150.0" /></clipPath><g clip-path="url(#t55ec13a14a6b4ab3b2319d0ae5988430)" /><g class="toyplot-coordinates-Axis" id="t274fff199e914dc0a40f75fc1618b437" transform="translate(50.0,60.0)translate(0,-10.0)"><line x1="0" y1="0" x2="150.0" y2="0" style="" /><g class="toyplot-coordinates-Axis-coordinates" style="visibility:hidden" transform=""><line x1="0" x2="0" y1="3.0" y2="-4.5" style="stroke:rgb(43.9%,50.2%,56.5%);stroke-opacity:1.0;stroke-width:1.0" /><text x="0" y="6" style="alignment-baseline:hanging;fill:rgb(43.9%,50.2%,56.5%);fill-opacity:1.0;font-size:10px;font-weight:normal;stroke:none;text-anchor:middle" /></g></g></g><g class="toyplot-coordinates-Cartesian" id="t4671935889f64ae797af3a2fa68d9115"><clipPath id="t17a8bf69b52e4de8a9f62b7c74d42c58"><rect x="40.0" y="50.0" width="170.0" height="150.0" /></clipPath><g clip-path="url(#t17a8bf69b52e4de8a9f62b7c74d42c58)" /><g class="toyplot-coordinates-Axis" id="t4ac55fdfc4244964bd4cf9d1ad73c52f" transform="translate(50.0,190.0)translate(0,10.0)"><line x1="0" y1="0" x2="150.0" y2="0" style="" /><g class="toyplot-coordinates-Axis-coordinates" style="visibility:hidden" transform=""><line x1="0" x2="0" y1="-3.0" y2="4.5" style="stroke:rgb(43.9%,50.2%,56.5%);stroke-opacity:1.0;stroke-width:1.0" /><text x="0" y="-6" style="alignment-baseline:alphabetic;fill:rgb(43.9%,50.2%,56.5%);fill-opacity:1.0;font-size:10px;font-weight:normal;stroke:none;text-anchor:middle" /></g></g></g></svg>