<svg class="toyplot-canvas-Canvas" xmlns:toyplot="http://www.sandia.gov/toyplot" xmlns:xlink="http://www.w3.org/1999/xlink" xmlns="http://www.w3.org/2000/svg" width="250.0px" height="250.0px" viewBox="0 0 250.0 250.0" preserveAspectRatio="xMidYMid meet" style="background-color:transparent;border-color:#292724;border-style:none;border-width:1.0;fill:rgb(16.1%,15.3%,14.1%);fill-opacity:1.0;font-family:Helvetica;font-size:12px;opacity:1.0;stroke:rgb(16.1%,15.3%,14.1%);stroke-opacity:1.0;stroke-width:1.0" id="t9157781876a04a73a34f323b4cfae9a8"><g class="toyplot-coordinates-Cartesian" id="t8301d73a50004cf99523c96f273a36c7"><clipPath id="ta58467d46bfb431e8f881592f404cfe0"><rect x="50.0" y="50.0" width="150.0" height="150.0" /></clipPath><g clip-path="url(#ta58467d46bfb431e8f881592f404cfe0)"><g class="toyplot-mark-FillBoundaries" style="stroke:none" id="t6c36dcff88e244afb77fbeabce987488"><polygon points="60.0,190.0 61.3,190.0 62.599999999999994,190.0 63.9,190.0 65.19999999999999,190.0 66.5,190.0 67.8,190.0 69.1,190.0 70.4,190.0 71.7,190.0 73.0,190.0 74.3,190.0 75.6,190.0 76.9,190.0 78.2,190.0 79.5,190.0 80.8,190.0 82.1,190.0 83.4,190.0 84.7,190.0 86.0,190.0 87.30000000000001,190.0 88.6,190.0 89.9,190.0 91.2,190.0 92.5,190.0 93.8,190.0 95.1,190.0 96.4,190.0 97.69999999999999,190.0 99.0,190.0 100.3,190.0 101.6,190.0 102.9,190.0 104.2,190.0 105.5,190.0 106.79999999999998,190.0 108.1,190.0 109.4,190.0 110.70000000000002,190.0 112.0,190.0 113.3,190.0 114.6,190.0 115.9,190.0 117.19999999999999,190.0 118.5,190.0 119.80000000000001,190.0 121.1,190.0 122.4,190.0 123.69999999999999,190.0 125.0,190.0 126.30000000000001,190.0 127.6,190.0 128.9,190.0 130.20000000000002,190.0 131.5,190.0 132.8,190.0 134.1,190.0 135.39999999999998,190.0 136.7,190.0 138.0,190.0 139.29999999999998,190.0 140.6,190.0 141.9,190.0 143.20000000000002,190.0 144.5,190.0 145.8,190.0 147.10000000000002,190.0 148.4,190.0 149.7,190.0 151.0,190.0 152.3,190.0 153.6,190.0 154.89999999999998,190.0 156.2,190.0 157.5,190.0 158.8,190.0 160.10000000000002,190.0 161.4,190.0 162.7,190.0 164.0,190.0 165.3,190.0 166.6,190.0 167.89999999999998,190.0 169.2,190.0 170.5,190.0 171.8,190.0 173.10000000000002,190.0 174.39999999999998,190.0 175.7,190.0 177.0,190.0 178.3,190.0 179.60000000000002,190.0 180.9,190.0 182.2,190.0 183.5,190.0 184.8,190.0 186.1,190.0 187.39999999999998,190.0 188.7,190.0 188.7,187.79000000000002 187.39999999999998,187.79000000000002 186.1,187.79000000000002 184.8,187.79000000000002 183.5,187.79000000000002 182.2,187.79000000000002 180.9,187.79000000000002 179.60000000000002,187.79000000000002 178.3,187.66 177.0,187.66 175.7,187.66 174.39999999999998,187.66 173.10000000000002,187.66 171.8,187.66 170.5,187.66 169.2,187.66 167.89999999999998,187.66 166.6,187.66 165.3,187.66 164.0,187.66 162.7,187.66 161.4,187.66 160.10000000000002,187.66 158.8,187.66 157.5,187.66 156.2,187.52999999999997 154.89999999999998,187.52999999999997 153.6,187.52999999999997 152.3,187.52999999999997 151.0,187.52999999999997 149.7,187.52999999999997 148.4,187.52999999999997 147.10000000000002,187.52999999999997 145.8,187.52999999999997 144.5,187.52999999999997 143.20000000000002,187.52999999999997 141.9,187.52999999999997 140.6,187.52999999999997 139.29999999999998,187.52999999999997 138.0,187.52999999999997 136.7,187.52999999999997 135.39999999999998,187.52999999999997 134.1,187.39999999999998 132.8,187.39999999999998 131.5,187.39999999999998 130.20000000000002,187.39999999999998 128.9,187.39999999999998 127.6,187.39999999999998 126.30000000000001,187.39999999999998 125.0,187.39999999999998 123.69999999999999,187.39999999999998 122.4,187.39999999999998 121.1,187.39999999999998 119.80000000000001,187.39999999999998 118.5,187.39999999999998 117.19999999999999,187.39999999999998 115.9,187.39999999999998 114.6,187.39999999999998 113.3,187.39999999999998 112.0,187.26999999999998 110.70000000000002,187.26999999999998 109.4,187.26999999999998 108.1,187.26999999999998 106.79999999999998,187.26999999999998 105.5,187.14 104.2,187.14 102.9,187.14 101.6,187.14 100.3,187.01 99.0,187.01 97.69999999999999,187.01 96.4,187.01 95.1,187.01 93.8,187.01 92.5,187.01 91.2,187.01 89.9,187.01 88.6,186.88 87.30000000000001,186.88 86.0,186.88 84.7,186.88 83.4,186.88 82.1,186.88 80.8,186.88 79.5,186.88 78.2,186.88 76.9,186.75 75.6,186.75 74.3,186.62 73.0,186.62 71.7,186.62 70.4,186.49 69.1,186.49 67.8,186.36 66.5,186.36 65.19999999999999,186.23000000000002 63.9,186.1 62.599999999999994,185.97 61.3,185.32 60.0,185.19" style="fill:rgb(40%,76.1%,64.7%);fill-opacity:1.0;opacity:1.0;stroke:none" /></g></g><g class="toyplot-coordinates-Axis" id="t3dd3a7d76dae4bff89e4330c804a3cbf" transform="translate(60.0,190.0)translate(0,10.0)"><line x1="0" y1="0" x2="130.0" y2="0" style="" /><g><line x1="0.0" y1="5.0" x2="0.0" y2="0" style="" /><line x1="65.0" y1="5.0" x2="65.0" y2="0" style="" /><line x1="130.0" y1="5.0" x2="130.0" y2="0" style="" /></g><g><g transform="translate(0.0,10.0)"><text x="-3.892000000000001" y="11.977" style="fill:rgb(16.1%,15.3%,14.1%);fill-opacity:1.0;font-family:helvetica;font-size:14.0px;font-weight:normal;stroke:none;vertical-align:baseline;white-space:pre">0</text></g><g transform="translate(65.0,10.0)"><text x="-7.784000000000002" y="11.977" style="fill:rgb(16.1%,15.3%,14.1%);fill-opacity:1.0;font-family:helvetica;font-size:14.0px;font-weight:normal;stroke:none;vertical-align:baseline;white-space:pre">50</text></g><g transform="translate(130.0,10.0)"><text x="-11.676" y="11.977" style="fill:rgb(16.1%,15.3%,14.1%);fill-opacity:1.0;font-family:helvetica;font-size:14.0px;font-weight:normal;stroke:none;vertical-align:baseline;white-space:pre">100</text></g></g><g transform="translate(65.0,30.0)"><text x="-41.34" y="10.265999999999998" style="fill:rgb(16.1%,15.3%,14.1%);fill-opacity:1.0;font-family:helvetica;font-size:12.0px;font-weight:bold;stroke:none;vertical-align:baseline;white-space:pre">Topology rank</text></g><g class="toyplot-coordinates-Axis-coordinates" style="visibility:hidden" transform=""><line x1="0" x2="0" y1="-5.0" y2="7.5" style="stroke:rgb(43.9%,50.2%,56.5%);stroke-opacity:1.0;stroke-width:1.0" /><text x="0" y="-10.0" style="alignment-baseline:alphabetic;fill:rgb(43.9%,50.2%,56.5%);fill-opacity:1.0;font-size:10px;font-weight:normal;stroke:none;text-anchor:middle" /></g></g><g class="toyplot-coordinates-Axis" id="t99a76a73d6794aa6bb3456f54bfee8ba" transform="translate(60.0,190.0)rotate(-90.0)translate(0,-10.0)"><line x1="0" y1="0" x2="130.0" y2="0" style="" /><g><line x1="0.0" y1="-5.0" x2="0.0" y2="0" style="" /><line x1="65.0" y1="-5.0" x2="65.0" y2="0" style="" /><line x1="130.0" y1="-5.0" x2="130.0" y2="0" style="" /></g><g><g transform="translate(0.0,-10.0)"><text x="-3.892000000000001" y="0.0" style="fill:rgb(16.1%,15.3%,14.1%);fill-opacity:1.0;font-family:helvetica;font-size:14.0px;font-weight:normal;stroke:none;vertical-align:baseline;white-space:pre">0</text></g><g transform="translate(65.0,-10.0)"><text x="-13.622" y="0.0" style="fill:rgb(16.1%,15.3%,14.1%);fill-opacity:1.0;font-family:helvetica;font-size:14.0px;font-weight:normal;stroke:none;vertical-align:baseline;white-space:pre">0.01</text></g><g transform="translate(130.0,-10.0)"><text x="-13.622" y="0.0" style="fill:rgb(16.1%,15.3%,14.1%);fill-opacity:1.0;font-family:helvetica;font-size:14.0px;font-weight:normal;stroke:none;vertical-align:baseline;white-space:pre">0.02</text></g></g><g transform="translate(65.0,-30.0)"><text x="-30.342000000000002" y="0.0" style="fill:rgb(16.1%,15.3%,14.1%);fill-opacity:1.0;font-family:helvetica;font-size:12.0px;font-weight:bold;stroke:none;vertical-align:baseline;white-space:pre">Frequency</text></g><g class="toyplot-coordinates-Axis-coordinates" style="visibility:hidden" transform=""><line x1="0" x2="0" y1="5.0" y2="-7.5" style="stroke:rgb(43.9%,50.2%,56.5%);stroke-opacity:1.0;stroke-width:1.0" /><text x="0" y="10.0" style="alignment-baseline:hanging;fill:rgb(43.9%,50.2%,56.5%);fill-opacity:1.0;font-size:10px;font-weight:normal;stroke:none;text-anchor:middle" /></g></g></g><g class="toyplot-coordinates-Cartesian" id="ta251af57ef1445bca8f15b201aaf321c"><clipPath id="tcd20016a78764acfbe26c59f168017a7"><rect x="50.0" y="40.0" width="150.0" height="170.0" /></clipPath><g clip-path="url(#tcd20016a78764acfbe26c59f168017a7)" /><g class="toyplot-coordinates-Axis" id="t1c35b207db0a496dbfaea600af1198b8" transform="translate(190.0,200.0)rotate(-90.0)translate(0,10.0)"><line x1="0" y1="0" x2="150.0" y2="0" style="" /><g class="toyplot-coordinates-Axis-coordinates" style="visibility:hidden" transform=""><line x1="0" x2="0" y1="-3.0" y2="4.5" style="stroke:rgb(43.9%,50.2%,56.5%);stroke-opacity:1.0;stroke-width:1.0" /><text x="0" y="-6" style="alignment-baseline:alphabetic;fill:rgb(43.9%,50.2%,56.5%);fill-opacity:1.0;font-size:10px;font-weight:normal;stroke:none;text-anchor:middle" /></g></g></g><g class="toyplot-coordinates-Cartesian" id="t2c109bdd72054f85972a34d174cce4c5"><clipPath id="t2306b93be62c4abd834958165a84f1dc"><rect x="50.0" y="40.0" width="150.0" height="170.0" /></clipPath><g clip-path="url(#t2306b93be62c4abd834958165a84f1dc)" /><g class="toyplot-coordinates-Axis" id="t4f85f526c12f4d76944dd078d0f4629d" transform="translate(60.0,200.0)rotate(-90.0)translate(0,-10.0)"><line x1="0" y1="0" x2="150.0" y2="0" style="" /><g class="toyplot-coordinates-Axis-coordinates" style="visibility:hidden" transform=""><line x1="0" x2="0" y1="3.0" y2="-4.5" style="stroke:rgb(43.9%,50.2%,56.5%);stroke-opacity:1.0;stroke-width:1.0" /><text x="0" y="6" style="alignment-baseline:hanging;fill:rgb(43.9%,50.2%,56.5%);fill-opacity:1.0;font-size:10px;font-weight:normal;stroke:none;text-anchor:middle" /></g></g></g><g class="toyplot-coordinates-Cartesian" id="tdb9354cdcb3947e088977bec1d12152b"><clipPath id="t2126e148a5e543918d560c2832122a00"><rect x="40.0" y="50.0" width="170.0" height="150.0" /></clipPath><g clip-path="url(#t2126e148a5e543918d560c2832122a00)" /><g class="toyplot-coordinates-Axis" id="t844037f116744485a7f06341210b90f2" transform="translate(50.0,60.0)translate(0,-10.0)"><line x1="0" y1="0" x2="150.0" y2="0" style="" /><g class="toyplot-coordinates-Axis-coordinates" style="visibility:hidden" transform=""><line x1="0" x2="0" y1="3.0" y2="-4.5" style="stroke:rgb(43.9%,50.2%,56.5%);stroke-opacity:1.0;stroke-width:1.0" /><text x="0" y="6" style="alignment-baseline:hanging;fill:rgb(43.9%,50.2%,56.5%);fill-opacity:1.0;font-size:10px;font-weight:normal;stroke:none;text-anchor:middle" /></g></g></g><g class="toyplot-coordinates-Cartesian" id="tc09072f49aae45bb9ba9e1684b99ee9b"><clipPath id="t73ff98bb459e42f3895834b43d81c35f"><rect x="40.0" y="50.0" width="170.0" height="150.0" /></clipPath><g clip-path="url(#t73ff98bb459e42f3895834b43d81c35f)" /><g class="toyplot-coordinates-Axis" id="t93af680dfd914dd2890cd328edd936fe" transform="translate(50.0,190.0)translate(0,10.0)"><line x1="0" y1="0" x2="150.0" y2="0" style="" /><g class="toyplot-coordinates-Axis-coordinates" style="visibility:hidden" transform=""><line x1="0" x2="0" y1="-3.0" y2="4.5" style="stroke:rgb(43.9%,50.2%,56.5%);stroke-opacity:1.0;stroke-width:1.0" /><text x="0" y="-6" style="alignment-baseline:alphabetic;fill:rgb(43.9%,50.2%,56.5%);fill-opacity:1.0;font-size:10px;font-weight:normal;stroke:none;text-anchor:middle" /></g></g></g></svg>