<svg class="toyplot-canvas-Canvas" xmlns:toyplot="http://www.sandia.gov/toyplot" xmlns:xlink="http://www.w3.org/1999/xlink" xmlns="http://www.w3.org/2000/svg" width="250.0px" height="250.0px" viewBox="0 0 250.0 250.0" preserveAspectRatio="xMidYMid meet" style="background-color:transparent;border-color:#292724;border-style:none;border-width:1.0;fill:rgb(16.1%,15.3%,14.1%);fill-opacity:1.0;font-family:Helvetica;font-size:12px;opacity:1.0;stroke:rgb(16.1%,15.3%,14.1%);stroke-opacity:1.0;stroke-width:1.0" id="t3aaec47ac4a84e39a6600111e22c1d86"><g class="toyplot-coordinates-Cartesian" id="t393ac5ad0db24a86b8313979fc046fc3"><clipPath id="t16c1c385db5345c4aa0e012e3ca5868f"><rect x="50.0" y="50.0" width="150.0" height="150.0" /></clipPath><g clip-path="url(#t16c1c385db5345c4aa0e012e3ca5868f)"><g class="toyplot-mark-FillBoundaries" style="stroke:none" id="tf55d48a54abc4e2abbf5d46965ac94c3"><polygon points="60.0,190.0 61.3,190.0 62.599999999999994,190.0 63.9,190.0 65.19999999999999,190.0 66.5,190.0 67.8,190.0 69.1,190.0 70.4,190.0 71.7,190.0 73.0,190.0 74.3,190.0 75.6,190.0 76.9,190.0 78.2,190.0 79.5,190.0 80.8,190.0 82.1,190.0 83.4,190.0 84.7,190.0 86.0,190.0 87.30000000000001,190.0 88.6,190.0 89.9,190.0 91.2,190.0 92.5,190.0 93.8,190.0 95.1,190.0 96.4,190.0 97.69999999999999,190.0 99.0,190.0 100.3,190.0 101.6,190.0 102.9,190.0 104.2,190.0 105.5,190.0 106.79999999999998,190.0 108.1,190.0 109.4,190.0 110.70000000000002,190.0 112.0,190.0 113.3,190.0 114.6,190.0 115.9,190.0 117.19999999999999,190.0 118.5,190.0 119.80000000000001,190.0 121.1,190.0 122.4,190.0 123.69999999999999,190.0 125.0,190.0 126.30000000000001,190.0 127.6,190.0 128.9,190.0 130.20000000000002,190.0 131.5,190.0 132.8,190.0 134.1,190.0 135.39999999999998,190.0 136.7,190.0 138.0,190.0 139.29999999999998,190.0 140.6,190.0 141.9,190.0 143.20000000000002,190.0 144.5,190.0 145.8,190.0 147.10000000000002,190.0 148.4,190.0 149.7,190.0 151.0,190.0 152.3,190.0 153.6,190.0 154.89999999999998,190.0 156.2,190.0 157.5,190.0 158.8,190.0 160.10000000000002,190.0 161.4,190.0 162.7,190.0 164.0,190.0 165.3,190.0 166.6,190.0 167.89999999999998,190.0 169.2,190.0 170.5,190.0 171.8,190.0 173.10000000000002,190.0 174.39999999999998,190.0 175.7,190.0 177.0,190.0 178.3,190.0 179.60000000000002,190.0 180.9,190.0 182.2,190.0 183.5,190.0 184.8,190.0 186.1,190.0 187.39999999999998,190.0 188.7,190.0 188.7,185.70999999999998 187.39999999999998,185.70999999999998 186.1,185.70999999999998 184.8,185.70999999999998 183.5,185.70999999999998 182.2,185.57999999999998 180.9,185.57999999999998 179.60000000000002,185.57999999999998 178.3,185.57999999999998 177.0,185.57999999999998 175.7,185.57999999999998 174.39999999999998,185.57999999999998 173.10000000000002,185.57999999999998 171.8,185.45 170.5,185.45 169.2,185.45 167.89999999999998,185.45 166.6,185.45 165.3,185.32 164.0,185.32 162.7,185.32 161.4,185.32 160.10000000000002,185.32 158.8,185.32 157.5,185.32 156.2,185.19 154.89999999999998,185.19 153.6,185.19 152.3,185.19 151.0,185.19 149.7,185.19 148.4,185.19 147.10000000000002,185.19 145.8,185.19 144.5,185.19 143.20000000000002,185.06 141.9,185.06 140.6,185.06 139.29999999999998,185.06 138.0,185.06 136.7,185.06 135.39999999999998,185.06 134.1,185.06 132.8,185.06 131.5,185.06 130.20000000000002,185.06 128.9,185.06 127.6,184.93 126.30000000000001,184.93 125.0,184.93 123.69999999999999,184.93 122.4,184.93 121.1,184.93 119.80000000000001,184.93 118.5,184.93 117.19999999999999,184.93 115.9,184.8 114.6,184.8 113.3,184.8 112.0,184.8 110.70000000000002,184.8 109.4,184.67 108.1,184.67 106.79999999999998,184.54 105.5,184.54 104.2,184.54 102.9,184.54 101.6,184.54 100.3,184.27999999999997 99.0,184.27999999999997 97.69999999999999,184.14999999999998 96.4,184.01999999999998 95.1,184.01999999999998 93.8,184.01999999999998 92.5,184.01999999999998 91.2,184.01999999999998 89.9,183.89 88.6,183.89 87.30000000000001,183.89 86.0,183.76 84.7,183.5 83.4,183.5 82.1,183.37 80.8,183.24 79.5,183.24 78.2,183.24 76.9,183.10999999999999 75.6,183.10999999999999 74.3,183.10999999999999 73.0,182.98 71.7,182.98 70.4,182.85 69.1,182.85 67.8,182.71999999999997 66.5,182.20000000000002 65.19999999999999,182.20000000000002 63.9,181.81 62.599999999999994,180.77 61.3,180.51 60.0,179.47000000000003" style="fill:rgb(40%,76.1%,64.7%);fill-opacity:1.0;opacity:1.0;stroke:none" /></g></g><g class="toyplot-coordinates-Axis" id="t02077e137723492090cb034b58bac0de" transform="translate(60.0,190.0)translate(0,10.0)"><line x1="0" y1="0" x2="130.0" y2="0" style="" /><g><line x1="0.0" y1="5.0" x2="0.0" y2="0" style="" /><line x1="65.0" y1="5.0" x2="65.0" y2="0" style="" /><line x1="130.0" y1="5.0" x2="130.0" y2="0" style="" /></g><g><g transform="translate(0.0,10.0)"><text x="-3.892000000000001" y="11.977" style="fill:rgb(16.1%,15.3%,14.1%);fill-opacity:1.0;font-family:helvetica;font-size:14.0px;font-weight:normal;stroke:none;vertical-align:baseline;white-space:pre">0</text></g><g transform="translate(65.0,10.0)"><text x="-7.784000000000002" y="11.977" style="fill:rgb(16.1%,15.3%,14.1%);fill-opacity:1.0;font-family:helvetica;font-size:14.0px;font-weight:normal;stroke:none;vertical-align:baseline;white-space:pre">50</text></g><g transform="translate(130.0,10.0)"><text x="-11.676" y="11.977" style="fill:rgb(16.1%,15.3%,14.1%);fill-opacity:1.0;font-family:helvetica;font-size:14.0px;font-weight:normal;stroke:none;vertical-align:baseline;white-space:pre">100</text></g></g><g transform="translate(65.0,30.0)"><text x="-41.34" y="10.265999999999998" style="fill:rgb(16.1%,15.3%,14.1%);fill-opacity:1.0;font-family:helvetica;font-size:12.0px;font-weight:bold;stroke:none;vertical-align:baseline;white-space:pre">Topology rank</text></g><g class="toyplot-coordinates-Axis-coordinates" style="visibility:hidden" transform=""><line x1="0" x2="0" y1="-5.0" y2="7.5" style="stroke:rgb(43.9%,50.2%,56.5%);stroke-opacity:1.0;stroke-width:1.0" /><text x="0" y="-10.0" style="alignment-baseline:alphabetic;fill:rgb(43.9%,50.2%,56.5%);fill-opacity:1.0;font-size:10px;font-weight:normal;stroke:none;text-anchor:middle" /></g></g><g class="toyplot-coordinates-Axis" id="t107ee6c422c348e3a47af40e556e3362" transform="translate(60.0,190.0)rotate(-90.0)translate(0,-10.0)"><line x1="0" y1="0" x2="130.0" y2="0" style="" /><g><line x1="0.0" y1="-5.0" x2="0.0" y2="0" style="" /><line x1="65.0" y1="-5.0" x2="65.0" y2="0" style="" /><line x1="130.0" y1="-5.0" x2="130.0" y2="0" style="" /></g><g><g transform="translate(0.0,-10.0)"><text x="-3.892000000000001" y="0.0" style="fill:rgb(16.1%,15.3%,14.1%);fill-opacity:1.0;font-family:helvetica;font-size:14.0px;font-weight:normal;stroke:none;vertical-align:baseline;white-space:pre">0</text></g><g transform="translate(65.0,-10.0)"><text x="-13.622" y="0.0" style="fill:rgb(16.1%,15.3%,14.1%);fill-opacity:1.0;font-family:helvetica;font-size:14.0px;font-weight:normal;stroke:none;vertical-align:baseline;white-space:pre">0.01</text></g><g transform="translate(130.0,-10.0)"><text x="-13.622" y="0.0" style="fill:rgb(16.1%,15.3%,14.1%);fill-opacity:1.0;font-family:helvetica;font-size:14.0px;font-weight:normal;stroke:none;vertical-align:baseline;white-space:pre">0.02</text></g></g><g transform="translate(65.0,-30.0)"><text x="-30.342000000000002" y="0.0" style="fill:rgb(16.1%,15.3%,14.1%);fill-opacity:1.0;font-family:helvetica;font-size:12.0px;font-weight:bold;stroke:none;vertical-align:baseline;white-space:pre">Frequency</text></g><g class="toyplot-coordinates-Axis-coordinates" style="visibility:hidden" transform=""><line x1="0" x2="0" y1="5.0" y2="-7.5" style="stroke:rgb(43.9%,50.2%,56.5%);stroke-opacity:1.0;stroke-width:1.0" /><text x="0" y="10.0" style="alignment-baseline:hanging;fill:rgb(43.9%,50.2%,56.5%);fill-opacity:1.0;font-size:10px;font-weight:normal;stroke:none;text-anchor:middle" /></g></g></g><g class="toyplot-coordinates-Cartesian" id="t8cf9da58719d45b99425f3f793cc9d76"><clipPath id="tb4abaf5bf0e2443c81bc6889beaec25e"><rect x="50.0" y="40.0" width="150.0" height="170.0" /></clipPath><g clip-path="url(#tb4abaf5bf0e2443c81bc6889beaec25e)" /><g class="toyplot-coordinates-Axis" id="t7fe9f3906b3a4e7b9ca5e6760ebc8f7a" transform="translate(190.0,200.0)rotate(-90.0)translate(0,10.0)"><line x1="0" y1="0" x2="150.0" y2="0" style="" /><g class="toyplot-coordinates-Axis-coordinates" style="visibility:hidden" transform=""><line x1="0" x2="0" y1="-3.0" y2="4.5" style="stroke:rgb(43.9%,50.2%,56.5%);stroke-opacity:1.0;stroke-width:1.0" /><text x="0" y="-6" style="alignment-baseline:alphabetic;fill:rgb(43.9%,50.2%,56.5%);fill-opacity:1.0;font-size:10px;font-weight:normal;stroke:none;text-anchor:middle" /></g></g></g><g class="toyplot-coordinates-Cartesian" id="t2723b3c7f407458bba2676f28e8d7e98"><clipPath id="t754093a9ab794f92a24e72ff6e8541f9"><rect x="50.0" y="40.0" width="150.0" height="170.0" /></clipPath><g clip-path="url(#t754093a9ab794f92a24e72ff6e8541f9)" /><g class="toyplot-coordinates-Axis" id="t209f672f37ec48e1be24836cc809a0f6" transform="translate(60.0,200.0)rotate(-90.0)translate(0,-10.0)"><line x1="0" y1="0" x2="150.0" y2="0" style="" /><g class="toyplot-coordinates-Axis-coordinates" style="visibility:hidden" transform=""><line x1="0" x2="0" y1="3.0" y2="-4.5" style="stroke:rgb(43.9%,50.2%,56.5%);stroke-opacity:1.0;stroke-width:1.0" /><text x="0" y="6" style="alignment-baseline:hanging;fill:rgb(43.9%,50.2%,56.5%);fill-opacity:1.0;font-size:10px;font-weight:normal;stroke:none;text-anchor:middle" /></g></g></g><g class="toyplot-coordinates-Cartesian" id="tdfa6680b69f645f78f281287c733ed49"><clipPath id="tdda71064cfde4aa39f14fcd2c7fa631a"><rect x="40.0" y="50.0" width="170.0" height="150.0" /></clipPath><g clip-path="url(#tdda71064cfde4aa39f14fcd2c7fa631a)" /><g class="toyplot-coordinates-Axis" id="ta2e8d0264b4a4e59a8eafb0a5f4494be" transform="translate(50.0,60.0)translate(0,-10.0)"><line x1="0" y1="0" x2="150.0" y2="0" style="" /><g class="toyplot-coordinates-Axis-coordinates" style="visibility:hidden" transform=""><line x1="0" x2="0" y1="3.0" y2="-4.5" style="stroke:rgb(43.9%,50.2%,56.5%);stroke-opacity:1.0;stroke-width:1.0" /><text x="0" y="6" style="alignment-baseline:hanging;fill:rgb(43.9%,50.2%,56.5%);fill-opacity:1.0;font-size:10px;font-weight:normal;stroke:none;text-anchor:middle" /></g></g></g><g class="toyplot-coordinates-Cartesian" id="t1ca195b1cb5544bebe1966c888fd26aa"><clipPath id="td6e5371b2ece4e969a34f620473ca438"><rect x="40.0" y="50.0" width="170.0" height="150.0" /></clipPath><g clip-path="url(#td6e5371b2ece4e969a34f620473ca438)" /><g class="toyplot-coordinates-Axis" id="t128e191d54b846d3beaaca81bd51758d" transform="translate(50.0,190.0)translate(0,10.0)"><line x1="0" y1="0" x2="150.0" y2="0" style="" /><g class="toyplot-coordinates-Axis-coordinates" style="visibility:hidden" transform=""><line x1="0" x2="0" y1="-3.0" y2="4.5" style="stroke:rgb(43.9%,50.2%,56.5%);stroke-opacity:1.0;stroke-width:1.0" /><text x="0" y="-6" style="alignment-baseline:alphabetic;fill:rgb(43.9%,50.2%,56.5%);fill-opacity:1.0;font-size:10px;font-weight:normal;stroke:none;text-anchor:middle" /></g></g></g></svg>