<svg class="toyplot-canvas-Canvas" xmlns:toyplot="http://www.sandia.gov/toyplot" xmlns:xlink="http://www.w3.org/1999/xlink" xmlns="http://www.w3.org/2000/svg" width="250.0px" height="250.0px" viewBox="0 0 250.0 250.0" preserveAspectRatio="xMidYMid meet" style="background-color:transparent;border-color:#292724;border-style:none;border-width:1.0;fill:rgb(16.1%,15.3%,14.1%);fill-opacity:1.0;font-family:Helvetica;font-size:12px;opacity:1.0;stroke:rgb(16.1%,15.3%,14.1%);stroke-opacity:1.0;stroke-width:1.0" id="t07986787638d44dfae685fb81b4dc9bc"><g class="toyplot-coordinates-Cartesian" id="t235657bbd73a4cf0a1b2371e476a200c"><clipPath id="t458a73a37a2e4502b997aaca88f5fd3b"><rect x="50.0" y="50.0" width="150.0" height="150.0" /></clipPath><g clip-path="url(#t458a73a37a2e4502b997aaca88f5fd3b)"><g class="toyplot-mark-FillBoundaries" style="stroke:none" id="t7e4a0a10798f49ed87e7b53d6fc3fdb5"><polygon points="60.0,190.0 61.3,190.0 62.599999999999994,190.0 63.9,190.0 65.19999999999999,190.0 66.5,190.0 67.8,190.0 69.1,190.0 70.4,190.0 71.7,190.0 73.0,190.0 74.3,190.0 75.6,190.0 76.9,190.0 78.2,190.0 79.5,190.0 80.8,190.0 82.1,190.0 83.4,190.0 84.7,190.0 86.0,190.0 87.30000000000001,190.0 88.6,190.0 89.9,190.0 91.2,190.0 92.5,190.0 93.8,190.0 95.1,190.0 96.4,190.0 97.69999999999999,190.0 99.0,190.0 100.3,190.0 101.6,190.0 102.9,190.0 104.2,190.0 105.5,190.0 106.79999999999998,190.0 108.1,190.0 109.4,190.0 110.70000000000002,190.0 112.0,190.0 113.3,190.0 114.6,190.0 115.9,190.0 117.19999999999999,190.0 118.5,190.0 119.80000000000001,190.0 121.1,190.0 122.4,190.0 123.69999999999999,190.0 125.0,190.0 126.30000000000001,190.0 127.6,190.0 128.9,190.0 130.20000000000002,190.0 131.5,190.0 132.8,190.0 134.1,190.0 135.39999999999998,190.0 136.7,190.0 138.0,190.0 139.29999999999998,190.0 140.6,190.0 141.9,190.0 143.20000000000002,190.0 144.5,190.0 145.8,190.0 147.10000000000002,190.0 148.4,190.0 149.7,190.0 151.0,190.0 152.3,190.0 153.6,190.0 154.89999999999998,190.0 156.2,190.0 157.5,190.0 158.8,190.0 160.10000000000002,190.0 161.4,190.0 162.7,190.0 164.0,190.0 165.3,190.0 166.6,190.0 167.89999999999998,190.0 169.2,190.0 170.5,190.0 171.8,190.0 173.10000000000002,190.0 174.39999999999998,190.0 175.7,190.0 177.0,190.0 178.3,190.0 179.60000000000002,190.0 180.9,190.0 182.2,190.0 183.5,190.0 184.8,190.0 186.1,190.0 187.39999999999998,190.0 188.7,190.0 188.7,187.92000000000002 187.39999999999998,187.92000000000002 186.1,187.92000000000002 184.8,187.92000000000002 183.5,187.92000000000002 182.2,187.92000000000002 180.9,187.92000000000002 179.60000000000002,187.79000000000002 178.3,187.79000000000002 177.0,187.79000000000002 175.7,187.79000000000002 174.39999999999998,187.79000000000002 173.10000000000002,187.79000000000002 171.8,187.79000000000002 170.5,187.79000000000002 169.2,187.79000000000002 167.89999999999998,187.79000000000002 166.6,187.79000000000002 165.3,187.79000000000002 164.0,187.79000000000002 162.7,187.79000000000002 161.4,187.79000000000002 160.10000000000002,187.79000000000002 158.8,187.79000000000002 157.5,187.79000000000002 156.2,187.66 154.89999999999998,187.66 153.6,187.66 152.3,187.66 151.0,187.66 149.7,187.66 148.4,187.66 147.10000000000002,187.66 145.8,187.66 144.5,187.66 143.20000000000002,187.66 141.9,187.66 140.6,187.52999999999997 139.29999999999998,187.52999999999997 138.0,187.52999999999997 136.7,187.52999999999997 135.39999999999998,187.52999999999997 134.1,187.52999999999997 132.8,187.52999999999997 131.5,187.52999999999997 130.20000000000002,187.52999999999997 128.9,187.52999999999997 127.6,187.39999999999998 126.30000000000001,187.39999999999998 125.0,187.39999999999998 123.69999999999999,187.39999999999998 122.4,187.39999999999998 121.1,187.39999999999998 119.80000000000001,187.39999999999998 118.5,187.39999999999998 117.19999999999999,187.26999999999998 115.9,187.26999999999998 114.6,187.26999999999998 113.3,187.26999999999998 112.0,187.26999999999998 110.70000000000002,187.26999999999998 109.4,187.26999999999998 108.1,187.14 106.79999999999998,187.14 105.5,187.14 104.2,187.14 102.9,187.14 101.6,187.14 100.3,187.01 99.0,187.01 97.69999999999999,187.01 96.4,187.01 95.1,187.01 93.8,187.01 92.5,187.01 91.2,187.01 89.9,186.88 88.6,186.88 87.30000000000001,186.88 86.0,186.88 84.7,186.75 83.4,186.75 82.1,186.75 80.8,186.75 79.5,186.75 78.2,186.75 76.9,186.75 75.6,186.75 74.3,186.75 73.0,186.62 71.7,186.62 70.4,186.62 69.1,186.62 67.8,186.36 66.5,186.23000000000002 65.19999999999999,186.1 63.9,185.97 62.599999999999994,185.97 61.3,185.57999999999998 60.0,185.57999999999998" style="fill:rgb(40%,76.1%,64.7%);fill-opacity:1.0;opacity:1.0;stroke:none" /></g></g><g class="toyplot-coordinates-Axis" id="t050d7da3e9d04794b9cc9fdf85951c3a" transform="translate(60.0,190.0)translate(0,10.0)"><line x1="0" y1="0" x2="130.0" y2="0" style="" /><g><line x1="0.0" y1="5.0" x2="0.0" y2="0" style="" /><line x1="65.0" y1="5.0" x2="65.0" y2="0" style="" /><line x1="130.0" y1="5.0" x2="130.0" y2="0" style="" /></g><g><g transform="translate(0.0,10.0)"><text x="-3.892000000000001" y="11.977" style="fill:rgb(16.1%,15.3%,14.1%);fill-opacity:1.0;font-family:helvetica;font-size:14.0px;font-weight:normal;stroke:none;vertical-align:baseline;white-space:pre">0</text></g><g transform="translate(65.0,10.0)"><text x="-7.784000000000002" y="11.977" style="fill:rgb(16.1%,15.3%,14.1%);fill-opacity:1.0;font-family:helvetica;font-size:14.0px;font-weight:normal;stroke:none;vertical-align:baseline;white-space:pre">50</text></g><g transform="translate(130.0,10.0)"><text x="-11.676" y="11.977" style="fill:rgb(16.1%,15.3%,14.1%);fill-opacity:1.0;font-family:helvetica;font-size:14.0px;font-weight:normal;stroke:none;vertical-align:baseline;white-space:pre">100</text></g></g><g transform="translate(65.0,30.0)"><text x="-41.34" y="10.265999999999998" style="fill:rgb(16.1%,15.3%,14.1%);fill-opacity:1.0;font-family:helvetica;font-size:12.0px;font-weight:bold;stroke:none;vertical-align:baseline;white-space:pre">Topology rank</text></g><g class="toyplot-coordinates-Axis-coordinates" style="visibility:hidden" transform=""><line x1="0" x2="0" y1="-5.0" y2="7.5" style="stroke:rgb(43.9%,50.2%,56.5%);stroke-opacity:1.0;stroke-width:1.0" /><text x="0" y="-10.0" style="alignment-baseline:alphabetic;fill:rgb(43.9%,50.2%,56.5%);fill-opacity:1.0;font-size:10px;font-weight:normal;stroke:none;text-anchor:middle" /></g></g><g class="toyplot-coordinates-Axis" id="t77bfc25b0e3e4920b06b50bef54947b7" transform="translate(60.0,190.0)rotate(-90.0)translate(0,-10.0)"><line x1="0" y1="0" x2="130.0" y2="0" style="" /><g><line x1="0.0" y1="-5.0" x2="0.0" y2="0" style="" /><line x1="65.0" y1="-5.0" x2="65.0" y2="0" style="" /><line x1="130.0" y1="-5.0" x2="130.0" y2="0" style="" /></g><g><g transform="translate(0.0,-10.0)"><text x="-3.892000000000001" y="0.0" style="fill:rgb(16.1%,15.3%,14.1%);fill-opacity:1.0;font-family:helvetica;font-size:14.0px;font-weight:normal;stroke:none;vertical-align:baseline;white-space:pre">0</text></g><g transform="translate(65.0,-10.0)"><text x="-13.622" y="0.0" style="fill:rgb(16.1%,15.3%,14.1%);fill-opacity:1.0;font-family:helvetica;font-size:14.0px;font-weight:normal;stroke:none;vertical-align:baseline;white-space:pre">0.01</text></g><g transform="translate(130.0,-10.0)"><text x="-13.622" y="0.0" style="fill:rgb(16.1%,15.3%,14.1%);fill-opacity:1.0;font-family:helvetica;font-size:14.0px;font-weight:normal;stroke:none;vertical-align:baseline;white-space:pre">0.02</text></g></g><g transform="translate(65.0,-30.0)"><text x="-30.342000000000002" y="0.0" style="fill:rgb(16.1%,15.3%,14.1%);fill-opacity:1.0;font-family:helvetica;font-size:12.0px;font-weight:bold;stroke:none;vertical-align:baseline;white-space:pre">Frequency</text></g><g class="toyplot-coordinates-Axis-coordinates" style="visibility:hidden" transform=""><line x1="0" x2="0" y1="5.0" y2="-7.5" style="stroke:rgb(43.9%,50.2%,56.5%);stroke-opacity:1.0;stroke-width:1.0" /><text x="0" y="10.0" style="alignment-baseline:hanging;fill:rgb(43.9%,50.2%,56.5%);fill-opacity:1.0;font-size:10px;font-weight:normal;stroke:none;text-anchor:middle" /></g></g></g><g class="toyplot-coordinates-Cartesian" id="t15af514c2d4d4328b6803699423dd6ca"><clipPath id="ta337ade604144ec181607f8c794c4dca"><rect x="50.0" y="40.0" width="150.0" height="170.0" /></clipPath><g clip-path="url(#ta337ade604144ec181607f8c794c4dca)" /><g class="toyplot-coordinates-Axis" id="ta3444d296027475588167496c8ca6c5f" transform="translate(190.0,200.0)rotate(-90.0)translate(0,10.0)"><line x1="0" y1="0" x2="150.0" y2="0" style="" /><g class="toyplot-coordinates-Axis-coordinates" style="visibility:hidden" transform=""><line x1="0" x2="0" y1="-3.0" y2="4.5" style="stroke:rgb(43.9%,50.2%,56.5%);stroke-opacity:1.0;stroke-width:1.0" /><text x="0" y="-6" style="alignment-baseline:alphabetic;fill:rgb(43.9%,50.2%,56.5%);fill-opacity:1.0;font-size:10px;font-weight:normal;stroke:none;text-anchor:middle" /></g></g></g><g class="toyplot-coordinates-Cartesian" id="t5d99a6a5c39f4b5f9e067ed0671127c8"><clipPath id="tf04dcfb322a346009a534e6e47af4af1"><rect x="50.0" y="40.0" width="150.0" height="170.0" /></clipPath><g clip-path="url(#tf04dcfb322a346009a534e6e47af4af1)" /><g class="toyplot-coordinates-Axis" id="t856fb21762804d68b55242b07ff24045" transform="translate(60.0,200.0)rotate(-90.0)translate(0,-10.0)"><line x1="0" y1="0" x2="150.0" y2="0" style="" /><g class="toyplot-coordinates-Axis-coordinates" style="visibility:hidden" transform=""><line x1="0" x2="0" y1="3.0" y2="-4.5" style="stroke:rgb(43.9%,50.2%,56.5%);stroke-opacity:1.0;stroke-width:1.0" /><text x="0" y="6" style="alignment-baseline:hanging;fill:rgb(43.9%,50.2%,56.5%);fill-opacity:1.0;font-size:10px;font-weight:normal;stroke:none;text-anchor:middle" /></g></g></g><g class="toyplot-coordinates-Cartesian" id="t08af45f72a3a4fc5ae3929ddabfaea3f"><clipPath id="t962f766461924fb2b56aef5adcf2dc14"><rect x="40.0" y="50.0" width="170.0" height="150.0" /></clipPath><g clip-path="url(#t962f766461924fb2b56aef5adcf2dc14)" /><g class="toyplot-coordinates-Axis" id="tf86a73c33fbf44d0acbc874506f912a4" transform="translate(50.0,60.0)translate(0,-10.0)"><line x1="0" y1="0" x2="150.0" y2="0" style="" /><g class="toyplot-coordinates-Axis-coordinates" style="visibility:hidden" transform=""><line x1="0" x2="0" y1="3.0" y2="-4.5" style="stroke:rgb(43.9%,50.2%,56.5%);stroke-opacity:1.0;stroke-width:1.0" /><text x="0" y="6" style="alignment-baseline:hanging;fill:rgb(43.9%,50.2%,56.5%);fill-opacity:1.0;font-size:10px;font-weight:normal;stroke:none;text-anchor:middle" /></g></g></g><g class="toyplot-coordinates-Cartesian" id="t280505a086ed4aec99c8298de31612bd"><clipPath id="tbf5b1cb27d8c4928af4e25ed57699fe1"><rect x="40.0" y="50.0" width="170.0" height="150.0" /></clipPath><g clip-path="url(#tbf5b1cb27d8c4928af4e25ed57699fe1)" /><g class="toyplot-coordinates-Axis" id="t298ffe30124b43f4989f118626caf0c5" transform="translate(50.0,190.0)translate(0,10.0)"><line x1="0" y1="0" x2="150.0" y2="0" style="" /><g class="toyplot-coordinates-Axis-coordinates" style="visibility:hidden" transform=""><line x1="0" x2="0" y1="-3.0" y2="4.5" style="stroke:rgb(43.9%,50.2%,56.5%);stroke-opacity:1.0;stroke-width:1.0" /><text x="0" y="-6" style="alignment-baseline:alphabetic;fill:rgb(43.9%,50.2%,56.5%);fill-opacity:1.0;font-size:10px;font-weight:normal;stroke:none;text-anchor:middle" /></g></g></g></svg>