<svg class="toyplot-canvas-Canvas" xmlns:toyplot="http://www.sandia.gov/toyplot" xmlns:xlink="http://www.w3.org/1999/xlink" xmlns="http://www.w3.org/2000/svg" width="250.0px" height="250.0px" viewBox="0 0 250.0 250.0" preserveAspectRatio="xMidYMid meet" style="background-color:transparent;border-color:#292724;border-style:none;border-width:1.0;fill:rgb(16.1%,15.3%,14.1%);fill-opacity:1.0;font-family:Helvetica;font-size:12px;opacity:1.0;stroke:rgb(16.1%,15.3%,14.1%);stroke-opacity:1.0;stroke-width:1.0;stroke.width:8" id="t0fdd613fa2ff431d9eb9c20f5c3a5ec8"><g class="toyplot-coordinates-Cartesian" id="t7bb0f2953dfa4d3bbc383e16277f9430"><clipPath id="t763775919174449ea70e6d94a7beb1a5"><rect x="50.0" y="50.0" width="150.0" height="150.0" /></clipPath><g clip-path="url(#t763775919174449ea70e6d94a7beb1a5)"><g class="toyplot-mark-FillBoundaries" style="stroke:none" id="tdfc5eca541934e70b261b1f26f960fdb"><polygon points="60.0,190.0 61.3,190.0 62.599999999999994,190.0 63.9,190.0 65.19999999999999,190.0 66.5,190.0 67.8,190.0 69.1,190.0 70.4,190.0 71.7,190.0 73.0,190.0 74.3,190.0 75.6,190.0 76.9,190.0 78.2,190.0 79.5,190.0 80.8,190.0 82.1,190.0 83.4,190.0 84.7,190.0 86.0,190.0 87.30000000000001,190.0 88.6,190.0 89.9,190.0 91.2,190.0 92.5,190.0 93.8,190.0 95.1,190.0 96.4,190.0 97.69999999999999,190.0 99.0,190.0 100.3,190.0 101.6,190.0 102.9,190.0 104.2,190.0 105.5,190.0 106.79999999999998,190.0 108.1,190.0 109.4,190.0 110.70000000000002,190.0 112.0,190.0 113.3,190.0 114.6,190.0 115.9,190.0 117.19999999999999,190.0 118.5,190.0 119.80000000000001,190.0 121.1,190.0 122.4,190.0 123.69999999999999,190.0 125.0,190.0 126.30000000000001,190.0 127.6,190.0 128.9,190.0 130.20000000000002,190.0 131.5,190.0 132.8,190.0 134.1,190.0 135.39999999999998,190.0 136.7,190.0 138.0,190.0 139.29999999999998,190.0 140.6,190.0 141.9,190.0 143.20000000000002,190.0 144.5,190.0 145.8,190.0 147.10000000000002,190.0 148.4,190.0 149.7,190.0 151.0,190.0 152.3,190.0 153.6,190.0 154.89999999999998,190.0 156.2,190.0 157.5,190.0 158.8,190.0 160.10000000000002,190.0 161.4,190.0 162.7,190.0 164.0,190.0 165.3,190.0 166.6,190.0 167.89999999999998,190.0 169.2,190.0 170.5,190.0 171.8,190.0 173.10000000000002,190.0 174.39999999999998,190.0 175.7,190.0 177.0,190.0 178.3,190.0 179.60000000000002,190.0 180.9,190.0 182.2,190.0 183.5,190.0 184.8,190.0 186.1,190.0 187.39999999999998,190.0 188.7,190.0 190.0,190.0 191.3,190.0 192.60000000000002,190.0 193.9,190.0 195.2,190.0 196.5,190.0 197.8,190.0 199.1,190.0 200.4,190.0 201.70000000000002,190.0 203.00000000000003,190.0 204.3,190.0 205.6,190.0 206.9,190.0 208.2,190.0 209.49999999999997,190.0 210.79999999999998,190.0 212.1,190.0 213.39999999999998,190.0 214.7,190.0 216.0,190.0 217.3,190.0 218.6,190.0 219.89999999999998,190.0 221.2,190.0 222.5,190.0 223.8,190.0 225.10000000000002,190.0 226.4,190.0 227.7,190.0 229.0,190.0 230.3,190.0 231.60000000000002,190.0 232.9,190.0 234.20000000000002,190.0 235.5,190.0 236.80000000000004,190.0 238.1,190.0 239.4,190.0 240.69999999999996,190.0 242.0,190.0 243.29999999999998,190.0 244.60000000000002,190.0 245.89999999999998,190.0 247.19999999999996,190.0 248.5,190.0 249.79999999999998,190.0 251.10000000000002,190.0 252.39999999999998,190.0 253.70000000000002,190.0 255.0,190.0 256.29999999999995,190.0 257.6,190.0 258.9,190.0 260.20000000000005,190.0 261.5,190.0 262.8,190.0 264.1,190.0 265.4,190.0 266.70000000000005,190.0 268.0,190.0 269.3,190.0 270.6,190.0 271.9,190.0 273.2,190.0 274.5,190.0 275.79999999999995,190.0 277.1,190.0 278.4,190.0 279.7,190.0 281.0,190.0 282.29999999999995,190.0 283.6,190.0 284.9,190.0 286.20000000000005,190.0 287.5,190.0 288.79999999999995,190.0 290.1,190.0 291.4,190.0 292.70000000000005,190.0 294.0,190.0 295.3,190.0 296.6,190.0 297.9,190.0 299.20000000000005,190.0 300.5,190.0 301.8,190.0 303.1,190.0 304.4,190.0 305.7,190.0 307.0,190.0 308.29999999999995,190.0 309.6,190.0 310.9,190.0 312.2,190.0 313.5,190.0 314.79999999999995,190.0 316.1,190.0 317.4,190.0 318.70000000000005,190.0 320.0,190.0 321.3,190.0 322.6,190.0 323.9,190.0 325.20000000000005,190.0 326.49999999999994,190.0 327.8,190.0 329.09999999999997,190.0 330.4,190.0 331.7,190.0 333.0,190.0 334.29999999999995,190.0 335.6,190.0 336.9,190.0 338.20000000000005,190.0 339.5,190.0 340.8,190.0 342.1,190.0 343.40000000000003,190.0 344.7,190.0 346.00000000000006,190.0 347.29999999999995,190.0 348.6,190.0 349.9,190.0 351.20000000000005,190.0 352.5,190.0 353.79999999999995,190.0 355.1,190.0 356.4,190.0 357.70000000000005,190.0 358.99999999999994,190.0 360.3,190.0 361.59999999999997,190.0 362.9,190.0 364.2,190.0 365.5,190.0 366.79999999999995,190.0 368.1,190.0 369.4,190.0 370.70000000000005,190.0 372.0,190.0 373.3,190.0 374.6,190.0 375.90000000000003,190.0 377.2,190.0 378.50000000000006,190.0 379.79999999999995,190.0 381.1,190.0 382.4,190.0 383.70000000000005,190.0 385.0,190.0 386.29999999999995,190.0 387.6,190.0 388.9,190.0 390.20000000000005,190.0 391.49999999999994,190.0 392.8,190.0 394.09999999999997,190.0 395.4,190.0 396.7,190.0 398.0,190.0 399.29999999999995,190.0 400.6,190.0 401.9,190.0 403.20000000000005,190.0 404.5,190.0 405.8,190.0 407.1,190.0 408.40000000000003,190.0 409.7,190.0 411.0,190.0 412.29999999999995,190.0 413.6,190.0 414.90000000000003,190.0 416.20000000000005,190.0 417.5,190.0 418.79999999999995,190.0 420.09999999999997,190.0 421.4,190.0 422.70000000000005,190.0 424.0,190.0 425.29999999999995,190.0 426.59999999999997,190.0 427.90000000000003,190.0 429.20000000000005,190.0 430.5,190.0 431.79999999999995,190.0 433.1000000000001,190.0 434.3999999999999,190.0 435.70000000000005,190.0 437.0,190.0 438.29999999999995,190.0 439.59999999999997,190.0 440.90000000000003,190.0 442.20000000000005,190.0 443.5,190.0 444.79999999999995,190.0 446.1,190.0 447.40000000000003,190.0 448.70000000000005,190.0 450.0,190.0 451.29999999999995,190.0 452.59999999999997,190.0 453.9,190.0 455.20000000000005,190.0 456.5,190.0 457.79999999999995,190.0 459.09999999999997,190.0 460.40000000000003,190.0 461.70000000000005,190.0 463.0,190.0 464.29999999999995,190.0 465.6000000000001,190.0 466.8999999999999,190.0 468.20000000000005,190.0 469.5,190.0 470.79999999999995,190.0 472.09999999999997,190.0 473.40000000000003,190.0 474.70000000000005,190.0 476.0,190.0 477.29999999999995,190.0 478.6,190.0 479.90000000000003,190.0 481.20000000000005,190.0 482.5,190.0 483.79999999999995,190.0 485.09999999999997,190.0 486.4,190.0 487.70000000000005,190.0 489.0,190.0 490.29999999999995,190.0 491.59999999999997,190.0 492.90000000000003,190.0 494.20000000000005,190.0 495.5,190.0 496.79999999999995,190.0 498.1,190.0 499.4,190.0 500.70000000000005,190.0 502.0,190.0 503.29999999999995,190.0 504.59999999999997,190.0 505.90000000000003,190.0 507.20000000000005,190.0 508.5,190.0 509.79999999999995,190.0 511.1,190.0 512.4000000000001,190.0 513.7,190.0 515.0,190.0 516.3,190.0 517.5999999999999,190.0 518.9,190.0 520.2,190.0 521.5,190.0 522.8,190.0 524.0999999999999,190.0 525.4000000000001,190.0 526.7,190.0 528.0,190.0 529.3,190.0 530.6,190.0 531.9,190.0 533.2,190.0 534.5,190.0 535.8,190.0 537.0999999999999,190.0 538.4000000000001,190.0 539.7,190.0 541.0,190.0 542.3,190.0 543.6,190.0 544.9000000000001,190.0 546.2,190.0 547.5,190.0 548.8,190.0 550.0999999999999,190.0 551.4,190.0 552.7,190.0 554.0,190.0 555.3,190.0 556.5999999999999,190.0 557.9000000000001,190.0 559.2,190.0 560.5,190.0 561.8,190.0 563.1,190.0 564.4,190.0 565.7,190.0 567.0,190.0 568.3,190.0 569.5999999999999,190.0 570.9000000000001,190.0 572.2,190.0 573.5,190.0 574.8,190.0 576.1,190.0 577.4000000000001,190.0 578.7,190.0 580.0,190.0 581.3,190.0 582.5999999999999,190.0 583.9000000000001,190.0 585.2,190.0 586.5,190.0 587.8,190.0 589.1,190.0 590.4000000000001,190.0 591.7,190.0 592.9999999999999,190.0 594.3000000000001,190.0 595.6,190.0 596.9,190.0 598.1999999999999,190.0 599.5000000000001,190.0 600.8,190.0 602.0999999999999,190.0 603.4,190.0 604.7,190.0 606.0,190.0 607.3,190.0 608.5999999999999,190.0 609.9000000000001,190.0 611.2,190.0 612.5,190.0 613.8,190.0 615.0999999999999,190.0 616.4000000000001,190.0 617.7,190.0 619.0,190.0 620.3,190.0 621.6,190.0 622.9000000000001,190.0 624.2,190.0 625.4999999999999,190.0 626.8000000000001,190.0 628.1,190.0 629.4,190.0 630.6999999999999,190.0 632.0000000000001,190.0 633.3,190.0 634.5999999999999,190.0 635.9,190.0 637.2,190.0 638.5,190.0 639.8,190.0 641.0999999999999,190.0 642.4000000000001,190.0 643.7,190.0 645.0,190.0 646.3,190.0 647.5999999999999,190.0 648.9000000000001,190.0 650.2,190.0 651.5,190.0 652.8,190.0 654.1,190.0 655.4000000000001,190.0 656.7,190.0 657.9999999999999,190.0 659.3000000000001,190.0 660.6,190.0 661.9,190.0 663.1999999999999,190.0 664.5000000000001,190.0 665.8,190.0 667.0999999999999,190.0 668.4,190.0 669.7,190.0 671.0,190.0 672.3,190.0 673.5999999999999,190.0 674.9000000000001,190.0 676.2,190.0 677.5,190.0 678.8,190.0 680.0999999999999,190.0 681.4000000000001,190.0 682.7,190.0 684.0,190.0 685.3,190.0 686.6,190.0 687.9000000000001,190.0 689.2,190.0 690.4999999999999,190.0 691.8000000000001,190.0 693.1,190.0 694.4,190.0 695.6999999999999,190.0 697.0000000000001,190.0 698.3,190.0 699.5999999999999,190.0 700.9,190.0 702.2,190.0 703.5,190.0 704.8,190.0 706.0999999999999,190.0 707.4000000000001,190.0 708.7,190.0 710.0,190.0 711.3,190.0 712.5999999999999,190.0 713.9000000000001,190.0 715.2,190.0 716.5,190.0 717.8,190.0 719.1,190.0 720.4000000000001,190.0 721.7,190.0 722.9999999999999,190.0 724.3000000000001,190.0 725.6,190.0 726.9,190.0 728.1999999999999,190.0 729.5000000000001,190.0 730.8,190.0 732.0999999999999,190.0 733.4,190.0 734.7,190.0 736.0,190.0 737.3,190.0 738.5999999999999,190.0 739.9000000000001,190.0 741.2,190.0 742.5,190.0 743.8,190.0 745.0999999999999,190.0 746.4000000000001,190.0 747.7,190.0 749.0,190.0 750.3,190.0 751.6,190.0 752.9000000000001,190.0 754.2,190.0 755.4999999999999,190.0 756.8000000000001,190.0 758.1000000000001,190.0 759.3999999999999,190.0 760.6999999999999,190.0 762.0,190.0 763.3000000000001,190.0 764.5999999999999,190.0 765.9000000000001,190.0 767.2,190.0 768.5,190.0 769.8000000000001,190.0 771.0999999999999,190.0 772.4000000000001,190.0 773.7,190.0 775.0,190.0 776.3,190.0 777.5999999999999,190.0 778.9000000000001,190.0 780.1999999999999,190.0 781.5,190.0 782.8,190.0 784.0999999999999,190.0 785.4000000000001,190.0 786.6999999999999,190.0 788.0,190.0 789.3000000000001,190.0 790.5999999999999,190.0 791.9000000000001,190.0 793.1999999999999,190.0 794.5,190.0 795.8000000000001,190.0 797.0999999999999,190.0 798.4000000000001,190.0 799.7,190.0 801.0,190.0 802.3000000000001,190.0 803.5999999999999,190.0 804.9000000000001,190.0 806.2,190.0 807.5,190.0 808.8,190.0 810.0999999999999,190.0 811.4000000000001,190.0 812.6999999999999,190.0 814.0,190.0 815.3,190.0 816.5999999999999,190.0 817.9000000000001,190.0 819.1999999999999,190.0 820.5,190.0 821.8000000000001,190.0 823.0999999999999,190.0 824.4000000000001,190.0 825.6999999999999,190.0 827.0,190.0 828.3000000000001,190.0 829.5999999999999,190.0 830.9000000000001,190.0 832.2,190.0 833.5,190.0 834.8000000000001,190.0 836.0999999999999,190.0 837.4000000000001,190.0 838.7,190.0 840.0,190.0 841.3,190.0 842.5999999999999,190.0 843.9000000000001,190.0 845.1999999999999,190.0 846.5,190.0 847.8,190.0 849.0999999999999,190.0 850.4000000000001,190.0 851.6999999999999,190.0 853.0,190.0 854.3000000000001,190.0 855.5999999999999,190.0 856.9000000000001,190.0 858.1999999999999,190.0 859.5,190.0 860.8000000000001,190.0 862.0999999999999,190.0 863.4000000000001,190.0 864.7,190.0 866.0,190.0 867.3000000000001,190.0 868.5999999999999,190.0 869.9000000000001,190.0 871.2,190.0 872.5,190.0 873.8,190.0 875.0999999999999,190.0 876.4000000000001,190.0 877.6999999999999,190.0 879.0,190.0 880.3,190.0 881.5999999999999,190.0 882.9000000000001,190.0 884.1999999999999,190.0 885.5,190.0 886.8000000000001,190.0 888.0999999999999,190.0 889.4000000000001,190.0 890.6999999999999,190.0 892.0,190.0 893.3000000000001,190.0 894.5999999999999,190.0 895.9000000000001,190.0 897.2,190.0 898.5,190.0 899.8000000000001,190.0 901.0999999999999,190.0 902.4000000000001,190.0 903.7,190.0 905.0,190.0 906.3,190.0 907.5999999999999,190.0 908.9000000000001,190.0 910.1999999999999,190.0 911.5,190.0 912.8,190.0 914.0999999999999,190.0 915.4000000000001,190.0 916.6999999999999,190.0 918.0,190.0 919.3000000000001,190.0 920.5999999999999,190.0 921.9000000000001,190.0 923.1999999999999,190.0 924.5,190.0 925.8000000000001,190.0 927.0999999999999,190.0 928.4000000000001,190.0 929.7,190.0 931.0,190.0 932.3000000000001,190.0 933.5999999999999,190.0 934.9000000000001,190.0 936.2,190.0 937.5,190.0 938.8,190.0 940.0999999999999,190.0 941.4000000000001,190.0 942.6999999999999,190.0 944.0,190.0 945.3,190.0 946.5999999999999,190.0 947.9000000000001,190.0 949.1999999999999,190.0 950.5,190.0 951.8000000000001,190.0 953.0999999999999,190.0 954.4000000000001,190.0 955.6999999999999,190.0 957.0,190.0 958.3000000000001,190.0 959.5999999999999,190.0 960.9000000000001,190.0 962.2,190.0 963.5,190.0 964.8000000000001,190.0 966.0999999999999,190.0 967.4000000000001,190.0 968.7,190.0 970.0,190.0 971.3,190.0 972.5999999999999,190.0 973.9000000000001,190.0 975.1999999999999,190.0 976.5,190.0 977.8,190.0 979.0999999999999,190.0 980.4000000000001,190.0 981.6999999999999,190.0 983.0,190.0 984.3000000000001,190.0 985.5999999999999,190.0 986.9000000000001,190.0 988.1999999999999,190.0 989.5,190.0 990.8000000000001,190.0 992.0999999999999,190.0 993.4000000000001,190.0 994.7,190.0 996.0,190.0 997.3000000000001,190.0 998.5999999999999,190.0 999.9000000000001,190.0 1001.2,190.0 1002.5,190.0 1003.8,190.0 1005.0999999999999,190.0 1006.4000000000001,190.0 1007.6999999999999,190.0 1009.0,190.0 1010.3,190.0 1011.5999999999999,190.0 1012.9000000000001,190.0 1014.1999999999999,190.0 1015.5,190.0 1016.8000000000001,190.0 1018.0999999999999,190.0 1019.4000000000001,190.0 1020.6999999999999,190.0 1022.0,190.0 1023.3000000000001,190.0 1024.6,190.0 1025.9,190.0 1027.2,190.0 1028.5,190.0 1029.8000000000002,190.0 1031.1,190.0 1032.4,190.0 1033.7,190.0 1035.0,190.0 1036.3,190.0 1037.6,190.0 1038.9,190.0 1040.1999999999998,190.0 1041.5,190.0 1042.8,190.0 1044.1,190.0 1045.4,190.0 1046.6999999999998,190.0 1048.0,190.0 1049.3000000000002,190.0 1050.6,190.0 1051.9,190.0 1053.1999999999998,190.0 1054.5,190.0 1055.8000000000002,190.0 1057.1,190.0 1058.4,190.0 1059.7,190.0 1061.0,190.0 1062.3000000000002,190.0 1063.6,190.0 1064.9,190.0 1066.2,190.0 1067.5,190.0 1068.8,190.0 1070.1,190.0 1071.4,190.0 1072.6999999999998,190.0 1074.0,190.0 1075.3,190.0 1076.6,190.0 1077.9,190.0 1079.1999999999998,190.0 1080.5,190.0 1081.8000000000002,190.0 1083.1,190.0 1084.4,190.0 1085.6999999999998,190.0 1087.0,190.0 1088.3000000000002,190.0 1089.6,190.0 1090.9,190.0 1092.2,190.0 1093.5,190.0 1094.8000000000002,190.0 1096.1,190.0 1097.4,190.0 1098.7,190.0 1100.0,190.0 1101.3,190.0 1102.6,190.0 1103.8999999999999,190.0 1105.1999999999998,190.0 1106.5000000000002,190.0 1107.8000000000002,190.0 1109.1,190.0 1110.4,190.0 1111.6999999999998,190.0 1113.0,190.0 1114.3,190.0 1115.6,190.0 1116.9,190.0 1118.2,190.0 1119.5,190.0 1120.8000000000002,190.0 1122.1,190.0 1123.4,190.0 1124.6999999999998,190.0 1125.9999999999998,190.0 1127.3000000000002,190.0 1128.6000000000001,190.0 1129.9,190.0 1131.2,190.0 1132.5,190.0 1133.8,190.0 1135.1,190.0 1136.3999999999999,190.0 1137.6999999999998,190.0 1139.0000000000002,190.0 1140.3000000000002,190.0 1141.6,190.0 1142.9,190.0 1144.1999999999998,190.0 1145.5,190.0 1146.8,190.0 1148.1,190.0 1149.4,190.0 1150.7,190.0 1152.0,190.0 1153.3000000000002,190.0 1154.6,190.0 1155.9,190.0 1157.1999999999998,190.0 1158.4999999999998,190.0 1159.8000000000002,190.0 1161.1000000000001,190.0 1162.4,190.0 1163.7,190.0 1165.0,190.0 1166.3,190.0 1167.6,190.0 1168.8999999999999,190.0 1170.1999999999998,190.0 1171.5000000000002,190.0 1172.8000000000002,190.0 1174.1,190.0 1175.4,190.0 1176.6999999999998,190.0 1178.0,190.0 1179.3,190.0 1180.6,190.0 1181.9,190.0 1183.2,190.0 1184.5,190.0 1185.8000000000002,190.0 1187.1,190.0 1188.4,190.0 1189.6999999999998,190.0 1190.9999999999998,190.0 1192.3000000000002,190.0 1193.6000000000001,190.0 1194.9,190.0 1196.2,190.0 1197.5,190.0 1198.8,190.0 1200.1,190.0 1201.3999999999999,190.0 1202.6999999999998,190.0 1204.0000000000002,190.0 1205.3000000000002,190.0 1206.6,190.0 1207.9,190.0 1209.1999999999998,190.0 1210.5,190.0 1211.8,190.0 1213.1,190.0 1214.4,190.0 1215.7,190.0 1217.0,190.0 1218.3000000000002,190.0 1219.6,190.0 1220.9,190.0 1222.1999999999998,190.0 1223.4999999999998,190.0 1224.8000000000002,190.0 1226.1000000000001,190.0 1227.4,190.0 1228.7,190.0 1230.0,190.0 1231.3,190.0 1232.6,190.0 1233.8999999999999,190.0 1235.1999999999998,190.0 1236.5000000000002,190.0 1237.8000000000002,190.0 1239.1,190.0 1240.4,190.0 1241.6999999999998,190.0 1243.0,190.0 1244.3,190.0 1245.6,190.0 1246.9,190.0 1248.2,190.0 1249.5,190.0 1250.8000000000002,190.0 1252.1,190.0 1253.4,190.0 1254.6999999999998,190.0 1255.9999999999998,190.0 1257.3000000000002,190.0 1258.6000000000001,190.0 1259.9,190.0 1261.2,190.0 1262.5,190.0 1263.8,190.0 1265.1,190.0 1266.3999999999999,190.0 1267.6999999999998,190.0 1269.0000000000002,190.0 1270.3000000000002,190.0 1271.6,190.0 1272.9,190.0 1274.1999999999998,190.0 1275.5,190.0 1276.8,190.0 1278.1,190.0 1279.4,190.0 1280.7,190.0 1282.0,190.0 1283.3000000000002,190.0 1284.6,190.0 1285.9,190.0 1287.1999999999998,190.0 1288.4999999999998,190.0 1289.8000000000002,190.0 1291.1000000000001,190.0 1292.4,190.0 1293.7,190.0 1295.0,190.0 1296.3,190.0 1297.6,190.0 1298.8999999999999,190.0 1300.1999999999998,190.0 1301.5000000000002,190.0 1302.8000000000002,190.0 1304.1,190.0 1305.4,190.0 1306.6999999999998,190.0 1308.0,190.0 1309.3,190.0 1310.6,190.0 1311.9,190.0 1313.2,190.0 1314.5,190.0 1315.8000000000002,190.0 1317.1,190.0 1318.4,190.0 1319.6999999999998,190.0 1320.9999999999998,190.0 1322.3000000000002,190.0 1323.6000000000001,190.0 1324.9,190.0 1326.2000000000003,190.0 1327.5,190.0 1328.7999999999997,190.0 1330.1,190.0 1331.3999999999999,190.0 1332.6999999999998,190.0 1334.0000000000002,190.0 1335.3000000000002,190.0 1336.6,190.0 1337.9,190.0 1339.1999999999998,190.0 1340.5,190.0 1341.8,190.0 1343.1,190.0 1344.4,190.0 1345.7,190.0 1347.0,190.0 1348.3000000000002,190.0 1349.6,190.0 1350.9,190.0 1352.1999999999998,190.0 1353.4999999999998,190.0 1354.8000000000002,190.0 1354.8000000000002,189.948 1353.4999999999998,189.948 1352.1999999999998,189.948 1350.9,189.948 1349.6,189.948 1348.3000000000002,189.948 1347.0,189.948 1345.7,189.948 1344.4,189.948 1343.1,189.948 1341.8,189.948 1340.5,189.948 1339.1999999999998,189.948 1337.9,189.948 1336.6,189.948 1335.3000000000002,189.948 1334.0000000000002,189.948 1332.6999999999998,189.948 1331.3999999999999,189.948 1330.1,189.948 1328.7999999999997,189.948 1327.5,189.948 1326.2000000000003,189.948 1324.9,189.948 1323.6000000000001,189.948 1322.3000000000002,189.948 1320.9999999999998,189.948 1319.6999999999998,189.948 1318.4,189.948 1317.1,189.948 1315.8000000000002,189.948 1314.5,189.948 1313.2,189.948 1311.9,189.948 1310.6,189.948 1309.3,189.948 1308.0,189.948 1306.6999999999998,189.948 1305.4,189.948 1304.1,189.948 1302.8000000000002,189.948 1301.5000000000002,189.948 1300.1999999999998,189.948 1298.8999999999999,189.948 1297.6,189.948 1296.3,189.948 1295.0,189.948 1293.7,189.948 1292.4,189.948 1291.1000000000001,189.948 1289.8000000000002,189.948 1288.4999999999998,189.948 1287.1999999999998,189.948 1285.9,189.948 1284.6,189.948 1283.3000000000002,189.948 1282.0,189.948 1280.7,189.948 1279.4,189.948 1278.1,189.948 1276.8,189.948 1275.5,189.948 1274.1999999999998,189.948 1272.9,189.948 1271.6,189.948 1270.3000000000002,189.948 1269.0000000000002,189.948 1267.6999999999998,189.948 1266.3999999999999,189.948 1265.1,189.948 1263.8,189.948 1262.5,189.948 1261.2,189.948 1259.9,189.948 1258.6000000000001,189.948 1257.3000000000002,189.948 1255.9999999999998,189.948 1254.6999999999998,189.948 1253.4,189.948 1252.1,189.948 1250.8000000000002,189.948 1249.5,189.948 1248.2,189.948 1246.9,189.948 1245.6,189.948 1244.3,189.948 1243.0,189.948 1241.6999999999998,189.948 1240.4,189.948 1239.1,189.948 1237.8000000000002,189.948 1236.5000000000002,189.948 1235.1999999999998,189.948 1233.8999999999999,189.948 1232.6,189.948 1231.3,189.948 1230.0,189.948 1228.7,189.948 1227.4,189.948 1226.1000000000001,189.948 1224.8000000000002,189.948 1223.4999999999998,189.948 1222.1999999999998,189.948 1220.9,189.948 1219.6,189.948 1218.3000000000002,189.948 1217.0,189.948 1215.7,189.948 1214.4,189.948 1213.1,189.948 1211.8,189.948 1210.5,189.948 1209.1999999999998,189.948 1207.9,189.948 1206.6,189.948 1205.3000000000002,189.948 1204.0000000000002,189.948 1202.6999999999998,189.948 1201.3999999999999,189.948 1200.1,189.948 1198.8,189.948 1197.5,189.948 1196.2,189.948 1194.9,189.948 1193.6000000000001,189.948 1192.3000000000002,189.948 1190.9999999999998,189.948 1189.6999999999998,189.948 1188.4,189.948 1187.1,189.948 1185.8000000000002,189.948 1184.5,189.948 1183.2,189.948 1181.9,189.948 1180.6,189.948 1179.3,189.948 1178.0,189.948 1176.6999999999998,189.948 1175.4,189.948 1174.1,189.948 1172.8000000000002,189.948 1171.5000000000002,189.948 1170.1999999999998,189.948 1168.8999999999999,189.948 1167.6,189.948 1166.3,189.948 1165.0,189.948 1163.7,189.948 1162.4,189.948 1161.1000000000001,189.948 1159.8000000000002,189.948 1158.4999999999998,189.948 1157.1999999999998,189.948 1155.9,189.948 1154.6,189.948 1153.3000000000002,189.948 1152.0,189.948 1150.7,189.948 1149.4,189.948 1148.1,189.948 1146.8,189.948 1145.5,189.948 1144.1999999999998,189.948 1142.9,189.948 1141.6,189.948 1140.3000000000002,189.948 1139.0000000000002,189.948 1137.6999999999998,189.948 1136.3999999999999,189.948 1135.1,189.948 1133.8,189.948 1132.5,189.948 1131.2,189.948 1129.9,189.948 1128.6000000000001,189.948 1127.3000000000002,189.948 1125.9999999999998,189.948 1124.6999999999998,189.948 1123.4,189.948 1122.1,189.948 1120.8000000000002,189.948 1119.5,189.948 1118.2,189.948 1116.9,189.948 1115.6,189.948 1114.3,189.948 1113.0,189.948 1111.6999999999998,189.948 1110.4,189.948 1109.1,189.948 1107.8000000000002,189.948 1106.5000000000002,189.948 1105.1999999999998,189.948 1103.8999999999999,189.948 1102.6,189.948 1101.3,189.948 1100.0,189.948 1098.7,189.948 1097.4,189.948 1096.1,189.948 1094.8000000000002,189.948 1093.5,189.948 1092.2,189.948 1090.9,189.948 1089.6,189.948 1088.3000000000002,189.948 1087.0,189.948 1085.6999999999998,189.948 1084.4,189.948 1083.1,189.948 1081.8000000000002,189.948 1080.5,189.948 1079.1999999999998,189.948 1077.9,189.948 1076.6,189.948 1075.3,189.948 1074.0,189.948 1072.6999999999998,189.948 1071.4,189.948 1070.1,189.948 1068.8,189.948 1067.5,189.948 1066.2,189.948 1064.9,189.948 1063.6,189.948 1062.3000000000002,189.948 1061.0,189.948 1059.7,189.948 1058.4,189.948 1057.1,189.948 1055.8000000000002,189.948 1054.5,189.948 1053.1999999999998,189.948 1051.9,189.948 1050.6,189.948 1049.3000000000002,189.948 1048.0,189.948 1046.6999999999998,189.948 1045.4,189.948 1044.1,189.948 1042.8,189.948 1041.5,189.948 1040.1999999999998,189.948 1038.9,189.948 1037.6,189.948 1036.3,189.948 1035.0,189.948 1033.7,189.948 1032.4,189.948 1031.1,189.948 1029.8000000000002,189.948 1028.5,189.948 1027.2,189.948 1025.9,189.948 1024.6,189.948 1023.3000000000001,189.948 1022.0,189.948 1020.6999999999999,189.948 1019.4000000000001,189.948 1018.0999999999999,189.948 1016.8000000000001,189.948 1015.5,189.948 1014.1999999999999,189.948 1012.9000000000001,189.948 1011.5999999999999,189.948 1010.3,189.948 1009.0,189.948 1007.6999999999999,189.948 1006.4000000000001,189.948 1005.0999999999999,189.948 1003.8,189.948 1002.5,189.948 1001.2,189.948 999.9000000000001,189.948 998.5999999999999,189.948 997.3000000000001,189.948 996.0,189.948 994.7,189.948 993.4000000000001,189.948 992.0999999999999,189.948 990.8000000000001,189.948 989.5,189.948 988.1999999999999,189.948 986.9000000000001,189.948 985.5999999999999,189.948 984.3000000000001,189.948 983.0,189.948 981.6999999999999,189.948 980.4000000000001,189.948 979.0999999999999,189.948 977.8,189.948 976.5,189.948 975.1999999999999,189.948 973.9000000000001,189.948 972.5999999999999,189.948 971.3,189.948 970.0,189.948 968.7,189.948 967.4000000000001,189.948 966.0999999999999,189.948 964.8000000000001,189.948 963.5,189.948 962.2,189.948 960.9000000000001,189.948 959.5999999999999,189.948 958.3000000000001,189.948 957.0,189.948 955.6999999999999,189.948 954.4000000000001,189.948 953.0999999999999,189.948 951.8000000000001,189.948 950.5,189.948 949.1999999999999,189.948 947.9000000000001,189.948 946.5999999999999,189.948 945.3,189.948 944.0,189.948 942.6999999999999,189.948 941.4000000000001,189.948 940.0999999999999,189.948 938.8,189.948 937.5,189.948 936.2,189.948 934.9000000000001,189.948 933.5999999999999,189.948 932.3000000000001,189.948 931.0,189.948 929.7,189.948 928.4000000000001,189.948 927.0999999999999,189.948 925.8000000000001,189.948 924.5,189.948 923.1999999999999,189.948 921.9000000000001,189.948 920.5999999999999,189.948 919.3000000000001,189.948 918.0,189.948 916.6999999999999,189.948 915.4000000000001,189.948 914.0999999999999,189.948 912.8,189.948 911.5,189.948 910.1999999999999,189.948 908.9000000000001,189.948 907.5999999999999,189.948 906.3,189.948 905.0,189.948 903.7,189.948 902.4000000000001,189.948 901.0999999999999,189.948 899.8000000000001,189.948 898.5,189.948 897.2,189.948 895.9000000000001,189.948 894.5999999999999,189.948 893.3000000000001,189.948 892.0,189.948 890.6999999999999,189.948 889.4000000000001,189.948 888.0999999999999,189.948 886.8000000000001,189.948 885.5,189.948 884.1999999999999,189.948 882.9000000000001,189.948 881.5999999999999,189.948 880.3,189.948 879.0,189.948 877.6999999999999,189.948 876.4000000000001,189.948 875.0999999999999,189.948 873.8,189.948 872.5,189.948 871.2,189.948 869.9000000000001,189.948 868.5999999999999,189.948 867.3000000000001,189.948 866.0,189.948 864.7,189.948 863.4000000000001,189.948 862.0999999999999,189.948 860.8000000000001,189.948 859.5,189.948 858.1999999999999,189.948 856.9000000000001,189.948 855.5999999999999,189.948 854.3000000000001,189.948 853.0,189.948 851.6999999999999,189.948 850.4000000000001,189.948 849.0999999999999,189.948 847.8,189.948 846.5,189.948 845.1999999999999,189.948 843.9000000000001,189.948 842.5999999999999,189.948 841.3,189.948 840.0,189.948 838.7,189.948 837.4000000000001,189.948 836.0999999999999,189.948 834.8000000000001,189.948 833.5,189.948 832.2,189.948 830.9000000000001,189.948 829.5999999999999,189.948 828.3000000000001,189.948 827.0,189.948 825.6999999999999,189.948 824.4000000000001,189.948 823.0999999999999,189.948 821.8000000000001,189.948 820.5,189.948 819.1999999999999,189.948 817.9000000000001,189.948 816.5999999999999,189.948 815.3,189.948 814.0,189.948 812.6999999999999,189.948 811.4000000000001,189.948 810.0999999999999,189.948 808.8,189.948 807.5,189.948 806.2,189.948 804.9000000000001,189.948 803.5999999999999,189.948 802.3000000000001,189.948 801.0,189.948 799.7,189.948 798.4000000000001,189.948 797.0999999999999,189.948 795.8000000000001,189.948 794.5,189.948 793.1999999999999,189.948 791.9000000000001,189.948 790.5999999999999,189.948 789.3000000000001,189.948 788.0,189.948 786.6999999999999,189.948 785.4000000000001,189.948 784.0999999999999,189.948 782.8,189.948 781.5,189.948 780.1999999999999,189.948 778.9000000000001,189.948 777.5999999999999,189.948 776.3,189.948 775.0,189.948 773.7,189.948 772.4000000000001,189.948 771.0999999999999,189.948 769.8000000000001,189.948 768.5,189.948 767.2,189.948 765.9000000000001,189.948 764.5999999999999,189.948 763.3000000000001,189.948 762.0,189.948 760.6999999999999,189.948 759.3999999999999,189.948 758.1000000000001,189.948 756.8000000000001,189.948 755.4999999999999,189.948 754.2,189.948 752.9000000000001,189.948 751.6,189.948 750.3,189.948 749.0,189.948 747.7,189.948 746.4000000000001,189.948 745.0999999999999,189.948 743.8,189.948 742.5,189.948 741.2,189.948 739.9000000000001,189.948 738.5999999999999,189.948 737.3,189.948 736.0,189.948 734.7,189.948 733.4,189.948 732.0999999999999,189.948 730.8,189.948 729.5000000000001,189.948 728.1999999999999,189.948 726.9,189.948 725.6,189.948 724.3000000000001,189.948 722.9999999999999,189.948 721.7,189.948 720.4000000000001,189.948 719.1,189.948 717.8,189.948 716.5,189.948 715.2,189.948 713.9000000000001,189.948 712.5999999999999,189.948 711.3,189.948 710.0,189.948 708.7,189.948 707.4000000000001,189.948 706.0999999999999,189.948 704.8,189.948 703.5,189.948 702.2,189.948 700.9,189.948 699.5999999999999,189.948 698.3,189.948 697.0000000000001,189.948 695.6999999999999,189.948 694.4,189.948 693.1,189.948 691.8000000000001,189.948 690.4999999999999,189.896 689.2,189.896 687.9000000000001,189.896 686.6,189.896 685.3,189.896 684.0,189.896 682.7,189.896 681.4000000000001,189.896 680.0999999999999,189.896 678.8,189.896 677.5,189.896 676.2,189.896 674.9000000000001,189.896 673.5999999999999,189.896 672.3,189.896 671.0,189.896 669.7,189.896 668.4,189.896 667.0999999999999,189.896 665.8,189.896 664.5000000000001,189.896 663.1999999999999,189.896 661.9,189.896 660.6,189.896 659.3000000000001,189.896 657.9999999999999,189.896 656.7,189.896 655.4000000000001,189.896 654.1,189.896 652.8,189.896 651.5,189.896 650.2,189.896 648.9000000000001,189.896 647.5999999999999,189.896 646.3,189.896 645.0,189.896 643.7,189.896 642.4000000000001,189.896 641.0999999999999,189.896 639.8,189.896 638.5,189.896 637.2,189.896 635.9,189.896 634.5999999999999,189.896 633.3,189.896 632.0000000000001,189.896 630.6999999999999,189.896 629.4,189.896 628.1,189.896 626.8000000000001,189.896 625.4999999999999,189.896 624.2,189.896 622.9000000000001,189.896 621.6,189.896 620.3,189.896 619.0,189.896 617.7,189.896 616.4000000000001,189.896 615.0999999999999,189.896 613.8,189.896 612.5,189.896 611.2,189.896 609.9000000000001,189.896 608.5999999999999,189.896 607.3,189.896 606.0,189.896 604.7,189.896 603.4,189.896 602.0999999999999,189.896 600.8,189.896 599.5000000000001,189.896 598.1999999999999,189.896 596.9,189.896 595.6,189.896 594.3000000000001,189.896 592.9999999999999,189.896 591.7,189.896 590.4000000000001,189.896 589.1,189.896 587.8,189.896 586.5,189.896 585.2,189.896 583.9000000000001,189.896 582.5999999999999,189.896 581.3,189.896 580.0,189.896 578.7,189.896 577.4000000000001,189.896 576.1,189.896 574.8,189.896 573.5,189.896 572.2,189.896 570.9000000000001,189.896 569.5999999999999,189.896 568.3,189.896 567.0,189.896 565.7,189.896 564.4,189.896 563.1,189.896 561.8,189.896 560.5,189.896 559.2,189.896 557.9000000000001,189.896 556.5999999999999,189.896 555.3,189.896 554.0,189.896 552.7,189.896 551.4,189.896 550.0999999999999,189.896 548.8,189.896 547.5,189.896 546.2,189.896 544.9000000000001,189.896 543.6,189.896 542.3,189.896 541.0,189.896 539.7,189.896 538.4000000000001,189.896 537.0999999999999,189.896 535.8,189.896 534.5,189.896 533.2,189.896 531.9,189.896 530.6,189.896 529.3,189.896 528.0,189.896 526.7,189.896 525.4000000000001,189.896 524.0999999999999,189.896 522.8,189.896 521.5,189.896 520.2,189.896 518.9,189.896 517.5999999999999,189.896 516.3,189.896 515.0,189.896 513.7,189.896 512.4000000000001,189.896 511.1,189.896 509.79999999999995,189.896 508.5,189.896 507.20000000000005,189.896 505.90000000000003,189.896 504.59999999999997,189.896 503.29999999999995,189.896 502.0,189.896 500.70000000000005,189.896 499.4,189.896 498.1,189.896 496.79999999999995,189.896 495.5,189.896 494.20000000000005,189.896 492.90000000000003,189.896 491.59999999999997,189.896 490.29999999999995,189.896 489.0,189.896 487.70000000000005,189.896 486.4,189.896 485.09999999999997,189.896 483.79999999999995,189.896 482.5,189.896 481.20000000000005,189.896 479.90000000000003,189.896 478.6,189.896 477.29999999999995,189.896 476.0,189.896 474.70000000000005,189.896 473.40000000000003,189.896 472.09999999999997,189.896 470.79999999999995,189.896 469.5,189.896 468.20000000000005,189.896 466.8999999999999,189.896 465.6000000000001,189.896 464.29999999999995,189.896 463.0,189.896 461.70000000000005,189.896 460.40000000000003,189.896 459.09999999999997,189.896 457.79999999999995,189.896 456.5,189.896 455.20000000000005,189.896 453.9,189.896 452.59999999999997,189.896 451.29999999999995,189.896 450.0,189.896 448.70000000000005,189.896 447.40000000000003,189.896 446.1,189.896 444.79999999999995,189.896 443.5,189.896 442.20000000000005,189.896 440.90000000000003,189.896 439.59999999999997,189.896 438.29999999999995,189.896 437.0,189.896 435.70000000000005,189.896 434.3999999999999,189.896 433.1000000000001,189.896 431.79999999999995,189.896 430.5,189.896 429.20000000000005,189.896 427.90000000000003,189.896 426.59999999999997,189.896 425.29999999999995,189.896 424.0,189.896 422.70000000000005,189.896 421.4,189.896 420.09999999999997,189.896 418.79999999999995,189.896 417.5,189.896 416.20000000000005,189.896 414.90000000000003,189.896 413.6,189.896 412.29999999999995,189.896 411.0,189.896 409.7,189.896 408.40000000000003,189.896 407.1,189.896 405.8,189.896 404.5,189.896 403.20000000000005,189.896 401.9,189.896 400.6,189.896 399.29999999999995,189.844 398.0,189.844 396.7,189.844 395.4,189.844 394.09999999999997,189.844 392.8,189.844 391.49999999999994,189.844 390.20000000000005,189.844 388.9,189.844 387.6,189.844 386.29999999999995,189.844 385.0,189.844 383.70000000000005,189.844 382.4,189.844 381.1,189.844 379.79999999999995,189.844 378.50000000000006,189.844 377.2,189.844 375.90000000000003,189.844 374.6,189.844 373.3,189.844 372.0,189.844 370.70000000000005,189.844 369.4,189.844 368.1,189.844 366.79999999999995,189.844 365.5,189.844 364.2,189.844 362.9,189.844 361.59999999999997,189.844 360.3,189.844 358.99999999999994,189.844 357.70000000000005,189.844 356.4,189.844 355.1,189.844 353.79999999999995,189.844 352.5,189.844 351.20000000000005,189.844 349.9,189.844 348.6,189.844 347.29999999999995,189.844 346.00000000000006,189.844 344.7,189.844 343.40000000000003,189.844 342.1,189.844 340.8,189.844 339.5,189.844 338.20000000000005,189.844 336.9,189.844 335.6,189.844 334.29999999999995,189.844 333.0,189.844 331.7,189.844 330.4,189.844 329.09999999999997,189.844 327.8,189.844 326.49999999999994,189.844 325.20000000000005,189.844 323.9,189.844 322.6,189.844 321.3,189.844 320.0,189.844 318.70000000000005,189.844 317.4,189.844 316.1,189.844 314.79999999999995,189.844 313.5,189.844 312.2,189.844 310.9,189.844 309.6,189.844 308.29999999999995,189.844 307.0,189.844 305.7,189.844 304.4,189.844 303.1,189.844 301.8,189.844 300.5,189.844 299.20000000000005,189.844 297.9,189.844 296.6,189.844 295.3,189.844 294.0,189.844 292.70000000000005,189.844 291.4,189.844 290.1,189.844 288.79999999999995,189.844 287.5,189.844 286.20000000000005,189.844 284.9,189.844 283.6,189.792 282.29999999999995,189.792 281.0,189.792 279.7,189.792 278.4,189.792 277.1,189.792 275.79999999999995,189.792 274.5,189.792 273.2,189.792 271.9,189.792 270.6,189.792 269.3,189.792 268.0,189.792 266.70000000000005,189.792 265.4,189.792 264.1,189.792 262.8,189.792 261.5,189.792 260.20000000000005,189.792 258.9,189.792 257.6,189.792 256.29999999999995,189.792 255.0,189.792 253.70000000000002,189.792 252.39999999999998,189.792 251.10000000000002,189.792 249.79999999999998,189.792 248.5,189.792 247.19999999999996,189.792 245.89999999999998,189.792 244.60000000000002,189.74 243.29999999999998,189.74 242.0,189.74 240.69999999999996,189.74 239.4,189.74 238.1,189.74 236.80000000000004,189.74 235.5,189.74 234.20000000000002,189.74 232.9,189.74 231.60000000000002,189.74 230.3,189.74 229.0,189.74 227.7,189.74 226.4,189.74 225.10000000000002,189.74 223.8,189.74 222.5,189.74 221.2,189.74 219.89999999999998,189.68800000000002 218.6,189.68800000000002 217.3,189.68800000000002 216.0,189.68800000000002 214.7,189.68800000000002 213.39999999999998,189.68800000000002 212.1,189.68800000000002 210.79999999999998,189.68800000000002 209.49999999999997,189.68800000000002 208.2,189.68800000000002 206.9,189.68800000000002 205.6,189.68800000000002 204.3,189.636 203.00000000000003,189.636 201.70000000000002,189.584 200.4,189.584 199.1,189.584 197.8,189.584 196.5,189.584 195.2,183.084 193.9,181.784 192.60000000000002,181.42000000000002 191.3,180.69199999999998 190.0,180.536 188.7,180.38 187.39999999999998,179.964 186.1,179.964 184.8,179.912 183.5,179.548 182.2,179.184 180.9,179.028 179.60000000000002,178.976 178.3,178.87199999999999 177.0,178.82 175.7,178.716 174.39999999999998,178.40400000000002 173.10000000000002,178.248 171.8,177.676 170.5,177.57199999999997 169.2,177.51999999999998 167.89999999999998,177.51999999999998 166.6,177.51999999999998 165.3,177.416 164.0,177.31199999999998 162.7,177.0 161.4,176.94799999999998 160.10000000000002,176.94799999999998 158.8,176.89600000000002 157.5,176.792 156.2,176.792 154.89999999999998,176.688 153.6,176.532 152.3,176.22000000000003 151.0,175.908 149.7,175.75199999999998 148.4,175.544 147.10000000000002,175.44 145.8,175.232 144.5,175.18 143.20000000000002,175.18 141.9,175.128 140.6,175.076 139.29999999999998,174.972 138.0,174.66000000000003 136.7,174.55599999999998 135.39999999999998,174.504 134.1,174.45199999999997 132.8,174.34799999999998 131.5,174.244 130.20000000000002,173.30800000000002 128.9,173.204 127.6,172.528 126.30000000000001,172.16400000000002 125.0,171.852 123.69999999999999,171.592 122.4,170.916 121.1,170.55200000000002 119.80000000000001,170.448 118.5,170.292 117.19999999999999,170.24 115.9,170.18800000000002 114.6,169.98000000000002 113.3,169.98000000000002 112.0,169.72 110.70000000000002,169.61599999999999 109.4,169.512 108.1,168.836 106.79999999999998,168.264 105.5,168.21200000000002 104.2,166.44400000000002 102.9,166.34 101.6,166.132 100.3,165.976 99.0,164.10399999999998 97.69999999999999,163.168 96.4,162.80399999999997 95.1,162.596 93.8,162.024 92.5,161.71200000000002 91.2,161.452 89.9,161.296 88.6,158.852 87.30000000000001,157.968 86.0,157.13600000000002 84.7,156.2 83.4,155.472 82.1,154.84799999999998 80.8,154.744 79.5,154.588 78.2,142.628 76.9,142.264 75.6,141.38 74.3,139.768 73.0,136.232 71.7,136.076 70.4,133.58 69.1,133.164 67.8,130.668 66.5,129.888 65.19999999999999,128.79600000000002 63.9,126.82 62.599999999999994,117.56400000000002 61.3,116.83600000000001 60.0,79.5" style="fill:rgb(40%,76.1%,64.7%);fill-opacity:1.0;opacity:1.0;stroke:none" /></g></g><g class="toyplot-coordinates-Axis" id="tfd20ea921094438d8359e969d574e084" transform="translate(60.0,190.0)translate(0,10.0)"><line x1="0" y1="0" x2="130.0" y2="0" style="" /><g><line x1="0.0" y1="5.0" x2="0.0" y2="0" style="" /><line x1="65.0" y1="5.0" x2="65.0" y2="0" style="" /><line x1="130.0" y1="5.0" x2="130.0" y2="0" style="" /></g><g><g transform="translate(0.0,10.0)"><text x="-2.78" y="8.555" style="fill:rgb(16.1%,15.3%,14.1%);fill-opacity:1.0;font-family:helvetica;font-size:10.0px;font-weight:normal;stroke:none;vertical-align:baseline;white-space:pre">0</text></g><g transform="translate(65.0,10.0)"><text x="-5.56" y="8.555" style="fill:rgb(16.1%,15.3%,14.1%);fill-opacity:1.0;font-family:helvetica;font-size:10.0px;font-weight:normal;stroke:none;vertical-align:baseline;white-space:pre">50</text></g><g transform="translate(130.0,10.0)"><text x="-8.34" y="8.555" style="fill:rgb(16.1%,15.3%,14.1%);fill-opacity:1.0;font-family:helvetica;font-size:10.0px;font-weight:normal;stroke:none;vertical-align:baseline;white-space:pre">100</text></g></g><g transform="translate(65.0,30.0)"><text x="-41.34" y="10.265999999999998" style="fill:rgb(16.1%,15.3%,14.1%);fill-opacity:1.0;font-family:helvetica;font-size:12.0px;font-weight:bold;stroke:none;vertical-align:baseline;white-space:pre">Topology rank</text></g><g class="toyplot-coordinates-Axis-coordinates" style="visibility:hidden" transform=""><line x1="0" x2="0" y1="-5.0" y2="7.5" style="stroke:rgb(43.9%,50.2%,56.5%);stroke-opacity:1.0;stroke-width:1.0" /><text x="0" y="-10.0" style="alignment-baseline:alphabetic;fill:rgb(43.9%,50.2%,56.5%);fill-opacity:1.0;font-size:10px;font-weight:normal;stroke:none;text-anchor:middle" /></g></g><g class="toyplot-coordinates-Axis" id="tbd1a0b6df6f64796ab786b49e4e7f650" transform="translate(60.0,190.0)rotate(-90.0)translate(0,-10.0)"><line x1="0" y1="0" x2="130.0" y2="0" style="" /><g><line x1="0.0" y1="-5.0" x2="0.0" y2="0" style="" /><line x1="65.0" y1="-5.0" x2="65.0" y2="0" style="" /><line x1="130.0" y1="-5.0" x2="130.0" y2="0" style="" /></g><g><g transform="translate(0.0,-10.0)"><text x="-9.729999999999999" y="-4.440892098500626e-16" style="fill:rgb(16.1%,15.3%,14.1%);fill-opacity:1.0;font-family:helvetica;font-size:10.0px;font-weight:normal;stroke:none;vertical-align:baseline;white-space:pre">0.00</text></g><g transform="translate(65.0,-10.0)"><text x="-9.729999999999999" y="-4.440892098500626e-16" style="fill:rgb(16.1%,15.3%,14.1%);fill-opacity:1.0;font-family:helvetica;font-size:10.0px;font-weight:normal;stroke:none;vertical-align:baseline;white-space:pre">0.03</text></g><g transform="translate(130.0,-10.0)"><text x="-9.729999999999999" y="-4.440892098500626e-16" style="fill:rgb(16.1%,15.3%,14.1%);fill-opacity:1.0;font-family:helvetica;font-size:10.0px;font-weight:normal;stroke:none;vertical-align:baseline;white-space:pre">0.05</text></g></g><g transform="translate(65.0,-30.0)"><text x="-30.342000000000002" y="0.0" style="fill:rgb(16.1%,15.3%,14.1%);fill-opacity:1.0;font-family:helvetica;font-size:12.0px;font-weight:bold;stroke:none;vertical-align:baseline;white-space:pre">Frequency</text></g><g class="toyplot-coordinates-Axis-coordinates" style="visibility:hidden" transform=""><line x1="0" x2="0" y1="5.0" y2="-7.5" style="stroke:rgb(43.9%,50.2%,56.5%);stroke-opacity:1.0;stroke-width:1.0" /><text x="0" y="10.0" style="alignment-baseline:hanging;fill:rgb(43.9%,50.2%,56.5%);fill-opacity:1.0;font-size:10px;font-weight:normal;stroke:none;text-anchor:middle" /></g></g></g><g class="toyplot-coordinates-Cartesian" id="t7cf6e07db63e4e9b994a5e9d9aafb6ee"><clipPath id="t87461ff9c538449993446fe429d36fb0"><rect x="50.0" y="40.0" width="150.0" height="170.0" /></clipPath><g clip-path="url(#t87461ff9c538449993446fe429d36fb0)" /><g class="toyplot-coordinates-Axis" id="tbfb323c85b7545608eead5f5391f70d5" transform="translate(190.0,200.0)rotate(-90.0)translate(0,10.0)"><line x1="0" y1="0" x2="150.0" y2="0" style="" /><g class="toyplot-coordinates-Axis-coordinates" style="visibility:hidden" transform=""><line x1="0" x2="0" y1="-3.0" y2="4.5" style="stroke:rgb(43.9%,50.2%,56.5%);stroke-opacity:1.0;stroke-width:1.0" /><text x="0" y="-6" style="alignment-baseline:alphabetic;fill:rgb(43.9%,50.2%,56.5%);fill-opacity:1.0;font-size:10px;font-weight:normal;stroke:none;text-anchor:middle" /></g></g></g><g class="toyplot-coordinates-Cartesian" id="t8051be0b92844ac69a6bdaa509a8476b"><clipPath id="td1f4844527ae411eaa664f717d33fe2c"><rect x="50.0" y="40.0" width="150.0" height="170.0" /></clipPath><g clip-path="url(#td1f4844527ae411eaa664f717d33fe2c)" /><g class="toyplot-coordinates-Axis" id="tb68a331aab7c46ea8f0e9dfa92710473" transform="translate(60.0,200.0)rotate(-90.0)translate(0,-10.0)"><line x1="0" y1="0" x2="150.0" y2="0" style="" /><g class="toyplot-coordinates-Axis-coordinates" style="visibility:hidden" transform=""><line x1="0" x2="0" y1="3.0" y2="-4.5" style="stroke:rgb(43.9%,50.2%,56.5%);stroke-opacity:1.0;stroke-width:1.0" /><text x="0" y="6" style="alignment-baseline:hanging;fill:rgb(43.9%,50.2%,56.5%);fill-opacity:1.0;font-size:10px;font-weight:normal;stroke:none;text-anchor:middle" /></g></g></g><g class="toyplot-coordinates-Cartesian" id="t4022b95af1aa4711aeed5c6b9b40dc45"><clipPath id="t592ae4aa400841f8aac24fcefb9af4c5"><rect x="40.0" y="50.0" width="170.0" height="150.0" /></clipPath><g clip-path="url(#t592ae4aa400841f8aac24fcefb9af4c5)" /><g class="toyplot-coordinates-Axis" id="t07a1283887ad4fc7817b97672e3041db" transform="translate(50.0,60.0)translate(0,-10.0)"><line x1="0" y1="0" x2="150.0" y2="0" style="" /><g class="toyplot-coordinates-Axis-coordinates" style="visibility:hidden" transform=""><line x1="0" x2="0" y1="3.0" y2="-4.5" style="stroke:rgb(43.9%,50.2%,56.5%);stroke-opacity:1.0;stroke-width:1.0" /><text x="0" y="6" style="alignment-baseline:hanging;fill:rgb(43.9%,50.2%,56.5%);fill-opacity:1.0;font-size:10px;font-weight:normal;stroke:none;text-anchor:middle" /></g></g></g><g class="toyplot-coordinates-Cartesian" id="t926c1216c706494584d085a7e776efe4"><clipPath id="tde49cd35a5c94f289f49e91ee5cc98dd"><rect x="40.0" y="50.0" width="170.0" height="150.0" /></clipPath><g clip-path="url(#tde49cd35a5c94f289f49e91ee5cc98dd)" /><g class="toyplot-coordinates-Axis" id="t69d1b063b8314c579b5925a9888cfc0f" transform="translate(50.0,190.0)translate(0,10.0)"><line x1="0" y1="0" x2="150.0" y2="0" style="" /><g class="toyplot-coordinates-Axis-coordinates" style="visibility:hidden" transform=""><line x1="0" x2="0" y1="-3.0" y2="4.5" style="stroke:rgb(43.9%,50.2%,56.5%);stroke-opacity:1.0;stroke-width:1.0" /><text x="0" y="-6" style="alignment-baseline:alphabetic;fill:rgb(43.9%,50.2%,56.5%);fill-opacity:1.0;font-size:10px;font-weight:normal;stroke:none;text-anchor:middle" /></g></g></g></svg>