<svg class="toyplot-canvas-Canvas" xmlns:toyplot="http://www.sandia.gov/toyplot" xmlns:xlink="http://www.w3.org/1999/xlink" xmlns="http://www.w3.org/2000/svg" width="290.0px" height="250.0px" viewBox="0 0 290.0 250.0" preserveAspectRatio="xMidYMid meet" style="background-color:transparent;border-color:#292724;border-style:none;border-width:1.0;fill:rgb(16.1%,15.3%,14.1%);fill-opacity:1.0;font-family:Helvetica;font-size:12px;opacity:1.0;stroke:rgb(16.1%,15.3%,14.1%);stroke-opacity:1.0;stroke-width:1.0" id="t9590ba977d3444638791f99c8c48de37"><g class="toyplot-coordinates-Cartesian" id="td9dae3c0e4024ebb90fb1d0f9c57d91d"><clipPath id="t00148f357c25421eaf2e85e8465e1e83"><rect x="35.0" y="35.0" width="220.0" height="180.0" /></clipPath><g clip-path="url(#t00148f357c25421eaf2e85e8465e1e83)"><g class="toytree-mark-Toytree" id="t38cc4dd189d6448796db05444cf35ad4"><g class="toytree-Edges" style="stroke:rgb(14.5%,14.5%,14.5%);stroke-opacity:1.0;stroke-linecap:round;stroke-width:2.0;fill:none"><path d="M 150.1 66.3 L 150.1 56.6 L 199.8 56.6" id="8,0" style="" /><path d="M 150.1 66.3 L 150.1 76.1 L 199.8 76.1" id="8,1" style="" /><path d="M 150.1 105.4 L 150.1 95.7 L 199.8 95.7" id="9,2" style="" /><path d="M 150.1 105.4 L 150.1 115.2 L 199.8 115.2" id="9,3" style="" /><path d="M 150.1 144.6 L 150.1 134.8 L 199.8 134.8" id="11,4" style="" /><path d="M 150.1 144.6 L 150.1 154.3 L 199.8 154.3" id="11,5" style="" /><path d="M 150.1 183.7 L 150.1 173.9 L 199.8 173.9" id="12,6" style="" /><path d="M 150.1 183.7 L 150.1 193.4 L 199.8 193.4" id="12,7" style="" /><path d="M 100.4 85.9 L 100.4 66.3 L 150.1 66.3" id="10,8" style="" /><path d="M 100.4 85.9 L 100.4 105.4 L 150.1 105.4" id="10,9" style="" /><path d="M 50.8 125.0 L 50.8 85.9 L 100.4 85.9" id="14,10" style="" /><path d="M 100.4 164.1 L 100.4 144.6 L 150.1 144.6" id="13,11" style="" /><path d="M 100.4 164.1 L 100.4 183.7 L 150.1 183.7" id="13,12" style="" /><path d="M 50.8 125.0 L 50.8 164.1 L 100.4 164.1" id="14,13" style="" /></g><g class="toytree-AdmixEdges" style="fill:rgb(0.0%,0.0%,0.0%);fill-opacity:0.0;stroke:rgb(90.6%,54.1%,76.5%);stroke-opacity:0.6;font-size:14px;stroke-linecap:round;stroke-width:5"><path d="M 199.75 134.78 L 178.28 134.78 L 178.28 173.88 L 150.10 173.88" style="stroke:rgb(59.5%,83.7%,64.4%);stroke-opacity:0.136;stroke-width:2" /><text x="178.28" y="166.33" style="fill:rgb(14.9%,14.9%,14.9%);fill-opacity:1.0;stroke:rgb(0.0%,0.0%,0.0%);stroke-opacity:0.136;stroke-width:2;text-anchor:middle" /><path d="M 199.75 115.22 L 185.66 115.22 L 185.66 193.43 L 150.10 193.43" style="stroke:rgb(78.2%,91.2%,62.1%);stroke-opacity:0.174;stroke-width:2" /><text x="185.66" y="166.33" style="fill:rgb(14.9%,14.9%,14.9%);fill-opacity:1.0;stroke:rgb(0.0%,0.0%,0.0%);stroke-opacity:0.174;stroke-width:2;text-anchor:middle" /><path d="M 199.75 173.88 L 169.39 173.88 L 169.39 95.67 L 150.10 95.67" style="stroke:rgb(71.2%,88.4%,63.5%);stroke-opacity:0.159;stroke-width:2" /><text x="169.39" y="146.78" style="fill:rgb(14.9%,14.9%,14.9%);fill-opacity:1.0;stroke:rgb(0.0%,0.0%,0.0%);stroke-opacity:0.159;stroke-width:2;text-anchor:middle" /><path d="M 199.75 56.57 L 176.53 56.57 L 176.53 115.22 L 150.10 115.22" style="stroke:rgb(49.2%,79.7%,64.6%);stroke-opacity:0.117;stroke-width:2" /><text x="176.53" y="97.90" style="fill:rgb(14.9%,14.9%,14.9%);fill-opacity:1.0;stroke:rgb(0.0%,0.0%,0.0%);stroke-opacity:0.117;stroke-width:2;text-anchor:middle" /><path d="M 199.75 56.57 L 151.15 56.57 L 151.15 115.22 L 150.10 115.22" style="stroke:rgb(30.2%,39.7%,67.6%);stroke-opacity:0.0194;stroke-width:2" /><text x="151.15" y="97.90" style="fill:rgb(14.9%,14.9%,14.9%);fill-opacity:1.0;stroke:rgb(0.0%,0.0%,0.0%);stroke-opacity:0.0194;stroke-width:2;text-anchor:middle" /><path d="M 199.75 154.33 L 166.88 154.33 L 166.88 56.57 L 150.10 56.57" style="stroke:rgb(26.1%,44.9%,70.1%);stroke-opacity:0.0312;stroke-width:2" /><text x="166.88" y="117.45" style="fill:rgb(14.9%,14.9%,14.9%);fill-opacity:1.0;stroke:rgb(0.0%,0.0%,0.0%);stroke-opacity:0.0312;stroke-width:2;text-anchor:middle" /><path d="M 199.75 154.33 L 182.97 154.33 L 182.97 173.88 L 150.10 173.88" style="stroke:rgb(24.7%,59.1%,71.7%);stroke-opacity:0.0626;stroke-width:2" /><text x="182.97" y="176.10" style="fill:rgb(14.9%,14.9%,14.9%);fill-opacity:1.0;stroke:rgb(0.0%,0.0%,0.0%);stroke-opacity:0.0626;stroke-width:2;text-anchor:middle" /><path d="M 199.75 173.88 L 175.06 173.88 L 175.06 95.67 L 150.10 95.67" style="stroke:rgb(25.4%,59.7%,71.5%);stroke-opacity:0.0641;stroke-width:2" /><text x="175.06" y="146.78" style="fill:rgb(14.9%,14.9%,14.9%);fill-opacity:1.0;stroke:rgb(0.0%,0.0%,0.0%);stroke-opacity:0.0641;stroke-width:2;text-anchor:middle" /><path d="M 150.10 144.55 L 148.00 144.55 L 197.66 76.12 L 150.10 76.12" style="stroke:rgb(25.7%,45.4%,70.4%);stroke-opacity:0.0323;stroke-width:2" /><text x="172.83" y="122.34" style="fill:rgb(14.9%,14.9%,14.9%);fill-opacity:1.0;stroke:rgb(0.0%,0.0%,0.0%);stroke-opacity:0.0323;stroke-width:2;text-anchor:middle" /><path d="M 199.75 173.88 L 188.54 173.88 L 50.78 125.00 L 50.78 125.00" style="stroke:rgb(99.7%,89.3%,57.0%);stroke-opacity:0.294;stroke-width:2" /><text x="119.66" y="161.44" style="fill:rgb(14.9%,14.9%,14.9%);fill-opacity:1.0;stroke:rgb(0.0%,0.0%,0.0%);stroke-opacity:0.294;stroke-width:2;text-anchor:middle" /><path d="M 199.75 56.57 L 171.95 56.57 L 171.95 115.22 L 150.10 115.22" style="stroke:rgb(33.3%,35.6%,65.7%);stroke-opacity:0.0103;stroke-width:2" /><text x="171.95" y="97.90" style="fill:rgb(14.9%,14.9%,14.9%);fill-opacity:1.0;stroke:rgb(0.0%,0.0%,0.0%);stroke-opacity:0.0103;stroke-width:2;text-anchor:middle" /><path d="M 199.75 56.57 L 170.76 56.57 L 170.76 154.33 L 150.10 154.33" style="stroke:rgb(26.6%,44.3%,69.8%);stroke-opacity:0.0298;stroke-width:2" /><text x="170.76" y="117.45" style="fill:rgb(14.9%,14.9%,14.9%);fill-opacity:1.0;stroke:rgb(0.0%,0.0%,0.0%);stroke-opacity:0.0298;stroke-width:2;text-anchor:middle" /><path d="M 199.75 115.22 L 190.06 115.22 L 190.06 173.88 L 150.10 173.88" style="stroke:rgb(28.8%,41.4%,68.5%);stroke-opacity:0.0234;stroke-width:2" /><text x="190.06" y="156.55" style="fill:rgb(14.9%,14.9%,14.9%);fill-opacity:1.0;stroke:rgb(0.0%,0.0%,0.0%);stroke-opacity:0.0234;stroke-width:2;text-anchor:middle" /><path d="M 199.75 193.43 L 188.00 193.43 L 188.00 56.57 L 150.10 56.57" style="stroke:rgb(26.2%,44.8%,70.1%);stroke-opacity:0.031;stroke-width:2" /><text x="188.00" y="137.00" style="fill:rgb(14.9%,14.9%,14.9%);fill-opacity:1.0;stroke:rgb(0.0%,0.0%,0.0%);stroke-opacity:0.031;stroke-width:2;text-anchor:middle" /><path d="M 199.75 115.22 L 162.12 115.22 L 162.12 56.57 L 150.10 56.57" style="stroke:rgb(27.3%,43.4%,69.4%);stroke-opacity:0.0277;stroke-width:2" /><text x="162.12" y="97.90" style="fill:rgb(14.9%,14.9%,14.9%);fill-opacity:1.0;stroke:rgb(0.0%,0.0%,0.0%);stroke-opacity:0.0277;stroke-width:2;text-anchor:middle" /><path d="M 199.75 95.67 L 155.86 95.67 L 155.86 173.88 L 150.10 173.88" style="stroke:rgb(52.4%,80.9%,64.5%);stroke-opacity:0.123;stroke-width:2" /><text x="155.86" y="146.78" style="fill:rgb(14.9%,14.9%,14.9%);fill-opacity:1.0;stroke:rgb(0.0%,0.0%,0.0%);stroke-opacity:0.123;stroke-width:2;text-anchor:middle" /><path d="M 100.44 85.90 L 73.76 85.90 L 173.07 154.33 L 150.10 154.33" style="stroke:rgb(31.6%,37.8%,66.8%);stroke-opacity:0.0153;stroke-width:2" /><text x="123.41" y="132.11" style="fill:rgb(14.9%,14.9%,14.9%);fill-opacity:1.0;stroke:rgb(0.0%,0.0%,0.0%);stroke-opacity:0.0153;stroke-width:2;text-anchor:middle" /><path d="M 199.75 115.22 L 177.57 115.22 L 177.57 173.88 L 150.10 173.88" style="stroke:rgb(89.7%,95.9%,59.7%);stroke-opacity:0.199;stroke-width:2" /><text x="177.57" y="156.55" style="fill:rgb(14.9%,14.9%,14.9%);fill-opacity:1.0;stroke:rgb(0.0%,0.0%,0.0%);stroke-opacity:0.199;stroke-width:2;text-anchor:middle" /><path d="M 199.75 76.12 L 197.31 76.12 L 197.31 95.67 L 150.10 95.67" style="stroke:rgb(63.8%,85.4%,64.4%);stroke-opacity:0.144;stroke-width:2" /><text x="197.31" y="97.90" style="fill:rgb(14.9%,14.9%,14.9%);fill-opacity:1.0;stroke:rgb(0.0%,0.0%,0.0%);stroke-opacity:0.144;stroke-width:2;text-anchor:middle" /><path d="M 150.10 66.35 L 111.86 66.35 L 161.52 173.88 L 150.10 173.88" style="stroke:rgb(99.6%,85.5%,52.5%);stroke-opacity:0.306;stroke-width:2" /><text x="136.69" y="132.11" style="fill:rgb(14.9%,14.9%,14.9%);fill-opacity:1.0;stroke:rgb(0.0%,0.0%,0.0%);stroke-opacity:0.306;stroke-width:2;text-anchor:middle" /><path d="M 199.75 154.33 L 171.92 154.33 L 171.92 76.12 L 150.10 76.12" style="stroke:rgb(32.9%,36.2%,66.0%);stroke-opacity:0.0116;stroke-width:2" /><text x="171.92" y="127.22" style="fill:rgb(14.9%,14.9%,14.9%);fill-opacity:1.0;stroke:rgb(0.0%,0.0%,0.0%);stroke-opacity:0.0116;stroke-width:2;text-anchor:middle" /><path d="M 199.75 76.12 L 174.58 76.12 L 174.58 173.88 L 150.10 173.88" style="stroke:rgb(33.6%,35.2%,65.5%);stroke-opacity:0.00946;stroke-width:2" /><text x="174.58" y="137.00" style="fill:rgb(14.9%,14.9%,14.9%);fill-opacity:1.0;stroke:rgb(0.0%,0.0%,0.0%);stroke-opacity:0.00946;stroke-width:2;text-anchor:middle" /><path d="M 199.75 76.12 L 178.45 76.12 L 178.45 173.88 L 150.10 173.88" style="stroke:rgb(35.6%,71.2%,66.7%);stroke-opacity:0.0893;stroke-width:2" /><text x="178.45" y="137.00" style="fill:rgb(14.9%,14.9%,14.9%);fill-opacity:1.0;stroke:rgb(0.0%,0.0%,0.0%);stroke-opacity:0.0893;stroke-width:2;text-anchor:middle" /><path d="M 199.75 56.57 L 158.95 56.57 L 158.95 154.33 L 150.10 154.33" style="stroke:rgb(32.0%,37.3%,66.5%);stroke-opacity:0.0142;stroke-width:2" /><text x="158.95" y="117.45" style="fill:rgb(14.9%,14.9%,14.9%);fill-opacity:1.0;stroke:rgb(0.0%,0.0%,0.0%);stroke-opacity:0.0142;stroke-width:2;text-anchor:middle" /><path d="M 199.75 173.88 L 191.02 173.88 L 191.02 76.12 L 150.10 76.12" style="stroke:rgb(28.2%,42.2%,68.8%);stroke-opacity:0.025;stroke-width:2" /><text x="191.02" y="137.00" style="fill:rgb(14.9%,14.9%,14.9%);fill-opacity:1.0;stroke:rgb(0.0%,0.0%,0.0%);stroke-opacity:0.025;stroke-width:2;text-anchor:middle" /><path d="M 199.75 76.12 L 160.72 76.12 L 160.72 95.67 L 150.10 95.67" style="stroke:rgb(33.7%,35.1%,65.5%);stroke-opacity:0.00917;stroke-width:2" /><text x="160.72" y="97.90" style="fill:rgb(14.9%,14.9%,14.9%);fill-opacity:1.0;stroke:rgb(0.0%,0.0%,0.0%);stroke-opacity:0.00917;stroke-width:2;text-anchor:middle" /><path d="M 199.75 56.57 L 190.68 56.57 L 190.68 115.22 L 150.10 115.22" style="stroke:rgb(46.0%,78.4%,64.6%);stroke-opacity:0.111;stroke-width:2" /><text x="190.68" y="97.90" style="fill:rgb(14.9%,14.9%,14.9%);fill-opacity:1.0;stroke:rgb(0.0%,0.0%,0.0%);stroke-opacity:0.111;stroke-width:2;text-anchor:middle" /><path d="M 199.75 134.78 L 162.22 134.78 L 162.22 193.43 L 150.10 193.43" style="stroke:rgb(32.8%,36.3%,66.0%);stroke-opacity:0.0119;stroke-width:2" /><text x="162.22" y="176.10" style="fill:rgb(14.9%,14.9%,14.9%);fill-opacity:1.0;stroke:rgb(0.0%,0.0%,0.0%);stroke-opacity:0.0119;stroke-width:2;text-anchor:middle" /><path d="M 199.75 76.12 L 196.25 76.12 L 196.25 154.33 L 150.10 154.33" style="stroke:rgb(29.3%,40.8%,68.2%);stroke-opacity:0.022;stroke-width:2" /><text x="196.25" y="127.22" style="fill:rgb(14.9%,14.9%,14.9%);fill-opacity:1.0;stroke:rgb(0.0%,0.0%,0.0%);stroke-opacity:0.022;stroke-width:2;text-anchor:middle" /><path d="M 199.75 173.88 L 165.71 173.88 L 165.71 115.22 L 150.10 115.22" style="stroke:rgb(99.8%,93.4%,63.9%);stroke-opacity:0.277;stroke-width:2" /><text x="165.71" y="156.55" style="fill:rgb(14.9%,14.9%,14.9%);fill-opacity:1.0;stroke:rgb(0.0%,0.0%,0.0%);stroke-opacity:0.277;stroke-width:2;text-anchor:middle" /><path d="M 199.75 56.57 L 182.02 56.57 L 182.02 193.43 L 150.10 193.43" style="stroke:rgb(28.9%,41.3%,68.4%);stroke-opacity:0.023;stroke-width:2" /><text x="182.02" y="137.00" style="fill:rgb(14.9%,14.9%,14.9%);fill-opacity:1.0;stroke:rgb(0.0%,0.0%,0.0%);stroke-opacity:0.023;stroke-width:2;text-anchor:middle" /><path d="M 100.44 85.90 L 74.74 85.90 L 174.05 173.88 L 150.10 173.88" style="stroke:rgb(30.9%,38.7%,67.2%);stroke-opacity:0.0172;stroke-width:2" /><text x="124.39" y="141.89" style="fill:rgb(14.9%,14.9%,14.9%);fill-opacity:1.0;stroke:rgb(0.0%,0.0%,0.0%);stroke-opacity:0.0172;stroke-width:2;text-anchor:middle" /><path d="M 199.75 154.33 L 177.65 154.33 L 177.65 76.12 L 150.10 76.12" style="stroke:rgb(26.1%,44.9%,70.1%);stroke-opacity:0.0311;stroke-width:2" /><text x="177.65" y="127.22" style="fill:rgb(14.9%,14.9%,14.9%);fill-opacity:1.0;stroke:rgb(0.0%,0.0%,0.0%);stroke-opacity:0.0311;stroke-width:2;text-anchor:middle" /><path d="M 199.75 76.12 L 162.95 76.12 L 162.95 134.78 L 150.10 134.78" style="stroke:rgb(33.5%,35.3%,65.6%);stroke-opacity:0.00977;stroke-width:2" /><text x="162.95" y="117.45" style="fill:rgb(14.9%,14.9%,14.9%);fill-opacity:1.0;stroke:rgb(0.0%,0.0%,0.0%);stroke-opacity:0.00977;stroke-width:2;text-anchor:middle" /><path d="M 199.75 173.88 L 176.41 173.88 L 50.78 125.00 L 50.78 125.00" style="stroke:rgb(74.0%,13.8%,28.7%);stroke-opacity:0.472;stroke-width:2" /><text x="113.60" y="161.44" style="fill:rgb(14.9%,14.9%,14.9%);fill-opacity:1.0;stroke:rgb(0.0%,0.0%,0.0%);stroke-opacity:0.472;stroke-width:2;text-anchor:middle" /><path d="M 199.75 95.67 L 187.41 95.67 L 187.41 76.12 L 150.10 76.12" style="stroke:rgb(32.4%,36.7%,66.3%);stroke-opacity:0.0129;stroke-width:2" /><text x="187.41" y="97.90" style="fill:rgb(14.9%,14.9%,14.9%);fill-opacity:1.0;stroke:rgb(0.0%,0.0%,0.0%);stroke-opacity:0.0129;stroke-width:2;text-anchor:middle" /><path d="M 199.75 115.22 L 168.27 115.22 L 168.27 76.12 L 150.10 76.12" style="stroke:rgb(27.0%,43.8%,69.6%);stroke-opacity:0.0286;stroke-width:2" /><text x="168.27" y="107.67" style="fill:rgb(14.9%,14.9%,14.9%);fill-opacity:1.0;stroke:rgb(0.0%,0.0%,0.0%);stroke-opacity:0.0286;stroke-width:2;text-anchor:middle" /><path d="M 199.75 76.12 L 177.08 76.12 L 177.08 95.67 L 150.10 95.67" style="stroke:rgb(77.7%,91.0%,62.1%);stroke-opacity:0.173;stroke-width:2" /><text x="177.08" y="97.90" style="fill:rgb(14.9%,14.9%,14.9%);fill-opacity:1.0;stroke:rgb(0.0%,0.0%,0.0%);stroke-opacity:0.173;stroke-width:2;text-anchor:middle" /><path d="M 199.75 115.22 L 159.34 115.22 L 159.34 193.43 L 150.10 193.43" style="stroke:rgb(100.0%,99.0%,73.3%);stroke-opacity:0.254;stroke-width:2" /><text x="159.34" y="166.33" style="fill:rgb(14.9%,14.9%,14.9%);fill-opacity:1.0;stroke:rgb(0.0%,0.0%,0.0%);stroke-opacity:0.254;stroke-width:2;text-anchor:middle" /><path d="M 199.75 154.33 L 193.52 154.33 L 193.52 76.12 L 150.10 76.12" style="stroke:rgb(33.2%,35.7%,65.8%);stroke-opacity:0.0106;stroke-width:2" /><text x="193.52" y="127.22" style="fill:rgb(14.9%,14.9%,14.9%);fill-opacity:1.0;stroke:rgb(0.0%,0.0%,0.0%);stroke-opacity:0.0106;stroke-width:2;text-anchor:middle" /><path d="M 150.10 183.65 L 103.43 183.65 L 153.09 134.78 L 150.10 134.78" style="stroke:rgb(31.2%,38.3%,67.0%);stroke-opacity:0.0163;stroke-width:2" /><text x="128.26" y="171.22" style="fill:rgb(14.9%,14.9%,14.9%);fill-opacity:1.0;stroke:rgb(0.0%,0.0%,0.0%);stroke-opacity:0.0163;stroke-width:2;text-anchor:middle" /><path d="M 199.75 154.33 L 181.94 154.33 L 181.94 173.88 L 150.10 173.88" style="stroke:rgb(31.8%,37.6%,66.6%);stroke-opacity:0.0147;stroke-width:2" /><text x="181.94" y="176.10" style="fill:rgb(14.9%,14.9%,14.9%);fill-opacity:1.0;stroke:rgb(0.0%,0.0%,0.0%);stroke-opacity:0.0147;stroke-width:2;text-anchor:middle" /><path d="M 100.44 85.90 L 99.36 85.90 L 198.67 173.88 L 150.10 173.88" style="stroke:rgb(25.0%,46.4%,70.8%);stroke-opacity:0.0344;stroke-width:2" /><text x="149.01" y="141.89" style="fill:rgb(14.9%,14.9%,14.9%);fill-opacity:1.0;stroke:rgb(0.0%,0.0%,0.0%);stroke-opacity:0.0344;stroke-width:2;text-anchor:middle" /><path d="M 199.75 115.22 L 197.74 115.22 L 148.09 144.55 L 100.44 144.55" style="stroke:rgb(20.3%,54.1%,73.8%);stroke-opacity:0.0516;stroke-width:2" /><text x="172.91" y="141.89" style="fill:rgb(14.9%,14.9%,14.9%);fill-opacity:1.0;stroke:rgb(0.0%,0.0%,0.0%);stroke-opacity:0.0516;stroke-width:2;text-anchor:middle" /><path d="M 199.75 115.22 L 180.13 115.22 L 180.13 173.88 L 150.10 173.88" style="stroke:rgb(33.0%,36.0%,65.9%);stroke-opacity:0.0112;stroke-width:2" /><text x="180.13" y="156.55" style="fill:rgb(14.9%,14.9%,14.9%);fill-opacity:1.0;stroke:rgb(0.0%,0.0%,0.0%);stroke-opacity:0.0112;stroke-width:2;text-anchor:middle" /><path d="M 199.75 95.67 L 180.34 95.67 L 180.34 56.57 L 150.10 56.57" style="stroke:rgb(25.8%,45.3%,70.3%);stroke-opacity:0.0321;stroke-width:2" /><text x="180.34" y="88.12" style="fill:rgb(14.9%,14.9%,14.9%);fill-opacity:1.0;stroke:rgb(0.0%,0.0%,0.0%);stroke-opacity:0.0321;stroke-width:2;text-anchor:middle" /><path d="M 199.75 154.33 L 188.31 154.33 L 188.31 56.57 L 150.10 56.57" style="stroke:rgb(30.6%,39.1%,67.4%);stroke-opacity:0.0182;stroke-width:2" /><text x="188.31" y="117.45" style="fill:rgb(14.9%,14.9%,14.9%);fill-opacity:1.0;stroke:rgb(0.0%,0.0%,0.0%);stroke-opacity:0.0182;stroke-width:2;text-anchor:middle" /><path d="M 199.75 134.78 L 188.15 134.78 L 188.15 95.67 L 150.10 95.67" style="stroke:rgb(95.9%,98.4%,68.5%);stroke-opacity:0.229;stroke-width:2" /><text x="188.15" y="127.22" style="fill:rgb(14.9%,14.9%,14.9%);fill-opacity:1.0;stroke:rgb(0.0%,0.0%,0.0%);stroke-opacity:0.229;stroke-width:2;text-anchor:middle" /><path d="M 199.75 95.67 L 153.77 95.67 L 153.77 173.88 L 150.10 173.88" style="stroke:rgb(82.8%,93.1%,61.1%);stroke-opacity:0.184;stroke-width:2" /><text x="153.77" y="146.78" style="fill:rgb(14.9%,14.9%,14.9%);fill-opacity:1.0;stroke:rgb(0.0%,0.0%,0.0%);stroke-opacity:0.184;stroke-width:2;text-anchor:middle" /><path d="M 199.75 115.22 L 179.35 115.22 L 179.35 56.57 L 150.10 56.57" style="stroke:rgb(27.6%,43.0%,69.2%);stroke-opacity:0.0269;stroke-width:2" /><text x="179.35" y="97.90" style="fill:rgb(14.9%,14.9%,14.9%);fill-opacity:1.0;stroke:rgb(0.0%,0.0%,0.0%);stroke-opacity:0.0269;stroke-width:2;text-anchor:middle" /><path d="M 199.75 95.67 L 184.52 95.67 L 184.52 56.57 L 150.10 56.57" style="stroke:rgb(24.6%,46.8%,71.0%);stroke-opacity:0.0354;stroke-width:2" /><text x="184.52" y="88.12" style="fill:rgb(14.9%,14.9%,14.9%);fill-opacity:1.0;stroke:rgb(0.0%,0.0%,0.0%);stroke-opacity:0.0354;stroke-width:2;text-anchor:middle" /><path d="M 199.75 154.33 L 178.95 154.33 L 178.95 56.57 L 150.10 56.57" style="stroke:rgb(23.0%,49.0%,72.0%);stroke-opacity:0.0402;stroke-width:2" /><text x="178.95" y="117.45" style="fill:rgb(14.9%,14.9%,14.9%);fill-opacity:1.0;stroke:rgb(0.0%,0.0%,0.0%);stroke-opacity:0.0402;stroke-width:2;text-anchor:middle" /><path d="M 199.75 193.43 L 196.49 193.43 L 196.49 154.33 L 150.10 154.33" style="stroke:rgb(32.2%,37.0%,66.4%);stroke-opacity:0.0135;stroke-width:2" /><text x="196.49" y="185.88" style="fill:rgb(14.9%,14.9%,14.9%);fill-opacity:1.0;stroke:rgb(0.0%,0.0%,0.0%);stroke-opacity:0.0135;stroke-width:2;text-anchor:middle" /><path d="M 199.75 76.12 L 187.95 76.12 L 187.95 134.78 L 150.10 134.78" style="stroke:rgb(32.1%,37.1%,66.4%);stroke-opacity:0.0137;stroke-width:2" /><text x="187.95" y="117.45" style="fill:rgb(14.9%,14.9%,14.9%);fill-opacity:1.0;stroke:rgb(0.0%,0.0%,0.0%);stroke-opacity:0.0137;stroke-width:2;text-anchor:middle" /><path d="M 199.75 134.78 L 187.33 134.78 L 187.33 193.43 L 150.10 193.43" style="stroke:rgb(55.7%,82.2%,64.5%);stroke-opacity:0.129;stroke-width:2" /><text x="187.33" y="176.10" style="fill:rgb(14.9%,14.9%,14.9%);fill-opacity:1.0;stroke:rgb(0.0%,0.0%,0.0%);stroke-opacity:0.129;stroke-width:2;text-anchor:middle" /><path d="M 199.75 173.88 L 162.53 173.88 L 162.53 56.57 L 150.10 56.57" style="stroke:rgb(24.4%,47.1%,71.2%);stroke-opacity:0.036;stroke-width:2" /><text x="162.53" y="127.22" style="fill:rgb(14.9%,14.9%,14.9%);fill-opacity:1.0;stroke:rgb(0.0%,0.0%,0.0%);stroke-opacity:0.036;stroke-width:2;text-anchor:middle" /><path d="M 199.75 193.43 L 185.22 193.43 L 185.22 154.33 L 150.10 154.33" style="stroke:rgb(31.3%,38.2%,66.9%);stroke-opacity:0.0161;stroke-width:2" /><text x="185.22" y="185.88" style="fill:rgb(14.9%,14.9%,14.9%);fill-opacity:1.0;stroke:rgb(0.0%,0.0%,0.0%);stroke-opacity:0.0161;stroke-width:2;text-anchor:middle" /><path d="M 199.75 95.67 L 183.64 95.67 L 183.64 173.88 L 150.10 173.88" style="stroke:rgb(51.4%,80.5%,64.5%);stroke-opacity:0.121;stroke-width:2" /><text x="183.64" y="146.78" style="fill:rgb(14.9%,14.9%,14.9%);fill-opacity:1.0;stroke:rgb(0.0%,0.0%,0.0%);stroke-opacity:0.121;stroke-width:2;text-anchor:middle" /><path d="M 150.10 144.55 L 142.79 144.55 L 192.45 76.12 L 150.10 76.12" style="stroke:rgb(33.8%,35.0%,65.4%);stroke-opacity:0.00897;stroke-width:2" /><text x="167.62" y="122.34" style="fill:rgb(14.9%,14.9%,14.9%);fill-opacity:1.0;stroke:rgb(0.0%,0.0%,0.0%);stroke-opacity:0.00897;stroke-width:2;text-anchor:middle" /><path d="M 199.75 173.88 L 189.28 173.88 L 189.28 95.67 L 150.10 95.67" style="stroke:rgb(81.9%,92.7%,61.3%);stroke-opacity:0.182;stroke-width:2" /><text x="189.28" y="146.78" style="fill:rgb(14.9%,14.9%,14.9%);fill-opacity:1.0;stroke:rgb(0.0%,0.0%,0.0%);stroke-opacity:0.182;stroke-width:2;text-anchor:middle" /><path d="M 150.10 183.65 L 124.14 183.65 L 173.79 154.33 L 150.10 154.33" style="stroke:rgb(33.2%,35.8%,65.8%);stroke-opacity:0.0107;stroke-width:2" /><text x="148.97" y="180.99" style="fill:rgb(14.9%,14.9%,14.9%);fill-opacity:1.0;stroke:rgb(0.0%,0.0%,0.0%);stroke-opacity:0.0107;stroke-width:2;text-anchor:middle" /><path d="M 150.10 183.65 L 127.94 183.65 L 177.60 115.22 L 150.10 115.22" style="stroke:rgb(32.7%,36.3%,66.1%);stroke-opacity:0.012;stroke-width:2" /><text x="152.77" y="161.44" style="fill:rgb(14.9%,14.9%,14.9%);fill-opacity:1.0;stroke:rgb(0.0%,0.0%,0.0%);stroke-opacity:0.012;stroke-width:2;text-anchor:middle" /><path d="M 199.75 56.57 L 184.80 56.57 L 184.80 115.22 L 150.10 115.22" style="stroke:rgb(30.9%,38.8%,67.2%);stroke-opacity:0.0174;stroke-width:2" /><text x="184.80" y="97.90" style="fill:rgb(14.9%,14.9%,14.9%);fill-opacity:1.0;stroke:rgb(0.0%,0.0%,0.0%);stroke-opacity:0.0174;stroke-width:2;text-anchor:middle" /><path d="M 199.75 115.22 L 152.24 115.22 L 152.24 76.12 L 150.10 76.12" style="stroke:rgb(29.8%,40.1%,67.8%);stroke-opacity:0.0204;stroke-width:2" /><text x="152.24" y="107.67" style="fill:rgb(14.9%,14.9%,14.9%);fill-opacity:1.0;stroke:rgb(0.0%,0.0%,0.0%);stroke-opacity:0.0204;stroke-width:2;text-anchor:middle" /><path d="M 150.10 105.45 L 114.62 105.45 L 164.27 193.43 L 150.10 193.43" style="stroke:rgb(79.1%,91.6%,61.9%);stroke-opacity:0.176;stroke-width:2" /><text x="139.45" y="161.44" style="fill:rgb(14.9%,14.9%,14.9%);fill-opacity:1.0;stroke:rgb(0.0%,0.0%,0.0%);stroke-opacity:0.176;stroke-width:2;text-anchor:middle" /><path d="M 199.75 115.22 L 173.48 115.22 L 173.48 193.43 L 150.10 193.43" style="stroke:rgb(34.3%,34.3%,65.1%);stroke-opacity:0.00733;stroke-width:2" /><text x="173.48" y="166.33" style="fill:rgb(14.9%,14.9%,14.9%);fill-opacity:1.0;stroke:rgb(0.0%,0.0%,0.0%);stroke-opacity:0.00733;stroke-width:2;text-anchor:middle" /><path d="M 199.75 173.88 L 153.78 173.88 L 153.78 76.12 L 150.10 76.12" style="stroke:rgb(29.8%,40.1%,67.8%);stroke-opacity:0.0204;stroke-width:2" /><text x="153.78" y="137.00" style="fill:rgb(14.9%,14.9%,14.9%);fill-opacity:1.0;stroke:rgb(0.0%,0.0%,0.0%);stroke-opacity:0.0204;stroke-width:2;text-anchor:middle" /><path d="M 199.75 56.57 L 185.84 56.57 L 185.84 115.22 L 150.10 115.22" style="stroke:rgb(31.4%,38.0%,66.9%);stroke-opacity:0.0158;stroke-width:2" /><text x="185.84" y="97.90" style="fill:rgb(14.9%,14.9%,14.9%);fill-opacity:1.0;stroke:rgb(0.0%,0.0%,0.0%);stroke-opacity:0.0158;stroke-width:2;text-anchor:middle" /><path d="M 199.75 95.67 L 152.32 95.67 L 102.66 144.55 L 100.44 144.55" style="stroke:rgb(92.3%,37.6%,27.6%);stroke-opacity:0.414;stroke-width:2" /><text x="127.49" y="132.11" style="fill:rgb(14.9%,14.9%,14.9%);fill-opacity:1.0;stroke:rgb(0.0%,0.0%,0.0%);stroke-opacity:0.414;stroke-width:2;text-anchor:middle" /><path d="M 199.75 76.12 L 162.30 76.12 L 162.30 134.78 L 150.10 134.78" style="stroke:rgb(23.5%,48.3%,71.7%);stroke-opacity:0.0388;stroke-width:2" /><text x="162.30" y="117.45" style="fill:rgb(14.9%,14.9%,14.9%);fill-opacity:1.0;stroke:rgb(0.0%,0.0%,0.0%);stroke-opacity:0.0388;stroke-width:2;text-anchor:middle" /><path d="M 199.75 193.43 L 156.62 193.43 L 156.62 134.78 L 150.10 134.78" style="stroke:rgb(29.2%,40.9%,68.2%);stroke-opacity:0.0222;stroke-width:2" /><text x="156.62" y="176.10" style="fill:rgb(14.9%,14.9%,14.9%);fill-opacity:1.0;stroke:rgb(0.0%,0.0%,0.0%);stroke-opacity:0.0222;stroke-width:2;text-anchor:middle" /><path d="M 199.75 115.22 L 174.86 115.22 L 174.86 56.57 L 150.10 56.57" style="stroke:rgb(28.5%,41.8%,68.7%);stroke-opacity:0.0243;stroke-width:2" /><text x="174.86" y="97.90" style="fill:rgb(14.9%,14.9%,14.9%);fill-opacity:1.0;stroke:rgb(0.0%,0.0%,0.0%);stroke-opacity:0.0243;stroke-width:2;text-anchor:middle" /><path d="M 199.75 193.43 L 162.75 193.43 L 162.75 134.78 L 150.10 134.78" style="stroke:rgb(30.1%,39.7%,67.7%);stroke-opacity:0.0196;stroke-width:2" /><text x="162.75" y="176.10" style="fill:rgb(14.9%,14.9%,14.9%);fill-opacity:1.0;stroke:rgb(0.0%,0.0%,0.0%);stroke-opacity:0.0196;stroke-width:2;text-anchor:middle" /><path d="M 150.10 66.35 L 146.13 66.35 L 195.78 173.88 L 150.10 173.88" style="stroke:rgb(25.4%,59.7%,71.5%);stroke-opacity:0.0641;stroke-width:2" /><text x="170.95" y="132.11" style="fill:rgb(14.9%,14.9%,14.9%);fill-opacity:1.0;stroke:rgb(0.0%,0.0%,0.0%);stroke-opacity:0.0641;stroke-width:2;text-anchor:middle" /></g><g class="toytree-Nodes" style="fill:rgb(40.0%,76.1%,64.7%);fill-opacity:1.0;stroke:rgb(14.9%,14.9%,14.9%);stroke-opacity:1.0;stroke-width:1.5" /><g class="toytree-TipLabels" style="fill:rgb(14.5%,14.5%,14.5%);fill-opacity:1.0;font-family:Helvetica;font-size:12px;font-weight:300;vertical-align:baseline;white-space:pre;stroke:none"><g class="toytree-TipLabel" transform="translate(199.751,56.5693)"><text x="15.0" y="3.066" style="fill:rgb(14.5%,14.5%,14.5%);fill-opacity:1.0">r0</text></g><g class="toytree-TipLabel" transform="translate(199.751,76.121)"><text x="15.0" y="3.066" style="fill:rgb(14.5%,14.5%,14.5%);fill-opacity:1.0">r1</text></g><g class="toytree-TipLabel" transform="translate(199.751,95.6726)"><text x="15.0" y="3.066" style="fill:rgb(14.5%,14.5%,14.5%);fill-opacity:1.0">r2</text></g><g class="toytree-TipLabel" transform="translate(199.751,115.224)"><text x="15.0" y="3.066" style="fill:rgb(14.5%,14.5%,14.5%);fill-opacity:1.0">r3</text></g><g class="toytree-TipLabel" transform="translate(199.751,134.776)"><text x="15.0" y="3.066" style="fill:rgb(14.5%,14.5%,14.5%);fill-opacity:1.0">r4</text></g><g class="toytree-TipLabel" transform="translate(199.751,154.327)"><text x="15.0" y="3.066" style="fill:rgb(14.5%,14.5%,14.5%);fill-opacity:1.0">r5</text></g><g class="toytree-TipLabel" transform="translate(199.751,173.879)"><text x="15.0" y="3.066" style="fill:rgb(14.5%,14.5%,14.5%);fill-opacity:1.0">r6</text></g><g class="toytree-TipLabel" transform="translate(199.751,193.431)"><text x="15.0" y="3.066" style="fill:rgb(14.5%,14.5%,14.5%);fill-opacity:1.0">r7</text></g></g></g></g></g><g class="toyplot-coordinates-Numberline" id="tbc114d791c8042318a0cc3ee3c08be8f"><clipPath id="t3cd471b951274e89bf6e953f89ef3235"><rect x="0" y="-20.0" width="140.0" height="40.0" /></clipPath><g clip-path="url(#t3cd471b951274e89bf6e953f89ef3235)" transform="translate(250.0,195.0)rotate(-90.0)"><g class="toyplot-color-Map" id="t2f8c95da97d4474390dee42d43c31ea3"><defs><linearGradient id="t8674bfbd70364a8da916bb13a58ddb55" x1="0.0" x2="140.0" y1="0" y2="0" gradientUnits="userSpaceOnUse"><stop stop-color="rgb(36.9%,31%,63.5%)" stop-opacity="1.0" offset="0.0" /><stop stop-color="rgb(34.1%,34.5%,65.2%)" stop-opacity="1.0" offset="0.015873015873015872" /><stop stop-color="rgb(31.4%,38.1%,66.9%)" stop-opacity="1.0" offset="0.031746031746031744" /><stop stop-color="rgb(28.6%,41.6%,68.6%)" stop-opacity="1.0" offset="0.047619047619047616" /><stop stop-color="rgb(25.9%,45.2%,70.3%)" stop-opacity="1.0" offset="0.06349206349206349" /><stop stop-color="rgb(23.2%,48.7%,71.9%)" stop-opacity="1.0" offset="0.07936507936507936" /><stop stop-color="rgb(20.4%,52.3%,73.6%)" stop-opacity="1.0" offset="0.09523809523809523" /><stop stop-color="rgb(21.9%,55.9%,73.1%)" stop-opacity="1.0" offset="0.1111111111111111" /><stop stop-color="rgb(25.1%,59.5%,71.6%)" stop-opacity="1.0" offset="0.12698412698412698" /><stop stop-color="rgb(28.3%,63.1%,70.1%)" stop-opacity="1.0" offset="0.14285714285714285" /><stop stop-color="rgb(31.6%,66.7%,68.6%)" stop-opacity="1.0" offset="0.15873015873015872" /><stop stop-color="rgb(34.8%,70.3%,67.1%)" stop-opacity="1.0" offset="0.1746031746031746" /><stop stop-color="rgb(38.1%,73.9%,65.6%)" stop-opacity="1.0" offset="0.19047619047619047" /><stop stop-color="rgb(41.7%,76.8%,64.7%)" stop-opacity="1.0" offset="0.20634920634920634" /><stop stop-color="rgb(46%,78.4%,64.6%)" stop-opacity="1.0" offset="0.2222222222222222" /><stop stop-color="rgb(50.3%,80.1%,64.6%)" stop-opacity="1.0" offset="0.23809523809523805" /><stop stop-color="rgb(54.6%,81.8%,64.5%)" stop-opacity="1.0" offset="0.25396825396825395" /><stop stop-color="rgb(58.9%,83.5%,64.4%)" stop-opacity="1.0" offset="0.2698412698412698" /><stop stop-color="rgb(63.2%,85.2%,64.4%)" stop-opacity="1.0" offset="0.2857142857142857" /><stop stop-color="rgb(67.4%,86.8%,64.2%)" stop-opacity="1.0" offset="0.30158730158730157" /><stop stop-color="rgb(71.1%,88.3%,63.5%)" stop-opacity="1.0" offset="0.31746031746031744" /><stop stop-color="rgb(74.8%,89.8%,62.7%)" stop-opacity="1.0" offset="0.3333333333333333" /><stop stop-color="rgb(78.4%,91.3%,62%)" stop-opacity="1.0" offset="0.3492063492063492" /><stop stop-color="rgb(82.1%,92.8%,61.3%)" stop-opacity="1.0" offset="0.36507936507936506" /><stop stop-color="rgb(85.8%,94.3%,60.5%)" stop-opacity="1.0" offset="0.38095238095238093" /><stop stop-color="rgb(89.5%,95.8%,59.8%)" stop-opacity="1.0" offset="0.3968253968253968" /><stop stop-color="rgb(91.4%,96.6%,61.5%)" stop-opacity="1.0" offset="0.4126984126984127" /><stop stop-color="rgb(93%,97.2%,64%)" stop-opacity="1.0" offset="0.42857142857142855" /><stop stop-color="rgb(94.6%,97.8%,66.4%)" stop-opacity="1.0" offset="0.4444444444444444" /><stop stop-color="rgb(96.1%,98.4%,68.8%)" stop-opacity="1.0" offset="0.4603174603174603" /><stop stop-color="rgb(97.7%,99.1%,71.3%)" stop-opacity="1.0" offset="0.4761904761904761" /><stop stop-color="rgb(99.2%,99.7%,73.7%)" stop-opacity="1.0" offset="0.49206349206349204" /><stop stop-color="rgb(100%,99%,73.3%)" stop-opacity="1.0" offset="0.5079365079365079" /><stop stop-color="rgb(99.9%,97.1%,70%)" stop-opacity="1.0" offset="0.5238095238095237" /><stop stop-color="rgb(99.8%,95.2%,66.8%)" stop-opacity="1.0" offset="0.5396825396825397" /><stop stop-color="rgb(99.8%,93.2%,63.6%)" stop-opacity="1.0" offset="0.5555555555555556" /><stop stop-color="rgb(99.7%,91.3%,60.3%)" stop-opacity="1.0" offset="0.5714285714285714" /><stop stop-color="rgb(99.7%,89.4%,57.1%)" stop-opacity="1.0" offset="0.5873015873015872" /><stop stop-color="rgb(99.6%,87.2%,54%)" stop-opacity="1.0" offset="0.6031746031746031" /><stop stop-color="rgb(99.5%,84.1%,51.4%)" stop-opacity="1.0" offset="0.6190476190476191" /><stop stop-color="rgb(99.5%,81%,48.8%)" stop-opacity="1.0" offset="0.6349206349206349" /><stop stop-color="rgb(99.4%,77.9%,46.1%)" stop-opacity="1.0" offset="0.6507936507936507" /><stop stop-color="rgb(99.3%,74.8%,43.5%)" stop-opacity="1.0" offset="0.6666666666666666" /><stop stop-color="rgb(99.3%,71.7%,40.9%)" stop-opacity="1.0" offset="0.6825396825396826" /><stop stop-color="rgb(99.2%,68.5%,38.3%)" stop-opacity="1.0" offset="0.6984126984126984" /><stop stop-color="rgb(98.7%,64.6%,36.4%)" stop-opacity="1.0" offset="0.7142857142857142" /><stop stop-color="rgb(98.2%,60.5%,34.5%)" stop-opacity="1.0" offset="0.7301587301587301" /><stop stop-color="rgb(97.6%,56.5%,32.6%)" stop-opacity="1.0" offset="0.746031746031746" /><stop stop-color="rgb(97%,52.5%,30.8%)" stop-opacity="1.0" offset="0.7619047619047619" /><stop stop-color="rgb(96.5%,48.4%,28.9%)" stop-opacity="1.0" offset="0.7777777777777777" /><stop stop-color="rgb(95.9%,44.4%,27%)" stop-opacity="1.0" offset="0.7936507936507936" /><stop stop-color="rgb(94.5%,41%,26.7%)" stop-opacity="1.0" offset="0.8095238095238095" /><stop stop-color="rgb(92.6%,38.1%,27.5%)" stop-opacity="1.0" offset="0.8253968253968254" /><stop stop-color="rgb(90.7%,35.1%,28.2%)" stop-opacity="1.0" offset="0.8412698412698412" /><stop stop-color="rgb(88.7%,32.2%,29%)" stop-opacity="1.0" offset="0.8571428571428571" /><stop stop-color="rgb(86.8%,29.3%,29.7%)" stop-opacity="1.0" offset="0.873015873015873" /><stop stop-color="rgb(84.9%,26.4%,30.5%)" stop-opacity="1.0" offset="0.8888888888888888" /><stop stop-color="rgb(82.5%,23.2%,30.7%)" stop-opacity="1.0" offset="0.9047619047619047" /><stop stop-color="rgb(79.1%,19.4%,29.9%)" stop-opacity="1.0" offset="0.9206349206349206" /><stop stop-color="rgb(75.7%,15.6%,29.1%)" stop-opacity="1.0" offset="0.9365079365079365" /><stop stop-color="rgb(72.2%,11.8%,28.3%)" stop-opacity="1.0" offset="0.9523809523809522" /><stop stop-color="rgb(68.8%,7.99%,27.5%)" stop-opacity="1.0" offset="0.9682539682539681" /><stop stop-color="rgb(65.4%,4.19%,26.7%)" stop-opacity="1.0" offset="0.9841269841269841" /><stop stop-color="rgb(62%,0.392%,25.9%)" stop-opacity="1.0" offset="1.0" /></linearGradient></defs><rect x="0.0" y="-7.5" width="140.0" height="15" style="fill:url(#t8674bfbd70364a8da916bb13a58ddb55);stroke:rgb(0%,0%,0%);stroke-opacity:1.0;stroke-width:2" /></g></g><g class="toyplot-coordinates-Axis" id="t787c763e65a7429287e4c52415e7b3fb" transform="translate(250.0,195.0)rotate(-90.0)translate(0,20.0)"><line x1="0" y1="0" x2="140.0" y2="0" style="stroke-width:2" /><g><line x1="0.0" y1="0" x2="0.0" y2="-3" style="stroke-width:2" /><line x1="70.0" y1="0" x2="70.0" y2="-3" style="stroke-width:2" /><line x1="140.0" y1="0" x2="140.0" y2="-3" style="stroke-width:2" /></g><g><g transform="translate(0.0,6)"><text x="-7.6450000000000005" y="9.410499999999999" style="fill:rgb(16.1%,15.3%,14.1%);fill-opacity:1.0;font-family:helvetica;font-size:11.0px;font-weight:normal;stroke:none;vertical-align:baseline;white-space:pre">0.0</text></g><g transform="translate(70.0,6)"><text x="-10.703000000000001" y="9.410499999999999" style="fill:rgb(16.1%,15.3%,14.1%);fill-opacity:1.0;font-family:helvetica;font-size:11.0px;font-weight:normal;stroke:none;vertical-align:baseline;white-space:pre">0.25</text></g><g transform="translate(140.0,6)"><text x="-7.6450000000000005" y="9.410499999999999" style="fill:rgb(16.1%,15.3%,14.1%);fill-opacity:1.0;font-family:helvetica;font-size:11.0px;font-weight:normal;stroke:none;vertical-align:baseline;white-space:pre">0.5</text></g></g><g class="toyplot-coordinates-Axis-coordinates" style="visibility:hidden" transform=""><line x1="0" x2="0" y1="-3.0" y2="4.5" style="stroke:rgb(43.9%,50.2%,56.5%);stroke-opacity:1.0;stroke-width:1.0" /><text x="0" y="-6" style="alignment-baseline:alphabetic;fill:rgb(43.9%,50.2%,56.5%);fill-opacity:1.0;font-size:10px;font-weight:normal;stroke:none;text-anchor:middle" /></g></g></g><g class="toyplot-mark-Text" id="t1038faf090f34735a9a15ce1753ef3c3"><g class="toyplot-Series"><g class="toyplot-Datum" transform="translate(90.0,45.0)"><text x="-28.5835" y="-3.7895000000000003" style="fill:rgb(16.1%,15.3%,14.1%);fill-opacity:1.0;font-family:helvetica;font-size:11.0px;font-weight:bold;opacity:1;stroke:none;vertical-align:baseline;white-space:pre">Major=0.75</text><text x="-42.339000000000006" y="9.410499999999999" style="fill:rgb(16.1%,15.3%,14.1%);fill-opacity:1.0;font-family:helvetica;font-size:11.0px;font-weight:bold;opacity:1;stroke:none;vertical-align:baseline;white-space:pre">Alternative=0.25</text></g></g></g></svg>