<svg class="toyplot-canvas-Canvas" xmlns:toyplot="http://www.sandia.gov/toyplot" xmlns:xlink="http://www.w3.org/1999/xlink" xmlns="http://www.w3.org/2000/svg" width="290.0px" height="250.0px" viewBox="0 0 290.0 250.0" preserveAspectRatio="xMidYMid meet" style="background-color:transparent;border-color:#292724;border-style:none;border-width:1.0;fill:rgb(16.1%,15.3%,14.1%);fill-opacity:1.0;font-family:Helvetica;font-size:12px;opacity:1.0;stroke:rgb(16.1%,15.3%,14.1%);stroke-opacity:1.0;stroke-width:1.0" id="t7187e60a4ab84b79a459f0cabb51b291"><g class="toyplot-coordinates-Cartesian" id="tc454e2aaf84b4f9d8965b507bae9f947"><clipPath id="ta2ebc5ecf0ba4fae93de00cd6584e67c"><rect x="35.0" y="35.0" width="220.0" height="180.0" /></clipPath><g clip-path="url(#ta2ebc5ecf0ba4fae93de00cd6584e67c)"><g class="toytree-mark-Toytree" id="t4ac947f5092743bc8032b072ec4d1af2"><g class="toytree-Edges" style="stroke:rgb(14.5%,14.5%,14.5%);stroke-opacity:1.0;stroke-linecap:round;stroke-width:2.0;fill:none"><path d="M 150.1 66.3 L 150.1 56.6 L 199.8 56.6" id="8,0" style="" /><path d="M 150.1 66.3 L 150.1 76.1 L 199.8 76.1" id="8,1" style="" /><path d="M 150.1 105.4 L 150.1 95.7 L 199.8 95.7" id="9,2" style="" /><path d="M 150.1 105.4 L 150.1 115.2 L 199.8 115.2" id="9,3" style="" /><path d="M 150.1 144.6 L 150.1 134.8 L 199.8 134.8" id="11,4" style="" /><path d="M 150.1 144.6 L 150.1 154.3 L 199.8 154.3" id="11,5" style="" /><path d="M 150.1 183.7 L 150.1 173.9 L 199.8 173.9" id="12,6" style="" /><path d="M 150.1 183.7 L 150.1 193.4 L 199.8 193.4" id="12,7" style="" /><path d="M 100.4 85.9 L 100.4 66.3 L 150.1 66.3" id="10,8" style="" /><path d="M 100.4 85.9 L 100.4 105.4 L 150.1 105.4" id="10,9" style="" /><path d="M 50.8 125.0 L 50.8 85.9 L 100.4 85.9" id="14,10" style="" /><path d="M 100.4 164.1 L 100.4 144.6 L 150.1 144.6" id="13,11" style="" /><path d="M 100.4 164.1 L 100.4 183.7 L 150.1 183.7" id="13,12" style="" /><path d="M 50.8 125.0 L 50.8 164.1 L 100.4 164.1" id="14,13" style="" /></g><g class="toytree-AdmixEdges" style="fill:rgb(0.0%,0.0%,0.0%);fill-opacity:0.0;stroke:rgb(90.6%,54.1%,76.5%);stroke-opacity:0.6;font-size:14px;stroke-linecap:round;stroke-width:5"><path d="M 150.10 66.35 L 110.44 66.35 L 110.44 144.55 L 100.44 144.55" style="stroke:rgb(95.0%,41.6%,26.6%);stroke-opacity:0.403;stroke-width:2" /><text x="110.44" y="117.45" style="fill:rgb(14.9%,14.9%,14.9%);fill-opacity:1.0;stroke:rgb(0.0%,0.0%,0.0%);stroke-opacity:0.403;stroke-width:2;text-anchor:middle" /><path d="M 150.10 105.45 L 133.28 105.45 L 182.93 173.88 L 150.10 173.88" style="stroke:rgb(75.9%,90.2%,62.5%);stroke-opacity:0.169;stroke-width:2" /><text x="158.11" y="151.66" style="fill:rgb(14.9%,14.9%,14.9%);fill-opacity:1.0;stroke:rgb(0.0%,0.0%,0.0%);stroke-opacity:0.169;stroke-width:2;text-anchor:middle" /><path d="M 150.10 105.45 L 114.41 105.45 L 164.07 173.88 L 150.10 173.88" style="stroke:rgb(99.9%,97.6%,70.8%);stroke-opacity:0.26;stroke-width:2" /><text x="139.24" y="151.66" style="fill:rgb(14.9%,14.9%,14.9%);fill-opacity:1.0;stroke:rgb(0.0%,0.0%,0.0%);stroke-opacity:0.26;stroke-width:2;text-anchor:middle" /><path d="M 150.10 66.35 L 109.89 66.35 L 109.89 144.55 L 100.44 144.55" style="stroke:rgb(99.4%,78.4%,46.6%);stroke-opacity:0.324;stroke-width:2" /><text x="109.89" y="117.45" style="fill:rgb(14.9%,14.9%,14.9%);fill-opacity:1.0;stroke:rgb(0.0%,0.0%,0.0%);stroke-opacity:0.324;stroke-width:2;text-anchor:middle" /><path d="M 199.75 115.22 L 160.84 115.22 L 160.84 193.43 L 150.10 193.43" style="stroke:rgb(40.5%,76.3%,64.7%);stroke-opacity:0.101;stroke-width:2" /><text x="160.84" y="166.33" style="fill:rgb(14.9%,14.9%,14.9%);fill-opacity:1.0;stroke:rgb(0.0%,0.0%,0.0%);stroke-opacity:0.101;stroke-width:2;text-anchor:middle" /><path d="M 150.10 183.65 L 126.98 183.65 L 176.63 115.22 L 150.10 115.22" style="stroke:rgb(49.7%,79.9%,64.6%);stroke-opacity:0.118;stroke-width:2" /><text x="151.81" y="161.44" style="fill:rgb(14.9%,14.9%,14.9%);fill-opacity:1.0;stroke:rgb(0.0%,0.0%,0.0%);stroke-opacity:0.118;stroke-width:2;text-anchor:middle" /><path d="M 199.75 115.22 L 167.19 115.22 L 167.19 56.57 L 150.10 56.57" style="stroke:rgb(32.4%,36.8%,66.3%);stroke-opacity:0.013;stroke-width:2" /><text x="167.19" y="97.90" style="fill:rgb(14.9%,14.9%,14.9%);fill-opacity:1.0;stroke:rgb(0.0%,0.0%,0.0%);stroke-opacity:0.013;stroke-width:2;text-anchor:middle" /><path d="M 150.10 66.35 L 139.29 66.35 L 139.29 144.55 L 100.44 144.55" style="stroke:rgb(84.3%,25.4%,30.7%);stroke-opacity:0.447;stroke-width:2" /><text x="139.29" y="117.45" style="fill:rgb(14.9%,14.9%,14.9%);fill-opacity:1.0;stroke:rgb(0.0%,0.0%,0.0%);stroke-opacity:0.447;stroke-width:2;text-anchor:middle" /><path d="M 150.10 105.45 L 114.36 105.45 L 164.02 193.43 L 150.10 193.43" style="stroke:rgb(99.4%,99.8%,74.0%);stroke-opacity:0.247;stroke-width:2" /><text x="139.19" y="161.44" style="fill:rgb(14.9%,14.9%,14.9%);fill-opacity:1.0;stroke:rgb(0.0%,0.0%,0.0%);stroke-opacity:0.247;stroke-width:2;text-anchor:middle" /><path d="M 150.10 105.45 L 130.99 105.45 L 180.65 173.88 L 150.10 173.88" style="stroke:rgb(99.2%,69.8%,39.4%);stroke-opacity:0.346;stroke-width:2" /><text x="155.82" y="151.66" style="fill:rgb(14.9%,14.9%,14.9%);fill-opacity:1.0;stroke:rgb(0.0%,0.0%,0.0%);stroke-opacity:0.346;stroke-width:2;text-anchor:middle" /><path d="M 150.10 183.65 L 130.72 183.65 L 130.72 144.55 L 100.44 144.55" style="stroke:rgb(52.4%,80.9%,64.5%);stroke-opacity:0.123;stroke-width:2" /><text x="130.72" y="176.10" style="fill:rgb(14.9%,14.9%,14.9%);fill-opacity:1.0;stroke:rgb(0.0%,0.0%,0.0%);stroke-opacity:0.123;stroke-width:2;text-anchor:middle" /><path d="M 150.10 105.45 L 117.64 105.45 L 167.30 193.43 L 150.10 193.43" style="stroke:rgb(50.3%,80.1%,64.6%);stroke-opacity:0.119;stroke-width:2" /><text x="142.47" y="161.44" style="fill:rgb(14.9%,14.9%,14.9%);fill-opacity:1.0;stroke:rgb(0.0%,0.0%,0.0%);stroke-opacity:0.119;stroke-width:2;text-anchor:middle" /><path d="M 199.75 173.88 L 180.54 173.88 L 180.54 134.78 L 150.10 134.78" style="stroke:rgb(32.6%,36.5%,66.2%);stroke-opacity:0.0124;stroke-width:2" /><text x="180.54" y="166.33" style="fill:rgb(14.9%,14.9%,14.9%);fill-opacity:1.0;stroke:rgb(0.0%,0.0%,0.0%);stroke-opacity:0.0124;stroke-width:2;text-anchor:middle" /><path d="M 150.10 183.65 L 139.59 183.65 L 189.24 95.67 L 150.10 95.67" style="stroke:rgb(80.0%,91.9%,61.7%);stroke-opacity:0.178;stroke-width:2" /><text x="164.41" y="151.66" style="fill:rgb(14.9%,14.9%,14.9%);fill-opacity:1.0;stroke:rgb(0.0%,0.0%,0.0%);stroke-opacity:0.178;stroke-width:2;text-anchor:middle" /><path d="M 150.10 105.45 L 105.79 105.45 L 155.44 173.88 L 150.10 173.88" style="stroke:rgb(98.0%,99.2%,71.8%);stroke-opacity:0.24;stroke-width:2" /><text x="130.61" y="151.66" style="fill:rgb(14.9%,14.9%,14.9%);fill-opacity:1.0;stroke:rgb(0.0%,0.0%,0.0%);stroke-opacity:0.24;stroke-width:2;text-anchor:middle" /><path d="M 150.10 183.65 L 135.50 183.65 L 185.16 115.22 L 150.10 115.22" style="stroke:rgb(91.4%,96.5%,61.4%);stroke-opacity:0.206;stroke-width:2" /><text x="160.33" y="161.44" style="fill:rgb(14.9%,14.9%,14.9%);fill-opacity:1.0;stroke:rgb(0.0%,0.0%,0.0%);stroke-opacity:0.206;stroke-width:2;text-anchor:middle" /><path d="M 150.10 105.45 L 146.66 105.45 L 196.32 173.88 L 150.10 173.88" style="stroke:rgb(42.2%,76.9%,64.7%);stroke-opacity:0.104;stroke-width:2" /><text x="171.49" y="151.66" style="fill:rgb(14.9%,14.9%,14.9%);fill-opacity:1.0;stroke:rgb(0.0%,0.0%,0.0%);stroke-opacity:0.104;stroke-width:2;text-anchor:middle" /><path d="M 150.10 183.65 L 126.88 183.65 L 176.54 95.67 L 150.10 95.67" style="stroke:rgb(96.1%,98.4%,68.8%);stroke-opacity:0.23;stroke-width:2" /><text x="151.71" y="151.66" style="fill:rgb(14.9%,14.9%,14.9%);fill-opacity:1.0;stroke:rgb(0.0%,0.0%,0.0%);stroke-opacity:0.23;stroke-width:2;text-anchor:middle" /><path d="M 150.10 105.45 L 136.01 105.45 L 185.66 173.88 L 150.10 173.88" style="stroke:rgb(77.9%,18.1%,29.7%);stroke-opacity:0.463;stroke-width:2" /><text x="160.84" y="151.66" style="fill:rgb(14.9%,14.9%,14.9%);fill-opacity:1.0;stroke:rgb(0.0%,0.0%,0.0%);stroke-opacity:0.463;stroke-width:2;text-anchor:middle" /><path d="M 199.75 173.88 L 168.63 173.88 L 168.63 95.67 L 150.10 95.67" style="stroke:rgb(30.0%,39.9%,67.7%);stroke-opacity:0.0199;stroke-width:2" /><text x="168.63" y="146.78" style="fill:rgb(14.9%,14.9%,14.9%);fill-opacity:1.0;stroke:rgb(0.0%,0.0%,0.0%);stroke-opacity:0.0199;stroke-width:2;text-anchor:middle" /><path d="M 150.10 144.55 L 118.77 144.55 L 50.78 125.00 L 50.78 125.00" style="stroke:rgb(60.6%,84.1%,64.4%);stroke-opacity:0.138;stroke-width:2" /><text x="84.78" y="146.78" style="fill:rgb(14.9%,14.9%,14.9%);fill-opacity:1.0;stroke:rgb(0.0%,0.0%,0.0%);stroke-opacity:0.138;stroke-width:2;text-anchor:middle" /><path d="M 199.75 95.67 L 169.87 95.67 L 169.87 173.88 L 150.10 173.88" style="stroke:rgb(23.1%,48.8%,72.0%);stroke-opacity:0.0399;stroke-width:2" /><text x="169.87" y="146.78" style="fill:rgb(14.9%,14.9%,14.9%);fill-opacity:1.0;stroke:rgb(0.0%,0.0%,0.0%);stroke-opacity:0.0399;stroke-width:2;text-anchor:middle" /><path d="M 150.10 105.45 L 128.83 105.45 L 178.48 193.43 L 150.10 193.43" style="stroke:rgb(99.5%,84.7%,51.9%);stroke-opacity:0.308;stroke-width:2" /><text x="153.65" y="161.44" style="fill:rgb(14.9%,14.9%,14.9%);fill-opacity:1.0;stroke:rgb(0.0%,0.0%,0.0%);stroke-opacity:0.308;stroke-width:2;text-anchor:middle" /><path d="M 199.75 173.88 L 159.97 173.88 L 159.97 115.22 L 150.10 115.22" style="stroke:rgb(22.3%,56.3%,72.9%);stroke-opacity:0.0566;stroke-width:2" /><text x="159.97" y="156.55" style="fill:rgb(14.9%,14.9%,14.9%);fill-opacity:1.0;stroke:rgb(0.0%,0.0%,0.0%);stroke-opacity:0.0566;stroke-width:2;text-anchor:middle" /><path d="M 150.10 105.45 L 119.97 105.45 L 169.62 193.43 L 150.10 193.43" style="stroke:rgb(88.4%,31.7%,29.1%);stroke-opacity:0.43;stroke-width:2" /><text x="144.79" y="161.44" style="fill:rgb(14.9%,14.9%,14.9%);fill-opacity:1.0;stroke:rgb(0.0%,0.0%,0.0%);stroke-opacity:0.43;stroke-width:2;text-anchor:middle" /><path d="M 150.10 105.45 L 121.03 105.45 L 170.69 173.88 L 150.10 173.88" style="stroke:rgb(100.0%,99.5%,74.1%);stroke-opacity:0.252;stroke-width:2" /><text x="145.86" y="151.66" style="fill:rgb(14.9%,14.9%,14.9%);fill-opacity:1.0;stroke:rgb(0.0%,0.0%,0.0%);stroke-opacity:0.252;stroke-width:2;text-anchor:middle" /><path d="M 199.75 115.22 L 166.77 115.22 L 166.77 193.43 L 150.10 193.43" style="stroke:rgb(94.1%,97.6%,65.7%);stroke-opacity:0.22;stroke-width:2" /><text x="166.77" y="166.33" style="fill:rgb(14.9%,14.9%,14.9%);fill-opacity:1.0;stroke:rgb(0.0%,0.0%,0.0%);stroke-opacity:0.22;stroke-width:2;text-anchor:middle" /><path d="M 150.10 144.55 L 139.24 144.55 L 50.78 125.00 L 50.78 125.00" style="stroke:rgb(99.5%,82.4%,49.9%);stroke-opacity:0.314;stroke-width:2" /><text x="95.01" y="146.78" style="fill:rgb(14.9%,14.9%,14.9%);fill-opacity:1.0;stroke:rgb(0.0%,0.0%,0.0%);stroke-opacity:0.314;stroke-width:2;text-anchor:middle" /><path d="M 150.10 183.65 L 132.79 183.65 L 182.45 115.22 L 150.10 115.22" style="stroke:rgb(99.3%,74.9%,43.6%);stroke-opacity:0.333;stroke-width:2" /><text x="157.62" y="161.44" style="fill:rgb(14.9%,14.9%,14.9%);fill-opacity:1.0;stroke:rgb(0.0%,0.0%,0.0%);stroke-opacity:0.333;stroke-width:2;text-anchor:middle" /><path d="M 199.75 193.43 L 162.75 193.43 L 162.75 134.78 L 150.10 134.78" style="stroke:rgb(28.4%,41.9%,68.7%);stroke-opacity:0.0244;stroke-width:2" /><text x="162.75" y="176.10" style="fill:rgb(14.9%,14.9%,14.9%);fill-opacity:1.0;stroke:rgb(0.0%,0.0%,0.0%);stroke-opacity:0.0244;stroke-width:2;text-anchor:middle" /><path d="M 150.10 144.55 L 115.18 144.55 L 50.78 125.00 L 50.78 125.00" style="stroke:rgb(24.0%,58.2%,72.1%);stroke-opacity:0.0608;stroke-width:2" /><text x="82.98" y="146.78" style="fill:rgb(14.9%,14.9%,14.9%);fill-opacity:1.0;stroke:rgb(0.0%,0.0%,0.0%);stroke-opacity:0.0608;stroke-width:2;text-anchor:middle" /><path d="M 150.10 105.45 L 142.61 105.45 L 192.27 193.43 L 150.10 193.43" style="stroke:rgb(97.0%,51.9%,30.5%);stroke-opacity:0.382;stroke-width:2" /><text x="167.44" y="161.44" style="fill:rgb(14.9%,14.9%,14.9%);fill-opacity:1.0;stroke:rgb(0.0%,0.0%,0.0%);stroke-opacity:0.382;stroke-width:2;text-anchor:middle" /><path d="M 150.10 105.45 L 149.47 105.45 L 199.12 173.88 L 150.10 173.88" style="stroke:rgb(99.4%,75.3%,44.0%);stroke-opacity:0.332;stroke-width:2" /><text x="174.30" y="151.66" style="fill:rgb(14.9%,14.9%,14.9%);fill-opacity:1.0;stroke:rgb(0.0%,0.0%,0.0%);stroke-opacity:0.332;stroke-width:2;text-anchor:middle" /><path d="M 150.10 183.65 L 108.90 183.65 L 158.55 95.67 L 150.10 95.67" style="stroke:rgb(99.4%,76.5%,45.0%);stroke-opacity:0.329;stroke-width:2" /><text x="133.73" y="151.66" style="fill:rgb(14.9%,14.9%,14.9%);fill-opacity:1.0;stroke:rgb(0.0%,0.0%,0.0%);stroke-opacity:0.329;stroke-width:2;text-anchor:middle" /><path d="M 199.75 173.88 L 161.34 173.88 L 111.69 144.55 L 100.44 144.55" style="stroke:rgb(25.2%,46.1%,70.7%);stroke-opacity:0.0339;stroke-width:2" /><text x="136.52" y="171.22" style="fill:rgb(14.9%,14.9%,14.9%);fill-opacity:1.0;stroke:rgb(0.0%,0.0%,0.0%);stroke-opacity:0.0339;stroke-width:2;text-anchor:middle" /><path d="M 150.10 66.35 L 133.88 66.35 L 133.88 144.55 L 100.44 144.55" style="stroke:rgb(92.0%,96.8%,62.4%);stroke-opacity:0.209;stroke-width:2" /><text x="133.88" y="117.45" style="fill:rgb(14.9%,14.9%,14.9%);fill-opacity:1.0;stroke:rgb(0.0%,0.0%,0.0%);stroke-opacity:0.209;stroke-width:2;text-anchor:middle" /><path d="M 150.10 183.65 L 103.71 183.65 L 153.37 95.67 L 150.10 95.67" style="stroke:rgb(99.9%,97.8%,71.2%);stroke-opacity:0.259;stroke-width:2" /><text x="128.54" y="151.66" style="fill:rgb(14.9%,14.9%,14.9%);fill-opacity:1.0;stroke:rgb(0.0%,0.0%,0.0%);stroke-opacity:0.259;stroke-width:2;text-anchor:middle" /><path d="M 150.10 105.45 L 147.41 105.45 L 197.06 173.88 L 150.10 173.88" style="stroke:rgb(99.8%,93.4%,63.9%);stroke-opacity:0.277;stroke-width:2" /><text x="172.24" y="151.66" style="fill:rgb(14.9%,14.9%,14.9%);fill-opacity:1.0;stroke:rgb(0.0%,0.0%,0.0%);stroke-opacity:0.277;stroke-width:2;text-anchor:middle" /><path d="M 199.75 95.67 L 162.83 95.67 L 162.83 173.88 L 150.10 173.88" style="stroke:rgb(37.3%,73.1%,65.9%);stroke-opacity:0.0934;stroke-width:2" /><text x="162.83" y="146.78" style="fill:rgb(14.9%,14.9%,14.9%);fill-opacity:1.0;stroke:rgb(0.0%,0.0%,0.0%);stroke-opacity:0.0934;stroke-width:2;text-anchor:middle" /><path d="M 150.10 183.65 L 102.00 183.65 L 151.65 134.78 L 150.10 134.78" style="stroke:rgb(29.9%,40.0%,67.8%);stroke-opacity:0.0202;stroke-width:2" /><text x="126.82" y="171.22" style="fill:rgb(14.9%,14.9%,14.9%);fill-opacity:1.0;stroke:rgb(0.0%,0.0%,0.0%);stroke-opacity:0.0202;stroke-width:2;text-anchor:middle" /><path d="M 150.10 66.35 L 113.69 66.35 L 113.69 144.55 L 100.44 144.55" style="stroke:rgb(92.0%,37.2%,27.7%);stroke-opacity:0.415;stroke-width:2" /><text x="113.69" y="117.45" style="fill:rgb(14.9%,14.9%,14.9%);fill-opacity:1.0;stroke:rgb(0.0%,0.0%,0.0%);stroke-opacity:0.415;stroke-width:2;text-anchor:middle" /><path d="M 150.10 105.45 L 141.16 105.45 L 190.82 76.12 L 150.10 76.12" style="stroke:rgb(29.6%,40.4%,68.0%);stroke-opacity:0.0211;stroke-width:2" /><text x="165.99" y="102.78" style="fill:rgb(14.9%,14.9%,14.9%);fill-opacity:1.0;stroke:rgb(0.0%,0.0%,0.0%);stroke-opacity:0.0211;stroke-width:2;text-anchor:middle" /><path d="M 150.10 183.65 L 121.68 183.65 L 171.34 115.22 L 150.10 115.22" style="stroke:rgb(99.7%,92.2%,61.9%);stroke-opacity:0.282;stroke-width:2" /><text x="146.51" y="161.44" style="fill:rgb(14.9%,14.9%,14.9%);fill-opacity:1.0;stroke:rgb(0.0%,0.0%,0.0%);stroke-opacity:0.282;stroke-width:2;text-anchor:middle" /><path d="M 199.75 193.43 L 161.26 193.43 L 161.26 115.22 L 150.10 115.22" style="stroke:rgb(31.0%,38.6%,67.2%);stroke-opacity:0.0171;stroke-width:2" /><text x="161.26" y="166.33" style="fill:rgb(14.9%,14.9%,14.9%);fill-opacity:1.0;stroke:rgb(0.0%,0.0%,0.0%);stroke-opacity:0.0171;stroke-width:2;text-anchor:middle" /><path d="M 150.10 183.65 L 128.68 183.65 L 128.68 144.55 L 100.44 144.55" style="stroke:rgb(35.6%,71.1%,66.8%);stroke-opacity:0.0891;stroke-width:2" /><text x="128.68" y="176.10" style="fill:rgb(14.9%,14.9%,14.9%);fill-opacity:1.0;stroke:rgb(0.0%,0.0%,0.0%);stroke-opacity:0.0891;stroke-width:2;text-anchor:middle" /><path d="M 150.10 105.45 L 145.12 105.45 L 194.78 173.88 L 150.10 173.88" style="stroke:rgb(99.4%,78.4%,46.6%);stroke-opacity:0.324;stroke-width:2" /><text x="169.95" y="151.66" style="fill:rgb(14.9%,14.9%,14.9%);fill-opacity:1.0;stroke:rgb(0.0%,0.0%,0.0%);stroke-opacity:0.324;stroke-width:2;text-anchor:middle" /><path d="M 150.10 105.45 L 146.15 105.45 L 195.81 193.43 L 150.10 193.43" style="stroke:rgb(93.3%,97.3%,64.5%);stroke-opacity:0.216;stroke-width:2" /><text x="170.98" y="161.44" style="fill:rgb(14.9%,14.9%,14.9%);fill-opacity:1.0;stroke:rgb(0.0%,0.0%,0.0%);stroke-opacity:0.216;stroke-width:2;text-anchor:middle" /><path d="M 150.10 144.55 L 142.86 144.55 L 50.78 125.00 L 50.78 125.00" style="stroke:rgb(34.0%,69.4%,67.5%);stroke-opacity:0.0854;stroke-width:2" /><text x="96.82" y="146.78" style="fill:rgb(14.9%,14.9%,14.9%);fill-opacity:1.0;stroke:rgb(0.0%,0.0%,0.0%);stroke-opacity:0.0854;stroke-width:2;text-anchor:middle" /><path d="M 150.10 66.35 L 111.80 66.35 L 111.80 144.55 L 100.44 144.55" style="stroke:rgb(23.3%,57.4%,72.4%);stroke-opacity:0.059;stroke-width:2" /><text x="111.80" y="117.45" style="fill:rgb(14.9%,14.9%,14.9%);fill-opacity:1.0;stroke:rgb(0.0%,0.0%,0.0%);stroke-opacity:0.059;stroke-width:2;text-anchor:middle" /><path d="M 150.10 144.55 L 110.07 144.55 L 50.78 125.00 L 50.78 125.00" style="stroke:rgb(85.1%,94.0%,60.6%);stroke-opacity:0.189;stroke-width:2" /><text x="80.43" y="146.78" style="fill:rgb(14.9%,14.9%,14.9%);fill-opacity:1.0;stroke:rgb(0.0%,0.0%,0.0%);stroke-opacity:0.189;stroke-width:2;text-anchor:middle" /><path d="M 150.10 66.35 L 113.93 66.35 L 113.93 144.55 L 100.44 144.55" style="stroke:rgb(33.9%,69.3%,67.5%);stroke-opacity:0.0851;stroke-width:2" /><text x="113.93" y="117.45" style="fill:rgb(14.9%,14.9%,14.9%);fill-opacity:1.0;stroke:rgb(0.0%,0.0%,0.0%);stroke-opacity:0.0851;stroke-width:2;text-anchor:middle" /><path d="M 199.75 115.22 L 174.63 115.22 L 174.63 173.88 L 150.10 173.88" style="stroke:rgb(34.6%,70.1%,67.2%);stroke-opacity:0.0868;stroke-width:2" /><text x="174.63" y="156.55" style="fill:rgb(14.9%,14.9%,14.9%);fill-opacity:1.0;stroke:rgb(0.0%,0.0%,0.0%);stroke-opacity:0.0868;stroke-width:2;text-anchor:middle" /><path d="M 150.10 183.65 L 130.71 183.65 L 180.37 95.67 L 150.10 95.67" style="stroke:rgb(99.9%,97.8%,71.2%);stroke-opacity:0.259;stroke-width:2" /><text x="155.54" y="151.66" style="fill:rgb(14.9%,14.9%,14.9%);fill-opacity:1.0;stroke:rgb(0.0%,0.0%,0.0%);stroke-opacity:0.259;stroke-width:2;text-anchor:middle" /><path d="M 199.75 193.43 L 185.79 193.43 L 185.79 154.33 L 150.10 154.33" style="stroke:rgb(29.4%,40.6%,68.1%);stroke-opacity:0.0215;stroke-width:2" /><text x="185.79" y="185.88" style="fill:rgb(14.9%,14.9%,14.9%);fill-opacity:1.0;stroke:rgb(0.0%,0.0%,0.0%);stroke-opacity:0.0215;stroke-width:2;text-anchor:middle" /><path d="M 199.75 173.88 L 195.40 173.88 L 195.40 134.78 L 150.10 134.78" style="stroke:rgb(30.6%,39.1%,67.4%);stroke-opacity:0.0182;stroke-width:2" /><text x="195.40" y="166.33" style="fill:rgb(14.9%,14.9%,14.9%);fill-opacity:1.0;stroke:rgb(0.0%,0.0%,0.0%);stroke-opacity:0.0182;stroke-width:2;text-anchor:middle" /><path d="M 150.10 183.65 L 131.79 183.65 L 181.44 95.67 L 150.10 95.67" style="stroke:rgb(99.3%,70.6%,40.0%);stroke-opacity:0.344;stroke-width:2" /><text x="156.62" y="151.66" style="fill:rgb(14.9%,14.9%,14.9%);fill-opacity:1.0;stroke:rgb(0.0%,0.0%,0.0%);stroke-opacity:0.344;stroke-width:2;text-anchor:middle" /><path d="M 150.10 144.55 L 118.08 144.55 L 50.78 125.00 L 50.78 125.00" style="stroke:rgb(95.9%,98.4%,68.5%);stroke-opacity:0.229;stroke-width:2" /><text x="84.43" y="146.78" style="fill:rgb(14.9%,14.9%,14.9%);fill-opacity:1.0;stroke:rgb(0.0%,0.0%,0.0%);stroke-opacity:0.229;stroke-width:2;text-anchor:middle" /><path d="M 150.10 183.65 L 133.00 183.65 L 182.65 95.67 L 150.10 95.67" style="stroke:rgb(35.0%,70.5%,67.0%);stroke-opacity:0.0878;stroke-width:2" /><text x="157.83" y="151.66" style="fill:rgb(14.9%,14.9%,14.9%);fill-opacity:1.0;stroke:rgb(0.0%,0.0%,0.0%);stroke-opacity:0.0878;stroke-width:2;text-anchor:middle" /><path d="M 150.10 144.55 L 128.42 144.55 L 50.78 125.00 L 50.78 125.00" style="stroke:rgb(47.0%,78.8%,64.6%);stroke-opacity:0.113;stroke-width:2" /><text x="89.60" y="146.78" style="fill:rgb(14.9%,14.9%,14.9%);fill-opacity:1.0;stroke:rgb(0.0%,0.0%,0.0%);stroke-opacity:0.113;stroke-width:2;text-anchor:middle" /><path d="M 199.75 95.67 L 160.07 95.67 L 160.07 173.88 L 150.10 173.88" style="stroke:rgb(40.5%,76.3%,64.7%);stroke-opacity:0.101;stroke-width:2" /><text x="160.07" y="146.78" style="fill:rgb(14.9%,14.9%,14.9%);fill-opacity:1.0;stroke:rgb(0.0%,0.0%,0.0%);stroke-opacity:0.101;stroke-width:2;text-anchor:middle" /><path d="M 150.10 66.35 L 141.06 66.35 L 141.06 144.55 L 100.44 144.55" style="stroke:rgb(96.5%,48.4%,28.9%);stroke-opacity:0.389;stroke-width:2" /><text x="141.06" y="117.45" style="fill:rgb(14.9%,14.9%,14.9%);fill-opacity:1.0;stroke:rgb(0.0%,0.0%,0.0%);stroke-opacity:0.389;stroke-width:2;text-anchor:middle" /><path d="M 150.10 144.55 L 120.09 144.55 L 50.78 125.00 L 50.78 125.00" style="stroke:rgb(99.8%,92.7%,62.7%);stroke-opacity:0.28;stroke-width:2" /><text x="85.44" y="146.78" style="fill:rgb(14.9%,14.9%,14.9%);fill-opacity:1.0;stroke:rgb(0.0%,0.0%,0.0%);stroke-opacity:0.28;stroke-width:2;text-anchor:middle" /><path d="M 199.75 173.88 L 181.92 173.88 L 181.92 134.78 L 150.10 134.78" style="stroke:rgb(31.7%,37.7%,66.7%);stroke-opacity:0.0151;stroke-width:2" /><text x="181.92" y="166.33" style="fill:rgb(14.9%,14.9%,14.9%);fill-opacity:1.0;stroke:rgb(0.0%,0.0%,0.0%);stroke-opacity:0.0151;stroke-width:2;text-anchor:middle" /><path d="M 150.10 144.55 L 133.67 144.55 L 50.78 125.00 L 50.78 125.00" style="stroke:rgb(28.3%,42.0%,68.8%);stroke-opacity:0.0247;stroke-width:2" /><text x="92.23" y="146.78" style="fill:rgb(14.9%,14.9%,14.9%);fill-opacity:1.0;stroke:rgb(0.0%,0.0%,0.0%);stroke-opacity:0.0247;stroke-width:2;text-anchor:middle" /><path d="M 150.10 144.55 L 117.33 144.55 L 50.78 125.00 L 50.78 125.00" style="stroke:rgb(43.2%,77.3%,64.7%);stroke-opacity:0.106;stroke-width:2" /><text x="84.06" y="146.78" style="fill:rgb(14.9%,14.9%,14.9%);fill-opacity:1.0;stroke:rgb(0.0%,0.0%,0.0%);stroke-opacity:0.106;stroke-width:2;text-anchor:middle" /><path d="M 150.10 183.65 L 128.70 183.65 L 178.36 95.67 L 150.10 95.67" style="stroke:rgb(99.8%,93.9%,64.7%);stroke-opacity:0.275;stroke-width:2" /><text x="153.53" y="151.66" style="fill:rgb(14.9%,14.9%,14.9%);fill-opacity:1.0;stroke:rgb(0.0%,0.0%,0.0%);stroke-opacity:0.275;stroke-width:2;text-anchor:middle" /><path d="M 150.10 144.55 L 120.03 144.55 L 50.78 125.00 L 50.78 125.00" style="stroke:rgb(21.6%,55.6%,73.2%);stroke-opacity:0.055;stroke-width:2" /><text x="85.41" y="146.78" style="fill:rgb(14.9%,14.9%,14.9%);fill-opacity:1.0;stroke:rgb(0.0%,0.0%,0.0%);stroke-opacity:0.055;stroke-width:2;text-anchor:middle" /><path d="M 150.10 183.65 L 103.23 183.65 L 152.89 154.33 L 150.10 154.33" style="stroke:rgb(26.6%,44.2%,69.8%);stroke-opacity:0.0296;stroke-width:2" /><text x="128.06" y="180.99" style="fill:rgb(14.9%,14.9%,14.9%);fill-opacity:1.0;stroke:rgb(0.0%,0.0%,0.0%);stroke-opacity:0.0296;stroke-width:2;text-anchor:middle" /><path d="M 150.10 144.55 L 114.82 144.55 L 50.78 125.00 L 50.78 125.00" style="stroke:rgb(72.1%,88.7%,63.3%);stroke-opacity:0.161;stroke-width:2" /><text x="82.80" y="146.78" style="fill:rgb(14.9%,14.9%,14.9%);fill-opacity:1.0;stroke:rgb(0.0%,0.0%,0.0%);stroke-opacity:0.161;stroke-width:2;text-anchor:middle" /><path d="M 199.75 115.22 L 195.95 115.22 L 195.95 193.43 L 150.10 193.43" style="stroke:rgb(51.9%,80.7%,64.5%);stroke-opacity:0.122;stroke-width:2" /><text x="195.95" y="166.33" style="fill:rgb(14.9%,14.9%,14.9%);fill-opacity:1.0;stroke:rgb(0.0%,0.0%,0.0%);stroke-opacity:0.122;stroke-width:2;text-anchor:middle" /><path d="M 199.75 173.88 L 189.05 173.88 L 139.40 144.55 L 100.44 144.55" style="stroke:rgb(25.9%,45.2%,70.3%);stroke-opacity:0.0318;stroke-width:2" /><text x="164.23" y="171.22" style="fill:rgb(14.9%,14.9%,14.9%);fill-opacity:1.0;stroke:rgb(0.0%,0.0%,0.0%);stroke-opacity:0.0318;stroke-width:2;text-anchor:middle" /><path d="M 150.10 183.65 L 121.36 183.65 L 171.01 95.67 L 150.10 95.67" style="stroke:rgb(96.5%,98.6%,69.4%);stroke-opacity:0.232;stroke-width:2" /><text x="146.19" y="151.66" style="fill:rgb(14.9%,14.9%,14.9%);fill-opacity:1.0;stroke:rgb(0.0%,0.0%,0.0%);stroke-opacity:0.232;stroke-width:2;text-anchor:middle" /><path d="M 150.10 183.65 L 141.71 183.65 L 191.37 95.67 L 150.10 95.67" style="stroke:rgb(66.5%,86.5%,64.3%);stroke-opacity:0.149;stroke-width:2" /><text x="166.54" y="151.66" style="fill:rgb(14.9%,14.9%,14.9%);fill-opacity:1.0;stroke:rgb(0.0%,0.0%,0.0%);stroke-opacity:0.149;stroke-width:2;text-anchor:middle" /><path d="M 150.10 105.45 L 128.50 105.45 L 178.15 173.88 L 150.10 173.88" style="stroke:rgb(73.6%,13.3%,28.6%);stroke-opacity:0.473;stroke-width:2" /><text x="153.33" y="151.66" style="fill:rgb(14.9%,14.9%,14.9%);fill-opacity:1.0;stroke:rgb(0.0%,0.0%,0.0%);stroke-opacity:0.473;stroke-width:2;text-anchor:middle" /><path d="M 150.10 144.55 L 144.15 144.55 L 50.78 125.00 L 50.78 125.00" style="stroke:rgb(98.4%,62.1%,35.2%);stroke-opacity:0.362;stroke-width:2" /><text x="97.47" y="146.78" style="fill:rgb(14.9%,14.9%,14.9%);fill-opacity:1.0;stroke:rgb(0.0%,0.0%,0.0%);stroke-opacity:0.362;stroke-width:2;text-anchor:middle" /><path d="M 150.10 183.65 L 138.47 183.65 L 188.12 115.22 L 150.10 115.22" style="stroke:rgb(28.3%,63.1%,70.1%);stroke-opacity:0.0714;stroke-width:2" /><text x="163.29" y="161.44" style="fill:rgb(14.9%,14.9%,14.9%);fill-opacity:1.0;stroke:rgb(0.0%,0.0%,0.0%);stroke-opacity:0.0714;stroke-width:2;text-anchor:middle" /><path d="M 150.10 183.65 L 113.89 183.65 L 163.55 95.67 L 150.10 95.67" style="stroke:rgb(99.8%,93.2%,63.5%);stroke-opacity:0.278;stroke-width:2" /><text x="138.72" y="151.66" style="fill:rgb(14.9%,14.9%,14.9%);fill-opacity:1.0;stroke:rgb(0.0%,0.0%,0.0%);stroke-opacity:0.278;stroke-width:2;text-anchor:middle" /><path d="M 150.10 183.65 L 120.04 183.65 L 169.70 115.22 L 150.10 115.22" style="stroke:rgb(99.7%,89.5%,57.4%);stroke-opacity:0.293;stroke-width:2" /><text x="144.87" y="161.44" style="fill:rgb(14.9%,14.9%,14.9%);fill-opacity:1.0;stroke:rgb(0.0%,0.0%,0.0%);stroke-opacity:0.293;stroke-width:2;text-anchor:middle" /><path d="M 150.10 66.35 L 113.29 66.35 L 113.29 144.55 L 100.44 144.55" style="stroke:rgb(99.8%,92.5%,62.3%);stroke-opacity:0.281;stroke-width:2" /><text x="113.29" y="117.45" style="fill:rgb(14.9%,14.9%,14.9%);fill-opacity:1.0;stroke:rgb(0.0%,0.0%,0.0%);stroke-opacity:0.281;stroke-width:2;text-anchor:middle" /><path d="M 150.10 144.55 L 139.87 144.55 L 50.78 125.00 L 50.78 125.00" style="stroke:rgb(37.0%,72.8%,66.1%);stroke-opacity:0.0927;stroke-width:2" /><text x="95.32" y="146.78" style="fill:rgb(14.9%,14.9%,14.9%);fill-opacity:1.0;stroke:rgb(0.0%,0.0%,0.0%);stroke-opacity:0.0927;stroke-width:2;text-anchor:middle" /></g><g class="toytree-Nodes" style="fill:rgb(40.0%,76.1%,64.7%);fill-opacity:1.0;stroke:rgb(14.9%,14.9%,14.9%);stroke-opacity:1.0;stroke-width:1.5" /><g class="toytree-TipLabels" style="fill:rgb(14.5%,14.5%,14.5%);fill-opacity:1.0;font-family:Helvetica;font-size:12px;font-weight:300;vertical-align:baseline;white-space:pre;stroke:none"><g class="toytree-TipLabel" transform="translate(199.751,56.5693)"><text x="15.0" y="3.066" style="fill:rgb(14.5%,14.5%,14.5%);fill-opacity:1.0">r0</text></g><g class="toytree-TipLabel" transform="translate(199.751,76.121)"><text x="15.0" y="3.066" style="fill:rgb(14.5%,14.5%,14.5%);fill-opacity:1.0">r1</text></g><g class="toytree-TipLabel" transform="translate(199.751,95.6726)"><text x="15.0" y="3.066" style="fill:rgb(14.5%,14.5%,14.5%);fill-opacity:1.0">r2</text></g><g class="toytree-TipLabel" transform="translate(199.751,115.224)"><text x="15.0" y="3.066" style="fill:rgb(14.5%,14.5%,14.5%);fill-opacity:1.0">r3</text></g><g class="toytree-TipLabel" transform="translate(199.751,134.776)"><text x="15.0" y="3.066" style="fill:rgb(14.5%,14.5%,14.5%);fill-opacity:1.0">r4</text></g><g class="toytree-TipLabel" transform="translate(199.751,154.327)"><text x="15.0" y="3.066" style="fill:rgb(14.5%,14.5%,14.5%);fill-opacity:1.0">r5</text></g><g class="toytree-TipLabel" transform="translate(199.751,173.879)"><text x="15.0" y="3.066" style="fill:rgb(14.5%,14.5%,14.5%);fill-opacity:1.0">r6</text></g><g class="toytree-TipLabel" transform="translate(199.751,193.431)"><text x="15.0" y="3.066" style="fill:rgb(14.5%,14.5%,14.5%);fill-opacity:1.0">r7</text></g></g></g></g></g><g class="toyplot-coordinates-Numberline" id="t4f7808778f034e9f84a263c61a7c057e"><clipPath id="t0791248508b04ab4a886b2a5d237631b"><rect x="0" y="-20.0" width="140.0" height="40.0" /></clipPath><g clip-path="url(#t0791248508b04ab4a886b2a5d237631b)" transform="translate(250.0,195.0)rotate(-90.0)"><g class="toyplot-color-Map" id="tb2c76faa97e54ecfaaffed9592fd93c2"><defs><linearGradient id="t4226a7003fa94246a7ab67517ace79eb" x1="0.0" x2="140.0" y1="0" y2="0" gradientUnits="userSpaceOnUse"><stop stop-color="rgb(36.9%,31%,63.5%)" stop-opacity="1.0" offset="0.0" /><stop stop-color="rgb(34.1%,34.5%,65.2%)" stop-opacity="1.0" offset="0.015873015873015872" /><stop stop-color="rgb(31.4%,38.1%,66.9%)" stop-opacity="1.0" offset="0.031746031746031744" /><stop stop-color="rgb(28.6%,41.6%,68.6%)" stop-opacity="1.0" offset="0.047619047619047616" /><stop stop-color="rgb(25.9%,45.2%,70.3%)" stop-opacity="1.0" offset="0.06349206349206349" /><stop stop-color="rgb(23.2%,48.7%,71.9%)" stop-opacity="1.0" offset="0.07936507936507936" /><stop stop-color="rgb(20.4%,52.3%,73.6%)" stop-opacity="1.0" offset="0.09523809523809523" /><stop stop-color="rgb(21.9%,55.9%,73.1%)" stop-opacity="1.0" offset="0.1111111111111111" /><stop stop-color="rgb(25.1%,59.5%,71.6%)" stop-opacity="1.0" offset="0.12698412698412698" /><stop stop-color="rgb(28.3%,63.1%,70.1%)" stop-opacity="1.0" offset="0.14285714285714285" /><stop stop-color="rgb(31.6%,66.7%,68.6%)" stop-opacity="1.0" offset="0.15873015873015872" /><stop stop-color="rgb(34.8%,70.3%,67.1%)" stop-opacity="1.0" offset="0.1746031746031746" /><stop stop-color="rgb(38.1%,73.9%,65.6%)" stop-opacity="1.0" offset="0.19047619047619047" /><stop stop-color="rgb(41.7%,76.8%,64.7%)" stop-opacity="1.0" offset="0.20634920634920634" /><stop stop-color="rgb(46%,78.4%,64.6%)" stop-opacity="1.0" offset="0.2222222222222222" /><stop stop-color="rgb(50.3%,80.1%,64.6%)" stop-opacity="1.0" offset="0.23809523809523805" /><stop stop-color="rgb(54.6%,81.8%,64.5%)" stop-opacity="1.0" offset="0.25396825396825395" /><stop stop-color="rgb(58.9%,83.5%,64.4%)" stop-opacity="1.0" offset="0.2698412698412698" /><stop stop-color="rgb(63.2%,85.2%,64.4%)" stop-opacity="1.0" offset="0.2857142857142857" /><stop stop-color="rgb(67.4%,86.8%,64.2%)" stop-opacity="1.0" offset="0.30158730158730157" /><stop stop-color="rgb(71.1%,88.3%,63.5%)" stop-opacity="1.0" offset="0.31746031746031744" /><stop stop-color="rgb(74.8%,89.8%,62.7%)" stop-opacity="1.0" offset="0.3333333333333333" /><stop stop-color="rgb(78.4%,91.3%,62%)" stop-opacity="1.0" offset="0.3492063492063492" /><stop stop-color="rgb(82.1%,92.8%,61.3%)" stop-opacity="1.0" offset="0.36507936507936506" /><stop stop-color="rgb(85.8%,94.3%,60.5%)" stop-opacity="1.0" offset="0.38095238095238093" /><stop stop-color="rgb(89.5%,95.8%,59.8%)" stop-opacity="1.0" offset="0.3968253968253968" /><stop stop-color="rgb(91.4%,96.6%,61.5%)" stop-opacity="1.0" offset="0.4126984126984127" /><stop stop-color="rgb(93%,97.2%,64%)" stop-opacity="1.0" offset="0.42857142857142855" /><stop stop-color="rgb(94.6%,97.8%,66.4%)" stop-opacity="1.0" offset="0.4444444444444444" /><stop stop-color="rgb(96.1%,98.4%,68.8%)" stop-opacity="1.0" offset="0.4603174603174603" /><stop stop-color="rgb(97.7%,99.1%,71.3%)" stop-opacity="1.0" offset="0.4761904761904761" /><stop stop-color="rgb(99.2%,99.7%,73.7%)" stop-opacity="1.0" offset="0.49206349206349204" /><stop stop-color="rgb(100%,99%,73.3%)" stop-opacity="1.0" offset="0.5079365079365079" /><stop stop-color="rgb(99.9%,97.1%,70%)" stop-opacity="1.0" offset="0.5238095238095237" /><stop stop-color="rgb(99.8%,95.2%,66.8%)" stop-opacity="1.0" offset="0.5396825396825397" /><stop stop-color="rgb(99.8%,93.2%,63.6%)" stop-opacity="1.0" offset="0.5555555555555556" /><stop stop-color="rgb(99.7%,91.3%,60.3%)" stop-opacity="1.0" offset="0.5714285714285714" /><stop stop-color="rgb(99.7%,89.4%,57.1%)" stop-opacity="1.0" offset="0.5873015873015872" /><stop stop-color="rgb(99.6%,87.2%,54%)" stop-opacity="1.0" offset="0.6031746031746031" /><stop stop-color="rgb(99.5%,84.1%,51.4%)" stop-opacity="1.0" offset="0.6190476190476191" /><stop stop-color="rgb(99.5%,81%,48.8%)" stop-opacity="1.0" offset="0.6349206349206349" /><stop stop-color="rgb(99.4%,77.9%,46.1%)" stop-opacity="1.0" offset="0.6507936507936507" /><stop stop-color="rgb(99.3%,74.8%,43.5%)" stop-opacity="1.0" offset="0.6666666666666666" /><stop stop-color="rgb(99.3%,71.7%,40.9%)" stop-opacity="1.0" offset="0.6825396825396826" /><stop stop-color="rgb(99.2%,68.5%,38.3%)" stop-opacity="1.0" offset="0.6984126984126984" /><stop stop-color="rgb(98.7%,64.6%,36.4%)" stop-opacity="1.0" offset="0.7142857142857142" /><stop stop-color="rgb(98.2%,60.5%,34.5%)" stop-opacity="1.0" offset="0.7301587301587301" /><stop stop-color="rgb(97.6%,56.5%,32.6%)" stop-opacity="1.0" offset="0.746031746031746" /><stop stop-color="rgb(97%,52.5%,30.8%)" stop-opacity="1.0" offset="0.7619047619047619" /><stop stop-color="rgb(96.5%,48.4%,28.9%)" stop-opacity="1.0" offset="0.7777777777777777" /><stop stop-color="rgb(95.9%,44.4%,27%)" stop-opacity="1.0" offset="0.7936507936507936" /><stop stop-color="rgb(94.5%,41%,26.7%)" stop-opacity="1.0" offset="0.8095238095238095" /><stop stop-color="rgb(92.6%,38.1%,27.5%)" stop-opacity="1.0" offset="0.8253968253968254" /><stop stop-color="rgb(90.7%,35.1%,28.2%)" stop-opacity="1.0" offset="0.8412698412698412" /><stop stop-color="rgb(88.7%,32.2%,29%)" stop-opacity="1.0" offset="0.8571428571428571" /><stop stop-color="rgb(86.8%,29.3%,29.7%)" stop-opacity="1.0" offset="0.873015873015873" /><stop stop-color="rgb(84.9%,26.4%,30.5%)" stop-opacity="1.0" offset="0.8888888888888888" /><stop stop-color="rgb(82.5%,23.2%,30.7%)" stop-opacity="1.0" offset="0.9047619047619047" /><stop stop-color="rgb(79.1%,19.4%,29.9%)" stop-opacity="1.0" offset="0.9206349206349206" /><stop stop-color="rgb(75.7%,15.6%,29.1%)" stop-opacity="1.0" offset="0.9365079365079365" /><stop stop-color="rgb(72.2%,11.8%,28.3%)" stop-opacity="1.0" offset="0.9523809523809522" /><stop stop-color="rgb(68.8%,7.99%,27.5%)" stop-opacity="1.0" offset="0.9682539682539681" /><stop stop-color="rgb(65.4%,4.19%,26.7%)" stop-opacity="1.0" offset="0.9841269841269841" /><stop stop-color="rgb(62%,0.392%,25.9%)" stop-opacity="1.0" offset="1.0" /></linearGradient></defs><rect x="0.0" y="-7.5" width="140.0" height="15" style="fill:url(#t4226a7003fa94246a7ab67517ace79eb);stroke:rgb(0%,0%,0%);stroke-opacity:1.0;stroke-width:2" /></g></g><g class="toyplot-coordinates-Axis" id="t2b83adfe34fb4e3f9b6aee618ea7b71e" transform="translate(250.0,195.0)rotate(-90.0)translate(0,20.0)"><line x1="0" y1="0" x2="140.0" y2="0" style="stroke-width:2" /><g><line x1="0.0" y1="0" x2="0.0" y2="-3" style="stroke-width:2" /><line x1="70.0" y1="0" x2="70.0" y2="-3" style="stroke-width:2" /><line x1="140.0" y1="0" x2="140.0" y2="-3" style="stroke-width:2" /></g><g><g transform="translate(0.0,6)"><text x="-7.6450000000000005" y="9.410499999999999" style="fill:rgb(16.1%,15.3%,14.1%);fill-opacity:1.0;font-family:helvetica;font-size:11.0px;font-weight:normal;stroke:none;vertical-align:baseline;white-space:pre">0.0</text></g><g transform="translate(70.0,6)"><text x="-10.703000000000001" y="9.410499999999999" style="fill:rgb(16.1%,15.3%,14.1%);fill-opacity:1.0;font-family:helvetica;font-size:11.0px;font-weight:normal;stroke:none;vertical-align:baseline;white-space:pre">0.25</text></g><g transform="translate(140.0,6)"><text x="-7.6450000000000005" y="9.410499999999999" style="fill:rgb(16.1%,15.3%,14.1%);fill-opacity:1.0;font-family:helvetica;font-size:11.0px;font-weight:normal;stroke:none;vertical-align:baseline;white-space:pre">0.5</text></g></g><g class="toyplot-coordinates-Axis-coordinates" style="visibility:hidden" transform=""><line x1="0" x2="0" y1="-3.0" y2="4.5" style="stroke:rgb(43.9%,50.2%,56.5%);stroke-opacity:1.0;stroke-width:1.0" /><text x="0" y="-6" style="alignment-baseline:alphabetic;fill:rgb(43.9%,50.2%,56.5%);fill-opacity:1.0;font-size:10px;font-weight:normal;stroke:none;text-anchor:middle" /></g></g></g><g class="toyplot-mark-Text" id="t8cb93208c0434c6abde857a9aec5d839"><g class="toyplot-Series"><g class="toyplot-Datum" transform="translate(90.0,45.0)"><text x="-28.5835" y="-3.7895000000000003" style="fill:rgb(16.1%,15.3%,14.1%);fill-opacity:1.0;font-family:helvetica;font-size:11.0px;font-weight:bold;opacity:1;stroke:none;vertical-align:baseline;white-space:pre">Major=0.82</text><text x="-42.339000000000006" y="9.410499999999999" style="fill:rgb(16.1%,15.3%,14.1%);fill-opacity:1.0;font-family:helvetica;font-size:11.0px;font-weight:bold;opacity:1;stroke:none;vertical-align:baseline;white-space:pre">Alternative=0.18</text></g></g></g></svg>