<svg class="toyplot-canvas-Canvas" xmlns:toyplot="http://www.sandia.gov/toyplot" xmlns:xlink="http://www.w3.org/1999/xlink" xmlns="http://www.w3.org/2000/svg" width="290.0px" height="250.0px" viewBox="0 0 290.0 250.0" preserveAspectRatio="xMidYMid meet" style="background-color:transparent;border-color:#292724;border-style:none;border-width:1.0;fill:rgb(16.1%,15.3%,14.1%);fill-opacity:1.0;font-family:Helvetica;font-size:12px;opacity:1.0;stroke:rgb(16.1%,15.3%,14.1%);stroke-opacity:1.0;stroke-width:1.0" id="t722da6713d234765af74a4a73c108179"><g class="toyplot-coordinates-Cartesian" id="t91bcc6d608074e418bb93c3c8b3cbcdd"><clipPath id="t6789ec402cbc4c22ad338d13fcf78668"><rect x="35.0" y="35.0" width="220.0" height="180.0" /></clipPath><g clip-path="url(#t6789ec402cbc4c22ad338d13fcf78668)"><g class="toytree-mark-Toytree" id="te097cad1eb7d48ec8c8c505033fe95a8"><g class="toytree-Edges" style="stroke:rgb(14.5%,14.5%,14.5%);stroke-opacity:1.0;stroke-linecap:round;stroke-width:2.0;fill:none"><path d="M 150.1 66.3 L 150.1 56.6 L 199.8 56.6" id="8,0" style="" /><path d="M 150.1 66.3 L 150.1 76.1 L 199.8 76.1" id="8,1" style="" /><path d="M 150.1 105.4 L 150.1 95.7 L 199.8 95.7" id="9,2" style="" /><path d="M 150.1 105.4 L 150.1 115.2 L 199.8 115.2" id="9,3" style="" /><path d="M 150.1 144.6 L 150.1 134.8 L 199.8 134.8" id="11,4" style="" /><path d="M 150.1 144.6 L 150.1 154.3 L 199.8 154.3" id="11,5" style="" /><path d="M 150.1 183.7 L 150.1 173.9 L 199.8 173.9" id="12,6" style="" /><path d="M 150.1 183.7 L 150.1 193.4 L 199.8 193.4" id="12,7" style="" /><path d="M 100.4 85.9 L 100.4 66.3 L 150.1 66.3" id="10,8" style="" /><path d="M 100.4 85.9 L 100.4 105.4 L 150.1 105.4" id="10,9" style="" /><path d="M 50.8 125.0 L 50.8 85.9 L 100.4 85.9" id="14,10" style="" /><path d="M 100.4 164.1 L 100.4 144.6 L 150.1 144.6" id="13,11" style="" /><path d="M 100.4 164.1 L 100.4 183.7 L 150.1 183.7" id="13,12" style="" /><path d="M 50.8 125.0 L 50.8 164.1 L 100.4 164.1" id="14,13" style="" /></g><g class="toytree-AdmixEdges" style="fill:rgb(0.0%,0.0%,0.0%);fill-opacity:0.0;stroke:rgb(90.6%,54.1%,76.5%);stroke-opacity:0.6;font-size:14px;stroke-linecap:round;stroke-width:5"><path d="M 199.75 115.22 L 161.19 115.22 L 161.19 134.78 L 150.10 134.78" style="stroke:rgb(22.2%,50.0%,72.6%);stroke-opacity:0.0426;stroke-width:2" /><text x="161.19" y="137.00" style="fill:rgb(14.9%,14.9%,14.9%);fill-opacity:1.0;stroke:rgb(0.0%,0.0%,0.0%);stroke-opacity:0.0426;stroke-width:2;text-anchor:middle" /><path d="M 199.75 173.88 L 160.02 173.88 L 160.02 154.33 L 150.10 154.33" style="stroke:rgb(28.4%,42.0%,68.7%);stroke-opacity:0.0246;stroke-width:2" /><text x="160.02" y="176.10" style="fill:rgb(14.9%,14.9%,14.9%);fill-opacity:1.0;stroke:rgb(0.0%,0.0%,0.0%);stroke-opacity:0.0246;stroke-width:2;text-anchor:middle" /><path d="M 199.75 56.57 L 179.61 56.57 L 179.61 95.67 L 150.10 95.67" style="stroke:rgb(21.6%,55.6%,73.2%);stroke-opacity:0.0549;stroke-width:2" /><text x="179.61" y="88.12" style="fill:rgb(14.9%,14.9%,14.9%);fill-opacity:1.0;stroke:rgb(0.0%,0.0%,0.0%);stroke-opacity:0.0549;stroke-width:2;text-anchor:middle" /><path d="M 199.75 154.33 L 199.10 154.33 L 199.10 76.12 L 150.10 76.12" style="stroke:rgb(32.7%,36.3%,66.1%);stroke-opacity:0.012;stroke-width:2" /><text x="199.10" y="127.22" style="fill:rgb(14.9%,14.9%,14.9%);fill-opacity:1.0;stroke:rgb(0.0%,0.0%,0.0%);stroke-opacity:0.012;stroke-width:2;text-anchor:middle" /><path d="M 199.75 115.22 L 154.80 115.22 L 154.80 173.88 L 150.10 173.88" style="stroke:rgb(99.6%,86.3%,53.2%);stroke-opacity:0.304;stroke-width:2" /><text x="154.80" y="156.55" style="fill:rgb(14.9%,14.9%,14.9%);fill-opacity:1.0;stroke:rgb(0.0%,0.0%,0.0%);stroke-opacity:0.304;stroke-width:2;text-anchor:middle" /><path d="M 199.75 173.88 L 186.02 173.88 L 186.02 154.33 L 150.10 154.33" style="stroke:rgb(32.0%,37.2%,66.5%);stroke-opacity:0.014;stroke-width:2" /><text x="186.02" y="176.10" style="fill:rgb(14.9%,14.9%,14.9%);fill-opacity:1.0;stroke:rgb(0.0%,0.0%,0.0%);stroke-opacity:0.014;stroke-width:2;text-anchor:middle" /><path d="M 199.75 95.67 L 155.06 95.67 L 155.06 173.88 L 150.10 173.88" style="stroke:rgb(68.9%,87.4%,63.9%);stroke-opacity:0.154;stroke-width:2" /><text x="155.06" y="146.78" style="fill:rgb(14.9%,14.9%,14.9%);fill-opacity:1.0;stroke:rgb(0.0%,0.0%,0.0%);stroke-opacity:0.154;stroke-width:2;text-anchor:middle" /><path d="M 199.75 76.12 L 167.74 76.12 L 167.74 193.43 L 150.10 193.43" style="stroke:rgb(76.3%,90.4%,62.4%);stroke-opacity:0.17;stroke-width:2" /><text x="167.74" y="146.78" style="fill:rgb(14.9%,14.9%,14.9%);fill-opacity:1.0;stroke:rgb(0.0%,0.0%,0.0%);stroke-opacity:0.17;stroke-width:2;text-anchor:middle" /><path d="M 199.75 134.78 L 153.14 134.78 L 153.14 173.88 L 150.10 173.88" style="stroke:rgb(32.7%,36.4%,66.1%);stroke-opacity:0.0122;stroke-width:2" /><text x="153.14" y="166.33" style="fill:rgb(14.9%,14.9%,14.9%);fill-opacity:1.0;stroke:rgb(0.0%,0.0%,0.0%);stroke-opacity:0.0122;stroke-width:2;text-anchor:middle" /><path d="M 150.10 105.45 L 129.63 105.45 L 179.29 173.88 L 150.10 173.88" style="stroke:rgb(32.7%,36.3%,66.1%);stroke-opacity:0.012;stroke-width:2" /><text x="154.46" y="151.66" style="fill:rgb(14.9%,14.9%,14.9%);fill-opacity:1.0;stroke:rgb(0.0%,0.0%,0.0%);stroke-opacity:0.012;stroke-width:2;text-anchor:middle" /><path d="M 199.75 56.57 L 170.14 56.57 L 170.14 193.43 L 150.10 193.43" style="stroke:rgb(26.1%,44.9%,70.1%);stroke-opacity:0.0311;stroke-width:2" /><text x="170.14" y="137.00" style="fill:rgb(14.9%,14.9%,14.9%);fill-opacity:1.0;stroke:rgb(0.0%,0.0%,0.0%);stroke-opacity:0.0311;stroke-width:2;text-anchor:middle" /><path d="M 150.10 183.65 L 143.37 183.65 L 193.03 76.12 L 150.10 76.12" style="stroke:rgb(34.9%,33.6%,64.8%);stroke-opacity:0.00581;stroke-width:2" /><text x="168.20" y="141.89" style="fill:rgb(14.9%,14.9%,14.9%);fill-opacity:1.0;stroke:rgb(0.0%,0.0%,0.0%);stroke-opacity:0.00581;stroke-width:2;text-anchor:middle" /><path d="M 199.75 115.22 L 153.66 115.22 L 153.66 173.88 L 150.10 173.88" style="stroke:rgb(62.7%,85.0%,64.4%);stroke-opacity:0.142;stroke-width:2" /><text x="153.66" y="156.55" style="fill:rgb(14.9%,14.9%,14.9%);fill-opacity:1.0;stroke:rgb(0.0%,0.0%,0.0%);stroke-opacity:0.142;stroke-width:2;text-anchor:middle" /><path d="M 199.75 56.57 L 150.34 56.57 L 150.34 134.78 L 150.10 134.78" style="stroke:rgb(29.6%,40.4%,68.0%);stroke-opacity:0.021;stroke-width:2" /><text x="150.34" y="107.67" style="fill:rgb(14.9%,14.9%,14.9%);fill-opacity:1.0;stroke:rgb(0.0%,0.0%,0.0%);stroke-opacity:0.021;stroke-width:2;text-anchor:middle" /><path d="M 199.75 56.57 L 191.06 56.57 L 191.06 154.33 L 150.10 154.33" style="stroke:rgb(31.4%,38.0%,66.9%);stroke-opacity:0.0158;stroke-width:2" /><text x="191.06" y="117.45" style="fill:rgb(14.9%,14.9%,14.9%);fill-opacity:1.0;stroke:rgb(0.0%,0.0%,0.0%);stroke-opacity:0.0158;stroke-width:2;text-anchor:middle" /><path d="M 199.75 134.78 L 170.30 134.78 L 170.30 115.22 L 150.10 115.22" style="stroke:rgb(31.6%,66.8%,68.6%);stroke-opacity:0.0795;stroke-width:2" /><text x="170.30" y="137.00" style="fill:rgb(14.9%,14.9%,14.9%);fill-opacity:1.0;stroke:rgb(0.0%,0.0%,0.0%);stroke-opacity:0.0795;stroke-width:2;text-anchor:middle" /><path d="M 199.75 95.67 L 196.85 95.67 L 196.85 56.57 L 150.10 56.57" style="stroke:rgb(20.8%,54.7%,73.6%);stroke-opacity:0.053;stroke-width:2" /><text x="196.85" y="88.12" style="fill:rgb(14.9%,14.9%,14.9%);fill-opacity:1.0;stroke:rgb(0.0%,0.0%,0.0%);stroke-opacity:0.053;stroke-width:2;text-anchor:middle" /><path d="M 150.10 183.65 L 140.40 183.65 L 190.06 115.22 L 150.10 115.22" style="stroke:rgb(28.4%,63.1%,70.1%);stroke-opacity:0.0715;stroke-width:2" /><text x="165.23" y="161.44" style="fill:rgb(14.9%,14.9%,14.9%);fill-opacity:1.0;stroke:rgb(0.0%,0.0%,0.0%);stroke-opacity:0.0715;stroke-width:2;text-anchor:middle" /><path d="M 199.75 95.67 L 189.67 95.67 L 189.67 56.57 L 150.10 56.57" style="stroke:rgb(20.4%,54.2%,73.8%);stroke-opacity:0.0519;stroke-width:2" /><text x="189.67" y="88.12" style="fill:rgb(14.9%,14.9%,14.9%);fill-opacity:1.0;stroke:rgb(0.0%,0.0%,0.0%);stroke-opacity:0.0519;stroke-width:2;text-anchor:middle" /><path d="M 199.75 154.33 L 156.06 154.33 L 156.06 173.88 L 150.10 173.88" style="stroke:rgb(33.6%,68.9%,67.7%);stroke-opacity:0.0842;stroke-width:2" /><text x="156.06" y="176.10" style="fill:rgb(14.9%,14.9%,14.9%);fill-opacity:1.0;stroke:rgb(0.0%,0.0%,0.0%);stroke-opacity:0.0842;stroke-width:2;text-anchor:middle" /><path d="M 199.75 115.22 L 188.15 115.22 L 138.49 144.55 L 100.44 144.55" style="stroke:rgb(26.2%,60.7%,71.1%);stroke-opacity:0.0662;stroke-width:2" /><text x="163.32" y="141.89" style="fill:rgb(14.9%,14.9%,14.9%);fill-opacity:1.0;stroke:rgb(0.0%,0.0%,0.0%);stroke-opacity:0.0662;stroke-width:2;text-anchor:middle" /><path d="M 199.75 56.57 L 161.31 56.57 L 161.31 95.67 L 150.10 95.67" style="stroke:rgb(30.5%,39.3%,67.4%);stroke-opacity:0.0185;stroke-width:2" /><text x="161.31" y="88.12" style="fill:rgb(14.9%,14.9%,14.9%);fill-opacity:1.0;stroke:rgb(0.0%,0.0%,0.0%);stroke-opacity:0.0185;stroke-width:2;text-anchor:middle" /><path d="M 199.75 115.22 L 180.45 115.22 L 180.45 173.88 L 150.10 173.88" style="stroke:rgb(99.5%,84.3%,51.5%);stroke-opacity:0.309;stroke-width:2" /><text x="180.45" y="156.55" style="fill:rgb(14.9%,14.9%,14.9%);fill-opacity:1.0;stroke:rgb(0.0%,0.0%,0.0%);stroke-opacity:0.309;stroke-width:2;text-anchor:middle" /><path d="M 199.75 56.57 L 164.69 56.57 L 164.69 193.43 L 150.10 193.43" style="stroke:rgb(31.6%,37.8%,66.8%);stroke-opacity:0.0153;stroke-width:2" /><text x="164.69" y="137.00" style="fill:rgb(14.9%,14.9%,14.9%);fill-opacity:1.0;stroke:rgb(0.0%,0.0%,0.0%);stroke-opacity:0.0153;stroke-width:2;text-anchor:middle" /><path d="M 199.75 95.67 L 170.92 95.67 L 170.92 76.12 L 150.10 76.12" style="stroke:rgb(29.4%,40.6%,68.1%);stroke-opacity:0.0216;stroke-width:2" /><text x="170.92" y="97.90" style="fill:rgb(14.9%,14.9%,14.9%);fill-opacity:1.0;stroke:rgb(0.0%,0.0%,0.0%);stroke-opacity:0.0216;stroke-width:2;text-anchor:middle" /><path d="M 150.10 183.65 L 149.06 183.65 L 198.71 95.67 L 150.10 95.67" style="stroke:rgb(32.6%,36.5%,66.2%);stroke-opacity:0.0124;stroke-width:2" /><text x="173.89" y="151.66" style="fill:rgb(14.9%,14.9%,14.9%);fill-opacity:1.0;stroke:rgb(0.0%,0.0%,0.0%);stroke-opacity:0.0124;stroke-width:2;text-anchor:middle" /><path d="M 199.75 173.88 L 182.35 173.88 L 182.35 115.22 L 150.10 115.22" style="stroke:rgb(28.1%,62.8%,70.2%);stroke-opacity:0.0708;stroke-width:2" /><text x="182.35" y="156.55" style="fill:rgb(14.9%,14.9%,14.9%);fill-opacity:1.0;stroke:rgb(0.0%,0.0%,0.0%);stroke-opacity:0.0708;stroke-width:2;text-anchor:middle" /><path d="M 199.75 115.22 L 177.84 115.22 L 177.84 173.88 L 150.10 173.88" style="stroke:rgb(67.5%,86.9%,64.2%);stroke-opacity:0.151;stroke-width:2" /><text x="177.84" y="156.55" style="fill:rgb(14.9%,14.9%,14.9%);fill-opacity:1.0;stroke:rgb(0.0%,0.0%,0.0%);stroke-opacity:0.151;stroke-width:2;text-anchor:middle" /><path d="M 199.75 193.43 L 184.59 193.43 L 184.59 56.57 L 150.10 56.57" style="stroke:rgb(29.3%,40.7%,68.1%);stroke-opacity:0.0218;stroke-width:2" /><text x="184.59" y="137.00" style="fill:rgb(14.9%,14.9%,14.9%);fill-opacity:1.0;stroke:rgb(0.0%,0.0%,0.0%);stroke-opacity:0.0218;stroke-width:2;text-anchor:middle" /><path d="M 199.75 193.43 L 186.37 193.43 L 186.37 76.12 L 150.10 76.12" style="stroke:rgb(22.6%,49.4%,72.3%);stroke-opacity:0.0413;stroke-width:2" /><text x="186.37" y="146.78" style="fill:rgb(14.9%,14.9%,14.9%);fill-opacity:1.0;stroke:rgb(0.0%,0.0%,0.0%);stroke-opacity:0.0413;stroke-width:2;text-anchor:middle" /><path d="M 199.75 95.67 L 178.47 95.67 L 178.47 76.12 L 150.10 76.12" style="stroke:rgb(25.3%,46.0%,70.6%);stroke-opacity:0.0335;stroke-width:2" /><text x="178.47" y="97.90" style="fill:rgb(14.9%,14.9%,14.9%);fill-opacity:1.0;stroke:rgb(0.0%,0.0%,0.0%);stroke-opacity:0.0335;stroke-width:2;text-anchor:middle" /><path d="M 199.75 134.78 L 171.74 134.78 L 171.74 115.22 L 150.10 115.22" style="stroke:rgb(87.0%,94.8%,60.3%);stroke-opacity:0.193;stroke-width:2" /><text x="171.74" y="137.00" style="fill:rgb(14.9%,14.9%,14.9%);fill-opacity:1.0;stroke:rgb(0.0%,0.0%,0.0%);stroke-opacity:0.193;stroke-width:2;text-anchor:middle" /><path d="M 150.10 66.35 L 135.08 66.35 L 184.74 193.43 L 150.10 193.43" style="stroke:rgb(31.9%,37.5%,66.6%);stroke-opacity:0.0145;stroke-width:2" /><text x="159.91" y="141.89" style="fill:rgb(14.9%,14.9%,14.9%);fill-opacity:1.0;stroke:rgb(0.0%,0.0%,0.0%);stroke-opacity:0.0145;stroke-width:2;text-anchor:middle" /><path d="M 199.75 193.43 L 165.94 193.43 L 165.94 76.12 L 150.10 76.12" style="stroke:rgb(20.3%,52.5%,73.7%);stroke-opacity:0.0481;stroke-width:2" /><text x="165.94" y="146.78" style="fill:rgb(14.9%,14.9%,14.9%);fill-opacity:1.0;stroke:rgb(0.0%,0.0%,0.0%);stroke-opacity:0.0481;stroke-width:2;text-anchor:middle" /><path d="M 199.75 76.12 L 162.29 76.12 L 162.29 173.88 L 150.10 173.88" style="stroke:rgb(32.7%,36.4%,66.1%);stroke-opacity:0.0122;stroke-width:2" /><text x="162.29" y="137.00" style="fill:rgb(14.9%,14.9%,14.9%);fill-opacity:1.0;stroke:rgb(0.0%,0.0%,0.0%);stroke-opacity:0.0122;stroke-width:2;text-anchor:middle" /><path d="M 150.10 105.45 L 134.97 105.45 L 184.63 173.88 L 150.10 173.88" style="stroke:rgb(30.9%,38.7%,67.2%);stroke-opacity:0.0172;stroke-width:2" /><text x="159.80" y="151.66" style="fill:rgb(14.9%,14.9%,14.9%);fill-opacity:1.0;stroke:rgb(0.0%,0.0%,0.0%);stroke-opacity:0.0172;stroke-width:2;text-anchor:middle" /><path d="M 199.75 193.43 L 187.02 193.43 L 187.02 76.12 L 150.10 76.12" style="stroke:rgb(31.3%,38.1%,66.9%);stroke-opacity:0.016;stroke-width:2" /><text x="187.02" y="146.78" style="fill:rgb(14.9%,14.9%,14.9%);fill-opacity:1.0;stroke:rgb(0.0%,0.0%,0.0%);stroke-opacity:0.016;stroke-width:2;text-anchor:middle" /><path d="M 199.75 134.78 L 199.12 134.78 L 50.78 125.00 L 50.78 125.00" style="stroke:rgb(99.7%,89.3%,57.0%);stroke-opacity:0.294;stroke-width:2" /><text x="124.95" y="141.89" style="fill:rgb(14.9%,14.9%,14.9%);fill-opacity:1.0;stroke:rgb(0.0%,0.0%,0.0%);stroke-opacity:0.294;stroke-width:2;text-anchor:middle" /><path d="M 199.75 154.33 L 175.43 154.33 L 50.78 125.00 L 50.78 125.00" style="stroke:rgb(26.9%,43.9%,69.6%);stroke-opacity:0.0288;stroke-width:2" /><text x="113.11" y="151.66" style="fill:rgb(14.9%,14.9%,14.9%);fill-opacity:1.0;stroke:rgb(0.0%,0.0%,0.0%);stroke-opacity:0.0288;stroke-width:2;text-anchor:middle" /><path d="M 199.75 134.78 L 195.93 134.78 L 195.93 193.43 L 150.10 193.43" style="stroke:rgb(31.8%,37.5%,66.6%);stroke-opacity:0.0146;stroke-width:2" /><text x="195.93" y="176.10" style="fill:rgb(14.9%,14.9%,14.9%);fill-opacity:1.0;stroke:rgb(0.0%,0.0%,0.0%);stroke-opacity:0.0146;stroke-width:2;text-anchor:middle" /><path d="M 199.75 56.57 L 167.33 56.57 L 167.33 193.43 L 150.10 193.43" style="stroke:rgb(33.0%,35.9%,65.9%);stroke-opacity:0.0111;stroke-width:2" /><text x="167.33" y="137.00" style="fill:rgb(14.9%,14.9%,14.9%);fill-opacity:1.0;stroke:rgb(0.0%,0.0%,0.0%);stroke-opacity:0.0111;stroke-width:2;text-anchor:middle" /><path d="M 199.75 56.57 L 190.37 56.57 L 190.37 193.43 L 150.10 193.43" style="stroke:rgb(31.3%,38.1%,66.9%);stroke-opacity:0.016;stroke-width:2" /><text x="190.37" y="137.00" style="fill:rgb(14.9%,14.9%,14.9%);fill-opacity:1.0;stroke:rgb(0.0%,0.0%,0.0%);stroke-opacity:0.016;stroke-width:2;text-anchor:middle" /><path d="M 150.10 144.55 L 133.60 144.55 L 183.25 115.22 L 150.10 115.22" style="stroke:rgb(90.2%,96.1%,59.6%);stroke-opacity:0.2;stroke-width:2" /><text x="158.42" y="141.89" style="fill:rgb(14.9%,14.9%,14.9%);fill-opacity:1.0;stroke:rgb(0.0%,0.0%,0.0%);stroke-opacity:0.2;stroke-width:2;text-anchor:middle" /><path d="M 199.75 115.22 L 182.66 115.22 L 182.66 173.88 L 150.10 173.88" style="stroke:rgb(28.8%,63.6%,69.9%);stroke-opacity:0.0725;stroke-width:2" /><text x="182.66" y="156.55" style="fill:rgb(14.9%,14.9%,14.9%);fill-opacity:1.0;stroke:rgb(0.0%,0.0%,0.0%);stroke-opacity:0.0725;stroke-width:2;text-anchor:middle" /><path d="M 199.75 193.43 L 167.66 193.43 L 50.78 125.00 L 50.78 125.00" style="stroke:rgb(64.4%,85.6%,64.4%);stroke-opacity:0.145;stroke-width:2" /><text x="109.22" y="171.22" style="fill:rgb(14.9%,14.9%,14.9%);fill-opacity:1.0;stroke:rgb(0.0%,0.0%,0.0%);stroke-opacity:0.145;stroke-width:2;text-anchor:middle" /><path d="M 199.75 76.12 L 165.15 76.12 L 165.15 95.67 L 150.10 95.67" style="stroke:rgb(29.6%,40.4%,68.0%);stroke-opacity:0.0211;stroke-width:2" /><text x="165.15" y="97.90" style="fill:rgb(14.9%,14.9%,14.9%);fill-opacity:1.0;stroke:rgb(0.0%,0.0%,0.0%);stroke-opacity:0.0211;stroke-width:2;text-anchor:middle" /><path d="M 199.75 115.22 L 182.48 115.22 L 182.48 134.78 L 150.10 134.78" style="stroke:rgb(31.3%,38.2%,67.0%);stroke-opacity:0.0162;stroke-width:2" /><text x="182.48" y="137.00" style="fill:rgb(14.9%,14.9%,14.9%);fill-opacity:1.0;stroke:rgb(0.0%,0.0%,0.0%);stroke-opacity:0.0162;stroke-width:2;text-anchor:middle" /><path d="M 199.75 76.12 L 152.72 76.12 L 152.72 95.67 L 150.10 95.67" style="stroke:rgb(32.1%,37.1%,66.5%);stroke-opacity:0.0138;stroke-width:2" /><text x="152.72" y="97.90" style="fill:rgb(14.9%,14.9%,14.9%);fill-opacity:1.0;stroke:rgb(0.0%,0.0%,0.0%);stroke-opacity:0.0138;stroke-width:2;text-anchor:middle" /><path d="M 199.75 76.12 L 169.38 76.12 L 169.38 154.33 L 150.10 154.33" style="stroke:rgb(32.5%,36.6%,66.2%);stroke-opacity:0.0125;stroke-width:2" /><text x="169.38" y="127.22" style="fill:rgb(14.9%,14.9%,14.9%);fill-opacity:1.0;stroke:rgb(0.0%,0.0%,0.0%);stroke-opacity:0.0125;stroke-width:2;text-anchor:middle" /><path d="M 199.75 95.67 L 174.32 95.67 L 50.78 125.00 L 50.78 125.00" style="stroke:rgb(23.9%,47.8%,71.5%);stroke-opacity:0.0377;stroke-width:2" /><text x="112.55" y="122.34" style="fill:rgb(14.9%,14.9%,14.9%);fill-opacity:1.0;stroke:rgb(0.0%,0.0%,0.0%);stroke-opacity:0.0377;stroke-width:2;text-anchor:middle" /><path d="M 199.75 134.78 L 195.17 134.78 L 195.17 193.43 L 150.10 193.43" style="stroke:rgb(29.0%,41.2%,68.4%);stroke-opacity:0.0228;stroke-width:2" /><text x="195.17" y="176.10" style="fill:rgb(14.9%,14.9%,14.9%);fill-opacity:1.0;stroke:rgb(0.0%,0.0%,0.0%);stroke-opacity:0.0228;stroke-width:2;text-anchor:middle" /><path d="M 199.75 76.12 L 151.93 76.12 L 151.93 95.67 L 150.10 95.67" style="stroke:rgb(89.1%,32.8%,28.8%);stroke-opacity:0.427;stroke-width:2" /><text x="151.93" y="97.90" style="fill:rgb(14.9%,14.9%,14.9%);fill-opacity:1.0;stroke:rgb(0.0%,0.0%,0.0%);stroke-opacity:0.427;stroke-width:2;text-anchor:middle" /><path d="M 199.75 95.67 L 185.38 95.67 L 185.38 173.88 L 150.10 173.88" style="stroke:rgb(33.1%,35.9%,65.8%);stroke-opacity:0.0109;stroke-width:2" /><text x="185.38" y="146.78" style="fill:rgb(14.9%,14.9%,14.9%);fill-opacity:1.0;stroke:rgb(0.0%,0.0%,0.0%);stroke-opacity:0.0109;stroke-width:2;text-anchor:middle" /><path d="M 199.75 173.88 L 196.87 173.88 L 196.87 115.22 L 150.10 115.22" style="stroke:rgb(67.1%,86.7%,64.3%);stroke-opacity:0.15;stroke-width:2" /><text x="196.87" y="156.55" style="fill:rgb(14.9%,14.9%,14.9%);fill-opacity:1.0;stroke:rgb(0.0%,0.0%,0.0%);stroke-opacity:0.15;stroke-width:2;text-anchor:middle" /><path d="M 199.75 115.22 L 165.68 115.22 L 116.03 144.55 L 100.44 144.55" style="stroke:rgb(99.6%,88.1%,54.9%);stroke-opacity:0.299;stroke-width:2" /><text x="140.85" y="141.89" style="fill:rgb(14.9%,14.9%,14.9%);fill-opacity:1.0;stroke:rgb(0.0%,0.0%,0.0%);stroke-opacity:0.299;stroke-width:2;text-anchor:middle" /><path d="M 199.75 76.12 L 173.98 76.12 L 173.98 154.33 L 150.10 154.33" style="stroke:rgb(34.4%,34.2%,65.0%);stroke-opacity:0.0071;stroke-width:2" /><text x="173.98" y="127.22" style="fill:rgb(14.9%,14.9%,14.9%);fill-opacity:1.0;stroke:rgb(0.0%,0.0%,0.0%);stroke-opacity:0.0071;stroke-width:2;text-anchor:middle" /><path d="M 199.75 134.78 L 197.88 134.78 L 197.88 193.43 L 150.10 193.43" style="stroke:rgb(26.2%,44.8%,70.1%);stroke-opacity:0.0309;stroke-width:2" /><text x="197.88" y="176.10" style="fill:rgb(14.9%,14.9%,14.9%);fill-opacity:1.0;stroke:rgb(0.0%,0.0%,0.0%);stroke-opacity:0.0309;stroke-width:2;text-anchor:middle" /><path d="M 199.75 173.88 L 179.83 173.88 L 179.83 95.67 L 150.10 95.67" style="stroke:rgb(73.1%,89.1%,63.1%);stroke-opacity:0.163;stroke-width:2" /><text x="179.83" y="146.78" style="fill:rgb(14.9%,14.9%,14.9%);fill-opacity:1.0;stroke:rgb(0.0%,0.0%,0.0%);stroke-opacity:0.163;stroke-width:2;text-anchor:middle" /><path d="M 199.75 95.67 L 181.10 95.67 L 50.78 125.00 L 50.78 125.00" style="stroke:rgb(23.3%,48.5%,71.8%);stroke-opacity:0.0392;stroke-width:2" /><text x="115.94" y="122.34" style="fill:rgb(14.9%,14.9%,14.9%);fill-opacity:1.0;stroke:rgb(0.0%,0.0%,0.0%);stroke-opacity:0.0392;stroke-width:2;text-anchor:middle" /><path d="M 199.75 134.78 L 166.32 134.78 L 166.32 173.88 L 150.10 173.88" style="stroke:rgb(30.0%,64.9%,69.3%);stroke-opacity:0.0755;stroke-width:2" /><text x="166.32" y="166.33" style="fill:rgb(14.9%,14.9%,14.9%);fill-opacity:1.0;stroke:rgb(0.0%,0.0%,0.0%);stroke-opacity:0.0755;stroke-width:2;text-anchor:middle" /><path d="M 199.75 95.67 L 182.50 95.67 L 182.50 173.88 L 150.10 173.88" style="stroke:rgb(60.6%,84.1%,64.4%);stroke-opacity:0.138;stroke-width:2" /><text x="182.50" y="146.78" style="fill:rgb(14.9%,14.9%,14.9%);fill-opacity:1.0;stroke:rgb(0.0%,0.0%,0.0%);stroke-opacity:0.138;stroke-width:2;text-anchor:middle" /><path d="M 199.75 95.67 L 183.41 95.67 L 183.41 56.57 L 150.10 56.57" style="stroke:rgb(22.6%,49.4%,72.3%);stroke-opacity:0.0412;stroke-width:2" /><text x="183.41" y="88.12" style="fill:rgb(14.9%,14.9%,14.9%);fill-opacity:1.0;stroke:rgb(0.0%,0.0%,0.0%);stroke-opacity:0.0412;stroke-width:2;text-anchor:middle" /><path d="M 199.75 115.22 L 173.97 115.22 L 124.32 144.55 L 100.44 144.55" style="stroke:rgb(50.3%,80.1%,64.6%);stroke-opacity:0.119;stroke-width:2" /><text x="149.15" y="141.89" style="fill:rgb(14.9%,14.9%,14.9%);fill-opacity:1.0;stroke:rgb(0.0%,0.0%,0.0%);stroke-opacity:0.119;stroke-width:2;text-anchor:middle" /><path d="M 199.75 115.22 L 182.84 115.22 L 182.84 134.78 L 150.10 134.78" style="stroke:rgb(31.8%,37.5%,66.6%);stroke-opacity:0.0146;stroke-width:2" /><text x="182.84" y="137.00" style="fill:rgb(14.9%,14.9%,14.9%);fill-opacity:1.0;stroke:rgb(0.0%,0.0%,0.0%);stroke-opacity:0.0146;stroke-width:2;text-anchor:middle" /><path d="M 150.10 66.35 L 106.93 66.35 L 156.59 95.67 L 150.10 95.67" style="stroke:rgb(37.3%,73.0%,66.0%);stroke-opacity:0.0933;stroke-width:2" /><text x="131.76" y="93.01" style="fill:rgb(14.9%,14.9%,14.9%);fill-opacity:1.0;stroke:rgb(0.0%,0.0%,0.0%);stroke-opacity:0.0933;stroke-width:2;text-anchor:middle" /><path d="M 199.75 154.33 L 153.86 154.33 L 153.86 173.88 L 150.10 173.88" style="stroke:rgb(92.2%,96.9%,62.7%);stroke-opacity:0.21;stroke-width:2" /><text x="153.86" y="176.10" style="fill:rgb(14.9%,14.9%,14.9%);fill-opacity:1.0;stroke:rgb(0.0%,0.0%,0.0%);stroke-opacity:0.21;stroke-width:2;text-anchor:middle" /><path d="M 199.75 76.12 L 188.62 76.12 L 188.62 95.67 L 150.10 95.67" style="stroke:rgb(26.0%,45.1%,70.2%);stroke-opacity:0.0316;stroke-width:2" /><text x="188.62" y="97.90" style="fill:rgb(14.9%,14.9%,14.9%);fill-opacity:1.0;stroke:rgb(0.0%,0.0%,0.0%);stroke-opacity:0.0316;stroke-width:2;text-anchor:middle" /><path d="M 199.75 154.33 L 150.99 154.33 L 150.99 173.88 L 150.10 173.88" style="stroke:rgb(64.4%,85.6%,64.4%);stroke-opacity:0.145;stroke-width:2" /><text x="150.99" y="176.10" style="fill:rgb(14.9%,14.9%,14.9%);fill-opacity:1.0;stroke:rgb(0.0%,0.0%,0.0%);stroke-opacity:0.145;stroke-width:2;text-anchor:middle" /><path d="M 150.10 105.45 L 105.41 105.45 L 155.07 173.88 L 150.10 173.88" style="stroke:rgb(98.3%,61.6%,35.0%);stroke-opacity:0.363;stroke-width:2" /><text x="130.24" y="151.66" style="fill:rgb(14.9%,14.9%,14.9%);fill-opacity:1.0;stroke:rgb(0.0%,0.0%,0.0%);stroke-opacity:0.363;stroke-width:2;text-anchor:middle" /><path d="M 199.75 115.22 L 151.41 115.22 L 151.41 173.88 L 150.10 173.88" style="stroke:rgb(41.1%,76.5%,64.7%);stroke-opacity:0.102;stroke-width:2" /><text x="151.41" y="156.55" style="fill:rgb(14.9%,14.9%,14.9%);fill-opacity:1.0;stroke:rgb(0.0%,0.0%,0.0%);stroke-opacity:0.102;stroke-width:2;text-anchor:middle" /><path d="M 199.75 115.22 L 183.95 115.22 L 183.95 173.88 L 150.10 173.88" style="stroke:rgb(72.6%,88.9%,63.2%);stroke-opacity:0.162;stroke-width:2" /><text x="183.95" y="156.55" style="fill:rgb(14.9%,14.9%,14.9%);fill-opacity:1.0;stroke:rgb(0.0%,0.0%,0.0%);stroke-opacity:0.162;stroke-width:2;text-anchor:middle" /></g><g class="toytree-Nodes" style="fill:rgb(40.0%,76.1%,64.7%);fill-opacity:1.0;stroke:rgb(14.9%,14.9%,14.9%);stroke-opacity:1.0;stroke-width:1.5" /><g class="toytree-TipLabels" style="fill:rgb(14.5%,14.5%,14.5%);fill-opacity:1.0;font-family:Helvetica;font-size:12px;font-weight:300;vertical-align:baseline;white-space:pre;stroke:none"><g class="toytree-TipLabel" transform="translate(199.751,56.5693)"><text x="15.0" y="3.066" style="fill:rgb(14.5%,14.5%,14.5%);fill-opacity:1.0">r0</text></g><g class="toytree-TipLabel" transform="translate(199.751,76.121)"><text x="15.0" y="3.066" style="fill:rgb(14.5%,14.5%,14.5%);fill-opacity:1.0">r1</text></g><g class="toytree-TipLabel" transform="translate(199.751,95.6726)"><text x="15.0" y="3.066" style="fill:rgb(14.5%,14.5%,14.5%);fill-opacity:1.0">r2</text></g><g class="toytree-TipLabel" transform="translate(199.751,115.224)"><text x="15.0" y="3.066" style="fill:rgb(14.5%,14.5%,14.5%);fill-opacity:1.0">r3</text></g><g class="toytree-TipLabel" transform="translate(199.751,134.776)"><text x="15.0" y="3.066" style="fill:rgb(14.5%,14.5%,14.5%);fill-opacity:1.0">r4</text></g><g class="toytree-TipLabel" transform="translate(199.751,154.327)"><text x="15.0" y="3.066" style="fill:rgb(14.5%,14.5%,14.5%);fill-opacity:1.0">r5</text></g><g class="toytree-TipLabel" transform="translate(199.751,173.879)"><text x="15.0" y="3.066" style="fill:rgb(14.5%,14.5%,14.5%);fill-opacity:1.0">r6</text></g><g class="toytree-TipLabel" transform="translate(199.751,193.431)"><text x="15.0" y="3.066" style="fill:rgb(14.5%,14.5%,14.5%);fill-opacity:1.0">r7</text></g></g></g></g></g><g class="toyplot-coordinates-Numberline" id="t45ff16b69bcd4d77a334d054395f8004"><clipPath id="tdf1bb02ae5c2421aa1ad0ae90db20951"><rect x="0" y="-20.0" width="140.0" height="40.0" /></clipPath><g clip-path="url(#tdf1bb02ae5c2421aa1ad0ae90db20951)" transform="translate(250.0,195.0)rotate(-90.0)"><g class="toyplot-color-Map" id="tbfd2d7f7c6f2469fb3e7e7b5dec0ba41"><defs><linearGradient id="td8ed2ef9c96d445b8913653e97124452" x1="0.0" x2="140.0" y1="0" y2="0" gradientUnits="userSpaceOnUse"><stop stop-color="rgb(36.9%,31%,63.5%)" stop-opacity="1.0" offset="0.0" /><stop stop-color="rgb(34.1%,34.5%,65.2%)" stop-opacity="1.0" offset="0.015873015873015872" /><stop stop-color="rgb(31.4%,38.1%,66.9%)" stop-opacity="1.0" offset="0.031746031746031744" /><stop stop-color="rgb(28.6%,41.6%,68.6%)" stop-opacity="1.0" offset="0.047619047619047616" /><stop stop-color="rgb(25.9%,45.2%,70.3%)" stop-opacity="1.0" offset="0.06349206349206349" /><stop stop-color="rgb(23.2%,48.7%,71.9%)" stop-opacity="1.0" offset="0.07936507936507936" /><stop stop-color="rgb(20.4%,52.3%,73.6%)" stop-opacity="1.0" offset="0.09523809523809523" /><stop stop-color="rgb(21.9%,55.9%,73.1%)" stop-opacity="1.0" offset="0.1111111111111111" /><stop stop-color="rgb(25.1%,59.5%,71.6%)" stop-opacity="1.0" offset="0.12698412698412698" /><stop stop-color="rgb(28.3%,63.1%,70.1%)" stop-opacity="1.0" offset="0.14285714285714285" /><stop stop-color="rgb(31.6%,66.7%,68.6%)" stop-opacity="1.0" offset="0.15873015873015872" /><stop stop-color="rgb(34.8%,70.3%,67.1%)" stop-opacity="1.0" offset="0.1746031746031746" /><stop stop-color="rgb(38.1%,73.9%,65.6%)" stop-opacity="1.0" offset="0.19047619047619047" /><stop stop-color="rgb(41.7%,76.8%,64.7%)" stop-opacity="1.0" offset="0.20634920634920634" /><stop stop-color="rgb(46%,78.4%,64.6%)" stop-opacity="1.0" offset="0.2222222222222222" /><stop stop-color="rgb(50.3%,80.1%,64.6%)" stop-opacity="1.0" offset="0.23809523809523805" /><stop stop-color="rgb(54.6%,81.8%,64.5%)" stop-opacity="1.0" offset="0.25396825396825395" /><stop stop-color="rgb(58.9%,83.5%,64.4%)" stop-opacity="1.0" offset="0.2698412698412698" /><stop stop-color="rgb(63.2%,85.2%,64.4%)" stop-opacity="1.0" offset="0.2857142857142857" /><stop stop-color="rgb(67.4%,86.8%,64.2%)" stop-opacity="1.0" offset="0.30158730158730157" /><stop stop-color="rgb(71.1%,88.3%,63.5%)" stop-opacity="1.0" offset="0.31746031746031744" /><stop stop-color="rgb(74.8%,89.8%,62.7%)" stop-opacity="1.0" offset="0.3333333333333333" /><stop stop-color="rgb(78.4%,91.3%,62%)" stop-opacity="1.0" offset="0.3492063492063492" /><stop stop-color="rgb(82.1%,92.8%,61.3%)" stop-opacity="1.0" offset="0.36507936507936506" /><stop stop-color="rgb(85.8%,94.3%,60.5%)" stop-opacity="1.0" offset="0.38095238095238093" /><stop stop-color="rgb(89.5%,95.8%,59.8%)" stop-opacity="1.0" offset="0.3968253968253968" /><stop stop-color="rgb(91.4%,96.6%,61.5%)" stop-opacity="1.0" offset="0.4126984126984127" /><stop stop-color="rgb(93%,97.2%,64%)" stop-opacity="1.0" offset="0.42857142857142855" /><stop stop-color="rgb(94.6%,97.8%,66.4%)" stop-opacity="1.0" offset="0.4444444444444444" /><stop stop-color="rgb(96.1%,98.4%,68.8%)" stop-opacity="1.0" offset="0.4603174603174603" /><stop stop-color="rgb(97.7%,99.1%,71.3%)" stop-opacity="1.0" offset="0.4761904761904761" /><stop stop-color="rgb(99.2%,99.7%,73.7%)" stop-opacity="1.0" offset="0.49206349206349204" /><stop stop-color="rgb(100%,99%,73.3%)" stop-opacity="1.0" offset="0.5079365079365079" /><stop stop-color="rgb(99.9%,97.1%,70%)" stop-opacity="1.0" offset="0.5238095238095237" /><stop stop-color="rgb(99.8%,95.2%,66.8%)" stop-opacity="1.0" offset="0.5396825396825397" /><stop stop-color="rgb(99.8%,93.2%,63.6%)" stop-opacity="1.0" offset="0.5555555555555556" /><stop stop-color="rgb(99.7%,91.3%,60.3%)" stop-opacity="1.0" offset="0.5714285714285714" /><stop stop-color="rgb(99.7%,89.4%,57.1%)" stop-opacity="1.0" offset="0.5873015873015872" /><stop stop-color="rgb(99.6%,87.2%,54%)" stop-opacity="1.0" offset="0.6031746031746031" /><stop stop-color="rgb(99.5%,84.1%,51.4%)" stop-opacity="1.0" offset="0.6190476190476191" /><stop stop-color="rgb(99.5%,81%,48.8%)" stop-opacity="1.0" offset="0.6349206349206349" /><stop stop-color="rgb(99.4%,77.9%,46.1%)" stop-opacity="1.0" offset="0.6507936507936507" /><stop stop-color="rgb(99.3%,74.8%,43.5%)" stop-opacity="1.0" offset="0.6666666666666666" /><stop stop-color="rgb(99.3%,71.7%,40.9%)" stop-opacity="1.0" offset="0.6825396825396826" /><stop stop-color="rgb(99.2%,68.5%,38.3%)" stop-opacity="1.0" offset="0.6984126984126984" /><stop stop-color="rgb(98.7%,64.6%,36.4%)" stop-opacity="1.0" offset="0.7142857142857142" /><stop stop-color="rgb(98.2%,60.5%,34.5%)" stop-opacity="1.0" offset="0.7301587301587301" /><stop stop-color="rgb(97.6%,56.5%,32.6%)" stop-opacity="1.0" offset="0.746031746031746" /><stop stop-color="rgb(97%,52.5%,30.8%)" stop-opacity="1.0" offset="0.7619047619047619" /><stop stop-color="rgb(96.5%,48.4%,28.9%)" stop-opacity="1.0" offset="0.7777777777777777" /><stop stop-color="rgb(95.9%,44.4%,27%)" stop-opacity="1.0" offset="0.7936507936507936" /><stop stop-color="rgb(94.5%,41%,26.7%)" stop-opacity="1.0" offset="0.8095238095238095" /><stop stop-color="rgb(92.6%,38.1%,27.5%)" stop-opacity="1.0" offset="0.8253968253968254" /><stop stop-color="rgb(90.7%,35.1%,28.2%)" stop-opacity="1.0" offset="0.8412698412698412" /><stop stop-color="rgb(88.7%,32.2%,29%)" stop-opacity="1.0" offset="0.8571428571428571" /><stop stop-color="rgb(86.8%,29.3%,29.7%)" stop-opacity="1.0" offset="0.873015873015873" /><stop stop-color="rgb(84.9%,26.4%,30.5%)" stop-opacity="1.0" offset="0.8888888888888888" /><stop stop-color="rgb(82.5%,23.2%,30.7%)" stop-opacity="1.0" offset="0.9047619047619047" /><stop stop-color="rgb(79.1%,19.4%,29.9%)" stop-opacity="1.0" offset="0.9206349206349206" /><stop stop-color="rgb(75.7%,15.6%,29.1%)" stop-opacity="1.0" offset="0.9365079365079365" /><stop stop-color="rgb(72.2%,11.8%,28.3%)" stop-opacity="1.0" offset="0.9523809523809522" /><stop stop-color="rgb(68.8%,7.99%,27.5%)" stop-opacity="1.0" offset="0.9682539682539681" /><stop stop-color="rgb(65.4%,4.19%,26.7%)" stop-opacity="1.0" offset="0.9841269841269841" /><stop stop-color="rgb(62%,0.392%,25.9%)" stop-opacity="1.0" offset="1.0" /></linearGradient></defs><rect x="0.0" y="-7.5" width="140.0" height="15" style="fill:url(#td8ed2ef9c96d445b8913653e97124452);stroke:rgb(0%,0%,0%);stroke-opacity:1.0;stroke-width:2" /></g></g><g class="toyplot-coordinates-Axis" id="tcb330cc572bf44d8acd79e4914a69c2d" transform="translate(250.0,195.0)rotate(-90.0)translate(0,20.0)"><line x1="0" y1="0" x2="140.0" y2="0" style="stroke-width:2" /><g><line x1="0.0" y1="0" x2="0.0" y2="-3" style="stroke-width:2" /><line x1="70.0" y1="0" x2="70.0" y2="-3" style="stroke-width:2" /><line x1="140.0" y1="0" x2="140.0" y2="-3" style="stroke-width:2" /></g><g><g transform="translate(0.0,6)"><text x="-7.6450000000000005" y="9.410499999999999" style="fill:rgb(16.1%,15.3%,14.1%);fill-opacity:1.0;font-family:helvetica;font-size:11.0px;font-weight:normal;stroke:none;vertical-align:baseline;white-space:pre">0.0</text></g><g transform="translate(70.0,6)"><text x="-10.703000000000001" y="9.410499999999999" style="fill:rgb(16.1%,15.3%,14.1%);fill-opacity:1.0;font-family:helvetica;font-size:11.0px;font-weight:normal;stroke:none;vertical-align:baseline;white-space:pre">0.25</text></g><g transform="translate(140.0,6)"><text x="-7.6450000000000005" y="9.410499999999999" style="fill:rgb(16.1%,15.3%,14.1%);fill-opacity:1.0;font-family:helvetica;font-size:11.0px;font-weight:normal;stroke:none;vertical-align:baseline;white-space:pre">0.5</text></g></g><g class="toyplot-coordinates-Axis-coordinates" style="visibility:hidden" transform=""><line x1="0" x2="0" y1="-3.0" y2="4.5" style="stroke:rgb(43.9%,50.2%,56.5%);stroke-opacity:1.0;stroke-width:1.0" /><text x="0" y="-6" style="alignment-baseline:alphabetic;fill:rgb(43.9%,50.2%,56.5%);fill-opacity:1.0;font-size:10px;font-weight:normal;stroke:none;text-anchor:middle" /></g></g></g><g class="toyplot-mark-Text" id="t45a8babc0b824257b39ba7dc624574dc"><g class="toyplot-Series"><g class="toyplot-Datum" transform="translate(90.0,45.0)"><text x="-28.5835" y="-3.7895000000000003" style="fill:rgb(16.1%,15.3%,14.1%);fill-opacity:1.0;font-family:helvetica;font-size:11.0px;font-weight:bold;opacity:1;stroke:none;vertical-align:baseline;white-space:pre">Major=0.71</text><text x="-42.339000000000006" y="9.410499999999999" style="fill:rgb(16.1%,15.3%,14.1%);fill-opacity:1.0;font-family:helvetica;font-size:11.0px;font-weight:bold;opacity:1;stroke:none;vertical-align:baseline;white-space:pre">Alternative=0.29</text></g></g></g></svg>