<svg class="toyplot-canvas-Canvas" xmlns:toyplot="http://www.sandia.gov/toyplot" xmlns:xlink="http://www.w3.org/1999/xlink" xmlns="http://www.w3.org/2000/svg" width="290.0px" height="250.0px" viewBox="0 0 290.0 250.0" preserveAspectRatio="xMidYMid meet" style="background-color:transparent;border-color:#292724;border-style:none;border-width:1.0;fill:rgb(16.1%,15.3%,14.1%);fill-opacity:1.0;font-family:Helvetica;font-size:12px;opacity:1.0;stroke:rgb(16.1%,15.3%,14.1%);stroke-opacity:1.0;stroke-width:1.0" id="t45a2ce40e28a4d67b23f2382e5a96cc8"><g class="toyplot-coordinates-Cartesian" id="tb8c93feb3bfb4d609e55d23319b5dc58"><clipPath id="t89c4a8b43ac844a9b8dcb9281423c816"><rect x="35.0" y="35.0" width="220.0" height="180.0" /></clipPath><g clip-path="url(#t89c4a8b43ac844a9b8dcb9281423c816)"><g class="toytree-mark-Toytree" id="te56171dd74514e309c52c9ba15d7e255"><g class="toytree-Edges" style="stroke:rgb(14.5%,14.5%,14.5%);stroke-opacity:1.0;stroke-linecap:round;stroke-width:2.0;fill:none"><path d="M 150.1 66.3 L 150.1 56.6 L 199.8 56.6" id="8,0" style="" /><path d="M 150.1 66.3 L 150.1 76.1 L 199.8 76.1" id="8,1" style="" /><path d="M 150.1 105.4 L 150.1 95.7 L 199.8 95.7" id="9,2" style="" /><path d="M 150.1 105.4 L 150.1 115.2 L 199.8 115.2" id="9,3" style="" /><path d="M 150.1 144.6 L 150.1 134.8 L 199.8 134.8" id="11,4" style="" /><path d="M 150.1 144.6 L 150.1 154.3 L 199.8 154.3" id="11,5" style="" /><path d="M 150.1 183.7 L 150.1 173.9 L 199.8 173.9" id="12,6" style="" /><path d="M 150.1 183.7 L 150.1 193.4 L 199.8 193.4" id="12,7" style="" /><path d="M 100.4 85.9 L 100.4 66.3 L 150.1 66.3" id="10,8" style="" /><path d="M 100.4 85.9 L 100.4 105.4 L 150.1 105.4" id="10,9" style="" /><path d="M 50.8 125.0 L 50.8 85.9 L 100.4 85.9" id="14,10" style="" /><path d="M 100.4 164.1 L 100.4 144.6 L 150.1 144.6" id="13,11" style="" /><path d="M 100.4 164.1 L 100.4 183.7 L 150.1 183.7" id="13,12" style="" /><path d="M 50.8 125.0 L 50.8 164.1 L 100.4 164.1" id="14,13" style="" /></g><g class="toytree-AdmixEdges" style="fill:rgb(0.0%,0.0%,0.0%);fill-opacity:0.0;stroke:rgb(90.6%,54.1%,76.5%);stroke-opacity:0.6;font-size:14px;stroke-linecap:round;stroke-width:5"><path d="M 199.75 115.22 L 161.65 115.22 L 112.00 144.55 L 100.44 144.55" style="stroke:rgb(26.2%,60.7%,71.1%);stroke-opacity:0.0661;stroke-width:2" /><text x="136.82" y="141.89" style="fill:rgb(14.9%,14.9%,14.9%);fill-opacity:1.0;stroke:rgb(0.0%,0.0%,0.0%);stroke-opacity:0.0661;stroke-width:2;text-anchor:middle" /><path d="M 199.75 76.12 L 183.12 76.12 L 183.12 115.22 L 150.10 115.22" style="stroke:rgb(33.7%,35.0%,65.4%);stroke-opacity:0.00906;stroke-width:2" /><text x="183.12" y="107.67" style="fill:rgb(14.9%,14.9%,14.9%);fill-opacity:1.0;stroke:rgb(0.0%,0.0%,0.0%);stroke-opacity:0.00906;stroke-width:2;text-anchor:middle" /><path d="M 150.10 105.45 L 117.53 105.45 L 167.19 173.88 L 150.10 173.88" style="stroke:rgb(23.0%,48.9%,72.0%);stroke-opacity:0.0401;stroke-width:2" /><text x="142.36" y="151.66" style="fill:rgb(14.9%,14.9%,14.9%);fill-opacity:1.0;stroke:rgb(0.0%,0.0%,0.0%);stroke-opacity:0.0401;stroke-width:2;text-anchor:middle" /><path d="M 150.10 183.65 L 149.58 183.65 L 199.24 95.67 L 150.10 95.67" style="stroke:rgb(24.8%,59.2%,71.7%);stroke-opacity:0.0628;stroke-width:2" /><text x="174.41" y="151.66" style="fill:rgb(14.9%,14.9%,14.9%);fill-opacity:1.0;stroke:rgb(0.0%,0.0%,0.0%);stroke-opacity:0.0628;stroke-width:2;text-anchor:middle" /><path d="M 199.75 95.67 L 187.51 95.67 L 50.78 125.00 L 50.78 125.00" style="stroke:rgb(23.8%,58.0%,72.2%);stroke-opacity:0.0603;stroke-width:2" /><text x="119.15" y="122.34" style="fill:rgb(14.9%,14.9%,14.9%);fill-opacity:1.0;stroke:rgb(0.0%,0.0%,0.0%);stroke-opacity:0.0603;stroke-width:2;text-anchor:middle" /><path d="M 100.44 85.90 L 65.37 85.90 L 164.68 173.88 L 150.10 173.88" style="stroke:rgb(99.6%,85.5%,52.5%);stroke-opacity:0.306;stroke-width:2" /><text x="115.03" y="141.89" style="fill:rgb(14.9%,14.9%,14.9%);fill-opacity:1.0;stroke:rgb(0.0%,0.0%,0.0%);stroke-opacity:0.306;stroke-width:2;text-anchor:middle" /><path d="M 150.10 105.45 L 119.60 105.45 L 119.60 144.55 L 100.44 144.55" style="stroke:rgb(28.1%,42.4%,68.9%);stroke-opacity:0.0255;stroke-width:2" /><text x="119.60" y="137.00" style="fill:rgb(14.9%,14.9%,14.9%);fill-opacity:1.0;stroke:rgb(0.0%,0.0%,0.0%);stroke-opacity:0.0255;stroke-width:2;text-anchor:middle" /><path d="M 199.75 173.88 L 176.94 173.88 L 176.94 115.22 L 150.10 115.22" style="stroke:rgb(23.0%,49.0%,72.1%);stroke-opacity:0.0403;stroke-width:2" /><text x="176.94" y="156.55" style="fill:rgb(14.9%,14.9%,14.9%);fill-opacity:1.0;stroke:rgb(0.0%,0.0%,0.0%);stroke-opacity:0.0403;stroke-width:2;text-anchor:middle" /><path d="M 150.10 183.65 L 122.97 183.65 L 172.62 95.67 L 150.10 95.67" style="stroke:rgb(29.8%,40.1%,67.8%);stroke-opacity:0.0204;stroke-width:2" /><text x="147.79" y="151.66" style="fill:rgb(14.9%,14.9%,14.9%);fill-opacity:1.0;stroke:rgb(0.0%,0.0%,0.0%);stroke-opacity:0.0204;stroke-width:2;text-anchor:middle" /><path d="M 100.44 85.90 L 81.06 85.90 L 180.37 193.43 L 150.10 193.43" style="stroke:rgb(97.3%,98.9%,70.6%);stroke-opacity:0.236;stroke-width:2" /><text x="130.71" y="151.66" style="fill:rgb(14.9%,14.9%,14.9%);fill-opacity:1.0;stroke:rgb(0.0%,0.0%,0.0%);stroke-opacity:0.236;stroke-width:2;text-anchor:middle" /><path d="M 100.44 164.10 L 73.78 164.10 L 173.09 115.22 L 150.10 115.22" style="stroke:rgb(32.2%,37.1%,66.4%);stroke-opacity:0.0136;stroke-width:2" /><text x="123.43" y="151.66" style="fill:rgb(14.9%,14.9%,14.9%);fill-opacity:1.0;stroke:rgb(0.0%,0.0%,0.0%);stroke-opacity:0.0136;stroke-width:2;text-anchor:middle" /><path d="M 199.75 154.33 L 173.20 154.33 L 50.78 125.00 L 50.78 125.00" style="stroke:rgb(35.6%,32.6%,64.3%);stroke-opacity:0.0036;stroke-width:2" /><text x="111.99" y="151.66" style="fill:rgb(14.9%,14.9%,14.9%);fill-opacity:1.0;stroke:rgb(0.0%,0.0%,0.0%);stroke-opacity:0.0036;stroke-width:2;text-anchor:middle" /><path d="M 199.75 76.12 L 190.85 76.12 L 190.85 173.88 L 150.10 173.88" style="stroke:rgb(35.8%,32.4%,64.2%);stroke-opacity:0.00315;stroke-width:2" /><text x="190.85" y="137.00" style="fill:rgb(14.9%,14.9%,14.9%);fill-opacity:1.0;stroke:rgb(0.0%,0.0%,0.0%);stroke-opacity:0.00315;stroke-width:2;text-anchor:middle" /><path d="M 199.75 95.67 L 154.57 95.67 L 50.78 125.00 L 50.78 125.00" style="stroke:rgb(31.2%,38.3%,67.0%);stroke-opacity:0.0164;stroke-width:2" /><text x="102.68" y="122.34" style="fill:rgb(14.9%,14.9%,14.9%);fill-opacity:1.0;stroke:rgb(0.0%,0.0%,0.0%);stroke-opacity:0.0164;stroke-width:2;text-anchor:middle" /><path d="M 199.75 115.22 L 153.72 115.22 L 104.06 144.55 L 100.44 144.55" style="stroke:rgb(35.7%,71.3%,66.7%);stroke-opacity:0.0895;stroke-width:2" /><text x="128.89" y="141.89" style="fill:rgb(14.9%,14.9%,14.9%);fill-opacity:1.0;stroke:rgb(0.0%,0.0%,0.0%);stroke-opacity:0.0895;stroke-width:2;text-anchor:middle" /><path d="M 150.10 183.65 L 140.93 183.65 L 190.58 115.22 L 150.10 115.22" style="stroke:rgb(28.4%,42.0%,68.7%);stroke-opacity:0.0246;stroke-width:2" /><text x="165.75" y="161.44" style="fill:rgb(14.9%,14.9%,14.9%);fill-opacity:1.0;stroke:rgb(0.0%,0.0%,0.0%);stroke-opacity:0.0246;stroke-width:2;text-anchor:middle" /><path d="M 199.75 115.22 L 164.79 115.22 L 115.13 144.55 L 100.44 144.55" style="stroke:rgb(28.4%,42.0%,68.7%);stroke-opacity:0.0246;stroke-width:2" /><text x="139.96" y="141.89" style="fill:rgb(14.9%,14.9%,14.9%);fill-opacity:1.0;stroke:rgb(0.0%,0.0%,0.0%);stroke-opacity:0.0246;stroke-width:2;text-anchor:middle" /><path d="M 150.10 105.45 L 101.99 105.45 L 151.64 173.88 L 150.10 173.88" style="stroke:rgb(23.7%,57.9%,72.2%);stroke-opacity:0.0601;stroke-width:2" /><text x="126.82" y="151.66" style="fill:rgb(14.9%,14.9%,14.9%);fill-opacity:1.0;stroke:rgb(0.0%,0.0%,0.0%);stroke-opacity:0.0601;stroke-width:2;text-anchor:middle" /><path d="M 100.44 164.10 L 82.54 164.10 L 181.85 115.22 L 150.10 115.22" style="stroke:rgb(26.8%,61.3%,70.8%);stroke-opacity:0.0676;stroke-width:2" /><text x="132.20" y="151.66" style="fill:rgb(14.9%,14.9%,14.9%);fill-opacity:1.0;stroke:rgb(0.0%,0.0%,0.0%);stroke-opacity:0.0676;stroke-width:2;text-anchor:middle" /><path d="M 199.75 56.57 L 179.91 56.57 L 179.91 95.67 L 150.10 95.67" style="stroke:rgb(35.8%,32.3%,64.2%);stroke-opacity:0.00297;stroke-width:2" /><text x="179.91" y="88.12" style="fill:rgb(14.9%,14.9%,14.9%);fill-opacity:1.0;stroke:rgb(0.0%,0.0%,0.0%);stroke-opacity:0.00297;stroke-width:2;text-anchor:middle" /><path d="M 150.10 183.65 L 115.01 183.65 L 164.67 95.67 L 150.10 95.67" style="stroke:rgb(40.0%,76.0%,64.7%);stroke-opacity:0.0999;stroke-width:2" /><text x="139.84" y="151.66" style="fill:rgb(14.9%,14.9%,14.9%);fill-opacity:1.0;stroke:rgb(0.0%,0.0%,0.0%);stroke-opacity:0.0999;stroke-width:2;text-anchor:middle" /><path d="M 150.10 144.55 L 119.30 144.55 L 168.96 115.22 L 150.10 115.22" style="stroke:rgb(28.8%,41.4%,68.5%);stroke-opacity:0.0234;stroke-width:2" /><text x="144.13" y="141.89" style="fill:rgb(14.9%,14.9%,14.9%);fill-opacity:1.0;stroke:rgb(0.0%,0.0%,0.0%);stroke-opacity:0.0234;stroke-width:2;text-anchor:middle" /><path d="M 199.75 76.12 L 197.00 76.12 L 197.00 115.22 L 150.10 115.22" style="stroke:rgb(33.2%,35.7%,65.8%);stroke-opacity:0.0106;stroke-width:2" /><text x="197.00" y="107.67" style="fill:rgb(14.9%,14.9%,14.9%);fill-opacity:1.0;stroke:rgb(0.0%,0.0%,0.0%);stroke-opacity:0.0106;stroke-width:2;text-anchor:middle" /><path d="M 199.75 95.67 L 162.05 95.67 L 50.78 125.00 L 50.78 125.00" style="stroke:rgb(27.1%,43.6%,69.5%);stroke-opacity:0.0283;stroke-width:2" /><text x="106.42" y="122.34" style="fill:rgb(14.9%,14.9%,14.9%);fill-opacity:1.0;stroke:rgb(0.0%,0.0%,0.0%);stroke-opacity:0.0283;stroke-width:2;text-anchor:middle" /><path d="M 199.75 115.22 L 194.65 115.22 L 194.65 173.88 L 150.10 173.88" style="stroke:rgb(19.6%,53.4%,74.1%);stroke-opacity:0.0501;stroke-width:2" /><text x="194.65" y="156.55" style="fill:rgb(14.9%,14.9%,14.9%);fill-opacity:1.0;stroke:rgb(0.0%,0.0%,0.0%);stroke-opacity:0.0501;stroke-width:2;text-anchor:middle" /><path d="M 199.75 115.22 L 191.04 115.22 L 191.04 173.88 L 150.10 173.88" style="stroke:rgb(36.6%,72.3%,66.3%);stroke-opacity:0.0917;stroke-width:2" /><text x="191.04" y="156.55" style="fill:rgb(14.9%,14.9%,14.9%);fill-opacity:1.0;stroke:rgb(0.0%,0.0%,0.0%);stroke-opacity:0.0917;stroke-width:2;text-anchor:middle" /><path d="M 199.75 193.43 L 168.63 193.43 L 118.97 144.55 L 100.44 144.55" style="stroke:rgb(98.7%,64.2%,36.2%);stroke-opacity:0.358;stroke-width:2" /><text x="143.80" y="180.99" style="fill:rgb(14.9%,14.9%,14.9%);fill-opacity:1.0;stroke:rgb(0.0%,0.0%,0.0%);stroke-opacity:0.358;stroke-width:2;text-anchor:middle" /><path d="M 199.75 173.88 L 159.32 173.88 L 50.78 125.00 L 50.78 125.00" style="stroke:rgb(31.0%,38.6%,67.1%);stroke-opacity:0.017;stroke-width:2" /><text x="105.05" y="161.44" style="fill:rgb(14.9%,14.9%,14.9%);fill-opacity:1.0;stroke:rgb(0.0%,0.0%,0.0%);stroke-opacity:0.017;stroke-width:2;text-anchor:middle" /><path d="M 199.75 115.22 L 173.80 115.22 L 124.14 144.55 L 100.44 144.55" style="stroke:rgb(72.6%,88.9%,63.2%);stroke-opacity:0.162;stroke-width:2" /><text x="148.97" y="141.89" style="fill:rgb(14.9%,14.9%,14.9%);fill-opacity:1.0;stroke:rgb(0.0%,0.0%,0.0%);stroke-opacity:0.162;stroke-width:2;text-anchor:middle" /><path d="M 199.75 115.22 L 191.33 115.22 L 141.68 144.55 L 100.44 144.55" style="stroke:rgb(28.1%,62.8%,70.2%);stroke-opacity:0.0708;stroke-width:2" /><text x="166.51" y="141.89" style="fill:rgb(14.9%,14.9%,14.9%);fill-opacity:1.0;stroke:rgb(0.0%,0.0%,0.0%);stroke-opacity:0.0708;stroke-width:2;text-anchor:middle" /><path d="M 199.75 173.88 L 180.05 173.88 L 50.78 125.00 L 50.78 125.00" style="stroke:rgb(29.5%,64.4%,69.5%);stroke-opacity:0.0743;stroke-width:2" /><text x="115.42" y="161.44" style="fill:rgb(14.9%,14.9%,14.9%);fill-opacity:1.0;stroke:rgb(0.0%,0.0%,0.0%);stroke-opacity:0.0743;stroke-width:2;text-anchor:middle" /><path d="M 199.75 76.12 L 190.81 76.12 L 190.81 173.88 L 150.10 173.88" style="stroke:rgb(34.5%,34.0%,65.0%);stroke-opacity:0.00671;stroke-width:2" /><text x="190.81" y="137.00" style="fill:rgb(14.9%,14.9%,14.9%);fill-opacity:1.0;stroke:rgb(0.0%,0.0%,0.0%);stroke-opacity:0.00671;stroke-width:2;text-anchor:middle" /><path d="M 199.75 193.43 L 160.04 193.43 L 110.38 144.55 L 100.44 144.55" style="stroke:rgb(21.1%,51.5%,73.2%);stroke-opacity:0.0458;stroke-width:2" /><text x="135.21" y="180.99" style="fill:rgb(14.9%,14.9%,14.9%);fill-opacity:1.0;stroke:rgb(0.0%,0.0%,0.0%);stroke-opacity:0.0458;stroke-width:2;text-anchor:middle" /><path d="M 150.10 105.45 L 142.35 105.45 L 192.01 173.88 L 150.10 173.88" style="stroke:rgb(31.0%,38.5%,67.1%);stroke-opacity:0.0169;stroke-width:2" /><text x="167.18" y="151.66" style="fill:rgb(14.9%,14.9%,14.9%);fill-opacity:1.0;stroke:rgb(0.0%,0.0%,0.0%);stroke-opacity:0.0169;stroke-width:2;text-anchor:middle" /><path d="M 150.10 183.65 L 102.48 183.65 L 152.14 115.22 L 150.10 115.22" style="stroke:rgb(33.6%,35.2%,65.5%);stroke-opacity:0.00935;stroke-width:2" /><text x="127.31" y="161.44" style="fill:rgb(14.9%,14.9%,14.9%);fill-opacity:1.0;stroke:rgb(0.0%,0.0%,0.0%);stroke-opacity:0.00935;stroke-width:2;text-anchor:middle" /><path d="M 100.44 164.10 L 87.06 164.10 L 186.37 115.22 L 150.10 115.22" style="stroke:rgb(27.4%,62.0%,70.5%);stroke-opacity:0.069;stroke-width:2" /><text x="136.71" y="151.66" style="fill:rgb(14.9%,14.9%,14.9%);fill-opacity:1.0;stroke:rgb(0.0%,0.0%,0.0%);stroke-opacity:0.069;stroke-width:2;text-anchor:middle" /><path d="M 199.75 193.43 L 165.41 193.43 L 165.41 115.22 L 150.10 115.22" style="stroke:rgb(26.1%,60.6%,71.1%);stroke-opacity:0.0659;stroke-width:2" /><text x="165.41" y="166.33" style="fill:rgb(14.9%,14.9%,14.9%);fill-opacity:1.0;stroke:rgb(0.0%,0.0%,0.0%);stroke-opacity:0.0659;stroke-width:2;text-anchor:middle" /><path d="M 199.75 95.67 L 158.61 95.67 L 158.61 173.88 L 150.10 173.88" style="stroke:rgb(30.7%,65.8%,69.0%);stroke-opacity:0.0773;stroke-width:2" /><text x="158.61" y="146.78" style="fill:rgb(14.9%,14.9%,14.9%);fill-opacity:1.0;stroke:rgb(0.0%,0.0%,0.0%);stroke-opacity:0.0773;stroke-width:2;text-anchor:middle" /><path d="M 150.10 183.65 L 128.41 183.65 L 178.07 95.67 L 150.10 95.67" style="stroke:rgb(27.7%,42.9%,69.2%);stroke-opacity:0.0266;stroke-width:2" /><text x="153.24" y="151.66" style="fill:rgb(14.9%,14.9%,14.9%);fill-opacity:1.0;stroke:rgb(0.0%,0.0%,0.0%);stroke-opacity:0.0266;stroke-width:2;text-anchor:middle" /><path d="M 199.75 115.22 L 153.79 115.22 L 104.13 144.55 L 100.44 144.55" style="stroke:rgb(22.7%,56.8%,72.7%);stroke-opacity:0.0577;stroke-width:2" /><text x="128.96" y="141.89" style="fill:rgb(14.9%,14.9%,14.9%);fill-opacity:1.0;stroke:rgb(0.0%,0.0%,0.0%);stroke-opacity:0.0577;stroke-width:2;text-anchor:middle" /><path d="M 199.75 173.88 L 167.15 173.88 L 50.78 125.00 L 50.78 125.00" style="stroke:rgb(36.9%,72.6%,66.1%);stroke-opacity:0.0924;stroke-width:2" /><text x="108.97" y="161.44" style="fill:rgb(14.9%,14.9%,14.9%);fill-opacity:1.0;stroke:rgb(0.0%,0.0%,0.0%);stroke-opacity:0.0924;stroke-width:2;text-anchor:middle" /><path d="M 100.44 85.90 L 83.85 85.90 L 183.16 173.88 L 150.10 173.88" style="stroke:rgb(28.0%,42.4%,69.0%);stroke-opacity:0.0256;stroke-width:2" /><text x="133.51" y="141.89" style="fill:rgb(14.9%,14.9%,14.9%);fill-opacity:1.0;stroke:rgb(0.0%,0.0%,0.0%);stroke-opacity:0.0256;stroke-width:2;text-anchor:middle" /><path d="M 199.75 115.22 L 150.68 115.22 L 150.68 193.43 L 150.10 193.43" style="stroke:rgb(26.9%,61.5%,70.7%);stroke-opacity:0.0679;stroke-width:2" /><text x="150.68" y="166.33" style="fill:rgb(14.9%,14.9%,14.9%);fill-opacity:1.0;stroke:rgb(0.0%,0.0%,0.0%);stroke-opacity:0.0679;stroke-width:2;text-anchor:middle" /><path d="M 150.10 105.45 L 124.06 105.45 L 173.72 193.43 L 150.10 193.43" style="stroke:rgb(35.4%,70.9%,66.8%);stroke-opacity:0.0887;stroke-width:2" /><text x="148.89" y="161.44" style="fill:rgb(14.9%,14.9%,14.9%);fill-opacity:1.0;stroke:rgb(0.0%,0.0%,0.0%);stroke-opacity:0.0887;stroke-width:2;text-anchor:middle" /><path d="M 150.10 105.45 L 130.26 105.45 L 179.91 193.43 L 150.10 193.43" style="stroke:rgb(32.8%,36.3%,66.0%);stroke-opacity:0.0118;stroke-width:2" /><text x="155.08" y="161.44" style="fill:rgb(14.9%,14.9%,14.9%);fill-opacity:1.0;stroke:rgb(0.0%,0.0%,0.0%);stroke-opacity:0.0118;stroke-width:2;text-anchor:middle" /><path d="M 199.75 173.88 L 168.58 173.88 L 168.58 95.67 L 150.10 95.67" style="stroke:rgb(21.8%,55.7%,73.1%);stroke-opacity:0.0553;stroke-width:2" /><text x="168.58" y="146.78" style="fill:rgb(14.9%,14.9%,14.9%);fill-opacity:1.0;stroke:rgb(0.0%,0.0%,0.0%);stroke-opacity:0.0553;stroke-width:2;text-anchor:middle" /><path d="M 150.10 144.55 L 125.42 144.55 L 175.07 95.67 L 150.10 95.67" style="stroke:rgb(23.2%,57.3%,72.5%);stroke-opacity:0.0588;stroke-width:2" /><text x="150.25" y="132.11" style="fill:rgb(14.9%,14.9%,14.9%);fill-opacity:1.0;stroke:rgb(0.0%,0.0%,0.0%);stroke-opacity:0.0588;stroke-width:2;text-anchor:middle" /><path d="M 199.75 115.22 L 150.80 115.22 L 150.80 193.43 L 150.10 193.43" style="stroke:rgb(25.9%,45.2%,70.3%);stroke-opacity:0.0318;stroke-width:2" /><text x="150.80" y="166.33" style="fill:rgb(14.9%,14.9%,14.9%);fill-opacity:1.0;stroke:rgb(0.0%,0.0%,0.0%);stroke-opacity:0.0318;stroke-width:2;text-anchor:middle" /><path d="M 199.75 115.22 L 196.76 115.22 L 196.76 173.88 L 150.10 173.88" style="stroke:rgb(48.1%,79.3%,64.6%);stroke-opacity:0.115;stroke-width:2" /><text x="196.76" y="156.55" style="fill:rgb(14.9%,14.9%,14.9%);fill-opacity:1.0;stroke:rgb(0.0%,0.0%,0.0%);stroke-opacity:0.115;stroke-width:2;text-anchor:middle" /><path d="M 199.75 76.12 L 166.71 76.12 L 166.71 173.88 L 150.10 173.88" style="stroke:rgb(36.0%,32.1%,64.1%);stroke-opacity:0.00257;stroke-width:2" /><text x="166.71" y="137.00" style="fill:rgb(14.9%,14.9%,14.9%);fill-opacity:1.0;stroke:rgb(0.0%,0.0%,0.0%);stroke-opacity:0.00257;stroke-width:2;text-anchor:middle" /><path d="M 150.10 105.45 L 108.51 105.45 L 158.17 193.43 L 150.10 193.43" style="stroke:rgb(32.4%,36.7%,66.3%);stroke-opacity:0.0129;stroke-width:2" /><text x="133.34" y="161.44" style="fill:rgb(14.9%,14.9%,14.9%);fill-opacity:1.0;stroke:rgb(0.0%,0.0%,0.0%);stroke-opacity:0.0129;stroke-width:2;text-anchor:middle" /><path d="M 199.75 115.22 L 168.50 115.22 L 118.84 144.55 L 100.44 144.55" style="stroke:rgb(22.0%,50.2%,72.6%);stroke-opacity:0.043;stroke-width:2" /><text x="143.67" y="141.89" style="fill:rgb(14.9%,14.9%,14.9%);fill-opacity:1.0;stroke:rgb(0.0%,0.0%,0.0%);stroke-opacity:0.043;stroke-width:2;text-anchor:middle" /><path d="M 199.75 134.78 L 164.68 134.78 L 164.68 115.22 L 150.10 115.22" style="stroke:rgb(33.1%,35.8%,65.8%);stroke-opacity:0.0108;stroke-width:2" /><text x="164.68" y="137.00" style="fill:rgb(14.9%,14.9%,14.9%);fill-opacity:1.0;stroke:rgb(0.0%,0.0%,0.0%);stroke-opacity:0.0108;stroke-width:2;text-anchor:middle" /><path d="M 199.75 193.43 L 157.73 193.43 L 157.73 154.33 L 150.10 154.33" style="stroke:rgb(36.0%,32.1%,64.0%);stroke-opacity:0.0024;stroke-width:2" /><text x="157.73" y="185.88" style="fill:rgb(14.9%,14.9%,14.9%);fill-opacity:1.0;stroke:rgb(0.0%,0.0%,0.0%);stroke-opacity:0.0024;stroke-width:2;text-anchor:middle" /><path d="M 199.75 193.43 L 172.52 193.43 L 172.52 95.67 L 150.10 95.67" style="stroke:rgb(23.3%,48.5%,71.8%);stroke-opacity:0.0392;stroke-width:2" /><text x="172.52" y="156.55" style="fill:rgb(14.9%,14.9%,14.9%);fill-opacity:1.0;stroke:rgb(0.0%,0.0%,0.0%);stroke-opacity:0.0392;stroke-width:2;text-anchor:middle" /><path d="M 150.10 183.65 L 132.88 183.65 L 182.53 95.67 L 150.10 95.67" style="stroke:rgb(33.7%,35.1%,65.5%);stroke-opacity:0.00914;stroke-width:2" /><text x="157.71" y="151.66" style="fill:rgb(14.9%,14.9%,14.9%);fill-opacity:1.0;stroke:rgb(0.0%,0.0%,0.0%);stroke-opacity:0.00914;stroke-width:2;text-anchor:middle" /><path d="M 199.75 193.43 L 181.71 193.43 L 132.05 144.55 L 100.44 144.55" style="stroke:rgb(21.0%,51.5%,73.3%);stroke-opacity:0.046;stroke-width:2" /><text x="156.88" y="180.99" style="fill:rgb(14.9%,14.9%,14.9%);fill-opacity:1.0;stroke:rgb(0.0%,0.0%,0.0%);stroke-opacity:0.046;stroke-width:2;text-anchor:middle" /><path d="M 150.10 144.55 L 125.98 144.55 L 175.64 115.22 L 150.10 115.22" style="stroke:rgb(32.1%,37.1%,66.5%);stroke-opacity:0.0138;stroke-width:2" /><text x="150.81" y="141.89" style="fill:rgb(14.9%,14.9%,14.9%);fill-opacity:1.0;stroke:rgb(0.0%,0.0%,0.0%);stroke-opacity:0.0138;stroke-width:2;text-anchor:middle" /><path d="M 199.75 173.88 L 155.27 173.88 L 155.27 95.67 L 150.10 95.67" style="stroke:rgb(30.9%,38.7%,67.2%);stroke-opacity:0.0173;stroke-width:2" /><text x="155.27" y="146.78" style="fill:rgb(14.9%,14.9%,14.9%);fill-opacity:1.0;stroke:rgb(0.0%,0.0%,0.0%);stroke-opacity:0.0173;stroke-width:2;text-anchor:middle" /><path d="M 199.75 173.88 L 154.56 173.88 L 154.56 115.22 L 150.10 115.22" style="stroke:rgb(27.9%,42.6%,69.0%);stroke-opacity:0.026;stroke-width:2" /><text x="154.56" y="156.55" style="fill:rgb(14.9%,14.9%,14.9%);fill-opacity:1.0;stroke:rgb(0.0%,0.0%,0.0%);stroke-opacity:0.026;stroke-width:2;text-anchor:middle" /><path d="M 100.44 85.90 L 91.15 85.90 L 190.46 173.88 L 150.10 173.88" style="stroke:rgb(93.3%,97.3%,64.5%);stroke-opacity:0.216;stroke-width:2" /><text x="140.80" y="141.89" style="fill:rgb(14.9%,14.9%,14.9%);fill-opacity:1.0;stroke:rgb(0.0%,0.0%,0.0%);stroke-opacity:0.216;stroke-width:2;text-anchor:middle" /><path d="M 150.10 183.65 L 137.66 183.65 L 187.31 95.67 L 150.10 95.67" style="stroke:rgb(41.6%,76.7%,64.7%);stroke-opacity:0.103;stroke-width:2" /><text x="162.48" y="151.66" style="fill:rgb(14.9%,14.9%,14.9%);fill-opacity:1.0;stroke:rgb(0.0%,0.0%,0.0%);stroke-opacity:0.103;stroke-width:2;text-anchor:middle" /><path d="M 150.10 105.45 L 117.88 105.45 L 167.54 173.88 L 150.10 173.88" style="stroke:rgb(33.6%,35.2%,65.5%);stroke-opacity:0.00936;stroke-width:2" /><text x="142.71" y="151.66" style="fill:rgb(14.9%,14.9%,14.9%);fill-opacity:1.0;stroke:rgb(0.0%,0.0%,0.0%);stroke-opacity:0.00936;stroke-width:2;text-anchor:middle" /><path d="M 150.10 183.65 L 133.92 183.65 L 183.58 76.12 L 150.10 76.12" style="stroke:rgb(36.2%,31.9%,64.0%);stroke-opacity:0.00204;stroke-width:2" /><text x="158.75" y="141.89" style="fill:rgb(14.9%,14.9%,14.9%);fill-opacity:1.0;stroke:rgb(0.0%,0.0%,0.0%);stroke-opacity:0.00204;stroke-width:2;text-anchor:middle" /><path d="M 150.10 183.65 L 135.49 183.65 L 185.14 95.67 L 150.10 95.67" style="stroke:rgb(29.6%,40.4%,68.0%);stroke-opacity:0.0211;stroke-width:2" /><text x="160.32" y="151.66" style="fill:rgb(14.9%,14.9%,14.9%);fill-opacity:1.0;stroke:rgb(0.0%,0.0%,0.0%);stroke-opacity:0.0211;stroke-width:2;text-anchor:middle" /><path d="M 150.10 183.65 L 126.79 183.65 L 176.44 95.67 L 150.10 95.67" style="stroke:rgb(33.5%,35.3%,65.6%);stroke-opacity:0.00967;stroke-width:2" /><text x="151.61" y="151.66" style="fill:rgb(14.9%,14.9%,14.9%);fill-opacity:1.0;stroke:rgb(0.0%,0.0%,0.0%);stroke-opacity:0.00967;stroke-width:2;text-anchor:middle" /><path d="M 199.75 134.78 L 176.60 134.78 L 50.78 125.00 L 50.78 125.00" style="stroke:rgb(34.0%,34.7%,65.3%);stroke-opacity:0.00821;stroke-width:2" /><text x="113.69" y="141.89" style="fill:rgb(14.9%,14.9%,14.9%);fill-opacity:1.0;stroke:rgb(0.0%,0.0%,0.0%);stroke-opacity:0.00821;stroke-width:2;text-anchor:middle" /><path d="M 150.10 105.45 L 102.49 105.45 L 152.15 173.88 L 150.10 173.88" style="stroke:rgb(20.3%,54.2%,73.8%);stroke-opacity:0.0518;stroke-width:2" /><text x="127.32" y="151.66" style="fill:rgb(14.9%,14.9%,14.9%);fill-opacity:1.0;stroke:rgb(0.0%,0.0%,0.0%);stroke-opacity:0.0518;stroke-width:2;text-anchor:middle" /><path d="M 150.10 105.45 L 130.90 105.45 L 180.56 173.88 L 150.10 173.88" style="stroke:rgb(30.0%,39.9%,67.7%);stroke-opacity:0.0199;stroke-width:2" /><text x="155.73" y="151.66" style="fill:rgb(14.9%,14.9%,14.9%);fill-opacity:1.0;stroke:rgb(0.0%,0.0%,0.0%);stroke-opacity:0.0199;stroke-width:2;text-anchor:middle" /><path d="M 199.75 173.88 L 162.72 173.88 L 162.72 115.22 L 150.10 115.22" style="stroke:rgb(33.5%,68.8%,67.7%);stroke-opacity:0.084;stroke-width:2" /><text x="162.72" y="156.55" style="fill:rgb(14.9%,14.9%,14.9%);fill-opacity:1.0;stroke:rgb(0.0%,0.0%,0.0%);stroke-opacity:0.084;stroke-width:2;text-anchor:middle" /><path d="M 199.75 173.88 L 173.07 173.88 L 173.07 115.22 L 150.10 115.22" style="stroke:rgb(29.8%,40.2%,67.9%);stroke-opacity:0.0206;stroke-width:2" /><text x="173.07" y="156.55" style="fill:rgb(14.9%,14.9%,14.9%);fill-opacity:1.0;stroke:rgb(0.0%,0.0%,0.0%);stroke-opacity:0.0206;stroke-width:2;text-anchor:middle" /><path d="M 100.44 164.10 L 70.68 164.10 L 169.99 115.22 L 150.10 115.22" style="stroke:rgb(25.7%,60.1%,71.3%);stroke-opacity:0.0649;stroke-width:2" /><text x="120.34" y="151.66" style="fill:rgb(14.9%,14.9%,14.9%);fill-opacity:1.0;stroke:rgb(0.0%,0.0%,0.0%);stroke-opacity:0.0649;stroke-width:2;text-anchor:middle" /><path d="M 199.75 173.88 L 189.54 173.88 L 50.78 125.00 L 50.78 125.00" style="stroke:rgb(29.7%,40.2%,67.9%);stroke-opacity:0.0207;stroke-width:2" /><text x="120.16" y="161.44" style="fill:rgb(14.9%,14.9%,14.9%);fill-opacity:1.0;stroke:rgb(0.0%,0.0%,0.0%);stroke-opacity:0.0207;stroke-width:2;text-anchor:middle" /><path d="M 199.75 95.67 L 199.23 95.67 L 199.23 173.88 L 150.10 173.88" style="stroke:rgb(21.6%,55.5%,73.2%);stroke-opacity:0.0548;stroke-width:2" /><text x="199.23" y="146.78" style="fill:rgb(14.9%,14.9%,14.9%);fill-opacity:1.0;stroke:rgb(0.0%,0.0%,0.0%);stroke-opacity:0.0548;stroke-width:2;text-anchor:middle" /><path d="M 150.10 105.45 L 100.88 105.45 L 150.53 76.12 L 150.10 76.12" style="stroke:rgb(36.4%,31.6%,63.8%);stroke-opacity:0.00143;stroke-width:2" /><text x="125.71" y="102.78" style="fill:rgb(14.9%,14.9%,14.9%);fill-opacity:1.0;stroke:rgb(0.0%,0.0%,0.0%);stroke-opacity:0.00143;stroke-width:2;text-anchor:middle" /><path d="M 199.75 173.88 L 186.81 173.88 L 50.78 125.00 L 50.78 125.00" style="stroke:rgb(55.2%,82.0%,64.5%);stroke-opacity:0.128;stroke-width:2" /><text x="118.79" y="161.44" style="fill:rgb(14.9%,14.9%,14.9%);fill-opacity:1.0;stroke:rgb(0.0%,0.0%,0.0%);stroke-opacity:0.128;stroke-width:2;text-anchor:middle" /><path d="M 199.75 115.22 L 192.55 115.22 L 192.55 173.88 L 150.10 173.88" style="stroke:rgb(25.1%,46.2%,70.7%);stroke-opacity:0.034;stroke-width:2" /><text x="192.55" y="156.55" style="fill:rgb(14.9%,14.9%,14.9%);fill-opacity:1.0;stroke:rgb(0.0%,0.0%,0.0%);stroke-opacity:0.034;stroke-width:2;text-anchor:middle" /><path d="M 150.10 144.55 L 106.18 144.55 L 155.84 56.57 L 150.10 56.57" style="stroke:rgb(36.0%,32.1%,64.1%);stroke-opacity:0.00249;stroke-width:2" /><text x="131.01" y="112.56" style="fill:rgb(14.9%,14.9%,14.9%);fill-opacity:1.0;stroke:rgb(0.0%,0.0%,0.0%);stroke-opacity:0.00249;stroke-width:2;text-anchor:middle" /><path d="M 150.10 66.35 L 129.14 66.35 L 178.79 173.88 L 150.10 173.88" style="stroke:rgb(32.4%,36.7%,66.2%);stroke-opacity:0.0128;stroke-width:2" /><text x="153.97" y="132.11" style="fill:rgb(14.9%,14.9%,14.9%);fill-opacity:1.0;stroke:rgb(0.0%,0.0%,0.0%);stroke-opacity:0.0128;stroke-width:2;text-anchor:middle" /><path d="M 199.75 173.88 L 175.33 173.88 L 50.78 125.00 L 50.78 125.00" style="stroke:rgb(26.0%,45.0%,70.2%);stroke-opacity:0.0314;stroke-width:2" /><text x="113.06" y="161.44" style="fill:rgb(14.9%,14.9%,14.9%);fill-opacity:1.0;stroke:rgb(0.0%,0.0%,0.0%);stroke-opacity:0.0314;stroke-width:2;text-anchor:middle" /><path d="M 199.75 173.88 L 172.74 173.88 L 123.08 105.45 L 100.44 105.45" style="stroke:rgb(24.7%,59.0%,71.8%);stroke-opacity:0.0624;stroke-width:2" /><text x="147.91" y="151.66" style="fill:rgb(14.9%,14.9%,14.9%);fill-opacity:1.0;stroke:rgb(0.0%,0.0%,0.0%);stroke-opacity:0.0624;stroke-width:2;text-anchor:middle" /><path d="M 150.10 105.45 L 102.12 105.45 L 151.78 173.88 L 150.10 173.88" style="stroke:rgb(33.7%,35.1%,65.5%);stroke-opacity:0.00919;stroke-width:2" /><text x="126.95" y="151.66" style="fill:rgb(14.9%,14.9%,14.9%);fill-opacity:1.0;stroke:rgb(0.0%,0.0%,0.0%);stroke-opacity:0.00919;stroke-width:2;text-anchor:middle" /><path d="M 199.75 173.88 L 171.87 173.88 L 171.87 115.22 L 150.10 115.22" style="stroke:rgb(34.0%,34.7%,65.3%);stroke-opacity:0.00839;stroke-width:2" /><text x="171.87" y="156.55" style="fill:rgb(14.9%,14.9%,14.9%);fill-opacity:1.0;stroke:rgb(0.0%,0.0%,0.0%);stroke-opacity:0.00839;stroke-width:2;text-anchor:middle" /><path d="M 199.75 173.88 L 170.00 173.88 L 170.00 95.67 L 150.10 95.67" style="stroke:rgb(24.9%,46.5%,70.9%);stroke-opacity:0.0348;stroke-width:2" /><text x="170.00" y="146.78" style="fill:rgb(14.9%,14.9%,14.9%);fill-opacity:1.0;stroke:rgb(0.0%,0.0%,0.0%);stroke-opacity:0.0348;stroke-width:2;text-anchor:middle" /><path d="M 199.75 173.88 L 155.52 173.88 L 155.52 95.67 L 150.10 95.67" style="stroke:rgb(23.6%,57.8%,72.3%);stroke-opacity:0.0598;stroke-width:2" /><text x="155.52" y="146.78" style="fill:rgb(14.9%,14.9%,14.9%);fill-opacity:1.0;stroke:rgb(0.0%,0.0%,0.0%);stroke-opacity:0.0598;stroke-width:2;text-anchor:middle" /><path d="M 199.75 193.43 L 169.79 193.43 L 169.79 95.67 L 150.10 95.67" style="stroke:rgb(25.2%,46.1%,70.7%);stroke-opacity:0.0339;stroke-width:2" /><text x="169.79" y="156.55" style="fill:rgb(14.9%,14.9%,14.9%);fill-opacity:1.0;stroke:rgb(0.0%,0.0%,0.0%);stroke-opacity:0.0339;stroke-width:2;text-anchor:middle" /><path d="M 199.75 115.22 L 181.10 115.22 L 181.10 193.43 L 150.10 193.43" style="stroke:rgb(24.9%,46.5%,70.9%);stroke-opacity:0.0347;stroke-width:2" /><text x="181.10" y="166.33" style="fill:rgb(14.9%,14.9%,14.9%);fill-opacity:1.0;stroke:rgb(0.0%,0.0%,0.0%);stroke-opacity:0.0347;stroke-width:2;text-anchor:middle" /><path d="M 150.10 183.65 L 111.66 183.65 L 50.78 125.00 L 50.78 125.00" style="stroke:rgb(97.6%,99.1%,71.2%);stroke-opacity:0.238;stroke-width:2" /><text x="81.22" y="166.33" style="fill:rgb(14.9%,14.9%,14.9%);fill-opacity:1.0;stroke:rgb(0.0%,0.0%,0.0%);stroke-opacity:0.238;stroke-width:2;text-anchor:middle" /><path d="M 150.10 105.45 L 143.40 105.45 L 143.40 183.65 L 100.44 183.65" style="stroke:rgb(37.1%,72.9%,66.0%);stroke-opacity:0.093;stroke-width:2" /><text x="143.40" y="156.55" style="fill:rgb(14.9%,14.9%,14.9%);fill-opacity:1.0;stroke:rgb(0.0%,0.0%,0.0%);stroke-opacity:0.093;stroke-width:2;text-anchor:middle" /><path d="M 199.75 193.43 L 173.39 193.43 L 173.39 95.67 L 150.10 95.67" style="stroke:rgb(31.2%,38.3%,67.0%);stroke-opacity:0.0163;stroke-width:2" /><text x="173.39" y="156.55" style="fill:rgb(14.9%,14.9%,14.9%);fill-opacity:1.0;stroke:rgb(0.0%,0.0%,0.0%);stroke-opacity:0.0163;stroke-width:2;text-anchor:middle" /><path d="M 199.75 95.67 L 188.03 95.67 L 50.78 125.00 L 50.78 125.00" style="stroke:rgb(98.0%,59.6%,34.0%);stroke-opacity:0.367;stroke-width:2" /><text x="119.41" y="122.34" style="fill:rgb(14.9%,14.9%,14.9%);fill-opacity:1.0;stroke:rgb(0.0%,0.0%,0.0%);stroke-opacity:0.367;stroke-width:2;text-anchor:middle" /><path d="M 199.75 115.22 L 170.49 115.22 L 120.83 144.55 L 100.44 144.55" style="stroke:rgb(34.5%,70.0%,67.2%);stroke-opacity:0.0866;stroke-width:2" /><text x="145.66" y="141.89" style="fill:rgb(14.9%,14.9%,14.9%);fill-opacity:1.0;stroke:rgb(0.0%,0.0%,0.0%);stroke-opacity:0.0866;stroke-width:2;text-anchor:middle" /><path d="M 199.75 115.22 L 157.09 115.22 L 107.44 144.55 L 100.44 144.55" style="stroke:rgb(30.0%,39.9%,67.8%);stroke-opacity:0.02;stroke-width:2" /><text x="132.27" y="141.89" style="fill:rgb(14.9%,14.9%,14.9%);fill-opacity:1.0;stroke:rgb(0.0%,0.0%,0.0%);stroke-opacity:0.02;stroke-width:2;text-anchor:middle" /><path d="M 199.75 173.88 L 165.10 173.88 L 50.78 125.00 L 50.78 125.00" style="stroke:rgb(23.2%,48.7%,71.9%);stroke-opacity:0.0396;stroke-width:2" /><text x="107.94" y="161.44" style="fill:rgb(14.9%,14.9%,14.9%);fill-opacity:1.0;stroke:rgb(0.0%,0.0%,0.0%);stroke-opacity:0.0396;stroke-width:2;text-anchor:middle" /><path d="M 150.10 105.45 L 106.23 105.45 L 155.88 173.88 L 150.10 173.88" style="stroke:rgb(27.6%,43.0%,69.2%);stroke-opacity:0.0268;stroke-width:2" /><text x="131.06" y="151.66" style="fill:rgb(14.9%,14.9%,14.9%);fill-opacity:1.0;stroke:rgb(0.0%,0.0%,0.0%);stroke-opacity:0.0268;stroke-width:2;text-anchor:middle" /><path d="M 100.44 164.10 L 60.13 164.10 L 159.44 115.22 L 150.10 115.22" style="stroke:rgb(27.1%,61.7%,70.7%);stroke-opacity:0.0683;stroke-width:2" /><text x="109.78" y="151.66" style="fill:rgb(14.9%,14.9%,14.9%);fill-opacity:1.0;stroke:rgb(0.0%,0.0%,0.0%);stroke-opacity:0.0683;stroke-width:2;text-anchor:middle" /></g><g class="toytree-Nodes" style="fill:rgb(40.0%,76.1%,64.7%);fill-opacity:1.0;stroke:rgb(14.9%,14.9%,14.9%);stroke-opacity:1.0;stroke-width:1.5" /><g class="toytree-TipLabels" style="fill:rgb(14.5%,14.5%,14.5%);fill-opacity:1.0;font-family:Helvetica;font-size:12px;font-weight:300;vertical-align:baseline;white-space:pre;stroke:none"><g class="toytree-TipLabel" transform="translate(199.751,56.5693)"><text x="15.0" y="3.066" style="fill:rgb(14.5%,14.5%,14.5%);fill-opacity:1.0">r0</text></g><g class="toytree-TipLabel" transform="translate(199.751,76.121)"><text x="15.0" y="3.066" style="fill:rgb(14.5%,14.5%,14.5%);fill-opacity:1.0">r1</text></g><g class="toytree-TipLabel" transform="translate(199.751,95.6726)"><text x="15.0" y="3.066" style="fill:rgb(14.5%,14.5%,14.5%);fill-opacity:1.0">r2</text></g><g class="toytree-TipLabel" transform="translate(199.751,115.224)"><text x="15.0" y="3.066" style="fill:rgb(14.5%,14.5%,14.5%);fill-opacity:1.0">r3</text></g><g class="toytree-TipLabel" transform="translate(199.751,134.776)"><text x="15.0" y="3.066" style="fill:rgb(14.5%,14.5%,14.5%);fill-opacity:1.0">r4</text></g><g class="toytree-TipLabel" transform="translate(199.751,154.327)"><text x="15.0" y="3.066" style="fill:rgb(14.5%,14.5%,14.5%);fill-opacity:1.0">r5</text></g><g class="toytree-TipLabel" transform="translate(199.751,173.879)"><text x="15.0" y="3.066" style="fill:rgb(14.5%,14.5%,14.5%);fill-opacity:1.0">r6</text></g><g class="toytree-TipLabel" transform="translate(199.751,193.431)"><text x="15.0" y="3.066" style="fill:rgb(14.5%,14.5%,14.5%);fill-opacity:1.0">r7</text></g></g></g></g></g><g class="toyplot-coordinates-Numberline" id="tb91ae1c6eb284f34a03239e5e3375131"><clipPath id="tf2009a8a9c584af2bae6c7e8246d78cd"><rect x="0" y="-20.0" width="140.0" height="40.0" /></clipPath><g clip-path="url(#tf2009a8a9c584af2bae6c7e8246d78cd)" transform="translate(250.0,195.0)rotate(-90.0)"><g class="toyplot-color-Map" id="t5d67ae1216d046968d0d40d1d3fcd591"><defs><linearGradient id="teb5e6ccb79ad402baafdeb3a2260cbbc" x1="0.0" x2="140.0" y1="0" y2="0" gradientUnits="userSpaceOnUse"><stop stop-color="rgb(36.9%,31%,63.5%)" stop-opacity="1.0" offset="0.0" /><stop stop-color="rgb(34.1%,34.5%,65.2%)" stop-opacity="1.0" offset="0.015873015873015872" /><stop stop-color="rgb(31.4%,38.1%,66.9%)" stop-opacity="1.0" offset="0.031746031746031744" /><stop stop-color="rgb(28.6%,41.6%,68.6%)" stop-opacity="1.0" offset="0.047619047619047616" /><stop stop-color="rgb(25.9%,45.2%,70.3%)" stop-opacity="1.0" offset="0.06349206349206349" /><stop stop-color="rgb(23.2%,48.7%,71.9%)" stop-opacity="1.0" offset="0.07936507936507936" /><stop stop-color="rgb(20.4%,52.3%,73.6%)" stop-opacity="1.0" offset="0.09523809523809523" /><stop stop-color="rgb(21.9%,55.9%,73.1%)" stop-opacity="1.0" offset="0.1111111111111111" /><stop stop-color="rgb(25.1%,59.5%,71.6%)" stop-opacity="1.0" offset="0.12698412698412698" /><stop stop-color="rgb(28.3%,63.1%,70.1%)" stop-opacity="1.0" offset="0.14285714285714285" /><stop stop-color="rgb(31.6%,66.7%,68.6%)" stop-opacity="1.0" offset="0.15873015873015872" /><stop stop-color="rgb(34.8%,70.3%,67.1%)" stop-opacity="1.0" offset="0.1746031746031746" /><stop stop-color="rgb(38.1%,73.9%,65.6%)" stop-opacity="1.0" offset="0.19047619047619047" /><stop stop-color="rgb(41.7%,76.8%,64.7%)" stop-opacity="1.0" offset="0.20634920634920634" /><stop stop-color="rgb(46%,78.4%,64.6%)" stop-opacity="1.0" offset="0.2222222222222222" /><stop stop-color="rgb(50.3%,80.1%,64.6%)" stop-opacity="1.0" offset="0.23809523809523805" /><stop stop-color="rgb(54.6%,81.8%,64.5%)" stop-opacity="1.0" offset="0.25396825396825395" /><stop stop-color="rgb(58.9%,83.5%,64.4%)" stop-opacity="1.0" offset="0.2698412698412698" /><stop stop-color="rgb(63.2%,85.2%,64.4%)" stop-opacity="1.0" offset="0.2857142857142857" /><stop stop-color="rgb(67.4%,86.8%,64.2%)" stop-opacity="1.0" offset="0.30158730158730157" /><stop stop-color="rgb(71.1%,88.3%,63.5%)" stop-opacity="1.0" offset="0.31746031746031744" /><stop stop-color="rgb(74.8%,89.8%,62.7%)" stop-opacity="1.0" offset="0.3333333333333333" /><stop stop-color="rgb(78.4%,91.3%,62%)" stop-opacity="1.0" offset="0.3492063492063492" /><stop stop-color="rgb(82.1%,92.8%,61.3%)" stop-opacity="1.0" offset="0.36507936507936506" /><stop stop-color="rgb(85.8%,94.3%,60.5%)" stop-opacity="1.0" offset="0.38095238095238093" /><stop stop-color="rgb(89.5%,95.8%,59.8%)" stop-opacity="1.0" offset="0.3968253968253968" /><stop stop-color="rgb(91.4%,96.6%,61.5%)" stop-opacity="1.0" offset="0.4126984126984127" /><stop stop-color="rgb(93%,97.2%,64%)" stop-opacity="1.0" offset="0.42857142857142855" /><stop stop-color="rgb(94.6%,97.8%,66.4%)" stop-opacity="1.0" offset="0.4444444444444444" /><stop stop-color="rgb(96.1%,98.4%,68.8%)" stop-opacity="1.0" offset="0.4603174603174603" /><stop stop-color="rgb(97.7%,99.1%,71.3%)" stop-opacity="1.0" offset="0.4761904761904761" /><stop stop-color="rgb(99.2%,99.7%,73.7%)" stop-opacity="1.0" offset="0.49206349206349204" /><stop stop-color="rgb(100%,99%,73.3%)" stop-opacity="1.0" offset="0.5079365079365079" /><stop stop-color="rgb(99.9%,97.1%,70%)" stop-opacity="1.0" offset="0.5238095238095237" /><stop stop-color="rgb(99.8%,95.2%,66.8%)" stop-opacity="1.0" offset="0.5396825396825397" /><stop stop-color="rgb(99.8%,93.2%,63.6%)" stop-opacity="1.0" offset="0.5555555555555556" /><stop stop-color="rgb(99.7%,91.3%,60.3%)" stop-opacity="1.0" offset="0.5714285714285714" /><stop stop-color="rgb(99.7%,89.4%,57.1%)" stop-opacity="1.0" offset="0.5873015873015872" /><stop stop-color="rgb(99.6%,87.2%,54%)" stop-opacity="1.0" offset="0.6031746031746031" /><stop stop-color="rgb(99.5%,84.1%,51.4%)" stop-opacity="1.0" offset="0.6190476190476191" /><stop stop-color="rgb(99.5%,81%,48.8%)" stop-opacity="1.0" offset="0.6349206349206349" /><stop stop-color="rgb(99.4%,77.9%,46.1%)" stop-opacity="1.0" offset="0.6507936507936507" /><stop stop-color="rgb(99.3%,74.8%,43.5%)" stop-opacity="1.0" offset="0.6666666666666666" /><stop stop-color="rgb(99.3%,71.7%,40.9%)" stop-opacity="1.0" offset="0.6825396825396826" /><stop stop-color="rgb(99.2%,68.5%,38.3%)" stop-opacity="1.0" offset="0.6984126984126984" /><stop stop-color="rgb(98.7%,64.6%,36.4%)" stop-opacity="1.0" offset="0.7142857142857142" /><stop stop-color="rgb(98.2%,60.5%,34.5%)" stop-opacity="1.0" offset="0.7301587301587301" /><stop stop-color="rgb(97.6%,56.5%,32.6%)" stop-opacity="1.0" offset="0.746031746031746" /><stop stop-color="rgb(97%,52.5%,30.8%)" stop-opacity="1.0" offset="0.7619047619047619" /><stop stop-color="rgb(96.5%,48.4%,28.9%)" stop-opacity="1.0" offset="0.7777777777777777" /><stop stop-color="rgb(95.9%,44.4%,27%)" stop-opacity="1.0" offset="0.7936507936507936" /><stop stop-color="rgb(94.5%,41%,26.7%)" stop-opacity="1.0" offset="0.8095238095238095" /><stop stop-color="rgb(92.6%,38.1%,27.5%)" stop-opacity="1.0" offset="0.8253968253968254" /><stop stop-color="rgb(90.7%,35.1%,28.2%)" stop-opacity="1.0" offset="0.8412698412698412" /><stop stop-color="rgb(88.7%,32.2%,29%)" stop-opacity="1.0" offset="0.8571428571428571" /><stop stop-color="rgb(86.8%,29.3%,29.7%)" stop-opacity="1.0" offset="0.873015873015873" /><stop stop-color="rgb(84.9%,26.4%,30.5%)" stop-opacity="1.0" offset="0.8888888888888888" /><stop stop-color="rgb(82.5%,23.2%,30.7%)" stop-opacity="1.0" offset="0.9047619047619047" /><stop stop-color="rgb(79.1%,19.4%,29.9%)" stop-opacity="1.0" offset="0.9206349206349206" /><stop stop-color="rgb(75.7%,15.6%,29.1%)" stop-opacity="1.0" offset="0.9365079365079365" /><stop stop-color="rgb(72.2%,11.8%,28.3%)" stop-opacity="1.0" offset="0.9523809523809522" /><stop stop-color="rgb(68.8%,7.99%,27.5%)" stop-opacity="1.0" offset="0.9682539682539681" /><stop stop-color="rgb(65.4%,4.19%,26.7%)" stop-opacity="1.0" offset="0.9841269841269841" /><stop stop-color="rgb(62%,0.392%,25.9%)" stop-opacity="1.0" offset="1.0" /></linearGradient></defs><rect x="0.0" y="-7.5" width="140.0" height="15" style="fill:url(#teb5e6ccb79ad402baafdeb3a2260cbbc);stroke:rgb(0%,0%,0%);stroke-opacity:1.0;stroke-width:2" /></g></g><g class="toyplot-coordinates-Axis" id="tf6479bcb86e24f2ca66f8b472ced6628" transform="translate(250.0,195.0)rotate(-90.0)translate(0,20.0)"><line x1="0" y1="0" x2="140.0" y2="0" style="stroke-width:2" /><g><line x1="0.0" y1="0" x2="0.0" y2="-3" style="stroke-width:2" /><line x1="70.0" y1="0" x2="70.0" y2="-3" style="stroke-width:2" /><line x1="140.0" y1="0" x2="140.0" y2="-3" style="stroke-width:2" /></g><g><g transform="translate(0.0,6)"><text x="-7.6450000000000005" y="9.410499999999999" style="fill:rgb(16.1%,15.3%,14.1%);fill-opacity:1.0;font-family:helvetica;font-size:11.0px;font-weight:normal;stroke:none;vertical-align:baseline;white-space:pre">0.0</text></g><g transform="translate(70.0,6)"><text x="-10.703000000000001" y="9.410499999999999" style="fill:rgb(16.1%,15.3%,14.1%);fill-opacity:1.0;font-family:helvetica;font-size:11.0px;font-weight:normal;stroke:none;vertical-align:baseline;white-space:pre">0.25</text></g><g transform="translate(140.0,6)"><text x="-7.6450000000000005" y="9.410499999999999" style="fill:rgb(16.1%,15.3%,14.1%);fill-opacity:1.0;font-family:helvetica;font-size:11.0px;font-weight:normal;stroke:none;vertical-align:baseline;white-space:pre">0.5</text></g></g><g class="toyplot-coordinates-Axis-coordinates" style="visibility:hidden" transform=""><line x1="0" x2="0" y1="-3.0" y2="4.5" style="stroke:rgb(43.9%,50.2%,56.5%);stroke-opacity:1.0;stroke-width:1.0" /><text x="0" y="-6" style="alignment-baseline:alphabetic;fill:rgb(43.9%,50.2%,56.5%);fill-opacity:1.0;font-size:10px;font-weight:normal;stroke:none;text-anchor:middle" /></g></g></g><g class="toyplot-mark-Text" id="t358e25782bae4e5a9b1f44320b08b6ab"><g class="toyplot-Series"><g class="toyplot-Datum" transform="translate(90.0,45.0)"><text x="-28.5835" y="-3.7895000000000003" style="fill:rgb(16.1%,15.3%,14.1%);fill-opacity:1.0;font-family:helvetica;font-size:11.0px;font-weight:bold;opacity:1;stroke:none;vertical-align:baseline;white-space:pre">Major=0.97</text><text x="-42.339000000000006" y="9.410499999999999" style="fill:rgb(16.1%,15.3%,14.1%);fill-opacity:1.0;font-family:helvetica;font-size:11.0px;font-weight:bold;opacity:1;stroke:none;vertical-align:baseline;white-space:pre">Alternative=0.03</text></g></g></g></svg>