<svg class="toyplot-canvas-Canvas" xmlns:toyplot="http://www.sandia.gov/toyplot" xmlns:xlink="http://www.w3.org/1999/xlink" xmlns="http://www.w3.org/2000/svg" width="290.0px" height="250.0px" viewBox="0 0 290.0 250.0" preserveAspectRatio="xMidYMid meet" style="background-color:transparent;border-color:#292724;border-style:none;border-width:1.0;fill:rgb(16.1%,15.3%,14.1%);fill-opacity:1.0;font-family:Helvetica;font-size:12px;opacity:1.0;stroke:rgb(16.1%,15.3%,14.1%);stroke-opacity:1.0;stroke-width:1.0" id="t68c7d4ccfdc447e19edfa4cba65bcb0b"><g class="toyplot-coordinates-Cartesian" id="t377007f184444d379667b08353318219"><clipPath id="t987ff34f68794836b89047e16a15e2a9"><rect x="35.0" y="35.0" width="220.0" height="180.0" /></clipPath><g clip-path="url(#t987ff34f68794836b89047e16a15e2a9)"><g class="toytree-mark-Toytree" id="t12cdc844dfe24ee7a09f14b089254efc"><g class="toytree-Edges" style="stroke:rgb(14.5%,14.5%,14.5%);stroke-opacity:1.0;stroke-linecap:round;stroke-width:2.0;fill:none"><path d="M 150.1 66.3 L 150.1 56.6 L 199.8 56.6" id="8,0" style="" /><path d="M 150.1 66.3 L 150.1 76.1 L 199.8 76.1" id="8,1" style="" /><path d="M 150.1 105.4 L 150.1 95.7 L 199.8 95.7" id="9,2" style="" /><path d="M 150.1 105.4 L 150.1 115.2 L 199.8 115.2" id="9,3" style="" /><path d="M 150.1 144.6 L 150.1 134.8 L 199.8 134.8" id="11,4" style="" /><path d="M 150.1 144.6 L 150.1 154.3 L 199.8 154.3" id="11,5" style="" /><path d="M 150.1 183.7 L 150.1 173.9 L 199.8 173.9" id="12,6" style="" /><path d="M 150.1 183.7 L 150.1 193.4 L 199.8 193.4" id="12,7" style="" /><path d="M 100.4 85.9 L 100.4 66.3 L 150.1 66.3" id="10,8" style="" /><path d="M 100.4 85.9 L 100.4 105.4 L 150.1 105.4" id="10,9" style="" /><path d="M 50.8 125.0 L 50.8 85.9 L 100.4 85.9" id="14,10" style="" /><path d="M 100.4 164.1 L 100.4 144.6 L 150.1 144.6" id="13,11" style="" /><path d="M 100.4 164.1 L 100.4 183.7 L 150.1 183.7" id="13,12" style="" /><path d="M 50.8 125.0 L 50.8 164.1 L 100.4 164.1" id="14,13" style="" /></g><g class="toytree-AdmixEdges" style="fill:rgb(0.0%,0.0%,0.0%);fill-opacity:0.0;stroke:rgb(90.6%,54.1%,76.5%);stroke-opacity:0.6;font-size:14px;stroke-linecap:round;stroke-width:5"><path d="M 199.75 154.33 L 154.78 154.33 L 154.78 193.43 L 150.10 193.43" style="stroke:rgb(33.8%,35.0%,65.4%);stroke-opacity:0.00895;stroke-width:2" /><text x="154.78" y="185.88" style="fill:rgb(14.9%,14.9%,14.9%);fill-opacity:1.0;stroke:rgb(0.0%,0.0%,0.0%);stroke-opacity:0.00895;stroke-width:2;text-anchor:middle" /><path d="M 150.10 144.55 L 132.65 144.55 L 182.30 115.22 L 150.10 115.22" style="stroke:rgb(30.4%,39.3%,67.5%);stroke-opacity:0.0186;stroke-width:2" /><text x="157.47" y="141.89" style="fill:rgb(14.9%,14.9%,14.9%);fill-opacity:1.0;stroke:rgb(0.0%,0.0%,0.0%);stroke-opacity:0.0186;stroke-width:2;text-anchor:middle" /><path d="M 199.75 76.12 L 187.91 76.12 L 187.91 95.67 L 150.10 95.67" style="stroke:rgb(29.4%,40.6%,68.1%);stroke-opacity:0.0215;stroke-width:2" /><text x="187.91" y="97.90" style="fill:rgb(14.9%,14.9%,14.9%);fill-opacity:1.0;stroke:rgb(0.0%,0.0%,0.0%);stroke-opacity:0.0215;stroke-width:2;text-anchor:middle" /><path d="M 199.75 193.43 L 183.72 193.43 L 183.72 134.78 L 150.10 134.78" style="stroke:rgb(32.8%,36.3%,66.0%);stroke-opacity:0.0118;stroke-width:2" /><text x="183.72" y="176.10" style="fill:rgb(14.9%,14.9%,14.9%);fill-opacity:1.0;stroke:rgb(0.0%,0.0%,0.0%);stroke-opacity:0.0118;stroke-width:2;text-anchor:middle" /><path d="M 199.75 76.12 L 167.49 76.12 L 167.49 115.22 L 150.10 115.22" style="stroke:rgb(32.9%,36.2%,66.0%);stroke-opacity:0.0116;stroke-width:2" /><text x="167.49" y="107.67" style="fill:rgb(14.9%,14.9%,14.9%);fill-opacity:1.0;stroke:rgb(0.0%,0.0%,0.0%);stroke-opacity:0.0116;stroke-width:2;text-anchor:middle" /><path d="M 199.75 95.67 L 194.94 95.67 L 194.94 56.57 L 150.10 56.57" style="stroke:rgb(28.8%,41.4%,68.5%);stroke-opacity:0.0233;stroke-width:2" /><text x="194.94" y="88.12" style="fill:rgb(14.9%,14.9%,14.9%);fill-opacity:1.0;stroke:rgb(0.0%,0.0%,0.0%);stroke-opacity:0.0233;stroke-width:2;text-anchor:middle" /><path d="M 199.75 154.33 L 197.53 154.33 L 197.53 95.67 L 150.10 95.67" style="stroke:rgb(28.3%,42.0%,68.8%);stroke-opacity:0.0247;stroke-width:2" /><text x="197.53" y="137.00" style="fill:rgb(14.9%,14.9%,14.9%);fill-opacity:1.0;stroke:rgb(0.0%,0.0%,0.0%);stroke-opacity:0.0247;stroke-width:2;text-anchor:middle" /><path d="M 199.75 173.88 L 191.77 173.88 L 191.77 154.33 L 150.10 154.33" style="stroke:rgb(29.7%,40.2%,67.9%);stroke-opacity:0.0207;stroke-width:2" /><text x="191.77" y="176.10" style="fill:rgb(14.9%,14.9%,14.9%);fill-opacity:1.0;stroke:rgb(0.0%,0.0%,0.0%);stroke-opacity:0.0207;stroke-width:2;text-anchor:middle" /><path d="M 150.10 105.45 L 127.79 105.45 L 177.44 193.43 L 150.10 193.43" style="stroke:rgb(32.5%,36.7%,66.2%);stroke-opacity:0.0127;stroke-width:2" /><text x="152.62" y="161.44" style="fill:rgb(14.9%,14.9%,14.9%);fill-opacity:1.0;stroke:rgb(0.0%,0.0%,0.0%);stroke-opacity:0.0127;stroke-width:2;text-anchor:middle" /><path d="M 199.75 154.33 L 178.66 154.33 L 178.66 193.43 L 150.10 193.43" style="stroke:rgb(47.6%,79.0%,64.6%);stroke-opacity:0.114;stroke-width:2" /><text x="178.66" y="185.88" style="fill:rgb(14.9%,14.9%,14.9%);fill-opacity:1.0;stroke:rgb(0.0%,0.0%,0.0%);stroke-opacity:0.114;stroke-width:2;text-anchor:middle" /><path d="M 199.75 134.78 L 156.53 134.78 L 156.53 115.22 L 150.10 115.22" style="stroke:rgb(33.9%,34.8%,65.3%);stroke-opacity:0.0085;stroke-width:2" /><text x="156.53" y="137.00" style="fill:rgb(14.9%,14.9%,14.9%);fill-opacity:1.0;stroke:rgb(0.0%,0.0%,0.0%);stroke-opacity:0.0085;stroke-width:2;text-anchor:middle" /><path d="M 150.10 105.45 L 116.57 105.45 L 166.23 193.43 L 150.10 193.43" style="stroke:rgb(33.2%,35.7%,65.8%);stroke-opacity:0.0105;stroke-width:2" /><text x="141.40" y="161.44" style="fill:rgb(14.9%,14.9%,14.9%);fill-opacity:1.0;stroke:rgb(0.0%,0.0%,0.0%);stroke-opacity:0.0105;stroke-width:2;text-anchor:middle" /><path d="M 199.75 173.88 L 169.61 173.88 L 169.61 95.67 L 150.10 95.67" style="stroke:rgb(32.6%,36.5%,66.2%);stroke-opacity:0.0124;stroke-width:2" /><text x="169.61" y="146.78" style="fill:rgb(14.9%,14.9%,14.9%);fill-opacity:1.0;stroke:rgb(0.0%,0.0%,0.0%);stroke-opacity:0.0124;stroke-width:2;text-anchor:middle" /><path d="M 199.75 76.12 L 187.40 76.12 L 187.40 95.67 L 150.10 95.67" style="stroke:rgb(70.6%,10.0%,27.9%);stroke-opacity:0.48;stroke-width:2" /><text x="187.40" y="97.90" style="fill:rgb(14.9%,14.9%,14.9%);fill-opacity:1.0;stroke:rgb(0.0%,0.0%,0.0%);stroke-opacity:0.48;stroke-width:2;text-anchor:middle" /><path d="M 199.75 76.12 L 187.13 76.12 L 187.13 154.33 L 150.10 154.33" style="stroke:rgb(33.0%,36.0%,65.9%);stroke-opacity:0.0113;stroke-width:2" /><text x="187.13" y="127.22" style="fill:rgb(14.9%,14.9%,14.9%);fill-opacity:1.0;stroke:rgb(0.0%,0.0%,0.0%);stroke-opacity:0.0113;stroke-width:2;text-anchor:middle" /><path d="M 199.75 76.12 L 179.88 76.12 L 179.88 134.78 L 150.10 134.78" style="stroke:rgb(25.4%,45.8%,70.5%);stroke-opacity:0.0331;stroke-width:2" /><text x="179.88" y="117.45" style="fill:rgb(14.9%,14.9%,14.9%);fill-opacity:1.0;stroke:rgb(0.0%,0.0%,0.0%);stroke-opacity:0.0331;stroke-width:2;text-anchor:middle" /><path d="M 199.75 56.57 L 183.16 56.57 L 183.16 154.33 L 150.10 154.33" style="stroke:rgb(32.4%,36.7%,66.3%);stroke-opacity:0.0129;stroke-width:2" /><text x="183.16" y="117.45" style="fill:rgb(14.9%,14.9%,14.9%);fill-opacity:1.0;stroke:rgb(0.0%,0.0%,0.0%);stroke-opacity:0.0129;stroke-width:2;text-anchor:middle" /><path d="M 199.75 173.88 L 175.14 173.88 L 175.14 115.22 L 150.10 115.22" style="stroke:rgb(83.7%,93.4%,60.9%);stroke-opacity:0.186;stroke-width:2" /><text x="175.14" y="156.55" style="fill:rgb(14.9%,14.9%,14.9%);fill-opacity:1.0;stroke:rgb(0.0%,0.0%,0.0%);stroke-opacity:0.186;stroke-width:2;text-anchor:middle" /><path d="M 199.75 115.22 L 191.49 115.22 L 191.49 154.33 L 150.10 154.33" style="stroke:rgb(25.6%,45.5%,70.4%);stroke-opacity:0.0325;stroke-width:2" /><text x="191.49" y="146.78" style="fill:rgb(14.9%,14.9%,14.9%);fill-opacity:1.0;stroke:rgb(0.0%,0.0%,0.0%);stroke-opacity:0.0325;stroke-width:2;text-anchor:middle" /><path d="M 150.10 183.65 L 124.73 183.65 L 174.39 56.57 L 150.10 56.57" style="stroke:rgb(27.9%,42.6%,69.0%);stroke-opacity:0.026;stroke-width:2" /><text x="149.56" y="132.11" style="fill:rgb(14.9%,14.9%,14.9%);fill-opacity:1.0;stroke:rgb(0.0%,0.0%,0.0%);stroke-opacity:0.026;stroke-width:2;text-anchor:middle" /><path d="M 199.75 154.33 L 173.36 154.33 L 173.36 115.22 L 150.10 115.22" style="stroke:rgb(25.9%,45.2%,70.2%);stroke-opacity:0.0317;stroke-width:2" /><text x="173.36" y="146.78" style="fill:rgb(14.9%,14.9%,14.9%);fill-opacity:1.0;stroke:rgb(0.0%,0.0%,0.0%);stroke-opacity:0.0317;stroke-width:2;text-anchor:middle" /><path d="M 199.75 76.12 L 156.87 76.12 L 156.87 115.22 L 150.10 115.22" style="stroke:rgb(97.6%,56.5%,32.6%);stroke-opacity:0.373;stroke-width:2" /><text x="156.87" y="107.67" style="fill:rgb(14.9%,14.9%,14.9%);fill-opacity:1.0;stroke:rgb(0.0%,0.0%,0.0%);stroke-opacity:0.373;stroke-width:2;text-anchor:middle" /><path d="M 199.75 154.33 L 182.55 154.33 L 182.55 173.88 L 150.10 173.88" style="stroke:rgb(24.1%,58.3%,72.0%);stroke-opacity:0.061;stroke-width:2" /><text x="182.55" y="176.10" style="fill:rgb(14.9%,14.9%,14.9%);fill-opacity:1.0;stroke:rgb(0.0%,0.0%,0.0%);stroke-opacity:0.061;stroke-width:2;text-anchor:middle" /><path d="M 199.75 76.12 L 155.00 76.12 L 155.00 95.67 L 150.10 95.67" style="stroke:rgb(28.1%,42.3%,68.9%);stroke-opacity:0.0254;stroke-width:2" /><text x="155.00" y="97.90" style="fill:rgb(14.9%,14.9%,14.9%);fill-opacity:1.0;stroke:rgb(0.0%,0.0%,0.0%);stroke-opacity:0.0254;stroke-width:2;text-anchor:middle" /><path d="M 199.75 134.78 L 197.05 134.78 L 197.05 115.22 L 150.10 115.22" style="stroke:rgb(28.7%,41.6%,68.5%);stroke-opacity:0.0237;stroke-width:2" /><text x="197.05" y="137.00" style="fill:rgb(14.9%,14.9%,14.9%);fill-opacity:1.0;stroke:rgb(0.0%,0.0%,0.0%);stroke-opacity:0.0237;stroke-width:2;text-anchor:middle" /><path d="M 199.75 115.22 L 191.79 115.22 L 191.79 193.43 L 150.10 193.43" style="stroke:rgb(20.7%,54.6%,73.6%);stroke-opacity:0.0527;stroke-width:2" /><text x="191.79" y="166.33" style="fill:rgb(14.9%,14.9%,14.9%);fill-opacity:1.0;stroke:rgb(0.0%,0.0%,0.0%);stroke-opacity:0.0527;stroke-width:2;text-anchor:middle" /><path d="M 199.75 95.67 L 188.14 95.67 L 188.14 56.57 L 150.10 56.57" style="stroke:rgb(27.2%,43.5%,69.5%);stroke-opacity:0.028;stroke-width:2" /><text x="188.14" y="88.12" style="fill:rgb(14.9%,14.9%,14.9%);fill-opacity:1.0;stroke:rgb(0.0%,0.0%,0.0%);stroke-opacity:0.028;stroke-width:2;text-anchor:middle" /><path d="M 199.75 95.67 L 158.91 95.67 L 158.91 154.33 L 150.10 154.33" style="stroke:rgb(33.3%,35.6%,65.7%);stroke-opacity:0.0104;stroke-width:2" /><text x="158.91" y="137.00" style="fill:rgb(14.9%,14.9%,14.9%);fill-opacity:1.0;stroke:rgb(0.0%,0.0%,0.0%);stroke-opacity:0.0104;stroke-width:2;text-anchor:middle" /><path d="M 199.75 56.57 L 174.58 56.57 L 174.58 115.22 L 150.10 115.22" style="stroke:rgb(70.8%,88.2%,63.6%);stroke-opacity:0.158;stroke-width:2" /><text x="174.58" y="97.90" style="fill:rgb(14.9%,14.9%,14.9%);fill-opacity:1.0;stroke:rgb(0.0%,0.0%,0.0%);stroke-opacity:0.158;stroke-width:2;text-anchor:middle" /><path d="M 199.75 56.57 L 155.52 56.57 L 155.52 95.67 L 150.10 95.67" style="stroke:rgb(75.9%,90.2%,62.5%);stroke-opacity:0.169;stroke-width:2" /><text x="155.52" y="88.12" style="fill:rgb(14.9%,14.9%,14.9%);fill-opacity:1.0;stroke:rgb(0.0%,0.0%,0.0%);stroke-opacity:0.169;stroke-width:2;text-anchor:middle" /><path d="M 199.75 76.12 L 194.86 76.12 L 194.86 95.67 L 150.10 95.67" style="stroke:rgb(99.6%,85.5%,52.5%);stroke-opacity:0.306;stroke-width:2" /><text x="194.86" y="97.90" style="fill:rgb(14.9%,14.9%,14.9%);fill-opacity:1.0;stroke:rgb(0.0%,0.0%,0.0%);stroke-opacity:0.306;stroke-width:2;text-anchor:middle" /><path d="M 199.75 154.33 L 167.63 154.33 L 167.63 173.88 L 150.10 173.88" style="stroke:rgb(100.0%,100.0%,74.9%);stroke-opacity:0.25;stroke-width:2" /><text x="167.63" y="176.10" style="fill:rgb(14.9%,14.9%,14.9%);fill-opacity:1.0;stroke:rgb(0.0%,0.0%,0.0%);stroke-opacity:0.25;stroke-width:2;text-anchor:middle" /><path d="M 199.75 76.12 L 171.23 76.12 L 171.23 193.43 L 150.10 193.43" style="stroke:rgb(32.1%,37.1%,66.5%);stroke-opacity:0.0138;stroke-width:2" /><text x="171.23" y="146.78" style="fill:rgb(14.9%,14.9%,14.9%);fill-opacity:1.0;stroke:rgb(0.0%,0.0%,0.0%);stroke-opacity:0.0138;stroke-width:2;text-anchor:middle" /><path d="M 199.75 115.22 L 186.85 115.22 L 137.20 144.55 L 100.44 144.55" style="stroke:rgb(78.6%,91.4%,62.0%);stroke-opacity:0.175;stroke-width:2" /><text x="162.03" y="141.89" style="fill:rgb(14.9%,14.9%,14.9%);fill-opacity:1.0;stroke:rgb(0.0%,0.0%,0.0%);stroke-opacity:0.175;stroke-width:2;text-anchor:middle" /><path d="M 199.75 154.33 L 155.69 154.33 L 155.69 56.57 L 150.10 56.57" style="stroke:rgb(29.4%,40.6%,68.1%);stroke-opacity:0.0215;stroke-width:2" /><text x="155.69" y="117.45" style="fill:rgb(14.9%,14.9%,14.9%);fill-opacity:1.0;stroke:rgb(0.0%,0.0%,0.0%);stroke-opacity:0.0215;stroke-width:2;text-anchor:middle" /><path d="M 199.75 173.88 L 171.08 173.88 L 171.08 56.57 L 150.10 56.57" style="stroke:rgb(31.5%,38.0%,66.8%);stroke-opacity:0.0156;stroke-width:2" /><text x="171.08" y="127.22" style="fill:rgb(14.9%,14.9%,14.9%);fill-opacity:1.0;stroke:rgb(0.0%,0.0%,0.0%);stroke-opacity:0.0156;stroke-width:2;text-anchor:middle" /><path d="M 199.75 95.67 L 161.19 95.67 L 161.19 154.33 L 150.10 154.33" style="stroke:rgb(29.5%,40.5%,68.1%);stroke-opacity:0.0214;stroke-width:2" /><text x="161.19" y="137.00" style="fill:rgb(14.9%,14.9%,14.9%);fill-opacity:1.0;stroke:rgb(0.0%,0.0%,0.0%);stroke-opacity:0.0214;stroke-width:2;text-anchor:middle" /><path d="M 199.75 95.67 L 163.81 95.67 L 163.81 56.57 L 150.10 56.57" style="stroke:rgb(22.5%,49.6%,72.3%);stroke-opacity:0.0416;stroke-width:2" /><text x="163.81" y="88.12" style="fill:rgb(14.9%,14.9%,14.9%);fill-opacity:1.0;stroke:rgb(0.0%,0.0%,0.0%);stroke-opacity:0.0416;stroke-width:2;text-anchor:middle" /><path d="M 199.75 95.67 L 154.04 95.67 L 154.04 76.12 L 150.10 76.12" style="stroke:rgb(25.9%,45.2%,70.2%);stroke-opacity:0.0317;stroke-width:2" /><text x="154.04" y="97.90" style="fill:rgb(14.9%,14.9%,14.9%);fill-opacity:1.0;stroke:rgb(0.0%,0.0%,0.0%);stroke-opacity:0.0317;stroke-width:2;text-anchor:middle" /><path d="M 199.75 95.67 L 154.96 95.67 L 154.96 76.12 L 150.10 76.12" style="stroke:rgb(22.9%,57.0%,72.6%);stroke-opacity:0.058;stroke-width:2" /><text x="154.96" y="97.90" style="fill:rgb(14.9%,14.9%,14.9%);fill-opacity:1.0;stroke:rgb(0.0%,0.0%,0.0%);stroke-opacity:0.058;stroke-width:2;text-anchor:middle" /><path d="M 199.75 115.22 L 159.60 115.22 L 159.60 134.78 L 150.10 134.78" style="stroke:rgb(24.1%,47.6%,71.4%);stroke-opacity:0.0371;stroke-width:2" /><text x="159.60" y="137.00" style="fill:rgb(14.9%,14.9%,14.9%);fill-opacity:1.0;stroke:rgb(0.0%,0.0%,0.0%);stroke-opacity:0.0371;stroke-width:2;text-anchor:middle" /><path d="M 199.75 56.57 L 171.37 56.57 L 171.37 95.67 L 150.10 95.67" style="stroke:rgb(99.8%,93.2%,63.5%);stroke-opacity:0.278;stroke-width:2" /><text x="171.37" y="88.12" style="fill:rgb(14.9%,14.9%,14.9%);fill-opacity:1.0;stroke:rgb(0.0%,0.0%,0.0%);stroke-opacity:0.278;stroke-width:2;text-anchor:middle" /><path d="M 199.75 95.67 L 163.00 95.67 L 163.00 56.57 L 150.10 56.57" style="stroke:rgb(32.9%,36.2%,66.0%);stroke-opacity:0.0116;stroke-width:2" /><text x="163.00" y="88.12" style="fill:rgb(14.9%,14.9%,14.9%);fill-opacity:1.0;stroke:rgb(0.0%,0.0%,0.0%);stroke-opacity:0.0116;stroke-width:2;text-anchor:middle" /><path d="M 199.75 56.57 L 192.36 56.57 L 192.36 154.33 L 150.10 154.33" style="stroke:rgb(21.3%,51.1%,73.1%);stroke-opacity:0.0451;stroke-width:2" /><text x="192.36" y="117.45" style="fill:rgb(14.9%,14.9%,14.9%);fill-opacity:1.0;stroke:rgb(0.0%,0.0%,0.0%);stroke-opacity:0.0451;stroke-width:2;text-anchor:middle" /><path d="M 199.75 56.57 L 183.65 56.57 L 183.65 173.88 L 150.10 173.88" style="stroke:rgb(20.4%,52.3%,73.7%);stroke-opacity:0.0478;stroke-width:2" /><text x="183.65" y="127.22" style="fill:rgb(14.9%,14.9%,14.9%);fill-opacity:1.0;stroke:rgb(0.0%,0.0%,0.0%);stroke-opacity:0.0478;stroke-width:2;text-anchor:middle" /><path d="M 199.75 95.67 L 185.05 95.67 L 185.05 76.12 L 150.10 76.12" style="stroke:rgb(27.3%,43.3%,69.4%);stroke-opacity:0.0276;stroke-width:2" /><text x="185.05" y="97.90" style="fill:rgb(14.9%,14.9%,14.9%);fill-opacity:1.0;stroke:rgb(0.0%,0.0%,0.0%);stroke-opacity:0.0276;stroke-width:2;text-anchor:middle" /><path d="M 199.75 134.78 L 162.51 134.78 L 162.51 115.22 L 150.10 115.22" style="stroke:rgb(21.5%,50.9%,73.0%);stroke-opacity:0.0446;stroke-width:2" /><text x="162.51" y="137.00" style="fill:rgb(14.9%,14.9%,14.9%);fill-opacity:1.0;stroke:rgb(0.0%,0.0%,0.0%);stroke-opacity:0.0446;stroke-width:2;text-anchor:middle" /><path d="M 199.75 115.22 L 179.80 115.22 L 179.80 193.43 L 150.10 193.43" style="stroke:rgb(35.5%,71.1%,66.8%);stroke-opacity:0.089;stroke-width:2" /><text x="179.80" y="166.33" style="fill:rgb(14.9%,14.9%,14.9%);fill-opacity:1.0;stroke:rgb(0.0%,0.0%,0.0%);stroke-opacity:0.089;stroke-width:2;text-anchor:middle" /><path d="M 150.10 144.55 L 113.40 144.55 L 163.06 115.22 L 150.10 115.22" style="stroke:rgb(32.5%,36.6%,66.2%);stroke-opacity:0.0125;stroke-width:2" /><text x="138.23" y="141.89" style="fill:rgb(14.9%,14.9%,14.9%);fill-opacity:1.0;stroke:rgb(0.0%,0.0%,0.0%);stroke-opacity:0.0125;stroke-width:2;text-anchor:middle" /><path d="M 199.75 115.22 L 170.96 115.22 L 121.30 144.55 L 100.44 144.55" style="stroke:rgb(64.9%,85.8%,64.3%);stroke-opacity:0.146;stroke-width:2" /><text x="146.13" y="141.89" style="fill:rgb(14.9%,14.9%,14.9%);fill-opacity:1.0;stroke:rgb(0.0%,0.0%,0.0%);stroke-opacity:0.146;stroke-width:2;text-anchor:middle" /><path d="M 199.75 173.88 L 176.46 173.88 L 176.46 95.67 L 150.10 95.67" style="stroke:rgb(68.4%,87.2%,64.0%);stroke-opacity:0.153;stroke-width:2" /><text x="176.46" y="146.78" style="fill:rgb(14.9%,14.9%,14.9%);fill-opacity:1.0;stroke:rgb(0.0%,0.0%,0.0%);stroke-opacity:0.153;stroke-width:2;text-anchor:middle" /><path d="M 199.75 115.22 L 171.02 115.22 L 171.02 193.43 L 150.10 193.43" style="stroke:rgb(73.1%,89.1%,63.1%);stroke-opacity:0.163;stroke-width:2" /><text x="171.02" y="166.33" style="fill:rgb(14.9%,14.9%,14.9%);fill-opacity:1.0;stroke:rgb(0.0%,0.0%,0.0%);stroke-opacity:0.163;stroke-width:2;text-anchor:middle" /><path d="M 199.75 95.67 L 153.69 95.67 L 153.69 193.43 L 150.10 193.43" style="stroke:rgb(39.2%,75.2%,65.1%);stroke-opacity:0.0981;stroke-width:2" /><text x="153.69" y="156.55" style="fill:rgb(14.9%,14.9%,14.9%);fill-opacity:1.0;stroke:rgb(0.0%,0.0%,0.0%);stroke-opacity:0.0981;stroke-width:2;text-anchor:middle" /><path d="M 150.10 105.45 L 127.76 105.45 L 177.42 193.43 L 150.10 193.43" style="stroke:rgb(54.1%,81.6%,64.5%);stroke-opacity:0.126;stroke-width:2" /><text x="152.59" y="161.44" style="fill:rgb(14.9%,14.9%,14.9%);fill-opacity:1.0;stroke:rgb(0.0%,0.0%,0.0%);stroke-opacity:0.126;stroke-width:2;text-anchor:middle" /><path d="M 199.75 154.33 L 152.18 154.33 L 152.18 173.88 L 150.10 173.88" style="stroke:rgb(99.4%,99.8%,74.0%);stroke-opacity:0.247;stroke-width:2" /><text x="152.18" y="176.10" style="fill:rgb(14.9%,14.9%,14.9%);fill-opacity:1.0;stroke:rgb(0.0%,0.0%,0.0%);stroke-opacity:0.247;stroke-width:2;text-anchor:middle" /><path d="M 199.75 134.78 L 195.08 134.78 L 195.08 115.22 L 150.10 115.22" style="stroke:rgb(68.4%,87.2%,64.0%);stroke-opacity:0.153;stroke-width:2" /><text x="195.08" y="137.00" style="fill:rgb(14.9%,14.9%,14.9%);fill-opacity:1.0;stroke:rgb(0.0%,0.0%,0.0%);stroke-opacity:0.153;stroke-width:2;text-anchor:middle" /><path d="M 199.75 76.12 L 156.14 76.12 L 156.14 115.22 L 150.10 115.22" style="stroke:rgb(26.9%,61.5%,70.7%);stroke-opacity:0.068;stroke-width:2" /><text x="156.14" y="107.67" style="fill:rgb(14.9%,14.9%,14.9%);fill-opacity:1.0;stroke:rgb(0.0%,0.0%,0.0%);stroke-opacity:0.068;stroke-width:2;text-anchor:middle" /><path d="M 199.75 173.88 L 192.58 173.88 L 192.58 154.33 L 150.10 154.33" style="stroke:rgb(26.3%,44.7%,70.0%);stroke-opacity:0.0306;stroke-width:2" /><text x="192.58" y="176.10" style="fill:rgb(14.9%,14.9%,14.9%);fill-opacity:1.0;stroke:rgb(0.0%,0.0%,0.0%);stroke-opacity:0.0306;stroke-width:2;text-anchor:middle" /><path d="M 150.10 183.65 L 123.06 183.65 L 172.71 95.67 L 150.10 95.67" style="stroke:rgb(28.4%,41.9%,68.7%);stroke-opacity:0.0244;stroke-width:2" /><text x="147.88" y="151.66" style="fill:rgb(14.9%,14.9%,14.9%);fill-opacity:1.0;stroke:rgb(0.0%,0.0%,0.0%);stroke-opacity:0.0244;stroke-width:2;text-anchor:middle" /><path d="M 199.75 154.33 L 151.85 154.33 L 151.85 56.57 L 150.10 56.57" style="stroke:rgb(27.5%,43.1%,69.2%);stroke-opacity:0.027;stroke-width:2" /><text x="151.85" y="117.45" style="fill:rgb(14.9%,14.9%,14.9%);fill-opacity:1.0;stroke:rgb(0.0%,0.0%,0.0%);stroke-opacity:0.027;stroke-width:2;text-anchor:middle" /><path d="M 150.10 183.65 L 113.92 183.65 L 163.58 76.12 L 150.10 76.12" style="stroke:rgb(24.4%,47.1%,71.2%);stroke-opacity:0.036;stroke-width:2" /><text x="138.75" y="141.89" style="fill:rgb(14.9%,14.9%,14.9%);fill-opacity:1.0;stroke:rgb(0.0%,0.0%,0.0%);stroke-opacity:0.036;stroke-width:2;text-anchor:middle" /><path d="M 199.75 76.12 L 159.38 76.12 L 159.38 193.43 L 150.10 193.43" style="stroke:rgb(27.8%,42.8%,69.1%);stroke-opacity:0.0264;stroke-width:2" /><text x="159.38" y="146.78" style="fill:rgb(14.9%,14.9%,14.9%);fill-opacity:1.0;stroke:rgb(0.0%,0.0%,0.0%);stroke-opacity:0.0264;stroke-width:2;text-anchor:middle" /><path d="M 199.75 134.78 L 184.71 134.78 L 184.71 76.12 L 150.10 76.12" style="stroke:rgb(26.0%,45.1%,70.2%);stroke-opacity:0.0315;stroke-width:2" /><text x="184.71" y="117.45" style="fill:rgb(14.9%,14.9%,14.9%);fill-opacity:1.0;stroke:rgb(0.0%,0.0%,0.0%);stroke-opacity:0.0315;stroke-width:2;text-anchor:middle" /><path d="M 199.75 173.88 L 180.28 173.88 L 180.28 56.57 L 150.10 56.57" style="stroke:rgb(26.4%,44.5%,69.9%);stroke-opacity:0.0303;stroke-width:2" /><text x="180.28" y="127.22" style="fill:rgb(14.9%,14.9%,14.9%);fill-opacity:1.0;stroke:rgb(0.0%,0.0%,0.0%);stroke-opacity:0.0303;stroke-width:2;text-anchor:middle" /><path d="M 150.10 144.55 L 144.56 144.55 L 194.21 56.57 L 150.10 56.57" style="stroke:rgb(31.8%,37.6%,66.6%);stroke-opacity:0.0147;stroke-width:2" /><text x="169.39" y="112.56" style="fill:rgb(14.9%,14.9%,14.9%);fill-opacity:1.0;stroke:rgb(0.0%,0.0%,0.0%);stroke-opacity:0.0147;stroke-width:2;text-anchor:middle" /><path d="M 199.75 173.88 L 185.03 173.88 L 185.03 154.33 L 150.10 154.33" style="stroke:rgb(27.4%,43.2%,69.3%);stroke-opacity:0.0273;stroke-width:2" /><text x="185.03" y="176.10" style="fill:rgb(14.9%,14.9%,14.9%);fill-opacity:1.0;stroke:rgb(0.0%,0.0%,0.0%);stroke-opacity:0.0273;stroke-width:2;text-anchor:middle" /><path d="M 199.75 115.22 L 186.22 115.22 L 186.22 134.78 L 150.10 134.78" style="stroke:rgb(28.6%,41.7%,68.6%);stroke-opacity:0.024;stroke-width:2" /><text x="186.22" y="137.00" style="fill:rgb(14.9%,14.9%,14.9%);fill-opacity:1.0;stroke:rgb(0.0%,0.0%,0.0%);stroke-opacity:0.024;stroke-width:2;text-anchor:middle" /><path d="M 199.75 95.67 L 194.73 95.67 L 194.73 173.88 L 150.10 173.88" style="stroke:rgb(25.9%,45.2%,70.3%);stroke-opacity:0.0318;stroke-width:2" /><text x="194.73" y="146.78" style="fill:rgb(14.9%,14.9%,14.9%);fill-opacity:1.0;stroke:rgb(0.0%,0.0%,0.0%);stroke-opacity:0.0318;stroke-width:2;text-anchor:middle" /><path d="M 199.75 76.12 L 183.35 76.12 L 183.35 95.67 L 150.10 95.67" style="stroke:rgb(22.7%,56.8%,72.7%);stroke-opacity:0.0577;stroke-width:2" /><text x="183.35" y="97.90" style="fill:rgb(14.9%,14.9%,14.9%);fill-opacity:1.0;stroke:rgb(0.0%,0.0%,0.0%);stroke-opacity:0.0577;stroke-width:2;text-anchor:middle" /><path d="M 199.75 76.12 L 182.38 76.12 L 182.38 193.43 L 150.10 193.43" style="stroke:rgb(43.2%,77.3%,64.7%);stroke-opacity:0.106;stroke-width:2" /><text x="182.38" y="146.78" style="fill:rgb(14.9%,14.9%,14.9%);fill-opacity:1.0;stroke:rgb(0.0%,0.0%,0.0%);stroke-opacity:0.106;stroke-width:2;text-anchor:middle" /><path d="M 199.75 173.88 L 193.47 173.88 L 193.47 134.78 L 150.10 134.78" style="stroke:rgb(22.9%,49.1%,72.1%);stroke-opacity:0.0405;stroke-width:2" /><text x="193.47" y="166.33" style="fill:rgb(14.9%,14.9%,14.9%);fill-opacity:1.0;stroke:rgb(0.0%,0.0%,0.0%);stroke-opacity:0.0405;stroke-width:2;text-anchor:middle" /><path d="M 199.75 56.57 L 170.83 56.57 L 170.83 173.88 L 150.10 173.88" style="stroke:rgb(30.6%,39.1%,67.4%);stroke-opacity:0.0181;stroke-width:2" /><text x="170.83" y="127.22" style="fill:rgb(14.9%,14.9%,14.9%);fill-opacity:1.0;stroke:rgb(0.0%,0.0%,0.0%);stroke-opacity:0.0181;stroke-width:2;text-anchor:middle" /><path d="M 199.75 76.12 L 185.05 76.12 L 185.05 134.78 L 150.10 134.78" style="stroke:rgb(33.8%,34.9%,65.4%);stroke-opacity:0.00879;stroke-width:2" /><text x="185.05" y="117.45" style="fill:rgb(14.9%,14.9%,14.9%);fill-opacity:1.0;stroke:rgb(0.0%,0.0%,0.0%);stroke-opacity:0.00879;stroke-width:2;text-anchor:middle" /><path d="M 199.75 95.67 L 165.63 95.67 L 165.63 56.57 L 150.10 56.57" style="stroke:rgb(21.7%,50.6%,72.8%);stroke-opacity:0.0439;stroke-width:2" /><text x="165.63" y="88.12" style="fill:rgb(14.9%,14.9%,14.9%);fill-opacity:1.0;stroke:rgb(0.0%,0.0%,0.0%);stroke-opacity:0.0439;stroke-width:2;text-anchor:middle" /><path d="M 199.75 95.67 L 168.78 95.67 L 168.78 56.57 L 150.10 56.57" style="stroke:rgb(33.4%,35.5%,65.7%);stroke-opacity:0.0101;stroke-width:2" /><text x="168.78" y="88.12" style="fill:rgb(14.9%,14.9%,14.9%);fill-opacity:1.0;stroke:rgb(0.0%,0.0%,0.0%);stroke-opacity:0.0101;stroke-width:2;text-anchor:middle" /><path d="M 199.75 95.67 L 163.83 95.67 L 163.83 76.12 L 150.10 76.12" style="stroke:rgb(32.0%,37.2%,66.5%);stroke-opacity:0.014;stroke-width:2" /><text x="163.83" y="97.90" style="fill:rgb(14.9%,14.9%,14.9%);fill-opacity:1.0;stroke:rgb(0.0%,0.0%,0.0%);stroke-opacity:0.014;stroke-width:2;text-anchor:middle" /><path d="M 199.75 76.12 L 185.02 76.12 L 185.02 95.67 L 150.10 95.67" style="stroke:rgb(25.2%,46.0%,70.7%);stroke-opacity:0.0337;stroke-width:2" /><text x="185.02" y="97.90" style="fill:rgb(14.9%,14.9%,14.9%);fill-opacity:1.0;stroke:rgb(0.0%,0.0%,0.0%);stroke-opacity:0.0337;stroke-width:2;text-anchor:middle" /></g><g class="toytree-Nodes" style="fill:rgb(40.0%,76.1%,64.7%);fill-opacity:1.0;stroke:rgb(14.9%,14.9%,14.9%);stroke-opacity:1.0;stroke-width:1.5" /><g class="toytree-TipLabels" style="fill:rgb(14.5%,14.5%,14.5%);fill-opacity:1.0;font-family:Helvetica;font-size:12px;font-weight:300;vertical-align:baseline;white-space:pre;stroke:none"><g class="toytree-TipLabel" transform="translate(199.751,56.5693)"><text x="15.0" y="3.066" style="fill:rgb(14.5%,14.5%,14.5%);fill-opacity:1.0">r0</text></g><g class="toytree-TipLabel" transform="translate(199.751,76.121)"><text x="15.0" y="3.066" style="fill:rgb(14.5%,14.5%,14.5%);fill-opacity:1.0">r1</text></g><g class="toytree-TipLabel" transform="translate(199.751,95.6726)"><text x="15.0" y="3.066" style="fill:rgb(14.5%,14.5%,14.5%);fill-opacity:1.0">r2</text></g><g class="toytree-TipLabel" transform="translate(199.751,115.224)"><text x="15.0" y="3.066" style="fill:rgb(14.5%,14.5%,14.5%);fill-opacity:1.0">r3</text></g><g class="toytree-TipLabel" transform="translate(199.751,134.776)"><text x="15.0" y="3.066" style="fill:rgb(14.5%,14.5%,14.5%);fill-opacity:1.0">r4</text></g><g class="toytree-TipLabel" transform="translate(199.751,154.327)"><text x="15.0" y="3.066" style="fill:rgb(14.5%,14.5%,14.5%);fill-opacity:1.0">r5</text></g><g class="toytree-TipLabel" transform="translate(199.751,173.879)"><text x="15.0" y="3.066" style="fill:rgb(14.5%,14.5%,14.5%);fill-opacity:1.0">r6</text></g><g class="toytree-TipLabel" transform="translate(199.751,193.431)"><text x="15.0" y="3.066" style="fill:rgb(14.5%,14.5%,14.5%);fill-opacity:1.0">r7</text></g></g></g></g></g><g class="toyplot-coordinates-Numberline" id="t1223c1d70cd044ec9c90d6ffa82115a3"><clipPath id="t937eb130e9604e9e89020305308af72d"><rect x="0" y="-20.0" width="140.0" height="40.0" /></clipPath><g clip-path="url(#t937eb130e9604e9e89020305308af72d)" transform="translate(250.0,195.0)rotate(-90.0)"><g class="toyplot-color-Map" id="t5ab95727abe0462a964d054ced6b55df"><defs><linearGradient id="t7c4e93e136c74ab593eee35f6a1310f0" x1="0.0" x2="140.0" y1="0" y2="0" gradientUnits="userSpaceOnUse"><stop stop-color="rgb(36.9%,31%,63.5%)" stop-opacity="1.0" offset="0.0" /><stop stop-color="rgb(34.1%,34.5%,65.2%)" stop-opacity="1.0" offset="0.015873015873015872" /><stop stop-color="rgb(31.4%,38.1%,66.9%)" stop-opacity="1.0" offset="0.031746031746031744" /><stop stop-color="rgb(28.6%,41.6%,68.6%)" stop-opacity="1.0" offset="0.047619047619047616" /><stop stop-color="rgb(25.9%,45.2%,70.3%)" stop-opacity="1.0" offset="0.06349206349206349" /><stop stop-color="rgb(23.2%,48.7%,71.9%)" stop-opacity="1.0" offset="0.07936507936507936" /><stop stop-color="rgb(20.4%,52.3%,73.6%)" stop-opacity="1.0" offset="0.09523809523809523" /><stop stop-color="rgb(21.9%,55.9%,73.1%)" stop-opacity="1.0" offset="0.1111111111111111" /><stop stop-color="rgb(25.1%,59.5%,71.6%)" stop-opacity="1.0" offset="0.12698412698412698" /><stop stop-color="rgb(28.3%,63.1%,70.1%)" stop-opacity="1.0" offset="0.14285714285714285" /><stop stop-color="rgb(31.6%,66.7%,68.6%)" stop-opacity="1.0" offset="0.15873015873015872" /><stop stop-color="rgb(34.8%,70.3%,67.1%)" stop-opacity="1.0" offset="0.1746031746031746" /><stop stop-color="rgb(38.1%,73.9%,65.6%)" stop-opacity="1.0" offset="0.19047619047619047" /><stop stop-color="rgb(41.7%,76.8%,64.7%)" stop-opacity="1.0" offset="0.20634920634920634" /><stop stop-color="rgb(46%,78.4%,64.6%)" stop-opacity="1.0" offset="0.2222222222222222" /><stop stop-color="rgb(50.3%,80.1%,64.6%)" stop-opacity="1.0" offset="0.23809523809523805" /><stop stop-color="rgb(54.6%,81.8%,64.5%)" stop-opacity="1.0" offset="0.25396825396825395" /><stop stop-color="rgb(58.9%,83.5%,64.4%)" stop-opacity="1.0" offset="0.2698412698412698" /><stop stop-color="rgb(63.2%,85.2%,64.4%)" stop-opacity="1.0" offset="0.2857142857142857" /><stop stop-color="rgb(67.4%,86.8%,64.2%)" stop-opacity="1.0" offset="0.30158730158730157" /><stop stop-color="rgb(71.1%,88.3%,63.5%)" stop-opacity="1.0" offset="0.31746031746031744" /><stop stop-color="rgb(74.8%,89.8%,62.7%)" stop-opacity="1.0" offset="0.3333333333333333" /><stop stop-color="rgb(78.4%,91.3%,62%)" stop-opacity="1.0" offset="0.3492063492063492" /><stop stop-color="rgb(82.1%,92.8%,61.3%)" stop-opacity="1.0" offset="0.36507936507936506" /><stop stop-color="rgb(85.8%,94.3%,60.5%)" stop-opacity="1.0" offset="0.38095238095238093" /><stop stop-color="rgb(89.5%,95.8%,59.8%)" stop-opacity="1.0" offset="0.3968253968253968" /><stop stop-color="rgb(91.4%,96.6%,61.5%)" stop-opacity="1.0" offset="0.4126984126984127" /><stop stop-color="rgb(93%,97.2%,64%)" stop-opacity="1.0" offset="0.42857142857142855" /><stop stop-color="rgb(94.6%,97.8%,66.4%)" stop-opacity="1.0" offset="0.4444444444444444" /><stop stop-color="rgb(96.1%,98.4%,68.8%)" stop-opacity="1.0" offset="0.4603174603174603" /><stop stop-color="rgb(97.7%,99.1%,71.3%)" stop-opacity="1.0" offset="0.4761904761904761" /><stop stop-color="rgb(99.2%,99.7%,73.7%)" stop-opacity="1.0" offset="0.49206349206349204" /><stop stop-color="rgb(100%,99%,73.3%)" stop-opacity="1.0" offset="0.5079365079365079" /><stop stop-color="rgb(99.9%,97.1%,70%)" stop-opacity="1.0" offset="0.5238095238095237" /><stop stop-color="rgb(99.8%,95.2%,66.8%)" stop-opacity="1.0" offset="0.5396825396825397" /><stop stop-color="rgb(99.8%,93.2%,63.6%)" stop-opacity="1.0" offset="0.5555555555555556" /><stop stop-color="rgb(99.7%,91.3%,60.3%)" stop-opacity="1.0" offset="0.5714285714285714" /><stop stop-color="rgb(99.7%,89.4%,57.1%)" stop-opacity="1.0" offset="0.5873015873015872" /><stop stop-color="rgb(99.6%,87.2%,54%)" stop-opacity="1.0" offset="0.6031746031746031" /><stop stop-color="rgb(99.5%,84.1%,51.4%)" stop-opacity="1.0" offset="0.6190476190476191" /><stop stop-color="rgb(99.5%,81%,48.8%)" stop-opacity="1.0" offset="0.6349206349206349" /><stop stop-color="rgb(99.4%,77.9%,46.1%)" stop-opacity="1.0" offset="0.6507936507936507" /><stop stop-color="rgb(99.3%,74.8%,43.5%)" stop-opacity="1.0" offset="0.6666666666666666" /><stop stop-color="rgb(99.3%,71.7%,40.9%)" stop-opacity="1.0" offset="0.6825396825396826" /><stop stop-color="rgb(99.2%,68.5%,38.3%)" stop-opacity="1.0" offset="0.6984126984126984" /><stop stop-color="rgb(98.7%,64.6%,36.4%)" stop-opacity="1.0" offset="0.7142857142857142" /><stop stop-color="rgb(98.2%,60.5%,34.5%)" stop-opacity="1.0" offset="0.7301587301587301" /><stop stop-color="rgb(97.6%,56.5%,32.6%)" stop-opacity="1.0" offset="0.746031746031746" /><stop stop-color="rgb(97%,52.5%,30.8%)" stop-opacity="1.0" offset="0.7619047619047619" /><stop stop-color="rgb(96.5%,48.4%,28.9%)" stop-opacity="1.0" offset="0.7777777777777777" /><stop stop-color="rgb(95.9%,44.4%,27%)" stop-opacity="1.0" offset="0.7936507936507936" /><stop stop-color="rgb(94.5%,41%,26.7%)" stop-opacity="1.0" offset="0.8095238095238095" /><stop stop-color="rgb(92.6%,38.1%,27.5%)" stop-opacity="1.0" offset="0.8253968253968254" /><stop stop-color="rgb(90.7%,35.1%,28.2%)" stop-opacity="1.0" offset="0.8412698412698412" /><stop stop-color="rgb(88.7%,32.2%,29%)" stop-opacity="1.0" offset="0.8571428571428571" /><stop stop-color="rgb(86.8%,29.3%,29.7%)" stop-opacity="1.0" offset="0.873015873015873" /><stop stop-color="rgb(84.9%,26.4%,30.5%)" stop-opacity="1.0" offset="0.8888888888888888" /><stop stop-color="rgb(82.5%,23.2%,30.7%)" stop-opacity="1.0" offset="0.9047619047619047" /><stop stop-color="rgb(79.1%,19.4%,29.9%)" stop-opacity="1.0" offset="0.9206349206349206" /><stop stop-color="rgb(75.7%,15.6%,29.1%)" stop-opacity="1.0" offset="0.9365079365079365" /><stop stop-color="rgb(72.2%,11.8%,28.3%)" stop-opacity="1.0" offset="0.9523809523809522" /><stop stop-color="rgb(68.8%,7.99%,27.5%)" stop-opacity="1.0" offset="0.9682539682539681" /><stop stop-color="rgb(65.4%,4.19%,26.7%)" stop-opacity="1.0" offset="0.9841269841269841" /><stop stop-color="rgb(62%,0.392%,25.9%)" stop-opacity="1.0" offset="1.0" /></linearGradient></defs><rect x="0.0" y="-7.5" width="140.0" height="15" style="fill:url(#t7c4e93e136c74ab593eee35f6a1310f0);stroke:rgb(0%,0%,0%);stroke-opacity:1.0;stroke-width:2" /></g></g><g class="toyplot-coordinates-Axis" id="t562e07d9171248bfbffa984cd3c3ea59" transform="translate(250.0,195.0)rotate(-90.0)translate(0,20.0)"><line x1="0" y1="0" x2="140.0" y2="0" style="stroke-width:2" /><g><line x1="0.0" y1="0" x2="0.0" y2="-3" style="stroke-width:2" /><line x1="70.0" y1="0" x2="70.0" y2="-3" style="stroke-width:2" /><line x1="140.0" y1="0" x2="140.0" y2="-3" style="stroke-width:2" /></g><g><g transform="translate(0.0,6)"><text x="-7.6450000000000005" y="9.410499999999999" style="fill:rgb(16.1%,15.3%,14.1%);fill-opacity:1.0;font-family:helvetica;font-size:11.0px;font-weight:normal;stroke:none;vertical-align:baseline;white-space:pre">0.0</text></g><g transform="translate(70.0,6)"><text x="-10.703000000000001" y="9.410499999999999" style="fill:rgb(16.1%,15.3%,14.1%);fill-opacity:1.0;font-family:helvetica;font-size:11.0px;font-weight:normal;stroke:none;vertical-align:baseline;white-space:pre">0.25</text></g><g transform="translate(140.0,6)"><text x="-7.6450000000000005" y="9.410499999999999" style="fill:rgb(16.1%,15.3%,14.1%);fill-opacity:1.0;font-family:helvetica;font-size:11.0px;font-weight:normal;stroke:none;vertical-align:baseline;white-space:pre">0.5</text></g></g><g class="toyplot-coordinates-Axis-coordinates" style="visibility:hidden" transform=""><line x1="0" x2="0" y1="-3.0" y2="4.5" style="stroke:rgb(43.9%,50.2%,56.5%);stroke-opacity:1.0;stroke-width:1.0" /><text x="0" y="-6" style="alignment-baseline:alphabetic;fill:rgb(43.9%,50.2%,56.5%);fill-opacity:1.0;font-size:10px;font-weight:normal;stroke:none;text-anchor:middle" /></g></g></g><g class="toyplot-mark-Text" id="tdf369254653e4840b138fd388edd368e"><g class="toyplot-Series"><g class="toyplot-Datum" transform="translate(90.0,45.0)"><text x="-28.5835" y="-3.7895000000000003" style="fill:rgb(16.1%,15.3%,14.1%);fill-opacity:1.0;font-family:helvetica;font-size:11.0px;font-weight:bold;opacity:1;stroke:none;vertical-align:baseline;white-space:pre">Major=0.77</text><text x="-42.339000000000006" y="9.410499999999999" style="fill:rgb(16.1%,15.3%,14.1%);fill-opacity:1.0;font-family:helvetica;font-size:11.0px;font-weight:bold;opacity:1;stroke:none;vertical-align:baseline;white-space:pre">Alternative=0.23</text></g></g></g></svg>