<svg class="toyplot-canvas-Canvas" xmlns:toyplot="http://www.sandia.gov/toyplot" xmlns:xlink="http://www.w3.org/1999/xlink" xmlns="http://www.w3.org/2000/svg" width="290.0px" height="250.0px" viewBox="0 0 290.0 250.0" preserveAspectRatio="xMidYMid meet" style="background-color:transparent;border-color:#292724;border-style:none;border-width:1.0;fill:rgb(16.1%,15.3%,14.1%);fill-opacity:1.0;font-family:Helvetica;font-size:12px;opacity:1.0;stroke:rgb(16.1%,15.3%,14.1%);stroke-opacity:1.0;stroke-width:1.0" id="t243742bf3caa4baa89d53bffffee6f8b"><g class="toyplot-coordinates-Cartesian" id="td2dff9e03a6f46e69b1c81f819022b16"><clipPath id="tdc0934ac8dc4483082a34cdba773ec61"><rect x="35.0" y="35.0" width="220.0" height="180.0" /></clipPath><g clip-path="url(#tdc0934ac8dc4483082a34cdba773ec61)"><g class="toytree-mark-Toytree" id="t0a43cc1ae1d742308b585db7d68a0614"><g class="toytree-Edges" style="stroke:rgb(14.5%,14.5%,14.5%);stroke-opacity:1.0;stroke-linecap:round;stroke-width:2.0;fill:none"><path d="M 150.1 66.3 L 150.1 56.6 L 199.8 56.6" id="8,0" style="" /><path d="M 150.1 66.3 L 150.1 76.1 L 199.8 76.1" id="8,1" style="" /><path d="M 150.1 105.4 L 150.1 95.7 L 199.8 95.7" id="9,2" style="" /><path d="M 150.1 105.4 L 150.1 115.2 L 199.8 115.2" id="9,3" style="" /><path d="M 150.1 144.6 L 150.1 134.8 L 199.8 134.8" id="11,4" style="" /><path d="M 150.1 144.6 L 150.1 154.3 L 199.8 154.3" id="11,5" style="" /><path d="M 150.1 183.7 L 150.1 173.9 L 199.8 173.9" id="12,6" style="" /><path d="M 150.1 183.7 L 150.1 193.4 L 199.8 193.4" id="12,7" style="" /><path d="M 100.4 85.9 L 100.4 66.3 L 150.1 66.3" id="10,8" style="" /><path d="M 100.4 85.9 L 100.4 105.4 L 150.1 105.4" id="10,9" style="" /><path d="M 50.8 125.0 L 50.8 85.9 L 100.4 85.9" id="14,10" style="" /><path d="M 100.4 164.1 L 100.4 144.6 L 150.1 144.6" id="13,11" style="" /><path d="M 100.4 164.1 L 100.4 183.7 L 150.1 183.7" id="13,12" style="" /><path d="M 50.8 125.0 L 50.8 164.1 L 100.4 164.1" id="14,13" style="" /></g><g class="toytree-AdmixEdges" style="fill:rgb(0.0%,0.0%,0.0%);fill-opacity:0.0;stroke:rgb(90.6%,54.1%,76.5%);stroke-opacity:0.6;font-size:14px;stroke-linecap:round;stroke-width:5"><path d="M 199.75 76.12 L 191.63 76.12 L 191.63 134.78 L 150.10 134.78" style="stroke:rgb(28.5%,41.8%,68.7%);stroke-opacity:0.0243;stroke-width:2" /><text x="191.63" y="117.45" style="fill:rgb(14.9%,14.9%,14.9%);fill-opacity:1.0;stroke:rgb(0.0%,0.0%,0.0%);stroke-opacity:0.0243;stroke-width:2;text-anchor:middle" /><path d="M 150.10 183.65 L 138.97 183.65 L 188.62 76.12 L 150.10 76.12" style="stroke:rgb(32.9%,36.2%,66.0%);stroke-opacity:0.0116;stroke-width:2" /><text x="163.80" y="141.89" style="fill:rgb(14.9%,14.9%,14.9%);fill-opacity:1.0;stroke:rgb(0.0%,0.0%,0.0%);stroke-opacity:0.0116;stroke-width:2;text-anchor:middle" /><path d="M 199.75 76.12 L 154.33 76.12 L 154.33 154.33 L 150.10 154.33" style="stroke:rgb(27.4%,43.2%,69.3%);stroke-opacity:0.0273;stroke-width:2" /><text x="154.33" y="127.22" style="fill:rgb(14.9%,14.9%,14.9%);fill-opacity:1.0;stroke:rgb(0.0%,0.0%,0.0%);stroke-opacity:0.0273;stroke-width:2;text-anchor:middle" /><path d="M 199.75 134.78 L 184.52 134.78 L 184.52 76.12 L 150.10 76.12" style="stroke:rgb(30.5%,39.2%,67.4%);stroke-opacity:0.0184;stroke-width:2" /><text x="184.52" y="117.45" style="fill:rgb(14.9%,14.9%,14.9%);fill-opacity:1.0;stroke:rgb(0.0%,0.0%,0.0%);stroke-opacity:0.0184;stroke-width:2;text-anchor:middle" /><path d="M 199.75 154.33 L 189.23 154.33 L 189.23 76.12 L 150.10 76.12" style="stroke:rgb(30.5%,39.3%,67.4%);stroke-opacity:0.0185;stroke-width:2" /><text x="189.23" y="127.22" style="fill:rgb(14.9%,14.9%,14.9%);fill-opacity:1.0;stroke:rgb(0.0%,0.0%,0.0%);stroke-opacity:0.0185;stroke-width:2;text-anchor:middle" /><path d="M 199.75 115.22 L 159.73 115.22 L 159.73 56.57 L 150.10 56.57" style="stroke:rgb(27.7%,42.8%,69.1%);stroke-opacity:0.0265;stroke-width:2" /><text x="159.73" y="97.90" style="fill:rgb(14.9%,14.9%,14.9%);fill-opacity:1.0;stroke:rgb(0.0%,0.0%,0.0%);stroke-opacity:0.0265;stroke-width:2;text-anchor:middle" /><path d="M 199.75 56.57 L 171.29 56.57 L 171.29 95.67 L 150.10 95.67" style="stroke:rgb(30.1%,39.8%,67.7%);stroke-opacity:0.0197;stroke-width:2" /><text x="171.29" y="88.12" style="fill:rgb(14.9%,14.9%,14.9%);fill-opacity:1.0;stroke:rgb(0.0%,0.0%,0.0%);stroke-opacity:0.0197;stroke-width:2;text-anchor:middle" /><path d="M 199.75 76.12 L 189.58 76.12 L 189.58 134.78 L 150.10 134.78" style="stroke:rgb(33.0%,36.0%,65.9%);stroke-opacity:0.0112;stroke-width:2" /><text x="189.58" y="117.45" style="fill:rgb(14.9%,14.9%,14.9%);fill-opacity:1.0;stroke:rgb(0.0%,0.0%,0.0%);stroke-opacity:0.0112;stroke-width:2;text-anchor:middle" /><path d="M 199.75 193.43 L 187.28 193.43 L 187.28 56.57 L 150.10 56.57" style="stroke:rgb(31.8%,37.5%,66.6%);stroke-opacity:0.0146;stroke-width:2" /><text x="187.28" y="137.00" style="fill:rgb(14.9%,14.9%,14.9%);fill-opacity:1.0;stroke:rgb(0.0%,0.0%,0.0%);stroke-opacity:0.0146;stroke-width:2;text-anchor:middle" /><path d="M 199.75 115.22 L 182.33 115.22 L 182.33 193.43 L 150.10 193.43" style="stroke:rgb(30.4%,39.3%,67.5%);stroke-opacity:0.0186;stroke-width:2" /><text x="182.33" y="166.33" style="fill:rgb(14.9%,14.9%,14.9%);fill-opacity:1.0;stroke:rgb(0.0%,0.0%,0.0%);stroke-opacity:0.0186;stroke-width:2;text-anchor:middle" /><path d="M 199.75 134.78 L 178.39 134.78 L 178.39 173.88 L 150.10 173.88" style="stroke:rgb(48.1%,79.3%,64.6%);stroke-opacity:0.115;stroke-width:2" /><text x="178.39" y="166.33" style="fill:rgb(14.9%,14.9%,14.9%);fill-opacity:1.0;stroke:rgb(0.0%,0.0%,0.0%);stroke-opacity:0.115;stroke-width:2;text-anchor:middle" /><path d="M 199.75 154.33 L 163.87 154.33 L 163.87 76.12 L 150.10 76.12" style="stroke:rgb(29.8%,40.2%,67.9%);stroke-opacity:0.0206;stroke-width:2" /><text x="163.87" y="127.22" style="fill:rgb(14.9%,14.9%,14.9%);fill-opacity:1.0;stroke:rgb(0.0%,0.0%,0.0%);stroke-opacity:0.0206;stroke-width:2;text-anchor:middle" /><path d="M 199.75 154.33 L 172.83 154.33 L 172.83 173.88 L 150.10 173.88" style="stroke:rgb(78.6%,91.4%,62.0%);stroke-opacity:0.175;stroke-width:2" /><text x="172.83" y="176.10" style="fill:rgb(14.9%,14.9%,14.9%);fill-opacity:1.0;stroke:rgb(0.0%,0.0%,0.0%);stroke-opacity:0.175;stroke-width:2;text-anchor:middle" /><path d="M 199.75 115.22 L 184.01 115.22 L 184.01 56.57 L 150.10 56.57" style="stroke:rgb(28.3%,42.1%,68.8%);stroke-opacity:0.0249;stroke-width:2" /><text x="184.01" y="97.90" style="fill:rgb(14.9%,14.9%,14.9%);fill-opacity:1.0;stroke:rgb(0.0%,0.0%,0.0%);stroke-opacity:0.0249;stroke-width:2;text-anchor:middle" /><path d="M 199.75 115.22 L 180.58 115.22 L 180.58 56.57 L 150.10 56.57" style="stroke:rgb(25.4%,45.8%,70.5%);stroke-opacity:0.0331;stroke-width:2" /><text x="180.58" y="97.90" style="fill:rgb(14.9%,14.9%,14.9%);fill-opacity:1.0;stroke:rgb(0.0%,0.0%,0.0%);stroke-opacity:0.0331;stroke-width:2;text-anchor:middle" /><path d="M 199.75 154.33 L 187.68 154.33 L 187.68 173.88 L 150.10 173.88" style="stroke:rgb(29.3%,40.7%,68.1%);stroke-opacity:0.0218;stroke-width:2" /><text x="187.68" y="176.10" style="fill:rgb(14.9%,14.9%,14.9%);fill-opacity:1.0;stroke:rgb(0.0%,0.0%,0.0%);stroke-opacity:0.0218;stroke-width:2;text-anchor:middle" /><path d="M 150.10 183.65 L 117.63 183.65 L 167.28 95.67 L 150.10 95.67" style="stroke:rgb(54.6%,81.8%,64.5%);stroke-opacity:0.127;stroke-width:2" /><text x="142.45" y="151.66" style="fill:rgb(14.9%,14.9%,14.9%);fill-opacity:1.0;stroke:rgb(0.0%,0.0%,0.0%);stroke-opacity:0.127;stroke-width:2;text-anchor:middle" /><path d="M 150.10 144.55 L 140.65 144.55 L 190.31 76.12 L 150.10 76.12" style="stroke:rgb(29.1%,41.0%,68.3%);stroke-opacity:0.0224;stroke-width:2" /><text x="165.48" y="122.34" style="fill:rgb(14.9%,14.9%,14.9%);fill-opacity:1.0;stroke:rgb(0.0%,0.0%,0.0%);stroke-opacity:0.0224;stroke-width:2;text-anchor:middle" /><path d="M 199.75 76.12 L 185.30 76.12 L 185.30 134.78 L 150.10 134.78" style="stroke:rgb(24.7%,46.7%,71.0%);stroke-opacity:0.0352;stroke-width:2" /><text x="185.30" y="117.45" style="fill:rgb(14.9%,14.9%,14.9%);fill-opacity:1.0;stroke:rgb(0.0%,0.0%,0.0%);stroke-opacity:0.0352;stroke-width:2;text-anchor:middle" /><path d="M 199.75 134.78 L 197.04 134.78 L 197.04 76.12 L 150.10 76.12" style="stroke:rgb(31.4%,38.1%,66.9%);stroke-opacity:0.0159;stroke-width:2" /><text x="197.04" y="117.45" style="fill:rgb(14.9%,14.9%,14.9%);fill-opacity:1.0;stroke:rgb(0.0%,0.0%,0.0%);stroke-opacity:0.0159;stroke-width:2;text-anchor:middle" /><path d="M 199.75 115.22 L 170.43 115.22 L 170.43 193.43 L 150.10 193.43" style="stroke:rgb(30.1%,39.7%,67.7%);stroke-opacity:0.0196;stroke-width:2" /><text x="170.43" y="166.33" style="fill:rgb(14.9%,14.9%,14.9%);fill-opacity:1.0;stroke:rgb(0.0%,0.0%,0.0%);stroke-opacity:0.0196;stroke-width:2;text-anchor:middle" /><path d="M 199.75 95.67 L 196.09 95.67 L 196.09 173.88 L 150.10 173.88" style="stroke:rgb(99.4%,76.5%,45.0%);stroke-opacity:0.329;stroke-width:2" /><text x="196.09" y="146.78" style="fill:rgb(14.9%,14.9%,14.9%);fill-opacity:1.0;stroke:rgb(0.0%,0.0%,0.0%);stroke-opacity:0.329;stroke-width:2;text-anchor:middle" /><path d="M 199.75 173.88 L 155.87 173.88 L 155.87 154.33 L 150.10 154.33" style="stroke:rgb(23.8%,47.9%,71.5%);stroke-opacity:0.0378;stroke-width:2" /><text x="155.87" y="176.10" style="fill:rgb(14.9%,14.9%,14.9%);fill-opacity:1.0;stroke:rgb(0.0%,0.0%,0.0%);stroke-opacity:0.0378;stroke-width:2;text-anchor:middle" /><path d="M 199.75 56.57 L 164.01 56.57 L 164.01 154.33 L 150.10 154.33" style="stroke:rgb(32.1%,37.1%,66.4%);stroke-opacity:0.0137;stroke-width:2" /><text x="164.01" y="117.45" style="fill:rgb(14.9%,14.9%,14.9%);fill-opacity:1.0;stroke:rgb(0.0%,0.0%,0.0%);stroke-opacity:0.0137;stroke-width:2;text-anchor:middle" /><path d="M 150.10 105.45 L 101.24 105.45 L 150.90 193.43 L 150.10 193.43" style="stroke:rgb(31.8%,66.9%,68.5%);stroke-opacity:0.0799;stroke-width:2" /><text x="126.07" y="161.44" style="fill:rgb(14.9%,14.9%,14.9%);fill-opacity:1.0;stroke:rgb(0.0%,0.0%,0.0%);stroke-opacity:0.0799;stroke-width:2;text-anchor:middle" /><path d="M 199.75 115.22 L 164.05 115.22 L 164.05 193.43 L 150.10 193.43" style="stroke:rgb(30.0%,39.9%,67.7%);stroke-opacity:0.0199;stroke-width:2" /><text x="164.05" y="166.33" style="fill:rgb(14.9%,14.9%,14.9%);fill-opacity:1.0;stroke:rgb(0.0%,0.0%,0.0%);stroke-opacity:0.0199;stroke-width:2;text-anchor:middle" /><path d="M 199.75 134.78 L 161.67 134.78 L 161.67 173.88 L 150.10 173.88" style="stroke:rgb(30.4%,39.4%,67.5%);stroke-opacity:0.0188;stroke-width:2" /><text x="161.67" y="166.33" style="fill:rgb(14.9%,14.9%,14.9%);fill-opacity:1.0;stroke:rgb(0.0%,0.0%,0.0%);stroke-opacity:0.0188;stroke-width:2;text-anchor:middle" /><path d="M 199.75 134.78 L 178.71 134.78 L 178.71 76.12 L 150.10 76.12" style="stroke:rgb(27.8%,42.8%,69.1%);stroke-opacity:0.0264;stroke-width:2" /><text x="178.71" y="117.45" style="fill:rgb(14.9%,14.9%,14.9%);fill-opacity:1.0;stroke:rgb(0.0%,0.0%,0.0%);stroke-opacity:0.0264;stroke-width:2;text-anchor:middle" /><path d="M 199.75 193.43 L 157.37 193.43 L 157.37 154.33 L 150.10 154.33" style="stroke:rgb(31.7%,37.7%,66.7%);stroke-opacity:0.015;stroke-width:2" /><text x="157.37" y="185.88" style="fill:rgb(14.9%,14.9%,14.9%);fill-opacity:1.0;stroke:rgb(0.0%,0.0%,0.0%);stroke-opacity:0.015;stroke-width:2;text-anchor:middle" /><path d="M 199.75 173.88 L 161.59 173.88 L 161.59 76.12 L 150.10 76.12" style="stroke:rgb(27.1%,43.7%,69.5%);stroke-opacity:0.0284;stroke-width:2" /><text x="161.59" y="137.00" style="fill:rgb(14.9%,14.9%,14.9%);fill-opacity:1.0;stroke:rgb(0.0%,0.0%,0.0%);stroke-opacity:0.0284;stroke-width:2;text-anchor:middle" /><path d="M 199.75 193.43 L 174.05 193.43 L 174.05 76.12 L 150.10 76.12" style="stroke:rgb(27.5%,43.1%,69.3%);stroke-opacity:0.0271;stroke-width:2" /><text x="174.05" y="146.78" style="fill:rgb(14.9%,14.9%,14.9%);fill-opacity:1.0;stroke:rgb(0.0%,0.0%,0.0%);stroke-opacity:0.0271;stroke-width:2;text-anchor:middle" /><path d="M 150.10 144.55 L 145.26 144.55 L 194.92 173.88 L 150.10 173.88" style="stroke:rgb(22.3%,49.8%,72.4%);stroke-opacity:0.0421;stroke-width:2" /><text x="170.09" y="171.22" style="fill:rgb(14.9%,14.9%,14.9%);fill-opacity:1.0;stroke:rgb(0.0%,0.0%,0.0%);stroke-opacity:0.0421;stroke-width:2;text-anchor:middle" /><path d="M 199.75 76.12 L 175.20 76.12 L 175.20 154.33 L 150.10 154.33" style="stroke:rgb(31.5%,38.0%,66.8%);stroke-opacity:0.0156;stroke-width:2" /><text x="175.20" y="127.22" style="fill:rgb(14.9%,14.9%,14.9%);fill-opacity:1.0;stroke:rgb(0.0%,0.0%,0.0%);stroke-opacity:0.0156;stroke-width:2;text-anchor:middle" /><path d="M 199.75 193.43 L 183.73 193.43 L 183.73 154.33 L 150.10 154.33" style="stroke:rgb(29.1%,41.0%,68.3%);stroke-opacity:0.0224;stroke-width:2" /><text x="183.73" y="185.88" style="fill:rgb(14.9%,14.9%,14.9%);fill-opacity:1.0;stroke:rgb(0.0%,0.0%,0.0%);stroke-opacity:0.0224;stroke-width:2;text-anchor:middle" /><path d="M 199.75 134.78 L 158.18 134.78 L 158.18 76.12 L 150.10 76.12" style="stroke:rgb(30.3%,39.4%,67.5%);stroke-opacity:0.0189;stroke-width:2" /><text x="158.18" y="117.45" style="fill:rgb(14.9%,14.9%,14.9%);fill-opacity:1.0;stroke:rgb(0.0%,0.0%,0.0%);stroke-opacity:0.0189;stroke-width:2;text-anchor:middle" /><path d="M 199.75 193.43 L 174.93 193.43 L 174.93 56.57 L 150.10 56.57" style="stroke:rgb(27.4%,43.2%,69.3%);stroke-opacity:0.0274;stroke-width:2" /><text x="174.93" y="137.00" style="fill:rgb(14.9%,14.9%,14.9%);fill-opacity:1.0;stroke:rgb(0.0%,0.0%,0.0%);stroke-opacity:0.0274;stroke-width:2;text-anchor:middle" /><path d="M 199.75 134.78 L 169.91 134.78 L 169.91 193.43 L 150.10 193.43" style="stroke:rgb(36.4%,72.0%,66.4%);stroke-opacity:0.0911;stroke-width:2" /><text x="169.91" y="176.10" style="fill:rgb(14.9%,14.9%,14.9%);fill-opacity:1.0;stroke:rgb(0.0%,0.0%,0.0%);stroke-opacity:0.0911;stroke-width:2;text-anchor:middle" /><path d="M 199.75 134.78 L 161.85 134.78 L 161.85 76.12 L 150.10 76.12" style="stroke:rgb(24.4%,47.2%,71.2%);stroke-opacity:0.0362;stroke-width:2" /><text x="161.85" y="117.45" style="fill:rgb(14.9%,14.9%,14.9%);fill-opacity:1.0;stroke:rgb(0.0%,0.0%,0.0%);stroke-opacity:0.0362;stroke-width:2;text-anchor:middle" /><path d="M 199.75 173.88 L 186.47 173.88 L 186.47 76.12 L 150.10 76.12" style="stroke:rgb(29.8%,40.1%,67.9%);stroke-opacity:0.0205;stroke-width:2" /><text x="186.47" y="137.00" style="fill:rgb(14.9%,14.9%,14.9%);fill-opacity:1.0;stroke:rgb(0.0%,0.0%,0.0%);stroke-opacity:0.0205;stroke-width:2;text-anchor:middle" /><path d="M 150.10 66.35 L 103.44 66.35 L 153.09 193.43 L 150.10 193.43" style="stroke:rgb(33.0%,36.0%,65.9%);stroke-opacity:0.0113;stroke-width:2" /><text x="128.26" y="141.89" style="fill:rgb(14.9%,14.9%,14.9%);fill-opacity:1.0;stroke:rgb(0.0%,0.0%,0.0%);stroke-opacity:0.0113;stroke-width:2;text-anchor:middle" /><path d="M 199.75 56.57 L 164.67 56.57 L 164.67 95.67 L 150.10 95.67" style="stroke:rgb(29.1%,41.0%,68.3%);stroke-opacity:0.0225;stroke-width:2" /><text x="164.67" y="88.12" style="fill:rgb(14.9%,14.9%,14.9%);fill-opacity:1.0;stroke:rgb(0.0%,0.0%,0.0%);stroke-opacity:0.0225;stroke-width:2;text-anchor:middle" /><path d="M 199.75 115.22 L 169.97 115.22 L 169.97 193.43 L 150.10 193.43" style="stroke:rgb(28.3%,63.0%,70.1%);stroke-opacity:0.0713;stroke-width:2" /><text x="169.97" y="166.33" style="fill:rgb(14.9%,14.9%,14.9%);fill-opacity:1.0;stroke:rgb(0.0%,0.0%,0.0%);stroke-opacity:0.0713;stroke-width:2;text-anchor:middle" /><path d="M 199.75 154.33 L 158.98 154.33 L 158.98 56.57 L 150.10 56.57" style="stroke:rgb(30.6%,39.1%,67.4%);stroke-opacity:0.0181;stroke-width:2" /><text x="158.98" y="117.45" style="fill:rgb(14.9%,14.9%,14.9%);fill-opacity:1.0;stroke:rgb(0.0%,0.0%,0.0%);stroke-opacity:0.0181;stroke-width:2;text-anchor:middle" /><path d="M 199.75 95.67 L 191.04 95.67 L 141.39 144.55 L 100.44 144.55" style="stroke:rgb(68.4%,87.2%,64.0%);stroke-opacity:0.153;stroke-width:2" /><text x="166.22" y="132.11" style="fill:rgb(14.9%,14.9%,14.9%);fill-opacity:1.0;stroke:rgb(0.0%,0.0%,0.0%);stroke-opacity:0.153;stroke-width:2;text-anchor:middle" /><path d="M 199.75 76.12 L 188.93 76.12 L 188.93 95.67 L 150.10 95.67" style="stroke:rgb(99.8%,93.7%,64.3%);stroke-opacity:0.276;stroke-width:2" /><text x="188.93" y="97.90" style="fill:rgb(14.9%,14.9%,14.9%);fill-opacity:1.0;stroke:rgb(0.0%,0.0%,0.0%);stroke-opacity:0.276;stroke-width:2;text-anchor:middle" /><path d="M 199.75 134.78 L 197.71 134.78 L 197.71 115.22 L 150.10 115.22" style="stroke:rgb(30.4%,39.3%,67.5%);stroke-opacity:0.0187;stroke-width:2" /><text x="197.71" y="137.00" style="fill:rgb(14.9%,14.9%,14.9%);fill-opacity:1.0;stroke:rgb(0.0%,0.0%,0.0%);stroke-opacity:0.0187;stroke-width:2;text-anchor:middle" /><path d="M 199.75 134.78 L 165.89 134.78 L 165.89 76.12 L 150.10 76.12" style="stroke:rgb(31.1%,38.4%,67.0%);stroke-opacity:0.0166;stroke-width:2" /><text x="165.89" y="117.45" style="fill:rgb(14.9%,14.9%,14.9%);fill-opacity:1.0;stroke:rgb(0.0%,0.0%,0.0%);stroke-opacity:0.0166;stroke-width:2;text-anchor:middle" /><path d="M 199.75 56.57 L 183.28 56.57 L 183.28 173.88 L 150.10 173.88" style="stroke:rgb(49.7%,79.9%,64.6%);stroke-opacity:0.118;stroke-width:2" /><text x="183.28" y="127.22" style="fill:rgb(14.9%,14.9%,14.9%);fill-opacity:1.0;stroke:rgb(0.0%,0.0%,0.0%);stroke-opacity:0.118;stroke-width:2;text-anchor:middle" /><path d="M 199.75 115.22 L 197.98 115.22 L 197.98 193.43 L 150.10 193.43" style="stroke:rgb(58.9%,83.5%,64.4%);stroke-opacity:0.135;stroke-width:2" /><text x="197.98" y="166.33" style="fill:rgb(14.9%,14.9%,14.9%);fill-opacity:1.0;stroke:rgb(0.0%,0.0%,0.0%);stroke-opacity:0.135;stroke-width:2;text-anchor:middle" /><path d="M 199.75 193.43 L 186.08 193.43 L 186.08 56.57 L 150.10 56.57" style="stroke:rgb(30.9%,38.7%,67.2%);stroke-opacity:0.0172;stroke-width:2" /><text x="186.08" y="137.00" style="fill:rgb(14.9%,14.9%,14.9%);fill-opacity:1.0;stroke:rgb(0.0%,0.0%,0.0%);stroke-opacity:0.0172;stroke-width:2;text-anchor:middle" /><path d="M 199.75 95.67 L 168.66 95.67 L 168.66 56.57 L 150.10 56.57" style="stroke:rgb(27.8%,42.7%,69.1%);stroke-opacity:0.0263;stroke-width:2" /><text x="168.66" y="88.12" style="fill:rgb(14.9%,14.9%,14.9%);fill-opacity:1.0;stroke:rgb(0.0%,0.0%,0.0%);stroke-opacity:0.0263;stroke-width:2;text-anchor:middle" /><path d="M 199.75 134.78 L 170.78 134.78 L 170.78 76.12 L 150.10 76.12" style="stroke:rgb(25.3%,45.9%,70.6%);stroke-opacity:0.0334;stroke-width:2" /><text x="170.78" y="117.45" style="fill:rgb(14.9%,14.9%,14.9%);fill-opacity:1.0;stroke:rgb(0.0%,0.0%,0.0%);stroke-opacity:0.0334;stroke-width:2;text-anchor:middle" /><path d="M 199.75 76.12 L 158.02 76.12 L 158.02 134.78 L 150.10 134.78" style="stroke:rgb(23.9%,47.7%,71.5%);stroke-opacity:0.0375;stroke-width:2" /><text x="158.02" y="117.45" style="fill:rgb(14.9%,14.9%,14.9%);fill-opacity:1.0;stroke:rgb(0.0%,0.0%,0.0%);stroke-opacity:0.0375;stroke-width:2;text-anchor:middle" /><path d="M 199.75 173.88 L 171.28 173.88 L 171.28 95.67 L 150.10 95.67" style="stroke:rgb(42.2%,76.9%,64.7%);stroke-opacity:0.104;stroke-width:2" /><text x="171.28" y="146.78" style="fill:rgb(14.9%,14.9%,14.9%);fill-opacity:1.0;stroke:rgb(0.0%,0.0%,0.0%);stroke-opacity:0.104;stroke-width:2;text-anchor:middle" /><path d="M 199.75 173.88 L 152.33 173.88 L 152.33 134.78 L 150.10 134.78" style="stroke:rgb(33.8%,34.9%,65.4%);stroke-opacity:0.00885;stroke-width:2" /><text x="152.33" y="166.33" style="fill:rgb(14.9%,14.9%,14.9%);fill-opacity:1.0;stroke:rgb(0.0%,0.0%,0.0%);stroke-opacity:0.00885;stroke-width:2;text-anchor:middle" /><path d="M 199.75 115.22 L 183.34 115.22 L 183.34 56.57 L 150.10 56.57" style="stroke:rgb(26.2%,44.7%,70.1%);stroke-opacity:0.0308;stroke-width:2" /><text x="183.34" y="97.90" style="fill:rgb(14.9%,14.9%,14.9%);fill-opacity:1.0;stroke:rgb(0.0%,0.0%,0.0%);stroke-opacity:0.0308;stroke-width:2;text-anchor:middle" /><path d="M 100.44 164.10 L 52.80 164.10 L 152.11 115.22 L 150.10 115.22" style="stroke:rgb(24.7%,46.7%,71.0%);stroke-opacity:0.0352;stroke-width:2" /><text x="102.45" y="151.66" style="fill:rgb(14.9%,14.9%,14.9%);fill-opacity:1.0;stroke:rgb(0.0%,0.0%,0.0%);stroke-opacity:0.0352;stroke-width:2;text-anchor:middle" /><path d="M 199.75 134.78 L 155.23 134.78 L 155.23 173.88 L 150.10 173.88" style="stroke:rgb(32.4%,36.8%,66.3%);stroke-opacity:0.013;stroke-width:2" /><text x="155.23" y="166.33" style="fill:rgb(14.9%,14.9%,14.9%);fill-opacity:1.0;stroke:rgb(0.0%,0.0%,0.0%);stroke-opacity:0.013;stroke-width:2;text-anchor:middle" /><path d="M 199.75 134.78 L 171.85 134.78 L 171.85 115.22 L 150.10 115.22" style="stroke:rgb(31.3%,38.2%,66.9%);stroke-opacity:0.0161;stroke-width:2" /><text x="171.85" y="137.00" style="fill:rgb(14.9%,14.9%,14.9%);fill-opacity:1.0;stroke:rgb(0.0%,0.0%,0.0%);stroke-opacity:0.0161;stroke-width:2;text-anchor:middle" /><path d="M 199.75 56.57 L 152.11 56.57 L 152.11 95.67 L 150.10 95.67" style="stroke:rgb(31.6%,37.8%,66.8%);stroke-opacity:0.0153;stroke-width:2" /><text x="152.11" y="88.12" style="fill:rgb(14.9%,14.9%,14.9%);fill-opacity:1.0;stroke:rgb(0.0%,0.0%,0.0%);stroke-opacity:0.0153;stroke-width:2;text-anchor:middle" /><path d="M 199.75 76.12 L 195.43 76.12 L 145.78 144.55 L 100.44 144.55" style="stroke:rgb(82.3%,92.9%,61.2%);stroke-opacity:0.183;stroke-width:2" /><text x="170.61" y="122.34" style="fill:rgb(14.9%,14.9%,14.9%);fill-opacity:1.0;stroke:rgb(0.0%,0.0%,0.0%);stroke-opacity:0.183;stroke-width:2;text-anchor:middle" /><path d="M 150.10 105.45 L 143.53 105.45 L 193.18 173.88 L 150.10 173.88" style="stroke:rgb(32.7%,36.4%,66.1%);stroke-opacity:0.0121;stroke-width:2" /><text x="168.36" y="151.66" style="fill:rgb(14.9%,14.9%,14.9%);fill-opacity:1.0;stroke:rgb(0.0%,0.0%,0.0%);stroke-opacity:0.0121;stroke-width:2;text-anchor:middle" /><path d="M 199.75 134.78 L 168.96 134.78 L 168.96 173.88 L 150.10 173.88" style="stroke:rgb(96.3%,98.5%,69.1%);stroke-opacity:0.231;stroke-width:2" /><text x="168.96" y="166.33" style="fill:rgb(14.9%,14.9%,14.9%);fill-opacity:1.0;stroke:rgb(0.0%,0.0%,0.0%);stroke-opacity:0.231;stroke-width:2;text-anchor:middle" /><path d="M 199.75 76.12 L 157.28 76.12 L 157.28 154.33 L 150.10 154.33" style="stroke:rgb(31.5%,37.9%,66.8%);stroke-opacity:0.0155;stroke-width:2" /><text x="157.28" y="127.22" style="fill:rgb(14.9%,14.9%,14.9%);fill-opacity:1.0;stroke:rgb(0.0%,0.0%,0.0%);stroke-opacity:0.0155;stroke-width:2;text-anchor:middle" /><path d="M 199.75 76.12 L 179.77 76.12 L 179.77 154.33 L 150.10 154.33" style="stroke:rgb(30.7%,39.0%,67.3%);stroke-opacity:0.018;stroke-width:2" /><text x="179.77" y="127.22" style="fill:rgb(14.9%,14.9%,14.9%);fill-opacity:1.0;stroke:rgb(0.0%,0.0%,0.0%);stroke-opacity:0.018;stroke-width:2;text-anchor:middle" /><path d="M 199.75 154.33 L 175.09 154.33 L 175.09 115.22 L 150.10 115.22" style="stroke:rgb(33.8%,34.9%,65.4%);stroke-opacity:0.00882;stroke-width:2" /><text x="175.09" y="146.78" style="fill:rgb(14.9%,14.9%,14.9%);fill-opacity:1.0;stroke:rgb(0.0%,0.0%,0.0%);stroke-opacity:0.00882;stroke-width:2;text-anchor:middle" /><path d="M 150.10 183.65 L 126.50 183.65 L 176.16 76.12 L 150.10 76.12" style="stroke:rgb(32.2%,37.1%,66.4%);stroke-opacity:0.0136;stroke-width:2" /><text x="151.33" y="141.89" style="fill:rgb(14.9%,14.9%,14.9%);fill-opacity:1.0;stroke:rgb(0.0%,0.0%,0.0%);stroke-opacity:0.0136;stroke-width:2;text-anchor:middle" /><path d="M 199.75 154.33 L 193.10 154.33 L 193.10 193.43 L 150.10 193.43" style="stroke:rgb(63.8%,85.4%,64.4%);stroke-opacity:0.144;stroke-width:2" /><text x="193.10" y="185.88" style="fill:rgb(14.9%,14.9%,14.9%);fill-opacity:1.0;stroke:rgb(0.0%,0.0%,0.0%);stroke-opacity:0.144;stroke-width:2;text-anchor:middle" /><path d="M 199.75 115.22 L 187.30 115.22 L 187.30 56.57 L 150.10 56.57" style="stroke:rgb(21.6%,55.6%,73.2%);stroke-opacity:0.0549;stroke-width:2" /><text x="187.30" y="97.90" style="fill:rgb(14.9%,14.9%,14.9%);fill-opacity:1.0;stroke:rgb(0.0%,0.0%,0.0%);stroke-opacity:0.0549;stroke-width:2;text-anchor:middle" /><path d="M 199.75 173.88 L 164.19 173.88 L 164.19 76.12 L 150.10 76.12" style="stroke:rgb(28.9%,41.3%,68.4%);stroke-opacity:0.023;stroke-width:2" /><text x="164.19" y="137.00" style="fill:rgb(14.9%,14.9%,14.9%);fill-opacity:1.0;stroke:rgb(0.0%,0.0%,0.0%);stroke-opacity:0.023;stroke-width:2;text-anchor:middle" /><path d="M 199.75 154.33 L 168.60 154.33 L 168.60 173.88 L 150.10 173.88" style="stroke:rgb(30.7%,38.9%,67.3%);stroke-opacity:0.0178;stroke-width:2" /><text x="168.60" y="176.10" style="fill:rgb(14.9%,14.9%,14.9%);fill-opacity:1.0;stroke:rgb(0.0%,0.0%,0.0%);stroke-opacity:0.0178;stroke-width:2;text-anchor:middle" /><path d="M 199.75 95.67 L 170.93 95.67 L 50.78 125.00 L 50.78 125.00" style="stroke:rgb(25.6%,60.0%,71.4%);stroke-opacity:0.0647;stroke-width:2" /><text x="110.85" y="122.34" style="fill:rgb(14.9%,14.9%,14.9%);fill-opacity:1.0;stroke:rgb(0.0%,0.0%,0.0%);stroke-opacity:0.0647;stroke-width:2;text-anchor:middle" /><path d="M 199.75 154.33 L 162.72 154.33 L 162.72 76.12 L 150.10 76.12" style="stroke:rgb(31.3%,38.2%,66.9%);stroke-opacity:0.0161;stroke-width:2" /><text x="162.72" y="127.22" style="fill:rgb(14.9%,14.9%,14.9%);fill-opacity:1.0;stroke:rgb(0.0%,0.0%,0.0%);stroke-opacity:0.0161;stroke-width:2;text-anchor:middle" /><path d="M 199.75 115.22 L 156.93 115.22 L 156.93 76.12 L 150.10 76.12" style="stroke:rgb(29.1%,41.0%,68.3%);stroke-opacity:0.0224;stroke-width:2" /><text x="156.93" y="107.67" style="fill:rgb(14.9%,14.9%,14.9%);fill-opacity:1.0;stroke:rgb(0.0%,0.0%,0.0%);stroke-opacity:0.0224;stroke-width:2;text-anchor:middle" /><path d="M 150.10 66.35 L 143.55 66.35 L 193.20 193.43 L 150.10 193.43" style="stroke:rgb(70.8%,88.2%,63.6%);stroke-opacity:0.158;stroke-width:2" /><text x="168.37" y="141.89" style="fill:rgb(14.9%,14.9%,14.9%);fill-opacity:1.0;stroke:rgb(0.0%,0.0%,0.0%);stroke-opacity:0.158;stroke-width:2;text-anchor:middle" /><path d="M 150.10 183.65 L 122.03 183.65 L 171.68 134.78 L 150.10 134.78" style="stroke:rgb(32.1%,37.1%,66.5%);stroke-opacity:0.0138;stroke-width:2" /><text x="146.85" y="171.22" style="fill:rgb(14.9%,14.9%,14.9%);fill-opacity:1.0;stroke:rgb(0.0%,0.0%,0.0%);stroke-opacity:0.0138;stroke-width:2;text-anchor:middle" /><path d="M 150.10 105.45 L 142.64 105.45 L 192.29 193.43 L 150.10 193.43" style="stroke:rgb(92.5%,97.0%,63.3%);stroke-opacity:0.212;stroke-width:2" /><text x="167.47" y="161.44" style="fill:rgb(14.9%,14.9%,14.9%);fill-opacity:1.0;stroke:rgb(0.0%,0.0%,0.0%);stroke-opacity:0.212;stroke-width:2;text-anchor:middle" /><path d="M 150.10 66.35 L 109.23 66.35 L 158.89 115.22 L 150.10 115.22" style="stroke:rgb(28.6%,41.7%,68.6%);stroke-opacity:0.024;stroke-width:2" /><text x="134.06" y="102.78" style="fill:rgb(14.9%,14.9%,14.9%);fill-opacity:1.0;stroke:rgb(0.0%,0.0%,0.0%);stroke-opacity:0.024;stroke-width:2;text-anchor:middle" /><path d="M 150.10 105.45 L 119.67 105.45 L 169.32 193.43 L 150.10 193.43" style="stroke:rgb(28.5%,41.8%,68.7%);stroke-opacity:0.0243;stroke-width:2" /><text x="144.50" y="161.44" style="fill:rgb(14.9%,14.9%,14.9%);fill-opacity:1.0;stroke:rgb(0.0%,0.0%,0.0%);stroke-opacity:0.0243;stroke-width:2;text-anchor:middle" /><path d="M 199.75 76.12 L 159.23 76.12 L 159.23 115.22 L 150.10 115.22" style="stroke:rgb(31.9%,37.5%,66.6%);stroke-opacity:0.0145;stroke-width:2" /><text x="159.23" y="107.67" style="fill:rgb(14.9%,14.9%,14.9%);fill-opacity:1.0;stroke:rgb(0.0%,0.0%,0.0%);stroke-opacity:0.0145;stroke-width:2;text-anchor:middle" /><path d="M 199.75 95.67 L 171.01 95.67 L 171.01 193.43 L 150.10 193.43" style="stroke:rgb(69.8%,87.8%,63.7%);stroke-opacity:0.156;stroke-width:2" /><text x="171.01" y="156.55" style="fill:rgb(14.9%,14.9%,14.9%);fill-opacity:1.0;stroke:rgb(0.0%,0.0%,0.0%);stroke-opacity:0.156;stroke-width:2;text-anchor:middle" /><path d="M 199.75 173.88 L 194.82 173.88 L 194.82 134.78 L 150.10 134.78" style="stroke:rgb(27.4%,43.2%,69.3%);stroke-opacity:0.0273;stroke-width:2" /><text x="194.82" y="166.33" style="fill:rgb(14.9%,14.9%,14.9%);fill-opacity:1.0;stroke:rgb(0.0%,0.0%,0.0%);stroke-opacity:0.0273;stroke-width:2;text-anchor:middle" /><path d="M 199.75 134.78 L 151.60 134.78 L 151.60 173.88 L 150.10 173.88" style="stroke:rgb(92.9%,97.2%,63.9%);stroke-opacity:0.214;stroke-width:2" /><text x="151.60" y="166.33" style="fill:rgb(14.9%,14.9%,14.9%);fill-opacity:1.0;stroke:rgb(0.0%,0.0%,0.0%);stroke-opacity:0.214;stroke-width:2;text-anchor:middle" /><path d="M 199.75 115.22 L 171.89 115.22 L 122.23 144.55 L 100.44 144.55" style="stroke:rgb(99.9%,95.9%,68.0%);stroke-opacity:0.267;stroke-width:2" /><text x="147.06" y="141.89" style="fill:rgb(14.9%,14.9%,14.9%);fill-opacity:1.0;stroke:rgb(0.0%,0.0%,0.0%);stroke-opacity:0.267;stroke-width:2;text-anchor:middle" /></g><g class="toytree-Nodes" style="fill:rgb(40.0%,76.1%,64.7%);fill-opacity:1.0;stroke:rgb(14.9%,14.9%,14.9%);stroke-opacity:1.0;stroke-width:1.5" /><g class="toytree-TipLabels" style="fill:rgb(14.5%,14.5%,14.5%);fill-opacity:1.0;font-family:Helvetica;font-size:12px;font-weight:300;vertical-align:baseline;white-space:pre;stroke:none"><g class="toytree-TipLabel" transform="translate(199.751,56.5693)"><text x="15.0" y="3.066" style="fill:rgb(14.5%,14.5%,14.5%);fill-opacity:1.0">r0</text></g><g class="toytree-TipLabel" transform="translate(199.751,76.121)"><text x="15.0" y="3.066" style="fill:rgb(14.5%,14.5%,14.5%);fill-opacity:1.0">r1</text></g><g class="toytree-TipLabel" transform="translate(199.751,95.6726)"><text x="15.0" y="3.066" style="fill:rgb(14.5%,14.5%,14.5%);fill-opacity:1.0">r2</text></g><g class="toytree-TipLabel" transform="translate(199.751,115.224)"><text x="15.0" y="3.066" style="fill:rgb(14.5%,14.5%,14.5%);fill-opacity:1.0">r3</text></g><g class="toytree-TipLabel" transform="translate(199.751,134.776)"><text x="15.0" y="3.066" style="fill:rgb(14.5%,14.5%,14.5%);fill-opacity:1.0">r4</text></g><g class="toytree-TipLabel" transform="translate(199.751,154.327)"><text x="15.0" y="3.066" style="fill:rgb(14.5%,14.5%,14.5%);fill-opacity:1.0">r5</text></g><g class="toytree-TipLabel" transform="translate(199.751,173.879)"><text x="15.0" y="3.066" style="fill:rgb(14.5%,14.5%,14.5%);fill-opacity:1.0">r6</text></g><g class="toytree-TipLabel" transform="translate(199.751,193.431)"><text x="15.0" y="3.066" style="fill:rgb(14.5%,14.5%,14.5%);fill-opacity:1.0">r7</text></g></g></g></g></g><g class="toyplot-coordinates-Numberline" id="t4b483e34eb9e48db86cd056291fca073"><clipPath id="tf9c1f8f322bd40f399c6d02d6f39a1c4"><rect x="0" y="-20.0" width="140.0" height="40.0" /></clipPath><g clip-path="url(#tf9c1f8f322bd40f399c6d02d6f39a1c4)" transform="translate(250.0,195.0)rotate(-90.0)"><g class="toyplot-color-Map" id="td851318a935c43b1b65906583f8d6b49"><defs><linearGradient id="t7068e83a006945cc9ee382125cc22a84" x1="0.0" x2="140.0" y1="0" y2="0" gradientUnits="userSpaceOnUse"><stop stop-color="rgb(36.9%,31%,63.5%)" stop-opacity="1.0" offset="0.0" /><stop stop-color="rgb(34.1%,34.5%,65.2%)" stop-opacity="1.0" offset="0.015873015873015872" /><stop stop-color="rgb(31.4%,38.1%,66.9%)" stop-opacity="1.0" offset="0.031746031746031744" /><stop stop-color="rgb(28.6%,41.6%,68.6%)" stop-opacity="1.0" offset="0.047619047619047616" /><stop stop-color="rgb(25.9%,45.2%,70.3%)" stop-opacity="1.0" offset="0.06349206349206349" /><stop stop-color="rgb(23.2%,48.7%,71.9%)" stop-opacity="1.0" offset="0.07936507936507936" /><stop stop-color="rgb(20.4%,52.3%,73.6%)" stop-opacity="1.0" offset="0.09523809523809523" /><stop stop-color="rgb(21.9%,55.9%,73.1%)" stop-opacity="1.0" offset="0.1111111111111111" /><stop stop-color="rgb(25.1%,59.5%,71.6%)" stop-opacity="1.0" offset="0.12698412698412698" /><stop stop-color="rgb(28.3%,63.1%,70.1%)" stop-opacity="1.0" offset="0.14285714285714285" /><stop stop-color="rgb(31.6%,66.7%,68.6%)" stop-opacity="1.0" offset="0.15873015873015872" /><stop stop-color="rgb(34.8%,70.3%,67.1%)" stop-opacity="1.0" offset="0.1746031746031746" /><stop stop-color="rgb(38.1%,73.9%,65.6%)" stop-opacity="1.0" offset="0.19047619047619047" /><stop stop-color="rgb(41.7%,76.8%,64.7%)" stop-opacity="1.0" offset="0.20634920634920634" /><stop stop-color="rgb(46%,78.4%,64.6%)" stop-opacity="1.0" offset="0.2222222222222222" /><stop stop-color="rgb(50.3%,80.1%,64.6%)" stop-opacity="1.0" offset="0.23809523809523805" /><stop stop-color="rgb(54.6%,81.8%,64.5%)" stop-opacity="1.0" offset="0.25396825396825395" /><stop stop-color="rgb(58.9%,83.5%,64.4%)" stop-opacity="1.0" offset="0.2698412698412698" /><stop stop-color="rgb(63.2%,85.2%,64.4%)" stop-opacity="1.0" offset="0.2857142857142857" /><stop stop-color="rgb(67.4%,86.8%,64.2%)" stop-opacity="1.0" offset="0.30158730158730157" /><stop stop-color="rgb(71.1%,88.3%,63.5%)" stop-opacity="1.0" offset="0.31746031746031744" /><stop stop-color="rgb(74.8%,89.8%,62.7%)" stop-opacity="1.0" offset="0.3333333333333333" /><stop stop-color="rgb(78.4%,91.3%,62%)" stop-opacity="1.0" offset="0.3492063492063492" /><stop stop-color="rgb(82.1%,92.8%,61.3%)" stop-opacity="1.0" offset="0.36507936507936506" /><stop stop-color="rgb(85.8%,94.3%,60.5%)" stop-opacity="1.0" offset="0.38095238095238093" /><stop stop-color="rgb(89.5%,95.8%,59.8%)" stop-opacity="1.0" offset="0.3968253968253968" /><stop stop-color="rgb(91.4%,96.6%,61.5%)" stop-opacity="1.0" offset="0.4126984126984127" /><stop stop-color="rgb(93%,97.2%,64%)" stop-opacity="1.0" offset="0.42857142857142855" /><stop stop-color="rgb(94.6%,97.8%,66.4%)" stop-opacity="1.0" offset="0.4444444444444444" /><stop stop-color="rgb(96.1%,98.4%,68.8%)" stop-opacity="1.0" offset="0.4603174603174603" /><stop stop-color="rgb(97.7%,99.1%,71.3%)" stop-opacity="1.0" offset="0.4761904761904761" /><stop stop-color="rgb(99.2%,99.7%,73.7%)" stop-opacity="1.0" offset="0.49206349206349204" /><stop stop-color="rgb(100%,99%,73.3%)" stop-opacity="1.0" offset="0.5079365079365079" /><stop stop-color="rgb(99.9%,97.1%,70%)" stop-opacity="1.0" offset="0.5238095238095237" /><stop stop-color="rgb(99.8%,95.2%,66.8%)" stop-opacity="1.0" offset="0.5396825396825397" /><stop stop-color="rgb(99.8%,93.2%,63.6%)" stop-opacity="1.0" offset="0.5555555555555556" /><stop stop-color="rgb(99.7%,91.3%,60.3%)" stop-opacity="1.0" offset="0.5714285714285714" /><stop stop-color="rgb(99.7%,89.4%,57.1%)" stop-opacity="1.0" offset="0.5873015873015872" /><stop stop-color="rgb(99.6%,87.2%,54%)" stop-opacity="1.0" offset="0.6031746031746031" /><stop stop-color="rgb(99.5%,84.1%,51.4%)" stop-opacity="1.0" offset="0.6190476190476191" /><stop stop-color="rgb(99.5%,81%,48.8%)" stop-opacity="1.0" offset="0.6349206349206349" /><stop stop-color="rgb(99.4%,77.9%,46.1%)" stop-opacity="1.0" offset="0.6507936507936507" /><stop stop-color="rgb(99.3%,74.8%,43.5%)" stop-opacity="1.0" offset="0.6666666666666666" /><stop stop-color="rgb(99.3%,71.7%,40.9%)" stop-opacity="1.0" offset="0.6825396825396826" /><stop stop-color="rgb(99.2%,68.5%,38.3%)" stop-opacity="1.0" offset="0.6984126984126984" /><stop stop-color="rgb(98.7%,64.6%,36.4%)" stop-opacity="1.0" offset="0.7142857142857142" /><stop stop-color="rgb(98.2%,60.5%,34.5%)" stop-opacity="1.0" offset="0.7301587301587301" /><stop stop-color="rgb(97.6%,56.5%,32.6%)" stop-opacity="1.0" offset="0.746031746031746" /><stop stop-color="rgb(97%,52.5%,30.8%)" stop-opacity="1.0" offset="0.7619047619047619" /><stop stop-color="rgb(96.5%,48.4%,28.9%)" stop-opacity="1.0" offset="0.7777777777777777" /><stop stop-color="rgb(95.9%,44.4%,27%)" stop-opacity="1.0" offset="0.7936507936507936" /><stop stop-color="rgb(94.5%,41%,26.7%)" stop-opacity="1.0" offset="0.8095238095238095" /><stop stop-color="rgb(92.6%,38.1%,27.5%)" stop-opacity="1.0" offset="0.8253968253968254" /><stop stop-color="rgb(90.7%,35.1%,28.2%)" stop-opacity="1.0" offset="0.8412698412698412" /><stop stop-color="rgb(88.7%,32.2%,29%)" stop-opacity="1.0" offset="0.8571428571428571" /><stop stop-color="rgb(86.8%,29.3%,29.7%)" stop-opacity="1.0" offset="0.873015873015873" /><stop stop-color="rgb(84.9%,26.4%,30.5%)" stop-opacity="1.0" offset="0.8888888888888888" /><stop stop-color="rgb(82.5%,23.2%,30.7%)" stop-opacity="1.0" offset="0.9047619047619047" /><stop stop-color="rgb(79.1%,19.4%,29.9%)" stop-opacity="1.0" offset="0.9206349206349206" /><stop stop-color="rgb(75.7%,15.6%,29.1%)" stop-opacity="1.0" offset="0.9365079365079365" /><stop stop-color="rgb(72.2%,11.8%,28.3%)" stop-opacity="1.0" offset="0.9523809523809522" /><stop stop-color="rgb(68.8%,7.99%,27.5%)" stop-opacity="1.0" offset="0.9682539682539681" /><stop stop-color="rgb(65.4%,4.19%,26.7%)" stop-opacity="1.0" offset="0.9841269841269841" /><stop stop-color="rgb(62%,0.392%,25.9%)" stop-opacity="1.0" offset="1.0" /></linearGradient></defs><rect x="0.0" y="-7.5" width="140.0" height="15" style="fill:url(#t7068e83a006945cc9ee382125cc22a84);stroke:rgb(0%,0%,0%);stroke-opacity:1.0;stroke-width:2" /></g></g><g class="toyplot-coordinates-Axis" id="te533b8f296a64f98a97477f801ca3be8" transform="translate(250.0,195.0)rotate(-90.0)translate(0,20.0)"><line x1="0" y1="0" x2="140.0" y2="0" style="stroke-width:2" /><g><line x1="0.0" y1="0" x2="0.0" y2="-3" style="stroke-width:2" /><line x1="70.0" y1="0" x2="70.0" y2="-3" style="stroke-width:2" /><line x1="140.0" y1="0" x2="140.0" y2="-3" style="stroke-width:2" /></g><g><g transform="translate(0.0,6)"><text x="-7.6450000000000005" y="9.410499999999999" style="fill:rgb(16.1%,15.3%,14.1%);fill-opacity:1.0;font-family:helvetica;font-size:11.0px;font-weight:normal;stroke:none;vertical-align:baseline;white-space:pre">0.0</text></g><g transform="translate(70.0,6)"><text x="-10.703000000000001" y="9.410499999999999" style="fill:rgb(16.1%,15.3%,14.1%);fill-opacity:1.0;font-family:helvetica;font-size:11.0px;font-weight:normal;stroke:none;vertical-align:baseline;white-space:pre">0.25</text></g><g transform="translate(140.0,6)"><text x="-7.6450000000000005" y="9.410499999999999" style="fill:rgb(16.1%,15.3%,14.1%);fill-opacity:1.0;font-family:helvetica;font-size:11.0px;font-weight:normal;stroke:none;vertical-align:baseline;white-space:pre">0.5</text></g></g><g class="toyplot-coordinates-Axis-coordinates" style="visibility:hidden" transform=""><line x1="0" x2="0" y1="-3.0" y2="4.5" style="stroke:rgb(43.9%,50.2%,56.5%);stroke-opacity:1.0;stroke-width:1.0" /><text x="0" y="-6" style="alignment-baseline:alphabetic;fill:rgb(43.9%,50.2%,56.5%);fill-opacity:1.0;font-size:10px;font-weight:normal;stroke:none;text-anchor:middle" /></g></g></g><g class="toyplot-mark-Text" id="t0f09ccc2d794418580addd3dce97bece"><g class="toyplot-Series"><g class="toyplot-Datum" transform="translate(90.0,45.0)"><text x="-28.5835" y="-3.7895000000000003" style="fill:rgb(16.1%,15.3%,14.1%);fill-opacity:1.0;font-family:helvetica;font-size:11.0px;font-weight:bold;opacity:1;stroke:none;vertical-align:baseline;white-space:pre">Major=0.86</text><text x="-42.339000000000006" y="9.410499999999999" style="fill:rgb(16.1%,15.3%,14.1%);fill-opacity:1.0;font-family:helvetica;font-size:11.0px;font-weight:bold;opacity:1;stroke:none;vertical-align:baseline;white-space:pre">Alternative=0.14</text></g></g></g></svg>