<svg class="toyplot-canvas-Canvas" xmlns:toyplot="http://www.sandia.gov/toyplot" xmlns:xlink="http://www.w3.org/1999/xlink" xmlns="http://www.w3.org/2000/svg" width="300.0px" height="275.0px" viewBox="0 0 300.0 275.0" preserveAspectRatio="xMidYMid meet" style="background-color:transparent;border-color:#292724;border-style:none;border-width:1.0;fill:rgb(16.1%,15.3%,14.1%);fill-opacity:1.0;font-family:Helvetica;font-size:12px;opacity:1.0;stroke:rgb(16.1%,15.3%,14.1%);stroke-opacity:1.0;stroke-width:1.0" id="ta2347748814a4ddd9a33835f572095b4"><g class="toyplot-coordinates-Cartesian" id="t21bb24d9cb3241a686e45572ffd16981"><clipPath id="t97d4f1f151d74a4b8c9df441f7ccbe72"><rect x="35.0" y="35.0" width="230.0" height="205.0" /></clipPath><g clip-path="url(#t97d4f1f151d74a4b8c9df441f7ccbe72)"><g class="toytree-mark-Toytree" id="t9923ad8b423548ef94e9daa008c4dd4c"><g class="toytree-Edges" style="stroke:rgb(14.5%,14.5%,14.5%);stroke-opacity:1.0;stroke-linecap:round;stroke-width:2.0;fill:none"><path d="M 57.3 188.2 L 57.3 216.4 L 210.6 216.4" id="14,0" style="" /><path d="M 88.0 160.1 L 88.0 193.9 L 210.6 193.9" id="13,1" style="" /><path d="M 180.0 160.1 L 180.0 171.3 L 210.6 171.3" id="8,2" style="" /><path d="M 180.0 160.1 L 180.0 148.8 L 210.6 148.8" id="8,3" style="" /><path d="M 180.0 114.9 L 180.0 126.2 L 210.6 126.2" id="9,4" style="" /><path d="M 180.0 114.9 L 180.0 103.7 L 210.6 103.7" id="9,5" style="" /><path d="M 180.0 69.8 L 180.0 81.1 L 210.6 81.1" id="10,6" style="" /><path d="M 180.0 69.8 L 180.0 58.6 L 210.6 58.6" id="10,7" style="" /><path d="M 118.6 126.2 L 118.6 160.1 L 180.0 160.1" id="12,8" style="" /><path d="M 149.3 92.4 L 149.3 114.9 L 180.0 114.9" id="11,9" style="" /><path d="M 149.3 92.4 L 149.3 69.8 L 180.0 69.8" id="11,10" style="" /><path d="M 118.6 126.2 L 118.6 92.4 L 149.3 92.4" id="12,11" style="" /><path d="M 88.0 160.1 L 88.0 126.2 L 118.6 126.2" id="13,12" style="" /><path d="M 57.3 188.2 L 57.3 160.1 L 88.0 160.1" id="14,13" style="" /></g><g class="toytree-AdmixEdges" style="fill:rgb(0.0%,0.0%,0.0%);fill-opacity:0.0;stroke:rgb(90.6%,54.1%,76.5%);stroke-opacity:0.6;font-size:14px;stroke-linecap:round;stroke-width:5" /><g class="toytree-Nodes" style="fill:rgb(82.7%,82.7%,82.7%);fill-opacity:1.0;stroke:rgb(14.5%,14.5%,14.5%);stroke-opacity:1.0;stroke-width:1.5"><g id="Node-8" transform="translate(179.967,160.052)"><circle r="8.0" /></g><g id="Node-9" transform="translate(179.967,114.948)"><circle r="8.0" /></g><g id="Node-10" transform="translate(179.967,69.8454)"><circle r="8.0" /></g><g id="Node-11" transform="translate(149.296,92.3969)"><circle r="8.0" /></g><g id="Node-12" transform="translate(118.625,126.224)"><circle r="8.0" /></g><g id="Node-13" transform="translate(87.9549,160.052)"><circle r="8.0" /></g></g><g class="toytree-NodeLabels" style="font-family:Helvetica;font-size:9px;font-weight:300;vertical-align:baseline;white-space:pre;stroke:none"><g class="toytree-NodeLabel" transform="translate(179.967,160.052)"><text x="-2.5020000000000002" y="2.2995" style="fill:rgb(14.5%,14.5%,14.5%);fill-opacity:1.0">1</text></g><g class="toytree-NodeLabel" transform="translate(179.967,114.948)"><text x="-2.5020000000000002" y="2.2995" style="fill:rgb(14.5%,14.5%,14.5%);fill-opacity:1.0">1</text></g><g class="toytree-NodeLabel" transform="translate(179.967,69.8454)"><text x="-2.5020000000000002" y="2.2995" style="fill:rgb(14.5%,14.5%,14.5%);fill-opacity:1.0">1</text></g><g class="toytree-NodeLabel" transform="translate(149.296,92.3969)"><text x="-2.5020000000000002" y="2.2995" style="fill:rgb(14.5%,14.5%,14.5%);fill-opacity:1.0">1</text></g><g class="toytree-NodeLabel" transform="translate(118.625,126.224)"><text x="-2.5020000000000002" y="2.2995" style="fill:rgb(14.5%,14.5%,14.5%);fill-opacity:1.0">1</text></g><g class="toytree-NodeLabel" transform="translate(87.9549,160.052)"><text x="-7.506" y="2.2995" style="fill:rgb(14.5%,14.5%,14.5%);fill-opacity:1.0">nan</text></g></g><g class="toytree-TipLabels" style="fill:rgb(14.5%,14.5%,14.5%);fill-opacity:1.0;font-family:Helvetica;font-size:12px;font-weight:300;vertical-align:baseline;white-space:pre;stroke:none"><g class="toytree-TipLabel" transform="translate(210.637,216.43)"><text x="15.0" y="3.066" style="fill:rgb(14.5%,14.5%,14.5%);fill-opacity:1.0">r7</text></g><g class="toytree-TipLabel" transform="translate(210.637,193.879)"><text x="15.0" y="3.066" style="fill:rgb(14.5%,14.5%,14.5%);fill-opacity:1.0">r6</text></g><g class="toytree-TipLabel" transform="translate(210.637,171.327)"><text x="15.0" y="3.066" style="fill:rgb(14.5%,14.5%,14.5%);fill-opacity:1.0">r4</text></g><g class="toytree-TipLabel" transform="translate(210.637,148.776)"><text x="15.0" y="3.066" style="fill:rgb(14.5%,14.5%,14.5%);fill-opacity:1.0">r5</text></g><g class="toytree-TipLabel" transform="translate(210.637,126.224)"><text x="15.0" y="3.066" style="fill:rgb(14.5%,14.5%,14.5%);fill-opacity:1.0">r0</text></g><g class="toytree-TipLabel" transform="translate(210.637,103.673)"><text x="15.0" y="3.066" style="fill:rgb(14.5%,14.5%,14.5%);fill-opacity:1.0">r1</text></g><g class="toytree-TipLabel" transform="translate(210.637,81.1211)"><text x="15.0" y="3.066" style="fill:rgb(14.5%,14.5%,14.5%);fill-opacity:1.0">r3</text></g><g class="toytree-TipLabel" transform="translate(210.637,58.5696)"><text x="15.0" y="3.066" style="fill:rgb(14.5%,14.5%,14.5%);fill-opacity:1.0">r2</text></g></g></g></g></g></svg>