<svg class="toyplot-canvas-Canvas" xmlns:toyplot="http://www.sandia.gov/toyplot" xmlns:xlink="http://www.w3.org/1999/xlink" xmlns="http://www.w3.org/2000/svg" width="300.0px" height="275.0px" viewBox="0 0 300.0 275.0" preserveAspectRatio="xMidYMid meet" style="background-color:transparent;border-color:#292724;border-style:none;border-width:1.0;fill:rgb(16.1%,15.3%,14.1%);fill-opacity:1.0;font-family:Helvetica;font-size:12px;opacity:1.0;stroke:rgb(16.1%,15.3%,14.1%);stroke-opacity:1.0;stroke-width:1.0" id="t090abee5ed92435c8e6fd89c752c4cec"><g class="toyplot-coordinates-Cartesian" id="t62ba1bd2b097469e9c6e9b26be011561"><clipPath id="tf60805fc78f04a41baec5ebcae38c84b"><rect x="35.0" y="35.0" width="230.0" height="205.0" /></clipPath><g clip-path="url(#tf60805fc78f04a41baec5ebcae38c84b)"><g class="toytree-mark-Toytree" id="tc389fe63a64040898841a2ff27de4ade"><g class="toytree-Edges" style="stroke:rgb(14.5%,14.5%,14.5%);stroke-opacity:1.0;stroke-linecap:round;stroke-width:2.0;fill:none"><path d="M 156.8 206.8 L 156.8 218.3 L 209.5 218.3" id="8,0" style="stroke:rgb(36.9%,31.0%,63.5%);stroke-opacity:1.0;stroke-width:4.0" /><path d="M 156.8 206.8 L 156.8 195.2 L 209.5 195.2" id="8,1" style="stroke:rgb(36.9%,31.0%,63.5%);stroke-opacity:1.0;stroke-width:4.0" /><path d="M 106.8 160.6 L 106.8 172.1 L 109.5 172.1" id="9,2" style="stroke:rgb(62.0%,0.4%,25.9%);stroke-opacity:1.0;stroke-width:4.0" /><path d="M 106.8 160.6 L 106.8 149.0 L 109.5 149.0" id="9,3" style="stroke:rgb(62.0%,0.4%,25.9%);stroke-opacity:1.0;stroke-width:4.0" /><path d="M 156.8 114.4 L 156.8 126.0 L 209.5 126.0" id="11,4" style="stroke:rgb(36.9%,31.0%,63.5%);stroke-opacity:1.0;stroke-width:4.0" /><path d="M 156.8 114.4 L 156.8 102.9 L 209.5 102.9" id="11,5" style="stroke:rgb(36.9%,31.0%,63.5%);stroke-opacity:1.0;stroke-width:4.0" /><path d="M 106.8 68.2 L 106.8 79.8 L 109.5 79.8" id="12,6" style="stroke:rgb(62.0%,0.4%,25.9%);stroke-opacity:1.0;stroke-width:4.0" /><path d="M 106.8 68.2 L 106.8 56.7 L 109.5 56.7" id="12,7" style="stroke:rgb(62.0%,0.4%,25.9%);stroke-opacity:1.0;stroke-width:4.0" /><path d="M 104.2 183.7 L 104.2 206.8 L 156.8 206.8" id="10,8" style="stroke:rgb(36.9%,31.0%,63.5%);stroke-opacity:1.0;stroke-width:4.0" /><path d="M 104.2 183.7 L 104.2 160.6 L 106.8 160.6" id="10,9" style="stroke:rgb(62.0%,0.4%,25.9%);stroke-opacity:1.0;stroke-width:4.0" /><path d="M 51.6 137.5 L 51.6 183.7 L 104.2 183.7" id="14,10" style="stroke:rgb(36.9%,31.0%,63.5%);stroke-opacity:1.0;stroke-width:4.0" /><path d="M 104.2 91.3 L 104.2 114.4 L 156.8 114.4" id="13,11" style="stroke:rgb(36.9%,31.0%,63.5%);stroke-opacity:1.0;stroke-width:4.0" /><path d="M 104.2 91.3 L 104.2 68.2 L 106.8 68.2" id="13,12" style="stroke:rgb(62.0%,0.4%,25.9%);stroke-opacity:1.0;stroke-width:4.0" /><path d="M 51.6 137.5 L 51.6 91.3 L 104.2 91.3" id="14,13" style="stroke:rgb(36.9%,31.0%,63.5%);stroke-opacity:1.0;stroke-width:4.0" /></g><g class="toytree-AlignEdges" style="stroke:rgb(66.0%,66.0%,66.0%);stroke-opacity:0.75;stroke-dasharray:2,4;stroke-linecap:round;stroke-width:2"><path d="M 209.5 218.3 L 209.5 218.3" /><path d="M 209.5 195.2 L 209.5 195.2" /><path d="M 209.5 172.1 L 109.5 172.1" /><path d="M 209.5 149.0 L 109.5 149.0" /><path d="M 209.5 126.0 L 209.5 126.0" /><path d="M 209.5 102.9 L 209.5 102.9" /><path d="M 209.5 79.8 L 109.5 79.8" /><path d="M 209.5 56.7 L 109.5 56.7" /></g><g class="toytree-AdmixEdges" style="fill:rgb(0.0%,0.0%,0.0%);fill-opacity:0.0;stroke:rgb(90.6%,54.1%,76.5%);stroke-opacity:0.6;font-size:14px;stroke-linecap:round;stroke-width:5" /><g class="toytree-Nodes" style="fill:rgb(40.0%,76.1%,64.7%);fill-opacity:1.0;stroke:rgb(14.9%,14.9%,14.9%);stroke-opacity:1.0;stroke-width:1.5" /><g class="toytree-TipLabels" style="fill:rgb(14.5%,14.5%,14.5%);fill-opacity:1.0;font-family:Helvetica;font-size:12px;font-weight:300;vertical-align:baseline;white-space:pre;stroke:none"><g class="toytree-TipLabel" transform="translate(209.472,218.347)"><text x="15.0" y="3.066" style="fill:rgb(14.5%,14.5%,14.5%);fill-opacity:1.0">r0</text></g><g class="toytree-TipLabel" transform="translate(209.472,195.248)"><text x="15.0" y="3.066" style="fill:rgb(14.5%,14.5%,14.5%);fill-opacity:1.0">r1</text></g><g class="toytree-TipLabel" transform="translate(209.472,172.149)"><text x="15.0" y="3.066" style="fill:rgb(14.5%,14.5%,14.5%);fill-opacity:1.0">r2</text></g><g class="toytree-TipLabel" transform="translate(209.472,149.05)"><text x="15.0" y="3.066" style="fill:rgb(14.5%,14.5%,14.5%);fill-opacity:1.0">r3</text></g><g class="toytree-TipLabel" transform="translate(209.472,125.95)"><text x="15.0" y="3.066" style="fill:rgb(14.5%,14.5%,14.5%);fill-opacity:1.0">r4</text></g><g class="toytree-TipLabel" transform="translate(209.472,102.851)"><text x="15.0" y="3.066" style="fill:rgb(14.5%,14.5%,14.5%);fill-opacity:1.0">r5</text></g><g class="toytree-TipLabel" transform="translate(209.472,79.7518)"><text x="15.0" y="3.066" style="fill:rgb(14.5%,14.5%,14.5%);fill-opacity:1.0">r6</text></g><g class="toytree-TipLabel" transform="translate(209.472,56.6526)"><text x="15.0" y="3.066" style="fill:rgb(14.5%,14.5%,14.5%);fill-opacity:1.0">r7</text></g></g></g></g><g class="toyplot-coordinates-Axis" id="t057049a72fa54853ac6ebb6ff87c4a61" transform="translate(50.0,225.0)translate(0,15.0)"><line x1="1.5789307480973884" y1="0" x2="159.47200555783624" y2="0" style="" /><g><line x1="1.5789307480973884" y1="0" x2="1.5789307480973884" y2="-5" style="" /><line x1="80.52546815296681" y1="0" x2="80.52546815296681" y2="-5" style="" /><line x1="159.47200555783624" y1="0" x2="159.47200555783624" y2="-5" style="" /></g><g><g transform="translate(1.5789307480973884,6)"><text x="-19.459999999999997" y="8.555" style="fill:rgb(16.1%,15.3%,14.1%);fill-opacity:1.0;font-family:helvetica;font-size:10.0px;font-weight:normal;stroke:none;vertical-align:baseline;white-space:pre">1000000</text></g><g transform="translate(80.52546815296681,6)"><text x="-16.68" y="8.555" style="fill:rgb(16.1%,15.3%,14.1%);fill-opacity:1.0;font-family:helvetica;font-size:10.0px;font-weight:normal;stroke:none;vertical-align:baseline;white-space:pre">500000</text></g><g transform="translate(159.47200555783624,6)"><text x="-2.78" y="8.555" style="fill:rgb(16.1%,15.3%,14.1%);fill-opacity:1.0;font-family:helvetica;font-size:10.0px;font-weight:normal;stroke:none;vertical-align:baseline;white-space:pre">0</text></g></g><g transform="translate(100.0,22)"><text x="-53.675999999999995" y="10.265999999999998" style="fill:rgb(16.1%,15.3%,14.1%);fill-opacity:1.0;font-family:helvetica;font-size:12.0px;font-weight:bold;stroke:none;vertical-align:baseline;white-space:pre">Time (generations)</text></g><g class="toyplot-coordinates-Axis-coordinates" style="visibility:hidden" transform=""><line x1="0" x2="0" y1="-3.0" y2="4.5" style="stroke:rgb(43.9%,50.2%,56.5%);stroke-opacity:1.0;stroke-width:1.0" /><text x="0" y="-6" style="alignment-baseline:alphabetic;fill:rgb(43.9%,50.2%,56.5%);fill-opacity:1.0;font-size:10px;font-weight:normal;stroke:none;text-anchor:middle" /></g></g></g></svg>