<svg class="toyplot-canvas-Canvas" height="300.0px" id="t2075967198034a8bad2b5139fe832de0" preserveAspectRatio="xMidYMid meet" style="background-color:transparent;border-color:#292724;border-style:none;border-width:1.0;fill:rgb(16.1%,15.3%,14.1%);fill-opacity:1.0;font-family:Helvetica;font-size:12px;opacity:1.0;stroke:rgb(16.1%,15.3%,14.1%);stroke-opacity:1.0;stroke-width:1.0" viewBox="0 0 250.0 300.0" width="250.0px" xmlns="http://www.w3.org/2000/svg" xmlns:toyplot="http://www.sandia.gov/toyplot" xmlns:xlink="http://www.w3.org/1999/xlink"><g class="toyplot-coordinates-Cartesian" id="tb2b4b6857c99447d905d4814b169854c"><clipPath id="t4e692611180f4634a7511c851c5de6e6"><rect height="240.0" width="190.0" x="30.0" y="30.0" /></clipPath><g clip-path="url(#t4e692611180f4634a7511c851c5de6e6)"><g class="toytree-mark-Toytree" id="td98b3fff5a1d41b38e275fa583cfc324"><g class="toytree-Edges" style="fill:none;stroke:rgb(14.9%,14.9%,14.9%);stroke-linecap:round;stroke-opacity:1;stroke-width:2"><path d="M 50.0 220.2 L 50.0 192.5 L 69.8 192.5" id="14,13" style="stroke-width:2.0" /><path d="M 69.8 192.5 L 69.8 164.9 L 89.7 164.9" id="13,12" style="stroke-width:12.0" /><path d="M 89.7 164.9 L 89.7 137.7 L 109.5 137.7" id="12,11" style="stroke-width:12.0" /><path d="M 109.5 137.7 L 109.5 111.5 L 129.4 111.5" id="11,10" style="stroke-width:12.0" /><path d="M 129.4 111.5 L 129.4 87.0 L 149.2 87.0" id="10,9" style="stroke-width:2.0" /><path d="M 149.2 87.0 L 149.2 66.0 L 169.0 66.0" id="9,8" style="stroke-width:2.0" /><path d="M 169.0 66.0 L 169.0 52.0 L 188.9 52.0" id="8,7" style="stroke-width:2.0" /><path d="M 169.0 66.0 L 169.0 80.0 L 188.9 80.0" id="8,6" style="stroke-width:2.0" /><path d="M 149.2 87.0 L 149.2 108.0 L 188.9 108.0" id="9,5" style="stroke-width:2.0" /><path d="M 129.4 111.5 L 129.4 136.0 L 188.9 136.0" id="10,4" style="stroke-width:12.0" /><path d="M 109.5 137.7 L 109.5 164.0 L 188.9 164.0" id="11,3" style="stroke-width:12.0" /><path d="M 89.7 164.9 L 89.7 192.0 L 188.9 192.0" id="12,2" style="stroke-width:12.0" /><path d="M 69.8 192.5 L 69.8 220.0 L 188.9 220.0" id="13,1" style="stroke-width:2.0" /><path d="M 50.0 220.2 L 50.0 248.0 L 188.9 248.0" id="14,0" style="stroke-width:2.0" /></g></g></g></g></svg>