<svg class="toyplot-canvas-Canvas" height="300.0px" id="t58af5048f6fc4d9ebd68c03f41a437d5" preserveAspectRatio="xMidYMid meet" style="background-color:transparent;border-color:#292724;border-style:none;border-width:1.0;fill:rgb(16.1%,15.3%,14.1%);fill-opacity:1.0;font-family:Helvetica;font-size:12px;opacity:1.0;stroke:rgb(16.1%,15.3%,14.1%);stroke-opacity:1.0;stroke-width:1.0" viewBox="0 0 250.0 300.0" width="250.0px" xmlns="http://www.w3.org/2000/svg" xmlns:toyplot="http://www.sandia.gov/toyplot" xmlns:xlink="http://www.w3.org/1999/xlink"><g class="toyplot-coordinates-Cartesian" id="td1709ff43ded4e9581cbca821426cd6d"><clipPath id="t8577d2145e224780a3e13870bca9c5fc"><rect height="240.0" width="190.0" x="30.0" y="30.0" /></clipPath><g clip-path="url(#t8577d2145e224780a3e13870bca9c5fc)"><g class="toytree-mark-Toytree" id="tbfa3fd297f0e4af0be6f2390b1e543bd"><g class="toytree-Edges" style="fill:none;stroke:rgb(14.9%,14.9%,14.9%);stroke-linecap:round;stroke-opacity:1;stroke-width:5"><path d="M 50.0 218.2 L 50.0 191.2 L 70.7 191.2" id="14,13" /><path d="M 70.7 191.2 L 70.7 164.5 L 72.8 164.5" id="13,12" /><path d="M 72.8 164.5 L 72.8 138.1 L 74.9 138.1" id="12,11" /><path d="M 74.9 138.1 L 74.9 112.6 L 77.0 112.6" id="11,10" /><path d="M 77.0 112.6 L 77.0 88.8 L 97.7 88.8" id="10,9" /><path d="M 97.7 88.8 L 97.7 68.4 L 118.4 68.4" id="9,8" /><path d="M 118.4 68.4 L 118.4 54.8 L 139.2 54.8" id="8,7" /><path d="M 118.4 68.4 L 118.4 82.0 L 139.2 82.0" id="8,6" /><path d="M 97.7 88.8 L 97.7 109.2 L 139.2 109.2" id="9,5" /><path d="M 77.0 112.6 L 77.0 136.4 L 83.2 136.4" id="10,4" /><path d="M 74.9 138.1 L 74.9 163.6 L 83.2 163.6" id="11,3" /><path d="M 72.8 164.5 L 72.8 190.8 L 83.2 190.8" id="12,2" /><path d="M 70.7 191.2 L 70.7 218.0 L 195.2 218.0" id="13,1" /><path d="M 50.0 218.2 L 50.0 245.2 L 195.2 245.2" id="14,0" /></g></g></g></g></svg>