<svg class="toyplot-canvas-Canvas" height="300.0px" id="t90d9091e1c6e42b08ab9e7ecf2a4ffdf" preserveAspectRatio="xMidYMid meet" style="background-color:transparent;border-color:#292724;border-style:none;border-width:1.0;fill:rgb(16.1%,15.3%,14.1%);fill-opacity:1.0;font-family:Helvetica;font-size:12px;opacity:1.0;stroke:rgb(16.1%,15.3%,14.1%);stroke-opacity:1.0;stroke-width:1.0" viewBox="0 0 260.0 300.0" width="260.0px" xmlns="http://www.w3.org/2000/svg" xmlns:toyplot="http://www.sandia.gov/toyplot" xmlns:xlink="http://www.w3.org/1999/xlink"><g class="toyplot-coordinates-Cartesian" id="t402b2618298d4fc3a078ebaf583838de"><clipPath id="t8bd3119c258a48a3a44346311cebeb68"><rect height="240.0" width="200.0" x="30.0" y="30.0" /></clipPath><g clip-path="url(#t8bd3119c258a48a3a44346311cebeb68)"><g class="toytree-mark-Toytree" id="tbe48e99e5fb94d65b38f94efeaa371dc"><g class="toytree-Edges" style="fill:none;stroke:rgb(14.9%,14.9%,14.9%);stroke-linecap:round;stroke-opacity:1;stroke-width:5"><path d="M 56.0 196.8 L 83.6 154.8" id="14,13" /><path d="M 83.6 154.8 L 111.2 115.1" id="13,12" /><path d="M 83.6 154.8 L 138.8 194.4" id="13,11" /><path d="M 111.2 115.1 L 138.8 92.9" id="12,10" /><path d="M 138.8 194.4 L 166.3 175.4" id="11,9" /><path d="M 138.8 92.9 L 166.3 73.9" id="10,8" /><path d="M 166.3 73.9 L 193.9 61.2" id="8,7" /><path d="M 166.3 73.9 L 193.9 86.6" id="8,6" /><path d="M 138.8 92.9 L 193.9 111.9" id="10,5" /><path d="M 111.2 115.1 L 193.9 137.3" id="12,4" /><path d="M 166.3 175.4 L 193.9 162.7" id="9,3" /><path d="M 166.3 175.4 L 193.9 188.1" id="9,2" /><path d="M 138.8 194.4 L 193.9 213.4" id="11,1" /><path d="M 56.0 196.8 L 193.9 238.8" id="14,0" /></g><g class="toytree-AlignEdges" style="stroke:rgb(66.3%,66.3%,66.3%);stroke-dasharray:2, 4;stroke-linecap:round;stroke-opacity:1.0;stroke-width:2"><path d="M 193.9 238.8 L 193.9 238.8" /><path d="M 193.9 213.4 L 193.9 213.4" /><path d="M 193.9 188.1 L 193.9 188.1" /><path d="M 193.9 162.7 L 193.9 162.7" /><path d="M 193.9 137.3 L 193.9 137.3" /><path d="M 193.9 111.9 L 193.9 111.9" /><path d="M 193.9 86.6 L 193.9 86.6" /><path d="M 193.9 61.2 L 193.9 61.2" /></g><g class="toytree-Nodes" style="fill:rgb(40%,76.1%,64.7%);fill-opacity:1.0;stroke:rgb(0%,0%,0%);stroke-opacity:1.0;stroke-width:2"><g id="node-0" transform="translate(193.912,238.810)"><circle r="3.5" /></g><g id="node-1" transform="translate(193.912,213.436)"><circle r="3.5" /></g><g id="node-2" transform="translate(193.912,188.061)"><circle r="3.5" /></g><g id="node-3" transform="translate(193.912,162.687)"><circle r="3.5" /></g><g id="node-4" transform="translate(193.912,137.313)"><circle r="3.5" /></g><g id="node-5" transform="translate(193.912,111.939)"><circle r="3.5" /></g><g id="node-6" transform="translate(193.912,86.564)"><circle r="3.5" /></g><g id="node-7" transform="translate(193.912,61.190)"><circle r="3.5" /></g><g id="node-8" transform="translate(166.336,73.877)"><circle r="3.5" /></g><g id="node-9" transform="translate(166.336,175.374)"><circle r="3.5" /></g><g id="node-10" transform="translate(138.760,92.908)"><circle r="3.5" /></g><g id="node-11" transform="translate(138.760,194.405)"><circle r="3.5" /></g><g id="node-12" transform="translate(111.184,115.110)"><circle r="3.5" /></g><g id="node-13" transform="translate(83.608,154.758)"><circle r="3.5" /></g><g id="node-14" transform="translate(56.032,196.784)"><circle r="3.5" /></g></g><g class="toytree-TipLabels" style="fill:rgb(14.9%,14.9%,14.9%);fill-opacity:1.0;font-family:helvetica;font-size:11px;font-weight:normal;stroke:none;white-space:pre"><g transform="translate(193.91,238.81)rotate(0)"><text style="" x="15.00" y="2.81">r7</text></g><g transform="translate(193.91,213.44)rotate(0)"><text style="" x="15.00" y="2.81">r6</text></g><g transform="translate(193.91,188.06)rotate(0)"><text style="" x="15.00" y="2.81">r4</text></g><g transform="translate(193.91,162.69)rotate(0)"><text style="" x="15.00" y="2.81">r5</text></g><g transform="translate(193.91,137.31)rotate(0)"><text style="" x="15.00" y="2.81">r3</text></g><g transform="translate(193.91,111.94)rotate(0)"><text style="" x="15.00" y="2.81">r2</text></g><g transform="translate(193.91,86.56)rotate(0)"><text style="" x="15.00" y="2.81">r1</text></g><g transform="translate(193.91,61.19)rotate(0)"><text style="" x="15.00" y="2.81">r0</text></g></g></g></g></g></svg>