<svg class="toyplot-canvas-Canvas" height="300.0px" id="ta98cf50bcb90430cb9de7cb160e4c1ae" preserveAspectRatio="xMidYMid meet" style="background-color:transparent;border-color:#292724;border-style:none;border-width:1.0;fill:rgb(16.1%,15.3%,14.1%);fill-opacity:1.0;font-family:Helvetica;font-size:12px;opacity:1.0;stroke:rgb(16.1%,15.3%,14.1%);stroke-opacity:1.0;stroke-width:1.0" viewBox="0 0 320.0 300.0" width="320.0px" xmlns="http://www.w3.org/2000/svg" xmlns:toyplot="http://www.sandia.gov/toyplot" xmlns:xlink="http://www.w3.org/1999/xlink"><g class="toyplot-coordinates-Table" id="tbb330ae300e34c2ab97cc0ba5d1d17d3"><rect height="11.5625" style="fill:rgb(50.2%,50.2%,50.2%);fill-opacity:1.0;stroke:none" width="11.5625" x="50.0" y="50.0" /><rect height="11.5625" style="fill:rgb(2%,18.8%,38%);fill-opacity:1.0;stroke:none" width="11.5625" x="62.5625" y="50.0" /><rect height="11.5625" style="fill:rgb(75.1%,86.3%,92.2%);fill-opacity:1.0;stroke:none" width="11.5625" x="75.125" y="50.0" /><rect height="11.5625" style="fill:rgb(78.7%,88.2%,93.2%);fill-opacity:1.0;stroke:none" width="11.5625" x="87.6875" y="50.0" /><rect height="11.5625" style="fill:rgb(91.9%,94.5%,95.9%);fill-opacity:1.0;stroke:none" width="11.5625" x="100.25" y="50.0" /><rect height="11.5625" style="fill:rgb(97.2%,95.3%,94.1%);fill-opacity:1.0;stroke:none" width="11.5625" x="112.8125" y="50.0" /><rect height="11.5625" style="fill:rgb(98.8%,88%,81.7%);fill-opacity:1.0;stroke:none" width="11.5625" x="125.375" y="50.0" /><rect height="11.5625" style="fill:rgb(96.7%,71%,59%);fill-opacity:1.0;stroke:none" width="11.5625" x="137.9375" y="50.0" /><rect height="11.5625" style="fill:rgb(96.5%,69.7%,57.4%);fill-opacity:1.0;stroke:none" width="11.5625" x="150.5" y="50.0" /><rect height="11.5625" style="fill:rgb(96.4%,69.1%,56.7%);fill-opacity:1.0;stroke:none" width="11.5625" x="163.0625" y="50.0" /><rect height="11.5625" style="fill:rgb(77.2%,24.3%,23.9%);fill-opacity:1.0;stroke:none" width="11.5625" x="175.625" y="50.0" /><rect height="11.5625" style="fill:rgb(76.3%,22.5%,23%);fill-opacity:1.0;stroke:none" width="11.5625" x="188.1875" y="50.0" /><rect height="11.5625" style="fill:rgb(95.9%,66.2%,52.9%);fill-opacity:1.0;stroke:none" width="11.5625" x="200.75" y="50.0" /><rect height="11.5625" style="fill:rgb(97%,72.5%,60.9%);fill-opacity:1.0;stroke:none" width="11.5625" x="213.3125" y="50.0" /><rect height="11.5625" style="fill:rgb(81.4%,32.5%,27.8%);fill-opacity:1.0;stroke:none" width="11.5625" x="225.875" y="50.0" /><rect height="11.5625" style="fill:rgb(83.4%,36.5%,29.7%);fill-opacity:1.0;stroke:none" width="11.5625" x="238.4375" y="50.0" /><rect height="11.5625" style="fill:rgb(2%,18.8%,38%);fill-opacity:1.0;stroke:none" width="11.5625" x="50.0" y="62.5625" /><rect height="11.5625" style="fill:rgb(50.2%,50.2%,50.2%);fill-opacity:1.0;stroke:none" width="11.5625" x="62.5625" y="62.5625" /><rect height="11.5625" style="fill:rgb(73%,85.2%,91.6%);fill-opacity:1.0;stroke:none" width="11.5625" x="75.125" y="62.5625" /><rect height="11.5625" style="fill:rgb(67.5%,82.5%,90%);fill-opacity:1.0;stroke:none" width="11.5625" x="87.6875" y="62.5625" /><rect height="11.5625" style="fill:rgb(90.4%,93.8%,95.7%);fill-opacity:1.0;stroke:none" width="11.5625" x="100.25" y="62.5625" /><rect height="11.5625" style="fill:rgb(97.4%,94.3%,92.5%);fill-opacity:1.0;stroke:none" width="11.5625" x="112.8125" y="62.5625" /><rect height="11.5625" style="fill:rgb(99%,86.9%,79.7%);fill-opacity:1.0;stroke:none" width="11.5625" x="125.375" y="62.5625" /><rect height="11.5625" style="fill:rgb(96.7%,70.9%,58.9%);fill-opacity:1.0;stroke:none" width="11.5625" x="137.9375" y="62.5625" /><rect height="11.5625" style="fill:rgb(96.5%,69.5%,57.1%);fill-opacity:1.0;stroke:none" width="11.5625" x="150.5" y="62.5625" /><rect height="11.5625" style="fill:rgb(95.1%,63.4%,50%);fill-opacity:1.0;stroke:none" width="11.5625" x="163.0625" y="62.5625" /><rect height="11.5625" style="fill:rgb(78.6%,26.9%,25.1%);fill-opacity:1.0;stroke:none" width="11.5625" x="175.625" y="62.5625" /><rect height="11.5625" style="fill:rgb(81.1%,32.1%,27.6%);fill-opacity:1.0;stroke:none" width="11.5625" x="188.1875" y="62.5625" /><rect height="11.5625" style="fill:rgb(97.1%,73.4%,62.1%);fill-opacity:1.0;stroke:none" width="11.5625" x="200.75" y="62.5625" /><rect height="11.5625" style="fill:rgb(97.1%,73%,61.6%);fill-opacity:1.0;stroke:none" width="11.5625" x="213.3125" y="62.5625" /><rect height="11.5625" style="fill:rgb(83.1%,36%,29.4%);fill-opacity:1.0;stroke:none" width="11.5625" x="225.875" y="62.5625" /><rect height="11.5625" style="fill:rgb(85.8%,42%,33.5%);fill-opacity:1.0;stroke:none" width="11.5625" x="238.4375" y="62.5625" /><rect height="11.5625" style="fill:rgb(75.1%,86.3%,92.2%);fill-opacity:1.0;stroke:none" width="11.5625" x="50.0" y="75.125" /><rect height="11.5625" style="fill:rgb(73%,85.2%,91.6%);fill-opacity:1.0;stroke:none" width="11.5625" x="62.5625" y="75.125" /><rect height="11.5625" style="fill:rgb(50.2%,50.2%,50.2%);fill-opacity:1.0;stroke:none" width="11.5625" x="75.125" y="75.125" /><rect height="11.5625" style="fill:rgb(77.1%,87.3%,92.7%);fill-opacity:1.0;stroke:none" width="11.5625" x="87.6875" y="75.125" /><rect height="11.5625" style="fill:rgb(96.5%,69.9%,57.6%);fill-opacity:1.0;stroke:none" width="11.5625" x="100.25" y="75.125" /><rect height="11.5625" style="fill:rgb(96%,66.5%,53.3%);fill-opacity:1.0;stroke:none" width="11.5625" x="112.8125" y="75.125" /><rect height="11.5625" style="fill:rgb(83%,35.8%,29.3%);fill-opacity:1.0;stroke:none" width="11.5625" x="125.375" y="75.125" /><rect height="11.5625" style="fill:rgb(78%,25.7%,24.6%);fill-opacity:1.0;stroke:none" width="11.5625" x="137.9375" y="75.125" /><rect height="11.5625" style="fill:rgb(84.1%,38%,30.5%);fill-opacity:1.0;stroke:none" width="11.5625" x="150.5" y="75.125" /><rect height="11.5625" style="fill:rgb(80.8%,31.4%,27.2%);fill-opacity:1.0;stroke:none" width="11.5625" x="163.0625" y="75.125" /><rect height="11.5625" style="fill:rgb(49.1%,2.8%,13.6%);fill-opacity:1.0;stroke:none" width="11.5625" x="175.625" y="75.125" /><rect height="11.5625" style="fill:rgb(52.1%,3.7%,14%);fill-opacity:1.0;stroke:none" width="11.5625" x="188.1875" y="75.125" /><rect height="11.5625" style="fill:rgb(77.3%,24.5%,24%);fill-opacity:1.0;stroke:none" width="11.5625" x="200.75" y="75.125" /><rect height="11.5625" style="fill:rgb(74.7%,19.3%,21.5%);fill-opacity:1.0;stroke:none" width="11.5625" x="213.3125" y="75.125" /><rect height="11.5625" style="fill:rgb(45.1%,1.5%,12.9%);fill-opacity:1.0;stroke:none" width="11.5625" x="225.875" y="75.125" /><rect height="11.5625" style="fill:rgb(55.7%,4.9%,14.6%);fill-opacity:1.0;stroke:none" width="11.5625" x="238.4375" y="75.125" /><rect height="11.5625" style="fill:rgb(78.7%,88.2%,93.2%);fill-opacity:1.0;stroke:none" width="11.5625" x="50.0" y="87.6875" /><rect height="11.5625" style="fill:rgb(67.5%,82.5%,90%);fill-opacity:1.0;stroke:none" width="11.5625" x="62.5625" y="87.6875" /><rect height="11.5625" style="fill:rgb(77.1%,87.3%,92.7%);fill-opacity:1.0;stroke:none" width="11.5625" x="75.125" y="87.6875" /><rect height="11.5625" style="fill:rgb(50.2%,50.2%,50.2%);fill-opacity:1.0;stroke:none" width="11.5625" x="87.6875" y="87.6875" /><rect height="11.5625" style="fill:rgb(97.3%,74.5%,63.6%);fill-opacity:1.0;stroke:none" width="11.5625" x="100.25" y="87.6875" /><rect height="11.5625" style="fill:rgb(93.8%,60.4%,47.7%);fill-opacity:1.0;stroke:none" width="11.5625" x="112.8125" y="87.6875" /><rect height="11.5625" style="fill:rgb(84.2%,38.2%,30.6%);fill-opacity:1.0;stroke:none" width="11.5625" x="125.375" y="87.6875" /><rect height="11.5625" style="fill:rgb(76.9%,23.5%,23.5%);fill-opacity:1.0;stroke:none" width="11.5625" x="137.9375" y="87.6875" /><rect height="11.5625" style="fill:rgb(79.4%,28.6%,25.9%);fill-opacity:1.0;stroke:none" width="11.5625" x="150.5" y="87.6875" /><rect height="11.5625" style="fill:rgb(76.8%,23.4%,23.5%);fill-opacity:1.0;stroke:none" width="11.5625" x="163.0625" y="87.6875" /><rect height="11.5625" style="fill:rgb(44.8%,1.4%,12.9%);fill-opacity:1.0;stroke:none" width="11.5625" x="175.625" y="87.6875" /><rect height="11.5625" style="fill:rgb(49.5%,2.9%,13.6%);fill-opacity:1.0;stroke:none" width="11.5625" x="188.1875" y="87.6875" /><rect height="11.5625" style="fill:rgb(79.4%,28.6%,25.9%);fill-opacity:1.0;stroke:none" width="11.5625" x="200.75" y="87.6875" /><rect height="11.5625" style="fill:rgb(79.7%,29.1%,26.2%);fill-opacity:1.0;stroke:none" width="11.5625" x="213.3125" y="87.6875" /><rect height="11.5625" style="fill:rgb(40.4%,0%,12.2%);fill-opacity:1.0;stroke:none" width="11.5625" x="225.875" y="87.6875" /><rect height="11.5625" style="fill:rgb(56.7%,5.2%,14.8%);fill-opacity:1.0;stroke:none" width="11.5625" x="238.4375" y="87.6875" /><rect height="11.5625" style="fill:rgb(91.9%,94.5%,95.9%);fill-opacity:1.0;stroke:none" width="11.5625" x="50.0" y="100.25" /><rect height="11.5625" style="fill:rgb(90.4%,93.8%,95.7%);fill-opacity:1.0;stroke:none" width="11.5625" x="62.5625" y="100.25" /><rect height="11.5625" style="fill:rgb(96.5%,69.9%,57.6%);fill-opacity:1.0;stroke:none" width="11.5625" x="75.125" y="100.25" /><rect height="11.5625" style="fill:rgb(97.3%,74.5%,63.6%);fill-opacity:1.0;stroke:none" width="11.5625" x="87.6875" y="100.25" /><rect height="11.5625" style="fill:rgb(50.2%,50.2%,50.2%);fill-opacity:1.0;stroke:none" width="11.5625" x="100.25" y="100.25" /><rect height="11.5625" style="fill:rgb(10.1%,34.5%,59.8%);fill-opacity:1.0;stroke:none" width="11.5625" x="112.8125" y="100.25" /><rect height="11.5625" style="fill:rgb(63%,80.2%,88.7%);fill-opacity:1.0;stroke:none" width="11.5625" x="125.375" y="100.25" /><rect height="11.5625" style="fill:rgb(67.2%,82.3%,89.9%);fill-opacity:1.0;stroke:none" width="11.5625" x="137.9375" y="100.25" /><rect height="11.5625" style="fill:rgb(96.6%,69.9%,57.7%);fill-opacity:1.0;stroke:none" width="11.5625" x="150.5" y="100.25" /><rect height="11.5625" style="fill:rgb(96%,66.5%,53.3%);fill-opacity:1.0;stroke:none" width="11.5625" x="163.0625" y="100.25" /><rect height="11.5625" style="fill:rgb(75.5%,20.8%,22.2%);fill-opacity:1.0;stroke:none" width="11.5625" x="175.625" y="100.25" /><rect height="11.5625" style="fill:rgb(74.9%,19.6%,21.7%);fill-opacity:1.0;stroke:none" width="11.5625" x="188.1875" y="100.25" /><rect height="11.5625" style="fill:rgb(93.8%,60.4%,47.7%);fill-opacity:1.0;stroke:none" width="11.5625" x="200.75" y="100.25" /><rect height="11.5625" style="fill:rgb(93.7%,60.1%,47.5%);fill-opacity:1.0;stroke:none" width="11.5625" x="213.3125" y="100.25" /><rect height="11.5625" style="fill:rgb(77%,23.7%,23.6%);fill-opacity:1.0;stroke:none" width="11.5625" x="225.875" y="100.25" /><rect height="11.5625" style="fill:rgb(81.8%,33.5%,28.2%);fill-opacity:1.0;stroke:none" width="11.5625" x="238.4375" y="100.25" /><rect height="11.5625" style="fill:rgb(97.2%,95.3%,94.1%);fill-opacity:1.0;stroke:none" width="11.5625" x="50.0" y="112.8125" /><rect height="11.5625" style="fill:rgb(97.4%,94.3%,92.5%);fill-opacity:1.0;stroke:none" width="11.5625" x="62.5625" y="112.8125" /><rect height="11.5625" style="fill:rgb(96%,66.5%,53.3%);fill-opacity:1.0;stroke:none" width="11.5625" x="75.125" y="112.8125" /><rect height="11.5625" style="fill:rgb(93.8%,60.4%,47.7%);fill-opacity:1.0;stroke:none" width="11.5625" x="87.6875" y="112.8125" /><rect height="11.5625" style="fill:rgb(10.1%,34.5%,59.8%);fill-opacity:1.0;stroke:none" width="11.5625" x="100.25" y="112.8125" /><rect height="11.5625" style="fill:rgb(50.2%,50.2%,50.2%);fill-opacity:1.0;stroke:none" width="11.5625" x="112.8125" y="112.8125" /><rect height="11.5625" style="fill:rgb(58.2%,77.7%,87.3%);fill-opacity:1.0;stroke:none" width="11.5625" x="125.375" y="112.8125" /><rect height="11.5625" style="fill:rgb(75.9%,86.7%,92.4%);fill-opacity:1.0;stroke:none" width="11.5625" x="137.9375" y="112.8125" /><rect height="11.5625" style="fill:rgb(93.8%,60.4%,47.7%);fill-opacity:1.0;stroke:none" width="11.5625" x="150.5" y="112.8125" /><rect height="11.5625" style="fill:rgb(94%,60.9%,48.1%);fill-opacity:1.0;stroke:none" width="11.5625" x="163.0625" y="112.8125" /><rect height="11.5625" style="fill:rgb(75%,19.7%,21.7%);fill-opacity:1.0;stroke:none" width="11.5625" x="175.625" y="112.8125" /><rect height="11.5625" style="fill:rgb(75.3%,20.5%,22.1%);fill-opacity:1.0;stroke:none" width="11.5625" x="188.1875" y="112.8125" /><rect height="11.5625" style="fill:rgb(93.1%,58.8%,46.5%);fill-opacity:1.0;stroke:none" width="11.5625" x="200.75" y="112.8125" /><rect height="11.5625" style="fill:rgb(93.9%,60.5%,47.8%);fill-opacity:1.0;stroke:none" width="11.5625" x="213.3125" y="112.8125" /><rect height="11.5625" style="fill:rgb(75.4%,20.6%,22.1%);fill-opacity:1.0;stroke:none" width="11.5625" x="225.875" y="112.8125" /><rect height="11.5625" style="fill:rgb(83.8%,37.5%,30.1%);fill-opacity:1.0;stroke:none" width="11.5625" x="238.4375" y="112.8125" /><rect height="11.5625" style="fill:rgb(98.8%,88%,81.7%);fill-opacity:1.0;stroke:none" width="11.5625" x="50.0" y="125.375" /><rect height="11.5625" style="fill:rgb(99%,86.9%,79.7%);fill-opacity:1.0;stroke:none" width="11.5625" x="62.5625" y="125.375" /><rect height="11.5625" style="fill:rgb(83%,35.8%,29.3%);fill-opacity:1.0;stroke:none" width="11.5625" x="75.125" y="125.375" /><rect height="11.5625" style="fill:rgb(84.2%,38.2%,30.6%);fill-opacity:1.0;stroke:none" width="11.5625" x="87.6875" y="125.375" /><rect height="11.5625" style="fill:rgb(63%,80.2%,88.7%);fill-opacity:1.0;stroke:none" width="11.5625" x="100.25" y="125.375" /><rect height="11.5625" style="fill:rgb(58.2%,77.7%,87.3%);fill-opacity:1.0;stroke:none" width="11.5625" x="112.8125" y="125.375" /><rect height="11.5625" style="fill:rgb(50.2%,50.2%,50.2%);fill-opacity:1.0;stroke:none" width="11.5625" x="125.375" y="125.375" /><rect height="11.5625" style="fill:rgb(42.6%,68%,82.1%);fill-opacity:1.0;stroke:none" width="11.5625" x="137.9375" y="125.375" /><rect height="11.5625" style="fill:rgb(86.4%,43.3%,34.5%);fill-opacity:1.0;stroke:none" width="11.5625" x="150.5" y="125.375" /><rect height="11.5625" style="fill:rgb(83.9%,37.7%,30.2%);fill-opacity:1.0;stroke:none" width="11.5625" x="163.0625" y="125.375" /><rect height="11.5625" style="fill:rgb(52%,3.7%,14%);fill-opacity:1.0;stroke:none" width="11.5625" x="175.625" y="125.375" /><rect height="11.5625" style="fill:rgb(56.1%,5%,14.7%);fill-opacity:1.0;stroke:none" width="11.5625" x="188.1875" y="125.375" /><rect height="11.5625" style="fill:rgb(81.6%,32.9%,28%);fill-opacity:1.0;stroke:none" width="11.5625" x="200.75" y="125.375" /><rect height="11.5625" style="fill:rgb(78.8%,27.3%,25.3%);fill-opacity:1.0;stroke:none" width="11.5625" x="213.3125" y="125.375" /><rect height="11.5625" style="fill:rgb(49.3%,2.9%,13.6%);fill-opacity:1.0;stroke:none" width="11.5625" x="225.875" y="125.375" /><rect height="11.5625" style="fill:rgb(65.2%,7.9%,16.1%);fill-opacity:1.0;stroke:none" width="11.5625" x="238.4375" y="125.375" /><rect height="11.5625" style="fill:rgb(96.7%,71%,59%);fill-opacity:1.0;stroke:none" width="11.5625" x="50.0" y="137.9375" /><rect height="11.5625" style="fill:rgb(96.7%,70.9%,58.9%);fill-opacity:1.0;stroke:none" width="11.5625" x="62.5625" y="137.9375" /><rect height="11.5625" style="fill:rgb(78%,25.7%,24.6%);fill-opacity:1.0;stroke:none" width="11.5625" x="75.125" y="137.9375" /><rect height="11.5625" style="fill:rgb(76.9%,23.5%,23.5%);fill-opacity:1.0;stroke:none" width="11.5625" x="87.6875" y="137.9375" /><rect height="11.5625" style="fill:rgb(67.2%,82.3%,89.9%);fill-opacity:1.0;stroke:none" width="11.5625" x="100.25" y="137.9375" /><rect height="11.5625" style="fill:rgb(75.9%,86.7%,92.4%);fill-opacity:1.0;stroke:none" width="11.5625" x="112.8125" y="137.9375" /><rect height="11.5625" style="fill:rgb(42.6%,68%,82.1%);fill-opacity:1.0;stroke:none" width="11.5625" x="125.375" y="137.9375" /><rect height="11.5625" style="fill:rgb(50.2%,50.2%,50.2%);fill-opacity:1.0;stroke:none" width="11.5625" x="137.9375" y="137.9375" /><rect height="11.5625" style="fill:rgb(77.8%,25.4%,24.4%);fill-opacity:1.0;stroke:none" width="11.5625" x="150.5" y="137.9375" /><rect height="11.5625" style="fill:rgb(79.6%,28.9%,26.1%);fill-opacity:1.0;stroke:none" width="11.5625" x="163.0625" y="137.9375" /><rect height="11.5625" style="fill:rgb(42.4%,0.6%,12.5%);fill-opacity:1.0;stroke:none" width="11.5625" x="175.625" y="137.9375" /><rect height="11.5625" style="fill:rgb(41.2%,0.2%,12.3%);fill-opacity:1.0;stroke:none" width="11.5625" x="188.1875" y="137.9375" /><rect height="11.5625" style="fill:rgb(76.6%,23.1%,23.3%);fill-opacity:1.0;stroke:none" width="11.5625" x="200.75" y="137.9375" /><rect height="11.5625" style="fill:rgb(75.9%,21.5%,22.6%);fill-opacity:1.0;stroke:none" width="11.5625" x="213.3125" y="137.9375" /><rect height="11.5625" style="fill:rgb(40.6%,0.1%,12.2%);fill-opacity:1.0;stroke:none" width="11.5625" x="225.875" y="137.9375" /><rect height="11.5625" style="fill:rgb(53.8%,4.3%,14.3%);fill-opacity:1.0;stroke:none" width="11.5625" x="238.4375" y="137.9375" /><rect height="11.5625" style="fill:rgb(96.5%,69.7%,57.4%);fill-opacity:1.0;stroke:none" width="11.5625" x="50.0" y="150.5" /><rect height="11.5625" style="fill:rgb(96.5%,69.5%,57.1%);fill-opacity:1.0;stroke:none" width="11.5625" x="62.5625" y="150.5" /><rect height="11.5625" style="fill:rgb(84.1%,38%,30.5%);fill-opacity:1.0;stroke:none" width="11.5625" x="75.125" y="150.5" /><rect height="11.5625" style="fill:rgb(79.4%,28.6%,25.9%);fill-opacity:1.0;stroke:none" width="11.5625" x="87.6875" y="150.5" /><rect height="11.5625" style="fill:rgb(96.6%,69.9%,57.7%);fill-opacity:1.0;stroke:none" width="11.5625" x="100.25" y="150.5" /><rect height="11.5625" style="fill:rgb(93.8%,60.4%,47.7%);fill-opacity:1.0;stroke:none" width="11.5625" x="112.8125" y="150.5" /><rect height="11.5625" style="fill:rgb(86.4%,43.3%,34.5%);fill-opacity:1.0;stroke:none" width="11.5625" x="125.375" y="150.5" /><rect height="11.5625" style="fill:rgb(77.8%,25.4%,24.4%);fill-opacity:1.0;stroke:none" width="11.5625" x="137.9375" y="150.5" /><rect height="11.5625" style="fill:rgb(50.2%,50.2%,50.2%);fill-opacity:1.0;stroke:none" width="11.5625" x="150.5" y="150.5" /><rect height="11.5625" style="fill:rgb(2.9%,20.6%,40.5%);fill-opacity:1.0;stroke:none" width="11.5625" x="163.0625" y="150.5" /><rect height="11.5625" style="fill:rgb(27.9%,58.6%,77%);fill-opacity:1.0;stroke:none" width="11.5625" x="175.625" y="150.5" /><rect height="11.5625" style="fill:rgb(62.2%,79.8%,88.5%);fill-opacity:1.0;stroke:none" width="11.5625" x="188.1875" y="150.5" /><rect height="11.5625" style="fill:rgb(92.4%,94.7%,96%);fill-opacity:1.0;stroke:none" width="11.5625" x="200.75" y="150.5" /><rect height="11.5625" style="fill:rgb(90.3%,93.8%,95.7%);fill-opacity:1.0;stroke:none" width="11.5625" x="213.3125" y="150.5" /><rect height="11.5625" style="fill:rgb(98%,78.5%,68.6%);fill-opacity:1.0;stroke:none" width="11.5625" x="225.875" y="150.5" /><rect height="11.5625" style="fill:rgb(98.6%,88.6%,82.6%);fill-opacity:1.0;stroke:none" width="11.5625" x="238.4375" y="150.5" /><rect height="11.5625" style="fill:rgb(96.4%,69.1%,56.7%);fill-opacity:1.0;stroke:none" width="11.5625" x="50.0" y="163.0625" /><rect height="11.5625" style="fill:rgb(95.1%,63.4%,50%);fill-opacity:1.0;stroke:none" width="11.5625" x="62.5625" y="163.0625" /><rect height="11.5625" style="fill:rgb(80.8%,31.4%,27.2%);fill-opacity:1.0;stroke:none" width="11.5625" x="75.125" y="163.0625" /><rect height="11.5625" style="fill:rgb(76.8%,23.4%,23.5%);fill-opacity:1.0;stroke:none" width="11.5625" x="87.6875" y="163.0625" /><rect height="11.5625" style="fill:rgb(96%,66.5%,53.3%);fill-opacity:1.0;stroke:none" width="11.5625" x="100.25" y="163.0625" /><rect height="11.5625" style="fill:rgb(94%,60.9%,48.1%);fill-opacity:1.0;stroke:none" width="11.5625" x="112.8125" y="163.0625" /><rect height="11.5625" style="fill:rgb(83.9%,37.7%,30.2%);fill-opacity:1.0;stroke:none" width="11.5625" x="125.375" y="163.0625" /><rect height="11.5625" style="fill:rgb(79.6%,28.9%,26.1%);fill-opacity:1.0;stroke:none" width="11.5625" x="137.9375" y="163.0625" /><rect height="11.5625" style="fill:rgb(2.9%,20.6%,40.5%);fill-opacity:1.0;stroke:none" width="11.5625" x="150.5" y="163.0625" /><rect height="11.5625" style="fill:rgb(50.2%,50.2%,50.2%);fill-opacity:1.0;stroke:none" width="11.5625" x="163.0625" y="163.0625" /><rect height="11.5625" style="fill:rgb(44.2%,69%,82.6%);fill-opacity:1.0;stroke:none" width="11.5625" x="175.625" y="163.0625" /><rect height="11.5625" style="fill:rgb(73.1%,85.3%,91.6%);fill-opacity:1.0;stroke:none" width="11.5625" x="188.1875" y="163.0625" /><rect height="11.5625" style="fill:rgb(97.4%,94.4%,92.6%);fill-opacity:1.0;stroke:none" width="11.5625" x="200.75" y="163.0625" /><rect height="11.5625" style="fill:rgb(95.6%,96.3%,96.6%);fill-opacity:1.0;stroke:none" width="11.5625" x="213.3125" y="163.0625" /><rect height="11.5625" style="fill:rgb(95.9%,65.7%,52.3%);fill-opacity:1.0;stroke:none" width="11.5625" x="225.875" y="163.0625" /><rect height="11.5625" style="fill:rgb(96.7%,70.8%,58.8%);fill-opacity:1.0;stroke:none" width="11.5625" x="238.4375" y="163.0625" /><rect height="11.5625" style="fill:rgb(77.2%,24.3%,23.9%);fill-opacity:1.0;stroke:none" width="11.5625" x="50.0" y="175.625" /><rect height="11.5625" style="fill:rgb(78.6%,26.9%,25.1%);fill-opacity:1.0;stroke:none" width="11.5625" x="62.5625" y="175.625" /><rect height="11.5625" style="fill:rgb(49.1%,2.8%,13.6%);fill-opacity:1.0;stroke:none" width="11.5625" x="75.125" y="175.625" /><rect height="11.5625" style="fill:rgb(44.8%,1.4%,12.9%);fill-opacity:1.0;stroke:none" width="11.5625" x="87.6875" y="175.625" /><rect height="11.5625" style="fill:rgb(75.5%,20.8%,22.2%);fill-opacity:1.0;stroke:none" width="11.5625" x="100.25" y="175.625" /><rect height="11.5625" style="fill:rgb(75%,19.7%,21.7%);fill-opacity:1.0;stroke:none" width="11.5625" x="112.8125" y="175.625" /><rect height="11.5625" style="fill:rgb(52%,3.7%,14%);fill-opacity:1.0;stroke:none" width="11.5625" x="125.375" y="175.625" /><rect height="11.5625" style="fill:rgb(42.4%,0.6%,12.5%);fill-opacity:1.0;stroke:none" width="11.5625" x="137.9375" y="175.625" /><rect height="11.5625" style="fill:rgb(27.9%,58.6%,77%);fill-opacity:1.0;stroke:none" width="11.5625" x="150.5" y="175.625" /><rect height="11.5625" style="fill:rgb(44.2%,69%,82.6%);fill-opacity:1.0;stroke:none" width="11.5625" x="163.0625" y="175.625" /><rect height="11.5625" style="fill:rgb(50.2%,50.2%,50.2%);fill-opacity:1.0;stroke:none" width="11.5625" x="175.625" y="175.625" /><rect height="11.5625" style="fill:rgb(33.5%,62.2%,79%);fill-opacity:1.0;stroke:none" width="11.5625" x="188.1875" y="175.625" /><rect height="11.5625" style="fill:rgb(97.9%,78%,68%);fill-opacity:1.0;stroke:none" width="11.5625" x="200.75" y="175.625" /><rect height="11.5625" style="fill:rgb(98%,78.4%,68.5%);fill-opacity:1.0;stroke:none" width="11.5625" x="213.3125" y="175.625" /><rect height="11.5625" style="fill:rgb(78.6%,26.9%,25.1%);fill-opacity:1.0;stroke:none" width="11.5625" x="225.875" y="175.625" /><rect height="11.5625" style="fill:rgb(84.3%,38.5%,30.9%);fill-opacity:1.0;stroke:none" width="11.5625" x="238.4375" y="175.625" /><rect height="11.5625" style="fill:rgb(76.3%,22.5%,23%);fill-opacity:1.0;stroke:none" width="11.5625" x="50.0" y="188.1875" /><rect height="11.5625" style="fill:rgb(81.1%,32.1%,27.6%);fill-opacity:1.0;stroke:none" width="11.5625" x="62.5625" y="188.1875" /><rect height="11.5625" style="fill:rgb(52.1%,3.7%,14%);fill-opacity:1.0;stroke:none" width="11.5625" x="75.125" y="188.1875" /><rect height="11.5625" style="fill:rgb(49.5%,2.9%,13.6%);fill-opacity:1.0;stroke:none" width="11.5625" x="87.6875" y="188.1875" /><rect height="11.5625" style="fill:rgb(74.9%,19.6%,21.7%);fill-opacity:1.0;stroke:none" width="11.5625" x="100.25" y="188.1875" /><rect height="11.5625" style="fill:rgb(75.3%,20.5%,22.1%);fill-opacity:1.0;stroke:none" width="11.5625" x="112.8125" y="188.1875" /><rect height="11.5625" style="fill:rgb(56.1%,5%,14.7%);fill-opacity:1.0;stroke:none" width="11.5625" x="125.375" y="188.1875" /><rect height="11.5625" style="fill:rgb(41.2%,0.2%,12.3%);fill-opacity:1.0;stroke:none" width="11.5625" x="137.9375" y="188.1875" /><rect height="11.5625" style="fill:rgb(62.2%,79.8%,88.5%);fill-opacity:1.0;stroke:none" width="11.5625" x="150.5" y="188.1875" /><rect height="11.5625" style="fill:rgb(73.1%,85.3%,91.6%);fill-opacity:1.0;stroke:none" width="11.5625" x="163.0625" y="188.1875" /><rect height="11.5625" style="fill:rgb(33.5%,62.2%,79%);fill-opacity:1.0;stroke:none" width="11.5625" x="175.625" y="188.1875" /><rect height="11.5625" style="fill:rgb(50.2%,50.2%,50.2%);fill-opacity:1.0;stroke:none" width="11.5625" x="188.1875" y="188.1875" /><rect height="11.5625" style="fill:rgb(96%,66.7%,53.5%);fill-opacity:1.0;stroke:none" width="11.5625" x="200.75" y="188.1875" /><rect height="11.5625" style="fill:rgb(97.3%,74.2%,63.1%);fill-opacity:1.0;stroke:none" width="11.5625" x="213.3125" y="188.1875" /><rect height="11.5625" style="fill:rgb(72.1%,14.1%,19.1%);fill-opacity:1.0;stroke:none" width="11.5625" x="225.875" y="188.1875" /><rect height="11.5625" style="fill:rgb(78.8%,27.4%,25.4%);fill-opacity:1.0;stroke:none" width="11.5625" x="238.4375" y="188.1875" /><rect height="11.5625" style="fill:rgb(95.9%,66.2%,52.9%);fill-opacity:1.0;stroke:none" width="11.5625" x="50.0" y="200.75" /><rect height="11.5625" style="fill:rgb(97.1%,73.4%,62.1%);fill-opacity:1.0;stroke:none" width="11.5625" x="62.5625" y="200.75" /><rect height="11.5625" style="fill:rgb(77.3%,24.5%,24%);fill-opacity:1.0;stroke:none" width="11.5625" x="75.125" y="200.75" /><rect height="11.5625" style="fill:rgb(79.4%,28.6%,25.9%);fill-opacity:1.0;stroke:none" width="11.5625" x="87.6875" y="200.75" /><rect height="11.5625" style="fill:rgb(93.8%,60.4%,47.7%);fill-opacity:1.0;stroke:none" width="11.5625" x="100.25" y="200.75" /><rect height="11.5625" style="fill:rgb(93.1%,58.8%,46.5%);fill-opacity:1.0;stroke:none" width="11.5625" x="112.8125" y="200.75" /><rect height="11.5625" style="fill:rgb(81.6%,32.9%,28%);fill-opacity:1.0;stroke:none" width="11.5625" x="125.375" y="200.75" /><rect height="11.5625" style="fill:rgb(76.6%,23.1%,23.3%);fill-opacity:1.0;stroke:none" width="11.5625" x="137.9375" y="200.75" /><rect height="11.5625" style="fill:rgb(92.4%,94.7%,96%);fill-opacity:1.0;stroke:none" width="11.5625" x="150.5" y="200.75" /><rect height="11.5625" style="fill:rgb(97.4%,94.4%,92.6%);fill-opacity:1.0;stroke:none" width="11.5625" x="163.0625" y="200.75" /><rect height="11.5625" style="fill:rgb(97.9%,78%,68%);fill-opacity:1.0;stroke:none" width="11.5625" x="175.625" y="200.75" /><rect height="11.5625" style="fill:rgb(96%,66.7%,53.5%);fill-opacity:1.0;stroke:none" width="11.5625" x="188.1875" y="200.75" /><rect height="11.5625" style="fill:rgb(50.2%,50.2%,50.2%);fill-opacity:1.0;stroke:none" width="11.5625" x="200.75" y="200.75" /><rect height="11.5625" style="fill:rgb(21.8%,51.7%,73.4%);fill-opacity:1.0;stroke:none" width="11.5625" x="213.3125" y="200.75" /><rect height="11.5625" style="fill:rgb(94.2%,95.6%,96.4%);fill-opacity:1.0;stroke:none" width="11.5625" x="225.875" y="200.75" /><rect height="11.5625" style="fill:rgb(91.2%,94.2%,95.8%);fill-opacity:1.0;stroke:none" width="11.5625" x="238.4375" y="200.75" /><rect height="11.5625" style="fill:rgb(97%,72.5%,60.9%);fill-opacity:1.0;stroke:none" width="11.5625" x="50.0" y="213.3125" /><rect height="11.5625" style="fill:rgb(97.1%,73%,61.6%);fill-opacity:1.0;stroke:none" width="11.5625" x="62.5625" y="213.3125" /><rect height="11.5625" style="fill:rgb(74.7%,19.3%,21.5%);fill-opacity:1.0;stroke:none" width="11.5625" x="75.125" y="213.3125" /><rect height="11.5625" style="fill:rgb(79.7%,29.1%,26.2%);fill-opacity:1.0;stroke:none" width="11.5625" x="87.6875" y="213.3125" /><rect height="11.5625" style="fill:rgb(93.7%,60.1%,47.5%);fill-opacity:1.0;stroke:none" width="11.5625" x="100.25" y="213.3125" /><rect height="11.5625" style="fill:rgb(93.9%,60.5%,47.8%);fill-opacity:1.0;stroke:none" width="11.5625" x="112.8125" y="213.3125" /><rect height="11.5625" style="fill:rgb(78.8%,27.3%,25.3%);fill-opacity:1.0;stroke:none" width="11.5625" x="125.375" y="213.3125" /><rect height="11.5625" style="fill:rgb(75.9%,21.5%,22.6%);fill-opacity:1.0;stroke:none" width="11.5625" x="137.9375" y="213.3125" /><rect height="11.5625" style="fill:rgb(90.3%,93.8%,95.7%);fill-opacity:1.0;stroke:none" width="11.5625" x="150.5" y="213.3125" /><rect height="11.5625" style="fill:rgb(95.6%,96.3%,96.6%);fill-opacity:1.0;stroke:none" width="11.5625" x="163.0625" y="213.3125" /><rect height="11.5625" style="fill:rgb(98%,78.4%,68.5%);fill-opacity:1.0;stroke:none" width="11.5625" x="175.625" y="213.3125" /><rect height="11.5625" style="fill:rgb(97.3%,74.2%,63.1%);fill-opacity:1.0;stroke:none" width="11.5625" x="188.1875" y="213.3125" /><rect height="11.5625" style="fill:rgb(21.8%,51.7%,73.4%);fill-opacity:1.0;stroke:none" width="11.5625" x="200.75" y="213.3125" /><rect height="11.5625" style="fill:rgb(50.2%,50.2%,50.2%);fill-opacity:1.0;stroke:none" width="11.5625" x="213.3125" y="213.3125" /><rect height="11.5625" style="fill:rgb(98.1%,91%,86.8%);fill-opacity:1.0;stroke:none" width="11.5625" x="225.875" y="213.3125" /><rect height="11.5625" style="fill:rgb(88.8%,93.1%,95.4%);fill-opacity:1.0;stroke:none" width="11.5625" x="238.4375" y="213.3125" /><rect height="11.5625" style="fill:rgb(81.4%,32.5%,27.8%);fill-opacity:1.0;stroke:none" width="11.5625" x="50.0" y="225.875" /><rect height="11.5625" style="fill:rgb(83.1%,36%,29.4%);fill-opacity:1.0;stroke:none" width="11.5625" x="62.5625" y="225.875" /><rect height="11.5625" style="fill:rgb(45.1%,1.5%,12.9%);fill-opacity:1.0;stroke:none" width="11.5625" x="75.125" y="225.875" /><rect height="11.5625" style="fill:rgb(40.4%,0%,12.2%);fill-opacity:1.0;stroke:none" width="11.5625" x="87.6875" y="225.875" /><rect height="11.5625" style="fill:rgb(77%,23.7%,23.6%);fill-opacity:1.0;stroke:none" width="11.5625" x="100.25" y="225.875" /><rect height="11.5625" style="fill:rgb(75.4%,20.6%,22.1%);fill-opacity:1.0;stroke:none" width="11.5625" x="112.8125" y="225.875" /><rect height="11.5625" style="fill:rgb(49.3%,2.9%,13.6%);fill-opacity:1.0;stroke:none" width="11.5625" x="125.375" y="225.875" /><rect height="11.5625" style="fill:rgb(40.6%,0.1%,12.2%);fill-opacity:1.0;stroke:none" width="11.5625" x="137.9375" y="225.875" /><rect height="11.5625" style="fill:rgb(98%,78.5%,68.6%);fill-opacity:1.0;stroke:none" width="11.5625" x="150.5" y="225.875" /><rect height="11.5625" style="fill:rgb(95.9%,65.7%,52.3%);fill-opacity:1.0;stroke:none" width="11.5625" x="163.0625" y="225.875" /><rect height="11.5625" style="fill:rgb(78.6%,26.9%,25.1%);fill-opacity:1.0;stroke:none" width="11.5625" x="175.625" y="225.875" /><rect height="11.5625" style="fill:rgb(72.1%,14.1%,19.1%);fill-opacity:1.0;stroke:none" width="11.5625" x="188.1875" y="225.875" /><rect height="11.5625" style="fill:rgb(94.2%,95.6%,96.4%);fill-opacity:1.0;stroke:none" width="11.5625" x="200.75" y="225.875" /><rect height="11.5625" style="fill:rgb(98.1%,91%,86.8%);fill-opacity:1.0;stroke:none" width="11.5625" x="213.3125" y="225.875" /><rect height="11.5625" style="fill:rgb(50.2%,50.2%,50.2%);fill-opacity:1.0;stroke:none" width="11.5625" x="225.875" y="225.875" /><rect height="11.5625" style="fill:rgb(85.4%,91.5%,94.8%);fill-opacity:1.0;stroke:none" width="11.5625" x="238.4375" y="225.875" /><rect height="11.5625" style="fill:rgb(83.4%,36.5%,29.7%);fill-opacity:1.0;stroke:none" width="11.5625" x="50.0" y="238.4375" /><rect height="11.5625" style="fill:rgb(85.8%,42%,33.5%);fill-opacity:1.0;stroke:none" width="11.5625" x="62.5625" y="238.4375" /><rect height="11.5625" style="fill:rgb(55.7%,4.9%,14.6%);fill-opacity:1.0;stroke:none" width="11.5625" x="75.125" y="238.4375" /><rect height="11.5625" style="fill:rgb(56.7%,5.2%,14.8%);fill-opacity:1.0;stroke:none" width="11.5625" x="87.6875" y="238.4375" /><rect height="11.5625" style="fill:rgb(81.8%,33.5%,28.2%);fill-opacity:1.0;stroke:none" width="11.5625" x="100.25" y="238.4375" /><rect height="11.5625" style="fill:rgb(83.8%,37.5%,30.1%);fill-opacity:1.0;stroke:none" width="11.5625" x="112.8125" y="238.4375" /><rect height="11.5625" style="fill:rgb(65.2%,7.9%,16.1%);fill-opacity:1.0;stroke:none" width="11.5625" x="125.375" y="238.4375" /><rect height="11.5625" style="fill:rgb(53.8%,4.3%,14.3%);fill-opacity:1.0;stroke:none" width="11.5625" x="137.9375" y="238.4375" /><rect height="11.5625" style="fill:rgb(98.6%,88.6%,82.6%);fill-opacity:1.0;stroke:none" width="11.5625" x="150.5" y="238.4375" /><rect height="11.5625" style="fill:rgb(96.7%,70.8%,58.8%);fill-opacity:1.0;stroke:none" width="11.5625" x="163.0625" y="238.4375" /><rect height="11.5625" style="fill:rgb(84.3%,38.5%,30.9%);fill-opacity:1.0;stroke:none" width="11.5625" x="175.625" y="238.4375" /><rect height="11.5625" style="fill:rgb(78.8%,27.4%,25.4%);fill-opacity:1.0;stroke:none" width="11.5625" x="188.1875" y="238.4375" /><rect height="11.5625" style="fill:rgb(91.2%,94.2%,95.8%);fill-opacity:1.0;stroke:none" width="11.5625" x="200.75" y="238.4375" /><rect height="11.5625" style="fill:rgb(88.8%,93.1%,95.4%);fill-opacity:1.0;stroke:none" width="11.5625" x="213.3125" y="238.4375" /><rect height="11.5625" style="fill:rgb(85.4%,91.5%,94.8%);fill-opacity:1.0;stroke:none" width="11.5625" x="225.875" y="238.4375" /><rect height="11.5625" style="fill:rgb(50.2%,50.2%,50.2%);fill-opacity:1.0;stroke:none" width="11.5625" x="238.4375" y="238.4375" /></g><g class="toyplot-coordinates-Numberline" id="t5e800bb48f934493a998fb292beb5c19"><clipPath id="tf05008e7223c4e0987ef2bc8d2abb158"><rect height="40.0" width="200.0" x="0" y="-20.0" /></clipPath><g clip-path="url(#tf05008e7223c4e0987ef2bc8d2abb158)" transform="translate(270.0,250.0)rotate(-90.0)"><g class="toyplot-color-Map" id="t5f147b7eaaad4edaa3c53c70a9efb43d"><defs><linearGradient gradientUnits="userSpaceOnUse" id="tcb4f874e0899429fa4914db763c43ce2" x1="0.0" x2="200.0" y1="0" y2="0"><stop offset="0.0" stop-color="rgb(1.96%,18.8%,38%)" stop-opacity="1.0" /><stop offset="0.015873015873015966" stop-color="rgb(3.7%,22.2%,42.7%)" stop-opacity="1.0" /><stop offset="0.031746031746031696" stop-color="rgb(5.45%,25.5%,47.4%)" stop-opacity="1.0" /><stop offset="0.047619047619047665" stop-color="rgb(7.19%,28.9%,52%)" stop-opacity="1.0" /><stop offset="0.06349206349206339" stop-color="rgb(8.93%,32.3%,56.7%)" stop-opacity="1.0" /><stop offset="0.07936507936507936" stop-color="rgb(10.7%,35.6%,61.4%)" stop-opacity="1.0" /><stop offset="0.09523809523809533" stop-color="rgb(12.4%,39%,66.1%)" stop-opacity="1.0" /><stop offset="0.11111111111111108" stop-color="rgb(14.4%,42%,68.5%)" stop-opacity="1.0" /><stop offset="0.12698412698412703" stop-color="rgb(16.5%,44.8%,69.9%)" stop-opacity="1.0" /><stop offset="0.14285714285714277" stop-color="rgb(18.7%,47.6%,71.3%)" stop-opacity="1.0" /><stop offset="0.15873015873015872" stop-color="rgb(20.8%,50.4%,72.7%)" stop-opacity="1.0" /><stop offset="0.1746031746031747" stop-color="rgb(22.9%,53.2%,74.2%)" stop-opacity="1.0" /><stop offset="0.1904761904761904" stop-color="rgb(25%,56%,75.6%)" stop-opacity="1.0" /><stop offset="0.2063492063492064" stop-color="rgb(28.2%,58.9%,77.1%)" stop-opacity="1.0" /><stop offset="0.22222222222222215" stop-color="rgb(33.2%,62%,78.8%)" stop-opacity="1.0" /><stop offset="0.23809523809523805" stop-color="rgb(38.1%,65.1%,80.5%)" stop-opacity="1.0" /><stop offset="0.25396825396825407" stop-color="rgb(43%,68.2%,82.2%)" stop-opacity="1.0" /><stop offset="0.26984126984126977" stop-color="rgb(47.9%,71.3%,83.9%)" stop-opacity="1.0" /><stop offset="0.28571428571428575" stop-color="rgb(52.8%,74.5%,85.5%)" stop-opacity="1.0" /><stop offset="0.30158730158730174" stop-color="rgb(57.6%,77.5%,87.2%)" stop-opacity="1.0" /><stop offset="0.31746031746031744" stop-color="rgb(61.6%,79.4%,88.3%)" stop-opacity="1.0" /><stop offset="0.3333333333333334" stop-color="rgb(65.5%,81.4%,89.4%)" stop-opacity="1.0" /><stop offset="0.3492063492063491" stop-color="rgb(69.4%,83.4%,90.5%)" stop-opacity="1.0" /><stop offset="0.3650793650793651" stop-color="rgb(73.3%,85.4%,91.7%)" stop-opacity="1.0" /><stop offset="0.3809523809523811" stop-color="rgb(77.3%,87.4%,92.8%)" stop-opacity="1.0" /><stop offset="0.39682539682539686" stop-color="rgb(81.2%,89.4%,93.9%)" stop-opacity="1.0" /><stop offset="0.4126984126984128" stop-color="rgb(83.9%,90.7%,94.5%)" stop-opacity="1.0" /><stop offset="0.4285714285714285" stop-color="rgb(86.2%,91.8%,94.9%)" stop-opacity="1.0" /><stop offset="0.4444444444444445" stop-color="rgb(88.6%,92.9%,95.3%)" stop-opacity="1.0" /><stop offset="0.46031746031746046" stop-color="rgb(90.9%,94.1%,95.8%)" stop-opacity="1.0" /><stop offset="0.4761904761904761" stop-color="rgb(93.3%,95.2%,96.2%)" stop-opacity="1.0" /><stop offset="0.49206349206349215" stop-color="rgb(95.7%,96.3%,96.6%)" stop-opacity="1.0" /><stop offset="0.5079365079365079" stop-color="rgb(97%,96%,95.4%)" stop-opacity="1.0" /><stop offset="0.5238095238095238" stop-color="rgb(97.4%,94.2%,92.4%)" stop-opacity="1.0" /><stop offset="0.5396825396825398" stop-color="rgb(97.8%,92.5%,89.4%)" stop-opacity="1.0" /><stop offset="0.5555555555555556" stop-color="rgb(98.2%,90.8%,86.4%)" stop-opacity="1.0" /><stop offset="0.5714285714285713" stop-color="rgb(98.5%,89%,83.4%)" stop-opacity="1.0" /><stop offset="0.5873015873015872" stop-color="rgb(98.9%,87.3%,80.4%)" stop-opacity="1.0" /><stop offset="0.6031746031746031" stop-color="rgb(99.1%,85.2%,77.2%)" stop-opacity="1.0" /><stop offset="0.6190476190476192" stop-color="rgb(98.5%,81.8%,72.9%)" stop-opacity="1.0" /><stop offset="0.6349206349206349" stop-color="rgb(98%,78.5%,68.6%)" stop-opacity="1.0" /><stop offset="0.6507936507936506" stop-color="rgb(97.4%,75.1%,64.3%)" stop-opacity="1.0" /><stop offset="0.6666666666666665" stop-color="rgb(96.9%,71.8%,60%)" stop-opacity="1.0" /><stop offset="0.6825396825396826" stop-color="rgb(96.3%,68.4%,55.7%)" stop-opacity="1.0" /><stop offset="0.6984126984126985" stop-color="rgb(95.7%,65%,51.4%)" stop-opacity="1.0" /><stop offset="0.7142857142857143" stop-color="rgb(94%,60.8%,48%)" stop-opacity="1.0" /><stop offset="0.73015873015873" stop-color="rgb(92.1%,56.5%,44.7%)" stop-opacity="1.0" /><stop offset="0.7460317460317459" stop-color="rgb(90.3%,52.3%,41.4%)" stop-opacity="1.0" /><stop offset="0.7619047619047619" stop-color="rgb(88.4%,48%,38.1%)" stop-opacity="1.0" /><stop offset="0.7777777777777779" stop-color="rgb(86.5%,43.7%,34.8%)" stop-opacity="1.0" /><stop offset="0.7936507936507937" stop-color="rgb(84.7%,39.4%,31.5%)" stop-opacity="1.0" /><stop offset="0.8095238095238093" stop-color="rgb(82.6%,35%,28.9%)" stop-opacity="1.0" /><stop offset="0.8253968253968254" stop-color="rgb(80.3%,30.5%,26.8%)" stop-opacity="1.0" /><stop offset="0.8412698412698413" stop-color="rgb(78.1%,26%,24.7%)" stop-opacity="1.0" /><stop offset="0.8571428571428572" stop-color="rgb(75.9%,21.5%,22.6%)" stop-opacity="1.0" /><stop offset="0.8730158730158731" stop-color="rgb(73.6%,17%,20.5%)" stop-opacity="1.0" /><stop offset="0.8888888888888887" stop-color="rgb(71.4%,12.5%,18.3%)" stop-opacity="1.0" /><stop offset="0.9047619047619047" stop-color="rgb(68.4%,8.96%,16.6%)" stop-opacity="1.0" /><stop offset="0.9206349206349206" stop-color="rgb(63.7%,7.47%,15.9%)" stop-opacity="1.0" /><stop offset="0.9365079365079366" stop-color="rgb(59.1%,5.98%,15.1%)" stop-opacity="1.0" /><stop offset="0.9523809523809526" stop-color="rgb(54.4%,4.48%,14.4%)" stop-opacity="1.0" /><stop offset="0.968253968253968" stop-color="rgb(49.7%,2.99%,13.7%)" stop-opacity="1.0" /><stop offset="0.9841269841269841" stop-color="rgb(45.1%,1.49%,12.9%)" stop-opacity="1.0" /><stop offset="1.0" stop-color="rgb(40.4%,0%,12.2%)" stop-opacity="1.0" /></linearGradient></defs><rect height="10" style="fill:url(#tcb4f874e0899429fa4914db763c43ce2);stroke:none;stroke-width:5" width="200.0" x="0.0" y="-5.0" /></g></g><g class="toyplot-coordinates-Axis" id="tf3a6439642414f879ed9667ac2e546f4" transform="translate(270.0,250.0)rotate(-90.0)translate(0,20.0)"><line style="" x1="0" x2="200.0" y1="0" y2="0" /><g><g transform="translate(14.707161604799396,6)"><text style="fill:rgb(16.1%,15.3%,14.1%);fill-opacity:1.0;font-family:helvetica;font-size:10.0px;font-weight:normal;stroke:none;vertical-align:baseline;white-space:pre" x="-9.729999999999999" y="8.555">0.32</text></g><g transform="translate(48.050993625796764,6)"><text style="fill:rgb(16.1%,15.3%,14.1%);fill-opacity:1.0;font-family:helvetica;font-size:10.0px;font-weight:normal;stroke:none;vertical-align:baseline;white-space:pre" x="-9.729999999999999" y="8.555">0.36</text></g><g transform="translate(81.39482564679416,6)"><text style="fill:rgb(16.1%,15.3%,14.1%);fill-opacity:1.0;font-family:helvetica;font-size:10.0px;font-weight:normal;stroke:none;vertical-align:baseline;white-space:pre" x="-9.729999999999999" y="8.555">0.40</text></g><g transform="translate(114.73865766779154,6)"><text style="fill:rgb(16.1%,15.3%,14.1%);fill-opacity:1.0;font-family:helvetica;font-size:10.0px;font-weight:normal;stroke:none;vertical-align:baseline;white-space:pre" x="-9.729999999999999" y="8.555">0.44</text></g><g transform="translate(148.0824896887889,6)"><text style="fill:rgb(16.1%,15.3%,14.1%);fill-opacity:1.0;font-family:helvetica;font-size:10.0px;font-weight:normal;stroke:none;vertical-align:baseline;white-space:pre" x="-9.729999999999999" y="8.555">0.48</text></g><g transform="translate(181.4263217097863,6)"><text style="fill:rgb(16.1%,15.3%,14.1%);fill-opacity:1.0;font-family:helvetica;font-size:10.0px;font-weight:normal;stroke:none;vertical-align:baseline;white-space:pre" x="-9.729999999999999" y="8.555">0.52</text></g></g><g class="toyplot-coordinates-Axis-coordinates" style="visibility:hidden" transform=""><line style="stroke:rgb(43.9%,50.2%,56.5%);stroke-opacity:1.0;stroke-width:1.0" x1="0" x2="0" y1="-3.0" y2="4.5" /><text style="alignment-baseline:alphabetic;fill:rgb(43.9%,50.2%,56.5%);fill-opacity:1.0;font-size:10px;font-weight:normal;stroke:none;text-anchor:middle" x="0" y="-6" /></g></g></g></svg>