<svg class="toyplot-canvas-Canvas" height="300.0px" id="t8ccdd70f03304c9bb88e02f5764f950c" preserveAspectRatio="xMidYMid meet" style="background-color:transparent;border-color:#292724;border-style:none;border-width:1.0;fill:rgb(16.1%,15.3%,14.1%);fill-opacity:1.0;font-family:Helvetica;font-size:12px;opacity:1.0;stroke:rgb(16.1%,15.3%,14.1%);stroke-opacity:1.0;stroke-width:1.0" viewBox="0 0 320.0 300.0" width="320.0px" xmlns="http://www.w3.org/2000/svg" xmlns:toyplot="http://www.sandia.gov/toyplot" xmlns:xlink="http://www.w3.org/1999/xlink"><g class="toyplot-coordinates-Table" id="t2d873e1122eb4aa7a48c1f3c412f38d5"><rect height="11.5625" style="fill:rgb(50.2%,50.2%,50.2%);fill-opacity:1.0;stroke:none" width="11.5625" x="50.0" y="50.0" /><rect height="11.5625" style="fill:rgb(76.7%,23.3%,23.4%);fill-opacity:1.0;stroke:none" width="11.5625" x="62.5625" y="50.0" /><rect height="11.5625" style="fill:rgb(86.8%,44.2%,35.3%);fill-opacity:1.0;stroke:none" width="11.5625" x="75.125" y="50.0" /><rect height="11.5625" style="fill:rgb(76.4%,22.6%,23.1%);fill-opacity:1.0;stroke:none" width="11.5625" x="87.6875" y="50.0" /><rect height="11.5625" style="fill:rgb(87.9%,92.6%,95.2%);fill-opacity:1.0;stroke:none" width="11.5625" x="100.25" y="50.0" /><rect height="11.5625" style="fill:rgb(79.3%,88.5%,93.4%);fill-opacity:1.0;stroke:none" width="11.5625" x="112.8125" y="50.0" /><rect height="11.5625" style="fill:rgb(59.2%,78.3%,87.6%);fill-opacity:1.0;stroke:none" width="11.5625" x="125.375" y="50.0" /><rect height="11.5625" style="fill:rgb(76.1%,86.8%,92.5%);fill-opacity:1.0;stroke:none" width="11.5625" x="137.9375" y="50.0" /><rect height="11.5625" style="fill:rgb(19.8%,49.1%,72.1%);fill-opacity:1.0;stroke:none" width="11.5625" x="150.5" y="50.0" /><rect height="11.5625" style="fill:rgb(15.7%,43.7%,69.3%);fill-opacity:1.0;stroke:none" width="11.5625" x="163.0625" y="50.0" /><rect height="11.5625" style="fill:rgb(11.2%,36.7%,62.9%);fill-opacity:1.0;stroke:none" width="11.5625" x="175.625" y="50.0" /><rect height="11.5625" style="fill:rgb(21%,50.7%,72.9%);fill-opacity:1.0;stroke:none" width="11.5625" x="188.1875" y="50.0" /><rect height="11.5625" style="fill:rgb(2%,19%,38.3%);fill-opacity:1.0;stroke:none" width="11.5625" x="200.75" y="50.0" /><rect height="11.5625" style="fill:rgb(35%,63.2%,79.4%);fill-opacity:1.0;stroke:none" width="11.5625" x="213.3125" y="50.0" /><rect height="11.5625" style="fill:rgb(34.5%,62.9%,79.3%);fill-opacity:1.0;stroke:none" width="11.5625" x="225.875" y="50.0" /><rect height="11.5625" style="fill:rgb(25%,55.9%,75.6%);fill-opacity:1.0;stroke:none" width="11.5625" x="238.4375" y="50.0" /><rect height="11.5625" style="fill:rgb(76.7%,23.3%,23.4%);fill-opacity:1.0;stroke:none" width="11.5625" x="50.0" y="62.5625" /><rect height="11.5625" style="fill:rgb(50.2%,50.2%,50.2%);fill-opacity:1.0;stroke:none" width="11.5625" x="62.5625" y="62.5625" /><rect height="11.5625" style="fill:rgb(71.4%,12.5%,18.3%);fill-opacity:1.0;stroke:none" width="11.5625" x="75.125" y="62.5625" /><rect height="11.5625" style="fill:rgb(64.1%,7.6%,16%);fill-opacity:1.0;stroke:none" width="11.5625" x="87.6875" y="62.5625" /><rect height="11.5625" style="fill:rgb(98.2%,90.4%,85.8%);fill-opacity:1.0;stroke:none" width="11.5625" x="100.25" y="62.5625" /><rect height="11.5625" style="fill:rgb(87.7%,92.5%,95.2%);fill-opacity:1.0;stroke:none" width="11.5625" x="112.8125" y="62.5625" /><rect height="11.5625" style="fill:rgb(75.9%,86.8%,92.4%);fill-opacity:1.0;stroke:none" width="11.5625" x="125.375" y="62.5625" /><rect height="11.5625" style="fill:rgb(84.5%,91%,94.6%);fill-opacity:1.0;stroke:none" width="11.5625" x="137.9375" y="62.5625" /><rect height="11.5625" style="fill:rgb(18.1%,46.8%,70.9%);fill-opacity:1.0;stroke:none" width="11.5625" x="150.5" y="62.5625" /><rect height="11.5625" style="fill:rgb(23.1%,53.5%,74.3%);fill-opacity:1.0;stroke:none" width="11.5625" x="163.0625" y="62.5625" /><rect height="11.5625" style="fill:rgb(18.1%,46.8%,70.9%);fill-opacity:1.0;stroke:none" width="11.5625" x="175.625" y="62.5625" /><rect height="11.5625" style="fill:rgb(21.7%,51.6%,73.4%);fill-opacity:1.0;stroke:none" width="11.5625" x="188.1875" y="62.5625" /><rect height="11.5625" style="fill:rgb(22.7%,53%,74.1%);fill-opacity:1.0;stroke:none" width="11.5625" x="200.75" y="62.5625" /><rect height="11.5625" style="fill:rgb(27.7%,58.5%,77%);fill-opacity:1.0;stroke:none" width="11.5625" x="213.3125" y="62.5625" /><rect height="11.5625" style="fill:rgb(22.2%,52.3%,73.7%);fill-opacity:1.0;stroke:none" width="11.5625" x="225.875" y="62.5625" /><rect height="11.5625" style="fill:rgb(44.2%,69%,82.6%);fill-opacity:1.0;stroke:none" width="11.5625" x="238.4375" y="62.5625" /><rect height="11.5625" style="fill:rgb(86.8%,44.2%,35.3%);fill-opacity:1.0;stroke:none" width="11.5625" x="50.0" y="75.125" /><rect height="11.5625" style="fill:rgb(71.4%,12.5%,18.3%);fill-opacity:1.0;stroke:none" width="11.5625" x="62.5625" y="75.125" /><rect height="11.5625" style="fill:rgb(50.2%,50.2%,50.2%);fill-opacity:1.0;stroke:none" width="11.5625" x="75.125" y="75.125" /><rect height="11.5625" style="fill:rgb(96.6%,70.3%,58.1%);fill-opacity:1.0;stroke:none" width="11.5625" x="87.6875" y="75.125" /><rect height="11.5625" style="fill:rgb(97.4%,94.1%,92.2%);fill-opacity:1.0;stroke:none" width="11.5625" x="100.25" y="75.125" /><rect height="11.5625" style="fill:rgb(97%,96.2%,95.6%);fill-opacity:1.0;stroke:none" width="11.5625" x="112.8125" y="75.125" /><rect height="11.5625" style="fill:rgb(97%,96.1%,95.5%);fill-opacity:1.0;stroke:none" width="11.5625" x="125.375" y="75.125" /><rect height="11.5625" style="fill:rgb(98.1%,90.9%,86.6%);fill-opacity:1.0;stroke:none" width="11.5625" x="137.9375" y="75.125" /><rect height="11.5625" style="fill:rgb(21.8%,51.7%,73.5%);fill-opacity:1.0;stroke:none" width="11.5625" x="150.5" y="75.125" /><rect height="11.5625" style="fill:rgb(18.4%,47.2%,71.1%);fill-opacity:1.0;stroke:none" width="11.5625" x="163.0625" y="75.125" /><rect height="11.5625" style="fill:rgb(15.7%,43.7%,69.3%);fill-opacity:1.0;stroke:none" width="11.5625" x="175.625" y="75.125" /><rect height="11.5625" style="fill:rgb(21.6%,51.5%,73.3%);fill-opacity:1.0;stroke:none" width="11.5625" x="188.1875" y="75.125" /><rect height="11.5625" style="fill:rgb(23%,53.4%,74.3%);fill-opacity:1.0;stroke:none" width="11.5625" x="200.75" y="75.125" /><rect height="11.5625" style="fill:rgb(25.6%,56.7%,76%);fill-opacity:1.0;stroke:none" width="11.5625" x="213.3125" y="75.125" /><rect height="11.5625" style="fill:rgb(22.9%,53.2%,74.2%);fill-opacity:1.0;stroke:none" width="11.5625" x="225.875" y="75.125" /><rect height="11.5625" style="fill:rgb(54.3%,75.4%,86.1%);fill-opacity:1.0;stroke:none" width="11.5625" x="238.4375" y="75.125" /><rect height="11.5625" style="fill:rgb(76.4%,22.6%,23.1%);fill-opacity:1.0;stroke:none" width="11.5625" x="50.0" y="87.6875" /><rect height="11.5625" style="fill:rgb(64.1%,7.6%,16%);fill-opacity:1.0;stroke:none" width="11.5625" x="62.5625" y="87.6875" /><rect height="11.5625" style="fill:rgb(96.6%,70.3%,58.1%);fill-opacity:1.0;stroke:none" width="11.5625" x="75.125" y="87.6875" /><rect height="11.5625" style="fill:rgb(50.2%,50.2%,50.2%);fill-opacity:1.0;stroke:none" width="11.5625" x="87.6875" y="87.6875" /><rect height="11.5625" style="fill:rgb(97.4%,94.3%,92.5%);fill-opacity:1.0;stroke:none" width="11.5625" x="100.25" y="87.6875" /><rect height="11.5625" style="fill:rgb(90.8%,94%,95.7%);fill-opacity:1.0;stroke:none" width="11.5625" x="112.8125" y="87.6875" /><rect height="11.5625" style="fill:rgb(64.1%,80.7%,89%);fill-opacity:1.0;stroke:none" width="11.5625" x="125.375" y="87.6875" /><rect height="11.5625" style="fill:rgb(88.6%,93%,95.3%);fill-opacity:1.0;stroke:none" width="11.5625" x="137.9375" y="87.6875" /><rect height="11.5625" style="fill:rgb(32.9%,61.8%,78.7%);fill-opacity:1.0;stroke:none" width="11.5625" x="150.5" y="87.6875" /><rect height="11.5625" style="fill:rgb(41.8%,67.5%,81.8%);fill-opacity:1.0;stroke:none" width="11.5625" x="163.0625" y="87.6875" /><rect height="11.5625" style="fill:rgb(18.8%,47.7%,71.4%);fill-opacity:1.0;stroke:none" width="11.5625" x="175.625" y="87.6875" /><rect height="11.5625" style="fill:rgb(25.9%,57.1%,76.2%);fill-opacity:1.0;stroke:none" width="11.5625" x="188.1875" y="87.6875" /><rect height="11.5625" style="fill:rgb(18.6%,47.4%,71.3%);fill-opacity:1.0;stroke:none" width="11.5625" x="200.75" y="87.6875" /><rect height="11.5625" style="fill:rgb(35.5%,63.5%,79.6%);fill-opacity:1.0;stroke:none" width="11.5625" x="213.3125" y="87.6875" /><rect height="11.5625" style="fill:rgb(44.9%,69.4%,82.8%);fill-opacity:1.0;stroke:none" width="11.5625" x="225.875" y="87.6875" /><rect height="11.5625" style="fill:rgb(38.3%,65.3%,80.6%);fill-opacity:1.0;stroke:none" width="11.5625" x="238.4375" y="87.6875" /><rect height="11.5625" style="fill:rgb(87.9%,92.6%,95.2%);fill-opacity:1.0;stroke:none" width="11.5625" x="50.0" y="100.25" /><rect height="11.5625" style="fill:rgb(98.2%,90.4%,85.8%);fill-opacity:1.0;stroke:none" width="11.5625" x="62.5625" y="100.25" /><rect height="11.5625" style="fill:rgb(97.4%,94.1%,92.2%);fill-opacity:1.0;stroke:none" width="11.5625" x="75.125" y="100.25" /><rect height="11.5625" style="fill:rgb(97.4%,94.3%,92.5%);fill-opacity:1.0;stroke:none" width="11.5625" x="87.6875" y="100.25" /><rect height="11.5625" style="fill:rgb(50.2%,50.2%,50.2%);fill-opacity:1.0;stroke:none" width="11.5625" x="100.25" y="100.25" /><rect height="11.5625" style="fill:rgb(92.9%,58.2%,46%);fill-opacity:1.0;stroke:none" width="11.5625" x="112.8125" y="100.25" /><rect height="11.5625" style="fill:rgb(74.6%,19%,21.4%);fill-opacity:1.0;stroke:none" width="11.5625" x="125.375" y="100.25" /><rect height="11.5625" style="fill:rgb(73.1%,16%,20%);fill-opacity:1.0;stroke:none" width="11.5625" x="137.9375" y="100.25" /><rect height="11.5625" style="fill:rgb(5.4%,25.4%,47.2%);fill-opacity:1.0;stroke:none" width="11.5625" x="150.5" y="100.25" /><rect height="11.5625" style="fill:rgb(16.9%,45.3%,70.2%);fill-opacity:1.0;stroke:none" width="11.5625" x="163.0625" y="100.25" /><rect height="11.5625" style="fill:rgb(9.9%,34.1%,59.3%);fill-opacity:1.0;stroke:none" width="11.5625" x="175.625" y="100.25" /><rect height="11.5625" style="fill:rgb(5.6%,25.7%,47.7%);fill-opacity:1.0;stroke:none" width="11.5625" x="188.1875" y="100.25" /><rect height="11.5625" style="fill:rgb(16.7%,45%,70%);fill-opacity:1.0;stroke:none" width="11.5625" x="200.75" y="100.25" /><rect height="11.5625" style="fill:rgb(13%,40.1%,67.5%);fill-opacity:1.0;stroke:none" width="11.5625" x="213.3125" y="100.25" /><rect height="11.5625" style="fill:rgb(29.8%,59.9%,77.7%);fill-opacity:1.0;stroke:none" width="11.5625" x="225.875" y="100.25" /><rect height="11.5625" style="fill:rgb(35.9%,63.8%,79.8%);fill-opacity:1.0;stroke:none" width="11.5625" x="238.4375" y="100.25" /><rect height="11.5625" style="fill:rgb(79.3%,88.5%,93.4%);fill-opacity:1.0;stroke:none" width="11.5625" x="50.0" y="112.8125" /><rect height="11.5625" style="fill:rgb(87.7%,92.5%,95.2%);fill-opacity:1.0;stroke:none" width="11.5625" x="62.5625" y="112.8125" /><rect height="11.5625" style="fill:rgb(97%,96.2%,95.6%);fill-opacity:1.0;stroke:none" width="11.5625" x="75.125" y="112.8125" /><rect height="11.5625" style="fill:rgb(90.8%,94%,95.7%);fill-opacity:1.0;stroke:none" width="11.5625" x="87.6875" y="112.8125" /><rect height="11.5625" style="fill:rgb(92.9%,58.2%,46%);fill-opacity:1.0;stroke:none" width="11.5625" x="100.25" y="112.8125" /><rect height="11.5625" style="fill:rgb(50.2%,50.2%,50.2%);fill-opacity:1.0;stroke:none" width="11.5625" x="112.8125" y="112.8125" /><rect height="11.5625" style="fill:rgb(83.8%,37.4%,30.1%);fill-opacity:1.0;stroke:none" width="11.5625" x="125.375" y="112.8125" /><rect height="11.5625" style="fill:rgb(88.8%,49%,38.9%);fill-opacity:1.0;stroke:none" width="11.5625" x="137.9375" y="112.8125" /><rect height="11.5625" style="fill:rgb(11.7%,37.7%,64.2%);fill-opacity:1.0;stroke:none" width="11.5625" x="150.5" y="112.8125" /><rect height="11.5625" style="fill:rgb(37.6%,64.8%,80.3%);fill-opacity:1.0;stroke:none" width="11.5625" x="163.0625" y="112.8125" /><rect height="11.5625" style="fill:rgb(18.2%,46.9%,71%);fill-opacity:1.0;stroke:none" width="11.5625" x="175.625" y="112.8125" /><rect height="11.5625" style="fill:rgb(43.7%,68.7%,82.4%);fill-opacity:1.0;stroke:none" width="11.5625" x="188.1875" y="112.8125" /><rect height="11.5625" style="fill:rgb(9.1%,32.5%,57.1%);fill-opacity:1.0;stroke:none" width="11.5625" x="200.75" y="112.8125" /><rect height="11.5625" style="fill:rgb(35%,63.2%,79.4%);fill-opacity:1.0;stroke:none" width="11.5625" x="213.3125" y="112.8125" /><rect height="11.5625" style="fill:rgb(23.3%,53.8%,74.5%);fill-opacity:1.0;stroke:none" width="11.5625" x="225.875" y="112.8125" /><rect height="11.5625" style="fill:rgb(37.8%,65%,80.4%);fill-opacity:1.0;stroke:none" width="11.5625" x="238.4375" y="112.8125" /><rect height="11.5625" style="fill:rgb(59.2%,78.3%,87.6%);fill-opacity:1.0;stroke:none" width="11.5625" x="50.0" y="125.375" /><rect height="11.5625" style="fill:rgb(75.9%,86.8%,92.4%);fill-opacity:1.0;stroke:none" width="11.5625" x="62.5625" y="125.375" /><rect height="11.5625" style="fill:rgb(97%,96.1%,95.5%);fill-opacity:1.0;stroke:none" width="11.5625" x="75.125" y="125.375" /><rect height="11.5625" style="fill:rgb(64.1%,80.7%,89%);fill-opacity:1.0;stroke:none" width="11.5625" x="87.6875" y="125.375" /><rect height="11.5625" style="fill:rgb(74.6%,19%,21.4%);fill-opacity:1.0;stroke:none" width="11.5625" x="100.25" y="125.375" /><rect height="11.5625" style="fill:rgb(83.8%,37.4%,30.1%);fill-opacity:1.0;stroke:none" width="11.5625" x="112.8125" y="125.375" /><rect height="11.5625" style="fill:rgb(50.2%,50.2%,50.2%);fill-opacity:1.0;stroke:none" width="11.5625" x="125.375" y="125.375" /><rect height="11.5625" style="fill:rgb(95.9%,65.8%,52.3%);fill-opacity:1.0;stroke:none" width="11.5625" x="137.9375" y="125.375" /><rect height="11.5625" style="fill:rgb(9%,32.4%,56.8%);fill-opacity:1.0;stroke:none" width="11.5625" x="150.5" y="125.375" /><rect height="11.5625" style="fill:rgb(27.9%,58.7%,77%);fill-opacity:1.0;stroke:none" width="11.5625" x="163.0625" y="125.375" /><rect height="11.5625" style="fill:rgb(13.6%,40.9%,67.9%);fill-opacity:1.0;stroke:none" width="11.5625" x="175.625" y="125.375" /><rect height="11.5625" style="fill:rgb(14.6%,42.2%,68.6%);fill-opacity:1.0;stroke:none" width="11.5625" x="188.1875" y="125.375" /><rect height="11.5625" style="fill:rgb(17.9%,46.5%,70.8%);fill-opacity:1.0;stroke:none" width="11.5625" x="200.75" y="125.375" /><rect height="11.5625" style="fill:rgb(43.2%,68.4%,82.3%);fill-opacity:1.0;stroke:none" width="11.5625" x="213.3125" y="125.375" /><rect height="11.5625" style="fill:rgb(22.6%,52.8%,74%);fill-opacity:1.0;stroke:none" width="11.5625" x="225.875" y="125.375" /><rect height="11.5625" style="fill:rgb(38.5%,65.4%,80.7%);fill-opacity:1.0;stroke:none" width="11.5625" x="238.4375" y="125.375" /><rect height="11.5625" style="fill:rgb(76.1%,86.8%,92.5%);fill-opacity:1.0;stroke:none" width="11.5625" x="50.0" y="137.9375" /><rect height="11.5625" style="fill:rgb(84.5%,91%,94.6%);fill-opacity:1.0;stroke:none" width="11.5625" x="62.5625" y="137.9375" /><rect height="11.5625" style="fill:rgb(98.1%,90.9%,86.6%);fill-opacity:1.0;stroke:none" width="11.5625" x="75.125" y="137.9375" /><rect height="11.5625" style="fill:rgb(88.6%,93%,95.3%);fill-opacity:1.0;stroke:none" width="11.5625" x="87.6875" y="137.9375" /><rect height="11.5625" style="fill:rgb(73.1%,16%,20%);fill-opacity:1.0;stroke:none" width="11.5625" x="100.25" y="137.9375" /><rect height="11.5625" style="fill:rgb(88.8%,49%,38.9%);fill-opacity:1.0;stroke:none" width="11.5625" x="112.8125" y="137.9375" /><rect height="11.5625" style="fill:rgb(95.9%,65.8%,52.3%);fill-opacity:1.0;stroke:none" width="11.5625" x="125.375" y="137.9375" /><rect height="11.5625" style="fill:rgb(50.2%,50.2%,50.2%);fill-opacity:1.0;stroke:none" width="11.5625" x="137.9375" y="137.9375" /><rect height="11.5625" style="fill:rgb(9.8%,34%,59.1%);fill-opacity:1.0;stroke:none" width="11.5625" x="150.5" y="137.9375" /><rect height="11.5625" style="fill:rgb(19.5%,48.7%,71.9%);fill-opacity:1.0;stroke:none" width="11.5625" x="163.0625" y="137.9375" /><rect height="11.5625" style="fill:rgb(11.5%,37.2%,63.5%);fill-opacity:1.0;stroke:none" width="11.5625" x="175.625" y="137.9375" /><rect height="11.5625" style="fill:rgb(13.6%,40.9%,67.9%);fill-opacity:1.0;stroke:none" width="11.5625" x="188.1875" y="137.9375" /><rect height="11.5625" style="fill:rgb(2%,18.8%,38%);fill-opacity:1.0;stroke:none" width="11.5625" x="200.75" y="137.9375" /><rect height="11.5625" style="fill:rgb(19.2%,48.3%,71.7%);fill-opacity:1.0;stroke:none" width="11.5625" x="213.3125" y="137.9375" /><rect height="11.5625" style="fill:rgb(26.7%,57.9%,76.6%);fill-opacity:1.0;stroke:none" width="11.5625" x="225.875" y="137.9375" /><rect height="11.5625" style="fill:rgb(21.2%,50.9%,73%);fill-opacity:1.0;stroke:none" width="11.5625" x="238.4375" y="137.9375" /><rect height="11.5625" style="fill:rgb(19.8%,49.1%,72.1%);fill-opacity:1.0;stroke:none" width="11.5625" x="50.0" y="150.5" /><rect height="11.5625" style="fill:rgb(18.1%,46.8%,70.9%);fill-opacity:1.0;stroke:none" width="11.5625" x="62.5625" y="150.5" /><rect height="11.5625" style="fill:rgb(21.8%,51.7%,73.5%);fill-opacity:1.0;stroke:none" width="11.5625" x="75.125" y="150.5" /><rect height="11.5625" style="fill:rgb(32.9%,61.8%,78.7%);fill-opacity:1.0;stroke:none" width="11.5625" x="87.6875" y="150.5" /><rect height="11.5625" style="fill:rgb(5.4%,25.4%,47.2%);fill-opacity:1.0;stroke:none" width="11.5625" x="100.25" y="150.5" /><rect height="11.5625" style="fill:rgb(11.7%,37.7%,64.2%);fill-opacity:1.0;stroke:none" width="11.5625" x="112.8125" y="150.5" /><rect height="11.5625" style="fill:rgb(9%,32.4%,56.8%);fill-opacity:1.0;stroke:none" width="11.5625" x="125.375" y="150.5" /><rect height="11.5625" style="fill:rgb(9.8%,34%,59.1%);fill-opacity:1.0;stroke:none" width="11.5625" x="137.9375" y="150.5" /><rect height="11.5625" style="fill:rgb(50.2%,50.2%,50.2%);fill-opacity:1.0;stroke:none" width="11.5625" x="150.5" y="150.5" /><rect height="11.5625" style="fill:rgb(86.1%,42.6%,34%);fill-opacity:1.0;stroke:none" width="11.5625" x="163.0625" y="150.5" /><rect height="11.5625" style="fill:rgb(80.3%,30.3%,26.7%);fill-opacity:1.0;stroke:none" width="11.5625" x="175.625" y="150.5" /><rect height="11.5625" style="fill:rgb(72.3%,14.5%,19.2%);fill-opacity:1.0;stroke:none" width="11.5625" x="188.1875" y="150.5" /><rect height="11.5625" style="fill:rgb(92%,56.2%,44.4%);fill-opacity:1.0;stroke:none" width="11.5625" x="200.75" y="150.5" /><rect height="11.5625" style="fill:rgb(98.9%,87.2%,80.3%);fill-opacity:1.0;stroke:none" width="11.5625" x="213.3125" y="150.5" /><rect height="11.5625" style="fill:rgb(99.1%,86.4%,78.9%);fill-opacity:1.0;stroke:none" width="11.5625" x="225.875" y="150.5" /><rect height="11.5625" style="fill:rgb(99.2%,86%,78.3%);fill-opacity:1.0;stroke:none" width="11.5625" x="238.4375" y="150.5" /><rect height="11.5625" style="fill:rgb(15.7%,43.7%,69.3%);fill-opacity:1.0;stroke:none" width="11.5625" x="50.0" y="163.0625" /><rect height="11.5625" style="fill:rgb(23.1%,53.5%,74.3%);fill-opacity:1.0;stroke:none" width="11.5625" x="62.5625" y="163.0625" /><rect height="11.5625" style="fill:rgb(18.4%,47.2%,71.1%);fill-opacity:1.0;stroke:none" width="11.5625" x="75.125" y="163.0625" /><rect height="11.5625" style="fill:rgb(41.8%,67.5%,81.8%);fill-opacity:1.0;stroke:none" width="11.5625" x="87.6875" y="163.0625" /><rect height="11.5625" style="fill:rgb(16.9%,45.3%,70.2%);fill-opacity:1.0;stroke:none" width="11.5625" x="100.25" y="163.0625" /><rect height="11.5625" style="fill:rgb(37.6%,64.8%,80.3%);fill-opacity:1.0;stroke:none" width="11.5625" x="112.8125" y="163.0625" /><rect height="11.5625" style="fill:rgb(27.9%,58.7%,77%);fill-opacity:1.0;stroke:none" width="11.5625" x="125.375" y="163.0625" /><rect height="11.5625" style="fill:rgb(19.5%,48.7%,71.9%);fill-opacity:1.0;stroke:none" width="11.5625" x="137.9375" y="163.0625" /><rect height="11.5625" style="fill:rgb(86.1%,42.6%,34%);fill-opacity:1.0;stroke:none" width="11.5625" x="150.5" y="163.0625" /><rect height="11.5625" style="fill:rgb(50.2%,50.2%,50.2%);fill-opacity:1.0;stroke:none" width="11.5625" x="163.0625" y="163.0625" /><rect height="11.5625" style="fill:rgb(92.5%,57.4%,45.4%);fill-opacity:1.0;stroke:none" width="11.5625" x="175.625" y="163.0625" /><rect height="11.5625" style="fill:rgb(81.1%,32.1%,27.6%);fill-opacity:1.0;stroke:none" width="11.5625" x="188.1875" y="163.0625" /><rect height="11.5625" style="fill:rgb(97.1%,95.7%,94.8%);fill-opacity:1.0;stroke:none" width="11.5625" x="200.75" y="163.0625" /><rect height="11.5625" style="fill:rgb(97.6%,93.4%,90.9%);fill-opacity:1.0;stroke:none" width="11.5625" x="213.3125" y="163.0625" /><rect height="11.5625" style="fill:rgb(97.3%,94.7%,93.2%);fill-opacity:1.0;stroke:none" width="11.5625" x="225.875" y="163.0625" /><rect height="11.5625" style="fill:rgb(96.8%,96.8%,96.9%);fill-opacity:1.0;stroke:none" width="11.5625" x="238.4375" y="163.0625" /><rect height="11.5625" style="fill:rgb(11.2%,36.7%,62.9%);fill-opacity:1.0;stroke:none" width="11.5625" x="50.0" y="175.625" /><rect height="11.5625" style="fill:rgb(18.1%,46.8%,70.9%);fill-opacity:1.0;stroke:none" width="11.5625" x="62.5625" y="175.625" /><rect height="11.5625" style="fill:rgb(15.7%,43.7%,69.3%);fill-opacity:1.0;stroke:none" width="11.5625" x="75.125" y="175.625" /><rect height="11.5625" style="fill:rgb(18.8%,47.7%,71.4%);fill-opacity:1.0;stroke:none" width="11.5625" x="87.6875" y="175.625" /><rect height="11.5625" style="fill:rgb(9.9%,34.1%,59.3%);fill-opacity:1.0;stroke:none" width="11.5625" x="100.25" y="175.625" /><rect height="11.5625" style="fill:rgb(18.2%,46.9%,71%);fill-opacity:1.0;stroke:none" width="11.5625" x="112.8125" y="175.625" /><rect height="11.5625" style="fill:rgb(13.6%,40.9%,67.9%);fill-opacity:1.0;stroke:none" width="11.5625" x="125.375" y="175.625" /><rect height="11.5625" style="fill:rgb(11.5%,37.2%,63.5%);fill-opacity:1.0;stroke:none" width="11.5625" x="137.9375" y="175.625" /><rect height="11.5625" style="fill:rgb(80.3%,30.3%,26.7%);fill-opacity:1.0;stroke:none" width="11.5625" x="150.5" y="175.625" /><rect height="11.5625" style="fill:rgb(92.5%,57.4%,45.4%);fill-opacity:1.0;stroke:none" width="11.5625" x="163.0625" y="175.625" /><rect height="11.5625" style="fill:rgb(50.2%,50.2%,50.2%);fill-opacity:1.0;stroke:none" width="11.5625" x="175.625" y="175.625" /><rect height="11.5625" style="fill:rgb(89.8%,51.2%,40.6%);fill-opacity:1.0;stroke:none" width="11.5625" x="188.1875" y="175.625" /><rect height="11.5625" style="fill:rgb(98.5%,89.1%,83.6%);fill-opacity:1.0;stroke:none" width="11.5625" x="200.75" y="175.625" /><rect height="11.5625" style="fill:rgb(97.1%,95.6%,94.6%);fill-opacity:1.0;stroke:none" width="11.5625" x="213.3125" y="175.625" /><rect height="11.5625" style="fill:rgb(97.5%,93.9%,91.8%);fill-opacity:1.0;stroke:none" width="11.5625" x="225.875" y="175.625" /><rect height="11.5625" style="fill:rgb(98.1%,91.1%,86.9%);fill-opacity:1.0;stroke:none" width="11.5625" x="238.4375" y="175.625" /><rect height="11.5625" style="fill:rgb(21%,50.7%,72.9%);fill-opacity:1.0;stroke:none" width="11.5625" x="50.0" y="188.1875" /><rect height="11.5625" style="fill:rgb(21.7%,51.6%,73.4%);fill-opacity:1.0;stroke:none" width="11.5625" x="62.5625" y="188.1875" /><rect height="11.5625" style="fill:rgb(21.6%,51.5%,73.3%);fill-opacity:1.0;stroke:none" width="11.5625" x="75.125" y="188.1875" /><rect height="11.5625" style="fill:rgb(25.9%,57.1%,76.2%);fill-opacity:1.0;stroke:none" width="11.5625" x="87.6875" y="188.1875" /><rect height="11.5625" style="fill:rgb(5.6%,25.7%,47.7%);fill-opacity:1.0;stroke:none" width="11.5625" x="100.25" y="188.1875" /><rect height="11.5625" style="fill:rgb(43.7%,68.7%,82.4%);fill-opacity:1.0;stroke:none" width="11.5625" x="112.8125" y="188.1875" /><rect height="11.5625" style="fill:rgb(14.6%,42.2%,68.6%);fill-opacity:1.0;stroke:none" width="11.5625" x="125.375" y="188.1875" /><rect height="11.5625" style="fill:rgb(13.6%,40.9%,67.9%);fill-opacity:1.0;stroke:none" width="11.5625" x="137.9375" y="188.1875" /><rect height="11.5625" style="fill:rgb(72.3%,14.5%,19.2%);fill-opacity:1.0;stroke:none" width="11.5625" x="150.5" y="188.1875" /><rect height="11.5625" style="fill:rgb(81.1%,32.1%,27.6%);fill-opacity:1.0;stroke:none" width="11.5625" x="163.0625" y="188.1875" /><rect height="11.5625" style="fill:rgb(89.8%,51.2%,40.6%);fill-opacity:1.0;stroke:none" width="11.5625" x="175.625" y="188.1875" /><rect height="11.5625" style="fill:rgb(50.2%,50.2%,50.2%);fill-opacity:1.0;stroke:none" width="11.5625" x="188.1875" y="188.1875" /><rect height="11.5625" style="fill:rgb(98.4%,89.5%,84.2%);fill-opacity:1.0;stroke:none" width="11.5625" x="200.75" y="188.1875" /><rect height="11.5625" style="fill:rgb(98.7%,82.7%,73.9%);fill-opacity:1.0;stroke:none" width="11.5625" x="213.3125" y="188.1875" /><rect height="11.5625" style="fill:rgb(98.8%,87.9%,81.5%);fill-opacity:1.0;stroke:none" width="11.5625" x="225.875" y="188.1875" /><rect height="11.5625" style="fill:rgb(97.8%,77.5%,67.3%);fill-opacity:1.0;stroke:none" width="11.5625" x="238.4375" y="188.1875" /><rect height="11.5625" style="fill:rgb(2%,19%,38.3%);fill-opacity:1.0;stroke:none" width="11.5625" x="50.0" y="200.75" /><rect height="11.5625" style="fill:rgb(22.7%,53%,74.1%);fill-opacity:1.0;stroke:none" width="11.5625" x="62.5625" y="200.75" /><rect height="11.5625" style="fill:rgb(23%,53.4%,74.3%);fill-opacity:1.0;stroke:none" width="11.5625" x="75.125" y="200.75" /><rect height="11.5625" style="fill:rgb(18.6%,47.4%,71.3%);fill-opacity:1.0;stroke:none" width="11.5625" x="87.6875" y="200.75" /><rect height="11.5625" style="fill:rgb(16.7%,45%,70%);fill-opacity:1.0;stroke:none" width="11.5625" x="100.25" y="200.75" /><rect height="11.5625" style="fill:rgb(9.1%,32.5%,57.1%);fill-opacity:1.0;stroke:none" width="11.5625" x="112.8125" y="200.75" /><rect height="11.5625" style="fill:rgb(17.9%,46.5%,70.8%);fill-opacity:1.0;stroke:none" width="11.5625" x="125.375" y="200.75" /><rect height="11.5625" style="fill:rgb(2%,18.8%,38%);fill-opacity:1.0;stroke:none" width="11.5625" x="137.9375" y="200.75" /><rect height="11.5625" style="fill:rgb(92%,56.2%,44.4%);fill-opacity:1.0;stroke:none" width="11.5625" x="150.5" y="200.75" /><rect height="11.5625" style="fill:rgb(97.1%,95.7%,94.8%);fill-opacity:1.0;stroke:none" width="11.5625" x="163.0625" y="200.75" /><rect height="11.5625" style="fill:rgb(98.5%,89.1%,83.6%);fill-opacity:1.0;stroke:none" width="11.5625" x="175.625" y="200.75" /><rect height="11.5625" style="fill:rgb(98.4%,89.5%,84.2%);fill-opacity:1.0;stroke:none" width="11.5625" x="188.1875" y="200.75" /><rect height="11.5625" style="fill:rgb(50.2%,50.2%,50.2%);fill-opacity:1.0;stroke:none" width="11.5625" x="200.75" y="200.75" /><rect height="11.5625" style="fill:rgb(80.6%,31%,27.1%);fill-opacity:1.0;stroke:none" width="11.5625" x="213.3125" y="200.75" /><rect height="11.5625" style="fill:rgb(73.9%,17.7%,20.8%);fill-opacity:1.0;stroke:none" width="11.5625" x="225.875" y="200.75" /><rect height="11.5625" style="fill:rgb(40.4%,0%,12.2%);fill-opacity:1.0;stroke:none" width="11.5625" x="238.4375" y="200.75" /><rect height="11.5625" style="fill:rgb(35%,63.2%,79.4%);fill-opacity:1.0;stroke:none" width="11.5625" x="50.0" y="213.3125" /><rect height="11.5625" style="fill:rgb(27.7%,58.5%,77%);fill-opacity:1.0;stroke:none" width="11.5625" x="62.5625" y="213.3125" /><rect height="11.5625" style="fill:rgb(25.6%,56.7%,76%);fill-opacity:1.0;stroke:none" width="11.5625" x="75.125" y="213.3125" /><rect height="11.5625" style="fill:rgb(35.5%,63.5%,79.6%);fill-opacity:1.0;stroke:none" width="11.5625" x="87.6875" y="213.3125" /><rect height="11.5625" style="fill:rgb(13%,40.1%,67.5%);fill-opacity:1.0;stroke:none" width="11.5625" x="100.25" y="213.3125" /><rect height="11.5625" style="fill:rgb(35%,63.2%,79.4%);fill-opacity:1.0;stroke:none" width="11.5625" x="112.8125" y="213.3125" /><rect height="11.5625" style="fill:rgb(43.2%,68.4%,82.3%);fill-opacity:1.0;stroke:none" width="11.5625" x="125.375" y="213.3125" /><rect height="11.5625" style="fill:rgb(19.2%,48.3%,71.7%);fill-opacity:1.0;stroke:none" width="11.5625" x="137.9375" y="213.3125" /><rect height="11.5625" style="fill:rgb(98.9%,87.2%,80.3%);fill-opacity:1.0;stroke:none" width="11.5625" x="150.5" y="213.3125" /><rect height="11.5625" style="fill:rgb(97.6%,93.4%,90.9%);fill-opacity:1.0;stroke:none" width="11.5625" x="163.0625" y="213.3125" /><rect height="11.5625" style="fill:rgb(97.1%,95.6%,94.6%);fill-opacity:1.0;stroke:none" width="11.5625" x="175.625" y="213.3125" /><rect height="11.5625" style="fill:rgb(98.7%,82.7%,73.9%);fill-opacity:1.0;stroke:none" width="11.5625" x="188.1875" y="213.3125" /><rect height="11.5625" style="fill:rgb(80.6%,31%,27.1%);fill-opacity:1.0;stroke:none" width="11.5625" x="200.75" y="213.3125" /><rect height="11.5625" style="fill:rgb(50.2%,50.2%,50.2%);fill-opacity:1.0;stroke:none" width="11.5625" x="213.3125" y="213.3125" /><rect height="11.5625" style="fill:rgb(52.7%,3.9%,14.1%);fill-opacity:1.0;stroke:none" width="11.5625" x="225.875" y="213.3125" /><rect height="11.5625" style="fill:rgb(73.2%,16.2%,20.1%);fill-opacity:1.0;stroke:none" width="11.5625" x="238.4375" y="213.3125" /><rect height="11.5625" style="fill:rgb(34.5%,62.9%,79.3%);fill-opacity:1.0;stroke:none" width="11.5625" x="50.0" y="225.875" /><rect height="11.5625" style="fill:rgb(22.2%,52.3%,73.7%);fill-opacity:1.0;stroke:none" width="11.5625" x="62.5625" y="225.875" /><rect height="11.5625" style="fill:rgb(22.9%,53.2%,74.2%);fill-opacity:1.0;stroke:none" width="11.5625" x="75.125" y="225.875" /><rect height="11.5625" style="fill:rgb(44.9%,69.4%,82.8%);fill-opacity:1.0;stroke:none" width="11.5625" x="87.6875" y="225.875" /><rect height="11.5625" style="fill:rgb(29.8%,59.9%,77.7%);fill-opacity:1.0;stroke:none" width="11.5625" x="100.25" y="225.875" /><rect height="11.5625" style="fill:rgb(23.3%,53.8%,74.5%);fill-opacity:1.0;stroke:none" width="11.5625" x="112.8125" y="225.875" /><rect height="11.5625" style="fill:rgb(22.6%,52.8%,74%);fill-opacity:1.0;stroke:none" width="11.5625" x="125.375" y="225.875" /><rect height="11.5625" style="fill:rgb(26.7%,57.9%,76.6%);fill-opacity:1.0;stroke:none" width="11.5625" x="137.9375" y="225.875" /><rect height="11.5625" style="fill:rgb(99.1%,86.4%,78.9%);fill-opacity:1.0;stroke:none" width="11.5625" x="150.5" y="225.875" /><rect height="11.5625" style="fill:rgb(97.3%,94.7%,93.2%);fill-opacity:1.0;stroke:none" width="11.5625" x="163.0625" y="225.875" /><rect height="11.5625" style="fill:rgb(97.5%,93.9%,91.8%);fill-opacity:1.0;stroke:none" width="11.5625" x="175.625" y="225.875" /><rect height="11.5625" style="fill:rgb(98.8%,87.9%,81.5%);fill-opacity:1.0;stroke:none" width="11.5625" x="188.1875" y="225.875" /><rect height="11.5625" style="fill:rgb(73.9%,17.7%,20.8%);fill-opacity:1.0;stroke:none" width="11.5625" x="200.75" y="225.875" /><rect height="11.5625" style="fill:rgb(52.7%,3.9%,14.1%);fill-opacity:1.0;stroke:none" width="11.5625" x="213.3125" y="225.875" /><rect height="11.5625" style="fill:rgb(50.2%,50.2%,50.2%);fill-opacity:1.0;stroke:none" width="11.5625" x="225.875" y="225.875" /><rect height="11.5625" style="fill:rgb(73.4%,16.6%,20.3%);fill-opacity:1.0;stroke:none" width="11.5625" x="238.4375" y="225.875" /><rect height="11.5625" style="fill:rgb(25%,55.9%,75.6%);fill-opacity:1.0;stroke:none" width="11.5625" x="50.0" y="238.4375" /><rect height="11.5625" style="fill:rgb(44.2%,69%,82.6%);fill-opacity:1.0;stroke:none" width="11.5625" x="62.5625" y="238.4375" /><rect height="11.5625" style="fill:rgb(54.3%,75.4%,86.1%);fill-opacity:1.0;stroke:none" width="11.5625" x="75.125" y="238.4375" /><rect height="11.5625" style="fill:rgb(38.3%,65.3%,80.6%);fill-opacity:1.0;stroke:none" width="11.5625" x="87.6875" y="238.4375" /><rect height="11.5625" style="fill:rgb(35.9%,63.8%,79.8%);fill-opacity:1.0;stroke:none" width="11.5625" x="100.25" y="238.4375" /><rect height="11.5625" style="fill:rgb(37.8%,65%,80.4%);fill-opacity:1.0;stroke:none" width="11.5625" x="112.8125" y="238.4375" /><rect height="11.5625" style="fill:rgb(38.5%,65.4%,80.7%);fill-opacity:1.0;stroke:none" width="11.5625" x="125.375" y="238.4375" /><rect height="11.5625" style="fill:rgb(21.2%,50.9%,73%);fill-opacity:1.0;stroke:none" width="11.5625" x="137.9375" y="238.4375" /><rect height="11.5625" style="fill:rgb(99.2%,86%,78.3%);fill-opacity:1.0;stroke:none" width="11.5625" x="150.5" y="238.4375" /><rect height="11.5625" style="fill:rgb(96.8%,96.8%,96.9%);fill-opacity:1.0;stroke:none" width="11.5625" x="163.0625" y="238.4375" /><rect height="11.5625" style="fill:rgb(98.1%,91.1%,86.9%);fill-opacity:1.0;stroke:none" width="11.5625" x="175.625" y="238.4375" /><rect height="11.5625" style="fill:rgb(97.8%,77.5%,67.3%);fill-opacity:1.0;stroke:none" width="11.5625" x="188.1875" y="238.4375" /><rect height="11.5625" style="fill:rgb(40.4%,0%,12.2%);fill-opacity:1.0;stroke:none" width="11.5625" x="200.75" y="238.4375" /><rect height="11.5625" style="fill:rgb(73.2%,16.2%,20.1%);fill-opacity:1.0;stroke:none" width="11.5625" x="213.3125" y="238.4375" /><rect height="11.5625" style="fill:rgb(73.4%,16.6%,20.3%);fill-opacity:1.0;stroke:none" width="11.5625" x="225.875" y="238.4375" /><rect height="11.5625" style="fill:rgb(50.2%,50.2%,50.2%);fill-opacity:1.0;stroke:none" width="11.5625" x="238.4375" y="238.4375" /></g><g class="toyplot-coordinates-Numberline" id="t27aa37db86cd4696864e23392ee9b38e"><clipPath id="t9e6778e1041d46eeb14ae94762b9e3db"><rect height="40.0" width="200.0" x="0" y="-20.0" /></clipPath><g clip-path="url(#t9e6778e1041d46eeb14ae94762b9e3db)" transform="translate(270.0,250.0)rotate(-90.0)"><g class="toyplot-color-Map" id="t951c6d6cce104b1bb578815b5d25e20c"><defs><linearGradient gradientUnits="userSpaceOnUse" id="tc5f86e4923c14880bda3b28d80828ccf" x1="0.0" x2="200.0" y1="0" y2="0"><stop offset="0.0" stop-color="rgb(1.96%,18.8%,38%)" stop-opacity="1.0" /><stop offset="0.015873015873015595" stop-color="rgb(3.7%,22.2%,42.7%)" stop-opacity="1.0" /><stop offset="0.03174603174603186" stop-color="rgb(5.45%,25.5%,47.4%)" stop-opacity="1.0" /><stop offset="0.04761904761904746" stop-color="rgb(7.19%,28.9%,52%)" stop-opacity="1.0" /><stop offset="0.06349206349206372" stop-color="rgb(8.93%,32.3%,56.7%)" stop-opacity="1.0" /><stop offset="0.07936507936507932" stop-color="rgb(10.7%,35.6%,61.4%)" stop-opacity="1.0" /><stop offset="0.0952380952380956" stop-color="rgb(12.4%,39%,66.1%)" stop-opacity="1.0" /><stop offset="0.1111111111111112" stop-color="rgb(14.4%,42%,68.5%)" stop-opacity="1.0" /><stop offset="0.12698412698412678" stop-color="rgb(16.5%,44.8%,69.9%)" stop-opacity="1.0" /><stop offset="0.14285714285714304" stop-color="rgb(18.7%,47.6%,71.3%)" stop-opacity="1.0" /><stop offset="0.15873015873015864" stop-color="rgb(20.8%,50.4%,72.7%)" stop-opacity="1.0" /><stop offset="0.17460317460317495" stop-color="rgb(22.9%,53.2%,74.2%)" stop-opacity="1.0" /><stop offset="0.19047619047619052" stop-color="rgb(25%,56%,75.6%)" stop-opacity="1.0" /><stop offset="0.20634920634920612" stop-color="rgb(28.2%,58.9%,77.1%)" stop-opacity="1.0" /><stop offset="0.2222222222222224" stop-color="rgb(33.2%,62%,78.8%)" stop-opacity="1.0" /><stop offset="0.23809523809523797" stop-color="rgb(38.1%,65.1%,80.5%)" stop-opacity="1.0" /><stop offset="0.25396825396825423" stop-color="rgb(43%,68.2%,82.2%)" stop-opacity="1.0" /><stop offset="0.2698412698412698" stop-color="rgb(47.9%,71.3%,83.9%)" stop-opacity="1.0" /><stop offset="0.2857142857142854" stop-color="rgb(52.8%,74.5%,85.5%)" stop-opacity="1.0" /><stop offset="0.3015873015873017" stop-color="rgb(57.6%,77.5%,87.2%)" stop-opacity="1.0" /><stop offset="0.3174603174603173" stop-color="rgb(61.6%,79.4%,88.3%)" stop-opacity="1.0" /><stop offset="0.3333333333333336" stop-color="rgb(65.5%,81.4%,89.4%)" stop-opacity="1.0" /><stop offset="0.3492063492063491" stop-color="rgb(69.4%,83.4%,90.5%)" stop-opacity="1.0" /><stop offset="0.3650793650793654" stop-color="rgb(73.3%,85.4%,91.7%)" stop-opacity="1.0" /><stop offset="0.38095238095238104" stop-color="rgb(77.3%,87.4%,92.8%)" stop-opacity="1.0" /><stop offset="0.39682539682539664" stop-color="rgb(81.2%,89.4%,93.9%)" stop-opacity="1.0" /><stop offset="0.41269841269841284" stop-color="rgb(83.9%,90.7%,94.5%)" stop-opacity="1.0" /><stop offset="0.4285714285714285" stop-color="rgb(86.2%,91.8%,94.9%)" stop-opacity="1.0" /><stop offset="0.4444444444444448" stop-color="rgb(88.6%,92.9%,95.3%)" stop-opacity="1.0" /><stop offset="0.4603174603174603" stop-color="rgb(90.9%,94.1%,95.8%)" stop-opacity="1.0" /><stop offset="0.47619047619047594" stop-color="rgb(93.3%,95.2%,96.2%)" stop-opacity="1.0" /><stop offset="0.49206349206349226" stop-color="rgb(95.7%,96.3%,96.6%)" stop-opacity="1.0" /><stop offset="0.5079365079365078" stop-color="rgb(97%,96%,95.4%)" stop-opacity="1.0" /><stop offset="0.5238095238095241" stop-color="rgb(97.4%,94.2%,92.4%)" stop-opacity="1.0" /><stop offset="0.5396825396825397" stop-color="rgb(97.8%,92.5%,89.4%)" stop-opacity="1.0" /><stop offset="0.5555555555555552" stop-color="rgb(98.2%,90.8%,86.4%)" stop-opacity="1.0" /><stop offset="0.5714285714285715" stop-color="rgb(98.5%,89%,83.4%)" stop-opacity="1.0" /><stop offset="0.5873015873015871" stop-color="rgb(98.9%,87.3%,80.4%)" stop-opacity="1.0" /><stop offset="0.6031746031746034" stop-color="rgb(99.1%,85.2%,77.2%)" stop-opacity="1.0" /><stop offset="0.619047619047619" stop-color="rgb(98.5%,81.8%,72.9%)" stop-opacity="1.0" /><stop offset="0.6349206349206352" stop-color="rgb(98%,78.5%,68.6%)" stop-opacity="1.0" /><stop offset="0.6507936507936507" stop-color="rgb(97.4%,75.1%,64.3%)" stop-opacity="1.0" /><stop offset="0.6666666666666664" stop-color="rgb(96.9%,71.8%,60%)" stop-opacity="1.0" /><stop offset="0.6825396825396827" stop-color="rgb(96.3%,68.4%,55.7%)" stop-opacity="1.0" /><stop offset="0.6984126984126982" stop-color="rgb(95.7%,65%,51.4%)" stop-opacity="1.0" /><stop offset="0.7142857142857146" stop-color="rgb(94%,60.8%,48%)" stop-opacity="1.0" /><stop offset="0.7301587301587301" stop-color="rgb(92.1%,56.5%,44.7%)" stop-opacity="1.0" /><stop offset="0.7460317460317465" stop-color="rgb(90.3%,52.3%,41.4%)" stop-opacity="1.0" /><stop offset="0.7619047619047621" stop-color="rgb(88.4%,48%,38.1%)" stop-opacity="1.0" /><stop offset="0.7777777777777777" stop-color="rgb(86.5%,43.7%,34.8%)" stop-opacity="1.0" /><stop offset="0.7936507936507939" stop-color="rgb(84.7%,39.4%,31.5%)" stop-opacity="1.0" /><stop offset="0.8095238095238095" stop-color="rgb(82.6%,35%,28.9%)" stop-opacity="1.0" /><stop offset="0.8253968253968251" stop-color="rgb(80.3%,30.5%,26.8%)" stop-opacity="1.0" /><stop offset="0.8412698412698414" stop-color="rgb(78.1%,26%,24.7%)" stop-opacity="1.0" /><stop offset="0.857142857142857" stop-color="rgb(75.9%,21.5%,22.6%)" stop-opacity="1.0" /><stop offset="0.8730158730158731" stop-color="rgb(73.6%,17%,20.5%)" stop-opacity="1.0" /><stop offset="0.8888888888888888" stop-color="rgb(71.4%,12.5%,18.3%)" stop-opacity="1.0" /><stop offset="0.9047619047619051" stop-color="rgb(68.4%,8.96%,16.6%)" stop-opacity="1.0" /><stop offset="0.9206349206349206" stop-color="rgb(63.7%,7.47%,15.9%)" stop-opacity="1.0" /><stop offset="0.9365079365079363" stop-color="rgb(59.1%,5.98%,15.1%)" stop-opacity="1.0" /><stop offset="0.9523809523809526" stop-color="rgb(54.4%,4.48%,14.4%)" stop-opacity="1.0" /><stop offset="0.968253968253968" stop-color="rgb(49.7%,2.99%,13.7%)" stop-opacity="1.0" /><stop offset="0.9841269841269845" stop-color="rgb(45.1%,1.49%,12.9%)" stop-opacity="1.0" /><stop offset="1.0" stop-color="rgb(40.4%,0%,12.2%)" stop-opacity="1.0" /></linearGradient></defs><rect height="10" style="fill:url(#tc5f86e4923c14880bda3b28d80828ccf);stroke:none;stroke-width:5" width="200.0" x="0.0" y="-5.0" /></g></g><g class="toyplot-coordinates-Axis" id="tc5c04c8cdfa74283b390264602305b7c" transform="translate(270.0,250.0)rotate(-90.0)translate(0,20.0)"><line style="" x1="0" x2="200.0" y1="0" y2="0" /><g><g transform="translate(12.76806083650188,6)"><text style="fill:rgb(16.1%,15.3%,14.1%);fill-opacity:1.0;font-family:helvetica;font-size:10.0px;font-weight:normal;stroke:none;vertical-align:baseline;white-space:pre" x="-6.95" y="8.555">2.0</text></g><g transform="translate(58.37262357414442,6)"><text style="fill:rgb(16.1%,15.3%,14.1%);fill-opacity:1.0;font-family:helvetica;font-size:10.0px;font-weight:normal;stroke:none;vertical-align:baseline;white-space:pre" x="-6.95" y="8.555">2.2</text></g><g transform="translate(103.97718631178697,6)"><text style="fill:rgb(16.1%,15.3%,14.1%);fill-opacity:1.0;font-family:helvetica;font-size:10.0px;font-weight:normal;stroke:none;vertical-align:baseline;white-space:pre" x="-6.95" y="8.555">2.3</text></g><g transform="translate(149.58174904942962,6)"><text style="fill:rgb(16.1%,15.3%,14.1%);fill-opacity:1.0;font-family:helvetica;font-size:10.0px;font-weight:normal;stroke:none;vertical-align:baseline;white-space:pre" x="-6.95" y="8.555">2.5</text></g><g transform="translate(195.18631178707219,6)"><text style="fill:rgb(16.1%,15.3%,14.1%);fill-opacity:1.0;font-family:helvetica;font-size:10.0px;font-weight:normal;stroke:none;vertical-align:baseline;white-space:pre" x="-6.95" y="8.555">2.6</text></g></g><g class="toyplot-coordinates-Axis-coordinates" style="visibility:hidden" transform=""><line style="stroke:rgb(43.9%,50.2%,56.5%);stroke-opacity:1.0;stroke-width:1.0" x1="0" x2="0" y1="-3.0" y2="4.5" /><text style="alignment-baseline:alphabetic;fill:rgb(43.9%,50.2%,56.5%);fill-opacity:1.0;font-size:10px;font-weight:normal;stroke:none;text-anchor:middle" x="0" y="-6" /></g></g></g></svg>