<svg class="toyplot-canvas-Canvas" height="300.0px" id="tf15b914d548343a38f7fc4749e5e0a41" preserveAspectRatio="xMidYMid meet" style="background-color:transparent;border-color:#292724;border-style:none;border-width:1.0;fill:rgb(16.1%,15.3%,14.1%);fill-opacity:1.0;font-family:Helvetica;font-size:12px;opacity:1.0;stroke:rgb(16.1%,15.3%,14.1%);stroke-opacity:1.0;stroke-width:1.0" viewBox="0 0 320.0 300.0" width="320.0px" xmlns="http://www.w3.org/2000/svg" xmlns:toyplot="http://www.sandia.gov/toyplot" xmlns:xlink="http://www.w3.org/1999/xlink"><g class="toyplot-coordinates-Table" id="t32796bf3505a4e64a0dce7755d289395"><rect height="11.5625" style="fill:rgb(50.2%,50.2%,50.2%);fill-opacity:1.0;stroke:none" width="11.5625" x="50.0" y="50.0" /><rect height="11.5625" style="fill:rgb(8%,30.5%,54.3%);fill-opacity:1.0;stroke:none" width="11.5625" x="62.5625" y="50.0" /><rect height="11.5625" style="fill:rgb(79.1%,28.1%,25.7%);fill-opacity:1.0;stroke:none" width="11.5625" x="75.125" y="50.0" /><rect height="11.5625" style="fill:rgb(75.6%,21.1%,22.4%);fill-opacity:1.0;stroke:none" width="11.5625" x="87.6875" y="50.0" /><rect height="11.5625" style="fill:rgb(98.3%,80.5%,71.2%);fill-opacity:1.0;stroke:none" width="11.5625" x="100.25" y="50.0" /><rect height="11.5625" style="fill:rgb(98.4%,81.1%,72%);fill-opacity:1.0;stroke:none" width="11.5625" x="112.8125" y="50.0" /><rect height="11.5625" style="fill:rgb(91.5%,55.1%,43.6%);fill-opacity:1.0;stroke:none" width="11.5625" x="125.375" y="50.0" /><rect height="11.5625" style="fill:rgb(91.5%,55.1%,43.6%);fill-opacity:1.0;stroke:none" width="11.5625" x="137.9375" y="50.0" /><rect height="11.5625" style="fill:rgb(97%,96.4%,96%);fill-opacity:1.0;stroke:none" width="11.5625" x="150.5" y="50.0" /><rect height="11.5625" style="fill:rgb(96.8%,96.9%,96.9%);fill-opacity:1.0;stroke:none" width="11.5625" x="163.0625" y="50.0" /><rect height="11.5625" style="fill:rgb(98.7%,88.2%,82%);fill-opacity:1.0;stroke:none" width="11.5625" x="175.625" y="50.0" /><rect height="11.5625" style="fill:rgb(99.1%,86.2%,78.6%);fill-opacity:1.0;stroke:none" width="11.5625" x="188.1875" y="50.0" /><rect height="11.5625" style="fill:rgb(95.1%,96%,96.5%);fill-opacity:1.0;stroke:none" width="11.5625" x="200.75" y="50.0" /><rect height="11.5625" style="fill:rgb(95.9%,96.4%,96.7%);fill-opacity:1.0;stroke:none" width="11.5625" x="213.3125" y="50.0" /><rect height="11.5625" style="fill:rgb(98.6%,88.7%,82.8%);fill-opacity:1.0;stroke:none" width="11.5625" x="225.875" y="50.0" /><rect height="11.5625" style="fill:rgb(99%,87.1%,80.1%);fill-opacity:1.0;stroke:none" width="11.5625" x="238.4375" y="50.0" /><rect height="11.5625" style="fill:rgb(8%,30.5%,54.3%);fill-opacity:1.0;stroke:none" width="11.5625" x="50.0" y="62.5625" /><rect height="11.5625" style="fill:rgb(50.2%,50.2%,50.2%);fill-opacity:1.0;stroke:none" width="11.5625" x="62.5625" y="62.5625" /><rect height="11.5625" style="fill:rgb(75.9%,21.6%,22.6%);fill-opacity:1.0;stroke:none" width="11.5625" x="75.125" y="62.5625" /><rect height="11.5625" style="fill:rgb(74.5%,18.8%,21.3%);fill-opacity:1.0;stroke:none" width="11.5625" x="87.6875" y="62.5625" /><rect height="11.5625" style="fill:rgb(97.7%,76.6%,66.2%);fill-opacity:1.0;stroke:none" width="11.5625" x="100.25" y="62.5625" /><rect height="11.5625" style="fill:rgb(97.8%,77.2%,67%);fill-opacity:1.0;stroke:none" width="11.5625" x="112.8125" y="62.5625" /><rect height="11.5625" style="fill:rgb(90.2%,52%,41.2%);fill-opacity:1.0;stroke:none" width="11.5625" x="125.375" y="62.5625" /><rect height="11.5625" style="fill:rgb(90.3%,52.2%,41.4%);fill-opacity:1.0;stroke:none" width="11.5625" x="137.9375" y="62.5625" /><rect height="11.5625" style="fill:rgb(97.2%,95.2%,93.9%);fill-opacity:1.0;stroke:none" width="11.5625" x="150.5" y="62.5625" /><rect height="11.5625" style="fill:rgb(97.1%,95.8%,95%);fill-opacity:1.0;stroke:none" width="11.5625" x="163.0625" y="62.5625" /><rect height="11.5625" style="fill:rgb(98.9%,87.5%,80.7%);fill-opacity:1.0;stroke:none" width="11.5625" x="175.625" y="62.5625" /><rect height="11.5625" style="fill:rgb(99.2%,86.2%,78.5%);fill-opacity:1.0;stroke:none" width="11.5625" x="188.1875" y="62.5625" /><rect height="11.5625" style="fill:rgb(95.6%,96.3%,96.6%);fill-opacity:1.0;stroke:none" width="11.5625" x="200.75" y="62.5625" /><rect height="11.5625" style="fill:rgb(96.9%,96.7%,96.6%);fill-opacity:1.0;stroke:none" width="11.5625" x="213.3125" y="62.5625" /><rect height="11.5625" style="fill:rgb(98.7%,88.4%,82.3%);fill-opacity:1.0;stroke:none" width="11.5625" x="225.875" y="62.5625" /><rect height="11.5625" style="fill:rgb(99%,86.9%,79.7%);fill-opacity:1.0;stroke:none" width="11.5625" x="238.4375" y="62.5625" /><rect height="11.5625" style="fill:rgb(79.1%,28.1%,25.7%);fill-opacity:1.0;stroke:none" width="11.5625" x="50.0" y="75.125" /><rect height="11.5625" style="fill:rgb(75.9%,21.6%,22.6%);fill-opacity:1.0;stroke:none" width="11.5625" x="62.5625" y="75.125" /><rect height="11.5625" style="fill:rgb(50.2%,50.2%,50.2%);fill-opacity:1.0;stroke:none" width="11.5625" x="75.125" y="75.125" /><rect height="11.5625" style="fill:rgb(40.4%,0%,12.2%);fill-opacity:1.0;stroke:none" width="11.5625" x="87.6875" y="75.125" /><rect height="11.5625" style="fill:rgb(85.9%,42.1%,33.6%);fill-opacity:1.0;stroke:none" width="11.5625" x="100.25" y="75.125" /><rect height="11.5625" style="fill:rgb(86.1%,42.8%,34.1%);fill-opacity:1.0;stroke:none" width="11.5625" x="112.8125" y="75.125" /><rect height="11.5625" style="fill:rgb(73.2%,16.2%,20.1%);fill-opacity:1.0;stroke:none" width="11.5625" x="125.375" y="75.125" /><rect height="11.5625" style="fill:rgb(74.1%,18%,20.9%);fill-opacity:1.0;stroke:none" width="11.5625" x="137.9375" y="75.125" /><rect height="11.5625" style="fill:rgb(98.4%,80.7%,71.5%);fill-opacity:1.0;stroke:none" width="11.5625" x="150.5" y="75.125" /><rect height="11.5625" style="fill:rgb(98.6%,82.3%,73.5%);fill-opacity:1.0;stroke:none" width="11.5625" x="163.0625" y="75.125" /><rect height="11.5625" style="fill:rgb(96.6%,70%,57.7%);fill-opacity:1.0;stroke:none" width="11.5625" x="175.625" y="75.125" /><rect height="11.5625" style="fill:rgb(96.5%,69.4%,57%);fill-opacity:1.0;stroke:none" width="11.5625" x="188.1875" y="75.125" /><rect height="11.5625" style="fill:rgb(98.9%,87.2%,80.3%);fill-opacity:1.0;stroke:none" width="11.5625" x="200.75" y="75.125" /><rect height="11.5625" style="fill:rgb(99.1%,86.5%,79%);fill-opacity:1.0;stroke:none" width="11.5625" x="213.3125" y="75.125" /><rect height="11.5625" style="fill:rgb(96.8%,71.5%,59.7%);fill-opacity:1.0;stroke:none" width="11.5625" x="225.875" y="75.125" /><rect height="11.5625" style="fill:rgb(96.6%,70.4%,58.2%);fill-opacity:1.0;stroke:none" width="11.5625" x="238.4375" y="75.125" /><rect height="11.5625" style="fill:rgb(75.6%,21.1%,22.4%);fill-opacity:1.0;stroke:none" width="11.5625" x="50.0" y="87.6875" /><rect height="11.5625" style="fill:rgb(74.5%,18.8%,21.3%);fill-opacity:1.0;stroke:none" width="11.5625" x="62.5625" y="87.6875" /><rect height="11.5625" style="fill:rgb(40.4%,0%,12.2%);fill-opacity:1.0;stroke:none" width="11.5625" x="75.125" y="87.6875" /><rect height="11.5625" style="fill:rgb(50.2%,50.2%,50.2%);fill-opacity:1.0;stroke:none" width="11.5625" x="87.6875" y="87.6875" /><rect height="11.5625" style="fill:rgb(88%,47%,37.4%);fill-opacity:1.0;stroke:none" width="11.5625" x="100.25" y="87.6875" /><rect height="11.5625" style="fill:rgb(88.6%,48.3%,38.4%);fill-opacity:1.0;stroke:none" width="11.5625" x="112.8125" y="87.6875" /><rect height="11.5625" style="fill:rgb(79%,27.7%,25.5%);fill-opacity:1.0;stroke:none" width="11.5625" x="125.375" y="87.6875" /><rect height="11.5625" style="fill:rgb(78.6%,27%,25.2%);fill-opacity:1.0;stroke:none" width="11.5625" x="137.9375" y="87.6875" /><rect height="11.5625" style="fill:rgb(99.1%,86.5%,79.2%);fill-opacity:1.0;stroke:none" width="11.5625" x="150.5" y="87.6875" /><rect height="11.5625" style="fill:rgb(99%,86.9%,79.8%);fill-opacity:1.0;stroke:none" width="11.5625" x="163.0625" y="87.6875" /><rect height="11.5625" style="fill:rgb(96.9%,72.2%,60.5%);fill-opacity:1.0;stroke:none" width="11.5625" x="175.625" y="87.6875" /><rect height="11.5625" style="fill:rgb(96.8%,71.6%,59.8%);fill-opacity:1.0;stroke:none" width="11.5625" x="188.1875" y="87.6875" /><rect height="11.5625" style="fill:rgb(99.2%,86.1%,78.4%);fill-opacity:1.0;stroke:none" width="11.5625" x="200.75" y="87.6875" /><rect height="11.5625" style="fill:rgb(98.8%,83.4%,74.9%);fill-opacity:1.0;stroke:none" width="11.5625" x="213.3125" y="87.6875" /><rect height="11.5625" style="fill:rgb(98%,78.3%,68.4%);fill-opacity:1.0;stroke:none" width="11.5625" x="225.875" y="87.6875" /><rect height="11.5625" style="fill:rgb(97.4%,74.9%,64%);fill-opacity:1.0;stroke:none" width="11.5625" x="238.4375" y="87.6875" /><rect height="11.5625" style="fill:rgb(98.3%,80.5%,71.2%);fill-opacity:1.0;stroke:none" width="11.5625" x="50.0" y="100.25" /><rect height="11.5625" style="fill:rgb(97.7%,76.6%,66.2%);fill-opacity:1.0;stroke:none" width="11.5625" x="62.5625" y="100.25" /><rect height="11.5625" style="fill:rgb(85.9%,42.1%,33.6%);fill-opacity:1.0;stroke:none" width="11.5625" x="75.125" y="100.25" /><rect height="11.5625" style="fill:rgb(88%,47%,37.4%);fill-opacity:1.0;stroke:none" width="11.5625" x="87.6875" y="100.25" /><rect height="11.5625" style="fill:rgb(50.2%,50.2%,50.2%);fill-opacity:1.0;stroke:none" width="11.5625" x="100.25" y="100.25" /><rect height="11.5625" style="fill:rgb(2%,18.8%,38%);fill-opacity:1.0;stroke:none" width="11.5625" x="112.8125" y="100.25" /><rect height="11.5625" style="fill:rgb(86.4%,43.3%,34.6%);fill-opacity:1.0;stroke:none" width="11.5625" x="125.375" y="100.25" /><rect height="11.5625" style="fill:rgb(84.9%,39.9%,31.9%);fill-opacity:1.0;stroke:none" width="11.5625" x="137.9375" y="100.25" /><rect height="11.5625" style="fill:rgb(97.3%,95%,93.7%);fill-opacity:1.0;stroke:none" width="11.5625" x="150.5" y="100.25" /><rect height="11.5625" style="fill:rgb(97.1%,96%,95.3%);fill-opacity:1.0;stroke:none" width="11.5625" x="163.0625" y="100.25" /><rect height="11.5625" style="fill:rgb(97.9%,92.3%,89%);fill-opacity:1.0;stroke:none" width="11.5625" x="175.625" y="100.25" /><rect height="11.5625" style="fill:rgb(97.6%,93.6%,91.3%);fill-opacity:1.0;stroke:none" width="11.5625" x="188.1875" y="100.25" /><rect height="11.5625" style="fill:rgb(96.9%,96.5%,96.2%);fill-opacity:1.0;stroke:none" width="11.5625" x="200.75" y="100.25" /><rect height="11.5625" style="fill:rgb(97%,96.3%,95.9%);fill-opacity:1.0;stroke:none" width="11.5625" x="213.3125" y="100.25" /><rect height="11.5625" style="fill:rgb(98.1%,90.9%,86.7%);fill-opacity:1.0;stroke:none" width="11.5625" x="225.875" y="100.25" /><rect height="11.5625" style="fill:rgb(98.8%,87.6%,81%);fill-opacity:1.0;stroke:none" width="11.5625" x="238.4375" y="100.25" /><rect height="11.5625" style="fill:rgb(98.4%,81.1%,72%);fill-opacity:1.0;stroke:none" width="11.5625" x="50.0" y="112.8125" /><rect height="11.5625" style="fill:rgb(97.8%,77.2%,67%);fill-opacity:1.0;stroke:none" width="11.5625" x="62.5625" y="112.8125" /><rect height="11.5625" style="fill:rgb(86.1%,42.8%,34.1%);fill-opacity:1.0;stroke:none" width="11.5625" x="75.125" y="112.8125" /><rect height="11.5625" style="fill:rgb(88.6%,48.3%,38.4%);fill-opacity:1.0;stroke:none" width="11.5625" x="87.6875" y="112.8125" /><rect height="11.5625" style="fill:rgb(2%,18.8%,38%);fill-opacity:1.0;stroke:none" width="11.5625" x="100.25" y="112.8125" /><rect height="11.5625" style="fill:rgb(50.2%,50.2%,50.2%);fill-opacity:1.0;stroke:none" width="11.5625" x="112.8125" y="112.8125" /><rect height="11.5625" style="fill:rgb(85.2%,40.7%,32.5%);fill-opacity:1.0;stroke:none" width="11.5625" x="125.375" y="112.8125" /><rect height="11.5625" style="fill:rgb(85%,40%,32%);fill-opacity:1.0;stroke:none" width="11.5625" x="137.9375" y="112.8125" /><rect height="11.5625" style="fill:rgb(97.2%,95.3%,94.2%);fill-opacity:1.0;stroke:none" width="11.5625" x="150.5" y="112.8125" /><rect height="11.5625" style="fill:rgb(97%,96.3%,95.9%);fill-opacity:1.0;stroke:none" width="11.5625" x="163.0625" y="112.8125" /><rect height="11.5625" style="fill:rgb(97.9%,92.1%,88.7%);fill-opacity:1.0;stroke:none" width="11.5625" x="175.625" y="112.8125" /><rect height="11.5625" style="fill:rgb(97.5%,93.8%,91.6%);fill-opacity:1.0;stroke:none" width="11.5625" x="188.1875" y="112.8125" /><rect height="11.5625" style="fill:rgb(97%,96.2%,95.8%);fill-opacity:1.0;stroke:none" width="11.5625" x="200.75" y="112.8125" /><rect height="11.5625" style="fill:rgb(97%,96%,95.4%);fill-opacity:1.0;stroke:none" width="11.5625" x="213.3125" y="112.8125" /><rect height="11.5625" style="fill:rgb(98.2%,90.8%,86.4%);fill-opacity:1.0;stroke:none" width="11.5625" x="225.875" y="112.8125" /><rect height="11.5625" style="fill:rgb(98.9%,87.5%,80.8%);fill-opacity:1.0;stroke:none" width="11.5625" x="238.4375" y="112.8125" /><rect height="11.5625" style="fill:rgb(91.5%,55.1%,43.6%);fill-opacity:1.0;stroke:none" width="11.5625" x="50.0" y="125.375" /><rect height="11.5625" style="fill:rgb(90.2%,52%,41.2%);fill-opacity:1.0;stroke:none" width="11.5625" x="62.5625" y="125.375" /><rect height="11.5625" style="fill:rgb(73.2%,16.2%,20.1%);fill-opacity:1.0;stroke:none" width="11.5625" x="75.125" y="125.375" /><rect height="11.5625" style="fill:rgb(79%,27.7%,25.5%);fill-opacity:1.0;stroke:none" width="11.5625" x="87.6875" y="125.375" /><rect height="11.5625" style="fill:rgb(86.4%,43.3%,34.6%);fill-opacity:1.0;stroke:none" width="11.5625" x="100.25" y="125.375" /><rect height="11.5625" style="fill:rgb(85.2%,40.7%,32.5%);fill-opacity:1.0;stroke:none" width="11.5625" x="112.8125" y="125.375" /><rect height="11.5625" style="fill:rgb(50.2%,50.2%,50.2%);fill-opacity:1.0;stroke:none" width="11.5625" x="125.375" y="125.375" /><rect height="11.5625" style="fill:rgb(73.5%,16.8%,20.4%);fill-opacity:1.0;stroke:none" width="11.5625" x="137.9375" y="125.375" /><rect height="11.5625" style="fill:rgb(99.2%,85.7%,77.9%);fill-opacity:1.0;stroke:none" width="11.5625" x="150.5" y="125.375" /><rect height="11.5625" style="fill:rgb(99.1%,86.5%,79%);fill-opacity:1.0;stroke:none" width="11.5625" x="163.0625" y="125.375" /><rect height="11.5625" style="fill:rgb(96.9%,71.9%,60.2%);fill-opacity:1.0;stroke:none" width="11.5625" x="175.625" y="125.375" /><rect height="11.5625" style="fill:rgb(97.3%,74.2%,63.1%);fill-opacity:1.0;stroke:none" width="11.5625" x="188.1875" y="125.375" /><rect height="11.5625" style="fill:rgb(98%,91.3%,87.4%);fill-opacity:1.0;stroke:none" width="11.5625" x="200.75" y="125.375" /><rect height="11.5625" style="fill:rgb(98.2%,90.5%,85.9%);fill-opacity:1.0;stroke:none" width="11.5625" x="213.3125" y="125.375" /><rect height="11.5625" style="fill:rgb(98.9%,83.8%,75.4%);fill-opacity:1.0;stroke:none" width="11.5625" x="225.875" y="125.375" /><rect height="11.5625" style="fill:rgb(97.9%,78%,67.9%);fill-opacity:1.0;stroke:none" width="11.5625" x="238.4375" y="125.375" /><rect height="11.5625" style="fill:rgb(91.5%,55.1%,43.6%);fill-opacity:1.0;stroke:none" width="11.5625" x="50.0" y="137.9375" /><rect height="11.5625" style="fill:rgb(90.3%,52.2%,41.4%);fill-opacity:1.0;stroke:none" width="11.5625" x="62.5625" y="137.9375" /><rect height="11.5625" style="fill:rgb(74.1%,18%,20.9%);fill-opacity:1.0;stroke:none" width="11.5625" x="75.125" y="137.9375" /><rect height="11.5625" style="fill:rgb(78.6%,27%,25.2%);fill-opacity:1.0;stroke:none" width="11.5625" x="87.6875" y="137.9375" /><rect height="11.5625" style="fill:rgb(84.9%,39.9%,31.9%);fill-opacity:1.0;stroke:none" width="11.5625" x="100.25" y="137.9375" /><rect height="11.5625" style="fill:rgb(85%,40%,32%);fill-opacity:1.0;stroke:none" width="11.5625" x="112.8125" y="137.9375" /><rect height="11.5625" style="fill:rgb(73.5%,16.8%,20.4%);fill-opacity:1.0;stroke:none" width="11.5625" x="125.375" y="137.9375" /><rect height="11.5625" style="fill:rgb(50.2%,50.2%,50.2%);fill-opacity:1.0;stroke:none" width="11.5625" x="137.9375" y="137.9375" /><rect height="11.5625" style="fill:rgb(98.5%,89.4%,84%);fill-opacity:1.0;stroke:none" width="11.5625" x="150.5" y="137.9375" /><rect height="11.5625" style="fill:rgb(98.3%,90.3%,85.6%);fill-opacity:1.0;stroke:none" width="11.5625" x="163.0625" y="137.9375" /><rect height="11.5625" style="fill:rgb(98.8%,83.2%,74.6%);fill-opacity:1.0;stroke:none" width="11.5625" x="175.625" y="137.9375" /><rect height="11.5625" style="fill:rgb(99.1%,85.4%,77.5%);fill-opacity:1.0;stroke:none" width="11.5625" x="188.1875" y="137.9375" /><rect height="11.5625" style="fill:rgb(97.9%,91.9%,88.3%);fill-opacity:1.0;stroke:none" width="11.5625" x="200.75" y="137.9375" /><rect height="11.5625" style="fill:rgb(98%,91.4%,87.5%);fill-opacity:1.0;stroke:none" width="11.5625" x="213.3125" y="137.9375" /><rect height="11.5625" style="fill:rgb(99.2%,85.7%,77.8%);fill-opacity:1.0;stroke:none" width="11.5625" x="225.875" y="137.9375" /><rect height="11.5625" style="fill:rgb(98.1%,78.9%,69.2%);fill-opacity:1.0;stroke:none" width="11.5625" x="238.4375" y="137.9375" /><rect height="11.5625" style="fill:rgb(97%,96.4%,96%);fill-opacity:1.0;stroke:none" width="11.5625" x="50.0" y="150.5" /><rect height="11.5625" style="fill:rgb(97.2%,95.2%,93.9%);fill-opacity:1.0;stroke:none" width="11.5625" x="62.5625" y="150.5" /><rect height="11.5625" style="fill:rgb(98.4%,80.7%,71.5%);fill-opacity:1.0;stroke:none" width="11.5625" x="75.125" y="150.5" /><rect height="11.5625" style="fill:rgb(99.1%,86.5%,79.2%);fill-opacity:1.0;stroke:none" width="11.5625" x="87.6875" y="150.5" /><rect height="11.5625" style="fill:rgb(97.3%,95%,93.7%);fill-opacity:1.0;stroke:none" width="11.5625" x="100.25" y="150.5" /><rect height="11.5625" style="fill:rgb(97.2%,95.3%,94.2%);fill-opacity:1.0;stroke:none" width="11.5625" x="112.8125" y="150.5" /><rect height="11.5625" style="fill:rgb(99.2%,85.7%,77.9%);fill-opacity:1.0;stroke:none" width="11.5625" x="125.375" y="150.5" /><rect height="11.5625" style="fill:rgb(98.5%,89.4%,84%);fill-opacity:1.0;stroke:none" width="11.5625" x="137.9375" y="150.5" /><rect height="11.5625" style="fill:rgb(50.2%,50.2%,50.2%);fill-opacity:1.0;stroke:none" width="11.5625" x="150.5" y="150.5" /><rect height="11.5625" style="fill:rgb(9.7%,33.8%,58.8%);fill-opacity:1.0;stroke:none" width="11.5625" x="163.0625" y="150.5" /><rect height="11.5625" style="fill:rgb(88.5%,48.2%,38.3%);fill-opacity:1.0;stroke:none" width="11.5625" x="175.625" y="150.5" /><rect height="11.5625" style="fill:rgb(91.4%,54.7%,43.3%);fill-opacity:1.0;stroke:none" width="11.5625" x="188.1875" y="150.5" /><rect height="11.5625" style="fill:rgb(99.1%,86.4%,78.9%);fill-opacity:1.0;stroke:none" width="11.5625" x="200.75" y="150.5" /><rect height="11.5625" style="fill:rgb(99.1%,86.3%,78.8%);fill-opacity:1.0;stroke:none" width="11.5625" x="213.3125" y="150.5" /><rect height="11.5625" style="fill:rgb(96.9%,71.8%,60%);fill-opacity:1.0;stroke:none" width="11.5625" x="225.875" y="150.5" /><rect height="11.5625" style="fill:rgb(97.4%,75.2%,64.4%);fill-opacity:1.0;stroke:none" width="11.5625" x="238.4375" y="150.5" /><rect height="11.5625" style="fill:rgb(96.8%,96.9%,96.9%);fill-opacity:1.0;stroke:none" width="11.5625" x="50.0" y="163.0625" /><rect height="11.5625" style="fill:rgb(97.1%,95.8%,95%);fill-opacity:1.0;stroke:none" width="11.5625" x="62.5625" y="163.0625" /><rect height="11.5625" style="fill:rgb(98.6%,82.3%,73.5%);fill-opacity:1.0;stroke:none" width="11.5625" x="75.125" y="163.0625" /><rect height="11.5625" style="fill:rgb(99%,86.9%,79.8%);fill-opacity:1.0;stroke:none" width="11.5625" x="87.6875" y="163.0625" /><rect height="11.5625" style="fill:rgb(97.1%,96%,95.3%);fill-opacity:1.0;stroke:none" width="11.5625" x="100.25" y="163.0625" /><rect height="11.5625" style="fill:rgb(97%,96.3%,95.9%);fill-opacity:1.0;stroke:none" width="11.5625" x="112.8125" y="163.0625" /><rect height="11.5625" style="fill:rgb(99.1%,86.5%,79%);fill-opacity:1.0;stroke:none" width="11.5625" x="125.375" y="163.0625" /><rect height="11.5625" style="fill:rgb(98.3%,90.3%,85.6%);fill-opacity:1.0;stroke:none" width="11.5625" x="137.9375" y="163.0625" /><rect height="11.5625" style="fill:rgb(9.7%,33.8%,58.8%);fill-opacity:1.0;stroke:none" width="11.5625" x="150.5" y="163.0625" /><rect height="11.5625" style="fill:rgb(50.2%,50.2%,50.2%);fill-opacity:1.0;stroke:none" width="11.5625" x="163.0625" y="163.0625" /><rect height="11.5625" style="fill:rgb(91.8%,55.8%,44.1%);fill-opacity:1.0;stroke:none" width="11.5625" x="175.625" y="163.0625" /><rect height="11.5625" style="fill:rgb(93%,58.4%,46.2%);fill-opacity:1.0;stroke:none" width="11.5625" x="188.1875" y="163.0625" /><rect height="11.5625" style="fill:rgb(99%,87.1%,80.1%);fill-opacity:1.0;stroke:none" width="11.5625" x="200.75" y="163.0625" /><rect height="11.5625" style="fill:rgb(99%,87.1%,80.1%);fill-opacity:1.0;stroke:none" width="11.5625" x="213.3125" y="163.0625" /><rect height="11.5625" style="fill:rgb(96.8%,71.5%,59.7%);fill-opacity:1.0;stroke:none" width="11.5625" x="225.875" y="163.0625" /><rect height="11.5625" style="fill:rgb(97.7%,76.6%,66.2%);fill-opacity:1.0;stroke:none" width="11.5625" x="238.4375" y="163.0625" /><rect height="11.5625" style="fill:rgb(98.7%,88.2%,82%);fill-opacity:1.0;stroke:none" width="11.5625" x="50.0" y="175.625" /><rect height="11.5625" style="fill:rgb(98.9%,87.5%,80.7%);fill-opacity:1.0;stroke:none" width="11.5625" x="62.5625" y="175.625" /><rect height="11.5625" style="fill:rgb(96.6%,70%,57.7%);fill-opacity:1.0;stroke:none" width="11.5625" x="75.125" y="175.625" /><rect height="11.5625" style="fill:rgb(96.9%,72.2%,60.5%);fill-opacity:1.0;stroke:none" width="11.5625" x="87.6875" y="175.625" /><rect height="11.5625" style="fill:rgb(97.9%,92.3%,89%);fill-opacity:1.0;stroke:none" width="11.5625" x="100.25" y="175.625" /><rect height="11.5625" style="fill:rgb(97.9%,92.1%,88.7%);fill-opacity:1.0;stroke:none" width="11.5625" x="112.8125" y="175.625" /><rect height="11.5625" style="fill:rgb(96.9%,71.9%,60.2%);fill-opacity:1.0;stroke:none" width="11.5625" x="125.375" y="175.625" /><rect height="11.5625" style="fill:rgb(98.8%,83.2%,74.6%);fill-opacity:1.0;stroke:none" width="11.5625" x="137.9375" y="175.625" /><rect height="11.5625" style="fill:rgb(88.5%,48.2%,38.3%);fill-opacity:1.0;stroke:none" width="11.5625" x="150.5" y="175.625" /><rect height="11.5625" style="fill:rgb(91.8%,55.8%,44.1%);fill-opacity:1.0;stroke:none" width="11.5625" x="163.0625" y="175.625" /><rect height="11.5625" style="fill:rgb(50.2%,50.2%,50.2%);fill-opacity:1.0;stroke:none" width="11.5625" x="175.625" y="175.625" /><rect height="11.5625" style="fill:rgb(68.7%,9%,16.7%);fill-opacity:1.0;stroke:none" width="11.5625" x="188.1875" y="175.625" /><rect height="11.5625" style="fill:rgb(96.6%,69.9%,57.7%);fill-opacity:1.0;stroke:none" width="11.5625" x="200.75" y="175.625" /><rect height="11.5625" style="fill:rgb(96.5%,69.4%,57%);fill-opacity:1.0;stroke:none" width="11.5625" x="213.3125" y="175.625" /><rect height="11.5625" style="fill:rgb(86.8%,44.2%,35.2%);fill-opacity:1.0;stroke:none" width="11.5625" x="225.875" y="175.625" /><rect height="11.5625" style="fill:rgb(83.9%,37.6%,30.2%);fill-opacity:1.0;stroke:none" width="11.5625" x="238.4375" y="175.625" /><rect height="11.5625" style="fill:rgb(99.1%,86.2%,78.6%);fill-opacity:1.0;stroke:none" width="11.5625" x="50.0" y="188.1875" /><rect height="11.5625" style="fill:rgb(99.2%,86.2%,78.5%);fill-opacity:1.0;stroke:none" width="11.5625" x="62.5625" y="188.1875" /><rect height="11.5625" style="fill:rgb(96.5%,69.4%,57%);fill-opacity:1.0;stroke:none" width="11.5625" x="75.125" y="188.1875" /><rect height="11.5625" style="fill:rgb(96.8%,71.6%,59.8%);fill-opacity:1.0;stroke:none" width="11.5625" x="87.6875" y="188.1875" /><rect height="11.5625" style="fill:rgb(97.6%,93.6%,91.3%);fill-opacity:1.0;stroke:none" width="11.5625" x="100.25" y="188.1875" /><rect height="11.5625" style="fill:rgb(97.5%,93.8%,91.6%);fill-opacity:1.0;stroke:none" width="11.5625" x="112.8125" y="188.1875" /><rect height="11.5625" style="fill:rgb(97.3%,74.2%,63.1%);fill-opacity:1.0;stroke:none" width="11.5625" x="125.375" y="188.1875" /><rect height="11.5625" style="fill:rgb(99.1%,85.4%,77.5%);fill-opacity:1.0;stroke:none" width="11.5625" x="137.9375" y="188.1875" /><rect height="11.5625" style="fill:rgb(91.4%,54.7%,43.3%);fill-opacity:1.0;stroke:none" width="11.5625" x="150.5" y="188.1875" /><rect height="11.5625" style="fill:rgb(93%,58.4%,46.2%);fill-opacity:1.0;stroke:none" width="11.5625" x="163.0625" y="188.1875" /><rect height="11.5625" style="fill:rgb(68.7%,9%,16.7%);fill-opacity:1.0;stroke:none" width="11.5625" x="175.625" y="188.1875" /><rect height="11.5625" style="fill:rgb(50.2%,50.2%,50.2%);fill-opacity:1.0;stroke:none" width="11.5625" x="188.1875" y="188.1875" /><rect height="11.5625" style="fill:rgb(94.9%,62.8%,49.5%);fill-opacity:1.0;stroke:none" width="11.5625" x="200.75" y="188.1875" /><rect height="11.5625" style="fill:rgb(95.2%,63.6%,50.1%);fill-opacity:1.0;stroke:none" width="11.5625" x="213.3125" y="188.1875" /><rect height="11.5625" style="fill:rgb(85.2%,40.6%,32.5%);fill-opacity:1.0;stroke:none" width="11.5625" x="225.875" y="188.1875" /><rect height="11.5625" style="fill:rgb(88.8%,48.8%,38.7%);fill-opacity:1.0;stroke:none" width="11.5625" x="238.4375" y="188.1875" /><rect height="11.5625" style="fill:rgb(95.1%,96%,96.5%);fill-opacity:1.0;stroke:none" width="11.5625" x="50.0" y="200.75" /><rect height="11.5625" style="fill:rgb(95.6%,96.3%,96.6%);fill-opacity:1.0;stroke:none" width="11.5625" x="62.5625" y="200.75" /><rect height="11.5625" style="fill:rgb(98.9%,87.2%,80.3%);fill-opacity:1.0;stroke:none" width="11.5625" x="75.125" y="200.75" /><rect height="11.5625" style="fill:rgb(99.2%,86.1%,78.4%);fill-opacity:1.0;stroke:none" width="11.5625" x="87.6875" y="200.75" /><rect height="11.5625" style="fill:rgb(96.9%,96.5%,96.2%);fill-opacity:1.0;stroke:none" width="11.5625" x="100.25" y="200.75" /><rect height="11.5625" style="fill:rgb(97%,96.2%,95.8%);fill-opacity:1.0;stroke:none" width="11.5625" x="112.8125" y="200.75" /><rect height="11.5625" style="fill:rgb(98%,91.3%,87.4%);fill-opacity:1.0;stroke:none" width="11.5625" x="125.375" y="200.75" /><rect height="11.5625" style="fill:rgb(97.9%,91.9%,88.3%);fill-opacity:1.0;stroke:none" width="11.5625" x="137.9375" y="200.75" /><rect height="11.5625" style="fill:rgb(99.1%,86.4%,78.9%);fill-opacity:1.0;stroke:none" width="11.5625" x="150.5" y="200.75" /><rect height="11.5625" style="fill:rgb(99%,87.1%,80.1%);fill-opacity:1.0;stroke:none" width="11.5625" x="163.0625" y="200.75" /><rect height="11.5625" style="fill:rgb(96.6%,69.9%,57.7%);fill-opacity:1.0;stroke:none" width="11.5625" x="175.625" y="200.75" /><rect height="11.5625" style="fill:rgb(94.9%,62.8%,49.5%);fill-opacity:1.0;stroke:none" width="11.5625" x="188.1875" y="200.75" /><rect height="11.5625" style="fill:rgb(50.2%,50.2%,50.2%);fill-opacity:1.0;stroke:none" width="11.5625" x="200.75" y="200.75" /><rect height="11.5625" style="fill:rgb(8.9%,32.2%,56.6%);fill-opacity:1.0;stroke:none" width="11.5625" x="213.3125" y="200.75" /><rect height="11.5625" style="fill:rgb(86.8%,44.3%,35.3%);fill-opacity:1.0;stroke:none" width="11.5625" x="225.875" y="200.75" /><rect height="11.5625" style="fill:rgb(86.1%,42.7%,34.1%);fill-opacity:1.0;stroke:none" width="11.5625" x="238.4375" y="200.75" /><rect height="11.5625" style="fill:rgb(95.9%,96.4%,96.7%);fill-opacity:1.0;stroke:none" width="11.5625" x="50.0" y="213.3125" /><rect height="11.5625" style="fill:rgb(96.9%,96.7%,96.6%);fill-opacity:1.0;stroke:none" width="11.5625" x="62.5625" y="213.3125" /><rect height="11.5625" style="fill:rgb(99.1%,86.5%,79%);fill-opacity:1.0;stroke:none" width="11.5625" x="75.125" y="213.3125" /><rect height="11.5625" style="fill:rgb(98.8%,83.4%,74.9%);fill-opacity:1.0;stroke:none" width="11.5625" x="87.6875" y="213.3125" /><rect height="11.5625" style="fill:rgb(97%,96.3%,95.9%);fill-opacity:1.0;stroke:none" width="11.5625" x="100.25" y="213.3125" /><rect height="11.5625" style="fill:rgb(97%,96%,95.4%);fill-opacity:1.0;stroke:none" width="11.5625" x="112.8125" y="213.3125" /><rect height="11.5625" style="fill:rgb(98.2%,90.5%,85.9%);fill-opacity:1.0;stroke:none" width="11.5625" x="125.375" y="213.3125" /><rect height="11.5625" style="fill:rgb(98%,91.4%,87.5%);fill-opacity:1.0;stroke:none" width="11.5625" x="137.9375" y="213.3125" /><rect height="11.5625" style="fill:rgb(99.1%,86.3%,78.8%);fill-opacity:1.0;stroke:none" width="11.5625" x="150.5" y="213.3125" /><rect height="11.5625" style="fill:rgb(99%,87.1%,80.1%);fill-opacity:1.0;stroke:none" width="11.5625" x="163.0625" y="213.3125" /><rect height="11.5625" style="fill:rgb(96.5%,69.4%,57%);fill-opacity:1.0;stroke:none" width="11.5625" x="175.625" y="213.3125" /><rect height="11.5625" style="fill:rgb(95.2%,63.6%,50.1%);fill-opacity:1.0;stroke:none" width="11.5625" x="188.1875" y="213.3125" /><rect height="11.5625" style="fill:rgb(8.9%,32.2%,56.6%);fill-opacity:1.0;stroke:none" width="11.5625" x="200.75" y="213.3125" /><rect height="11.5625" style="fill:rgb(50.2%,50.2%,50.2%);fill-opacity:1.0;stroke:none" width="11.5625" x="213.3125" y="213.3125" /><rect height="11.5625" style="fill:rgb(88.1%,47.3%,37.6%);fill-opacity:1.0;stroke:none" width="11.5625" x="225.875" y="213.3125" /><rect height="11.5625" style="fill:rgb(87.2%,45.1%,35.9%);fill-opacity:1.0;stroke:none" width="11.5625" x="238.4375" y="213.3125" /><rect height="11.5625" style="fill:rgb(98.6%,88.7%,82.8%);fill-opacity:1.0;stroke:none" width="11.5625" x="50.0" y="225.875" /><rect height="11.5625" style="fill:rgb(98.7%,88.4%,82.3%);fill-opacity:1.0;stroke:none" width="11.5625" x="62.5625" y="225.875" /><rect height="11.5625" style="fill:rgb(96.8%,71.5%,59.7%);fill-opacity:1.0;stroke:none" width="11.5625" x="75.125" y="225.875" /><rect height="11.5625" style="fill:rgb(98%,78.3%,68.4%);fill-opacity:1.0;stroke:none" width="11.5625" x="87.6875" y="225.875" /><rect height="11.5625" style="fill:rgb(98.1%,90.9%,86.7%);fill-opacity:1.0;stroke:none" width="11.5625" x="100.25" y="225.875" /><rect height="11.5625" style="fill:rgb(98.2%,90.8%,86.4%);fill-opacity:1.0;stroke:none" width="11.5625" x="112.8125" y="225.875" /><rect height="11.5625" style="fill:rgb(98.9%,83.8%,75.4%);fill-opacity:1.0;stroke:none" width="11.5625" x="125.375" y="225.875" /><rect height="11.5625" style="fill:rgb(99.2%,85.7%,77.8%);fill-opacity:1.0;stroke:none" width="11.5625" x="137.9375" y="225.875" /><rect height="11.5625" style="fill:rgb(96.9%,71.8%,60%);fill-opacity:1.0;stroke:none" width="11.5625" x="150.5" y="225.875" /><rect height="11.5625" style="fill:rgb(96.8%,71.5%,59.7%);fill-opacity:1.0;stroke:none" width="11.5625" x="163.0625" y="225.875" /><rect height="11.5625" style="fill:rgb(86.8%,44.2%,35.2%);fill-opacity:1.0;stroke:none" width="11.5625" x="175.625" y="225.875" /><rect height="11.5625" style="fill:rgb(85.2%,40.6%,32.5%);fill-opacity:1.0;stroke:none" width="11.5625" x="188.1875" y="225.875" /><rect height="11.5625" style="fill:rgb(86.8%,44.3%,35.3%);fill-opacity:1.0;stroke:none" width="11.5625" x="200.75" y="225.875" /><rect height="11.5625" style="fill:rgb(88.1%,47.3%,37.6%);fill-opacity:1.0;stroke:none" width="11.5625" x="213.3125" y="225.875" /><rect height="11.5625" style="fill:rgb(50.2%,50.2%,50.2%);fill-opacity:1.0;stroke:none" width="11.5625" x="225.875" y="225.875" /><rect height="11.5625" style="fill:rgb(78.4%,26.7%,25%);fill-opacity:1.0;stroke:none" width="11.5625" x="238.4375" y="225.875" /><rect height="11.5625" style="fill:rgb(99%,87.1%,80.1%);fill-opacity:1.0;stroke:none" width="11.5625" x="50.0" y="238.4375" /><rect height="11.5625" style="fill:rgb(99%,86.9%,79.7%);fill-opacity:1.0;stroke:none" width="11.5625" x="62.5625" y="238.4375" /><rect height="11.5625" style="fill:rgb(96.6%,70.4%,58.2%);fill-opacity:1.0;stroke:none" width="11.5625" x="75.125" y="238.4375" /><rect height="11.5625" style="fill:rgb(97.4%,74.9%,64%);fill-opacity:1.0;stroke:none" width="11.5625" x="87.6875" y="238.4375" /><rect height="11.5625" style="fill:rgb(98.8%,87.6%,81%);fill-opacity:1.0;stroke:none" width="11.5625" x="100.25" y="238.4375" /><rect height="11.5625" style="fill:rgb(98.9%,87.5%,80.8%);fill-opacity:1.0;stroke:none" width="11.5625" x="112.8125" y="238.4375" /><rect height="11.5625" style="fill:rgb(97.9%,78%,67.9%);fill-opacity:1.0;stroke:none" width="11.5625" x="125.375" y="238.4375" /><rect height="11.5625" style="fill:rgb(98.1%,78.9%,69.2%);fill-opacity:1.0;stroke:none" width="11.5625" x="137.9375" y="238.4375" /><rect height="11.5625" style="fill:rgb(97.4%,75.2%,64.4%);fill-opacity:1.0;stroke:none" width="11.5625" x="150.5" y="238.4375" /><rect height="11.5625" style="fill:rgb(97.7%,76.6%,66.2%);fill-opacity:1.0;stroke:none" width="11.5625" x="163.0625" y="238.4375" /><rect height="11.5625" style="fill:rgb(83.9%,37.6%,30.2%);fill-opacity:1.0;stroke:none" width="11.5625" x="175.625" y="238.4375" /><rect height="11.5625" style="fill:rgb(88.8%,48.8%,38.7%);fill-opacity:1.0;stroke:none" width="11.5625" x="188.1875" y="238.4375" /><rect height="11.5625" style="fill:rgb(86.1%,42.7%,34.1%);fill-opacity:1.0;stroke:none" width="11.5625" x="200.75" y="238.4375" /><rect height="11.5625" style="fill:rgb(87.2%,45.1%,35.9%);fill-opacity:1.0;stroke:none" width="11.5625" x="213.3125" y="238.4375" /><rect height="11.5625" style="fill:rgb(78.4%,26.7%,25%);fill-opacity:1.0;stroke:none" width="11.5625" x="225.875" y="238.4375" /><rect height="11.5625" style="fill:rgb(50.2%,50.2%,50.2%);fill-opacity:1.0;stroke:none" width="11.5625" x="238.4375" y="238.4375" /></g><g class="toyplot-coordinates-Numberline" id="t1912458793594e61899cf4c6c4f97d86"><clipPath id="ta6606ed1841d4772838b150ad00ba47a"><rect height="40.0" width="200.0" x="0" y="-20.0" /></clipPath><g clip-path="url(#ta6606ed1841d4772838b150ad00ba47a)" transform="translate(270.0,250.0)rotate(-90.0)"><g class="toyplot-color-Map" id="t28f51ae620c94152a59a6b584cb091c0"><defs><linearGradient gradientUnits="userSpaceOnUse" id="te322c4f496994db09d956c2acb4be580" x1="0.0" x2="200.0" y1="0" y2="0"><stop offset="0.0" stop-color="rgb(1.96%,18.8%,38%)" stop-opacity="1.0" /><stop offset="0.015873015873015872" stop-color="rgb(3.7%,22.2%,42.7%)" stop-opacity="1.0" /><stop offset="0.031746031746031744" stop-color="rgb(5.45%,25.5%,47.4%)" stop-opacity="1.0" /><stop offset="0.04761904761904763" stop-color="rgb(7.19%,28.9%,52%)" stop-opacity="1.0" /><stop offset="0.06349206349206349" stop-color="rgb(8.93%,32.3%,56.7%)" stop-opacity="1.0" /><stop offset="0.07936507936507937" stop-color="rgb(10.7%,35.6%,61.4%)" stop-opacity="1.0" /><stop offset="0.09523809523809526" stop-color="rgb(12.4%,39%,66.1%)" stop-opacity="1.0" /><stop offset="0.11111111111111112" stop-color="rgb(14.4%,42%,68.5%)" stop-opacity="1.0" /><stop offset="0.12698412698412698" stop-color="rgb(16.5%,44.8%,69.9%)" stop-opacity="1.0" /><stop offset="0.14285714285714288" stop-color="rgb(18.7%,47.6%,71.3%)" stop-opacity="1.0" /><stop offset="0.15873015873015875" stop-color="rgb(20.8%,50.4%,72.7%)" stop-opacity="1.0" /><stop offset="0.17460317460317465" stop-color="rgb(22.9%,53.2%,74.2%)" stop-opacity="1.0" /><stop offset="0.19047619047619052" stop-color="rgb(25%,56%,75.6%)" stop-opacity="1.0" /><stop offset="0.2063492063492064" stop-color="rgb(28.2%,58.9%,77.1%)" stop-opacity="1.0" /><stop offset="0.22222222222222224" stop-color="rgb(33.2%,62%,78.8%)" stop-opacity="1.0" /><stop offset="0.23809523809523814" stop-color="rgb(38.1%,65.1%,80.5%)" stop-opacity="1.0" /><stop offset="0.25396825396825395" stop-color="rgb(43%,68.2%,82.2%)" stop-opacity="1.0" /><stop offset="0.2698412698412699" stop-color="rgb(47.9%,71.3%,83.9%)" stop-opacity="1.0" /><stop offset="0.2857142857142857" stop-color="rgb(52.8%,74.5%,85.5%)" stop-opacity="1.0" /><stop offset="0.30158730158730157" stop-color="rgb(57.6%,77.5%,87.2%)" stop-opacity="1.0" /><stop offset="0.3174603174603175" stop-color="rgb(61.6%,79.4%,88.3%)" stop-opacity="1.0" /><stop offset="0.33333333333333337" stop-color="rgb(65.5%,81.4%,89.4%)" stop-opacity="1.0" /><stop offset="0.34920634920634924" stop-color="rgb(69.4%,83.4%,90.5%)" stop-opacity="1.0" /><stop offset="0.36507936507936506" stop-color="rgb(73.3%,85.4%,91.7%)" stop-opacity="1.0" /><stop offset="0.38095238095238104" stop-color="rgb(77.3%,87.4%,92.8%)" stop-opacity="1.0" /><stop offset="0.39682539682539686" stop-color="rgb(81.2%,89.4%,93.9%)" stop-opacity="1.0" /><stop offset="0.41269841269841273" stop-color="rgb(83.9%,90.7%,94.5%)" stop-opacity="1.0" /><stop offset="0.42857142857142855" stop-color="rgb(86.2%,91.8%,94.9%)" stop-opacity="1.0" /><stop offset="0.4444444444444445" stop-color="rgb(88.6%,92.9%,95.3%)" stop-opacity="1.0" /><stop offset="0.4603174603174603" stop-color="rgb(90.9%,94.1%,95.8%)" stop-opacity="1.0" /><stop offset="0.4761904761904762" stop-color="rgb(93.3%,95.2%,96.2%)" stop-opacity="1.0" /><stop offset="0.49206349206349204" stop-color="rgb(95.7%,96.3%,96.6%)" stop-opacity="1.0" /><stop offset="0.5079365079365079" stop-color="rgb(97%,96%,95.4%)" stop-opacity="1.0" /><stop offset="0.5238095238095238" stop-color="rgb(97.4%,94.2%,92.4%)" stop-opacity="1.0" /><stop offset="0.5396825396825398" stop-color="rgb(97.8%,92.5%,89.4%)" stop-opacity="1.0" /><stop offset="0.5555555555555556" stop-color="rgb(98.2%,90.8%,86.4%)" stop-opacity="1.0" /><stop offset="0.5714285714285714" stop-color="rgb(98.5%,89%,83.4%)" stop-opacity="1.0" /><stop offset="0.5873015873015873" stop-color="rgb(98.9%,87.3%,80.4%)" stop-opacity="1.0" /><stop offset="0.6031746031746031" stop-color="rgb(99.1%,85.2%,77.2%)" stop-opacity="1.0" /><stop offset="0.6190476190476191" stop-color="rgb(98.5%,81.8%,72.9%)" stop-opacity="1.0" /><stop offset="0.634920634920635" stop-color="rgb(98%,78.5%,68.6%)" stop-opacity="1.0" /><stop offset="0.6507936507936507" stop-color="rgb(97.4%,75.1%,64.3%)" stop-opacity="1.0" /><stop offset="0.6666666666666667" stop-color="rgb(96.9%,71.8%,60%)" stop-opacity="1.0" /><stop offset="0.6825396825396826" stop-color="rgb(96.3%,68.4%,55.7%)" stop-opacity="1.0" /><stop offset="0.6984126984126985" stop-color="rgb(95.7%,65%,51.4%)" stop-opacity="1.0" /><stop offset="0.7142857142857143" stop-color="rgb(94%,60.8%,48%)" stop-opacity="1.0" /><stop offset="0.7301587301587301" stop-color="rgb(92.1%,56.5%,44.7%)" stop-opacity="1.0" /><stop offset="0.746031746031746" stop-color="rgb(90.3%,52.3%,41.4%)" stop-opacity="1.0" /><stop offset="0.7619047619047621" stop-color="rgb(88.4%,48%,38.1%)" stop-opacity="1.0" /><stop offset="0.7777777777777779" stop-color="rgb(86.5%,43.7%,34.8%)" stop-opacity="1.0" /><stop offset="0.7936507936507937" stop-color="rgb(84.7%,39.4%,31.5%)" stop-opacity="1.0" /><stop offset="0.8095238095238095" stop-color="rgb(82.6%,35%,28.9%)" stop-opacity="1.0" /><stop offset="0.8253968253968255" stop-color="rgb(80.3%,30.5%,26.8%)" stop-opacity="1.0" /><stop offset="0.8412698412698413" stop-color="rgb(78.1%,26%,24.7%)" stop-opacity="1.0" /><stop offset="0.8571428571428571" stop-color="rgb(75.9%,21.5%,22.6%)" stop-opacity="1.0" /><stop offset="0.873015873015873" stop-color="rgb(73.6%,17%,20.5%)" stop-opacity="1.0" /><stop offset="0.888888888888889" stop-color="rgb(71.4%,12.5%,18.3%)" stop-opacity="1.0" /><stop offset="0.9047619047619048" stop-color="rgb(68.4%,8.96%,16.6%)" stop-opacity="1.0" /><stop offset="0.9206349206349206" stop-color="rgb(63.7%,7.47%,15.9%)" stop-opacity="1.0" /><stop offset="0.9365079365079364" stop-color="rgb(59.1%,5.98%,15.1%)" stop-opacity="1.0" /><stop offset="0.9523809523809524" stop-color="rgb(54.4%,4.48%,14.4%)" stop-opacity="1.0" /><stop offset="0.9682539682539684" stop-color="rgb(49.7%,2.99%,13.7%)" stop-opacity="1.0" /><stop offset="0.9841269841269841" stop-color="rgb(45.1%,1.49%,12.9%)" stop-opacity="1.0" /><stop offset="1.0" stop-color="rgb(40.4%,0%,12.2%)" stop-opacity="1.0" /></linearGradient></defs><rect height="10" style="fill:url(#te322c4f496994db09d956c2acb4be580);stroke:none;stroke-width:5" width="200.0" x="0.0" y="-5.0" /></g></g><g class="toyplot-coordinates-Axis" id="tf6b917390be44b919e0b63678ff2a26a" transform="translate(270.0,250.0)rotate(-90.0)translate(0,20.0)"><line style="" x1="0" x2="200.0" y1="0" y2="0" /><g><g transform="translate(13.399824765839321,6)"><text style="fill:rgb(16.1%,15.3%,14.1%);fill-opacity:1.0;font-family:helvetica;font-size:10.0px;font-weight:normal;stroke:none;vertical-align:baseline;white-space:pre" x="-6.95" y="8.555">0.1</text></g><g transform="translate(59.79945669868331,6)"><text style="fill:rgb(16.1%,15.3%,14.1%);fill-opacity:1.0;font-family:helvetica;font-size:10.0px;font-weight:normal;stroke:none;vertical-align:baseline;white-space:pre" x="-6.95" y="8.555">0.3</text></g><g transform="translate(106.19908863152727,6)"><text style="fill:rgb(16.1%,15.3%,14.1%);fill-opacity:1.0;font-family:helvetica;font-size:10.0px;font-weight:normal;stroke:none;vertical-align:baseline;white-space:pre" x="-6.95" y="8.555">0.5</text></g><g transform="translate(152.59872056437126,6)"><text style="fill:rgb(16.1%,15.3%,14.1%);fill-opacity:1.0;font-family:helvetica;font-size:10.0px;font-weight:normal;stroke:none;vertical-align:baseline;white-space:pre" x="-6.95" y="8.555">0.7</text></g><g transform="translate(198.9983524972152,6)"><text style="fill:rgb(16.1%,15.3%,14.1%);fill-opacity:1.0;font-family:helvetica;font-size:10.0px;font-weight:normal;stroke:none;vertical-align:baseline;white-space:pre" x="-6.95" y="8.555">0.9</text></g></g><g class="toyplot-coordinates-Axis-coordinates" style="visibility:hidden" transform=""><line style="stroke:rgb(43.9%,50.2%,56.5%);stroke-opacity:1.0;stroke-width:1.0" x1="0" x2="0" y1="-3.0" y2="4.5" /><text style="alignment-baseline:alphabetic;fill:rgb(43.9%,50.2%,56.5%);fill-opacity:1.0;font-size:10px;font-weight:normal;stroke:none;text-anchor:middle" x="0" y="-6" /></g></g></g></svg>