<svg class="toyplot-canvas-Canvas" height="300.0px" id="t31652189f184467e9053d36738cbc041" preserveAspectRatio="xMidYMid meet" style="background-color:transparent;border-color:#292724;border-style:none;border-width:1.0;fill:rgb(16.1%,15.3%,14.1%);fill-opacity:1.0;font-family:Helvetica;font-size:12px;opacity:1.0;stroke:rgb(16.1%,15.3%,14.1%);stroke-opacity:1.0;stroke-width:1.0" viewBox="0 0 320.0 300.0" width="320.0px" xmlns="http://www.w3.org/2000/svg" xmlns:toyplot="http://www.sandia.gov/toyplot" xmlns:xlink="http://www.w3.org/1999/xlink"><g class="toyplot-coordinates-Table" id="t246bc07149e24ed4bb397a19644abf73"><rect height="11.5625" style="fill:rgb(50.2%,50.2%,50.2%);fill-opacity:1.0;stroke:none" width="11.5625" x="50.0" y="50.0" /><rect height="11.5625" style="fill:rgb(72.8%,15.4%,19.7%);fill-opacity:1.0;stroke:none" width="11.5625" x="62.5625" y="50.0" /><rect height="11.5625" style="fill:rgb(88.5%,92.9%,95.3%);fill-opacity:1.0;stroke:none" width="11.5625" x="75.125" y="50.0" /><rect height="11.5625" style="fill:rgb(97.6%,93.5%,91.1%);fill-opacity:1.0;stroke:none" width="11.5625" x="87.6875" y="50.0" /><rect height="11.5625" style="fill:rgb(36.8%,64.3%,80.1%);fill-opacity:1.0;stroke:none" width="11.5625" x="100.25" y="50.0" /><rect height="11.5625" style="fill:rgb(31.6%,61%,78.3%);fill-opacity:1.0;stroke:none" width="11.5625" x="112.8125" y="50.0" /><rect height="11.5625" style="fill:rgb(46.9%,70.7%,83.5%);fill-opacity:1.0;stroke:none" width="11.5625" x="125.375" y="50.0" /><rect height="11.5625" style="fill:rgb(32.2%,61.4%,78.5%);fill-opacity:1.0;stroke:none" width="11.5625" x="137.9375" y="50.0" /><rect height="11.5625" style="fill:rgb(13.6%,40.9%,67.9%);fill-opacity:1.0;stroke:none" width="11.5625" x="150.5" y="50.0" /><rect height="11.5625" style="fill:rgb(6.5%,27.5%,50.1%);fill-opacity:1.0;stroke:none" width="11.5625" x="163.0625" y="50.0" /><rect height="11.5625" style="fill:rgb(17.6%,46.2%,70.6%);fill-opacity:1.0;stroke:none" width="11.5625" x="175.625" y="50.0" /><rect height="11.5625" style="fill:rgb(19.1%,48.1%,71.6%);fill-opacity:1.0;stroke:none" width="11.5625" x="188.1875" y="50.0" /><rect height="11.5625" style="fill:rgb(15.2%,43%,69%);fill-opacity:1.0;stroke:none" width="11.5625" x="200.75" y="50.0" /><rect height="11.5625" style="fill:rgb(12.1%,38.4%,65.2%);fill-opacity:1.0;stroke:none" width="11.5625" x="213.3125" y="50.0" /><rect height="11.5625" style="fill:rgb(14%,41.3%,68.1%);fill-opacity:1.0;stroke:none" width="11.5625" x="225.875" y="50.0" /><rect height="11.5625" style="fill:rgb(18.6%,47.5%,71.3%);fill-opacity:1.0;stroke:none" width="11.5625" x="238.4375" y="50.0" /><rect height="11.5625" style="fill:rgb(72.8%,15.4%,19.7%);fill-opacity:1.0;stroke:none" width="11.5625" x="50.0" y="62.5625" /><rect height="11.5625" style="fill:rgb(50.2%,50.2%,50.2%);fill-opacity:1.0;stroke:none" width="11.5625" x="62.5625" y="62.5625" /><rect height="11.5625" style="fill:rgb(64.6%,81%,89.2%);fill-opacity:1.0;stroke:none" width="11.5625" x="75.125" y="62.5625" /><rect height="11.5625" style="fill:rgb(91.1%,94.1%,95.8%);fill-opacity:1.0;stroke:none" width="11.5625" x="87.6875" y="62.5625" /><rect height="11.5625" style="fill:rgb(50.8%,73.2%,84.9%);fill-opacity:1.0;stroke:none" width="11.5625" x="100.25" y="62.5625" /><rect height="11.5625" style="fill:rgb(35.9%,63.7%,79.8%);fill-opacity:1.0;stroke:none" width="11.5625" x="112.8125" y="62.5625" /><rect height="11.5625" style="fill:rgb(60.8%,79.1%,88.1%);fill-opacity:1.0;stroke:none" width="11.5625" x="125.375" y="62.5625" /><rect height="11.5625" style="fill:rgb(38.9%,65.6%,80.8%);fill-opacity:1.0;stroke:none" width="11.5625" x="137.9375" y="62.5625" /><rect height="11.5625" style="fill:rgb(11.7%,37.6%,64%);fill-opacity:1.0;stroke:none" width="11.5625" x="150.5" y="62.5625" /><rect height="11.5625" style="fill:rgb(8.5%,31.4%,55.5%);fill-opacity:1.0;stroke:none" width="11.5625" x="163.0625" y="62.5625" /><rect height="11.5625" style="fill:rgb(21.4%,51.2%,73.2%);fill-opacity:1.0;stroke:none" width="11.5625" x="175.625" y="62.5625" /><rect height="11.5625" style="fill:rgb(12%,38.2%,65%);fill-opacity:1.0;stroke:none" width="11.5625" x="188.1875" y="62.5625" /><rect height="11.5625" style="fill:rgb(14.2%,41.6%,68.3%);fill-opacity:1.0;stroke:none" width="11.5625" x="200.75" y="62.5625" /><rect height="11.5625" style="fill:rgb(8.8%,32%,56.3%);fill-opacity:1.0;stroke:none" width="11.5625" x="213.3125" y="62.5625" /><rect height="11.5625" style="fill:rgb(16.2%,44.3%,69.6%);fill-opacity:1.0;stroke:none" width="11.5625" x="225.875" y="62.5625" /><rect height="11.5625" style="fill:rgb(15.7%,43.7%,69.3%);fill-opacity:1.0;stroke:none" width="11.5625" x="238.4375" y="62.5625" /><rect height="11.5625" style="fill:rgb(88.5%,92.9%,95.3%);fill-opacity:1.0;stroke:none" width="11.5625" x="50.0" y="75.125" /><rect height="11.5625" style="fill:rgb(64.6%,81%,89.2%);fill-opacity:1.0;stroke:none" width="11.5625" x="62.5625" y="75.125" /><rect height="11.5625" style="fill:rgb(50.2%,50.2%,50.2%);fill-opacity:1.0;stroke:none" width="11.5625" x="75.125" y="75.125" /><rect height="11.5625" style="fill:rgb(73%,15.7%,19.8%);fill-opacity:1.0;stroke:none" width="11.5625" x="87.6875" y="75.125" /><rect height="11.5625" style="fill:rgb(45.8%,70%,83.1%);fill-opacity:1.0;stroke:none" width="11.5625" x="100.25" y="75.125" /><rect height="11.5625" style="fill:rgb(55.5%,76.2%,86.5%);fill-opacity:1.0;stroke:none" width="11.5625" x="112.8125" y="75.125" /><rect height="11.5625" style="fill:rgb(32.4%,61.5%,78.6%);fill-opacity:1.0;stroke:none" width="11.5625" x="125.375" y="75.125" /><rect height="11.5625" style="fill:rgb(51.5%,73.6%,85.1%);fill-opacity:1.0;stroke:none" width="11.5625" x="137.9375" y="75.125" /><rect height="11.5625" style="fill:rgb(2.9%,20.6%,40.5%);fill-opacity:1.0;stroke:none" width="11.5625" x="150.5" y="75.125" /><rect height="11.5625" style="fill:rgb(3.8%,22.4%,43%);fill-opacity:1.0;stroke:none" width="11.5625" x="163.0625" y="75.125" /><rect height="11.5625" style="fill:rgb(6.9%,28.4%,51.3%);fill-opacity:1.0;stroke:none" width="11.5625" x="175.625" y="75.125" /><rect height="11.5625" style="fill:rgb(14.5%,42%,68.5%);fill-opacity:1.0;stroke:none" width="11.5625" x="188.1875" y="75.125" /><rect height="11.5625" style="fill:rgb(13.1%,40.2%,67.5%);fill-opacity:1.0;stroke:none" width="11.5625" x="200.75" y="75.125" /><rect height="11.5625" style="fill:rgb(14.5%,42.1%,68.5%);fill-opacity:1.0;stroke:none" width="11.5625" x="213.3125" y="75.125" /><rect height="11.5625" style="fill:rgb(22.6%,52.8%,74%);fill-opacity:1.0;stroke:none" width="11.5625" x="225.875" y="75.125" /><rect height="11.5625" style="fill:rgb(18.3%,47.2%,71.1%);fill-opacity:1.0;stroke:none" width="11.5625" x="238.4375" y="75.125" /><rect height="11.5625" style="fill:rgb(97.6%,93.5%,91.1%);fill-opacity:1.0;stroke:none" width="11.5625" x="50.0" y="87.6875" /><rect height="11.5625" style="fill:rgb(91.1%,94.1%,95.8%);fill-opacity:1.0;stroke:none" width="11.5625" x="62.5625" y="87.6875" /><rect height="11.5625" style="fill:rgb(73%,15.7%,19.8%);fill-opacity:1.0;stroke:none" width="11.5625" x="75.125" y="87.6875" /><rect height="11.5625" style="fill:rgb(50.2%,50.2%,50.2%);fill-opacity:1.0;stroke:none" width="11.5625" x="87.6875" y="87.6875" /><rect height="11.5625" style="fill:rgb(24.5%,55.3%,75.3%);fill-opacity:1.0;stroke:none" width="11.5625" x="100.25" y="87.6875" /><rect height="11.5625" style="fill:rgb(60.2%,78.7%,87.9%);fill-opacity:1.0;stroke:none" width="11.5625" x="112.8125" y="87.6875" /><rect height="11.5625" style="fill:rgb(26.2%,57.6%,76.4%);fill-opacity:1.0;stroke:none" width="11.5625" x="125.375" y="87.6875" /><rect height="11.5625" style="fill:rgb(38.4%,65.3%,80.6%);fill-opacity:1.0;stroke:none" width="11.5625" x="137.9375" y="87.6875" /><rect height="11.5625" style="fill:rgb(9.4%,33.2%,58%);fill-opacity:1.0;stroke:none" width="11.5625" x="150.5" y="87.6875" /><rect height="11.5625" style="fill:rgb(18.1%,46.8%,70.9%);fill-opacity:1.0;stroke:none" width="11.5625" x="163.0625" y="87.6875" /><rect height="11.5625" style="fill:rgb(16.4%,44.6%,69.8%);fill-opacity:1.0;stroke:none" width="11.5625" x="175.625" y="87.6875" /><rect height="11.5625" style="fill:rgb(28.1%,58.8%,77.1%);fill-opacity:1.0;stroke:none" width="11.5625" x="188.1875" y="87.6875" /><rect height="11.5625" style="fill:rgb(2%,18.8%,38%);fill-opacity:1.0;stroke:none" width="11.5625" x="200.75" y="87.6875" /><rect height="11.5625" style="fill:rgb(14.9%,42.5%,68.7%);fill-opacity:1.0;stroke:none" width="11.5625" x="213.3125" y="87.6875" /><rect height="11.5625" style="fill:rgb(12%,38.1%,64.8%);fill-opacity:1.0;stroke:none" width="11.5625" x="225.875" y="87.6875" /><rect height="11.5625" style="fill:rgb(3.9%,22.5%,43.1%);fill-opacity:1.0;stroke:none" width="11.5625" x="238.4375" y="87.6875" /><rect height="11.5625" style="fill:rgb(36.8%,64.3%,80.1%);fill-opacity:1.0;stroke:none" width="11.5625" x="50.0" y="100.25" /><rect height="11.5625" style="fill:rgb(50.8%,73.2%,84.9%);fill-opacity:1.0;stroke:none" width="11.5625" x="62.5625" y="100.25" /><rect height="11.5625" style="fill:rgb(45.8%,70%,83.1%);fill-opacity:1.0;stroke:none" width="11.5625" x="75.125" y="100.25" /><rect height="11.5625" style="fill:rgb(24.5%,55.3%,75.3%);fill-opacity:1.0;stroke:none" width="11.5625" x="87.6875" y="100.25" /><rect height="11.5625" style="fill:rgb(50.2%,50.2%,50.2%);fill-opacity:1.0;stroke:none" width="11.5625" x="100.25" y="100.25" /><rect height="11.5625" style="fill:rgb(67.9%,8.8%,16.6%);fill-opacity:1.0;stroke:none" width="11.5625" x="112.8125" y="100.25" /><rect height="11.5625" style="fill:rgb(89.5%,93.4%,95.5%);fill-opacity:1.0;stroke:none" width="11.5625" x="125.375" y="100.25" /><rect height="11.5625" style="fill:rgb(84.1%,90.8%,94.5%);fill-opacity:1.0;stroke:none" width="11.5625" x="137.9375" y="100.25" /><rect height="11.5625" style="fill:rgb(8.8%,32%,56.3%);fill-opacity:1.0;stroke:none" width="11.5625" x="150.5" y="100.25" /><rect height="11.5625" style="fill:rgb(16.8%,45.1%,70.1%);fill-opacity:1.0;stroke:none" width="11.5625" x="163.0625" y="100.25" /><rect height="11.5625" style="fill:rgb(9.6%,33.5%,58.4%);fill-opacity:1.0;stroke:none" width="11.5625" x="175.625" y="100.25" /><rect height="11.5625" style="fill:rgb(10.2%,34.8%,60.2%);fill-opacity:1.0;stroke:none" width="11.5625" x="188.1875" y="100.25" /><rect height="11.5625" style="fill:rgb(7.1%,28.7%,51.8%);fill-opacity:1.0;stroke:none" width="11.5625" x="200.75" y="100.25" /><rect height="11.5625" style="fill:rgb(8.7%,31.8%,56.1%);fill-opacity:1.0;stroke:none" width="11.5625" x="213.3125" y="100.25" /><rect height="11.5625" style="fill:rgb(7.2%,29%,52.2%);fill-opacity:1.0;stroke:none" width="11.5625" x="225.875" y="100.25" /><rect height="11.5625" style="fill:rgb(10.5%,35.4%,61%);fill-opacity:1.0;stroke:none" width="11.5625" x="238.4375" y="100.25" /><rect height="11.5625" style="fill:rgb(31.6%,61%,78.3%);fill-opacity:1.0;stroke:none" width="11.5625" x="50.0" y="112.8125" /><rect height="11.5625" style="fill:rgb(35.9%,63.7%,79.8%);fill-opacity:1.0;stroke:none" width="11.5625" x="62.5625" y="112.8125" /><rect height="11.5625" style="fill:rgb(55.5%,76.2%,86.5%);fill-opacity:1.0;stroke:none" width="11.5625" x="75.125" y="112.8125" /><rect height="11.5625" style="fill:rgb(60.2%,78.7%,87.9%);fill-opacity:1.0;stroke:none" width="11.5625" x="87.6875" y="112.8125" /><rect height="11.5625" style="fill:rgb(67.9%,8.8%,16.6%);fill-opacity:1.0;stroke:none" width="11.5625" x="100.25" y="112.8125" /><rect height="11.5625" style="fill:rgb(50.2%,50.2%,50.2%);fill-opacity:1.0;stroke:none" width="11.5625" x="112.8125" y="112.8125" /><rect height="11.5625" style="fill:rgb(96.5%,96.7%,96.8%);fill-opacity:1.0;stroke:none" width="11.5625" x="125.375" y="112.8125" /><rect height="11.5625" style="fill:rgb(80.6%,89.1%,93.7%);fill-opacity:1.0;stroke:none" width="11.5625" x="137.9375" y="112.8125" /><rect height="11.5625" style="fill:rgb(2.5%,19.9%,39.6%);fill-opacity:1.0;stroke:none" width="11.5625" x="150.5" y="112.8125" /><rect height="11.5625" style="fill:rgb(9.1%,32.5%,57.1%);fill-opacity:1.0;stroke:none" width="11.5625" x="163.0625" y="112.8125" /><rect height="11.5625" style="fill:rgb(13%,40.1%,67.5%);fill-opacity:1.0;stroke:none" width="11.5625" x="175.625" y="112.8125" /><rect height="11.5625" style="fill:rgb(13.5%,40.7%,67.8%);fill-opacity:1.0;stroke:none" width="11.5625" x="188.1875" y="112.8125" /><rect height="11.5625" style="fill:rgb(2.3%,19.4%,38.9%);fill-opacity:1.0;stroke:none" width="11.5625" x="200.75" y="112.8125" /><rect height="11.5625" style="fill:rgb(10.8%,35.8%,61.7%);fill-opacity:1.0;stroke:none" width="11.5625" x="213.3125" y="112.8125" /><rect height="11.5625" style="fill:rgb(10.9%,36%,61.9%);fill-opacity:1.0;stroke:none" width="11.5625" x="225.875" y="112.8125" /><rect height="11.5625" style="fill:rgb(8.2%,30.9%,54.8%);fill-opacity:1.0;stroke:none" width="11.5625" x="238.4375" y="112.8125" /><rect height="11.5625" style="fill:rgb(46.9%,70.7%,83.5%);fill-opacity:1.0;stroke:none" width="11.5625" x="50.0" y="125.375" /><rect height="11.5625" style="fill:rgb(60.8%,79.1%,88.1%);fill-opacity:1.0;stroke:none" width="11.5625" x="62.5625" y="125.375" /><rect height="11.5625" style="fill:rgb(32.4%,61.5%,78.6%);fill-opacity:1.0;stroke:none" width="11.5625" x="75.125" y="125.375" /><rect height="11.5625" style="fill:rgb(26.2%,57.6%,76.4%);fill-opacity:1.0;stroke:none" width="11.5625" x="87.6875" y="125.375" /><rect height="11.5625" style="fill:rgb(89.5%,93.4%,95.5%);fill-opacity:1.0;stroke:none" width="11.5625" x="100.25" y="125.375" /><rect height="11.5625" style="fill:rgb(96.5%,96.7%,96.8%);fill-opacity:1.0;stroke:none" width="11.5625" x="112.8125" y="125.375" /><rect height="11.5625" style="fill:rgb(50.2%,50.2%,50.2%);fill-opacity:1.0;stroke:none" width="11.5625" x="125.375" y="125.375" /><rect height="11.5625" style="fill:rgb(74.4%,18.6%,21.2%);fill-opacity:1.0;stroke:none" width="11.5625" x="137.9375" y="125.375" /><rect height="11.5625" style="fill:rgb(11.9%,38%,64.7%);fill-opacity:1.0;stroke:none" width="11.5625" x="150.5" y="125.375" /><rect height="11.5625" style="fill:rgb(9.7%,33.7%,58.7%);fill-opacity:1.0;stroke:none" width="11.5625" x="163.0625" y="125.375" /><rect height="11.5625" style="fill:rgb(8.1%,30.7%,54.5%);fill-opacity:1.0;stroke:none" width="11.5625" x="175.625" y="125.375" /><rect height="11.5625" style="fill:rgb(11.5%,37.1%,63.5%);fill-opacity:1.0;stroke:none" width="11.5625" x="188.1875" y="125.375" /><rect height="11.5625" style="fill:rgb(10%,34.3%,59.5%);fill-opacity:1.0;stroke:none" width="11.5625" x="200.75" y="125.375" /><rect height="11.5625" style="fill:rgb(20.8%,50.4%,72.8%);fill-opacity:1.0;stroke:none" width="11.5625" x="213.3125" y="125.375" /><rect height="11.5625" style="fill:rgb(11.6%,37.4%,63.8%);fill-opacity:1.0;stroke:none" width="11.5625" x="225.875" y="125.375" /><rect height="11.5625" style="fill:rgb(9.7%,33.8%,58.9%);fill-opacity:1.0;stroke:none" width="11.5625" x="238.4375" y="125.375" /><rect height="11.5625" style="fill:rgb(32.2%,61.4%,78.5%);fill-opacity:1.0;stroke:none" width="11.5625" x="50.0" y="137.9375" /><rect height="11.5625" style="fill:rgb(38.9%,65.6%,80.8%);fill-opacity:1.0;stroke:none" width="11.5625" x="62.5625" y="137.9375" /><rect height="11.5625" style="fill:rgb(51.5%,73.6%,85.1%);fill-opacity:1.0;stroke:none" width="11.5625" x="75.125" y="137.9375" /><rect height="11.5625" style="fill:rgb(38.4%,65.3%,80.6%);fill-opacity:1.0;stroke:none" width="11.5625" x="87.6875" y="137.9375" /><rect height="11.5625" style="fill:rgb(84.1%,90.8%,94.5%);fill-opacity:1.0;stroke:none" width="11.5625" x="100.25" y="137.9375" /><rect height="11.5625" style="fill:rgb(80.6%,89.1%,93.7%);fill-opacity:1.0;stroke:none" width="11.5625" x="112.8125" y="137.9375" /><rect height="11.5625" style="fill:rgb(74.4%,18.6%,21.2%);fill-opacity:1.0;stroke:none" width="11.5625" x="125.375" y="137.9375" /><rect height="11.5625" style="fill:rgb(50.2%,50.2%,50.2%);fill-opacity:1.0;stroke:none" width="11.5625" x="137.9375" y="137.9375" /><rect height="11.5625" style="fill:rgb(10.2%,34.8%,60.2%);fill-opacity:1.0;stroke:none" width="11.5625" x="150.5" y="137.9375" /><rect height="11.5625" style="fill:rgb(11.7%,37.6%,64.2%);fill-opacity:1.0;stroke:none" width="11.5625" x="163.0625" y="137.9375" /><rect height="11.5625" style="fill:rgb(14.1%,41.5%,68.2%);fill-opacity:1.0;stroke:none" width="11.5625" x="175.625" y="137.9375" /><rect height="11.5625" style="fill:rgb(11.1%,36.5%,62.6%);fill-opacity:1.0;stroke:none" width="11.5625" x="188.1875" y="137.9375" /><rect height="11.5625" style="fill:rgb(10.7%,35.7%,61.5%);fill-opacity:1.0;stroke:none" width="11.5625" x="200.75" y="137.9375" /><rect height="11.5625" style="fill:rgb(16.1%,44.2%,69.6%);fill-opacity:1.0;stroke:none" width="11.5625" x="213.3125" y="137.9375" /><rect height="11.5625" style="fill:rgb(10.6%,35.5%,61.2%);fill-opacity:1.0;stroke:none" width="11.5625" x="225.875" y="137.9375" /><rect height="11.5625" style="fill:rgb(10.2%,34.8%,60.2%);fill-opacity:1.0;stroke:none" width="11.5625" x="238.4375" y="137.9375" /><rect height="11.5625" style="fill:rgb(13.6%,40.9%,67.9%);fill-opacity:1.0;stroke:none" width="11.5625" x="50.0" y="150.5" /><rect height="11.5625" style="fill:rgb(11.7%,37.6%,64%);fill-opacity:1.0;stroke:none" width="11.5625" x="62.5625" y="150.5" /><rect height="11.5625" style="fill:rgb(2.9%,20.6%,40.5%);fill-opacity:1.0;stroke:none" width="11.5625" x="75.125" y="150.5" /><rect height="11.5625" style="fill:rgb(9.4%,33.2%,58%);fill-opacity:1.0;stroke:none" width="11.5625" x="87.6875" y="150.5" /><rect height="11.5625" style="fill:rgb(8.8%,32%,56.3%);fill-opacity:1.0;stroke:none" width="11.5625" x="100.25" y="150.5" /><rect height="11.5625" style="fill:rgb(2.5%,19.9%,39.6%);fill-opacity:1.0;stroke:none" width="11.5625" x="112.8125" y="150.5" /><rect height="11.5625" style="fill:rgb(11.9%,38%,64.7%);fill-opacity:1.0;stroke:none" width="11.5625" x="125.375" y="150.5" /><rect height="11.5625" style="fill:rgb(10.2%,34.8%,60.2%);fill-opacity:1.0;stroke:none" width="11.5625" x="137.9375" y="150.5" /><rect height="11.5625" style="fill:rgb(50.2%,50.2%,50.2%);fill-opacity:1.0;stroke:none" width="11.5625" x="150.5" y="150.5" /><rect height="11.5625" style="fill:rgb(61.3%,6.7%,15.5%);fill-opacity:1.0;stroke:none" width="11.5625" x="163.0625" y="150.5" /><rect height="11.5625" style="fill:rgb(92.8%,95%,96.1%);fill-opacity:1.0;stroke:none" width="11.5625" x="175.625" y="150.5" /><rect height="11.5625" style="fill:rgb(98.1%,90.9%,86.7%);fill-opacity:1.0;stroke:none" width="11.5625" x="188.1875" y="150.5" /><rect height="11.5625" style="fill:rgb(29.6%,59.7%,77.6%);fill-opacity:1.0;stroke:none" width="11.5625" x="200.75" y="150.5" /><rect height="11.5625" style="fill:rgb(24.8%,55.6%,75.4%);fill-opacity:1.0;stroke:none" width="11.5625" x="213.3125" y="150.5" /><rect height="11.5625" style="fill:rgb(25.7%,56.9%,76.1%);fill-opacity:1.0;stroke:none" width="11.5625" x="225.875" y="150.5" /><rect height="11.5625" style="fill:rgb(30.8%,60.5%,78%);fill-opacity:1.0;stroke:none" width="11.5625" x="238.4375" y="150.5" /><rect height="11.5625" style="fill:rgb(6.5%,27.5%,50.1%);fill-opacity:1.0;stroke:none" width="11.5625" x="50.0" y="163.0625" /><rect height="11.5625" style="fill:rgb(8.5%,31.4%,55.5%);fill-opacity:1.0;stroke:none" width="11.5625" x="62.5625" y="163.0625" /><rect height="11.5625" style="fill:rgb(3.8%,22.4%,43%);fill-opacity:1.0;stroke:none" width="11.5625" x="75.125" y="163.0625" /><rect height="11.5625" style="fill:rgb(18.1%,46.8%,70.9%);fill-opacity:1.0;stroke:none" width="11.5625" x="87.6875" y="163.0625" /><rect height="11.5625" style="fill:rgb(16.8%,45.1%,70.1%);fill-opacity:1.0;stroke:none" width="11.5625" x="100.25" y="163.0625" /><rect height="11.5625" style="fill:rgb(9.1%,32.5%,57.1%);fill-opacity:1.0;stroke:none" width="11.5625" x="112.8125" y="163.0625" /><rect height="11.5625" style="fill:rgb(9.7%,33.7%,58.7%);fill-opacity:1.0;stroke:none" width="11.5625" x="125.375" y="163.0625" /><rect height="11.5625" style="fill:rgb(11.7%,37.6%,64.2%);fill-opacity:1.0;stroke:none" width="11.5625" x="137.9375" y="163.0625" /><rect height="11.5625" style="fill:rgb(61.3%,6.7%,15.5%);fill-opacity:1.0;stroke:none" width="11.5625" x="150.5" y="163.0625" /><rect height="11.5625" style="fill:rgb(50.2%,50.2%,50.2%);fill-opacity:1.0;stroke:none" width="11.5625" x="163.0625" y="163.0625" /><rect height="11.5625" style="fill:rgb(96.5%,96.7%,96.8%);fill-opacity:1.0;stroke:none" width="11.5625" x="175.625" y="163.0625" /><rect height="11.5625" style="fill:rgb(97.8%,92.3%,89%);fill-opacity:1.0;stroke:none" width="11.5625" x="188.1875" y="163.0625" /><rect height="11.5625" style="fill:rgb(50.9%,73.2%,84.9%);fill-opacity:1.0;stroke:none" width="11.5625" x="200.75" y="163.0625" /><rect height="11.5625" style="fill:rgb(23%,53.4%,74.3%);fill-opacity:1.0;stroke:none" width="11.5625" x="213.3125" y="163.0625" /><rect height="11.5625" style="fill:rgb(38.7%,65.5%,80.7%);fill-opacity:1.0;stroke:none" width="11.5625" x="225.875" y="163.0625" /><rect height="11.5625" style="fill:rgb(47.8%,71.3%,83.8%);fill-opacity:1.0;stroke:none" width="11.5625" x="238.4375" y="163.0625" /><rect height="11.5625" style="fill:rgb(17.6%,46.2%,70.6%);fill-opacity:1.0;stroke:none" width="11.5625" x="50.0" y="175.625" /><rect height="11.5625" style="fill:rgb(21.4%,51.2%,73.2%);fill-opacity:1.0;stroke:none" width="11.5625" x="62.5625" y="175.625" /><rect height="11.5625" style="fill:rgb(6.9%,28.4%,51.3%);fill-opacity:1.0;stroke:none" width="11.5625" x="75.125" y="175.625" /><rect height="11.5625" style="fill:rgb(16.4%,44.6%,69.8%);fill-opacity:1.0;stroke:none" width="11.5625" x="87.6875" y="175.625" /><rect height="11.5625" style="fill:rgb(9.6%,33.5%,58.4%);fill-opacity:1.0;stroke:none" width="11.5625" x="100.25" y="175.625" /><rect height="11.5625" style="fill:rgb(13%,40.1%,67.5%);fill-opacity:1.0;stroke:none" width="11.5625" x="112.8125" y="175.625" /><rect height="11.5625" style="fill:rgb(8.1%,30.7%,54.5%);fill-opacity:1.0;stroke:none" width="11.5625" x="125.375" y="175.625" /><rect height="11.5625" style="fill:rgb(14.1%,41.5%,68.2%);fill-opacity:1.0;stroke:none" width="11.5625" x="137.9375" y="175.625" /><rect height="11.5625" style="fill:rgb(92.8%,95%,96.1%);fill-opacity:1.0;stroke:none" width="11.5625" x="150.5" y="175.625" /><rect height="11.5625" style="fill:rgb(96.5%,96.7%,96.8%);fill-opacity:1.0;stroke:none" width="11.5625" x="163.0625" y="175.625" /><rect height="11.5625" style="fill:rgb(50.2%,50.2%,50.2%);fill-opacity:1.0;stroke:none" width="11.5625" x="175.625" y="175.625" /><rect height="11.5625" style="fill:rgb(40.4%,0%,12.2%);fill-opacity:1.0;stroke:none" width="11.5625" x="188.1875" y="175.625" /><rect height="11.5625" style="fill:rgb(22.4%,52.5%,73.8%);fill-opacity:1.0;stroke:none" width="11.5625" x="200.75" y="175.625" /><rect height="11.5625" style="fill:rgb(41.9%,67.5%,81.8%);fill-opacity:1.0;stroke:none" width="11.5625" x="213.3125" y="175.625" /><rect height="11.5625" style="fill:rgb(54.2%,75.3%,86%);fill-opacity:1.0;stroke:none" width="11.5625" x="225.875" y="175.625" /><rect height="11.5625" style="fill:rgb(46.6%,70.5%,83.4%);fill-opacity:1.0;stroke:none" width="11.5625" x="238.4375" y="175.625" /><rect height="11.5625" style="fill:rgb(19.1%,48.1%,71.6%);fill-opacity:1.0;stroke:none" width="11.5625" x="50.0" y="188.1875" /><rect height="11.5625" style="fill:rgb(12%,38.2%,65%);fill-opacity:1.0;stroke:none" width="11.5625" x="62.5625" y="188.1875" /><rect height="11.5625" style="fill:rgb(14.5%,42%,68.5%);fill-opacity:1.0;stroke:none" width="11.5625" x="75.125" y="188.1875" /><rect height="11.5625" style="fill:rgb(28.1%,58.8%,77.1%);fill-opacity:1.0;stroke:none" width="11.5625" x="87.6875" y="188.1875" /><rect height="11.5625" style="fill:rgb(10.2%,34.8%,60.2%);fill-opacity:1.0;stroke:none" width="11.5625" x="100.25" y="188.1875" /><rect height="11.5625" style="fill:rgb(13.5%,40.7%,67.8%);fill-opacity:1.0;stroke:none" width="11.5625" x="112.8125" y="188.1875" /><rect height="11.5625" style="fill:rgb(11.5%,37.1%,63.5%);fill-opacity:1.0;stroke:none" width="11.5625" x="125.375" y="188.1875" /><rect height="11.5625" style="fill:rgb(11.1%,36.5%,62.6%);fill-opacity:1.0;stroke:none" width="11.5625" x="137.9375" y="188.1875" /><rect height="11.5625" style="fill:rgb(98.1%,90.9%,86.7%);fill-opacity:1.0;stroke:none" width="11.5625" x="150.5" y="188.1875" /><rect height="11.5625" style="fill:rgb(97.8%,92.3%,89%);fill-opacity:1.0;stroke:none" width="11.5625" x="163.0625" y="188.1875" /><rect height="11.5625" style="fill:rgb(40.4%,0%,12.2%);fill-opacity:1.0;stroke:none" width="11.5625" x="175.625" y="188.1875" /><rect height="11.5625" style="fill:rgb(50.2%,50.2%,50.2%);fill-opacity:1.0;stroke:none" width="11.5625" x="188.1875" y="188.1875" /><rect height="11.5625" style="fill:rgb(43%,68.2%,82.2%);fill-opacity:1.0;stroke:none" width="11.5625" x="200.75" y="188.1875" /><rect height="11.5625" style="fill:rgb(31.5%,61%,78.3%);fill-opacity:1.0;stroke:none" width="11.5625" x="213.3125" y="188.1875" /><rect height="11.5625" style="fill:rgb(52%,73.9%,85.3%);fill-opacity:1.0;stroke:none" width="11.5625" x="225.875" y="188.1875" /><rect height="11.5625" style="fill:rgb(57.1%,77.1%,87%);fill-opacity:1.0;stroke:none" width="11.5625" x="238.4375" y="188.1875" /><rect height="11.5625" style="fill:rgb(15.2%,43%,69%);fill-opacity:1.0;stroke:none" width="11.5625" x="50.0" y="200.75" /><rect height="11.5625" style="fill:rgb(14.2%,41.6%,68.3%);fill-opacity:1.0;stroke:none" width="11.5625" x="62.5625" y="200.75" /><rect height="11.5625" style="fill:rgb(13.1%,40.2%,67.5%);fill-opacity:1.0;stroke:none" width="11.5625" x="75.125" y="200.75" /><rect height="11.5625" style="fill:rgb(2%,18.8%,38%);fill-opacity:1.0;stroke:none" width="11.5625" x="87.6875" y="200.75" /><rect height="11.5625" style="fill:rgb(7.1%,28.7%,51.8%);fill-opacity:1.0;stroke:none" width="11.5625" x="100.25" y="200.75" /><rect height="11.5625" style="fill:rgb(2.3%,19.4%,38.9%);fill-opacity:1.0;stroke:none" width="11.5625" x="112.8125" y="200.75" /><rect height="11.5625" style="fill:rgb(10%,34.3%,59.5%);fill-opacity:1.0;stroke:none" width="11.5625" x="125.375" y="200.75" /><rect height="11.5625" style="fill:rgb(10.7%,35.7%,61.5%);fill-opacity:1.0;stroke:none" width="11.5625" x="137.9375" y="200.75" /><rect height="11.5625" style="fill:rgb(29.6%,59.7%,77.6%);fill-opacity:1.0;stroke:none" width="11.5625" x="150.5" y="200.75" /><rect height="11.5625" style="fill:rgb(50.9%,73.2%,84.9%);fill-opacity:1.0;stroke:none" width="11.5625" x="163.0625" y="200.75" /><rect height="11.5625" style="fill:rgb(22.4%,52.5%,73.8%);fill-opacity:1.0;stroke:none" width="11.5625" x="175.625" y="200.75" /><rect height="11.5625" style="fill:rgb(43%,68.2%,82.2%);fill-opacity:1.0;stroke:none" width="11.5625" x="188.1875" y="200.75" /><rect height="11.5625" style="fill:rgb(50.2%,50.2%,50.2%);fill-opacity:1.0;stroke:none" width="11.5625" x="200.75" y="200.75" /><rect height="11.5625" style="fill:rgb(43.2%,0.9%,12.6%);fill-opacity:1.0;stroke:none" width="11.5625" x="213.3125" y="200.75" /><rect height="11.5625" style="fill:rgb(96.8%,96.8%,96.8%);fill-opacity:1.0;stroke:none" width="11.5625" x="225.875" y="200.75" /><rect height="11.5625" style="fill:rgb(99%,84.6%,76.4%);fill-opacity:1.0;stroke:none" width="11.5625" x="238.4375" y="200.75" /><rect height="11.5625" style="fill:rgb(12.1%,38.4%,65.2%);fill-opacity:1.0;stroke:none" width="11.5625" x="50.0" y="213.3125" /><rect height="11.5625" style="fill:rgb(8.8%,32%,56.3%);fill-opacity:1.0;stroke:none" width="11.5625" x="62.5625" y="213.3125" /><rect height="11.5625" style="fill:rgb(14.5%,42.1%,68.5%);fill-opacity:1.0;stroke:none" width="11.5625" x="75.125" y="213.3125" /><rect height="11.5625" style="fill:rgb(14.9%,42.5%,68.7%);fill-opacity:1.0;stroke:none" width="11.5625" x="87.6875" y="213.3125" /><rect height="11.5625" style="fill:rgb(8.7%,31.8%,56.1%);fill-opacity:1.0;stroke:none" width="11.5625" x="100.25" y="213.3125" /><rect height="11.5625" style="fill:rgb(10.8%,35.8%,61.7%);fill-opacity:1.0;stroke:none" width="11.5625" x="112.8125" y="213.3125" /><rect height="11.5625" style="fill:rgb(20.8%,50.4%,72.8%);fill-opacity:1.0;stroke:none" width="11.5625" x="125.375" y="213.3125" /><rect height="11.5625" style="fill:rgb(16.1%,44.2%,69.6%);fill-opacity:1.0;stroke:none" width="11.5625" x="137.9375" y="213.3125" /><rect height="11.5625" style="fill:rgb(24.8%,55.6%,75.4%);fill-opacity:1.0;stroke:none" width="11.5625" x="150.5" y="213.3125" /><rect height="11.5625" style="fill:rgb(23%,53.4%,74.3%);fill-opacity:1.0;stroke:none" width="11.5625" x="163.0625" y="213.3125" /><rect height="11.5625" style="fill:rgb(41.9%,67.5%,81.8%);fill-opacity:1.0;stroke:none" width="11.5625" x="175.625" y="213.3125" /><rect height="11.5625" style="fill:rgb(31.5%,61%,78.3%);fill-opacity:1.0;stroke:none" width="11.5625" x="188.1875" y="213.3125" /><rect height="11.5625" style="fill:rgb(43.2%,0.9%,12.6%);fill-opacity:1.0;stroke:none" width="11.5625" x="200.75" y="213.3125" /><rect height="11.5625" style="fill:rgb(50.2%,50.2%,50.2%);fill-opacity:1.0;stroke:none" width="11.5625" x="213.3125" y="213.3125" /><rect height="11.5625" style="fill:rgb(98.1%,91.3%,87.3%);fill-opacity:1.0;stroke:none" width="11.5625" x="225.875" y="213.3125" /><rect height="11.5625" style="fill:rgb(98.7%,88.5%,82.5%);fill-opacity:1.0;stroke:none" width="11.5625" x="238.4375" y="213.3125" /><rect height="11.5625" style="fill:rgb(14%,41.3%,68.1%);fill-opacity:1.0;stroke:none" width="11.5625" x="50.0" y="225.875" /><rect height="11.5625" style="fill:rgb(16.2%,44.3%,69.6%);fill-opacity:1.0;stroke:none" width="11.5625" x="62.5625" y="225.875" /><rect height="11.5625" style="fill:rgb(22.6%,52.8%,74%);fill-opacity:1.0;stroke:none" width="11.5625" x="75.125" y="225.875" /><rect height="11.5625" style="fill:rgb(12%,38.1%,64.8%);fill-opacity:1.0;stroke:none" width="11.5625" x="87.6875" y="225.875" /><rect height="11.5625" style="fill:rgb(7.2%,29%,52.2%);fill-opacity:1.0;stroke:none" width="11.5625" x="100.25" y="225.875" /><rect height="11.5625" style="fill:rgb(10.9%,36%,61.9%);fill-opacity:1.0;stroke:none" width="11.5625" x="112.8125" y="225.875" /><rect height="11.5625" style="fill:rgb(11.6%,37.4%,63.8%);fill-opacity:1.0;stroke:none" width="11.5625" x="125.375" y="225.875" /><rect height="11.5625" style="fill:rgb(10.6%,35.5%,61.2%);fill-opacity:1.0;stroke:none" width="11.5625" x="137.9375" y="225.875" /><rect height="11.5625" style="fill:rgb(25.7%,56.9%,76.1%);fill-opacity:1.0;stroke:none" width="11.5625" x="150.5" y="225.875" /><rect height="11.5625" style="fill:rgb(38.7%,65.5%,80.7%);fill-opacity:1.0;stroke:none" width="11.5625" x="163.0625" y="225.875" /><rect height="11.5625" style="fill:rgb(54.2%,75.3%,86%);fill-opacity:1.0;stroke:none" width="11.5625" x="175.625" y="225.875" /><rect height="11.5625" style="fill:rgb(52%,73.9%,85.3%);fill-opacity:1.0;stroke:none" width="11.5625" x="188.1875" y="225.875" /><rect height="11.5625" style="fill:rgb(96.8%,96.8%,96.8%);fill-opacity:1.0;stroke:none" width="11.5625" x="200.75" y="225.875" /><rect height="11.5625" style="fill:rgb(98.1%,91.3%,87.3%);fill-opacity:1.0;stroke:none" width="11.5625" x="213.3125" y="225.875" /><rect height="11.5625" style="fill:rgb(50.2%,50.2%,50.2%);fill-opacity:1.0;stroke:none" width="11.5625" x="225.875" y="225.875" /><rect height="11.5625" style="fill:rgb(77.2%,24.3%,23.9%);fill-opacity:1.0;stroke:none" width="11.5625" x="238.4375" y="225.875" /><rect height="11.5625" style="fill:rgb(18.6%,47.5%,71.3%);fill-opacity:1.0;stroke:none" width="11.5625" x="50.0" y="238.4375" /><rect height="11.5625" style="fill:rgb(15.7%,43.7%,69.3%);fill-opacity:1.0;stroke:none" width="11.5625" x="62.5625" y="238.4375" /><rect height="11.5625" style="fill:rgb(18.3%,47.2%,71.1%);fill-opacity:1.0;stroke:none" width="11.5625" x="75.125" y="238.4375" /><rect height="11.5625" style="fill:rgb(3.9%,22.5%,43.1%);fill-opacity:1.0;stroke:none" width="11.5625" x="87.6875" y="238.4375" /><rect height="11.5625" style="fill:rgb(10.5%,35.4%,61%);fill-opacity:1.0;stroke:none" width="11.5625" x="100.25" y="238.4375" /><rect height="11.5625" style="fill:rgb(8.2%,30.9%,54.8%);fill-opacity:1.0;stroke:none" width="11.5625" x="112.8125" y="238.4375" /><rect height="11.5625" style="fill:rgb(9.7%,33.8%,58.9%);fill-opacity:1.0;stroke:none" width="11.5625" x="125.375" y="238.4375" /><rect height="11.5625" style="fill:rgb(10.2%,34.8%,60.2%);fill-opacity:1.0;stroke:none" width="11.5625" x="137.9375" y="238.4375" /><rect height="11.5625" style="fill:rgb(30.8%,60.5%,78%);fill-opacity:1.0;stroke:none" width="11.5625" x="150.5" y="238.4375" /><rect height="11.5625" style="fill:rgb(47.8%,71.3%,83.8%);fill-opacity:1.0;stroke:none" width="11.5625" x="163.0625" y="238.4375" /><rect height="11.5625" style="fill:rgb(46.6%,70.5%,83.4%);fill-opacity:1.0;stroke:none" width="11.5625" x="175.625" y="238.4375" /><rect height="11.5625" style="fill:rgb(57.1%,77.1%,87%);fill-opacity:1.0;stroke:none" width="11.5625" x="188.1875" y="238.4375" /><rect height="11.5625" style="fill:rgb(99%,84.6%,76.4%);fill-opacity:1.0;stroke:none" width="11.5625" x="200.75" y="238.4375" /><rect height="11.5625" style="fill:rgb(98.7%,88.5%,82.5%);fill-opacity:1.0;stroke:none" width="11.5625" x="213.3125" y="238.4375" /><rect height="11.5625" style="fill:rgb(77.2%,24.3%,23.9%);fill-opacity:1.0;stroke:none" width="11.5625" x="225.875" y="238.4375" /><rect height="11.5625" style="fill:rgb(50.2%,50.2%,50.2%);fill-opacity:1.0;stroke:none" width="11.5625" x="238.4375" y="238.4375" /></g><g class="toyplot-coordinates-Numberline" id="t8d4d6564309d49f2a2c3530e16db9d73"><clipPath id="te9aae0d50d87484b80b7c3cbe8e9a9fd"><rect height="40.0" width="200.0" x="0" y="-20.0" /></clipPath><g clip-path="url(#te9aae0d50d87484b80b7c3cbe8e9a9fd)" transform="translate(270.0,250.0)rotate(-90.0)"><g class="toyplot-color-Map" id="t9a210863ecbf48e9b033db2d12fe4a2e"><defs><linearGradient gradientUnits="userSpaceOnUse" id="tb330ff028860464985acdf65282d696e" x1="0.0" x2="200.0" y1="0" y2="0"><stop offset="0.0" stop-color="rgb(1.96%,18.8%,38%)" stop-opacity="1.0" /><stop offset="0.015873015873015803" stop-color="rgb(3.7%,22.2%,42.7%)" stop-opacity="1.0" /><stop offset="0.03174603174603181" stop-color="rgb(5.45%,25.5%,47.4%)" stop-opacity="1.0" /><stop offset="0.04761904761904761" stop-color="rgb(7.19%,28.9%,52%)" stop-opacity="1.0" /><stop offset="0.0634920634920634" stop-color="rgb(8.93%,32.3%,56.7%)" stop-opacity="1.0" /><stop offset="0.07936507936507942" stop-color="rgb(10.7%,35.6%,61.4%)" stop-opacity="1.0" /><stop offset="0.09523809523809522" stop-color="rgb(12.4%,39%,66.1%)" stop-opacity="1.0" /><stop offset="0.11111111111111102" stop-color="rgb(14.4%,42%,68.5%)" stop-opacity="1.0" /><stop offset="0.12698412698412703" stop-color="rgb(16.5%,44.8%,69.9%)" stop-opacity="1.0" /><stop offset="0.14285714285714282" stop-color="rgb(18.7%,47.6%,71.3%)" stop-opacity="1.0" /><stop offset="0.15873015873015864" stop-color="rgb(20.8%,50.4%,72.7%)" stop-opacity="1.0" /><stop offset="0.17460317460317465" stop-color="rgb(22.9%,53.2%,74.2%)" stop-opacity="1.0" /><stop offset="0.19047619047619044" stop-color="rgb(25%,56%,75.6%)" stop-opacity="1.0" /><stop offset="0.20634920634920623" stop-color="rgb(28.2%,58.9%,77.1%)" stop-opacity="1.0" /><stop offset="0.22222222222222224" stop-color="rgb(33.2%,62%,78.8%)" stop-opacity="1.0" /><stop offset="0.23809523809523805" stop-color="rgb(38.1%,65.1%,80.5%)" stop-opacity="1.0" /><stop offset="0.25396825396825384" stop-color="rgb(43%,68.2%,82.2%)" stop-opacity="1.0" /><stop offset="0.2698412698412699" stop-color="rgb(47.9%,71.3%,83.9%)" stop-opacity="1.0" /><stop offset="0.28571428571428564" stop-color="rgb(52.8%,74.5%,85.5%)" stop-opacity="1.0" /><stop offset="0.30158730158730146" stop-color="rgb(57.6%,77.5%,87.2%)" stop-opacity="1.0" /><stop offset="0.31746031746031744" stop-color="rgb(61.6%,79.4%,88.3%)" stop-opacity="1.0" /><stop offset="0.33333333333333326" stop-color="rgb(65.5%,81.4%,89.4%)" stop-opacity="1.0" /><stop offset="0.3492063492063491" stop-color="rgb(69.4%,83.4%,90.5%)" stop-opacity="1.0" /><stop offset="0.36507936507936506" stop-color="rgb(73.3%,85.4%,91.7%)" stop-opacity="1.0" /><stop offset="0.3809523809523809" stop-color="rgb(77.3%,87.4%,92.8%)" stop-opacity="1.0" /><stop offset="0.3968253968253967" stop-color="rgb(81.2%,89.4%,93.9%)" stop-opacity="1.0" /><stop offset="0.4126984126984127" stop-color="rgb(83.9%,90.7%,94.5%)" stop-opacity="1.0" /><stop offset="0.4285714285714285" stop-color="rgb(86.2%,91.8%,94.9%)" stop-opacity="1.0" /><stop offset="0.4444444444444443" stop-color="rgb(88.6%,92.9%,95.3%)" stop-opacity="1.0" /><stop offset="0.4603174603174603" stop-color="rgb(90.9%,94.1%,95.8%)" stop-opacity="1.0" /><stop offset="0.4761904761904763" stop-color="rgb(93.3%,95.2%,96.2%)" stop-opacity="1.0" /><stop offset="0.49206349206349187" stop-color="rgb(95.7%,96.3%,96.6%)" stop-opacity="1.0" /><stop offset="0.5079365079365079" stop-color="rgb(97%,96%,95.4%)" stop-opacity="1.0" /><stop offset="0.523809523809524" stop-color="rgb(97.4%,94.2%,92.4%)" stop-opacity="1.0" /><stop offset="0.5396825396825395" stop-color="rgb(97.8%,92.5%,89.4%)" stop-opacity="1.0" /><stop offset="0.5555555555555555" stop-color="rgb(98.2%,90.8%,86.4%)" stop-opacity="1.0" /><stop offset="0.5714285714285715" stop-color="rgb(98.5%,89%,83.4%)" stop-opacity="1.0" /><stop offset="0.5873015873015871" stop-color="rgb(98.9%,87.3%,80.4%)" stop-opacity="1.0" /><stop offset="0.6031746031746031" stop-color="rgb(99.1%,85.2%,77.2%)" stop-opacity="1.0" /><stop offset="0.6190476190476192" stop-color="rgb(98.5%,81.8%,72.9%)" stop-opacity="1.0" /><stop offset="0.6349206349206349" stop-color="rgb(98%,78.5%,68.6%)" stop-opacity="1.0" /><stop offset="0.6507936507936507" stop-color="rgb(97.4%,75.1%,64.3%)" stop-opacity="1.0" /><stop offset="0.6666666666666667" stop-color="rgb(96.9%,71.8%,60%)" stop-opacity="1.0" /><stop offset="0.6825396825396826" stop-color="rgb(96.3%,68.4%,55.7%)" stop-opacity="1.0" /><stop offset="0.6984126984126984" stop-color="rgb(95.7%,65%,51.4%)" stop-opacity="1.0" /><stop offset="0.7142857142857143" stop-color="rgb(94%,60.8%,48%)" stop-opacity="1.0" /><stop offset="0.7301587301587305" stop-color="rgb(92.1%,56.5%,44.7%)" stop-opacity="1.0" /><stop offset="0.7460317460317459" stop-color="rgb(90.3%,52.3%,41.4%)" stop-opacity="1.0" /><stop offset="0.7619047619047621" stop-color="rgb(88.4%,48%,38.1%)" stop-opacity="1.0" /><stop offset="0.777777777777778" stop-color="rgb(86.5%,43.7%,34.8%)" stop-opacity="1.0" /><stop offset="0.7936507936507937" stop-color="rgb(84.7%,39.4%,31.5%)" stop-opacity="1.0" /><stop offset="0.8095238095238095" stop-color="rgb(82.6%,35%,28.9%)" stop-opacity="1.0" /><stop offset="0.8253968253968256" stop-color="rgb(80.3%,30.5%,26.8%)" stop-opacity="1.0" /><stop offset="0.8412698412698412" stop-color="rgb(78.1%,26%,24.7%)" stop-opacity="1.0" /><stop offset="0.8571428571428572" stop-color="rgb(75.9%,21.5%,22.6%)" stop-opacity="1.0" /><stop offset="0.8730158730158731" stop-color="rgb(73.6%,17%,20.5%)" stop-opacity="1.0" /><stop offset="0.8888888888888887" stop-color="rgb(71.4%,12.5%,18.3%)" stop-opacity="1.0" /><stop offset="0.9047619047619048" stop-color="rgb(68.4%,8.96%,16.6%)" stop-opacity="1.0" /><stop offset="0.9206349206349208" stop-color="rgb(63.7%,7.47%,15.9%)" stop-opacity="1.0" /><stop offset="0.9365079365079364" stop-color="rgb(59.1%,5.98%,15.1%)" stop-opacity="1.0" /><stop offset="0.9523809523809524" stop-color="rgb(54.4%,4.48%,14.4%)" stop-opacity="1.0" /><stop offset="0.9682539682539684" stop-color="rgb(49.7%,2.99%,13.7%)" stop-opacity="1.0" /><stop offset="0.9841269841269839" stop-color="rgb(45.1%,1.49%,12.9%)" stop-opacity="1.0" /><stop offset="1.0" stop-color="rgb(40.4%,0%,12.2%)" stop-opacity="1.0" /></linearGradient></defs><rect height="10" style="fill:url(#tb330ff028860464985acdf65282d696e);stroke:none;stroke-width:5" width="200.0" x="0.0" y="-5.0" /></g></g><g class="toyplot-coordinates-Axis" id="t00e61e8616a240f59cc9418911c5519a" transform="translate(270.0,250.0)rotate(-90.0)translate(0,20.0)"><line style="" x1="0" x2="200.0" y1="0" y2="0" /><g><g transform="translate(7.668848740127715,6)"><text style="fill:rgb(16.1%,15.3%,14.1%);fill-opacity:1.0;font-family:helvetica;font-size:10.0px;font-weight:normal;stroke:none;vertical-align:baseline;white-space:pre" x="-6.95" y="8.555">2.5</text></g><g transform="translate(53.646813380367064,6)"><text style="fill:rgb(16.1%,15.3%,14.1%);fill-opacity:1.0;font-family:helvetica;font-size:10.0px;font-weight:normal;stroke:none;vertical-align:baseline;white-space:pre" x="-6.95" y="8.555">3.0</text></g><g transform="translate(99.62477802060641,6)"><text style="fill:rgb(16.1%,15.3%,14.1%);fill-opacity:1.0;font-family:helvetica;font-size:10.0px;font-weight:normal;stroke:none;vertical-align:baseline;white-space:pre" x="-6.95" y="8.555">3.5</text></g><g transform="translate(145.60274266084576,6)"><text style="fill:rgb(16.1%,15.3%,14.1%);fill-opacity:1.0;font-family:helvetica;font-size:10.0px;font-weight:normal;stroke:none;vertical-align:baseline;white-space:pre" x="-6.95" y="8.555">4.0</text></g><g transform="translate(191.58070730108508,6)"><text style="fill:rgb(16.1%,15.3%,14.1%);fill-opacity:1.0;font-family:helvetica;font-size:10.0px;font-weight:normal;stroke:none;vertical-align:baseline;white-space:pre" x="-6.95" y="8.555">4.5</text></g></g><g class="toyplot-coordinates-Axis-coordinates" style="visibility:hidden" transform=""><line style="stroke:rgb(43.9%,50.2%,56.5%);stroke-opacity:1.0;stroke-width:1.0" x1="0" x2="0" y1="-3.0" y2="4.5" /><text style="alignment-baseline:alphabetic;fill:rgb(43.9%,50.2%,56.5%);fill-opacity:1.0;font-size:10px;font-weight:normal;stroke:none;text-anchor:middle" x="0" y="-6" /></g></g></g></svg>