<svg class="toyplot-canvas-Canvas" height="300.0px" id="t8db7b284e3d7438d896ab68735bdfc9a" preserveAspectRatio="xMidYMid meet" style="background-color:transparent;border-color:#292724;border-style:none;border-width:1.0;fill:rgb(16.1%,15.3%,14.1%);fill-opacity:1.0;font-family:Helvetica;font-size:12px;opacity:1.0;stroke:rgb(16.1%,15.3%,14.1%);stroke-opacity:1.0;stroke-width:1.0" viewBox="0 0 320.0 300.0" width="320.0px" xmlns="http://www.w3.org/2000/svg" xmlns:toyplot="http://www.sandia.gov/toyplot" xmlns:xlink="http://www.w3.org/1999/xlink"><g class="toyplot-coordinates-Table" id="t5d40b252e5da44b3b70920f5f342cef8"><rect height="11.5625" style="fill:rgb(50.2%,50.2%,50.2%);fill-opacity:1.0;stroke:none" width="11.5625" x="50.0" y="50.0" /><rect height="11.5625" style="fill:rgb(95.4%,64%,50.5%);fill-opacity:1.0;stroke:none" width="11.5625" x="62.5625" y="50.0" /><rect height="11.5625" style="fill:rgb(97.3%,94.8%,93.4%);fill-opacity:1.0;stroke:none" width="11.5625" x="75.125" y="50.0" /><rect height="11.5625" style="fill:rgb(98%,91.6%,87.8%);fill-opacity:1.0;stroke:none" width="11.5625" x="87.6875" y="50.0" /><rect height="11.5625" style="fill:rgb(46.2%,70.2%,83.3%);fill-opacity:1.0;stroke:none" width="11.5625" x="100.25" y="50.0" /><rect height="11.5625" style="fill:rgb(26%,57.3%,76.3%);fill-opacity:1.0;stroke:none" width="11.5625" x="112.8125" y="50.0" /><rect height="11.5625" style="fill:rgb(33.8%,62.4%,79.1%);fill-opacity:1.0;stroke:none" width="11.5625" x="125.375" y="50.0" /><rect height="11.5625" style="fill:rgb(36.7%,64.2%,80%);fill-opacity:1.0;stroke:none" width="11.5625" x="137.9375" y="50.0" /><rect height="11.5625" style="fill:rgb(14.1%,41.5%,68.2%);fill-opacity:1.0;stroke:none" width="11.5625" x="150.5" y="50.0" /><rect height="11.5625" style="fill:rgb(8%,30.6%,54.3%);fill-opacity:1.0;stroke:none" width="11.5625" x="163.0625" y="50.0" /><rect height="11.5625" style="fill:rgb(8.7%,31.8%,56%);fill-opacity:1.0;stroke:none" width="11.5625" x="175.625" y="50.0" /><rect height="11.5625" style="fill:rgb(11.3%,36.8%,63%);fill-opacity:1.0;stroke:none" width="11.5625" x="188.1875" y="50.0" /><rect height="11.5625" style="fill:rgb(2%,18.8%,38%);fill-opacity:1.0;stroke:none" width="11.5625" x="200.75" y="50.0" /><rect height="11.5625" style="fill:rgb(19.8%,49%,72.1%);fill-opacity:1.0;stroke:none" width="11.5625" x="213.3125" y="50.0" /><rect height="11.5625" style="fill:rgb(20.5%,50%,72.6%);fill-opacity:1.0;stroke:none" width="11.5625" x="225.875" y="50.0" /><rect height="11.5625" style="fill:rgb(21.8%,51.7%,73.4%);fill-opacity:1.0;stroke:none" width="11.5625" x="238.4375" y="50.0" /><rect height="11.5625" style="fill:rgb(95.4%,64%,50.5%);fill-opacity:1.0;stroke:none" width="11.5625" x="50.0" y="62.5625" /><rect height="11.5625" style="fill:rgb(50.2%,50.2%,50.2%);fill-opacity:1.0;stroke:none" width="11.5625" x="62.5625" y="62.5625" /><rect height="11.5625" style="fill:rgb(97.6%,93.5%,91.1%);fill-opacity:1.0;stroke:none" width="11.5625" x="75.125" y="62.5625" /><rect height="11.5625" style="fill:rgb(98.2%,90.5%,86%);fill-opacity:1.0;stroke:none" width="11.5625" x="87.6875" y="62.5625" /><rect height="11.5625" style="fill:rgb(43.1%,68.3%,82.2%);fill-opacity:1.0;stroke:none" width="11.5625" x="100.25" y="62.5625" /><rect height="11.5625" style="fill:rgb(21.5%,51.3%,73.3%);fill-opacity:1.0;stroke:none" width="11.5625" x="112.8125" y="62.5625" /><rect height="11.5625" style="fill:rgb(41.8%,67.5%,81.8%);fill-opacity:1.0;stroke:none" width="11.5625" x="125.375" y="62.5625" /><rect height="11.5625" style="fill:rgb(37.2%,64.5%,80.2%);fill-opacity:1.0;stroke:none" width="11.5625" x="137.9375" y="62.5625" /><rect height="11.5625" style="fill:rgb(7.9%,30.2%,53.8%);fill-opacity:1.0;stroke:none" width="11.5625" x="150.5" y="62.5625" /><rect height="11.5625" style="fill:rgb(14%,41.4%,68.1%);fill-opacity:1.0;stroke:none" width="11.5625" x="163.0625" y="62.5625" /><rect height="11.5625" style="fill:rgb(5.9%,26.5%,48.7%);fill-opacity:1.0;stroke:none" width="11.5625" x="175.625" y="62.5625" /><rect height="11.5625" style="fill:rgb(7.9%,30.3%,54%);fill-opacity:1.0;stroke:none" width="11.5625" x="188.1875" y="62.5625" /><rect height="11.5625" style="fill:rgb(10.7%,35.7%,61.5%);fill-opacity:1.0;stroke:none" width="11.5625" x="200.75" y="62.5625" /><rect height="11.5625" style="fill:rgb(5.5%,25.6%,47.5%);fill-opacity:1.0;stroke:none" width="11.5625" x="213.3125" y="62.5625" /><rect height="11.5625" style="fill:rgb(13.6%,40.9%,67.9%);fill-opacity:1.0;stroke:none" width="11.5625" x="225.875" y="62.5625" /><rect height="11.5625" style="fill:rgb(16.3%,44.5%,69.7%);fill-opacity:1.0;stroke:none" width="11.5625" x="238.4375" y="62.5625" /><rect height="11.5625" style="fill:rgb(97.3%,94.8%,93.4%);fill-opacity:1.0;stroke:none" width="11.5625" x="50.0" y="75.125" /><rect height="11.5625" style="fill:rgb(97.6%,93.5%,91.1%);fill-opacity:1.0;stroke:none" width="11.5625" x="62.5625" y="75.125" /><rect height="11.5625" style="fill:rgb(50.2%,50.2%,50.2%);fill-opacity:1.0;stroke:none" width="11.5625" x="75.125" y="75.125" /><rect height="11.5625" style="fill:rgb(57.9%,5.6%,15%);fill-opacity:1.0;stroke:none" width="11.5625" x="87.6875" y="75.125" /><rect height="11.5625" style="fill:rgb(48%,71.4%,83.9%);fill-opacity:1.0;stroke:none" width="11.5625" x="100.25" y="75.125" /><rect height="11.5625" style="fill:rgb(54.6%,75.6%,86.1%);fill-opacity:1.0;stroke:none" width="11.5625" x="112.8125" y="75.125" /><rect height="11.5625" style="fill:rgb(36.2%,63.9%,79.9%);fill-opacity:1.0;stroke:none" width="11.5625" x="125.375" y="75.125" /><rect height="11.5625" style="fill:rgb(73.2%,85.3%,91.6%);fill-opacity:1.0;stroke:none" width="11.5625" x="137.9375" y="75.125" /><rect height="11.5625" style="fill:rgb(12.8%,39.7%,67%);fill-opacity:1.0;stroke:none" width="11.5625" x="150.5" y="75.125" /><rect height="11.5625" style="fill:rgb(10.9%,36%,61.9%);fill-opacity:1.0;stroke:none" width="11.5625" x="163.0625" y="75.125" /><rect height="11.5625" style="fill:rgb(3.4%,21.6%,41.9%);fill-opacity:1.0;stroke:none" width="11.5625" x="175.625" y="75.125" /><rect height="11.5625" style="fill:rgb(6.9%,28.3%,51.2%);fill-opacity:1.0;stroke:none" width="11.5625" x="188.1875" y="75.125" /><rect height="11.5625" style="fill:rgb(20.8%,50.4%,72.8%);fill-opacity:1.0;stroke:none" width="11.5625" x="200.75" y="75.125" /><rect height="11.5625" style="fill:rgb(13%,40.1%,67.5%);fill-opacity:1.0;stroke:none" width="11.5625" x="213.3125" y="75.125" /><rect height="11.5625" style="fill:rgb(25.3%,56.3%,75.8%);fill-opacity:1.0;stroke:none" width="11.5625" x="225.875" y="75.125" /><rect height="11.5625" style="fill:rgb(28.6%,59.1%,77.3%);fill-opacity:1.0;stroke:none" width="11.5625" x="238.4375" y="75.125" /><rect height="11.5625" style="fill:rgb(98%,91.6%,87.8%);fill-opacity:1.0;stroke:none" width="11.5625" x="50.0" y="87.6875" /><rect height="11.5625" style="fill:rgb(98.2%,90.5%,86%);fill-opacity:1.0;stroke:none" width="11.5625" x="62.5625" y="87.6875" /><rect height="11.5625" style="fill:rgb(57.9%,5.6%,15%);fill-opacity:1.0;stroke:none" width="11.5625" x="75.125" y="87.6875" /><rect height="11.5625" style="fill:rgb(50.2%,50.2%,50.2%);fill-opacity:1.0;stroke:none" width="11.5625" x="87.6875" y="87.6875" /><rect height="11.5625" style="fill:rgb(58%,77.6%,87.3%);fill-opacity:1.0;stroke:none" width="11.5625" x="100.25" y="87.6875" /><rect height="11.5625" style="fill:rgb(27.5%,58.4%,76.9%);fill-opacity:1.0;stroke:none" width="11.5625" x="112.8125" y="87.6875" /><rect height="11.5625" style="fill:rgb(23.8%,54.4%,74.8%);fill-opacity:1.0;stroke:none" width="11.5625" x="125.375" y="87.6875" /><rect height="11.5625" style="fill:rgb(51.1%,73.3%,84.9%);fill-opacity:1.0;stroke:none" width="11.5625" x="137.9375" y="87.6875" /><rect height="11.5625" style="fill:rgb(15.1%,42.9%,68.9%);fill-opacity:1.0;stroke:none" width="11.5625" x="150.5" y="87.6875" /><rect height="11.5625" style="fill:rgb(17.8%,46.5%,70.8%);fill-opacity:1.0;stroke:none" width="11.5625" x="163.0625" y="87.6875" /><rect height="11.5625" style="fill:rgb(13.9%,41.3%,68.1%);fill-opacity:1.0;stroke:none" width="11.5625" x="175.625" y="87.6875" /><rect height="11.5625" style="fill:rgb(12.8%,39.8%,67.2%);fill-opacity:1.0;stroke:none" width="11.5625" x="188.1875" y="87.6875" /><rect height="11.5625" style="fill:rgb(9.4%,33.1%,57.9%);fill-opacity:1.0;stroke:none" width="11.5625" x="200.75" y="87.6875" /><rect height="11.5625" style="fill:rgb(12.2%,38.6%,65.5%);fill-opacity:1.0;stroke:none" width="11.5625" x="213.3125" y="87.6875" /><rect height="11.5625" style="fill:rgb(13.6%,40.8%,67.9%);fill-opacity:1.0;stroke:none" width="11.5625" x="225.875" y="87.6875" /><rect height="11.5625" style="fill:rgb(19.7%,48.9%,72%);fill-opacity:1.0;stroke:none" width="11.5625" x="238.4375" y="87.6875" /><rect height="11.5625" style="fill:rgb(46.2%,70.2%,83.3%);fill-opacity:1.0;stroke:none" width="11.5625" x="50.0" y="100.25" /><rect height="11.5625" style="fill:rgb(43.1%,68.3%,82.2%);fill-opacity:1.0;stroke:none" width="11.5625" x="62.5625" y="100.25" /><rect height="11.5625" style="fill:rgb(48%,71.4%,83.9%);fill-opacity:1.0;stroke:none" width="11.5625" x="75.125" y="100.25" /><rect height="11.5625" style="fill:rgb(58%,77.6%,87.3%);fill-opacity:1.0;stroke:none" width="11.5625" x="87.6875" y="100.25" /><rect height="11.5625" style="fill:rgb(50.2%,50.2%,50.2%);fill-opacity:1.0;stroke:none" width="11.5625" x="100.25" y="100.25" /><rect height="11.5625" style="fill:rgb(98%,91.5%,87.7%);fill-opacity:1.0;stroke:none" width="11.5625" x="112.8125" y="100.25" /><rect height="11.5625" style="fill:rgb(97%,96.4%,96.1%);fill-opacity:1.0;stroke:none" width="11.5625" x="125.375" y="100.25" /><rect height="11.5625" style="fill:rgb(95.8%,96.4%,96.7%);fill-opacity:1.0;stroke:none" width="11.5625" x="137.9375" y="100.25" /><rect height="11.5625" style="fill:rgb(7.9%,30.2%,53.9%);fill-opacity:1.0;stroke:none" width="11.5625" x="150.5" y="100.25" /><rect height="11.5625" style="fill:rgb(10.3%,34.9%,60.4%);fill-opacity:1.0;stroke:none" width="11.5625" x="163.0625" y="100.25" /><rect height="11.5625" style="fill:rgb(13.5%,40.8%,67.9%);fill-opacity:1.0;stroke:none" width="11.5625" x="175.625" y="100.25" /><rect height="11.5625" style="fill:rgb(7.6%,29.8%,53.2%);fill-opacity:1.0;stroke:none" width="11.5625" x="188.1875" y="100.25" /><rect height="11.5625" style="fill:rgb(5.6%,25.8%,47.7%);fill-opacity:1.0;stroke:none" width="11.5625" x="200.75" y="100.25" /><rect height="11.5625" style="fill:rgb(8%,30.4%,54.2%);fill-opacity:1.0;stroke:none" width="11.5625" x="213.3125" y="100.25" /><rect height="11.5625" style="fill:rgb(8.1%,30.7%,54.5%);fill-opacity:1.0;stroke:none" width="11.5625" x="225.875" y="100.25" /><rect height="11.5625" style="fill:rgb(16%,44.1%,69.6%);fill-opacity:1.0;stroke:none" width="11.5625" x="238.4375" y="100.25" /><rect height="11.5625" style="fill:rgb(26%,57.3%,76.3%);fill-opacity:1.0;stroke:none" width="11.5625" x="50.0" y="112.8125" /><rect height="11.5625" style="fill:rgb(21.5%,51.3%,73.3%);fill-opacity:1.0;stroke:none" width="11.5625" x="62.5625" y="112.8125" /><rect height="11.5625" style="fill:rgb(54.6%,75.6%,86.1%);fill-opacity:1.0;stroke:none" width="11.5625" x="75.125" y="112.8125" /><rect height="11.5625" style="fill:rgb(27.5%,58.4%,76.9%);fill-opacity:1.0;stroke:none" width="11.5625" x="87.6875" y="112.8125" /><rect height="11.5625" style="fill:rgb(98%,91.5%,87.7%);fill-opacity:1.0;stroke:none" width="11.5625" x="100.25" y="112.8125" /><rect height="11.5625" style="fill:rgb(50.2%,50.2%,50.2%);fill-opacity:1.0;stroke:none" width="11.5625" x="112.8125" y="112.8125" /><rect height="11.5625" style="fill:rgb(90.9%,94%,95.8%);fill-opacity:1.0;stroke:none" width="11.5625" x="125.375" y="112.8125" /><rect height="11.5625" style="fill:rgb(97.1%,95.6%,94.7%);fill-opacity:1.0;stroke:none" width="11.5625" x="137.9375" y="112.8125" /><rect height="11.5625" style="fill:rgb(9.3%,32.9%,57.6%);fill-opacity:1.0;stroke:none" width="11.5625" x="150.5" y="112.8125" /><rect height="11.5625" style="fill:rgb(12.5%,39.2%,66.4%);fill-opacity:1.0;stroke:none" width="11.5625" x="163.0625" y="112.8125" /><rect height="11.5625" style="fill:rgb(9.8%,33.9%,59%);fill-opacity:1.0;stroke:none" width="11.5625" x="175.625" y="112.8125" /><rect height="11.5625" style="fill:rgb(18.6%,47.5%,71.3%);fill-opacity:1.0;stroke:none" width="11.5625" x="188.1875" y="112.8125" /><rect height="11.5625" style="fill:rgb(4.2%,23.2%,44.1%);fill-opacity:1.0;stroke:none" width="11.5625" x="200.75" y="112.8125" /><rect height="11.5625" style="fill:rgb(16.5%,44.7%,69.9%);fill-opacity:1.0;stroke:none" width="11.5625" x="213.3125" y="112.8125" /><rect height="11.5625" style="fill:rgb(8.7%,31.8%,56%);fill-opacity:1.0;stroke:none" width="11.5625" x="225.875" y="112.8125" /><rect height="11.5625" style="fill:rgb(11.2%,36.6%,62.8%);fill-opacity:1.0;stroke:none" width="11.5625" x="238.4375" y="112.8125" /><rect height="11.5625" style="fill:rgb(33.8%,62.4%,79.1%);fill-opacity:1.0;stroke:none" width="11.5625" x="50.0" y="125.375" /><rect height="11.5625" style="fill:rgb(41.8%,67.5%,81.8%);fill-opacity:1.0;stroke:none" width="11.5625" x="62.5625" y="125.375" /><rect height="11.5625" style="fill:rgb(36.2%,63.9%,79.9%);fill-opacity:1.0;stroke:none" width="11.5625" x="75.125" y="125.375" /><rect height="11.5625" style="fill:rgb(23.8%,54.4%,74.8%);fill-opacity:1.0;stroke:none" width="11.5625" x="87.6875" y="125.375" /><rect height="11.5625" style="fill:rgb(97%,96.4%,96.1%);fill-opacity:1.0;stroke:none" width="11.5625" x="100.25" y="125.375" /><rect height="11.5625" style="fill:rgb(90.9%,94%,95.8%);fill-opacity:1.0;stroke:none" width="11.5625" x="112.8125" y="125.375" /><rect height="11.5625" style="fill:rgb(50.2%,50.2%,50.2%);fill-opacity:1.0;stroke:none" width="11.5625" x="125.375" y="125.375" /><rect height="11.5625" style="fill:rgb(67.9%,8.8%,16.6%);fill-opacity:1.0;stroke:none" width="11.5625" x="137.9375" y="125.375" /><rect height="11.5625" style="fill:rgb(7.1%,28.7%,51.7%);fill-opacity:1.0;stroke:none" width="11.5625" x="150.5" y="125.375" /><rect height="11.5625" style="fill:rgb(10.9%,36%,61.9%);fill-opacity:1.0;stroke:none" width="11.5625" x="163.0625" y="125.375" /><rect height="11.5625" style="fill:rgb(18.5%,47.4%,71.2%);fill-opacity:1.0;stroke:none" width="11.5625" x="175.625" y="125.375" /><rect height="11.5625" style="fill:rgb(6%,26.6%,48.8%);fill-opacity:1.0;stroke:none" width="11.5625" x="188.1875" y="125.375" /><rect height="11.5625" style="fill:rgb(7.5%,29.5%,52.9%);fill-opacity:1.0;stroke:none" width="11.5625" x="200.75" y="125.375" /><rect height="11.5625" style="fill:rgb(9.9%,34%,59.2%);fill-opacity:1.0;stroke:none" width="11.5625" x="213.3125" y="125.375" /><rect height="11.5625" style="fill:rgb(10.1%,34.5%,59.9%);fill-opacity:1.0;stroke:none" width="11.5625" x="225.875" y="125.375" /><rect height="11.5625" style="fill:rgb(16.9%,45.3%,70.2%);fill-opacity:1.0;stroke:none" width="11.5625" x="238.4375" y="125.375" /><rect height="11.5625" style="fill:rgb(36.7%,64.2%,80%);fill-opacity:1.0;stroke:none" width="11.5625" x="50.0" y="137.9375" /><rect height="11.5625" style="fill:rgb(37.2%,64.5%,80.2%);fill-opacity:1.0;stroke:none" width="11.5625" x="62.5625" y="137.9375" /><rect height="11.5625" style="fill:rgb(73.2%,85.3%,91.6%);fill-opacity:1.0;stroke:none" width="11.5625" x="75.125" y="137.9375" /><rect height="11.5625" style="fill:rgb(51.1%,73.3%,84.9%);fill-opacity:1.0;stroke:none" width="11.5625" x="87.6875" y="137.9375" /><rect height="11.5625" style="fill:rgb(95.8%,96.4%,96.7%);fill-opacity:1.0;stroke:none" width="11.5625" x="100.25" y="137.9375" /><rect height="11.5625" style="fill:rgb(97.1%,95.6%,94.7%);fill-opacity:1.0;stroke:none" width="11.5625" x="112.8125" y="137.9375" /><rect height="11.5625" style="fill:rgb(67.9%,8.8%,16.6%);fill-opacity:1.0;stroke:none" width="11.5625" x="125.375" y="137.9375" /><rect height="11.5625" style="fill:rgb(50.2%,50.2%,50.2%);fill-opacity:1.0;stroke:none" width="11.5625" x="137.9375" y="137.9375" /><rect height="11.5625" style="fill:rgb(4.9%,24.4%,45.8%);fill-opacity:1.0;stroke:none" width="11.5625" x="150.5" y="137.9375" /><rect height="11.5625" style="fill:rgb(9.6%,33.5%,58.4%);fill-opacity:1.0;stroke:none" width="11.5625" x="163.0625" y="137.9375" /><rect height="11.5625" style="fill:rgb(11.7%,37.6%,64.1%);fill-opacity:1.0;stroke:none" width="11.5625" x="175.625" y="137.9375" /><rect height="11.5625" style="fill:rgb(8.6%,31.6%,55.9%);fill-opacity:1.0;stroke:none" width="11.5625" x="188.1875" y="137.9375" /><rect height="11.5625" style="fill:rgb(3.5%,21.7%,42%);fill-opacity:1.0;stroke:none" width="11.5625" x="200.75" y="137.9375" /><rect height="11.5625" style="fill:rgb(18.1%,46.8%,70.9%);fill-opacity:1.0;stroke:none" width="11.5625" x="213.3125" y="137.9375" /><rect height="11.5625" style="fill:rgb(12.8%,39.7%,67%);fill-opacity:1.0;stroke:none" width="11.5625" x="225.875" y="137.9375" /><rect height="11.5625" style="fill:rgb(12.9%,39.9%,67.3%);fill-opacity:1.0;stroke:none" width="11.5625" x="238.4375" y="137.9375" /><rect height="11.5625" style="fill:rgb(14.1%,41.5%,68.2%);fill-opacity:1.0;stroke:none" width="11.5625" x="50.0" y="150.5" /><rect height="11.5625" style="fill:rgb(7.9%,30.2%,53.8%);fill-opacity:1.0;stroke:none" width="11.5625" x="62.5625" y="150.5" /><rect height="11.5625" style="fill:rgb(12.8%,39.7%,67%);fill-opacity:1.0;stroke:none" width="11.5625" x="75.125" y="150.5" /><rect height="11.5625" style="fill:rgb(15.1%,42.9%,68.9%);fill-opacity:1.0;stroke:none" width="11.5625" x="87.6875" y="150.5" /><rect height="11.5625" style="fill:rgb(7.9%,30.2%,53.9%);fill-opacity:1.0;stroke:none" width="11.5625" x="100.25" y="150.5" /><rect height="11.5625" style="fill:rgb(9.3%,32.9%,57.6%);fill-opacity:1.0;stroke:none" width="11.5625" x="112.8125" y="150.5" /><rect height="11.5625" style="fill:rgb(7.1%,28.7%,51.7%);fill-opacity:1.0;stroke:none" width="11.5625" x="125.375" y="150.5" /><rect height="11.5625" style="fill:rgb(4.9%,24.4%,45.8%);fill-opacity:1.0;stroke:none" width="11.5625" x="137.9375" y="150.5" /><rect height="11.5625" style="fill:rgb(50.2%,50.2%,50.2%);fill-opacity:1.0;stroke:none" width="11.5625" x="150.5" y="150.5" /><rect height="11.5625" style="fill:rgb(98.8%,87.8%,81.3%);fill-opacity:1.0;stroke:none" width="11.5625" x="163.0625" y="150.5" /><rect height="11.5625" style="fill:rgb(97.3%,95%,93.7%);fill-opacity:1.0;stroke:none" width="11.5625" x="175.625" y="150.5" /><rect height="11.5625" style="fill:rgb(98.1%,91.1%,86.9%);fill-opacity:1.0;stroke:none" width="11.5625" x="188.1875" y="150.5" /><rect height="11.5625" style="fill:rgb(85.4%,91.4%,94.7%);fill-opacity:1.0;stroke:none" width="11.5625" x="200.75" y="150.5" /><rect height="11.5625" style="fill:rgb(60.5%,78.9%,88%);fill-opacity:1.0;stroke:none" width="11.5625" x="213.3125" y="150.5" /><rect height="11.5625" style="fill:rgb(69.7%,83.6%,90.6%);fill-opacity:1.0;stroke:none" width="11.5625" x="225.875" y="150.5" /><rect height="11.5625" style="fill:rgb(54.7%,75.6%,86.2%);fill-opacity:1.0;stroke:none" width="11.5625" x="238.4375" y="150.5" /><rect height="11.5625" style="fill:rgb(8%,30.6%,54.3%);fill-opacity:1.0;stroke:none" width="11.5625" x="50.0" y="163.0625" /><rect height="11.5625" style="fill:rgb(14%,41.4%,68.1%);fill-opacity:1.0;stroke:none" width="11.5625" x="62.5625" y="163.0625" /><rect height="11.5625" style="fill:rgb(10.9%,36%,61.9%);fill-opacity:1.0;stroke:none" width="11.5625" x="75.125" y="163.0625" /><rect height="11.5625" style="fill:rgb(17.8%,46.5%,70.8%);fill-opacity:1.0;stroke:none" width="11.5625" x="87.6875" y="163.0625" /><rect height="11.5625" style="fill:rgb(10.3%,34.9%,60.4%);fill-opacity:1.0;stroke:none" width="11.5625" x="100.25" y="163.0625" /><rect height="11.5625" style="fill:rgb(12.5%,39.2%,66.4%);fill-opacity:1.0;stroke:none" width="11.5625" x="112.8125" y="163.0625" /><rect height="11.5625" style="fill:rgb(10.9%,36%,61.9%);fill-opacity:1.0;stroke:none" width="11.5625" x="125.375" y="163.0625" /><rect height="11.5625" style="fill:rgb(9.6%,33.5%,58.4%);fill-opacity:1.0;stroke:none" width="11.5625" x="137.9375" y="163.0625" /><rect height="11.5625" style="fill:rgb(98.8%,87.8%,81.3%);fill-opacity:1.0;stroke:none" width="11.5625" x="150.5" y="163.0625" /><rect height="11.5625" style="fill:rgb(50.2%,50.2%,50.2%);fill-opacity:1.0;stroke:none" width="11.5625" x="163.0625" y="163.0625" /><rect height="11.5625" style="fill:rgb(97%,96.1%,95.6%);fill-opacity:1.0;stroke:none" width="11.5625" x="175.625" y="163.0625" /><rect height="11.5625" style="fill:rgb(98.4%,89.8%,84.8%);fill-opacity:1.0;stroke:none" width="11.5625" x="188.1875" y="163.0625" /><rect height="11.5625" style="fill:rgb(59.5%,78.4%,87.7%);fill-opacity:1.0;stroke:none" width="11.5625" x="200.75" y="163.0625" /><rect height="11.5625" style="fill:rgb(31.2%,60.8%,78.2%);fill-opacity:1.0;stroke:none" width="11.5625" x="213.3125" y="163.0625" /><rect height="11.5625" style="fill:rgb(31.6%,61%,78.3%);fill-opacity:1.0;stroke:none" width="11.5625" x="225.875" y="163.0625" /><rect height="11.5625" style="fill:rgb(23.2%,53.5%,74.4%);fill-opacity:1.0;stroke:none" width="11.5625" x="238.4375" y="163.0625" /><rect height="11.5625" style="fill:rgb(8.7%,31.8%,56%);fill-opacity:1.0;stroke:none" width="11.5625" x="50.0" y="175.625" /><rect height="11.5625" style="fill:rgb(5.9%,26.5%,48.7%);fill-opacity:1.0;stroke:none" width="11.5625" x="62.5625" y="175.625" /><rect height="11.5625" style="fill:rgb(3.4%,21.6%,41.9%);fill-opacity:1.0;stroke:none" width="11.5625" x="75.125" y="175.625" /><rect height="11.5625" style="fill:rgb(13.9%,41.3%,68.1%);fill-opacity:1.0;stroke:none" width="11.5625" x="87.6875" y="175.625" /><rect height="11.5625" style="fill:rgb(13.5%,40.8%,67.9%);fill-opacity:1.0;stroke:none" width="11.5625" x="100.25" y="175.625" /><rect height="11.5625" style="fill:rgb(9.8%,33.9%,59%);fill-opacity:1.0;stroke:none" width="11.5625" x="112.8125" y="175.625" /><rect height="11.5625" style="fill:rgb(18.5%,47.4%,71.2%);fill-opacity:1.0;stroke:none" width="11.5625" x="125.375" y="175.625" /><rect height="11.5625" style="fill:rgb(11.7%,37.6%,64.1%);fill-opacity:1.0;stroke:none" width="11.5625" x="137.9375" y="175.625" /><rect height="11.5625" style="fill:rgb(97.3%,95%,93.7%);fill-opacity:1.0;stroke:none" width="11.5625" x="150.5" y="175.625" /><rect height="11.5625" style="fill:rgb(97%,96.1%,95.6%);fill-opacity:1.0;stroke:none" width="11.5625" x="163.0625" y="175.625" /><rect height="11.5625" style="fill:rgb(50.2%,50.2%,50.2%);fill-opacity:1.0;stroke:none" width="11.5625" x="175.625" y="175.625" /><rect height="11.5625" style="fill:rgb(50%,3.1%,13.7%);fill-opacity:1.0;stroke:none" width="11.5625" x="188.1875" y="175.625" /><rect height="11.5625" style="fill:rgb(53.4%,74.8%,85.7%);fill-opacity:1.0;stroke:none" width="11.5625" x="200.75" y="175.625" /><rect height="11.5625" style="fill:rgb(29.9%,60%,77.7%);fill-opacity:1.0;stroke:none" width="11.5625" x="213.3125" y="175.625" /><rect height="11.5625" style="fill:rgb(54.3%,75.4%,86%);fill-opacity:1.0;stroke:none" width="11.5625" x="225.875" y="175.625" /><rect height="11.5625" style="fill:rgb(48.8%,71.9%,84.2%);fill-opacity:1.0;stroke:none" width="11.5625" x="238.4375" y="175.625" /><rect height="11.5625" style="fill:rgb(11.3%,36.8%,63%);fill-opacity:1.0;stroke:none" width="11.5625" x="50.0" y="188.1875" /><rect height="11.5625" style="fill:rgb(7.9%,30.3%,54%);fill-opacity:1.0;stroke:none" width="11.5625" x="62.5625" y="188.1875" /><rect height="11.5625" style="fill:rgb(6.9%,28.3%,51.2%);fill-opacity:1.0;stroke:none" width="11.5625" x="75.125" y="188.1875" /><rect height="11.5625" style="fill:rgb(12.8%,39.8%,67.2%);fill-opacity:1.0;stroke:none" width="11.5625" x="87.6875" y="188.1875" /><rect height="11.5625" style="fill:rgb(7.6%,29.8%,53.2%);fill-opacity:1.0;stroke:none" width="11.5625" x="100.25" y="188.1875" /><rect height="11.5625" style="fill:rgb(18.6%,47.5%,71.3%);fill-opacity:1.0;stroke:none" width="11.5625" x="112.8125" y="188.1875" /><rect height="11.5625" style="fill:rgb(6%,26.6%,48.8%);fill-opacity:1.0;stroke:none" width="11.5625" x="125.375" y="188.1875" /><rect height="11.5625" style="fill:rgb(8.6%,31.6%,55.9%);fill-opacity:1.0;stroke:none" width="11.5625" x="137.9375" y="188.1875" /><rect height="11.5625" style="fill:rgb(98.1%,91.1%,86.9%);fill-opacity:1.0;stroke:none" width="11.5625" x="150.5" y="188.1875" /><rect height="11.5625" style="fill:rgb(98.4%,89.8%,84.8%);fill-opacity:1.0;stroke:none" width="11.5625" x="163.0625" y="188.1875" /><rect height="11.5625" style="fill:rgb(50%,3.1%,13.7%);fill-opacity:1.0;stroke:none" width="11.5625" x="175.625" y="188.1875" /><rect height="11.5625" style="fill:rgb(50.2%,50.2%,50.2%);fill-opacity:1.0;stroke:none" width="11.5625" x="188.1875" y="188.1875" /><rect height="11.5625" style="fill:rgb(76.8%,87.2%,92.7%);fill-opacity:1.0;stroke:none" width="11.5625" x="200.75" y="188.1875" /><rect height="11.5625" style="fill:rgb(59%,78.2%,87.6%);fill-opacity:1.0;stroke:none" width="11.5625" x="213.3125" y="188.1875" /><rect height="11.5625" style="fill:rgb(47.6%,71.2%,83.8%);fill-opacity:1.0;stroke:none" width="11.5625" x="225.875" y="188.1875" /><rect height="11.5625" style="fill:rgb(59.5%,78.4%,87.7%);fill-opacity:1.0;stroke:none" width="11.5625" x="238.4375" y="188.1875" /><rect height="11.5625" style="fill:rgb(2%,18.8%,38%);fill-opacity:1.0;stroke:none" width="11.5625" x="50.0" y="200.75" /><rect height="11.5625" style="fill:rgb(10.7%,35.7%,61.5%);fill-opacity:1.0;stroke:none" width="11.5625" x="62.5625" y="200.75" /><rect height="11.5625" style="fill:rgb(20.8%,50.4%,72.8%);fill-opacity:1.0;stroke:none" width="11.5625" x="75.125" y="200.75" /><rect height="11.5625" style="fill:rgb(9.4%,33.1%,57.9%);fill-opacity:1.0;stroke:none" width="11.5625" x="87.6875" y="200.75" /><rect height="11.5625" style="fill:rgb(5.6%,25.8%,47.7%);fill-opacity:1.0;stroke:none" width="11.5625" x="100.25" y="200.75" /><rect height="11.5625" style="fill:rgb(4.2%,23.2%,44.1%);fill-opacity:1.0;stroke:none" width="11.5625" x="112.8125" y="200.75" /><rect height="11.5625" style="fill:rgb(7.5%,29.5%,52.9%);fill-opacity:1.0;stroke:none" width="11.5625" x="125.375" y="200.75" /><rect height="11.5625" style="fill:rgb(3.5%,21.7%,42%);fill-opacity:1.0;stroke:none" width="11.5625" x="137.9375" y="200.75" /><rect height="11.5625" style="fill:rgb(85.4%,91.4%,94.7%);fill-opacity:1.0;stroke:none" width="11.5625" x="150.5" y="200.75" /><rect height="11.5625" style="fill:rgb(59.5%,78.4%,87.7%);fill-opacity:1.0;stroke:none" width="11.5625" x="163.0625" y="200.75" /><rect height="11.5625" style="fill:rgb(53.4%,74.8%,85.7%);fill-opacity:1.0;stroke:none" width="11.5625" x="175.625" y="200.75" /><rect height="11.5625" style="fill:rgb(76.8%,87.2%,92.7%);fill-opacity:1.0;stroke:none" width="11.5625" x="188.1875" y="200.75" /><rect height="11.5625" style="fill:rgb(50.2%,50.2%,50.2%);fill-opacity:1.0;stroke:none" width="11.5625" x="200.75" y="200.75" /><rect height="11.5625" style="fill:rgb(98.1%,79.1%,69.3%);fill-opacity:1.0;stroke:none" width="11.5625" x="213.3125" y="200.75" /><rect height="11.5625" style="fill:rgb(89.9%,93.6%,95.6%);fill-opacity:1.0;stroke:none" width="11.5625" x="225.875" y="200.75" /><rect height="11.5625" style="fill:rgb(98.6%,88.7%,82.9%);fill-opacity:1.0;stroke:none" width="11.5625" x="238.4375" y="200.75" /><rect height="11.5625" style="fill:rgb(19.8%,49%,72.1%);fill-opacity:1.0;stroke:none" width="11.5625" x="50.0" y="213.3125" /><rect height="11.5625" style="fill:rgb(5.5%,25.6%,47.5%);fill-opacity:1.0;stroke:none" width="11.5625" x="62.5625" y="213.3125" /><rect height="11.5625" style="fill:rgb(13%,40.1%,67.5%);fill-opacity:1.0;stroke:none" width="11.5625" x="75.125" y="213.3125" /><rect height="11.5625" style="fill:rgb(12.2%,38.6%,65.5%);fill-opacity:1.0;stroke:none" width="11.5625" x="87.6875" y="213.3125" /><rect height="11.5625" style="fill:rgb(8%,30.4%,54.2%);fill-opacity:1.0;stroke:none" width="11.5625" x="100.25" y="213.3125" /><rect height="11.5625" style="fill:rgb(16.5%,44.7%,69.9%);fill-opacity:1.0;stroke:none" width="11.5625" x="112.8125" y="213.3125" /><rect height="11.5625" style="fill:rgb(9.9%,34%,59.2%);fill-opacity:1.0;stroke:none" width="11.5625" x="125.375" y="213.3125" /><rect height="11.5625" style="fill:rgb(18.1%,46.8%,70.9%);fill-opacity:1.0;stroke:none" width="11.5625" x="137.9375" y="213.3125" /><rect height="11.5625" style="fill:rgb(60.5%,78.9%,88%);fill-opacity:1.0;stroke:none" width="11.5625" x="150.5" y="213.3125" /><rect height="11.5625" style="fill:rgb(31.2%,60.8%,78.2%);fill-opacity:1.0;stroke:none" width="11.5625" x="163.0625" y="213.3125" /><rect height="11.5625" style="fill:rgb(29.9%,60%,77.7%);fill-opacity:1.0;stroke:none" width="11.5625" x="175.625" y="213.3125" /><rect height="11.5625" style="fill:rgb(59%,78.2%,87.6%);fill-opacity:1.0;stroke:none" width="11.5625" x="188.1875" y="213.3125" /><rect height="11.5625" style="fill:rgb(98.1%,79.1%,69.3%);fill-opacity:1.0;stroke:none" width="11.5625" x="200.75" y="213.3125" /><rect height="11.5625" style="fill:rgb(50.2%,50.2%,50.2%);fill-opacity:1.0;stroke:none" width="11.5625" x="213.3125" y="213.3125" /><rect height="11.5625" style="fill:rgb(99%,87%,80%);fill-opacity:1.0;stroke:none" width="11.5625" x="225.875" y="213.3125" /><rect height="11.5625" style="fill:rgb(99%,84.6%,76.4%);fill-opacity:1.0;stroke:none" width="11.5625" x="238.4375" y="213.3125" /><rect height="11.5625" style="fill:rgb(20.5%,50%,72.6%);fill-opacity:1.0;stroke:none" width="11.5625" x="50.0" y="225.875" /><rect height="11.5625" style="fill:rgb(13.6%,40.9%,67.9%);fill-opacity:1.0;stroke:none" width="11.5625" x="62.5625" y="225.875" /><rect height="11.5625" style="fill:rgb(25.3%,56.3%,75.8%);fill-opacity:1.0;stroke:none" width="11.5625" x="75.125" y="225.875" /><rect height="11.5625" style="fill:rgb(13.6%,40.8%,67.9%);fill-opacity:1.0;stroke:none" width="11.5625" x="87.6875" y="225.875" /><rect height="11.5625" style="fill:rgb(8.1%,30.7%,54.5%);fill-opacity:1.0;stroke:none" width="11.5625" x="100.25" y="225.875" /><rect height="11.5625" style="fill:rgb(8.7%,31.8%,56%);fill-opacity:1.0;stroke:none" width="11.5625" x="112.8125" y="225.875" /><rect height="11.5625" style="fill:rgb(10.1%,34.5%,59.9%);fill-opacity:1.0;stroke:none" width="11.5625" x="125.375" y="225.875" /><rect height="11.5625" style="fill:rgb(12.8%,39.7%,67%);fill-opacity:1.0;stroke:none" width="11.5625" x="137.9375" y="225.875" /><rect height="11.5625" style="fill:rgb(69.7%,83.6%,90.6%);fill-opacity:1.0;stroke:none" width="11.5625" x="150.5" y="225.875" /><rect height="11.5625" style="fill:rgb(31.6%,61%,78.3%);fill-opacity:1.0;stroke:none" width="11.5625" x="163.0625" y="225.875" /><rect height="11.5625" style="fill:rgb(54.3%,75.4%,86%);fill-opacity:1.0;stroke:none" width="11.5625" x="175.625" y="225.875" /><rect height="11.5625" style="fill:rgb(47.6%,71.2%,83.8%);fill-opacity:1.0;stroke:none" width="11.5625" x="188.1875" y="225.875" /><rect height="11.5625" style="fill:rgb(89.9%,93.6%,95.6%);fill-opacity:1.0;stroke:none" width="11.5625" x="200.75" y="225.875" /><rect height="11.5625" style="fill:rgb(99%,87%,80%);fill-opacity:1.0;stroke:none" width="11.5625" x="213.3125" y="225.875" /><rect height="11.5625" style="fill:rgb(50.2%,50.2%,50.2%);fill-opacity:1.0;stroke:none" width="11.5625" x="225.875" y="225.875" /><rect height="11.5625" style="fill:rgb(40.4%,0%,12.2%);fill-opacity:1.0;stroke:none" width="11.5625" x="238.4375" y="225.875" /><rect height="11.5625" style="fill:rgb(21.8%,51.7%,73.4%);fill-opacity:1.0;stroke:none" width="11.5625" x="50.0" y="238.4375" /><rect height="11.5625" style="fill:rgb(16.3%,44.5%,69.7%);fill-opacity:1.0;stroke:none" width="11.5625" x="62.5625" y="238.4375" /><rect height="11.5625" style="fill:rgb(28.6%,59.1%,77.3%);fill-opacity:1.0;stroke:none" width="11.5625" x="75.125" y="238.4375" /><rect height="11.5625" style="fill:rgb(19.7%,48.9%,72%);fill-opacity:1.0;stroke:none" width="11.5625" x="87.6875" y="238.4375" /><rect height="11.5625" style="fill:rgb(16%,44.1%,69.6%);fill-opacity:1.0;stroke:none" width="11.5625" x="100.25" y="238.4375" /><rect height="11.5625" style="fill:rgb(11.2%,36.6%,62.8%);fill-opacity:1.0;stroke:none" width="11.5625" x="112.8125" y="238.4375" /><rect height="11.5625" style="fill:rgb(16.9%,45.3%,70.2%);fill-opacity:1.0;stroke:none" width="11.5625" x="125.375" y="238.4375" /><rect height="11.5625" style="fill:rgb(12.9%,39.9%,67.3%);fill-opacity:1.0;stroke:none" width="11.5625" x="137.9375" y="238.4375" /><rect height="11.5625" style="fill:rgb(54.7%,75.6%,86.2%);fill-opacity:1.0;stroke:none" width="11.5625" x="150.5" y="238.4375" /><rect height="11.5625" style="fill:rgb(23.2%,53.5%,74.4%);fill-opacity:1.0;stroke:none" width="11.5625" x="163.0625" y="238.4375" /><rect height="11.5625" style="fill:rgb(48.8%,71.9%,84.2%);fill-opacity:1.0;stroke:none" width="11.5625" x="175.625" y="238.4375" /><rect height="11.5625" style="fill:rgb(59.5%,78.4%,87.7%);fill-opacity:1.0;stroke:none" width="11.5625" x="188.1875" y="238.4375" /><rect height="11.5625" style="fill:rgb(98.6%,88.7%,82.9%);fill-opacity:1.0;stroke:none" width="11.5625" x="200.75" y="238.4375" /><rect height="11.5625" style="fill:rgb(99%,84.6%,76.4%);fill-opacity:1.0;stroke:none" width="11.5625" x="213.3125" y="238.4375" /><rect height="11.5625" style="fill:rgb(40.4%,0%,12.2%);fill-opacity:1.0;stroke:none" width="11.5625" x="225.875" y="238.4375" /><rect height="11.5625" style="fill:rgb(50.2%,50.2%,50.2%);fill-opacity:1.0;stroke:none" width="11.5625" x="238.4375" y="238.4375" /></g><g class="toyplot-coordinates-Numberline" id="tab530ab3c85842c08d511798c74b65ec"><clipPath id="ta1b933586ab045e48e25f0fb9403b113"><rect height="40.0" width="200.0" x="0" y="-20.0" /></clipPath><g clip-path="url(#ta1b933586ab045e48e25f0fb9403b113)" transform="translate(270.0,250.0)rotate(-90.0)"><g class="toyplot-color-Map" id="t0071496b4e22456889d843270cc49ccc"><defs><linearGradient gradientUnits="userSpaceOnUse" id="td7bf8b9523cd484c84621ba99aa59f0e" x1="0.0" x2="200.0" y1="0" y2="0"><stop offset="0.0" stop-color="rgb(1.96%,18.8%,38%)" stop-opacity="1.0" /><stop offset="0.01587301587301578" stop-color="rgb(3.7%,22.2%,42.7%)" stop-opacity="1.0" /><stop offset="0.031746031746031765" stop-color="rgb(5.45%,25.5%,47.4%)" stop-opacity="1.0" /><stop offset="0.04761904761904754" stop-color="rgb(7.19%,28.9%,52%)" stop-opacity="1.0" /><stop offset="0.06349206349206353" stop-color="rgb(8.93%,32.3%,56.7%)" stop-opacity="1.0" /><stop offset="0.0793650793650793" stop-color="rgb(10.7%,35.6%,61.4%)" stop-opacity="1.0" /><stop offset="0.09523809523809529" stop-color="rgb(12.4%,39%,66.1%)" stop-opacity="1.0" /><stop offset="0.11111111111111108" stop-color="rgb(14.4%,42%,68.5%)" stop-opacity="1.0" /><stop offset="0.12698412698412706" stop-color="rgb(16.5%,44.8%,69.9%)" stop-opacity="1.0" /><stop offset="0.14285714285714282" stop-color="rgb(18.7%,47.6%,71.3%)" stop-opacity="1.0" /><stop offset="0.1587301587301588" stop-color="rgb(20.8%,50.4%,72.7%)" stop-opacity="1.0" /><stop offset="0.1746031746031746" stop-color="rgb(22.9%,53.2%,74.2%)" stop-opacity="1.0" /><stop offset="0.19047619047619035" stop-color="rgb(25%,56%,75.6%)" stop-opacity="1.0" /><stop offset="0.20634920634920637" stop-color="rgb(28.2%,58.9%,77.1%)" stop-opacity="1.0" /><stop offset="0.22222222222222215" stop-color="rgb(33.2%,62%,78.8%)" stop-opacity="1.0" /><stop offset="0.2380952380952381" stop-color="rgb(38.1%,65.1%,80.5%)" stop-opacity="1.0" /><stop offset="0.2539682539682539" stop-color="rgb(43%,68.2%,82.2%)" stop-opacity="1.0" /><stop offset="0.2698412698412699" stop-color="rgb(47.9%,71.3%,83.9%)" stop-opacity="1.0" /><stop offset="0.28571428571428564" stop-color="rgb(52.8%,74.5%,85.5%)" stop-opacity="1.0" /><stop offset="0.3015873015873016" stop-color="rgb(57.6%,77.5%,87.2%)" stop-opacity="1.0" /><stop offset="0.31746031746031744" stop-color="rgb(61.6%,79.4%,88.3%)" stop-opacity="1.0" /><stop offset="0.3333333333333332" stop-color="rgb(65.5%,81.4%,89.4%)" stop-opacity="1.0" /><stop offset="0.3492063492063492" stop-color="rgb(69.4%,83.4%,90.5%)" stop-opacity="1.0" /><stop offset="0.3650793650793652" stop-color="rgb(73.3%,85.4%,91.7%)" stop-opacity="1.0" /><stop offset="0.38095238095238093" stop-color="rgb(77.3%,87.4%,92.8%)" stop-opacity="1.0" /><stop offset="0.39682539682539675" stop-color="rgb(81.2%,89.4%,93.9%)" stop-opacity="1.0" /><stop offset="0.41269841269841273" stop-color="rgb(83.9%,90.7%,94.5%)" stop-opacity="1.0" /><stop offset="0.4285714285714285" stop-color="rgb(86.2%,91.8%,94.9%)" stop-opacity="1.0" /><stop offset="0.4444444444444445" stop-color="rgb(88.6%,92.9%,95.3%)" stop-opacity="1.0" /><stop offset="0.46031746031746024" stop-color="rgb(90.9%,94.1%,95.8%)" stop-opacity="1.0" /><stop offset="0.476190476190476" stop-color="rgb(93.3%,95.2%,96.2%)" stop-opacity="1.0" /><stop offset="0.4920634920634919" stop-color="rgb(95.7%,96.3%,96.6%)" stop-opacity="1.0" /><stop offset="0.507936507936508" stop-color="rgb(97%,96%,95.4%)" stop-opacity="1.0" /><stop offset="0.5238095238095237" stop-color="rgb(97.4%,94.2%,92.4%)" stop-opacity="1.0" /><stop offset="0.5396825396825395" stop-color="rgb(97.8%,92.5%,89.4%)" stop-opacity="1.0" /><stop offset="0.5555555555555556" stop-color="rgb(98.2%,90.8%,86.4%)" stop-opacity="1.0" /><stop offset="0.5714285714285715" stop-color="rgb(98.5%,89%,83.4%)" stop-opacity="1.0" /><stop offset="0.5873015873015873" stop-color="rgb(98.9%,87.3%,80.4%)" stop-opacity="1.0" /><stop offset="0.603174603174603" stop-color="rgb(99.1%,85.2%,77.2%)" stop-opacity="1.0" /><stop offset="0.6190476190476188" stop-color="rgb(98.5%,81.8%,72.9%)" stop-opacity="1.0" /><stop offset="0.6349206349206349" stop-color="rgb(98%,78.5%,68.6%)" stop-opacity="1.0" /><stop offset="0.6507936507936507" stop-color="rgb(97.4%,75.1%,64.3%)" stop-opacity="1.0" /><stop offset="0.6666666666666665" stop-color="rgb(96.9%,71.8%,60%)" stop-opacity="1.0" /><stop offset="0.6825396825396823" stop-color="rgb(96.3%,68.4%,55.7%)" stop-opacity="1.0" /><stop offset="0.6984126984126984" stop-color="rgb(95.7%,65%,51.4%)" stop-opacity="1.0" /><stop offset="0.7142857142857143" stop-color="rgb(94%,60.8%,48%)" stop-opacity="1.0" /><stop offset="0.7301587301587301" stop-color="rgb(92.1%,56.5%,44.7%)" stop-opacity="1.0" /><stop offset="0.7460317460317459" stop-color="rgb(90.3%,52.3%,41.4%)" stop-opacity="1.0" /><stop offset="0.7619047619047621" stop-color="rgb(88.4%,48%,38.1%)" stop-opacity="1.0" /><stop offset="0.7777777777777775" stop-color="rgb(86.5%,43.7%,34.8%)" stop-opacity="1.0" /><stop offset="0.7936507936507937" stop-color="rgb(84.7%,39.4%,31.5%)" stop-opacity="1.0" /><stop offset="0.8095238095238095" stop-color="rgb(82.6%,35%,28.9%)" stop-opacity="1.0" /><stop offset="0.8253968253968254" stop-color="rgb(80.3%,30.5%,26.8%)" stop-opacity="1.0" /><stop offset="0.8412698412698414" stop-color="rgb(78.1%,26%,24.7%)" stop-opacity="1.0" /><stop offset="0.8571428571428572" stop-color="rgb(75.9%,21.5%,22.6%)" stop-opacity="1.0" /><stop offset="0.8730158730158729" stop-color="rgb(73.6%,17%,20.5%)" stop-opacity="1.0" /><stop offset="0.8888888888888887" stop-color="rgb(71.4%,12.5%,18.3%)" stop-opacity="1.0" /><stop offset="0.9047619047619045" stop-color="rgb(68.4%,8.96%,16.6%)" stop-opacity="1.0" /><stop offset="0.9206349206349206" stop-color="rgb(63.7%,7.47%,15.9%)" stop-opacity="1.0" /><stop offset="0.9365079365079364" stop-color="rgb(59.1%,5.98%,15.1%)" stop-opacity="1.0" /><stop offset="0.9523809523809522" stop-color="rgb(54.4%,4.48%,14.4%)" stop-opacity="1.0" /><stop offset="0.9682539682539685" stop-color="rgb(49.7%,2.99%,13.7%)" stop-opacity="1.0" /><stop offset="0.9841269841269839" stop-color="rgb(45.1%,1.49%,12.9%)" stop-opacity="1.0" /><stop offset="1.0" stop-color="rgb(40.4%,0%,12.2%)" stop-opacity="1.0" /></linearGradient></defs><rect height="10" style="fill:url(#td7bf8b9523cd484c84621ba99aa59f0e);stroke:none;stroke-width:5" width="200.0" x="0.0" y="-5.0" /></g></g><g class="toyplot-coordinates-Axis" id="te364c96f0b97421d9cef115f42b61811" transform="translate(270.0,250.0)rotate(-90.0)translate(0,20.0)"><line style="" x1="0" x2="200.0" y1="0" y2="0" /><g><g transform="translate(2.4220957532999146,6)"><text style="fill:rgb(16.1%,15.3%,14.1%);fill-opacity:1.0;font-family:helvetica;font-size:10.0px;font-weight:normal;stroke:none;vertical-align:baseline;white-space:pre" x="-6.95" y="8.555">2.5</text></g><g transform="translate(48.40755256852474,6)"><text style="fill:rgb(16.1%,15.3%,14.1%);fill-opacity:1.0;font-family:helvetica;font-size:10.0px;font-weight:normal;stroke:none;vertical-align:baseline;white-space:pre" x="-6.95" y="8.555">3.0</text></g><g transform="translate(94.39300938374956,6)"><text style="fill:rgb(16.1%,15.3%,14.1%);fill-opacity:1.0;font-family:helvetica;font-size:10.0px;font-weight:normal;stroke:none;vertical-align:baseline;white-space:pre" x="-6.95" y="8.555">3.5</text></g><g transform="translate(140.3784661989744,6)"><text style="fill:rgb(16.1%,15.3%,14.1%);fill-opacity:1.0;font-family:helvetica;font-size:10.0px;font-weight:normal;stroke:none;vertical-align:baseline;white-space:pre" x="-6.95" y="8.555">4.0</text></g><g transform="translate(186.36392301419923,6)"><text style="fill:rgb(16.1%,15.3%,14.1%);fill-opacity:1.0;font-family:helvetica;font-size:10.0px;font-weight:normal;stroke:none;vertical-align:baseline;white-space:pre" x="-6.95" y="8.555">4.5</text></g></g><g class="toyplot-coordinates-Axis-coordinates" style="visibility:hidden" transform=""><line style="stroke:rgb(43.9%,50.2%,56.5%);stroke-opacity:1.0;stroke-width:1.0" x1="0" x2="0" y1="-3.0" y2="4.5" /><text style="alignment-baseline:alphabetic;fill:rgb(43.9%,50.2%,56.5%);fill-opacity:1.0;font-size:10px;font-weight:normal;stroke:none;text-anchor:middle" x="0" y="-6" /></g></g></g></svg>