<svg class="toyplot-canvas-Canvas" xmlns:toyplot="http://www.sandia.gov/toyplot" xmlns:xlink="http://www.w3.org/1999/xlink" xmlns="http://www.w3.org/2000/svg" width="290.0px" height="250.0px" viewBox="0 0 290.0 250.0" preserveAspectRatio="xMidYMid meet" style="background-color:transparent;border-color:#292724;border-style:none;border-width:1.0;fill:rgb(16.1%,15.3%,14.1%);fill-opacity:1.0;font-family:Helvetica;font-size:12px;opacity:1.0;stroke:rgb(16.1%,15.3%,14.1%);stroke-opacity:1.0;stroke-width:1.0" id="tc343d5549cce426aa2eef3a078d2c865"><g class="toyplot-coordinates-Cartesian" id="t07723801472c417ca0c89e07822842de"><clipPath id="t444d2584dd6b48f0b1bae7416947ea18"><rect x="35.0" y="35.0" width="220.0" height="180.0" /></clipPath><g clip-path="url(#t444d2584dd6b48f0b1bae7416947ea18)"><g class="toytree-mark-Toytree" id="taedfb53b9e6d418a86912c0990f0e8e8"><g class="toytree-Edges" style="stroke:rgb(14.5%,14.5%,14.5%);stroke-opacity:1.0;stroke-linecap:round;stroke-width:2.0;fill:none"><path d="M 178.5 66.3 L 178.5 56.6 L 199.8 56.6" id="8,0" style="" /><path d="M 178.5 66.3 L 178.5 76.1 L 199.8 76.1" id="8,1" style="" /><path d="M 157.2 81.0 L 157.2 95.7 L 199.8 95.7" id="9,2" style="" /><path d="M 135.9 98.1 L 135.9 115.2 L 199.8 115.2" id="10,3" style="" /><path d="M 114.6 116.4 L 114.6 134.8 L 199.8 134.8" id="11,4" style="" /><path d="M 93.3 135.4 L 93.3 154.3 L 199.8 154.3" id="12,5" style="" /><path d="M 72.1 154.6 L 72.1 173.9 L 199.8 173.9" id="13,6" style="" /><path d="M 50.8 174.0 L 50.8 193.4 L 199.8 193.4" id="14,7" style="" /><path d="M 157.2 81.0 L 157.2 66.3 L 178.5 66.3" id="9,8" style="" /><path d="M 135.9 98.1 L 135.9 81.0 L 157.2 81.0" id="10,9" style="" /><path d="M 114.6 116.4 L 114.6 98.1 L 135.9 98.1" id="11,10" style="" /><path d="M 93.3 135.4 L 93.3 116.4 L 114.6 116.4" id="12,11" style="" /><path d="M 72.1 154.6 L 72.1 135.4 L 93.3 135.4" id="13,12" style="" /><path d="M 50.8 174.0 L 50.8 154.6 L 72.1 154.6" id="14,13" style="" /></g><g class="toytree-AdmixEdges" style="fill:rgb(0.0%,0.0%,0.0%);fill-opacity:0.0;stroke:rgb(90.6%,54.1%,76.5%);stroke-opacity:0.6;font-size:14px;stroke-linecap:round;stroke-width:5"><path d="M 199.75 95.67 L 180.61 95.67 L 180.61 76.12 L 178.47 76.12" style="stroke:rgb(70.8%,88.2%,63.6%);stroke-opacity:0.316;stroke-width:2" /><text x="180.61" y="97.90" style="fill:rgb(14.9%,14.9%,14.9%);fill-opacity:1.0;stroke:rgb(0.0%,0.0%,0.0%);stroke-opacity:0.316;stroke-width:2;text-anchor:middle" /><path d="M 199.75 95.67 L 173.66 95.67 L 173.66 115.22 L 135.91 115.22" style="stroke:rgb(69.4%,87.6%,63.8%);stroke-opacity:0.31;stroke-width:2" /><text x="173.66" y="117.45" style="fill:rgb(14.9%,14.9%,14.9%);fill-opacity:1.0;stroke:rgb(0.0%,0.0%,0.0%);stroke-opacity:0.31;stroke-width:2;text-anchor:middle" /><path d="M 157.19 81.01 L 148.22 81.01 L 50.78 174.03 L 50.78 174.03" style="stroke:rgb(93.3%,39.1%,27.2%);stroke-opacity:0.82;stroke-width:2" /><text x="99.50" y="139.52" style="fill:rgb(14.9%,14.9%,14.9%);fill-opacity:1.0;stroke:rgb(0.0%,0.0%,0.0%);stroke-opacity:0.82;stroke-width:2;text-anchor:middle" /><path d="M 199.75 95.67 L 190.72 95.67 L 190.72 56.57 L 178.47 56.57" style="stroke:rgb(59.5%,83.7%,64.4%);stroke-opacity:0.272;stroke-width:2" /><text x="190.72" y="88.12" style="fill:rgb(14.9%,14.9%,14.9%);fill-opacity:1.0;stroke:rgb(0.0%,0.0%,0.0%);stroke-opacity:0.272;stroke-width:2;text-anchor:middle" /><path d="M 199.75 95.67 L 180.59 95.67 L 180.59 115.22 L 135.91 115.22" style="stroke:rgb(49.2%,79.7%,64.6%);stroke-opacity:0.234;stroke-width:2" /><text x="180.59" y="117.45" style="fill:rgb(14.9%,14.9%,14.9%);fill-opacity:1.0;stroke:rgb(0.0%,0.0%,0.0%);stroke-opacity:0.234;stroke-width:2;text-anchor:middle" /><path d="M 199.75 115.22 L 188.28 115.22 L 188.28 134.78 L 114.63 134.78" style="stroke:rgb(24.6%,46.9%,71.1%);stroke-opacity:0.0712;stroke-width:2" /><text x="188.28" y="137.00" style="fill:rgb(14.9%,14.9%,14.9%);fill-opacity:1.0;stroke:rgb(0.0%,0.0%,0.0%);stroke-opacity:0.0712;stroke-width:2;text-anchor:middle" /><path d="M 199.75 95.67 L 191.77 95.67 L 191.77 56.57 L 178.47 56.57" style="stroke:rgb(52.4%,80.9%,64.5%);stroke-opacity:0.246;stroke-width:2" /><text x="191.77" y="88.12" style="fill:rgb(14.9%,14.9%,14.9%);fill-opacity:1.0;stroke:rgb(0.0%,0.0%,0.0%);stroke-opacity:0.246;stroke-width:2;text-anchor:middle" /><path d="M 199.75 95.67 L 189.45 95.67 L 189.45 56.57 L 178.47 56.57" style="stroke:rgb(74.0%,89.5%,62.9%);stroke-opacity:0.33;stroke-width:2" /><text x="189.45" y="88.12" style="fill:rgb(14.9%,14.9%,14.9%);fill-opacity:1.0;stroke:rgb(0.0%,0.0%,0.0%);stroke-opacity:0.33;stroke-width:2;text-anchor:middle" /><path d="M 199.75 95.67 L 196.37 95.67 L 196.37 76.12 L 178.47 76.12" style="stroke:rgb(54.6%,81.8%,64.5%);stroke-opacity:0.254;stroke-width:2" /><text x="196.37" y="97.90" style="fill:rgb(14.9%,14.9%,14.9%);fill-opacity:1.0;stroke:rgb(0.0%,0.0%,0.0%);stroke-opacity:0.254;stroke-width:2;text-anchor:middle" /><path d="M 199.75 95.67 L 183.62 95.67 L 183.62 56.57 L 178.47 56.57" style="stroke:rgb(62.7%,85.0%,64.4%);stroke-opacity:0.284;stroke-width:2" /><text x="183.62" y="88.12" style="fill:rgb(14.9%,14.9%,14.9%);fill-opacity:1.0;stroke:rgb(0.0%,0.0%,0.0%);stroke-opacity:0.284;stroke-width:2;text-anchor:middle" /><path d="M 199.75 95.67 L 199.27 95.67 L 199.27 115.22 L 135.91 115.22" style="stroke:rgb(73.5%,89.3%,63.0%);stroke-opacity:0.328;stroke-width:2" /><text x="199.27" y="117.45" style="fill:rgb(14.9%,14.9%,14.9%);fill-opacity:1.0;stroke:rgb(0.0%,0.0%,0.0%);stroke-opacity:0.328;stroke-width:2;text-anchor:middle" /><path d="M 199.75 95.67 L 163.12 95.67 L 163.12 115.22 L 135.91 115.22" style="stroke:rgb(76.8%,90.6%,62.3%);stroke-opacity:0.342;stroke-width:2" /><text x="163.12" y="117.45" style="fill:rgb(14.9%,14.9%,14.9%);fill-opacity:1.0;stroke:rgb(0.0%,0.0%,0.0%);stroke-opacity:0.342;stroke-width:2;text-anchor:middle" /><path d="M 199.75 95.67 L 168.19 95.67 L 168.19 154.33 L 93.35 154.33" style="stroke:rgb(54.6%,81.8%,64.5%);stroke-opacity:0.254;stroke-width:2" /><text x="168.19" y="137.00" style="fill:rgb(14.9%,14.9%,14.9%);fill-opacity:1.0;stroke:rgb(0.0%,0.0%,0.0%);stroke-opacity:0.254;stroke-width:2;text-anchor:middle" /><path d="M 199.75 95.67 L 186.76 95.67 L 186.76 76.12 L 178.47 76.12" style="stroke:rgb(62.2%,84.8%,64.4%);stroke-opacity:0.282;stroke-width:2" /><text x="186.76" y="97.90" style="fill:rgb(14.9%,14.9%,14.9%);fill-opacity:1.0;stroke:rgb(0.0%,0.0%,0.0%);stroke-opacity:0.282;stroke-width:2;text-anchor:middle" /><path d="M 199.75 95.67 L 199.53 95.67 L 50.78 174.03 L 50.78 174.03" style="stroke:rgb(74.0%,89.5%,62.9%);stroke-opacity:0.33;stroke-width:2" /><text x="125.16" y="146.85" style="fill:rgb(14.9%,14.9%,14.9%);fill-opacity:1.0;stroke:rgb(0.0%,0.0%,0.0%);stroke-opacity:0.33;stroke-width:2;text-anchor:middle" /><path d="M 199.75 95.67 L 198.47 95.67 L 198.47 56.57 L 178.47 56.57" style="stroke:rgb(59.5%,83.7%,64.4%);stroke-opacity:0.272;stroke-width:2" /><text x="198.47" y="88.12" style="fill:rgb(14.9%,14.9%,14.9%);fill-opacity:1.0;stroke:rgb(0.0%,0.0%,0.0%);stroke-opacity:0.272;stroke-width:2;text-anchor:middle" /><path d="M 199.75 95.67 L 181.73 95.67 L 181.73 76.12 L 178.47 76.12" style="stroke:rgb(68.4%,87.2%,64.0%);stroke-opacity:0.306;stroke-width:2" /><text x="181.73" y="97.90" style="fill:rgb(14.9%,14.9%,14.9%);fill-opacity:1.0;stroke:rgb(0.0%,0.0%,0.0%);stroke-opacity:0.306;stroke-width:2;text-anchor:middle" /><path d="M 199.75 95.67 L 183.76 95.67 L 183.76 76.12 L 178.47 76.12" style="stroke:rgb(38.0%,73.8%,65.6%);stroke-opacity:0.19;stroke-width:2" /><text x="183.76" y="97.90" style="fill:rgb(14.9%,14.9%,14.9%);fill-opacity:1.0;stroke:rgb(0.0%,0.0%,0.0%);stroke-opacity:0.19;stroke-width:2;text-anchor:middle" /><path d="M 199.75 95.67 L 185.88 95.67 L 185.88 76.12 L 178.47 76.12" style="stroke:rgb(64.9%,85.8%,64.3%);stroke-opacity:0.292;stroke-width:2" /><text x="185.88" y="97.90" style="fill:rgb(14.9%,14.9%,14.9%);fill-opacity:1.0;stroke:rgb(0.0%,0.0%,0.0%);stroke-opacity:0.292;stroke-width:2;text-anchor:middle" /><path d="M 199.75 95.67 L 181.77 95.67 L 181.77 76.12 L 178.47 76.12" style="stroke:rgb(66.5%,86.5%,64.3%);stroke-opacity:0.298;stroke-width:2" /><text x="181.77" y="97.90" style="fill:rgb(14.9%,14.9%,14.9%);fill-opacity:1.0;stroke:rgb(0.0%,0.0%,0.0%);stroke-opacity:0.298;stroke-width:2;text-anchor:middle" /><path d="M 50.78 174.03 L 50.78 174.03 L 50.78 174.03 L 50.78 174.03" style="stroke:rgb(89.7%,95.9%,59.7%);stroke-opacity:0.398;stroke-width:2" /><text x="50.78" y="186.03" style="fill:rgb(14.9%,14.9%,14.9%);fill-opacity:1.0;stroke:rgb(0.0%,0.0%,0.0%);stroke-opacity:0.398;stroke-width:2;text-anchor:middle" /><path d="M 199.75 95.67 L 190.12 95.67 L 190.12 76.12 L 178.47 76.12" style="stroke:rgb(69.8%,87.8%,63.7%);stroke-opacity:0.312;stroke-width:2" /><text x="190.12" y="97.90" style="fill:rgb(14.9%,14.9%,14.9%);fill-opacity:1.0;stroke:rgb(0.0%,0.0%,0.0%);stroke-opacity:0.312;stroke-width:2;text-anchor:middle" /><path d="M 199.75 95.67 L 183.24 95.67 L 183.24 76.12 L 178.47 76.12" style="stroke:rgb(58.9%,83.5%,64.4%);stroke-opacity:0.27;stroke-width:2" /><text x="183.24" y="97.90" style="fill:rgb(14.9%,14.9%,14.9%);fill-opacity:1.0;stroke:rgb(0.0%,0.0%,0.0%);stroke-opacity:0.27;stroke-width:2;text-anchor:middle" /><path d="M 157.19 81.01 L 153.55 81.01 L 50.78 174.03 L 50.78 174.03" style="stroke:rgb(47.6%,79.0%,64.6%);stroke-opacity:0.228;stroke-width:2" /><text x="102.17" y="139.52" style="fill:rgb(14.9%,14.9%,14.9%);fill-opacity:1.0;stroke:rgb(0.0%,0.0%,0.0%);stroke-opacity:0.228;stroke-width:2;text-anchor:middle" /><path d="M 199.75 95.67 L 164.40 95.67 L 164.40 115.22 L 135.91 115.22" style="stroke:rgb(62.7%,85.0%,64.4%);stroke-opacity:0.284;stroke-width:2" /><text x="164.40" y="117.45" style="fill:rgb(14.9%,14.9%,14.9%);fill-opacity:1.0;stroke:rgb(0.0%,0.0%,0.0%);stroke-opacity:0.284;stroke-width:2;text-anchor:middle" /><path d="M 199.75 95.67 L 195.89 95.67 L 195.89 76.12 L 178.47 76.12" style="stroke:rgb(66.0%,86.2%,64.3%);stroke-opacity:0.296;stroke-width:2" /><text x="195.89" y="97.90" style="fill:rgb(14.9%,14.9%,14.9%);fill-opacity:1.0;stroke:rgb(0.0%,0.0%,0.0%);stroke-opacity:0.296;stroke-width:2;text-anchor:middle" /><path d="M 157.19 81.01 L 137.62 81.01 L 50.78 174.03 L 50.78 174.03" style="stroke:rgb(97.5%,55.5%,32.2%);stroke-opacity:0.75;stroke-width:2" /><text x="94.20" y="139.52" style="fill:rgb(14.9%,14.9%,14.9%);fill-opacity:1.0;stroke:rgb(0.0%,0.0%,0.0%);stroke-opacity:0.75;stroke-width:2;text-anchor:middle" /><path d="M 199.75 95.67 L 189.57 95.67 L 189.57 56.57 L 178.47 56.57" style="stroke:rgb(54.6%,81.8%,64.5%);stroke-opacity:0.254;stroke-width:2" /><text x="189.57" y="88.12" style="fill:rgb(14.9%,14.9%,14.9%);fill-opacity:1.0;stroke:rgb(0.0%,0.0%,0.0%);stroke-opacity:0.254;stroke-width:2;text-anchor:middle" /><path d="M 199.75 95.67 L 174.20 95.67 L 174.20 154.33 L 93.35 154.33" style="stroke:rgb(60.6%,84.1%,64.4%);stroke-opacity:0.276;stroke-width:2" /><text x="174.20" y="137.00" style="fill:rgb(14.9%,14.9%,14.9%);fill-opacity:1.0;stroke:rgb(0.0%,0.0%,0.0%);stroke-opacity:0.276;stroke-width:2;text-anchor:middle" /><path d="M 199.75 95.67 L 181.82 95.67 L 181.82 56.57 L 178.47 56.57" style="stroke:rgb(82.3%,92.9%,61.2%);stroke-opacity:0.366;stroke-width:2" /><text x="181.82" y="88.12" style="fill:rgb(14.9%,14.9%,14.9%);fill-opacity:1.0;stroke:rgb(0.0%,0.0%,0.0%);stroke-opacity:0.366;stroke-width:2;text-anchor:middle" /><path d="M 199.75 95.67 L 195.94 95.67 L 195.94 76.12 L 178.47 76.12" style="stroke:rgb(62.2%,84.8%,64.4%);stroke-opacity:0.282;stroke-width:2" /><text x="195.94" y="97.90" style="fill:rgb(14.9%,14.9%,14.9%);fill-opacity:1.0;stroke:rgb(0.0%,0.0%,0.0%);stroke-opacity:0.282;stroke-width:2;text-anchor:middle" /><path d="M 199.75 95.67 L 157.19 95.67 L 157.19 115.22 L 135.91 115.22" style="stroke:rgb(60.0%,83.9%,64.4%);stroke-opacity:0.274;stroke-width:2" /><text x="157.19" y="117.45" style="fill:rgb(14.9%,14.9%,14.9%);fill-opacity:1.0;stroke:rgb(0.0%,0.0%,0.0%);stroke-opacity:0.274;stroke-width:2;text-anchor:middle" /><path d="M 50.78 174.03 L 50.78 174.03 L 50.78 174.03 L 50.78 174.03" style="stroke:rgb(97.8%,99.1%,71.5%);stroke-opacity:0.478;stroke-width:2" /><text x="50.78" y="186.03" style="fill:rgb(14.9%,14.9%,14.9%);fill-opacity:1.0;stroke:rgb(0.0%,0.0%,0.0%);stroke-opacity:0.478;stroke-width:2;text-anchor:middle" /><path d="M 199.75 95.67 L 188.00 95.67 L 188.00 56.57 L 178.47 56.57" style="stroke:rgb(59.5%,83.7%,64.4%);stroke-opacity:0.272;stroke-width:2" /><text x="188.00" y="88.12" style="fill:rgb(14.9%,14.9%,14.9%);fill-opacity:1.0;stroke:rgb(0.0%,0.0%,0.0%);stroke-opacity:0.272;stroke-width:2;text-anchor:middle" /><path d="M 199.75 115.22 L 197.59 115.22 L 197.59 134.78 L 114.63 134.78" style="stroke:rgb(26.0%,60.5%,71.2%);stroke-opacity:0.1314;stroke-width:2" /><text x="197.59" y="137.00" style="fill:rgb(14.9%,14.9%,14.9%);fill-opacity:1.0;stroke:rgb(0.0%,0.0%,0.0%);stroke-opacity:0.1314;stroke-width:2;text-anchor:middle" /><path d="M 157.19 81.01 L 138.43 81.01 L 50.78 174.03 L 50.78 174.03" style="stroke:rgb(71.5%,10.9%,28.1%);stroke-opacity:0.956;stroke-width:2" /><text x="94.61" y="139.52" style="fill:rgb(14.9%,14.9%,14.9%);fill-opacity:1.0;stroke:rgb(0.0%,0.0%,0.0%);stroke-opacity:0.956;stroke-width:2;text-anchor:middle" /><path d="M 199.75 95.67 L 186.00 95.67 L 186.00 76.12 L 178.47 76.12" style="stroke:rgb(64.4%,85.6%,64.4%);stroke-opacity:0.29;stroke-width:2" /><text x="186.00" y="97.90" style="fill:rgb(14.9%,14.9%,14.9%);fill-opacity:1.0;stroke:rgb(0.0%,0.0%,0.0%);stroke-opacity:0.29;stroke-width:2;text-anchor:middle" /><path d="M 199.75 95.67 L 181.86 95.67 L 50.78 174.03 L 50.78 174.03" style="stroke:rgb(71.2%,88.4%,63.5%);stroke-opacity:0.318;stroke-width:2" /><text x="116.32" y="146.85" style="fill:rgb(14.9%,14.9%,14.9%);fill-opacity:1.0;stroke:rgb(0.0%,0.0%,0.0%);stroke-opacity:0.318;stroke-width:2;text-anchor:middle" /><path d="M 50.78 174.03 L 50.78 174.03 L 50.78 174.03 L 50.78 174.03" style="stroke:rgb(98.4%,62.1%,35.2%);stroke-opacity:0.724;stroke-width:2" /><text x="50.78" y="186.03" style="fill:rgb(14.9%,14.9%,14.9%);fill-opacity:1.0;stroke:rgb(0.0%,0.0%,0.0%);stroke-opacity:0.724;stroke-width:2;text-anchor:middle" /><path d="M 199.75 95.67 L 197.92 95.67 L 197.92 76.12 L 178.47 76.12" style="stroke:rgb(80.0%,91.9%,61.7%);stroke-opacity:0.356;stroke-width:2" /><text x="197.92" y="97.90" style="fill:rgb(14.9%,14.9%,14.9%);fill-opacity:1.0;stroke:rgb(0.0%,0.0%,0.0%);stroke-opacity:0.356;stroke-width:2;text-anchor:middle" /><path d="M 199.75 95.67 L 198.40 95.67 L 198.40 76.12 L 178.47 76.12" style="stroke:rgb(64.4%,85.6%,64.4%);stroke-opacity:0.29;stroke-width:2" /><text x="198.40" y="97.90" style="fill:rgb(14.9%,14.9%,14.9%);fill-opacity:1.0;stroke:rgb(0.0%,0.0%,0.0%);stroke-opacity:0.29;stroke-width:2;text-anchor:middle" /><path d="M 199.75 95.67 L 179.14 95.67 L 179.14 56.57 L 178.47 56.57" style="stroke:rgb(74.9%,89.9%,62.7%);stroke-opacity:0.334;stroke-width:2" /><text x="179.14" y="88.12" style="fill:rgb(14.9%,14.9%,14.9%);fill-opacity:1.0;stroke:rgb(0.0%,0.0%,0.0%);stroke-opacity:0.334;stroke-width:2;text-anchor:middle" /><path d="M 199.75 95.67 L 182.82 95.67 L 182.82 134.78 L 114.63 134.78" style="stroke:rgb(48.7%,79.5%,64.6%);stroke-opacity:0.232;stroke-width:2" /><text x="182.82" y="127.22" style="fill:rgb(14.9%,14.9%,14.9%);fill-opacity:1.0;stroke:rgb(0.0%,0.0%,0.0%);stroke-opacity:0.232;stroke-width:2;text-anchor:middle" /><path d="M 199.75 95.67 L 197.33 95.67 L 197.33 115.22 L 135.91 115.22" style="stroke:rgb(73.1%,89.1%,63.1%);stroke-opacity:0.326;stroke-width:2" /><text x="197.33" y="117.45" style="fill:rgb(14.9%,14.9%,14.9%);fill-opacity:1.0;stroke:rgb(0.0%,0.0%,0.0%);stroke-opacity:0.326;stroke-width:2;text-anchor:middle" /><path d="M 157.19 81.01 L 154.89 81.01 L 50.78 174.03 L 50.78 174.03" style="stroke:rgb(68.9%,87.4%,63.9%);stroke-opacity:0.308;stroke-width:2" /><text x="102.83" y="139.52" style="fill:rgb(14.9%,14.9%,14.9%);fill-opacity:1.0;stroke:rgb(0.0%,0.0%,0.0%);stroke-opacity:0.308;stroke-width:2;text-anchor:middle" /><path d="M 199.75 95.67 L 193.60 95.67 L 193.60 56.57 L 178.47 56.57" style="stroke:rgb(60.6%,84.1%,64.4%);stroke-opacity:0.276;stroke-width:2" /><text x="193.60" y="88.12" style="fill:rgb(14.9%,14.9%,14.9%);fill-opacity:1.0;stroke:rgb(0.0%,0.0%,0.0%);stroke-opacity:0.276;stroke-width:2;text-anchor:middle" /><path d="M 199.75 95.67 L 181.78 95.67 L 181.78 154.33 L 93.35 154.33" style="stroke:rgb(55.7%,82.2%,64.5%);stroke-opacity:0.258;stroke-width:2" /><text x="181.78" y="137.00" style="fill:rgb(14.9%,14.9%,14.9%);fill-opacity:1.0;stroke:rgb(0.0%,0.0%,0.0%);stroke-opacity:0.258;stroke-width:2;text-anchor:middle" /><path d="M 199.75 95.67 L 187.79 95.67 L 187.79 56.57 L 178.47 56.57" style="stroke:rgb(67.1%,86.7%,64.3%);stroke-opacity:0.3;stroke-width:2" /><text x="187.79" y="88.12" style="fill:rgb(14.9%,14.9%,14.9%);fill-opacity:1.0;stroke:rgb(0.0%,0.0%,0.0%);stroke-opacity:0.3;stroke-width:2;text-anchor:middle" /><path d="M 199.75 95.67 L 184.36 95.67 L 184.36 115.22 L 135.91 115.22" style="stroke:rgb(64.4%,85.6%,64.4%);stroke-opacity:0.29;stroke-width:2" /><text x="184.36" y="117.45" style="fill:rgb(14.9%,14.9%,14.9%);fill-opacity:1.0;stroke:rgb(0.0%,0.0%,0.0%);stroke-opacity:0.29;stroke-width:2;text-anchor:middle" /><path d="M 199.75 95.67 L 191.91 95.67 L 191.91 76.12 L 178.47 76.12" style="stroke:rgb(63.8%,85.4%,64.4%);stroke-opacity:0.288;stroke-width:2" /><text x="191.91" y="97.90" style="fill:rgb(14.9%,14.9%,14.9%);fill-opacity:1.0;stroke:rgb(0.0%,0.0%,0.0%);stroke-opacity:0.288;stroke-width:2;text-anchor:middle" /><path d="M 199.75 95.67 L 174.01 95.67 L 174.01 154.33 L 93.35 154.33" style="stroke:rgb(63.8%,85.4%,64.4%);stroke-opacity:0.288;stroke-width:2" /><text x="174.01" y="137.00" style="fill:rgb(14.9%,14.9%,14.9%);fill-opacity:1.0;stroke:rgb(0.0%,0.0%,0.0%);stroke-opacity:0.288;stroke-width:2;text-anchor:middle" /><path d="M 199.75 95.67 L 196.39 95.67 L 196.39 76.12 L 178.47 76.12" style="stroke:rgb(72.1%,88.7%,63.3%);stroke-opacity:0.322;stroke-width:2" /><text x="196.39" y="97.90" style="fill:rgb(14.9%,14.9%,14.9%);fill-opacity:1.0;stroke:rgb(0.0%,0.0%,0.0%);stroke-opacity:0.322;stroke-width:2;text-anchor:middle" /><path d="M 199.75 95.67 L 177.37 95.67 L 177.37 115.22 L 135.91 115.22" style="stroke:rgb(85.1%,94.0%,60.6%);stroke-opacity:0.378;stroke-width:2" /><text x="177.37" y="117.45" style="fill:rgb(14.9%,14.9%,14.9%);fill-opacity:1.0;stroke:rgb(0.0%,0.0%,0.0%);stroke-opacity:0.378;stroke-width:2;text-anchor:middle" /><path d="M 199.75 95.67 L 182.37 95.67 L 182.37 56.57 L 178.47 56.57" style="stroke:rgb(58.9%,83.5%,64.4%);stroke-opacity:0.27;stroke-width:2" /><text x="182.37" y="88.12" style="fill:rgb(14.9%,14.9%,14.9%);fill-opacity:1.0;stroke:rgb(0.0%,0.0%,0.0%);stroke-opacity:0.27;stroke-width:2;text-anchor:middle" /><path d="M 199.75 95.67 L 180.07 95.67 L 180.07 76.12 L 178.47 76.12" style="stroke:rgb(76.3%,90.4%,62.4%);stroke-opacity:0.34;stroke-width:2" /><text x="180.07" y="97.90" style="fill:rgb(14.9%,14.9%,14.9%);fill-opacity:1.0;stroke:rgb(0.0%,0.0%,0.0%);stroke-opacity:0.34;stroke-width:2;text-anchor:middle" /><path d="M 199.75 95.67 L 179.39 95.67 L 179.39 76.12 L 178.47 76.12" style="stroke:rgb(81.9%,92.7%,61.3%);stroke-opacity:0.364;stroke-width:2" /><text x="179.39" y="97.90" style="fill:rgb(14.9%,14.9%,14.9%);fill-opacity:1.0;stroke:rgb(0.0%,0.0%,0.0%);stroke-opacity:0.364;stroke-width:2;text-anchor:middle" /><path d="M 157.19 81.01 L 152.68 81.01 L 50.78 174.03 L 50.78 174.03" style="stroke:rgb(99.3%,72.2%,41.3%);stroke-opacity:0.68;stroke-width:2" /><text x="101.73" y="139.52" style="fill:rgb(14.9%,14.9%,14.9%);fill-opacity:1.0;stroke:rgb(0.0%,0.0%,0.0%);stroke-opacity:0.68;stroke-width:2;text-anchor:middle" /><path d="M 50.78 174.03 L 50.78 174.03 L 50.78 174.03 L 50.78 174.03" style="stroke:rgb(29.0%,63.8%,69.8%);stroke-opacity:0.146;stroke-width:2" /><text x="50.78" y="186.03" style="fill:rgb(14.9%,14.9%,14.9%);fill-opacity:1.0;stroke:rgb(0.0%,0.0%,0.0%);stroke-opacity:0.146;stroke-width:2;text-anchor:middle" /><path d="M 50.78 174.03 L 50.78 174.03 L 50.78 174.03 L 50.78 174.03" style="stroke:rgb(55.7%,82.2%,64.5%);stroke-opacity:0.258;stroke-width:2" /><text x="50.78" y="186.03" style="fill:rgb(14.9%,14.9%,14.9%);fill-opacity:1.0;stroke:rgb(0.0%,0.0%,0.0%);stroke-opacity:0.258;stroke-width:2;text-anchor:middle" /><path d="M 199.75 95.67 L 160.56 95.67 L 160.56 115.22 L 135.91 115.22" style="stroke:rgb(71.2%,88.4%,63.5%);stroke-opacity:0.318;stroke-width:2" /><text x="160.56" y="117.45" style="fill:rgb(14.9%,14.9%,14.9%);fill-opacity:1.0;stroke:rgb(0.0%,0.0%,0.0%);stroke-opacity:0.318;stroke-width:2;text-anchor:middle" /><path d="M 157.19 81.01 L 155.57 81.01 L 50.78 174.03 L 50.78 174.03" style="stroke:rgb(93.1%,97.3%,64.2%);stroke-opacity:0.43;stroke-width:2" /><text x="103.18" y="139.52" style="fill:rgb(14.9%,14.9%,14.9%);fill-opacity:1.0;stroke:rgb(0.0%,0.0%,0.0%);stroke-opacity:0.43;stroke-width:2;text-anchor:middle" /><path d="M 199.75 95.67 L 188.72 95.67 L 188.72 56.57 L 178.47 56.57" style="stroke:rgb(53.0%,81.2%,64.5%);stroke-opacity:0.248;stroke-width:2" /><text x="188.72" y="88.12" style="fill:rgb(14.9%,14.9%,14.9%);fill-opacity:1.0;stroke:rgb(0.0%,0.0%,0.0%);stroke-opacity:0.248;stroke-width:2;text-anchor:middle" /><path d="M 157.19 81.01 L 140.07 81.01 L 50.78 174.03 L 50.78 174.03" style="stroke:rgb(67.1%,6.1%,27.1%);stroke-opacity:0.976;stroke-width:2" /><text x="95.43" y="139.52" style="fill:rgb(14.9%,14.9%,14.9%);fill-opacity:1.0;stroke:rgb(0.0%,0.0%,0.0%);stroke-opacity:0.976;stroke-width:2;text-anchor:middle" /><path d="M 199.75 95.67 L 192.53 95.67 L 50.78 174.03 L 50.78 174.03" style="stroke:rgb(70.8%,88.2%,63.6%);stroke-opacity:0.316;stroke-width:2" /><text x="121.66" y="146.85" style="fill:rgb(14.9%,14.9%,14.9%);fill-opacity:1.0;stroke:rgb(0.0%,0.0%,0.0%);stroke-opacity:0.316;stroke-width:2;text-anchor:middle" /><path d="M 199.75 95.67 L 161.44 95.67 L 161.44 115.22 L 135.91 115.22" style="stroke:rgb(72.6%,88.9%,63.2%);stroke-opacity:0.324;stroke-width:2" /><text x="161.44" y="117.45" style="fill:rgb(14.9%,14.9%,14.9%);fill-opacity:1.0;stroke:rgb(0.0%,0.0%,0.0%);stroke-opacity:0.324;stroke-width:2;text-anchor:middle" /><path d="M 199.75 95.67 L 179.72 95.67 L 179.72 76.12 L 178.47 76.12" style="stroke:rgb(58.4%,83.3%,64.4%);stroke-opacity:0.268;stroke-width:2" /><text x="179.72" y="97.90" style="fill:rgb(14.9%,14.9%,14.9%);fill-opacity:1.0;stroke:rgb(0.0%,0.0%,0.0%);stroke-opacity:0.268;stroke-width:2;text-anchor:middle" /><path d="M 199.75 95.67 L 197.98 95.67 L 197.98 56.57 L 178.47 56.57" style="stroke:rgb(72.6%,88.9%,63.2%);stroke-opacity:0.324;stroke-width:2" /><text x="197.98" y="88.12" style="fill:rgb(14.9%,14.9%,14.9%);fill-opacity:1.0;stroke:rgb(0.0%,0.0%,0.0%);stroke-opacity:0.324;stroke-width:2;text-anchor:middle" /><path d="M 199.75 95.67 L 198.72 95.67 L 198.72 154.33 L 93.35 154.33" style="stroke:rgb(76.3%,90.4%,62.4%);stroke-opacity:0.34;stroke-width:2" /><text x="198.72" y="137.00" style="fill:rgb(14.9%,14.9%,14.9%);fill-opacity:1.0;stroke:rgb(0.0%,0.0%,0.0%);stroke-opacity:0.34;stroke-width:2;text-anchor:middle" /><path d="M 199.75 95.67 L 199.06 95.67 L 199.06 56.57 L 178.47 56.57" style="stroke:rgb(68.4%,87.2%,64.0%);stroke-opacity:0.306;stroke-width:2" /><text x="199.06" y="88.12" style="fill:rgb(14.9%,14.9%,14.9%);fill-opacity:1.0;stroke:rgb(0.0%,0.0%,0.0%);stroke-opacity:0.306;stroke-width:2;text-anchor:middle" /><path d="M 199.75 95.67 L 179.66 95.67 L 179.66 56.57 L 178.47 56.57" style="stroke:rgb(66.5%,86.5%,64.3%);stroke-opacity:0.298;stroke-width:2" /><text x="179.66" y="88.12" style="fill:rgb(14.9%,14.9%,14.9%);fill-opacity:1.0;stroke:rgb(0.0%,0.0%,0.0%);stroke-opacity:0.298;stroke-width:2;text-anchor:middle" /><path d="M 199.75 95.67 L 164.89 95.67 L 164.89 115.22 L 135.91 115.22" style="stroke:rgb(69.8%,87.8%,63.7%);stroke-opacity:0.312;stroke-width:2" /><text x="164.89" y="117.45" style="fill:rgb(14.9%,14.9%,14.9%);fill-opacity:1.0;stroke:rgb(0.0%,0.0%,0.0%);stroke-opacity:0.312;stroke-width:2;text-anchor:middle" /><path d="M 199.75 95.67 L 183.14 95.67 L 183.14 115.22 L 135.91 115.22" style="stroke:rgb(83.3%,93.3%,61.0%);stroke-opacity:0.37;stroke-width:2" /><text x="183.14" y="117.45" style="fill:rgb(14.9%,14.9%,14.9%);fill-opacity:1.0;stroke:rgb(0.0%,0.0%,0.0%);stroke-opacity:0.37;stroke-width:2;text-anchor:middle" /><path d="M 199.75 95.67 L 179.92 95.67 L 179.92 76.12 L 178.47 76.12" style="stroke:rgb(64.4%,85.6%,64.4%);stroke-opacity:0.29;stroke-width:2" /><text x="179.92" y="97.90" style="fill:rgb(14.9%,14.9%,14.9%);fill-opacity:1.0;stroke:rgb(0.0%,0.0%,0.0%);stroke-opacity:0.29;stroke-width:2;text-anchor:middle" /><path d="M 199.75 95.67 L 174.60 95.67 L 174.60 154.33 L 93.35 154.33" style="stroke:rgb(37.8%,73.6%,65.7%);stroke-opacity:0.189;stroke-width:2" /><text x="174.60" y="137.00" style="fill:rgb(14.9%,14.9%,14.9%);fill-opacity:1.0;stroke:rgb(0.0%,0.0%,0.0%);stroke-opacity:0.189;stroke-width:2;text-anchor:middle" /><path d="M 199.75 95.67 L 184.50 95.67 L 184.50 76.12 L 178.47 76.12" style="stroke:rgb(66.5%,86.5%,64.3%);stroke-opacity:0.298;stroke-width:2" /><text x="184.50" y="97.90" style="fill:rgb(14.9%,14.9%,14.9%);fill-opacity:1.0;stroke:rgb(0.0%,0.0%,0.0%);stroke-opacity:0.298;stroke-width:2;text-anchor:middle" /><path d="M 199.75 95.67 L 179.14 95.67 L 179.14 56.57 L 178.47 56.57" style="stroke:rgb(50.8%,80.3%,64.5%);stroke-opacity:0.24;stroke-width:2" /><text x="179.14" y="88.12" style="fill:rgb(14.9%,14.9%,14.9%);fill-opacity:1.0;stroke:rgb(0.0%,0.0%,0.0%);stroke-opacity:0.24;stroke-width:2;text-anchor:middle" /><path d="M 199.75 95.67 L 189.88 95.67 L 189.88 56.57 L 178.47 56.57" style="stroke:rgb(48.1%,79.3%,64.6%);stroke-opacity:0.23;stroke-width:2" /><text x="189.88" y="88.12" style="fill:rgb(14.9%,14.9%,14.9%);fill-opacity:1.0;stroke:rgb(0.0%,0.0%,0.0%);stroke-opacity:0.23;stroke-width:2;text-anchor:middle" /><path d="M 199.75 95.67 L 197.58 95.67 L 197.58 76.12 L 178.47 76.12" style="stroke:rgb(22.0%,56.0%,73.0%);stroke-opacity:0.1116;stroke-width:2" /><text x="197.58" y="97.90" style="fill:rgb(14.9%,14.9%,14.9%);fill-opacity:1.0;stroke:rgb(0.0%,0.0%,0.0%);stroke-opacity:0.1116;stroke-width:2;text-anchor:middle" /><path d="M 199.75 95.67 L 183.70 95.67 L 183.70 56.57 L 178.47 56.57" style="stroke:rgb(48.1%,79.3%,64.6%);stroke-opacity:0.23;stroke-width:2" /><text x="183.70" y="88.12" style="fill:rgb(14.9%,14.9%,14.9%);fill-opacity:1.0;stroke:rgb(0.0%,0.0%,0.0%);stroke-opacity:0.23;stroke-width:2;text-anchor:middle" /><path d="M 199.75 95.67 L 179.05 95.67 L 179.05 134.78 L 114.63 134.78" style="stroke:rgb(43.2%,77.3%,64.7%);stroke-opacity:0.212;stroke-width:2" /><text x="179.05" y="127.22" style="fill:rgb(14.9%,14.9%,14.9%);fill-opacity:1.0;stroke:rgb(0.0%,0.0%,0.0%);stroke-opacity:0.212;stroke-width:2;text-anchor:middle" /><path d="M 199.75 95.67 L 166.35 95.67 L 166.35 115.22 L 135.91 115.22" style="stroke:rgb(61.6%,84.5%,64.4%);stroke-opacity:0.28;stroke-width:2" /><text x="166.35" y="117.45" style="fill:rgb(14.9%,14.9%,14.9%);fill-opacity:1.0;stroke:rgb(0.0%,0.0%,0.0%);stroke-opacity:0.28;stroke-width:2;text-anchor:middle" /><path d="M 199.75 95.67 L 195.68 95.67 L 195.68 76.12 L 178.47 76.12" style="stroke:rgb(52.4%,80.9%,64.5%);stroke-opacity:0.246;stroke-width:2" /><text x="195.68" y="97.90" style="fill:rgb(14.9%,14.9%,14.9%);fill-opacity:1.0;stroke:rgb(0.0%,0.0%,0.0%);stroke-opacity:0.246;stroke-width:2;text-anchor:middle" /><path d="M 199.75 95.67 L 199.45 95.67 L 199.45 56.57 L 178.47 56.57" style="stroke:rgb(49.7%,79.9%,64.6%);stroke-opacity:0.236;stroke-width:2" /><text x="199.45" y="88.12" style="fill:rgb(14.9%,14.9%,14.9%);fill-opacity:1.0;stroke:rgb(0.0%,0.0%,0.0%);stroke-opacity:0.236;stroke-width:2;text-anchor:middle" /><path d="M 199.75 95.67 L 188.72 95.67 L 188.72 56.57 L 178.47 56.57" style="stroke:rgb(70.3%,88.0%,63.7%);stroke-opacity:0.314;stroke-width:2" /><text x="188.72" y="88.12" style="fill:rgb(14.9%,14.9%,14.9%);fill-opacity:1.0;stroke:rgb(0.0%,0.0%,0.0%);stroke-opacity:0.314;stroke-width:2;text-anchor:middle" /><path d="M 199.75 95.67 L 197.50 95.67 L 197.50 76.12 L 178.47 76.12" style="stroke:rgb(77.7%,91.0%,62.1%);stroke-opacity:0.346;stroke-width:2" /><text x="197.50" y="97.90" style="fill:rgb(14.9%,14.9%,14.9%);fill-opacity:1.0;stroke:rgb(0.0%,0.0%,0.0%);stroke-opacity:0.346;stroke-width:2;text-anchor:middle" /><path d="M 199.75 95.67 L 193.18 95.67 L 50.78 174.03 L 50.78 174.03" style="stroke:rgb(56.8%,82.6%,64.5%);stroke-opacity:0.262;stroke-width:2" /><text x="121.98" y="146.85" style="fill:rgb(14.9%,14.9%,14.9%);fill-opacity:1.0;stroke:rgb(0.0%,0.0%,0.0%);stroke-opacity:0.262;stroke-width:2;text-anchor:middle" /><path d="M 199.75 95.67 L 166.03 95.67 L 166.03 115.22 L 135.91 115.22" style="stroke:rgb(84.2%,93.6%,60.8%);stroke-opacity:0.374;stroke-width:2" /><text x="166.03" y="117.45" style="fill:rgb(14.9%,14.9%,14.9%);fill-opacity:1.0;stroke:rgb(0.0%,0.0%,0.0%);stroke-opacity:0.374;stroke-width:2;text-anchor:middle" /><path d="M 199.75 95.67 L 196.91 95.67 L 196.91 76.12 L 178.47 76.12" style="stroke:rgb(72.1%,88.7%,63.3%);stroke-opacity:0.322;stroke-width:2" /><text x="196.91" y="97.90" style="fill:rgb(14.9%,14.9%,14.9%);fill-opacity:1.0;stroke:rgb(0.0%,0.0%,0.0%);stroke-opacity:0.322;stroke-width:2;text-anchor:middle" /></g><g class="toytree-Nodes" style="fill:rgb(40.0%,76.1%,64.7%);fill-opacity:1.0;stroke:rgb(14.9%,14.9%,14.9%);stroke-opacity:1.0;stroke-width:1.5" /><g class="toytree-TipLabels" style="fill:rgb(14.5%,14.5%,14.5%);fill-opacity:1.0;font-family:Helvetica;font-size:12px;font-weight:300;vertical-align:baseline;white-space:pre;stroke:none"><g class="toytree-TipLabel" transform="translate(199.751,56.5693)"><text x="15.0" y="3.066" style="fill:rgb(14.5%,14.5%,14.5%);fill-opacity:1.0">r0</text></g><g class="toytree-TipLabel" transform="translate(199.751,76.121)"><text x="15.0" y="3.066" style="fill:rgb(14.5%,14.5%,14.5%);fill-opacity:1.0">r1</text></g><g class="toytree-TipLabel" transform="translate(199.751,95.6726)"><text x="15.0" y="3.066" style="fill:rgb(14.5%,14.5%,14.5%);fill-opacity:1.0">r2</text></g><g class="toytree-TipLabel" transform="translate(199.751,115.224)"><text x="15.0" y="3.066" style="fill:rgb(14.5%,14.5%,14.5%);fill-opacity:1.0">r3</text></g><g class="toytree-TipLabel" transform="translate(199.751,134.776)"><text x="15.0" y="3.066" style="fill:rgb(14.5%,14.5%,14.5%);fill-opacity:1.0">r4</text></g><g class="toytree-TipLabel" transform="translate(199.751,154.327)"><text x="15.0" y="3.066" style="fill:rgb(14.5%,14.5%,14.5%);fill-opacity:1.0">r5</text></g><g class="toytree-TipLabel" transform="translate(199.751,173.879)"><text x="15.0" y="3.066" style="fill:rgb(14.5%,14.5%,14.5%);fill-opacity:1.0">r6</text></g><g class="toytree-TipLabel" transform="translate(199.751,193.431)"><text x="15.0" y="3.066" style="fill:rgb(14.5%,14.5%,14.5%);fill-opacity:1.0">r7</text></g></g></g></g></g><g class="toyplot-coordinates-Numberline" id="tdc31bacce8814a90a30fd47e2fe112a7"><clipPath id="tbfb6c1c340a246c89f6d0bcd22d8afe9"><rect x="0" y="-20.0" width="140.0" height="40.0" /></clipPath><g clip-path="url(#tbfb6c1c340a246c89f6d0bcd22d8afe9)" transform="translate(250.0,195.0)rotate(-90.0)"><g class="toyplot-color-Map" id="t970f8a7eeb36453486ef5250389b9509"><defs><linearGradient id="tc6954c19f0564a2892d74dfc6a5d5454" x1="0.0" x2="140.0" y1="0" y2="0" gradientUnits="userSpaceOnUse"><stop stop-color="rgb(36.9%,31%,63.5%)" stop-opacity="1.0" offset="0.0" /><stop stop-color="rgb(34.1%,34.5%,65.2%)" stop-opacity="1.0" offset="0.015873015873015872" /><stop stop-color="rgb(31.4%,38.1%,66.9%)" stop-opacity="1.0" offset="0.031746031746031744" /><stop stop-color="rgb(28.6%,41.6%,68.6%)" stop-opacity="1.0" offset="0.047619047619047616" /><stop stop-color="rgb(25.9%,45.2%,70.3%)" stop-opacity="1.0" offset="0.06349206349206349" /><stop stop-color="rgb(23.2%,48.7%,71.9%)" stop-opacity="1.0" offset="0.07936507936507936" /><stop stop-color="rgb(20.4%,52.3%,73.6%)" stop-opacity="1.0" offset="0.09523809523809523" /><stop stop-color="rgb(21.9%,55.9%,73.1%)" stop-opacity="1.0" offset="0.1111111111111111" /><stop stop-color="rgb(25.1%,59.5%,71.6%)" stop-opacity="1.0" offset="0.12698412698412698" /><stop stop-color="rgb(28.3%,63.1%,70.1%)" stop-opacity="1.0" offset="0.14285714285714285" /><stop stop-color="rgb(31.6%,66.7%,68.6%)" stop-opacity="1.0" offset="0.15873015873015872" /><stop stop-color="rgb(34.8%,70.3%,67.1%)" stop-opacity="1.0" offset="0.1746031746031746" /><stop stop-color="rgb(38.1%,73.9%,65.6%)" stop-opacity="1.0" offset="0.19047619047619047" /><stop stop-color="rgb(41.7%,76.8%,64.7%)" stop-opacity="1.0" offset="0.20634920634920634" /><stop stop-color="rgb(46%,78.4%,64.6%)" stop-opacity="1.0" offset="0.2222222222222222" /><stop stop-color="rgb(50.3%,80.1%,64.6%)" stop-opacity="1.0" offset="0.23809523809523805" /><stop stop-color="rgb(54.6%,81.8%,64.5%)" stop-opacity="1.0" offset="0.25396825396825395" /><stop stop-color="rgb(58.9%,83.5%,64.4%)" stop-opacity="1.0" offset="0.2698412698412698" /><stop stop-color="rgb(63.2%,85.2%,64.4%)" stop-opacity="1.0" offset="0.2857142857142857" /><stop stop-color="rgb(67.4%,86.8%,64.2%)" stop-opacity="1.0" offset="0.30158730158730157" /><stop stop-color="rgb(71.1%,88.3%,63.5%)" stop-opacity="1.0" offset="0.31746031746031744" /><stop stop-color="rgb(74.8%,89.8%,62.7%)" stop-opacity="1.0" offset="0.3333333333333333" /><stop stop-color="rgb(78.4%,91.3%,62%)" stop-opacity="1.0" offset="0.3492063492063492" /><stop stop-color="rgb(82.1%,92.8%,61.3%)" stop-opacity="1.0" offset="0.36507936507936506" /><stop stop-color="rgb(85.8%,94.3%,60.5%)" stop-opacity="1.0" offset="0.38095238095238093" /><stop stop-color="rgb(89.5%,95.8%,59.8%)" stop-opacity="1.0" offset="0.3968253968253968" /><stop stop-color="rgb(91.4%,96.6%,61.5%)" stop-opacity="1.0" offset="0.4126984126984127" /><stop stop-color="rgb(93%,97.2%,64%)" stop-opacity="1.0" offset="0.42857142857142855" /><stop stop-color="rgb(94.6%,97.8%,66.4%)" stop-opacity="1.0" offset="0.4444444444444444" /><stop stop-color="rgb(96.1%,98.4%,68.8%)" stop-opacity="1.0" offset="0.4603174603174603" /><stop stop-color="rgb(97.7%,99.1%,71.3%)" stop-opacity="1.0" offset="0.4761904761904761" /><stop stop-color="rgb(99.2%,99.7%,73.7%)" stop-opacity="1.0" offset="0.49206349206349204" /><stop stop-color="rgb(100%,99%,73.3%)" stop-opacity="1.0" offset="0.5079365079365079" /><stop stop-color="rgb(99.9%,97.1%,70%)" stop-opacity="1.0" offset="0.5238095238095237" /><stop stop-color="rgb(99.8%,95.2%,66.8%)" stop-opacity="1.0" offset="0.5396825396825397" /><stop stop-color="rgb(99.8%,93.2%,63.6%)" stop-opacity="1.0" offset="0.5555555555555556" /><stop stop-color="rgb(99.7%,91.3%,60.3%)" stop-opacity="1.0" offset="0.5714285714285714" /><stop stop-color="rgb(99.7%,89.4%,57.1%)" stop-opacity="1.0" offset="0.5873015873015872" /><stop stop-color="rgb(99.6%,87.2%,54%)" stop-opacity="1.0" offset="0.6031746031746031" /><stop stop-color="rgb(99.5%,84.1%,51.4%)" stop-opacity="1.0" offset="0.6190476190476191" /><stop stop-color="rgb(99.5%,81%,48.8%)" stop-opacity="1.0" offset="0.6349206349206349" /><stop stop-color="rgb(99.4%,77.9%,46.1%)" stop-opacity="1.0" offset="0.6507936507936507" /><stop stop-color="rgb(99.3%,74.8%,43.5%)" stop-opacity="1.0" offset="0.6666666666666666" /><stop stop-color="rgb(99.3%,71.7%,40.9%)" stop-opacity="1.0" offset="0.6825396825396826" /><stop stop-color="rgb(99.2%,68.5%,38.3%)" stop-opacity="1.0" offset="0.6984126984126984" /><stop stop-color="rgb(98.7%,64.6%,36.4%)" stop-opacity="1.0" offset="0.7142857142857142" /><stop stop-color="rgb(98.2%,60.5%,34.5%)" stop-opacity="1.0" offset="0.7301587301587301" /><stop stop-color="rgb(97.6%,56.5%,32.6%)" stop-opacity="1.0" offset="0.746031746031746" /><stop stop-color="rgb(97%,52.5%,30.8%)" stop-opacity="1.0" offset="0.7619047619047619" /><stop stop-color="rgb(96.5%,48.4%,28.9%)" stop-opacity="1.0" offset="0.7777777777777777" /><stop stop-color="rgb(95.9%,44.4%,27%)" stop-opacity="1.0" offset="0.7936507936507936" /><stop stop-color="rgb(94.5%,41%,26.7%)" stop-opacity="1.0" offset="0.8095238095238095" /><stop stop-color="rgb(92.6%,38.1%,27.5%)" stop-opacity="1.0" offset="0.8253968253968254" /><stop stop-color="rgb(90.7%,35.1%,28.2%)" stop-opacity="1.0" offset="0.8412698412698412" /><stop stop-color="rgb(88.7%,32.2%,29%)" stop-opacity="1.0" offset="0.8571428571428571" /><stop stop-color="rgb(86.8%,29.3%,29.7%)" stop-opacity="1.0" offset="0.873015873015873" /><stop stop-color="rgb(84.9%,26.4%,30.5%)" stop-opacity="1.0" offset="0.8888888888888888" /><stop stop-color="rgb(82.5%,23.2%,30.7%)" stop-opacity="1.0" offset="0.9047619047619047" /><stop stop-color="rgb(79.1%,19.4%,29.9%)" stop-opacity="1.0" offset="0.9206349206349206" /><stop stop-color="rgb(75.7%,15.6%,29.1%)" stop-opacity="1.0" offset="0.9365079365079365" /><stop stop-color="rgb(72.2%,11.8%,28.3%)" stop-opacity="1.0" offset="0.9523809523809522" /><stop stop-color="rgb(68.8%,7.99%,27.5%)" stop-opacity="1.0" offset="0.9682539682539681" /><stop stop-color="rgb(65.4%,4.19%,26.7%)" stop-opacity="1.0" offset="0.9841269841269841" /><stop stop-color="rgb(62%,0.392%,25.9%)" stop-opacity="1.0" offset="1.0" /></linearGradient></defs><rect x="0.0" y="-7.5" width="140.0" height="15" style="fill:url(#tc6954c19f0564a2892d74dfc6a5d5454);stroke:rgb(0%,0%,0%);stroke-opacity:1.0;stroke-width:2" /></g></g><g class="toyplot-coordinates-Axis" id="t9e69d4dafe7a4703aa77e04a59f3ad39" transform="translate(250.0,195.0)rotate(-90.0)translate(0,20.0)"><line x1="0" y1="0" x2="140.0" y2="0" style="stroke-width:2" /><g><line x1="0.0" y1="0" x2="0.0" y2="-3" style="stroke-width:2" /><line x1="70.0" y1="0" x2="70.0" y2="-3" style="stroke-width:2" /><line x1="140.0" y1="0" x2="140.0" y2="-3" style="stroke-width:2" /></g><g><g transform="translate(0.0,6)"><text x="-7.6450000000000005" y="9.410499999999999" style="fill:rgb(16.1%,15.3%,14.1%);fill-opacity:1.0;font-family:helvetica;font-size:11.0px;font-weight:normal;stroke:none;vertical-align:baseline;white-space:pre">0.0</text></g><g transform="translate(70.0,6)"><text x="-10.703000000000001" y="9.410499999999999" style="fill:rgb(16.1%,15.3%,14.1%);fill-opacity:1.0;font-family:helvetica;font-size:11.0px;font-weight:normal;stroke:none;vertical-align:baseline;white-space:pre">0.25</text></g><g transform="translate(140.0,6)"><text x="-7.6450000000000005" y="9.410499999999999" style="fill:rgb(16.1%,15.3%,14.1%);fill-opacity:1.0;font-family:helvetica;font-size:11.0px;font-weight:normal;stroke:none;vertical-align:baseline;white-space:pre">0.5</text></g></g><g class="toyplot-coordinates-Axis-coordinates" style="visibility:hidden" transform=""><line x1="0" x2="0" y1="-3.0" y2="4.5" style="stroke:rgb(43.9%,50.2%,56.5%);stroke-opacity:1.0;stroke-width:1.0" /><text x="0" y="-6" style="alignment-baseline:alphabetic;fill:rgb(43.9%,50.2%,56.5%);fill-opacity:1.0;font-size:10px;font-weight:normal;stroke:none;text-anchor:middle" /></g></g></g><g class="toyplot-mark-Text" id="tbb069ce9feb3456098d40dcd33ac42fe"><g class="toyplot-Series"><g class="toyplot-Datum" transform="translate(90.0,65.0)"><text x="-28.5835" y="-3.7895000000000003" style="fill:rgb(16.1%,15.3%,14.1%);fill-opacity:1.0;font-family:helvetica;font-size:11.0px;font-weight:bold;opacity:1;stroke:none;vertical-align:baseline;white-space:pre">Major=0.89</text><text x="-42.339000000000006" y="9.410499999999999" style="fill:rgb(16.1%,15.3%,14.1%);fill-opacity:1.0;font-family:helvetica;font-size:11.0px;font-weight:bold;opacity:1;stroke:none;vertical-align:baseline;white-space:pre">Alternative=0.11</text></g></g></g></svg>