<svg class="toyplot-canvas-Canvas" xmlns:toyplot="http://www.sandia.gov/toyplot" xmlns:xlink="http://www.w3.org/1999/xlink" xmlns="http://www.w3.org/2000/svg" width="300.0px" height="275.0px" viewBox="0 0 300.0 275.0" preserveAspectRatio="xMidYMid meet" style="background-color:transparent;border-color:#292724;border-style:none;border-width:1.0;fill:rgb(16.1%,15.3%,14.1%);fill-opacity:1.0;font-family:Helvetica;font-size:12px;opacity:1.0;stroke:rgb(16.1%,15.3%,14.1%);stroke-opacity:1.0;stroke-width:1.0" id="tc69ad4704c33416e855522cea13dd613"><g class="toyplot-coordinates-Cartesian" id="t5c6843529d6f4eee81d6bec452b1d9c8"><clipPath id="tcb1de0887fe64067959f13bd4b971438"><rect x="35.0" y="35.0" width="230.0" height="205.0" /></clipPath><g clip-path="url(#tcb1de0887fe64067959f13bd4b971438)"><g class="toytree-mark-Toytree" id="t63416163d1e540998bb369ded474ec49"><g class="toytree-Edges" style="stroke:rgb(14.5%,14.5%,14.5%);stroke-opacity:1.0;stroke-linecap:round;stroke-width:2.0;fill:none"><path d="M 51.6 195.4 L 51.6 218.3 L 209.5 218.3" id="14,0" style="stroke:rgb(36.9%,31.0%,63.5%);stroke-opacity:1.0;stroke-width:4.0" /><path d="M 74.1 172.5 L 74.1 195.2 L 209.5 195.2" id="13,1" style="stroke:rgb(36.9%,31.0%,63.5%);stroke-opacity:1.0;stroke-width:4.0" /><path d="M 96.7 149.8 L 96.7 172.1 L 209.5 172.1" id="12,2" style="stroke:rgb(36.9%,31.0%,63.5%);stroke-opacity:1.0;stroke-width:4.0" /><path d="M 97.8 127.4 L 97.8 149.0 L 102.3 149.0" id="11,3" style="stroke:rgb(62.0%,0.4%,25.9%);stroke-opacity:1.0;stroke-width:4.0" /><path d="M 98.9 105.7 L 98.9 126.0 L 102.3 126.0" id="10,4" style="stroke:rgb(62.0%,0.4%,25.9%);stroke-opacity:1.0;stroke-width:4.0" /><path d="M 121.5 85.5 L 121.5 102.9 L 166.6 102.9" id="9,5" style="stroke:rgb(36.9%,31.0%,63.5%);stroke-opacity:1.0;stroke-width:4.0" /><path d="M 144.1 68.2 L 144.1 56.7 L 166.6 56.7" id="8,6" style="stroke:rgb(36.9%,31.0%,63.5%);stroke-opacity:1.0;stroke-width:4.0" /><path d="M 144.1 68.2 L 144.1 79.8 L 166.6 79.8" id="8,7" style="stroke:rgb(36.9%,31.0%,63.5%);stroke-opacity:1.0;stroke-width:4.0" /><path d="M 121.5 85.5 L 121.5 68.2 L 144.1 68.2" id="9,8" style="stroke:rgb(36.9%,31.0%,63.5%);stroke-opacity:1.0;stroke-width:4.0" /><path d="M 98.9 105.7 L 98.9 85.5 L 121.5 85.5" id="10,9" style="stroke:rgb(36.9%,31.0%,63.5%);stroke-opacity:1.0;stroke-width:4.0" /><path d="M 97.8 127.4 L 97.8 105.7 L 98.9 105.7" id="11,10" style="stroke:rgb(62.0%,0.4%,25.9%);stroke-opacity:1.0;stroke-width:4.0" /><path d="M 96.7 149.8 L 96.7 127.4 L 97.8 127.4" id="12,11" style="stroke:rgb(62.0%,0.4%,25.9%);stroke-opacity:1.0;stroke-width:4.0" /><path d="M 74.1 172.5 L 74.1 149.8 L 96.7 149.8" id="13,12" style="stroke:rgb(36.9%,31.0%,63.5%);stroke-opacity:1.0;stroke-width:4.0" /><path d="M 51.6 195.4 L 51.6 172.5 L 74.1 172.5" id="14,13" style="stroke:rgb(36.9%,31.0%,63.5%);stroke-opacity:1.0;stroke-width:4.0" /></g><g class="toytree-AlignEdges" style="stroke:rgb(66.0%,66.0%,66.0%);stroke-opacity:0.75;stroke-dasharray:2,4;stroke-linecap:round;stroke-width:2"><path d="M 209.5 218.3 L 209.5 218.3" /><path d="M 209.5 195.2 L 209.5 195.2" /><path d="M 209.5 172.1 L 209.5 172.1" /><path d="M 209.5 149.0 L 102.3 149.0" /><path d="M 209.5 126.0 L 102.3 126.0" /><path d="M 209.5 102.9 L 166.6 102.9" /><path d="M 209.5 56.7 L 166.6 56.7" /><path d="M 209.5 79.8 L 166.6 79.8" /></g><g class="toytree-AdmixEdges" style="fill:rgb(0.0%,0.0%,0.0%);fill-opacity:0.0;stroke:rgb(90.6%,54.1%,76.5%);stroke-opacity:0.6;font-size:14px;stroke-linecap:round;stroke-width:5" /><g class="toytree-Nodes" style="fill:rgb(40.0%,76.1%,64.7%);fill-opacity:1.0;stroke:rgb(14.9%,14.9%,14.9%);stroke-opacity:1.0;stroke-width:1.5" /><g class="toytree-TipLabels" style="fill:rgb(14.5%,14.5%,14.5%);fill-opacity:1.0;font-family:Helvetica;font-size:12px;font-weight:300;vertical-align:baseline;white-space:pre;stroke:none"><g class="toytree-TipLabel" transform="translate(209.472,218.347)"><text x="15.0" y="3.066" style="fill:rgb(14.5%,14.5%,14.5%);fill-opacity:1.0">r7</text></g><g class="toytree-TipLabel" transform="translate(209.472,195.248)"><text x="15.0" y="3.066" style="fill:rgb(14.5%,14.5%,14.5%);fill-opacity:1.0">r6</text></g><g class="toytree-TipLabel" transform="translate(209.472,172.149)"><text x="15.0" y="3.066" style="fill:rgb(14.5%,14.5%,14.5%);fill-opacity:1.0">r5</text></g><g class="toytree-TipLabel" transform="translate(209.472,149.05)"><text x="15.0" y="3.066" style="fill:rgb(14.5%,14.5%,14.5%);fill-opacity:1.0">r4</text></g><g class="toytree-TipLabel" transform="translate(209.472,125.95)"><text x="15.0" y="3.066" style="fill:rgb(14.5%,14.5%,14.5%);fill-opacity:1.0">r3</text></g><g class="toytree-TipLabel" transform="translate(209.472,102.851)"><text x="15.0" y="3.066" style="fill:rgb(14.5%,14.5%,14.5%);fill-opacity:1.0">r2</text></g><g class="toytree-TipLabel" transform="translate(209.472,56.6526)"><text x="15.0" y="3.066" style="fill:rgb(14.5%,14.5%,14.5%);fill-opacity:1.0">r0</text></g><g class="toytree-TipLabel" transform="translate(209.472,79.7518)"><text x="15.0" y="3.066" style="fill:rgb(14.5%,14.5%,14.5%);fill-opacity:1.0">r1</text></g></g></g></g><g class="toyplot-coordinates-Axis" id="tdeddf3ce413e4ba49b3e89ca8e3c22f3" transform="translate(50.0,225.0)translate(0,15.0)"><line x1="1.5789307480973882" y1="0" x2="159.47200555783624" y2="0" style="" /><g><line x1="1.5789307480974064" y1="0" x2="1.5789307480974064" y2="-5" style="" /><line x1="80.52546815296682" y1="0" x2="80.52546815296682" y2="-5" style="" /><line x1="159.47200555783624" y1="0" x2="159.47200555783624" y2="-5" style="" /></g><g><g transform="translate(1.5789307480974064,6)"><text x="-19.459999999999997" y="8.555" style="fill:rgb(16.1%,15.3%,14.1%);fill-opacity:1.0;font-family:helvetica;font-size:10.0px;font-weight:normal;stroke:none;vertical-align:baseline;white-space:pre">1000000</text></g><g transform="translate(80.52546815296682,6)"><text x="-16.68" y="8.555" style="fill:rgb(16.1%,15.3%,14.1%);fill-opacity:1.0;font-family:helvetica;font-size:10.0px;font-weight:normal;stroke:none;vertical-align:baseline;white-space:pre">500000</text></g><g transform="translate(159.47200555783624,6)"><text x="-2.78" y="8.555" style="fill:rgb(16.1%,15.3%,14.1%);fill-opacity:1.0;font-family:helvetica;font-size:10.0px;font-weight:normal;stroke:none;vertical-align:baseline;white-space:pre">0</text></g></g><g transform="translate(100.0,22)"><text x="-53.675999999999995" y="10.265999999999998" style="fill:rgb(16.1%,15.3%,14.1%);fill-opacity:1.0;font-family:helvetica;font-size:12.0px;font-weight:bold;stroke:none;vertical-align:baseline;white-space:pre">Time (generations)</text></g><g class="toyplot-coordinates-Axis-coordinates" style="visibility:hidden" transform=""><line x1="0" x2="0" y1="-3.0" y2="4.5" style="stroke:rgb(43.9%,50.2%,56.5%);stroke-opacity:1.0;stroke-width:1.0" /><text x="0" y="-6" style="alignment-baseline:alphabetic;fill:rgb(43.9%,50.2%,56.5%);fill-opacity:1.0;font-size:10px;font-weight:normal;stroke:none;text-anchor:middle" /></g></g></g></svg>