<svg class="toyplot-canvas-Canvas" xmlns:toyplot="http://www.sandia.gov/toyplot" xmlns:xlink="http://www.w3.org/1999/xlink" xmlns="http://www.w3.org/2000/svg" width="300.0px" height="275.0px" viewBox="0 0 300.0 275.0" preserveAspectRatio="xMidYMid meet" style="background-color:transparent;border-color:#292724;border-style:none;border-width:1.0;fill:rgb(16.1%,15.3%,14.1%);fill-opacity:1.0;font-family:Helvetica;font-size:12px;opacity:1.0;stroke:rgb(16.1%,15.3%,14.1%);stroke-opacity:1.0;stroke-width:1.0" id="t5b694cf15b7241c79f59c335439b4f97"><g class="toyplot-coordinates-Cartesian" id="tae2a6d3303e44b97ae4d231b5df0e582"><clipPath id="tcdff77aba5be40bc88d9596a231e1675"><rect x="35.0" y="35.0" width="230.0" height="205.0" /></clipPath><g clip-path="url(#tcdff77aba5be40bc88d9596a231e1675)"><g class="toytree-mark-Toytree" id="tbfde3c0c1b084073881068e1baa5fa37"><g class="toytree-Edges" style="stroke:rgb(14.5%,14.5%,14.5%);stroke-opacity:1.0;stroke-linecap:round;stroke-width:2.0;fill:none"><path d="M 132.5 68.2 L 132.5 56.7 L 209.5 56.7" id="8,0" style="stroke:rgb(36.9%,31.0%,63.5%);stroke-opacity:1.0;stroke-width:4.0" /><path d="M 132.5 68.2 L 132.5 79.8 L 209.5 79.8" id="8,1" style="stroke:rgb(36.9%,31.0%,63.5%);stroke-opacity:1.0;stroke-width:4.0" /><path d="M 59.3 114.4 L 59.3 102.9 L 63.1 102.9" id="9,2" style="stroke:rgb(62.0%,0.4%,25.9%);stroke-opacity:1.0;stroke-width:4.0" /><path d="M 59.3 114.4 L 59.3 126.0 L 63.1 126.0" id="9,3" style="stroke:rgb(62.0%,0.4%,25.9%);stroke-opacity:1.0;stroke-width:4.0" /><path d="M 132.5 160.6 L 132.5 149.0 L 209.5 149.0" id="11,4" style="stroke:rgb(36.9%,31.0%,63.5%);stroke-opacity:1.0;stroke-width:4.0" /><path d="M 132.5 160.6 L 132.5 172.1 L 209.5 172.1" id="11,5" style="stroke:rgb(36.9%,31.0%,63.5%);stroke-opacity:1.0;stroke-width:4.0" /><path d="M 59.3 206.8 L 59.3 195.2 L 63.1 195.2" id="12,6" style="stroke:rgb(62.0%,0.4%,25.9%);stroke-opacity:1.0;stroke-width:4.0" /><path d="M 59.3 206.8 L 59.3 218.3 L 63.1 218.3" id="12,7" style="stroke:rgb(62.0%,0.4%,25.9%);stroke-opacity:1.0;stroke-width:4.0" /><path d="M 55.4 91.3 L 55.4 68.2 L 132.5 68.2" id="10,8" style="stroke:rgb(36.9%,31.0%,63.5%);stroke-opacity:1.0;stroke-width:4.0" /><path d="M 55.4 91.3 L 55.4 114.4 L 59.3 114.4" id="10,9" style="stroke:rgb(62.0%,0.4%,25.9%);stroke-opacity:1.0;stroke-width:4.0" /><path d="M 51.6 137.5 L 51.6 91.3 L 55.4 91.3" id="14,10" style="stroke:rgb(62.0%,0.4%,25.9%);stroke-opacity:1.0;stroke-width:4.0" /><path d="M 55.4 183.7 L 55.4 160.6 L 132.5 160.6" id="13,11" style="stroke:rgb(36.9%,31.0%,63.5%);stroke-opacity:1.0;stroke-width:4.0" /><path d="M 55.4 183.7 L 55.4 206.8 L 59.3 206.8" id="13,12" style="stroke:rgb(62.0%,0.4%,25.9%);stroke-opacity:1.0;stroke-width:4.0" /><path d="M 51.6 137.5 L 51.6 183.7 L 55.4 183.7" id="14,13" style="stroke:rgb(62.0%,0.4%,25.9%);stroke-opacity:1.0;stroke-width:4.0" /></g><g class="toytree-AlignEdges" style="stroke:rgb(66.0%,66.0%,66.0%);stroke-opacity:0.75;stroke-dasharray:2,4;stroke-linecap:round;stroke-width:2"><path d="M 209.5 56.7 L 209.5 56.7" /><path d="M 209.5 79.8 L 209.5 79.8" /><path d="M 209.5 102.9 L 63.1 102.9" /><path d="M 209.5 126.0 L 63.1 126.0" /><path d="M 209.5 149.0 L 209.5 149.0" /><path d="M 209.5 172.1 L 209.5 172.1" /><path d="M 209.5 195.2 L 63.1 195.2" /><path d="M 209.5 218.3 L 63.1 218.3" /></g><g class="toytree-AdmixEdges" style="fill:rgb(0.0%,0.0%,0.0%);fill-opacity:0.0;stroke:rgb(90.6%,54.1%,76.5%);stroke-opacity:0.6;font-size:14px;stroke-linecap:round;stroke-width:5" /><g class="toytree-Nodes" style="fill:rgb(40.0%,76.1%,64.7%);fill-opacity:1.0;stroke:rgb(14.9%,14.9%,14.9%);stroke-opacity:1.0;stroke-width:1.5" /><g class="toytree-TipLabels" style="fill:rgb(14.5%,14.5%,14.5%);fill-opacity:1.0;font-family:Helvetica;font-size:12px;font-weight:300;vertical-align:baseline;white-space:pre;stroke:none"><g class="toytree-TipLabel" transform="translate(209.472,56.6526)"><text x="15.0" y="3.066" style="fill:rgb(14.5%,14.5%,14.5%);fill-opacity:1.0">r0</text></g><g class="toytree-TipLabel" transform="translate(209.472,79.7518)"><text x="15.0" y="3.066" style="fill:rgb(14.5%,14.5%,14.5%);fill-opacity:1.0">r1</text></g><g class="toytree-TipLabel" transform="translate(209.472,102.851)"><text x="15.0" y="3.066" style="fill:rgb(14.5%,14.5%,14.5%);fill-opacity:1.0">r2</text></g><g class="toytree-TipLabel" transform="translate(209.472,125.95)"><text x="15.0" y="3.066" style="fill:rgb(14.5%,14.5%,14.5%);fill-opacity:1.0">r3</text></g><g class="toytree-TipLabel" transform="translate(209.472,149.05)"><text x="15.0" y="3.066" style="fill:rgb(14.5%,14.5%,14.5%);fill-opacity:1.0">r4</text></g><g class="toytree-TipLabel" transform="translate(209.472,172.149)"><text x="15.0" y="3.066" style="fill:rgb(14.5%,14.5%,14.5%);fill-opacity:1.0">r5</text></g><g class="toytree-TipLabel" transform="translate(209.472,195.248)"><text x="15.0" y="3.066" style="fill:rgb(14.5%,14.5%,14.5%);fill-opacity:1.0">r6</text></g><g class="toytree-TipLabel" transform="translate(209.472,218.347)"><text x="15.0" y="3.066" style="fill:rgb(14.5%,14.5%,14.5%);fill-opacity:1.0">r7</text></g></g></g></g><g class="toyplot-coordinates-Axis" id="ta0aa2329c08f44878b61d024fde07676" transform="translate(50.0,225.0)translate(0,15.0)"><line x1="1.5789307480973975" y1="0" x2="159.47200555783624" y2="0" style="" /><g><line x1="43.94048740436878" y1="0" x2="43.94048740436878" y2="-5" style="" /><line x1="101.70624648110251" y1="0" x2="101.70624648110251" y2="-5" style="" /><line x1="159.47200555783624" y1="0" x2="159.47200555783624" y2="-5" style="" /></g><g><g transform="translate(43.94048740436878,6)"><text x="-16.68" y="8.555" style="fill:rgb(16.1%,15.3%,14.1%);fill-opacity:1.0;font-family:helvetica;font-size:10.0px;font-weight:normal;stroke:none;vertical-align:baseline;white-space:pre">500000</text></g><g transform="translate(101.70624648110251,6)"><text x="-16.68" y="8.555" style="fill:rgb(16.1%,15.3%,14.1%);fill-opacity:1.0;font-family:helvetica;font-size:10.0px;font-weight:normal;stroke:none;vertical-align:baseline;white-space:pre">250000</text></g><g transform="translate(159.47200555783624,6)"><text x="-2.78" y="8.555" style="fill:rgb(16.1%,15.3%,14.1%);fill-opacity:1.0;font-family:helvetica;font-size:10.0px;font-weight:normal;stroke:none;vertical-align:baseline;white-space:pre">0</text></g></g><g transform="translate(100.0,22)"><text x="-53.675999999999995" y="10.265999999999998" style="fill:rgb(16.1%,15.3%,14.1%);fill-opacity:1.0;font-family:helvetica;font-size:12.0px;font-weight:bold;stroke:none;vertical-align:baseline;white-space:pre">Time (generations)</text></g><g class="toyplot-coordinates-Axis-coordinates" style="visibility:hidden" transform=""><line x1="0" x2="0" y1="-3.0" y2="4.5" style="stroke:rgb(43.9%,50.2%,56.5%);stroke-opacity:1.0;stroke-width:1.0" /><text x="0" y="-6" style="alignment-baseline:alphabetic;fill:rgb(43.9%,50.2%,56.5%);fill-opacity:1.0;font-size:10px;font-weight:normal;stroke:none;text-anchor:middle" /></g></g></g></svg>