<svg class="toyplot-canvas-Canvas" xmlns:toyplot="http://www.sandia.gov/toyplot" xmlns:xlink="http://www.w3.org/1999/xlink" xmlns="http://www.w3.org/2000/svg" width="300.0px" height="275.0px" viewBox="0 0 300.0 275.0" preserveAspectRatio="xMidYMid meet" style="background-color:transparent;border-color:#292724;border-style:none;border-width:1.0;fill:rgb(16.1%,15.3%,14.1%);fill-opacity:1.0;font-family:Helvetica;font-size:12px;opacity:1.0;stroke:rgb(16.1%,15.3%,14.1%);stroke-opacity:1.0;stroke-width:1.0" id="t1a416962fd6f4cb7b9ad323591b6b64d"><g class="toyplot-coordinates-Cartesian" id="t46d282823e90473ba4b60060403b86e3"><clipPath id="t48610bbf0bc44491931887892a146132"><rect x="35.0" y="35.0" width="230.0" height="205.0" /></clipPath><g clip-path="url(#t48610bbf0bc44491931887892a146132)"><g class="toytree-mark-Toytree" id="tf6ed9c4283964644839bca639bef0406"><g class="toytree-Edges" style="stroke:rgb(14.5%,14.5%,14.5%);stroke-opacity:1.0;stroke-linecap:round;stroke-width:2.0;fill:none"><path d="M 50.8 195.4 L 50.8 218.3 L 209.3 218.3" id="14,0" style="stroke:rgb(36.9%,31.0%,63.5%);stroke-opacity:1.0;stroke-width:2.0" /><path d="M 73.4 172.5 L 73.4 195.2 L 209.3 195.2" id="13,1" style="stroke:rgb(36.9%,31.0%,63.5%);stroke-opacity:1.0;stroke-width:2.0" /><path d="M 96.1 149.8 L 96.1 172.1 L 209.3 172.1" id="12,2" style="stroke:rgb(36.9%,31.0%,63.5%);stroke-opacity:1.0;stroke-width:2.0" /><path d="M 118.7 127.4 L 118.7 149.0 L 209.3 149.0" id="11,3" style="stroke:rgb(36.9%,31.0%,63.5%);stroke-opacity:1.0;stroke-width:7.0" /><path d="M 141.4 105.7 L 141.4 126.0 L 209.3 126.0" id="10,4" style="stroke:rgb(36.9%,31.0%,63.5%);stroke-opacity:1.0;stroke-width:7.0" /><path d="M 164.0 85.5 L 164.0 102.9 L 209.3 102.9" id="9,5" style="stroke:rgb(36.9%,31.0%,63.5%);stroke-opacity:1.0;stroke-width:2.0" /><path d="M 186.7 68.2 L 186.7 56.7 L 209.3 56.7" id="8,6" style="stroke:rgb(36.9%,31.0%,63.5%);stroke-opacity:1.0;stroke-width:2.0" /><path d="M 186.7 68.2 L 186.7 79.8 L 209.3 79.8" id="8,7" style="stroke:rgb(36.9%,31.0%,63.5%);stroke-opacity:1.0;stroke-width:2.0" /><path d="M 164.0 85.5 L 164.0 68.2 L 186.7 68.2" id="9,8" style="stroke:rgb(36.9%,31.0%,63.5%);stroke-opacity:1.0;stroke-width:2.0" /><path d="M 141.4 105.7 L 141.4 85.5 L 164.0 85.5" id="10,9" style="stroke:rgb(36.9%,31.0%,63.5%);stroke-opacity:1.0;stroke-width:2.0" /><path d="M 118.7 127.4 L 118.7 105.7 L 141.4 105.7" id="11,10" style="stroke:rgb(36.9%,31.0%,63.5%);stroke-opacity:1.0;stroke-width:7.0" /><path d="M 96.1 149.8 L 96.1 127.4 L 118.7 127.4" id="12,11" style="stroke:rgb(36.9%,31.0%,63.5%);stroke-opacity:1.0;stroke-width:7.0" /><path d="M 73.4 172.5 L 73.4 149.8 L 96.1 149.8" id="13,12" style="stroke:rgb(36.9%,31.0%,63.5%);stroke-opacity:1.0;stroke-width:2.0" /><path d="M 50.8 195.4 L 50.8 172.5 L 73.4 172.5" id="14,13" style="stroke:rgb(36.9%,31.0%,63.5%);stroke-opacity:1.0;stroke-width:2.0" /></g><g class="toytree-AlignEdges" style="stroke:rgb(66.0%,66.0%,66.0%);stroke-opacity:0.75;stroke-dasharray:2,4;stroke-linecap:round;stroke-width:2"><path d="M 209.3 218.3 L 209.3 218.3" /><path d="M 209.3 195.2 L 209.3 195.2" /><path d="M 209.3 172.1 L 209.3 172.1" /><path d="M 209.3 149.0 L 209.3 149.0" /><path d="M 209.3 126.0 L 209.3 126.0" /><path d="M 209.3 102.9 L 209.3 102.9" /><path d="M 209.3 56.7 L 209.3 56.7" /><path d="M 209.3 79.8 L 209.3 79.8" /></g><g class="toytree-AdmixEdges" style="fill:rgb(0.0%,0.0%,0.0%);fill-opacity:0.0;stroke:rgb(90.6%,54.1%,76.5%);stroke-opacity:0.6;font-size:14px;stroke-linecap:round;stroke-width:5" /><g class="toytree-Nodes" style="fill:rgb(40.0%,76.1%,64.7%);fill-opacity:1.0;stroke:rgb(14.9%,14.9%,14.9%);stroke-opacity:1.0;stroke-width:1.5" /><g class="toytree-TipLabels" style="fill:rgb(14.5%,14.5%,14.5%);fill-opacity:1.0;font-family:Helvetica;font-size:12px;font-weight:300;vertical-align:baseline;white-space:pre;stroke:none"><g class="toytree-TipLabel" transform="translate(209.311,218.347)"><text x="15.0" y="3.066" style="fill:rgb(14.5%,14.5%,14.5%);fill-opacity:1.0">r7</text></g><g class="toytree-TipLabel" transform="translate(209.311,195.248)"><text x="15.0" y="3.066" style="fill:rgb(14.5%,14.5%,14.5%);fill-opacity:1.0">r6</text></g><g class="toytree-TipLabel" transform="translate(209.311,172.149)"><text x="15.0" y="3.066" style="fill:rgb(14.5%,14.5%,14.5%);fill-opacity:1.0">r5</text></g><g class="toytree-TipLabel" transform="translate(209.311,149.05)"><text x="15.0" y="3.066" style="fill:rgb(14.5%,14.5%,14.5%);fill-opacity:1.0">r4</text></g><g class="toytree-TipLabel" transform="translate(209.311,125.95)"><text x="15.0" y="3.066" style="fill:rgb(14.5%,14.5%,14.5%);fill-opacity:1.0">r3</text></g><g class="toytree-TipLabel" transform="translate(209.311,102.851)"><text x="15.0" y="3.066" style="fill:rgb(14.5%,14.5%,14.5%);fill-opacity:1.0">r2</text></g><g class="toytree-TipLabel" transform="translate(209.311,56.6526)"><text x="15.0" y="3.066" style="fill:rgb(14.5%,14.5%,14.5%);fill-opacity:1.0">r0</text></g><g class="toytree-TipLabel" transform="translate(209.311,79.7518)"><text x="15.0" y="3.066" style="fill:rgb(14.5%,14.5%,14.5%);fill-opacity:1.0">r1</text></g></g></g></g><g class="toyplot-coordinates-Axis" id="t5e3aec84fdd44d479c7aa8b579479037" transform="translate(50.0,225.0)translate(0,15.0)"><line x1="0.7925940016485771" y1="0" x2="159.3113943313677" y2="0" style="" /><g><line x1="0.7925940016485956" y1="0" x2="0.7925940016485956" y2="-5" style="" /><line x1="80.05199416650814" y1="0" x2="80.05199416650814" y2="-5" style="" /><line x1="159.3113943313677" y1="0" x2="159.3113943313677" y2="-5" style="" /></g><g><g transform="translate(0.7925940016485956,6)"><text x="-19.459999999999997" y="8.555" style="fill:rgb(16.1%,15.3%,14.1%);fill-opacity:1.0;font-family:helvetica;font-size:10.0px;font-weight:normal;stroke:none;vertical-align:baseline;white-space:pre">1000000</text></g><g transform="translate(80.05199416650814,6)"><text x="-16.68" y="8.555" style="fill:rgb(16.1%,15.3%,14.1%);fill-opacity:1.0;font-family:helvetica;font-size:10.0px;font-weight:normal;stroke:none;vertical-align:baseline;white-space:pre">500000</text></g><g transform="translate(159.3113943313677,6)"><text x="-2.78" y="8.555" style="fill:rgb(16.1%,15.3%,14.1%);fill-opacity:1.0;font-family:helvetica;font-size:10.0px;font-weight:normal;stroke:none;vertical-align:baseline;white-space:pre">0</text></g></g><g transform="translate(100.0,22)"><text x="-53.675999999999995" y="10.265999999999998" style="fill:rgb(16.1%,15.3%,14.1%);fill-opacity:1.0;font-family:helvetica;font-size:12.0px;font-weight:bold;stroke:none;vertical-align:baseline;white-space:pre">Time (generations)</text></g><g class="toyplot-coordinates-Axis-coordinates" style="visibility:hidden" transform=""><line x1="0" x2="0" y1="-3.0" y2="4.5" style="stroke:rgb(43.9%,50.2%,56.5%);stroke-opacity:1.0;stroke-width:1.0" /><text x="0" y="-6" style="alignment-baseline:alphabetic;fill:rgb(43.9%,50.2%,56.5%);fill-opacity:1.0;font-size:10px;font-weight:normal;stroke:none;text-anchor:middle" /></g></g></g></svg>