<svg class="toyplot-canvas-Canvas" xmlns:toyplot="http://www.sandia.gov/toyplot" xmlns:xlink="http://www.w3.org/1999/xlink" xmlns="http://www.w3.org/2000/svg" width="300.0px" height="275.0px" viewBox="0 0 300.0 275.0" preserveAspectRatio="xMidYMid meet" style="background-color:transparent;border-color:#292724;border-style:none;border-width:1.0;fill:rgb(16.1%,15.3%,14.1%);fill-opacity:1.0;font-family:Helvetica;font-size:12px;opacity:1.0;stroke:rgb(16.1%,15.3%,14.1%);stroke-opacity:1.0;stroke-width:1.0" id="t52b3b3842ae04544b34334118a83ac22"><g class="toyplot-coordinates-Cartesian" id="td62c574b124b4f7ea284b67c10a2ce53"><clipPath id="t84203f18ced046d78c039cde0cb5f9aa"><rect x="35.0" y="35.0" width="230.0" height="205.0" /></clipPath><g clip-path="url(#t84203f18ced046d78c039cde0cb5f9aa)"><g class="toytree-mark-Toytree" id="tf545a776fbc34eaa9b7b636729897cec"><g class="toytree-Edges" style="stroke:rgb(14.5%,14.5%,14.5%);stroke-opacity:1.0;stroke-linecap:round;stroke-width:2.0;fill:none"><path d="M 50.8 191.3 L 50.8 218.3 L 209.3 218.3" id="14,0" style="" /><path d="M 77.2 164.2 L 77.2 195.2 L 209.3 195.2" id="13,1" style="" /><path d="M 182.9 160.6 L 182.9 172.1 L 209.3 172.1" id="8,2" style="" /><path d="M 182.9 160.6 L 182.9 149.0 L 209.3 149.0" id="8,3" style="" /><path d="M 130.1 105.7 L 130.1 126.0 L 209.3 126.0" id="11,4" style="" /><path d="M 156.5 85.5 L 156.5 102.9 L 209.3 102.9" id="10,5" style="" /><path d="M 182.9 68.2 L 182.9 79.8 L 209.3 79.8" id="9,6" style="" /><path d="M 182.9 68.2 L 182.9 56.7 L 209.3 56.7" id="9,7" style="" /><path d="M 103.6 133.2 L 103.6 160.6 L 182.9 160.6" id="12,8" style="" /><path d="M 156.5 85.5 L 156.5 68.2 L 182.9 68.2" id="10,9" style="" /><path d="M 130.1 105.7 L 130.1 85.5 L 156.5 85.5" id="11,10" style="" /><path d="M 103.6 133.2 L 103.6 105.7 L 130.1 105.7" id="12,11" style="" /><path d="M 77.2 164.2 L 77.2 133.2 L 103.6 133.2" id="13,12" style="" /><path d="M 50.8 191.3 L 50.8 164.2 L 77.2 164.2" id="14,13" style="" /></g><g class="toytree-AdmixEdges" style="fill:rgb(0.0%,0.0%,0.0%);fill-opacity:0.0;stroke:rgb(90.6%,54.1%,76.5%);stroke-opacity:0.6;font-size:14px;stroke-linecap:round;stroke-width:5" /><g class="toytree-Nodes" style="fill:rgb(40.0%,76.1%,64.7%);fill-opacity:1.0;stroke:rgb(14.9%,14.9%,14.9%);stroke-opacity:1.0;stroke-width:1.5" /><g class="toytree-TipLabels" style="fill:rgb(14.5%,14.5%,14.5%);fill-opacity:1.0;font-family:Helvetica;font-size:12px;font-weight:300;vertical-align:baseline;white-space:pre;stroke:none"><g class="toytree-TipLabel" transform="translate(209.311,218.347)"><text x="15.0" y="3.066" style="fill:rgb(14.5%,14.5%,14.5%);fill-opacity:1.0">r7</text></g><g class="toytree-TipLabel" transform="translate(209.311,195.248)"><text x="15.0" y="3.066" style="fill:rgb(14.5%,14.5%,14.5%);fill-opacity:1.0">r6</text></g><g class="toytree-TipLabel" transform="translate(209.311,172.149)"><text x="15.0" y="3.066" style="fill:rgb(14.5%,14.5%,14.5%);fill-opacity:1.0">r5</text></g><g class="toytree-TipLabel" transform="translate(209.311,149.05)"><text x="15.0" y="3.066" style="fill:rgb(14.5%,14.5%,14.5%);fill-opacity:1.0">r4</text></g><g class="toytree-TipLabel" transform="translate(209.311,125.95)"><text x="15.0" y="3.066" style="fill:rgb(14.5%,14.5%,14.5%);fill-opacity:1.0">r3</text></g><g class="toytree-TipLabel" transform="translate(209.311,102.851)"><text x="15.0" y="3.066" style="fill:rgb(14.5%,14.5%,14.5%);fill-opacity:1.0">r2</text></g><g class="toytree-TipLabel" transform="translate(209.311,79.7518)"><text x="15.0" y="3.066" style="fill:rgb(14.5%,14.5%,14.5%);fill-opacity:1.0">r0</text></g><g class="toytree-TipLabel" transform="translate(209.311,56.6526)"><text x="15.0" y="3.066" style="fill:rgb(14.5%,14.5%,14.5%);fill-opacity:1.0">r1</text></g></g></g></g></g></svg>