<svg class="toyplot-canvas-Canvas" xmlns:toyplot="http://www.sandia.gov/toyplot" xmlns:xlink="http://www.w3.org/1999/xlink" xmlns="http://www.w3.org/2000/svg" width="300.0px" height="275.0px" viewBox="0 0 300.0 275.0" preserveAspectRatio="xMidYMid meet" style="background-color:transparent;border-color:#292724;border-style:none;border-width:1.0;fill:rgb(16.1%,15.3%,14.1%);fill-opacity:1.0;font-family:Helvetica;font-size:12px;opacity:1.0;stroke:rgb(16.1%,15.3%,14.1%);stroke-opacity:1.0;stroke-width:1.0" id="t9fb5220d2d664c70b39988a24bc4f1eb"><g class="toyplot-coordinates-Cartesian" id="t0d841d4b58324672b12c5a0556ba53dc"><clipPath id="tf881883da7894ea2a8bdd2026b53dcc4"><rect x="35.0" y="35.0" width="230.0" height="205.0" /></clipPath><g clip-path="url(#tf881883da7894ea2a8bdd2026b53dcc4)"><g class="toytree-mark-Toytree" id="tcfc9cc0a771f4a93a06aab23e1813725"><g class="toytree-Edges" style="stroke:rgb(14.5%,14.5%,14.5%);stroke-opacity:1.0;stroke-linecap:round;stroke-width:2.0;fill:none"><path d="M 57.3 194.1 L 57.3 216.4 L 210.6 216.4" id="14,0" style="" /><path d="M 79.2 171.7 L 79.2 193.9 L 210.6 193.9" id="13,1" style="" /><path d="M 101.1 149.5 L 101.1 171.3 L 210.6 171.3" id="12,2" style="" /><path d="M 123.0 127.6 L 123.0 148.8 L 210.6 148.8" id="11,3" style="" /><path d="M 144.9 106.5 L 144.9 126.2 L 210.6 126.2" id="10,4" style="" /><path d="M 166.8 86.8 L 166.8 103.7 L 210.6 103.7" id="9,5" style="" /><path d="M 188.7 69.8 L 188.7 81.1 L 210.6 81.1" id="8,6" style="" /><path d="M 188.7 69.8 L 188.7 58.6 L 210.6 58.6" id="8,7" style="" /><path d="M 166.8 86.8 L 166.8 69.8 L 188.7 69.8" id="9,8" style="" /><path d="M 144.9 106.5 L 144.9 86.8 L 166.8 86.8" id="10,9" style="" /><path d="M 123.0 127.6 L 123.0 106.5 L 144.9 106.5" id="11,10" style="" /><path d="M 101.1 149.5 L 101.1 127.6 L 123.0 127.6" id="12,11" style="" /><path d="M 79.2 171.7 L 79.2 149.5 L 101.1 149.5" id="13,12" style="" /><path d="M 57.3 194.1 L 57.3 171.7 L 79.2 171.7" id="14,13" style="" /></g><g class="toytree-AdmixEdges" style="fill:rgb(0.0%,0.0%,0.0%);fill-opacity:0.0;stroke:rgb(90.6%,54.1%,76.5%);stroke-opacity:0.6;font-size:14px;stroke-linecap:round;stroke-width:5" /><g class="toytree-Nodes" style="fill:rgb(82.7%,82.7%,82.7%);fill-opacity:1.0;stroke:rgb(14.5%,14.5%,14.5%);stroke-opacity:1.0;stroke-width:1.5"><g id="Node-8" transform="translate(188.73,69.8454)"><circle r="8.0" /></g><g id="Node-9" transform="translate(166.822,86.759)"><circle r="8.0" /></g><g id="Node-10" transform="translate(144.915,106.492)"><circle r="8.0" /></g><g id="Node-11" transform="translate(123.007,127.634)"><circle r="8.0" /></g><g id="Node-12" transform="translate(101.099,149.481)"><circle r="8.0" /></g><g id="Node-13" transform="translate(79.1919,171.68)"><circle r="8.0" /></g></g><g class="toytree-NodeLabels" style="font-family:Helvetica;font-size:9px;font-weight:300;vertical-align:baseline;white-space:pre;stroke:none"><g class="toytree-NodeLabel" transform="translate(188.73,69.8454)"><text x="-2.5020000000000002" y="2.2995" style="fill:rgb(14.5%,14.5%,14.5%);fill-opacity:1.0">1</text></g><g class="toytree-NodeLabel" transform="translate(166.822,86.759)"><text x="-2.5020000000000002" y="2.2995" style="fill:rgb(14.5%,14.5%,14.5%);fill-opacity:1.0">1</text></g><g class="toytree-NodeLabel" transform="translate(144.915,106.492)"><text x="-8.757" y="2.2995" style="fill:rgb(14.5%,14.5%,14.5%);fill-opacity:1.0">0.79</text></g><g class="toytree-NodeLabel" transform="translate(123.007,127.634)"><text x="-8.757" y="2.2995" style="fill:rgb(14.5%,14.5%,14.5%);fill-opacity:1.0">0.96</text></g><g class="toytree-NodeLabel" transform="translate(101.099,149.481)"><text x="-2.5020000000000002" y="2.2995" style="fill:rgb(14.5%,14.5%,14.5%);fill-opacity:1.0">1</text></g><g class="toytree-NodeLabel" transform="translate(79.1919,171.68)"><text x="-7.506" y="2.2995" style="fill:rgb(14.5%,14.5%,14.5%);fill-opacity:1.0">nan</text></g></g><g class="toytree-TipLabels" style="fill:rgb(14.5%,14.5%,14.5%);fill-opacity:1.0;font-family:Helvetica;font-size:12px;font-weight:300;vertical-align:baseline;white-space:pre;stroke:none"><g class="toytree-TipLabel" transform="translate(210.637,216.43)"><text x="15.0" y="3.066" style="fill:rgb(14.5%,14.5%,14.5%);fill-opacity:1.0">r7</text></g><g class="toytree-TipLabel" transform="translate(210.637,193.879)"><text x="15.0" y="3.066" style="fill:rgb(14.5%,14.5%,14.5%);fill-opacity:1.0">r6</text></g><g class="toytree-TipLabel" transform="translate(210.637,171.327)"><text x="15.0" y="3.066" style="fill:rgb(14.5%,14.5%,14.5%);fill-opacity:1.0">r5</text></g><g class="toytree-TipLabel" transform="translate(210.637,148.776)"><text x="15.0" y="3.066" style="fill:rgb(14.5%,14.5%,14.5%);fill-opacity:1.0">r4</text></g><g class="toytree-TipLabel" transform="translate(210.637,126.224)"><text x="15.0" y="3.066" style="fill:rgb(14.5%,14.5%,14.5%);fill-opacity:1.0">r3</text></g><g class="toytree-TipLabel" transform="translate(210.637,103.673)"><text x="15.0" y="3.066" style="fill:rgb(14.5%,14.5%,14.5%);fill-opacity:1.0">r2</text></g><g class="toytree-TipLabel" transform="translate(210.637,81.1211)"><text x="15.0" y="3.066" style="fill:rgb(14.5%,14.5%,14.5%);fill-opacity:1.0">r1</text></g><g class="toytree-TipLabel" transform="translate(210.637,58.5696)"><text x="15.0" y="3.066" style="fill:rgb(14.5%,14.5%,14.5%);fill-opacity:1.0">r0</text></g></g></g></g></g></svg>