<svg class="toyplot-canvas-Canvas" xmlns:toyplot="http://www.sandia.gov/toyplot" xmlns:xlink="http://www.w3.org/1999/xlink" xmlns="http://www.w3.org/2000/svg" width="300.0px" height="275.0px" viewBox="0 0 300.0 275.0" preserveAspectRatio="xMidYMid meet" style="background-color:transparent;border-color:#292724;border-style:none;border-width:1.0;fill:rgb(16.1%,15.3%,14.1%);fill-opacity:1.0;font-family:Helvetica;font-size:12px;opacity:1.0;stroke:rgb(16.1%,15.3%,14.1%);stroke-opacity:1.0;stroke-width:1.0" id="t9273c3a9c4854d4c8c3a29110d63a51e"><g class="toyplot-coordinates-Cartesian" id="t56c8493861454300aebe9ffb6109582a"><clipPath id="t4a5fabe6cc334c0cad4fdbc6b36444f5"><rect x="35.0" y="35.0" width="230.0" height="205.0" /></clipPath><g clip-path="url(#t4a5fabe6cc334c0cad4fdbc6b36444f5)"><g class="toytree-mark-Toytree" id="t975110934a8741dda489daa08fedd6ad"><g class="toytree-Edges" style="stroke:rgb(14.5%,14.5%,14.5%);stroke-opacity:1.0;stroke-linecap:round;stroke-width:2.0;fill:none"><path d="M 57.3 192.1 L 57.3 216.4 L 210.6 216.4" id="14,0" style="" /><path d="M 82.8 167.8 L 82.8 193.9 L 210.6 193.9" id="13,1" style="" /><path d="M 108.4 141.7 L 108.4 171.3 L 210.6 171.3" id="12,2" style="" /><path d="M 185.1 137.5 L 185.1 148.8 L 210.6 148.8" id="8,3" style="" /><path d="M 185.1 137.5 L 185.1 126.2 L 210.6 126.2" id="8,4" style="" /><path d="M 159.5 86.8 L 159.5 103.7 L 210.6 103.7" id="10,5" style="" /><path d="M 185.1 69.8 L 185.1 81.1 L 210.6 81.1" id="9,6" style="" /><path d="M 185.1 69.8 L 185.1 58.6 L 210.6 58.6" id="9,7" style="" /><path d="M 134.0 112.1 L 134.0 137.5 L 185.1 137.5" id="11,8" style="" /><path d="M 159.5 86.8 L 159.5 69.8 L 185.1 69.8" id="10,9" style="" /><path d="M 134.0 112.1 L 134.0 86.8 L 159.5 86.8" id="11,10" style="" /><path d="M 108.4 141.7 L 108.4 112.1 L 134.0 112.1" id="12,11" style="" /><path d="M 82.8 167.8 L 82.8 141.7 L 108.4 141.7" id="13,12" style="" /><path d="M 57.3 192.1 L 57.3 167.8 L 82.8 167.8" id="14,13" style="" /></g><g class="toytree-AdmixEdges" style="fill:rgb(0.0%,0.0%,0.0%);fill-opacity:0.0;stroke:rgb(90.6%,54.1%,76.5%);stroke-opacity:0.6;font-size:14px;stroke-linecap:round;stroke-width:5" /><g class="toytree-Nodes" style="fill:rgb(82.7%,82.7%,82.7%);fill-opacity:1.0;stroke:rgb(14.5%,14.5%,14.5%);stroke-opacity:1.0;stroke-width:1.5"><g id="Node-8" transform="translate(185.078,137.5)"><circle r="8.0" /></g><g id="Node-9" transform="translate(185.078,69.8454)"><circle r="8.0" /></g><g id="Node-10" transform="translate(159.52,86.759)"><circle r="8.0" /></g><g id="Node-11" transform="translate(133.961,112.13)"><circle r="8.0" /></g><g id="Node-12" transform="translate(108.402,141.728)"><circle r="8.0" /></g><g id="Node-13" transform="translate(82.8431,167.804)"><circle r="8.0" /></g></g><g class="toytree-NodeLabels" style="font-family:Helvetica;font-size:9px;font-weight:300;vertical-align:baseline;white-space:pre;stroke:none"><g class="toytree-NodeLabel" transform="translate(185.078,137.5)"><text x="-8.757" y="2.2995" style="fill:rgb(14.5%,14.5%,14.5%);fill-opacity:1.0">0.51</text></g><g class="toytree-NodeLabel" transform="translate(185.078,69.8454)"><text x="-2.5020000000000002" y="2.2995" style="fill:rgb(14.5%,14.5%,14.5%);fill-opacity:1.0">1</text></g><g class="toytree-NodeLabel" transform="translate(159.52,86.759)"><text x="-2.5020000000000002" y="2.2995" style="fill:rgb(14.5%,14.5%,14.5%);fill-opacity:1.0">1</text></g><g class="toytree-NodeLabel" transform="translate(133.961,112.13)"><text x="-8.757" y="2.2995" style="fill:rgb(14.5%,14.5%,14.5%);fill-opacity:1.0">0.79</text></g><g class="toytree-NodeLabel" transform="translate(108.402,141.728)"><text x="-2.5020000000000002" y="2.2995" style="fill:rgb(14.5%,14.5%,14.5%);fill-opacity:1.0">1</text></g><g class="toytree-NodeLabel" transform="translate(82.8431,167.804)"><text x="-7.506" y="2.2995" style="fill:rgb(14.5%,14.5%,14.5%);fill-opacity:1.0">nan</text></g></g><g class="toytree-TipLabels" style="fill:rgb(14.5%,14.5%,14.5%);fill-opacity:1.0;font-family:Helvetica;font-size:12px;font-weight:300;vertical-align:baseline;white-space:pre;stroke:none"><g class="toytree-TipLabel" transform="translate(210.637,216.43)"><text x="15.0" y="3.066" style="fill:rgb(14.5%,14.5%,14.5%);fill-opacity:1.0">r7</text></g><g class="toytree-TipLabel" transform="translate(210.637,193.879)"><text x="15.0" y="3.066" style="fill:rgb(14.5%,14.5%,14.5%);fill-opacity:1.0">r6</text></g><g class="toytree-TipLabel" transform="translate(210.637,171.327)"><text x="15.0" y="3.066" style="fill:rgb(14.5%,14.5%,14.5%);fill-opacity:1.0">r5</text></g><g class="toytree-TipLabel" transform="translate(210.637,148.776)"><text x="15.0" y="3.066" style="fill:rgb(14.5%,14.5%,14.5%);fill-opacity:1.0">r4</text></g><g class="toytree-TipLabel" transform="translate(210.637,126.224)"><text x="15.0" y="3.066" style="fill:rgb(14.5%,14.5%,14.5%);fill-opacity:1.0">r3</text></g><g class="toytree-TipLabel" transform="translate(210.637,103.673)"><text x="15.0" y="3.066" style="fill:rgb(14.5%,14.5%,14.5%);fill-opacity:1.0">r2</text></g><g class="toytree-TipLabel" transform="translate(210.637,81.1211)"><text x="15.0" y="3.066" style="fill:rgb(14.5%,14.5%,14.5%);fill-opacity:1.0">r1</text></g><g class="toytree-TipLabel" transform="translate(210.637,58.5696)"><text x="15.0" y="3.066" style="fill:rgb(14.5%,14.5%,14.5%);fill-opacity:1.0">r0</text></g></g></g></g></g></svg>